# https://github.com/mikedh/trimesh
v 0.05436531 -0.00000000 1.40607204
v 0.05264333 -0.00000000 1.40862209
v 0.05080183 -0.00000000 1.41108722
v 0.04884500 -0.00000000 1.41346184
v 0.04677728 -0.00000000 1.41574055
v 0.04460337 -0.00000000 1.41791818
v 0.04232819 -0.00000000 1.41998979
v 0.03995692 -0.00000000 1.42195067
v 0.03749494 -0.00000000 1.42379637
v 0.03494783 -0.00000000 1.42552270
v 0.03232138 -0.00000000 1.42712575
v 0.02962156 -0.00000000 1.42860187
v 0.02685449 -0.00000000 1.42994771
v 0.02402645 -0.00000000 1.43116022
v 0.02114386 -0.00000000 1.43223665
v 0.01821327 -0.00000000 1.43317454
v 0.01524134 -0.00000000 1.43397177
v 0.01223480 -0.00000000 1.43462654
v 0.00920049 -0.00000000 1.43513735
v 0.00614529 -0.00000000 1.43550305
v 0.00307614 -0.00000000 1.43572279
v 0.00000000 -0.00000000 1.43579610
v 0.05429773 0.00270989 1.40607204
v 0.05409516 0.00541304 1.40607204
v 0.05375810 0.00810273 1.40607204
v 0.05328738 0.01077228 1.40607204
v 0.05268419 0.01341504 1.40607204
v 0.05195001 0.01602446 1.40607204
v 0.05108668 0.01859403 1.40607204
v 0.05009634 0.02111738 1.40607204
v 0.04898145 0.02358822 1.40607204
v 0.04774479 0.02600043 1.40607204
v 0.04638942 0.02834799 1.40607204
v 0.04491873 0.03062507 1.40607204
v 0.04333636 0.03282601 1.40607204
v 0.04164624 0.03494535 1.40607204
v 0.03985259 0.03697780 1.40607204
v 0.03795986 0.03891832 1.40607204
v 0.03597276 0.04076209 1.40607204
v 0.03389622 0.04250451 1.40607204
v 0.03173541 0.04414126 1.40607204
v 0.02949570 0.04566827 1.40607204
v 0.02718266 0.04708174 1.40607204
v 0.02480203 0.04837816 1.40607204
v 0.02235975 0.04955430 1.40607204
v 0.01986188 0.05060724 1.40607204
v 0.01731463 0.05153437 1.40607204
v 0.01472433 0.05233337 1.40607204
v 0.01209742 0.05300226 1.40607204
v 0.00944044 0.05353938 1.40607204
v 0.00675998 0.05394339 1.40607204
v 0.00406272 0.05421330 1.40607204
v 0.00135536 0.05434841 1.40607204
v -0.00135536 0.05434841 1.40607204
v -0.00406272 0.05421330 1.40607204
v -0.00675998 0.05394339 1.40607204
v -0.00944044 0.05353938 1.40607204
v -0.01209742 0.05300226 1.40607204
v -0.01472433 0.05233337 1.40607204
v -0.01731463 0.05153437 1.40607204
v -0.01986188 0.05060724 1.40607204
v -0.02235975 0.04955430 1.40607204
v -0.02480203 0.04837816 1.40607204
v -0.02718266 0.04708174 1.40607204
v -0.02949570 0.04566827 1.40607204
v -0.03173541 0.04414126 1.40607204
v -0.03389622 0.04250451 1.40607204
v -0.03597276 0.04076209 1.40607204
v -0.03795986 0.03891832 1.40607204
v -0.03985259 0.03697780 1.40607204
v -0.04164624 0.03494535 1.40607204
v -0.04333636 0.03282601 1.40607204
v -0.04491873 0.03062507 1.40607204
v -0.04638942 0.02834799 1.40607204
v -0.04774479 0.02600043 1.40607204
v -0.04898145 0.02358822 1.40607204
v -0.05009634 0.02111738 1.40607204
v -0.05108668 0.01859403 1.40607204
v -0.05195001 0.01602446 1.40607204
v -0.05268419 0.01341504 1.40607204
v -0.05328738 0.01077228 1.40607204
v -0.05375810 0.00810273 1.40607204
v -0.05409516 0.00541304 1.40607204
v -0.05429773 0.00270989 1.40607204
v -0.05436531 -0.00000000 1.40607204
v -0.05429773 -0.00270989 1.40607204
v -0.05409516 -0.00541304 1.40607204
v -0.05375810 -0.00810273 1.40607204
v -0.05328738 -0.01077228 1.40607204
v -0.05268419 -0.01341504 1.40607204
v -0.05195001 -0.01602446 1.40607204
v -0.05108668 -0.01859403 1.40607204
v -0.05009634 -0.02111738 1.40607204
v -0.04898145 -0.02358822 1.40607204
v -0.04774479 -0.02600043 1.40607204
v -0.04638942 -0.02834799 1.40607204
v -0.04491873 -0.03062507 1.40607204
v -0.04333636 -0.03282601 1.40607204
v -0.04164624 -0.03494535 1.40607204
v -0.03985259 -0.03697780 1.40607204
v -0.03795986 -0.03891832 1.40607204
v -0.03597276 -0.04076209 1.40607204
v -0.03389622 -0.04250451 1.40607204
v -0.03173541 -0.04414126 1.40607204
v -0.02949570 -0.04566827 1.40607204
v -0.02718266 -0.04708174 1.40607204
v -0.02480203 -0.04837816 1.40607204
v -0.02235975 -0.04955430 1.40607204
v -0.01986188 -0.05060724 1.40607204
v -0.01731463 -0.05153437 1.40607204
v -0.01472433 -0.05233337 1.40607204
v -0.01209742 -0.05300226 1.40607204
v -0.00944044 -0.05353938 1.40607204
v -0.00675998 -0.05394339 1.40607204
v -0.00406272 -0.05421330 1.40607204
v -0.00135536 -0.05434841 1.40607204
v 0.00135536 -0.05434841 1.40607204
v 0.00406272 -0.05421330 1.40607204
v 0.00675998 -0.05394339 1.40607204
v 0.00944044 -0.05353938 1.40607204
v 0.01209742 -0.05300226 1.40607204
v 0.01472433 -0.05233337 1.40607204
v 0.01731463 -0.05153437 1.40607204
v 0.01986188 -0.05060724 1.40607204
v 0.02235975 -0.04955430 1.40607204
v 0.02480203 -0.04837816 1.40607204
v 0.02718266 -0.04708174 1.40607204
v 0.02949570 -0.04566827 1.40607204
v 0.03173541 -0.04414126 1.40607204
v 0.03389622 -0.04250451 1.40607204
v 0.03597276 -0.04076209 1.40607204
v 0.03795986 -0.03891832 1.40607204
v 0.03985259 -0.03697780 1.40607204
v 0.04164624 -0.03494535 1.40607204
v 0.04333636 -0.03282601 1.40607204
v 0.04491873 -0.03062507 1.40607204
v 0.04638942 -0.02834799 1.40607204
v 0.04774479 -0.02600043 1.40607204
v 0.04898145 -0.02358822 1.40607204
v 0.05009634 -0.02111738 1.40607204
v 0.05108668 -0.01859403 1.40607204
v 0.05195001 -0.01602446 1.40607204
v 0.05268419 -0.01341504 1.40607204
v 0.05328738 -0.01077228 1.40607204
v 0.05375810 -0.00810273 1.40607204
v 0.05409516 -0.00541304 1.40607204
v 0.05429773 -0.00270989 1.40607204
v 0.05188921 0.00181201 1.40961865
v 0.05163642 0.00542721 1.40961865
v 0.05113205 0.00901596 1.40961865
v 0.04912543 0.00343518 1.41299442
v 0.05037857 0.01256079 1.40961865
v 0.04876613 0.00685363 1.41299442
v 0.04937966 0.01604442 1.40961865
v 0.04632261 0.00161762 1.41618432
v 0.04816926 0.01023869 1.41299442
v 0.04814017 0.01944989 1.40961865
v 0.04609693 0.00484498 1.41618432
v 0.04733770 0.01357387 1.41299442
v 0.04666615 0.02276060 1.40961865
v 0.04564667 0.00804874 1.41618432
v 0.04627553 0.01684291 1.41299442
v 0.04496477 0.02596042 1.40961865
v 0.04314473 0.00301697 1.41917417
v 0.04497402 0.01121328 1.41618432
v 0.04498790 0.02002990 1.41299442
v 0.04304433 0.02903377 1.40961865
v 0.04282918 0.00601925 1.41917417
v 0.04408227 0.01432320 1.41618432
v 0.04348110 0.02311931 1.41299442
v 0.03993258 0.00139448 1.42195067
v 0.04091418 0.03196566 1.40961865
v 0.04230497 0.00899220 1.41917417
v 0.04297575 0.01736333 1.41618432
v 0.04176246 0.02609608 1.41299442
v 0.03973803 0.00417664 1.42195067
v 0.03858471 0.03474183 1.40961865
v 0.04157465 0.01192134 1.41917417
v 0.04165986 0.02031887 1.41618432
v 0.03984035 0.02894571 1.41299442
v 0.03934989 0.00693845 1.42195067
v 0.03606725 0.03734873 1.40961865
v 0.04064179 0.01479240 1.41917417
v 0.04014101 0.02317542 1.41618432
v 0.03639711 0.00254513 1.42450145
v 0.03772415 0.03165432 1.41299442
v 0.03877003 0.00966645 1.42195067
v 0.03337407 0.03977367 1.40961865
v 0.03951092 0.01759140 1.41917417
v 0.03842659 0.02591906 1.41618432
v 0.03613091 0.00507787 1.42450145
v 0.03542417 0.03420872 1.41299442
v 0.03800129 0.01234737 1.42195067
v 0.03051831 0.04200484 1.40961865
v 0.03818756 0.02030469 1.41917417
v 0.03283272 0.00114654 1.42681518
v 0.03652496 0.02853643 1.41618432
v 0.03568868 0.00758586 1.42450145
v 0.03295160 0.03659645 1.41299442
v 0.03704741 0.01496813 1.42195067
v 0.02751386 0.04403137 1.40961865
v 0.03667816 0.02291906 1.41917417
v 0.03267277 0.00343405 1.42681518
v 0.03444539 0.03101477 1.41618432
v 0.03507258 0.01005690 1.42450145
v 0.03031849 0.03880589 1.41299442
v 0.03591304 0.01751596 1.42195067
v 0.02437536 0.04584338 1.40961865
v 0.03499006 0.02542176 1.41917417
v 0.03235363 0.00570482 1.42681518
v 0.03219800 0.03334201 1.41618432
v 0.03428561 0.01247894 1.42450145
v 0.02753767 0.04082628 1.41299442
v 0.03460371 0.01997846 1.42195067
v 0.02900250 0.00202805 1.42888156
v 0.02111811 0.04743205 1.40961865
v 0.03313149 0.02780062 1.41917417
v 0.03187687 0.00794780 1.42681518
v 0.02979375 0.03550681 1.41618432
v 0.03333161 0.01484019 1.42450145
v 0.02462269 0.04264776 1.41299442
v 0.03312579 0.02234363 1.42195067
v 0.02879039 0.00404622 1.42888156
v 0.01775797 0.04878963 1.40961865
v 0.03111151 0.03004404 1.41917417
v 0.03124481 0.01015205 1.42681518
v 0.02724434 0.03749862 1.41618432
v 0.03221522 0.01712913 1.42450145
v 0.02514924 0.00087823 1.43069140
v 0.02158776 0.04426146 1.41299442
v 0.03148648 0.02459994 1.42195067
v 0.02843800 0.00604468 1.42888156
v 0.01431132 0.04990952 1.40961865
v 0.02893996 0.03214108 1.41917417
v 0.03046053 0.01230685 1.42681518
v 0.02456220 0.03930774 1.41618432
v 0.03094187 0.01933463 1.42450145
v 0.02502672 0.00263041 1.43069140
v 0.01844765 0.04565953 1.41299442
v 0.02969378 0.02673640 1.42195067
v 0.02794707 0.00801369 1.42888156
v 0.01079495 0.05078625 1.40961865
v 0.02662741 0.03408153 1.41917417
v 0.02952784 0.01440169 1.42681518
v 0.02176040 0.04092536 1.41618432
v 0.02951779 0.02144593 1.42450145
v 0.02478226 0.00436978 1.43069140
v 0.01521766 0.04683515 1.41299442
v 0.02775641 0.02874260 1.42195067
v 0.02731999 0.00994366 1.42888156
v 0.00722598 0.05141555 1.40961865
v 0.02418514 0.03585595 1.41917417
v 0.02845130 0.01642637 1.42681518
v 0.02109236 0.00147492 1.43223665
v 0.01885259 0.04234360 1.41618432
v 0.02794989 0.02345274 1.42450145
v 0.02441708 0.00608786 1.43069140
v 0.01191354 0.04778259 1.41299442
v 0.02568381 0.03060878 1.42195067
v 0.02655980 0.01182519 1.42888156
v 0.00362181 0.05179437 1.40961865
v 0.02162504 0.03745568 1.41917417
v 0.02723615 0.01837102 1.42681518
v 0.02093809 0.00294266 1.43223665
v 0.01585292 0.04355554 1.41618432
v 0.02624582 0.02534530 1.42450145
v 0.02393293 0.00777628 1.43069140
v 0.00855137 0.04849724 1.41299442
v 0.02348609 0.03232583 1.42195067
v 0.02567022 0.01364910 1.42888156
v 0.01701871 0.00059431 1.43351042
v -0.00000000 0.05192084 1.40961865
v 0.01895959 0.03887292 1.41917417
v 0.02588831 0.02022616 1.42681518
v 0.02068182 0.00439606 1.43223665
v 0.01277602 0.04455529 1.41618432
v 0.02441389 0.02711437 1.42450145
v 0.02333218 0.00942681 1.43069140
v 0.00514754 0.04897561 1.41299442
v 0.02117394 0.03388539 1.42195067
v 0.02465558 0.01540652 1.42888156
v 0.01693580 0.00178002 1.43351042
v -0.00362181 0.05179437 1.40961865
v 0.01620177 0.04010078 1.41917417
v 0.02441434 0.02198277 1.42681518
v 0.02032478 0.00582804 1.43223665
v 0.00963688 0.04533796 1.41618432
v 0.02246302 0.02875135 1.42450145
v 0.02261777 0.01103142 1.43069140
v 0.00171864 0.04921539 1.41299442
v 0.01875864 0.03527987 1.42195067
v 0.02352081 0.01708887 1.42888156
v 0.01677038 0.00295707 1.43351042
v -0.00722598 0.05141555 1.40961865
v 0.01336501 0.04113328 1.41917417
v 0.02282143 0.02363228 1.42681518
v 0.01986873 0.00723163 1.43223665
v 0.00645079 0.04589976 1.41618432
v 0.02040271 0.03024826 1.42450145
v 0.02179316 0.01258229 1.43069140
v 0.01280728 0.00089557 1.43450706
v -0.00171864 0.04921539 1.41299442
v 0.01625194 0.03650246 1.42195067
v 0.02227146 0.01868797 1.42888156
v 0.01652325 0.00411971 1.43351042
v -0.01079495 0.05078625 1.40961865
v 0.01046314 0.04196538 1.41917417
v 0.02111733 0.02516666 1.42681518
v 0.01931588 0.00859998 1.43223665
v 0.00323327 0.04623793 1.41618432
v 0.01824299 0.03159779 1.42450145
v 0.02086237 0.01407185 1.43069140
v 0.01271361 0.00178678 1.43450706
v -0.00514754 0.04897561 1.41299442
v 0.01366607 0.03754722 1.42195067
v 0.02091360 0.02019603 1.42888156
v 0.01619562 0.00526228 1.43351042
v -0.01431132 0.04990952 1.40961865
v 0.00751030 0.04259302 1.41917417
v 0.01931035 0.02657842 1.42681518
v 0.01866892 0.00992644 1.43223665
v 0.00858566 0.00029982 1.43522213
v -0.00000000 0.04635084 1.41618432
v 0.01599441 0.03279339 1.42450145
v 0.01982995 0.01549286 1.43069140
v 0.01255800 0.00266928 1.43450706
v -0.00855137 0.04849724 1.41299442
v 0.01101362 0.03840906 1.42195067
v 0.01945385 0.02160569 1.42888156
v 0.01578909 0.00637921 1.43351042
v -0.01775797 0.04878963 1.40961865
v 0.00452087 0.04301316 1.41917417
v 0.01740930 0.02786070 1.42681518
v 0.01793101 0.01120454 1.43223665
v 0.00854384 0.00089799 1.43522213
v -0.00323327 0.04623793 1.41618432
v 0.01366789 0.03382922 1.42450145
v 0.01870092 0.01683838 1.43069140
v 0.01234121 0.00353878 1.43450706
v -0.01191354 0.04778259 1.41299442
v 0.00830751 0.03908377 1.42195067
v 0.01789933 0.02291009 1.42888156
v 0.01530564 0.00746506 1.43351042
v -0.02111811 0.04743205 1.40961865
v 0.00150941 0.04322374 1.41917417
v 0.01542343 0.02900724 1.42681518
v 0.01710574 0.01242805 1.43223665
v 0.00846038 0.00149179 1.43522213
v -0.00645079 0.04589976 1.41618432
v 0.01127479 0.03470024 1.42450145
v 0.01748078 0.01810188 1.43069140
v 0.01206429 0.00439104 1.43450706
v -0.01521766 0.04683515 1.41299442
v 0.00556093 0.03956806 1.42195067
v 0.01625760 0.02410288 1.42888156
v 0.01474762 0.00851454 1.43351042
v 0.00429454 0.00030030 1.43565245
v -0.02437536 0.04584338 1.40961865
v -0.00150941 0.04322374 1.41917417
v 0.01336241 0.03001247 1.42681518
v 0.01619714 0.01359101 1.43223665
v 0.00833571 0.00207833 1.43522213
v -0.00963688 0.04533796 1.41618432
v 0.00882676 0.03540220 1.42450145
v 0.01617547 0.01927718 1.43069140
v 0.01172860 0.00522191 1.43450706
v -0.01844765 0.04565953 1.41299442
v 0.00278725 0.03985959 1.42195067
v 0.01453666 0.02517824 1.42888156
v 0.01411775 0.00952254 1.43351042
v 0.00426313 0.00059914 1.43565245
v -0.02751386 0.04403137 1.40961865
v -0.00452087 0.04301316 1.41917417
v 0.01123630 0.03087147 1.42681518
v 0.01520962 0.01468776 1.43223665
v 0.00817043 0.00265473 1.43522213
v -0.01277602 0.04455529 1.41618432
v 0.00633573 0.03593169 1.42450145
v 0.01479136 0.02035857 1.43069140
v 0.01133577 0.00602733 1.43450706
v -0.02158776 0.04426146 1.41299442
v -0.00000000 0.03995692 1.42195067
v 0.01274491 0.02613093 1.42888156
v 0.01341910 0.01048415 1.43351042
v 0.00421095 0.00089507 1.43565245
v -0.03051831 0.04200484 1.40961865
v -0.00751030 0.04259302 1.41917417
v 0.00905544 0.03158008 1.42681518
v 0.01414801 0.01571295 1.43223665
v 0.00796534 0.00321821 1.43522213
v -0.01585292 0.04355554 1.41618432
v 0.00381382 0.03628612 1.42450145
v 0.01333519 0.02134077 1.43069140
v 0.01088771 0.00680340 1.43450706
v -0.02462269 0.04264776 1.41299442
v -0.00278725 0.03985959 1.42195067
v 0.01089106 0.02695632 1.42888156
v 0.01265508 0.01139468 1.43351042
v 0.00413826 0.00118663 1.43565245
v -0.03337407 0.03977367 1.40961865
v -0.01046314 0.04196538 1.41917417
v 0.00683047 0.03213483 1.42681518
v 0.01301746 0.01666159 1.43223665
v 0.00772145 0.00376600 1.43522213
v -0.01885259 0.04234360 1.41618432
v 0.00127334 0.03646376 1.42450145
v 0.01181405 0.02221900 1.43069140
v 0.01038661 0.00754631 1.43450706
v -0.02753767 0.04082628 1.41299442
v -0.00556093 0.03956806 1.42195067
v 0.00898415 0.02765038 1.42888156
v 0.01182940 0.01224970 1.43351042
v 0.00404540 0.00147241 1.43565245
v -0.03606725 0.03734873 1.40961865
v -0.01336501 0.04113328 1.41917417
v 0.00457222 0.03253302 1.42681518
v 0.01182350 0.01752906 1.43223665
v 0.00743994 0.00429545 1.43522213
v -0.02176040 0.04092536 1.41618432
v -0.00127334 0.03646376 1.42450145
v 0.01023535 0.02298898 1.43069140
v 0.00983490 0.00825246 1.43450706
v -0.03031849 0.03880589 1.41299442
v -0.00830751 0.03908377 1.42195067
v 0.00703347 0.02820972 1.42888156
v 0.01094609 0.01304504 1.43351042
v 0.00393284 0.00175101 1.43565245
v -0.03858471 0.03474183 1.40961865
v -0.01620177 0.04010078 1.41917417
v 0.00229169 0.03277271 1.42681518
v 0.01057193 0.01831112 1.43223665
v 0.00712218 0.00480397 1.43522213
v -0.02456220 0.03930774 1.41618432
v -0.00381382 0.03628612 1.42450145
v 0.00860679 0.02364696 1.43069140
v 0.00923528 0.00891841 1.43450706
v -0.03295160 0.03659645 1.41299442
v -0.01101362 0.03840906 1.42195067
v 0.00504853 0.02863164 1.42888156
v 0.01000945 0.01377682 1.43351042
v 0.00380111 0.00202109 1.43565245
v -0.04091418 0.03196566 1.40961865
v -0.01895959 0.03887292 1.41917417
v -0.00000000 0.03285274 1.42681518
v 0.00926886 0.01900398 1.43223665
v 0.00676972 0.00528908 1.43522213
v -0.02724434 0.03749862 1.41618432
v -0.00633573 0.03593169 1.42450145
v 0.00693630 0.02418974 1.43069140
v 0.00859067 0.00954090 1.43450706
v -0.03542417 0.03420872 1.41299442
v -0.01366607 0.03754722 1.42195067
v 0.00303899 0.02891406 1.42888156
v 0.00902404 0.01444148 1.43351042
v 0.00365087 0.00228132 1.43565245
v -0.04304433 0.02903377 1.40961865
v -0.02162504 0.03745568 1.41917417
v -0.00229169 0.03277271 1.42681518
v 0.00792063 0.01960425 1.43223665
v 0.00638428 0.00574843 1.43522213
v -0.02979375 0.03550681 1.41618432
v -0.00882676 0.03540220 1.42450145
v 0.00523201 0.02461466 1.43069140
v 0.00790420 0.01011692 1.43450706
v -0.03772415 0.03165432 1.41299442
v -0.01625194 0.03650246 1.42195067
v 0.00101464 0.02905561 1.42888156
v 0.00799467 0.01503579 1.43351042
v 0.00348284 0.00253043 1.43565245
v -0.04496477 0.02596042 1.40961865
v -0.02418514 0.03585595 1.41917417
v -0.00457222 0.03253302 1.42681518
v 0.00653381 0.02010901 1.43223665
v 0.00596774 0.00617977 1.43522213
v -0.03219800 0.03334201 1.41618432
v -0.01127479 0.03470024 1.42450145
v 0.00350223 0.02491967 1.43069140
v 0.00717923 0.01064364 1.43450706
v -0.03984035 0.02894571 1.41299442
v -0.01875864 0.03527987 1.42195067
v -0.00101464 0.02905561 1.42888156
v 0.00692635 0.01555684 1.43351042
v 0.00329784 0.00276722 1.43565245
v -0.04666615 0.02276060 1.40961865
v -0.02662741 0.03408153 1.41917417
v -0.00683047 0.03213483 1.42681518
v 0.00511516 0.02051580 1.43223665
v 0.00552212 0.00658101 1.43522213
v -0.03444539 0.03101477 1.41618432
v -0.01366789 0.03382922 1.42450145
v 0.00175539 0.02510327 1.43069140
v 0.00641928 0.01111851 1.43450706
v -0.04176246 0.02609608 1.41299442
v -0.02117394 0.03388539 1.42195067
v -0.00303899 0.02891406 1.42888156
v 0.00582429 0.01600211 1.43351042
v 0.00309678 0.00299052 1.43565245
v -0.04814017 0.01944989 1.40961865
v -0.02893996 0.03214108 1.41917417
v -0.00905544 0.03158008 1.42681518
v 0.00367159 0.02082264 1.43223665
v 0.00504960 0.00695018 1.43522213
v -0.03652496 0.02853643 1.41618432
v -0.01599441 0.03279339 1.42450145
v -0.00000000 0.02516457 1.43069140
v 0.00562805 0.01153921 1.43450706
v -0.04348110 0.02311931 1.41299442
v -0.02348609 0.03232583 1.42195067
v -0.00504853 0.02863164 1.42888156
v 0.00469385 0.01636941 1.43351042
v 0.00288062 0.00319926 1.43565245
v -0.04937966 0.01604442 1.40961865
v -0.03111151 0.03004404 1.41917417
v -0.01123630 0.03087147 1.42681518
v 0.00221014 0.02102803 1.43223665
v 0.00455248 0.00728549 1.43522213
v -0.03842659 0.02591906 1.41618432
v -0.01824299 0.03159779 1.42450145
v -0.00175539 0.02510327 1.43069140
v 0.00480941 0.01190370 1.43450706
v -0.04498790 0.02002990 1.41299442
v -0.02568381 0.03060878 1.42195067
v -0.00703347 0.02820972 1.42888156
v 0.00354055 0.01665696 1.43351042
v 0.00265044 0.00339241 1.43565245
v -0.05037857 0.01256079 1.40961865
v -0.03313149 0.02780062 1.41917417
v -0.01336241 0.03001247 1.42681518
v 0.00073791 0.02113098 1.43223665
v 0.00403318 0.00758531 1.43522213
v -0.04014101 0.02317542 1.41618432
v -0.02040271 0.03024826 1.42450145
v -0.00350223 0.02491967 1.43069140
v 0.00396733 0.01221019 1.43450706
v -0.04627553 0.01684291 1.41299442
v -0.02775641 0.02874260 1.42195067
v -0.00898415 0.02765038 1.42888156
v 0.00236999 0.01686336 1.43351042
v 0.00240734 0.00356903 1.43565245
v -0.05113205 0.00901596 1.40961865
v -0.03499006 0.02542176 1.41917417
v -0.01542343 0.02900724 1.42681518
v -0.00073791 0.02113098 1.43223665
v 0.00349423 0.00784818 1.43522213
v -0.04165986 0.02031887 1.41618432
v -0.02246302 0.02875135 1.42450145
v -0.00523201 0.02461466 1.43069140
v 0.00310593 0.01245719 1.43450706
v -0.04733770 0.01357387 1.41299442
v -0.02969378 0.02673640 1.42195067
v -0.01089106 0.02695632 1.42888156
v 0.00118789 0.01698760 1.43351042
v 0.00215251 0.00372826 1.43565245
v -0.05163642 0.00542721 1.40961865
v -0.03667816 0.02291906 1.41917417
v -0.01740930 0.02786070 1.42681518
v -0.00221014 0.02102803 1.43223665
v 0.00293826 0.00807280 1.43522213
v -0.04297575 0.01736333 1.41618432
v -0.02441389 0.02711437 1.42450145
v -0.00693630 0.02418974 1.43069140
v 0.00222939 0.01264350 1.43450706
v -0.04816926 0.01023869 1.41299442
v -0.03148648 0.02459994 1.42195067
v -0.01274491 0.02613093 1.42888156
v -0.00000000 0.01702909 1.43351042
v 0.00188720 0.00386933 1.43565245
v -0.05188921 0.00181201 1.40961865
v -0.03818756 0.02030469 1.41917417
v -0.01931035 0.02657842 1.42681518
v -0.00367159 0.02082264 1.43223665
v 0.00236797 0.00825810 1.43522213
v -0.04408227 0.01432320 1.41618432
v -0.02624582 0.02534530 1.42450145
v -0.00860679 0.02364696 1.43069140
v 0.00134199 0.01276822 1.43450706
v -0.04876613 0.00685363 1.41299442
v -0.03312579 0.02234363 1.42195067
v -0.01453666 0.02517824 1.42888156
v -0.00118789 0.01698760 1.43351042
v 0.00161269 0.00399155 1.43565245
v -0.05188921 -0.00181201 1.40961865
v -0.03951092 0.01759140 1.41917417
v -0.02111733 0.02516666 1.42681518
v -0.00511516 0.02051580 1.43223665
v 0.00178615 0.00840317 1.43522213
v -0.04497402 0.01121328 1.41618432
v -0.02794989 0.02345274 1.42450145
v -0.01023535 0.02298898 1.43069140
v 0.00044806 0.01283073 1.43450706
v -0.04912543 0.00343518 1.41299442
v -0.03460371 0.01997846 1.42195067
v -0.01625760 0.02410288 1.42888156
v -0.00236999 0.01686336 1.43351042
v 0.00133033 0.00409432 1.43565245
v -0.05163642 -0.00542721 1.40961865
v -0.04064179 0.01479240 1.41917417
v -0.02282143 0.02363228 1.42681518
v -0.00653381 0.02010901 1.43223665
v 0.00119562 0.00850729 1.43522213
v -0.04564667 0.00804874 1.41618432
v -0.02951779 0.02144593 1.42450145
v -0.01181405 0.02221900 1.43069140
v -0.00044806 0.01283073 1.43450706
v -0.04924539 -0.00000000 1.41299442
v -0.03591304 0.01751596 1.42195067
v -0.01789933 0.02291009 1.42888156
v -0.00354055 0.01665696 1.43351042
v 0.00104148 0.00417715 1.43565245
v -0.05113205 -0.00901596 1.40961865
v -0.04157465 0.01192134 1.41917417
v -0.02441434 0.02198277 1.42681518
v -0.00792063 0.01960425 1.43223665
v 0.00059927 0.00856997 1.43522213
v -0.04609693 0.00484498 1.41618432
v -0.03094187 0.01933463 1.42450145
v -0.01333519 0.02134077 1.43069140
v -0.00134199 0.01276822 1.43450706
v -0.04912543 -0.00343518 1.41299442
v -0.03704741 0.01496813 1.42195067
v -0.01945385 0.02160569 1.42888156
v -0.00469385 0.01636941 1.43351042
v 0.00074756 0.00423962 1.43565245
v -0.05037857 -0.01256079 1.40961865
v -0.04230497 0.00899220 1.41917417
v -0.02588831 0.02022616 1.42681518
v -0.00926886 0.01900398 1.43223665
v -0.00000000 0.00859090 1.43522213
v -0.04632261 0.00161762 1.41618432
v -0.03221522 0.01712913 1.42450145
v -0.01479136 0.02035857 1.43069140
v -0.00222939 0.01264350 1.43450706
v -0.04876613 -0.00685363 1.41299442
v -0.03800129 0.01234737 1.42195067
v -0.02091360 0.02019603 1.42888156
v -0.00582429 0.01600211 1.43351042
v 0.00045000 0.00428144 1.43565245
v -0.04937966 -0.01604442 1.40961865
v -0.04282918 0.00601925 1.41917417
v -0.02723615 0.01837102 1.42681518
v -0.01057193 0.01831112 1.43223665
v -0.00059927 0.00856997 1.43522213
v -0.04632261 -0.00161762 1.41618432
v -0.03333161 0.01484019 1.42450145
v -0.01617547 0.01927718 1.43069140
v -0.00310593 0.01245719 1.43450706
v -0.04816926 -0.01023869 1.41299442
v -0.03877003 0.00966645 1.42195067
v -0.02227146 0.01868797 1.42888156
v -0.00692635 0.01555684 1.43351042
v 0.00015024 0.00430240 1.43565245
v -0.04814017 -0.01944989 1.40961865
v -0.04314473 0.00301697 1.41917417
v -0.02845130 0.01642637 1.42681518
v -0.01182350 0.01752906 1.43223665
v -0.00119562 0.00850729 1.43522213
v -0.04609693 -0.00484498 1.41618432
v -0.03428561 0.01247894 1.42450145
v -0.01748078 0.01810188 1.43069140
v -0.00396733 0.01221019 1.43450706
v -0.04733770 -0.01357387 1.41299442
v -0.03934989 0.00693845 1.42195067
v -0.02352081 0.01708887 1.42888156
v -0.00799467 0.01503579 1.43351042
v -0.00015024 0.00430240 1.43565245
v -0.04666615 -0.02276060 1.40961865
v -0.04325009 -0.00000000 1.41917417
v -0.02952784 0.01440169 1.42681518
v -0.01301746 0.01666159 1.43223665
v -0.00178615 0.00840317 1.43522213
v -0.04564667 -0.00804874 1.41618432
v -0.03507258 0.01005690 1.42450145
v -0.01870092 0.01683838 1.43069140
v -0.00480941 0.01190370 1.43450706
v -0.04627553 -0.01684291 1.41299442
v -0.03973803 0.00417664 1.42195067
v -0.02465558 0.01540652 1.42888156
v -0.00902404 0.01444148 1.43351042
v -0.00045000 0.00428144 1.43565245
v -0.04496477 -0.02596042 1.40961865
v -0.04314473 -0.00301697 1.41917417
v -0.03046053 0.01230685 1.42681518
v -0.01414801 0.01571295 1.43223665
v -0.00236797 0.00825810 1.43522213
v -0.04497402 -0.01121328 1.41618432
v -0.03568868 0.00758586 1.42450145
v -0.01982995 0.01549286 1.43069140
v -0.00562805 0.01153921 1.43450706
v -0.04498790 -0.02002990 1.41299442
v -0.03993258 0.00139448 1.42195067
v -0.02567022 0.01364910 1.42888156
v -0.01000945 0.01377682 1.43351042
v -0.00074756 0.00423962 1.43565245
v -0.04304433 -0.02903377 1.40961865
v -0.04282918 -0.00601925 1.41917417
v -0.03124481 0.01015205 1.42681518
v -0.01520962 0.01468776 1.43223665
v -0.00293826 0.00807280 1.43522213
v -0.04408227 -0.01432320 1.41618432
v -0.03613091 0.00507787 1.42450145
v -0.02086237 0.01407185 1.43069140
v -0.00641928 0.01111851 1.43450706
v -0.04348110 -0.02311931 1.41299442
v -0.03993258 -0.00139448 1.42195067
v -0.02655980 0.01182519 1.42888156
v -0.01094609 0.01304504 1.43351042
v -0.00104148 0.00417715 1.43565245
v -0.04091418 -0.03196566 1.40961865
v -0.04230497 -0.00899220 1.41917417
v -0.03187687 0.00794780 1.42681518
v -0.01619714 0.01359101 1.43223665
v -0.00349423 0.00784818 1.43522213
v -0.04297575 -0.01736333 1.41618432
v -0.03639711 0.00254513 1.42450145
v -0.02179316 0.01258229 1.43069140
v -0.00717923 0.01064364 1.43450706
v -0.04176246 -0.02609608 1.41299442
v -0.03973803 -0.00417664 1.42195067
v -0.02731999 0.00994366 1.42888156
v -0.01182940 0.01224970 1.43351042
v -0.00133033 0.00409432 1.43565245
v -0.03858471 -0.03474183 1.40961865
v -0.04157465 -0.01192134 1.41917417
v -0.03235363 0.00570482 1.42681518
v -0.01710574 0.01242805 1.43223665
v -0.00403318 0.00758531 1.43522213
v -0.04165986 -0.02031887 1.41618432
v -0.03648599 -0.00000000 1.42450145
v -0.02261777 0.01103142 1.43069140
v -0.00790420 0.01011692 1.43450706
v -0.03984035 -0.02894571 1.41299442
v -0.03934989 -0.00693845 1.42195067
v -0.02794707 0.00801369 1.42888156
v -0.01265508 0.01139468 1.43351042
v -0.00161269 0.00399155 1.43565245
v -0.03606725 -0.03734873 1.40961865
v -0.04064179 -0.01479240 1.41917417
v -0.03267277 0.00343405 1.42681518
v -0.01793101 0.01120454 1.43223665
v -0.00455248 0.00728549 1.43522213
v -0.04014101 -0.02317542 1.41618432
v -0.03639711 -0.00254513 1.42450145
v -0.02333218 0.00942681 1.43069140
v -0.00859067 0.00954090 1.43450706
v -0.03772415 -0.03165432 1.41299442
v -0.03877003 -0.00966645 1.42195067
v -0.02843800 0.00604468 1.42888156
v -0.01341910 0.01048415 1.43351042
v -0.00188720 0.00386933 1.43565245
v -0.03337407 -0.03977367 1.40961865
v -0.03951092 -0.01759140 1.41917417
v -0.03283272 0.00114654 1.42681518
v -0.01866892 0.00992644 1.43223665
v -0.00504960 0.00695018 1.43522213
v -0.03842659 -0.02591906 1.41618432
v -0.03613091 -0.00507787 1.42450145
v -0.02393293 0.00777628 1.43069140
v -0.00923528 0.00891841 1.43450706
v -0.03542417 -0.03420872 1.41299442
v -0.03800129 -0.01234737 1.42195067
v -0.02879039 0.00404622 1.42888156
v -0.01411775 0.00952254 1.43351042
v -0.00215251 0.00372826 1.43565245
v -0.03051831 -0.04200484 1.40961865
v -0.03818756 -0.02030469 1.41917417
v -0.03283272 -0.00114654 1.42681518
v -0.01931588 0.00859998 1.43223665
v -0.00552212 0.00658101 1.43522213
v -0.03652496 -0.02853643 1.41618432
v -0.03568868 -0.00758586 1.42450145
v -0.02441708 0.00608786 1.43069140
v -0.00983490 0.00825246 1.43450706
v -0.03295160 -0.03659645 1.41299442
v -0.03704741 -0.01496813 1.42195067
v -0.02900250 0.00202805 1.42888156
v -0.01474762 0.00851454 1.43351042
v -0.00240734 0.00356903 1.43565245
v -0.02751386 -0.04403137 1.40961865
v -0.03667816 -0.02291906 1.41917417
v -0.03267277 -0.00343405 1.42681518
v -0.01986873 0.00723163 1.43223665
v -0.00596774 0.00617977 1.43522213
v -0.03444539 -0.03101477 1.41618432
v -0.03507258 -0.01005690 1.42450145
v -0.02478226 0.00436978 1.43069140
v -0.01038661 0.00754631 1.43450706
v -0.03031849 -0.03880589 1.41299442
v -0.03591304 -0.01751596 1.42195067
v -0.02907333 -0.00000000 1.42888156
v -0.01530564 0.00746506 1.43351042
v -0.00265044 0.00339241 1.43565245
v -0.02437536 -0.04584338 1.40961865
v -0.03499006 -0.02542176 1.41917417
v -0.03235363 -0.00570482 1.42681518
v -0.02032478 0.00582804 1.43223665
v -0.00638428 0.00574843 1.43522213
v -0.03219800 -0.03334201 1.41618432
v -0.03428561 -0.01247894 1.42450145
v -0.02502672 0.00263041 1.43069140
v -0.01088771 0.00680340 1.43450706
v -0.02753767 -0.04082628 1.41299442
v -0.03460371 -0.01997846 1.42195067
v -0.02900250 -0.00202805 1.42888156
v -0.01578909 0.00637921 1.43351042
v -0.00288062 0.00319926 1.43565245
v -0.02111811 -0.04743205 1.40961865
v -0.03313149 -0.02780062 1.41917417
v -0.03187687 -0.00794780 1.42681518
v -0.02068182 0.00439606 1.43223665
v -0.00676972 0.00528908 1.43522213
v -0.02979375 -0.03550681 1.41618432
v -0.03333161 -0.01484019 1.42450145
v -0.02514924 0.00087823 1.43069140
v -0.01133577 0.00602733 1.43450706
v -0.02462269 -0.04264776 1.41299442
v -0.03312579 -0.02234363 1.42195067
v -0.02879039 -0.00404622 1.42888156
v -0.01619562 0.00526228 1.43351042
v -0.00309678 0.00299052 1.43565245
v -0.01775797 -0.04878963 1.40961865
v -0.03111151 -0.03004404 1.41917417
v -0.03124481 -0.01015205 1.42681518
v -0.02093809 0.00294266 1.43223665
v -0.00712218 0.00480397 1.43522213
v -0.02724434 -0.03749862 1.41618432
v -0.03221522 -0.01712913 1.42450145
v -0.02514924 -0.00087823 1.43069140
v -0.01172860 0.00522191 1.43450706
v -0.02158776 -0.04426146 1.41299442
v -0.03148648 -0.02459994 1.42195067
v -0.02843800 -0.00604468 1.42888156
v -0.01652325 0.00411971 1.43351042
v -0.00329784 0.00276722 1.43565245
v -0.01431132 -0.04990952 1.40961865
v -0.02893996 -0.03214108 1.41917417
v -0.03046053 -0.01230685 1.42681518
v -0.02109236 0.00147492 1.43223665
v -0.00743994 0.00429545 1.43522213
v -0.02456220 -0.03930774 1.41618432
v -0.03094187 -0.01933463 1.42450145
v -0.02502672 -0.00263041 1.43069140
v -0.01206429 0.00439104 1.43450706
v -0.01844765 -0.04565953 1.41299442
v -0.02969378 -0.02673640 1.42195067
v -0.02794707 -0.00801369 1.42888156
v -0.01677038 0.00295707 1.43351042
v -0.00348284 0.00253043 1.43565245
v -0.01079495 -0.05078625 1.40961865
v -0.02662741 -0.03408153 1.41917417
v -0.02952784 -0.01440169 1.42681518
v -0.02114386 -0.00000000 1.43223665
v -0.00772145 0.00376600 1.43522213
v -0.02176040 -0.04092536 1.41618432
v -0.02951779 -0.02144593 1.42450145
v -0.02478226 -0.00436978 1.43069140
v -0.01234121 0.00353878 1.43450706
v -0.01521766 -0.04683515 1.41299442
v -0.02775641 -0.02874260 1.42195067
v -0.02731999 -0.00994366 1.42888156
v -0.01693580 0.00178002 1.43351042
v -0.00365087 0.00228132 1.43565245
v -0.00722598 -0.05141555 1.40961865
v -0.02418514 -0.03585595 1.41917417
v -0.02845130 -0.01642637 1.42681518
v -0.02109236 -0.00147492 1.43223665
v -0.00796534 0.00321821 1.43522213
v -0.01885259 -0.04234360 1.41618432
v -0.02794989 -0.02345274 1.42450145
v -0.02441708 -0.00608786 1.43069140
v -0.01255800 0.00266928 1.43450706
v -0.01191354 -0.04778259 1.41299442
v -0.02568381 -0.03060878 1.42195067
v -0.02655980 -0.01182519 1.42888156
v -0.01701871 0.00059431 1.43351042
v -0.00380111 0.00202109 1.43565245
v -0.00362181 -0.05179437 1.40961865
v -0.02162504 -0.03745568 1.41917417
v -0.02723615 -0.01837102 1.42681518
v -0.02093809 -0.00294266 1.43223665
v -0.00817043 0.00265473 1.43522213
v -0.01585292 -0.04355554 1.41618432
v -0.02624582 -0.02534530 1.42450145
v -0.02393293 -0.00777628 1.43069140
v -0.01271361 0.00178678 1.43450706
v -0.00855137 -0.04849724 1.41299442
v -0.02348609 -0.03232583 1.42195067
v -0.02567022 -0.01364910 1.42888156
v -0.01701871 -0.00059431 1.43351042
v -0.00393284 0.00175101 1.43565245
v 0.00000000 -0.05192084 1.40961865
v -0.01895959 -0.03887292 1.41917417
v -0.02588831 -0.02022616 1.42681518
v -0.02068182 -0.00439606 1.43223665
v -0.00833571 0.00207833 1.43522213
v -0.01277602 -0.04455529 1.41618432
v -0.02441389 -0.02711437 1.42450145
v -0.02333218 -0.00942681 1.43069140
v -0.01280728 0.00089557 1.43450706
v -0.00514754 -0.04897561 1.41299442
v -0.02117394 -0.03388539 1.42195067
v -0.02465558 -0.01540652 1.42888156
v -0.01693580 -0.00178002 1.43351042
v -0.00404540 0.00147241 1.43565245
v 0.00362181 -0.05179437 1.40961865
v -0.01620177 -0.04010078 1.41917417
v -0.02441434 -0.02198277 1.42681518
v -0.02032478 -0.00582804 1.43223665
v -0.00846038 0.00149179 1.43522213
v -0.00963688 -0.04533796 1.41618432
v -0.02246302 -0.02875135 1.42450145
v -0.02261777 -0.01103142 1.43069140
v -0.01283855 -0.00000000 1.43450706
v -0.00171864 -0.04921539 1.41299442
v -0.01875864 -0.03527987 1.42195067
v -0.02352081 -0.01708887 1.42888156
v -0.01677038 -0.00295707 1.43351042
v -0.00413826 0.00118663 1.43565245
v 0.00722598 -0.05141555 1.40961865
v -0.01336501 -0.04113328 1.41917417
v -0.02282143 -0.02363228 1.42681518
v -0.01986873 -0.00723163 1.43223665
v -0.00854384 0.00089799 1.43522213
v -0.00645079 -0.04589976 1.41618432
v -0.02040271 -0.03024826 1.42450145
v -0.02179316 -0.01258229 1.43069140
v -0.01280728 -0.00089557 1.43450706
v 0.00171864 -0.04921539 1.41299442
v -0.01625194 -0.03650246 1.42195067
v -0.02227146 -0.01868797 1.42888156
v -0.01652325 -0.00411971 1.43351042
v -0.00421095 0.00089507 1.43565245
v 0.01079495 -0.05078625 1.40961865
v -0.01046314 -0.04196538 1.41917417
v -0.02111733 -0.02516666 1.42681518
v -0.01931588 -0.00859998 1.43223665
v -0.00858566 0.00029982 1.43522213
v -0.00323327 -0.04623793 1.41618432
v -0.01824299 -0.03159779 1.42450145
v -0.02086237 -0.01407185 1.43069140
v -0.01271361 -0.00178678 1.43450706
v 0.00514754 -0.04897561 1.41299442
v -0.01366607 -0.03754722 1.42195067
v -0.02091360 -0.02019603 1.42888156
v -0.01619562 -0.00526228 1.43351042
v -0.00426313 0.00059914 1.43565245
v 0.01431132 -0.04990952 1.40961865
v -0.00751030 -0.04259302 1.41917417
v -0.01931035 -0.02657842 1.42681518
v -0.01866892 -0.00992644 1.43223665
v -0.00858566 -0.00029982 1.43522213
v 0.00000000 -0.04635084 1.41618432
v -0.01599441 -0.03279339 1.42450145
v -0.01982995 -0.01549286 1.43069140
v -0.01255800 -0.00266928 1.43450706
v 0.00855137 -0.04849724 1.41299442
v -0.01101362 -0.03840906 1.42195067
v -0.01945385 -0.02160569 1.42888156
v -0.01578909 -0.00637921 1.43351042
v -0.00429454 0.00030030 1.43565245
v 0.01775797 -0.04878963 1.40961865
v -0.00452087 -0.04301316 1.41917417
v -0.01740930 -0.02786070 1.42681518
v -0.01793101 -0.01120454 1.43223665
v -0.00854384 -0.00089799 1.43522213
v 0.00323327 -0.04623793 1.41618432
v -0.01366789 -0.03382922 1.42450145
v -0.01870092 -0.01683838 1.43069140
v -0.01234121 -0.00353878 1.43450706
v 0.01191354 -0.04778259 1.41299442
v -0.00830751 -0.03908377 1.42195067
v -0.01789933 -0.02291009 1.42888156
v -0.01530564 -0.00746506 1.43351042
v -0.00430503 -0.00000000 1.43565245
v 0.02111811 -0.04743205 1.40961865
v -0.00150941 -0.04322374 1.41917417
v -0.01542343 -0.02900724 1.42681518
v -0.01710574 -0.01242805 1.43223665
v -0.00846038 -0.00149179 1.43522213
v 0.00645079 -0.04589976 1.41618432
v -0.01127479 -0.03470024 1.42450145
v -0.01748078 -0.01810188 1.43069140
v -0.01206429 -0.00439104 1.43450706
v 0.01521766 -0.04683515 1.41299442
v -0.00556093 -0.03956806 1.42195067
v -0.01625760 -0.02410288 1.42888156
v -0.01474762 -0.00851454 1.43351042
v -0.00429454 -0.00030030 1.43565245
v 0.02437536 -0.04584338 1.40961865
v 0.00150941 -0.04322374 1.41917417
v -0.01336241 -0.03001247 1.42681518
v -0.01619714 -0.01359101 1.43223665
v -0.00833571 -0.00207833 1.43522213
v 0.00963688 -0.04533796 1.41618432
v -0.00882676 -0.03540220 1.42450145
v -0.01617547 -0.01927718 1.43069140
v -0.01172860 -0.00522191 1.43450706
v 0.01844765 -0.04565953 1.41299442
v -0.00278725 -0.03985959 1.42195067
v -0.01453666 -0.02517824 1.42888156
v -0.01411775 -0.00952254 1.43351042
v -0.00426313 -0.00059914 1.43565245
v 0.02751386 -0.04403137 1.40961865
v 0.00452087 -0.04301316 1.41917417
v -0.01123630 -0.03087147 1.42681518
v -0.01520962 -0.01468776 1.43223665
v -0.00817043 -0.00265473 1.43522213
v 0.01277602 -0.04455529 1.41618432
v -0.00633573 -0.03593169 1.42450145
v -0.01479136 -0.02035857 1.43069140
v -0.01133577 -0.00602733 1.43450706
v 0.02158776 -0.04426146 1.41299442
v 0.00000000 -0.03995692 1.42195067
v -0.01274491 -0.02613093 1.42888156
v -0.01341910 -0.01048415 1.43351042
v -0.00421095 -0.00089507 1.43565245
v 0.03051831 -0.04200484 1.40961865
v 0.00751030 -0.04259302 1.41917417
v -0.00905544 -0.03158008 1.42681518
v -0.01414801 -0.01571295 1.43223665
v -0.00796534 -0.00321821 1.43522213
v 0.01585292 -0.04355554 1.41618432
v -0.00381382 -0.03628612 1.42450145
v -0.01333519 -0.02134077 1.43069140
v -0.01088771 -0.00680340 1.43450706
v 0.02462269 -0.04264776 1.41299442
v 0.00278725 -0.03985959 1.42195067
v -0.01089106 -0.02695632 1.42888156
v -0.01265508 -0.01139468 1.43351042
v -0.00413826 -0.00118663 1.43565245
v 0.03337407 -0.03977367 1.40961865
v 0.01046314 -0.04196538 1.41917417
v -0.00683047 -0.03213483 1.42681518
v -0.01301746 -0.01666159 1.43223665
v -0.00772145 -0.00376600 1.43522213
v 0.01885259 -0.04234360 1.41618432
v -0.00127334 -0.03646376 1.42450145
v -0.01181405 -0.02221900 1.43069140
v -0.01038661 -0.00754631 1.43450706
v 0.02753767 -0.04082628 1.41299442
v 0.00556093 -0.03956806 1.42195067
v -0.00898415 -0.02765038 1.42888156
v -0.01182940 -0.01224970 1.43351042
v -0.00404540 -0.00147241 1.43565245
v 0.03606725 -0.03734873 1.40961865
v 0.01336501 -0.04113328 1.41917417
v -0.00457222 -0.03253302 1.42681518
v -0.01182350 -0.01752906 1.43223665
v -0.00743994 -0.00429545 1.43522213
v 0.02176040 -0.04092536 1.41618432
v 0.00127334 -0.03646376 1.42450145
v -0.01023535 -0.02298898 1.43069140
v -0.00983490 -0.00825246 1.43450706
v 0.03031849 -0.03880589 1.41299442
v 0.00830751 -0.03908377 1.42195067
v -0.00703347 -0.02820972 1.42888156
v -0.01094609 -0.01304504 1.43351042
v -0.00393284 -0.00175101 1.43565245
v 0.03858471 -0.03474183 1.40961865
v 0.01620177 -0.04010078 1.41917417
v -0.00229169 -0.03277271 1.42681518
v -0.01057193 -0.01831112 1.43223665
v -0.00712218 -0.00480397 1.43522213
v 0.02456220 -0.03930774 1.41618432
v 0.00381382 -0.03628612 1.42450145
v -0.00860679 -0.02364696 1.43069140
v -0.00923528 -0.00891841 1.43450706
v 0.03295160 -0.03659645 1.41299442
v 0.01101362 -0.03840906 1.42195067
v -0.00504853 -0.02863164 1.42888156
v -0.01000945 -0.01377682 1.43351042
v -0.00380111 -0.00202109 1.43565245
v 0.04091418 -0.03196566 1.40961865
v 0.01895959 -0.03887292 1.41917417
v 0.00000000 -0.03285274 1.42681518
v -0.00926886 -0.01900398 1.43223665
v -0.00676972 -0.00528908 1.43522213
v 0.02724434 -0.03749862 1.41618432
v 0.00633573 -0.03593169 1.42450145
v -0.00693630 -0.02418974 1.43069140
v -0.00859067 -0.00954090 1.43450706
v 0.03542417 -0.03420872 1.41299442
v 0.01366607 -0.03754722 1.42195067
v -0.00303899 -0.02891406 1.42888156
v -0.00902404 -0.01444148 1.43351042
v -0.00365087 -0.00228132 1.43565245
v 0.04304433 -0.02903377 1.40961865
v 0.02162504 -0.03745568 1.41917417
v 0.00229169 -0.03277271 1.42681518
v -0.00792063 -0.01960425 1.43223665
v -0.00638428 -0.00574843 1.43522213
v 0.02979375 -0.03550681 1.41618432
v 0.00882676 -0.03540220 1.42450145
v -0.00523201 -0.02461466 1.43069140
v -0.00790420 -0.01011692 1.43450706
v 0.03772415 -0.03165432 1.41299442
v 0.01625194 -0.03650246 1.42195067
v -0.00101464 -0.02905561 1.42888156
v -0.00799467 -0.01503579 1.43351042
v -0.00348284 -0.00253043 1.43565245
v 0.04496477 -0.02596042 1.40961865
v 0.02418514 -0.03585595 1.41917417
v 0.00457222 -0.03253302 1.42681518
v -0.00653381 -0.02010901 1.43223665
v -0.00596774 -0.00617977 1.43522213
v 0.03219800 -0.03334201 1.41618432
v 0.01127479 -0.03470024 1.42450145
v -0.00350223 -0.02491967 1.43069140
v -0.00717923 -0.01064364 1.43450706
v 0.03984035 -0.02894571 1.41299442
v 0.01875864 -0.03527987 1.42195067
v 0.00101464 -0.02905561 1.42888156
v -0.00692635 -0.01555684 1.43351042
v -0.00329784 -0.00276722 1.43565245
v 0.04666615 -0.02276060 1.40961865
v 0.02662741 -0.03408153 1.41917417
v 0.00683047 -0.03213483 1.42681518
v -0.00511516 -0.02051580 1.43223665
v -0.00552212 -0.00658101 1.43522213
v 0.03444539 -0.03101477 1.41618432
v 0.01366789 -0.03382922 1.42450145
v -0.00175539 -0.02510327 1.43069140
v -0.00641928 -0.01111851 1.43450706
v 0.04176246 -0.02609608 1.41299442
v 0.02117394 -0.03388539 1.42195067
v 0.00303899 -0.02891406 1.42888156
v -0.00582429 -0.01600211 1.43351042
v -0.00309678 -0.00299052 1.43565245
v 0.04814017 -0.01944989 1.40961865
v 0.02893996 -0.03214108 1.41917417
v 0.00905544 -0.03158008 1.42681518
v -0.00367159 -0.02082264 1.43223665
v -0.00504960 -0.00695018 1.43522213
v 0.03652496 -0.02853643 1.41618432
v 0.01599441 -0.03279339 1.42450145
v 0.00000000 -0.02516457 1.43069140
v -0.00562805 -0.01153921 1.43450706
v 0.04348110 -0.02311931 1.41299442
v 0.02348609 -0.03232583 1.42195067
v 0.00504853 -0.02863164 1.42888156
v -0.00469385 -0.01636941 1.43351042
v -0.00288062 -0.00319926 1.43565245
v 0.04937966 -0.01604442 1.40961865
v 0.03111151 -0.03004404 1.41917417
v 0.01123630 -0.03087147 1.42681518
v -0.00221014 -0.02102803 1.43223665
v -0.00455248 -0.00728549 1.43522213
v 0.03842659 -0.02591906 1.41618432
v 0.01824299 -0.03159779 1.42450145
v 0.00175539 -0.02510327 1.43069140
v -0.00480941 -0.01190370 1.43450706
v 0.04498790 -0.02002990 1.41299442
v 0.02568381 -0.03060878 1.42195067
v 0.00703347 -0.02820972 1.42888156
v -0.00354055 -0.01665696 1.43351042
v -0.00265044 -0.00339241 1.43565245
v 0.05037857 -0.01256079 1.40961865
v 0.03313149 -0.02780062 1.41917417
v 0.01336241 -0.03001247 1.42681518
v -0.00073791 -0.02113098 1.43223665
v -0.00403318 -0.00758531 1.43522213
v 0.04014101 -0.02317542 1.41618432
v 0.02040271 -0.03024826 1.42450145
v 0.00350223 -0.02491967 1.43069140
v -0.00396733 -0.01221019 1.43450706
v 0.04627553 -0.01684291 1.41299442
v 0.02775641 -0.02874260 1.42195067
v 0.00898415 -0.02765038 1.42888156
v -0.00236999 -0.01686336 1.43351042
v -0.00240734 -0.00356903 1.43565245
v 0.05113205 -0.00901596 1.40961865
v 0.03499006 -0.02542176 1.41917417
v 0.01542343 -0.02900724 1.42681518
v 0.00073791 -0.02113098 1.43223665
v -0.00349423 -0.00784818 1.43522213
v 0.04165986 -0.02031887 1.41618432
v 0.02246302 -0.02875135 1.42450145
v 0.00523201 -0.02461466 1.43069140
v -0.00310593 -0.01245719 1.43450706
v 0.04733770 -0.01357387 1.41299442
v 0.02969378 -0.02673640 1.42195067
v 0.01089106 -0.02695632 1.42888156
v -0.00118789 -0.01698760 1.43351042
v -0.00215251 -0.00372826 1.43565245
v 0.05163642 -0.00542721 1.40961865
v 0.03667816 -0.02291906 1.41917417
v 0.01740930 -0.02786070 1.42681518
v 0.00221014 -0.02102803 1.43223665
v -0.00293826 -0.00807280 1.43522213
v 0.04297575 -0.01736333 1.41618432
v 0.02441389 -0.02711437 1.42450145
v 0.00693630 -0.02418974 1.43069140
v -0.00222939 -0.01264350 1.43450706
v 0.04816926 -0.01023869 1.41299442
v 0.03148648 -0.02459994 1.42195067
v 0.01274491 -0.02613093 1.42888156
v 0.00000000 -0.01702909 1.43351042
v -0.00188720 -0.00386933 1.43565245
v 0.05188921 -0.00181201 1.40961865
v 0.03818756 -0.02030469 1.41917417
v 0.01931035 -0.02657842 1.42681518
v 0.00367159 -0.02082264 1.43223665
v -0.00236797 -0.00825810 1.43522213
v 0.04408227 -0.01432320 1.41618432
v 0.02624582 -0.02534530 1.42450145
v 0.00860679 -0.02364696 1.43069140
v -0.00134199 -0.01276822 1.43450706
v 0.04876613 -0.00685363 1.41299442
v 0.03312579 -0.02234363 1.42195067
v 0.01453666 -0.02517824 1.42888156
v 0.00118789 -0.01698760 1.43351042
v -0.00161269 -0.00399155 1.43565245
v 0.03951092 -0.01759140 1.41917417
v 0.02111733 -0.02516666 1.42681518
v 0.00511516 -0.02051580 1.43223665
v -0.00178615 -0.00840317 1.43522213
v 0.04497402 -0.01121328 1.41618432
v 0.02794989 -0.02345274 1.42450145
v 0.01023535 -0.02298898 1.43069140
v -0.00044806 -0.01283073 1.43450706
v 0.04912543 -0.00343518 1.41299442
v 0.03460371 -0.01997846 1.42195067
v 0.01625760 -0.02410288 1.42888156
v 0.00236999 -0.01686336 1.43351042
v -0.00133033 -0.00409432 1.43565245
v 0.04064179 -0.01479240 1.41917417
v 0.02282143 -0.02363228 1.42681518
v 0.00653381 -0.02010901 1.43223665
v -0.00119562 -0.00850729 1.43522213
v 0.04564667 -0.00804874 1.41618432
v 0.02951779 -0.02144593 1.42450145
v 0.01181405 -0.02221900 1.43069140
v 0.00044806 -0.01283073 1.43450706
v 0.03591304 -0.01751596 1.42195067
v 0.01789933 -0.02291009 1.42888156
v 0.00354055 -0.01665696 1.43351042
v -0.00104148 -0.00417715 1.43565245
v 0.04157465 -0.01192134 1.41917417
v 0.02441434 -0.02198277 1.42681518
v 0.00792063 -0.01960425 1.43223665
v -0.00059927 -0.00856997 1.43522213
v 0.04609693 -0.00484498 1.41618432
v 0.03094187 -0.01933463 1.42450145
v 0.01333519 -0.02134077 1.43069140
v 0.00134199 -0.01276822 1.43450706
v 0.03704741 -0.01496813 1.42195067
v 0.01945385 -0.02160569 1.42888156
v 0.00469385 -0.01636941 1.43351042
v -0.00074756 -0.00423962 1.43565245
v 0.04230497 -0.00899220 1.41917417
v 0.02588831 -0.02022616 1.42681518
v 0.00926886 -0.01900398 1.43223665
v 0.00000000 -0.00859090 1.43522213
v 0.04632261 -0.00161762 1.41618432
v 0.03221522 -0.01712913 1.42450145
v 0.01479136 -0.02035857 1.43069140
v 0.00222939 -0.01264350 1.43450706
v 0.03800129 -0.01234737 1.42195067
v 0.02091360 -0.02019603 1.42888156
v 0.00582429 -0.01600211 1.43351042
v -0.00045000 -0.00428144 1.43565245
v 0.04282918 -0.00601925 1.41917417
v 0.02723615 -0.01837102 1.42681518
v 0.01057193 -0.01831112 1.43223665
v 0.00059927 -0.00856997 1.43522213
v 0.03333161 -0.01484019 1.42450145
v 0.01617547 -0.01927718 1.43069140
v 0.00310593 -0.01245719 1.43450706
v 0.03877003 -0.00966645 1.42195067
v 0.02227146 -0.01868797 1.42888156
v 0.00692635 -0.01555684 1.43351042
v -0.00015024 -0.00430240 1.43565245
v 0.04314473 -0.00301697 1.41917417
v 0.02845130 -0.01642637 1.42681518
v 0.01182350 -0.01752906 1.43223665
v 0.00119562 -0.00850729 1.43522213
v 0.03428561 -0.01247894 1.42450145
v 0.01748078 -0.01810188 1.43069140
v 0.00396733 -0.01221019 1.43450706
v 0.03934989 -0.00693845 1.42195067
v 0.02352081 -0.01708887 1.42888156
v 0.00799467 -0.01503579 1.43351042
v 0.00015024 -0.00430240 1.43565245
v 0.02952784 -0.01440169 1.42681518
v 0.01301746 -0.01666159 1.43223665
v 0.00178615 -0.00840317 1.43522213
v 0.03507258 -0.01005690 1.42450145
v 0.01870092 -0.01683838 1.43069140
v 0.00480941 -0.01190370 1.43450706
v 0.03973803 -0.00417664 1.42195067
v 0.02465558 -0.01540652 1.42888156
v 0.00902404 -0.01444148 1.43351042
v 0.00045000 -0.00428144 1.43565245
v 0.03046053 -0.01230685 1.42681518
v 0.01414801 -0.01571295 1.43223665
v 0.00236797 -0.00825810 1.43522213
v 0.03568868 -0.00758586 1.42450145
v 0.01982995 -0.01549286 1.43069140
v 0.00562805 -0.01153921 1.43450706
v 0.03993258 -0.00139448 1.42195067
v 0.02567022 -0.01364910 1.42888156
v 0.01000945 -0.01377682 1.43351042
v 0.00074756 -0.00423962 1.43565245
v 0.03124481 -0.01015205 1.42681518
v 0.01520962 -0.01468776 1.43223665
v 0.00293826 -0.00807280 1.43522213
v 0.03613091 -0.00507787 1.42450145
v 0.02086237 -0.01407185 1.43069140
v 0.00641928 -0.01111851 1.43450706
v 0.02655980 -0.01182519 1.42888156
v 0.01094609 -0.01304504 1.43351042
v 0.00104148 -0.00417715 1.43565245
v 0.03187687 -0.00794780 1.42681518
v 0.01619714 -0.01359101 1.43223665
v 0.00349423 -0.00784818 1.43522213
v 0.03639711 -0.00254513 1.42450145
v 0.02179316 -0.01258229 1.43069140
v 0.00717923 -0.01064364 1.43450706
v 0.02731999 -0.00994366 1.42888156
v 0.01182940 -0.01224970 1.43351042
v 0.00133033 -0.00409432 1.43565245
v 0.03235363 -0.00570482 1.42681518
v 0.01710574 -0.01242805 1.43223665
v 0.00403318 -0.00758531 1.43522213
v 0.02261777 -0.01103142 1.43069140
v 0.00790420 -0.01011692 1.43450706
v 0.02794707 -0.00801369 1.42888156
v 0.01265508 -0.01139468 1.43351042
v 0.00161269 -0.00399155 1.43565245
v 0.03267277 -0.00343405 1.42681518
v 0.01793101 -0.01120454 1.43223665
v 0.00455248 -0.00728549 1.43522213
v 0.02333218 -0.00942681 1.43069140
v 0.00859067 -0.00954090 1.43450706
v 0.02843800 -0.00604468 1.42888156
v 0.01341910 -0.01048415 1.43351042
v 0.00188720 -0.00386933 1.43565245
v 0.03283272 -0.00114654 1.42681518
v 0.01866892 -0.00992644 1.43223665
v 0.00504960 -0.00695018 1.43522213
v 0.02393293 -0.00777628 1.43069140
v 0.00923528 -0.00891841 1.43450706
v 0.02879039 -0.00404622 1.42888156
v 0.01411775 -0.00952254 1.43351042
v 0.00215251 -0.00372826 1.43565245
v 0.01931588 -0.00859998 1.43223665
v 0.00552212 -0.00658101 1.43522213
v 0.02441708 -0.00608786 1.43069140
v 0.00983490 -0.00825246 1.43450706
v 0.02900250 -0.00202805 1.42888156
v 0.01474762 -0.00851454 1.43351042
v 0.00240734 -0.00356903 1.43565245
v 0.01986873 -0.00723163 1.43223665
v 0.00596774 -0.00617977 1.43522213
v 0.02478226 -0.00436978 1.43069140
v 0.01038661 -0.00754631 1.43450706
v 0.01530564 -0.00746506 1.43351042
v 0.00265044 -0.00339241 1.43565245
v 0.02032478 -0.00582804 1.43223665
v 0.00638428 -0.00574843 1.43522213
v 0.02502672 -0.00263041 1.43069140
v 0.01088771 -0.00680340 1.43450706
v 0.01578909 -0.00637921 1.43351042
v 0.00288062 -0.00319926 1.43565245
v 0.02068182 -0.00439606 1.43223665
v 0.00676972 -0.00528908 1.43522213
v 0.02514924 -0.00087823 1.43069140
v 0.01133577 -0.00602733 1.43450706
v 0.01619562 -0.00526228 1.43351042
v 0.00309678 -0.00299052 1.43565245
v 0.02093809 -0.00294266 1.43223665
v 0.00712218 -0.00480397 1.43522213
v 0.01172860 -0.00522191 1.43450706
v 0.01652325 -0.00411971 1.43351042
v 0.00329784 -0.00276722 1.43565245
v 0.02109236 -0.00147492 1.43223665
v 0.00743994 -0.00429545 1.43522213
v 0.01206429 -0.00439104 1.43450706
v 0.01677038 -0.00295707 1.43351042
v 0.00348284 -0.00253043 1.43565245
v 0.00772145 -0.00376600 1.43522213
v 0.01234121 -0.00353878 1.43450706
v 0.01693580 -0.00178002 1.43351042
v 0.00365087 -0.00228132 1.43565245
v 0.00796534 -0.00321821 1.43522213
v 0.01255800 -0.00266928 1.43450706
v 0.01701871 -0.00059431 1.43351042
v 0.00380111 -0.00202109 1.43565245
v 0.00817043 -0.00265473 1.43522213
v 0.01271361 -0.00178678 1.43450706
v 0.00393284 -0.00175101 1.43565245
v 0.00833571 -0.00207833 1.43522213
v 0.01280728 -0.00089557 1.43450706
v 0.00404540 -0.00147241 1.43565245
v 0.00846038 -0.00149179 1.43522213
v 0.00413826 -0.00118663 1.43565245
v 0.00854384 -0.00089799 1.43522213
v 0.00421095 -0.00089507 1.43565245
v 0.00858566 -0.00029982 1.43522213
v 0.00426313 -0.00059914 1.43565245
v 0.00429454 -0.00030030 1.43565245
f 2 1 23
f 2 147 1
f 148 3 2
f 149 3 148
f 149 23 24
f 149 24 25
f 149 148 2
f 149 2 23
f 150 25 26
f 150 149 25
f 151 4 3
f 151 5 4
f 151 3 149
f 152 150 26
f 152 26 27
f 152 27 28
f 153 149 150
f 153 151 149
f 154 28 29
f 154 152 28
f 155 6 5
f 155 5 151
f 156 153 150
f 156 150 152
f 157 29 30
f 157 154 29
f 158 155 151
f 158 151 153
f 158 6 155
f 159 156 152
f 159 152 154
f 160 157 30
f 160 30 31
f 160 31 32
f 161 153 156
f 161 158 153
f 162 154 157
f 162 159 154
f 163 160 32
f 163 32 33
f 164 7 6
f 164 6 158
f 165 161 156
f 165 156 159
f 166 157 160
f 166 162 157
f 167 33 34
f 167 34 35
f 167 163 33
f 168 158 161
f 168 164 158
f 169 165 159
f 169 159 162
f 170 166 160
f 170 160 163
f 171 8 7
f 171 9 8
f 172 167 35
f 172 35 36
f 173 168 161
f 173 161 165
f 174 162 166
f 174 169 162
f 175 163 167
f 175 170 163
f 176 164 168
f 176 9 171
f 176 171 7
f 176 7 164
f 177 36 37
f 177 172 36
f 178 165 169
f 178 173 165
f 179 174 166
f 179 166 170
f 180 175 167
f 180 167 172
f 181 168 173
f 181 176 168
f 182 37 38
f 182 38 39
f 182 177 37
f 183 178 169
f 183 169 174
f 184 179 170
f 184 170 175
f 185 10 9
f 185 9 176
f 186 180 172
f 186 172 177
f 187 181 173
f 187 173 178
f 188 39 40
f 188 182 39
f 189 174 179
f 189 183 174
f 190 184 175
f 190 175 180
f 191 185 176
f 191 176 181
f 192 177 182
f 192 186 177
f 193 187 178
f 193 178 183
f 194 40 41
f 194 41 42
f 194 188 40
f 195 189 179
f 195 179 184
f 196 11 10
f 197 180 186
f 197 190 180
f 198 181 187
f 198 191 181
f 199 192 182
f 199 182 188
f 200 183 189
f 200 193 183
f 201 194 42
f 201 42 43
f 202 195 184
f 202 184 190
f 203 10 185
f 203 185 191
f 203 196 10
f 204 197 186
f 204 186 192
f 205 198 187
f 205 187 193
f 206 188 194
f 206 199 188
f 207 200 189
f 207 189 195
f 208 201 43
f 208 43 44
f 209 202 190
f 209 190 197
f 210 191 198
f 210 203 191
f 211 204 192
f 211 192 199
f 212 205 193
f 212 193 200
f 213 206 194
f 213 194 201
f 214 195 202
f 214 207 195
f 215 11 196
f 215 12 11
f 215 13 12
f 215 196 203
f 216 44 45
f 216 45 46
f 216 208 44
f 217 209 197
f 217 197 204
f 218 210 198
f 218 198 205
f 219 211 199
f 219 199 206
f 220 212 200
f 220 200 207
f 221 213 201
f 221 201 208
f 222 202 209
f 222 214 202
f 223 215 203
f 223 203 210
f 224 46 47
f 224 216 46
f 225 217 204
f 225 204 211
f 226 205 212
f 226 218 205
f 227 206 213
f 227 219 206
f 228 220 207
f 228 207 214
f 229 14 13
f 230 221 208
f 230 208 216
f 231 222 209
f 231 209 217
f 232 210 218
f 232 223 210
f 233 224 47
f 233 47 48
f 233 48 49
f 234 211 219
f 234 225 211
f 235 226 212
f 235 212 220
f 236 227 213
f 236 213 221
f 237 214 222
f 237 228 214
f 238 229 13
f 238 13 215
f 238 14 229
f 238 215 223
f 239 230 216
f 239 216 224
f 240 217 225
f 240 231 217
f 241 218 226
f 241 232 218
f 242 233 49
f 242 49 50
f 243 219 227
f 243 234 219
f 244 235 220
f 244 220 228
f 245 236 221
f 245 221 230
f 246 222 231
f 246 237 222
f 247 238 223
f 247 223 232
f 248 239 224
f 248 224 233
f 249 225 234
f 249 240 225
f 250 226 235
f 250 241 226
f 251 50 51
f 251 242 50
f 252 227 236
f 252 243 227
f 253 228 237
f 253 244 228
f 254 14 238
f 254 15 14
f 254 16 15
f 255 245 230
f 255 230 239
f 256 246 231
f 256 231 240
f 257 232 241
f 257 247 232
f 258 248 233
f 258 233 242
f 259 234 243
f 259 249 234
f 260 250 235
f 260 235 244
f 261 251 51
f 261 51 52
f 261 52 53
f 262 252 236
f 262 236 245
f 263 253 237
f 263 237 246
f 264 254 238
f 264 238 247
f 265 239 248
f 265 255 239
f 266 256 240
f 266 240 249
f 267 241 250
f 267 257 241
f 268 242 251
f 268 258 242
f 269 243 252
f 269 259 243
f 270 244 253
f 270 260 244
f 271 17 16
f 272 261 53
f 272 53 54
f 273 245 255
f 273 262 245
f 274 246 256
f 274 263 246
f 275 264 247
f 275 247 257
f 276 265 248
f 276 248 258
f 277 266 249
f 277 249 259
f 278 250 260
f 278 267 250
f 279 268 251
f 279 251 261
f 280 252 262
f 280 269 252
f 281 253 263
f 281 270 253
f 282 17 271
f 282 271 16
f 282 254 264
f 282 16 254
f 283 272 54
f 283 54 55
f 283 55 56
f 284 255 265
f 284 273 255
f 285 274 256
f 285 256 266
f 286 275 257
f 286 257 267
f 287 258 268
f 287 276 258
f 288 277 259
f 288 259 269
f 289 278 260
f 289 260 270
f 290 279 261
f 290 261 272
f 291 262 273
f 291 280 262
f 292 281 263
f 292 263 274
f 293 282 264
f 293 264 275
f 294 283 56
f 294 56 57
f 295 284 265
f 295 265 276
f 296 285 266
f 296 266 277
f 297 286 267
f 297 267 278
f 298 287 268
f 298 268 279
f 299 269 280
f 299 288 269
f 300 289 270
f 300 270 281
f 301 18 17
f 301 19 18
f 301 17 282
f 302 290 272
f 302 272 283
f 303 291 273
f 303 273 284
f 304 274 285
f 304 292 274
f 305 275 286
f 305 293 275
f 306 294 57
f 306 57 58
f 307 295 276
f 307 276 287
f 308 277 288
f 308 296 277
f 309 278 289
f 309 297 278
f 310 279 290
f 310 298 279
f 311 280 291
f 311 299 280
f 312 281 292
f 312 300 281
f 313 301 282
f 313 282 293
f 314 283 294
f 314 302 283
f 315 284 295
f 315 303 284
f 316 285 296
f 316 304 285
f 317 286 297
f 317 305 286
f 318 306 58
f 318 58 59
f 318 59 60
f 319 307 287
f 319 287 298
f 320 308 288
f 320 288 299
f 321 309 289
f 321 289 300
f 322 20 19
f 322 19 301
f 323 290 302
f 323 310 290
f 324 291 303
f 324 311 291
f 325 312 292
f 325 292 304
f 326 293 305
f 326 313 293
f 327 294 306
f 327 314 294
f 328 315 295
f 328 295 307
f 329 296 308
f 329 316 296
f 330 297 309
f 330 317 297
f 331 318 60
f 331 60 61
f 332 298 310
f 332 319 298
f 333 320 299
f 333 299 311
f 334 321 300
f 334 300 312
f 335 301 313
f 335 322 301
f 335 20 322
f 336 302 314
f 336 323 302
f 337 303 315
f 337 324 303
f 338 304 316
f 338 325 304
f 339 326 305
f 339 305 317
f 340 306 318
f 340 327 306
f 341 307 319
f 341 328 307
f 342 308 320
f 342 329 308
f 343 330 309
f 343 309 321
f 344 331 61
f 344 61 62
f 344 62 63
f 345 310 323
f 345 332 310
f 346 311 324
f 346 333 311
f 347 312 325
f 347 334 312
f 348 313 326
f 348 335 313
f 349 314 327
f 349 336 314
f 350 315 328
f 350 337 315
f 351 338 316
f 351 316 329
f 352 317 330
f 352 339 317
f 353 340 318
f 353 318 331
f 354 319 332
f 354 341 319
f 355 320 333
f 355 342 320
f 356 343 321
f 356 321 334
f 357 21 20
f 357 22 21
f 357 20 335
f 358 344 63
f 358 63 64
f 359 323 336
f 359 345 323
f 360 346 324
f 360 324 337
f 361 347 325
f 361 325 338
f 362 348 326
f 362 326 339
f 363 327 340
f 363 349 327
f 364 350 328
f 364 328 341
f 365 329 342
f 365 351 329
f 366 352 330
f 366 330 343
f 367 353 331
f 367 331 344
f 368 332 345
f 368 354 332
f 369 355 333
f 369 333 346
f 370 334 347
f 370 356 334
f 371 335 348
f 371 22 357
f 371 357 335
f 372 358 64
f 372 64 65
f 373 336 349
f 373 359 336
f 374 337 350
f 374 360 337
f 375 338 351
f 375 361 338
f 376 339 352
f 376 362 339
f 377 340 353
f 377 363 340
f 378 364 341
f 378 341 354
f 379 342 355
f 379 365 342
f 380 343 356
f 380 366 343
f 381 367 344
f 381 344 358
f 382 345 359
f 382 368 345
f 383 346 360
f 383 369 346
f 384 347 361
f 384 370 347
f 385 371 348
f 385 348 362
f 385 22 371
f 386 372 65
f 386 65 66
f 386 66 67
f 387 349 363
f 387 373 349
f 388 350 364
f 388 374 350
f 389 375 351
f 389 351 365
f 390 352 366
f 390 376 352
f 391 353 367
f 391 377 353
f 392 378 354
f 392 354 368
f 393 355 369
f 393 379 355
f 394 380 356
f 394 356 370
f 395 381 358
f 395 358 372
f 396 359 373
f 396 382 359
f 397 360 374
f 397 383 360
f 398 361 375
f 398 384 361
f 399 22 385
f 399 385 362
f 399 362 376
f 400 386 67
f 400 67 68
f 401 387 363
f 401 363 377
f 402 388 364
f 402 364 378
f 403 365 379
f 403 389 365
f 404 390 366
f 404 366 380
f 405 391 367
f 405 367 381
f 406 392 368
f 406 368 382
f 407 369 383
f 407 393 369
f 408 370 384
f 408 394 370
f 409 372 386
f 409 395 372
f 410 373 387
f 410 396 373
f 411 374 388
f 411 397 374
f 412 398 375
f 412 375 389
f 413 399 376
f 413 376 390
f 413 22 399
f 414 400 68
f 414 68 69
f 414 69 70
f 415 377 391
f 415 401 377
f 416 378 392
f 416 402 378
f 417 379 393
f 417 403 379
f 418 404 380
f 418 380 394
f 419 405 381
f 419 381 395
f 420 382 396
f 420 406 382
f 421 407 383
f 421 383 397
f 422 408 384
f 422 384 398
f 423 386 400
f 423 409 386
f 424 387 401
f 424 410 387
f 425 411 388
f 425 388 402
f 426 389 403
f 426 412 389
f 427 22 413
f 427 413 390
f 427 390 404
f 428 414 70
f 428 70 71
f 429 391 405
f 429 415 391
f 430 416 392
f 430 392 406
f 431 393 407
f 431 417 393
f 432 394 408
f 432 418 394
f 433 419 395
f 433 395 409
f 434 396 410
f 434 420 396
f 435 397 411
f 435 421 397
f 436 422 398
f 436 398 412
f 437 400 414
f 437 423 400
f 438 424 401
f 438 401 415
f 439 402 416
f 439 425 402
f 440 426 403
f 440 403 417
f 441 404 418
f 441 427 404
f 441 22 427
f 442 428 71
f 442 71 72
f 443 429 405
f 443 405 419
f 444 406 420
f 444 430 406
f 445 431 407
f 445 407 421
f 446 408 422
f 446 432 408
f 447 409 423
f 447 433 409
f 448 434 410
f 448 410 424
f 449 411 425
f 449 435 411
f 450 436 412
f 450 412 426
f 451 437 414
f 451 414 428
f 452 415 429
f 452 438 415
f 453 439 416
f 453 416 430
f 454 417 431
f 454 440 417
f 455 22 441
f 455 418 432
f 455 441 418
f 456 442 72
f 456 72 73
f 456 73 74
f 457 443 419
f 457 419 433
f 458 444 420
f 458 420 434
f 459 421 435
f 459 445 421
f 460 446 422
f 460 422 436
f 461 423 437
f 461 447 423
f 462 424 438
f 462 448 424
f 463 449 425
f 463 425 439
f 464 450 426
f 464 426 440
f 465 451 428
f 465 428 442
f 466 452 429
f 466 429 443
f 467 430 444
f 467 453 430
f 468 431 445
f 468 454 431
f 469 22 455
f 469 432 446
f 469 455 432
f 470 456 74
f 470 74 75
f 471 433 447
f 471 457 433
f 472 434 448
f 472 458 434
f 473 435 449
f 473 459 435
f 474 460 436
f 474 436 450
f 475 461 437
f 475 437 451
f 476 438 452
f 476 462 438
f 477 439 453
f 477 463 439
f 478 440 454
f 478 464 440
f 479 442 456
f 479 465 442
f 480 443 457
f 480 466 443
f 481 467 444
f 481 444 458
f 482 445 459
f 482 468 445
f 483 469 446
f 483 446 460
f 483 22 469
f 484 470 75
f 484 75 76
f 484 76 77
f 485 471 447
f 485 447 461
f 486 472 448
f 486 448 462
f 487 449 463
f 487 473 449
f 488 474 450
f 488 450 464
f 489 475 451
f 489 451 465
f 490 452 466
f 490 476 452
f 491 453 467
f 491 477 453
f 492 478 454
f 492 454 468
f 493 456 470
f 493 479 456
f 494 457 471
f 494 480 457
f 495 481 458
f 495 458 472
f 496 482 459
f 496 459 473
f 497 483 460
f 497 460 474
f 497 22 483
f 498 484 77
f 498 77 78
f 499 461 475
f 499 485 461
f 500 462 476
f 500 486 462
f 501 463 477
f 501 487 463
f 502 488 464
f 502 464 478
f 503 489 465
f 503 465 479
f 504 466 480
f 504 490 466
f 505 467 481
f 505 491 467
f 506 492 468
f 506 468 482
f 507 493 470
f 507 470 484
f 508 471 485
f 508 494 471
f 509 472 486
f 509 495 472
f 510 473 487
f 510 496 473
f 511 474 488
f 511 22 497
f 511 497 474
f 512 498 78
f 512 78 79
f 513 499 475
f 513 475 489
f 514 500 476
f 514 476 490
f 515 477 491
f 515 501 477
f 516 478 492
f 516 502 478
f 517 479 493
f 517 503 479
f 518 504 480
f 518 480 494
f 519 481 495
f 519 505 481
f 520 482 496
f 520 506 482
f 521 484 498
f 521 507 484
f 522 508 485
f 522 485 499
f 523 509 486
f 523 486 500
f 524 487 501
f 524 510 487
f 525 511 488
f 525 488 502
f 525 22 511
f 526 79 80
f 526 80 81
f 526 512 79
f 527 513 489
f 527 489 503
f 528 514 490
f 528 490 504
f 529 515 491
f 529 491 505
f 530 516 492
f 530 492 506
f 531 493 507
f 531 517 493
f 532 494 508
f 532 518 494
f 533 519 495
f 533 495 509
f 534 496 510
f 534 520 496
f 535 498 512
f 535 521 498
f 536 522 499
f 536 499 513
f 537 523 500
f 537 500 514
f 538 524 501
f 538 501 515
f 539 502 516
f 539 22 525
f 539 525 502
f 540 81 82
f 540 526 81
f 541 527 503
f 541 503 517
f 542 504 518
f 542 528 504
f 543 505 519
f 543 529 505
f 544 506 520
f 544 530 506
f 545 507 521
f 545 531 507
f 546 508 522
f 546 532 508
f 547 533 509
f 547 509 523
f 548 534 510
f 548 510 524
f 549 512 526
f 549 535 512
f 550 513 527
f 550 536 513
f 551 514 528
f 551 537 514
f 552 538 515
f 552 515 529
f 553 22 539
f 553 539 516
f 553 516 530
f 554 82 83
f 554 83 84
f 554 540 82
f 555 517 531
f 555 541 517
f 556 518 532
f 556 542 518
f 557 543 519
f 557 519 533
f 558 520 534
f 558 544 520
f 559 545 521
f 559 521 535
f 560 522 536
f 560 546 522
f 561 547 523
f 561 523 537
f 562 548 524
f 562 524 538
f 563 549 526
f 563 526 540
f 564 527 541
f 564 550 527
f 565 528 542
f 565 551 528
f 566 529 543
f 566 552 529
f 567 530 544
f 567 22 553
f 567 553 530
f 568 84 85
f 568 554 84
f 569 555 531
f 569 531 545
f 570 532 546
f 570 556 532
f 571 533 547
f 571 557 533
f 572 558 534
f 572 534 548
f 573 559 535
f 573 535 549
f 574 536 550
f 574 560 536
f 575 537 551
f 575 561 537
f 576 538 552
f 576 562 538
f 577 540 554
f 577 563 540
f 578 541 555
f 578 564 541
f 579 565 542
f 579 542 556
f 580 543 557
f 580 566 543
f 581 22 567
f 581 567 544
f 581 544 558
f 582 85 86
f 582 568 85
f 583 545 559
f 583 569 545
f 584 546 560
f 584 570 546
f 585 547 561
f 585 571 547
f 586 548 562
f 586 572 548
f 587 549 563
f 587 573 549
f 588 550 564
f 588 574 550
f 589 575 551
f 589 551 565
f 590 576 552
f 590 552 566
f 591 577 554
f 591 554 568
f 592 578 555
f 592 555 569
f 593 579 556
f 593 556 570
f 594 580 557
f 594 557 571
f 595 581 558
f 595 558 572
f 595 22 581
f 596 86 87
f 596 87 88
f 596 582 86
f 597 559 573
f 597 583 559
f 598 584 560
f 598 560 574
f 599 585 561
f 599 561 575
f 600 586 562
f 600 562 576
f 601 563 577
f 601 587 563
f 602 588 564
f 602 564 578
f 603 565 579
f 603 589 565
f 604 590 566
f 604 566 580
f 605 568 582
f 605 591 568
f 606 592 569
f 606 569 583
f 607 570 584
f 607 593 570
f 608 571 585
f 608 594 571
f 609 572 586
f 609 22 595
f 609 595 572
f 610 88 89
f 610 596 88
f 611 573 587
f 611 597 573
f 612 574 588
f 612 598 574
f 613 599 575
f 613 575 589
f 614 576 590
f 614 600 576
f 615 577 591
f 615 601 577
f 616 578 592
f 616 602 578
f 617 603 579
f 617 579 593
f 618 580 594
f 618 604 580
f 619 582 596
f 619 605 582
f 620 606 583
f 620 583 597
f 621 584 598
f 621 607 584
f 622 585 599
f 622 608 585
f 623 22 609
f 623 586 600
f 623 609 586
f 624 89 90
f 624 90 91
f 624 610 89
f 625 611 587
f 625 587 601
f 626 588 602
f 626 612 588
f 627 613 589
f 627 589 603
f 628 590 604
f 628 614 590
f 629 615 591
f 629 591 605
f 630 592 606
f 630 616 592
f 631 617 593
f 631 593 607
f 632 618 594
f 632 594 608
f 633 596 610
f 633 619 596
f 634 620 597
f 634 597 611
f 635 598 612
f 635 621 598
f 636 622 599
f 636 599 613
f 637 22 623
f 637 623 600
f 637 600 614
f 638 91 92
f 638 624 91
f 639 625 601
f 639 601 615
f 640 602 616
f 640 626 602
f 641 603 617
f 641 627 603
f 642 604 618
f 642 628 604
f 643 605 619
f 643 629 605
f 644 630 606
f 644 606 620
f 645 607 621
f 645 631 607
f 646 632 608
f 646 608 622
f 647 633 610
f 647 610 624
f 648 634 611
f 648 611 625
f 649 612 626
f 649 635 612
f 650 613 627
f 650 636 613
f 651 614 628
f 651 637 614
f 651 22 637
f 652 92 93
f 652 638 92
f 653 615 629
f 653 639 615
f 654 640 616
f 654 616 630
f 655 641 617
f 655 617 631
f 656 642 618
f 656 618 632
f 657 619 633
f 657 643 619
f 658 620 634
f 658 644 620
f 659 621 635
f 659 645 621
f 660 646 622
f 660 622 636
f 661 647 624
f 661 624 638
f 662 648 625
f 662 625 639
f 663 649 626
f 663 626 640
f 664 650 627
f 664 627 641
f 665 628 642
f 665 651 628
f 665 22 651
f 666 93 94
f 666 94 95
f 666 652 93
f 667 653 629
f 667 629 643
f 668 654 630
f 668 630 644
f 669 631 645
f 669 655 631
f 670 656 632
f 670 632 646
f 671 657 633
f 671 633 647
f 672 634 648
f 672 658 634
f 673 635 649
f 673 659 635
f 674 636 650
f 674 660 636
f 675 638 652
f 675 661 638
f 676 662 639
f 676 639 653
f 677 663 640
f 677 640 654
f 678 641 655
f 678 664 641
f 679 642 656
f 679 22 665
f 679 665 642
f 680 95 96
f 680 666 95
f 681 643 657
f 681 667 643
f 682 644 658
f 682 668 644
f 683 669 645
f 683 645 659
f 684 646 660
f 684 670 646
f 685 647 661
f 685 671 647
f 686 648 662
f 686 672 648
f 687 649 663
f 687 673 649
f 688 674 650
f 688 650 664
f 689 675 652
f 689 652 666
f 690 653 667
f 690 676 653
f 691 654 668
f 691 677 654
f 692 655 669
f 692 678 655
f 693 679 656
f 693 656 670
f 693 22 679
f 694 96 97
f 694 97 98
f 694 680 96
f 695 681 657
f 695 657 671
f 696 682 658
f 696 658 672
f 697 683 659
f 697 659 673
f 698 684 660
f 698 660 674
f 699 685 661
f 699 661 675
f 700 662 676
f 700 686 662
f 701 663 677
f 701 687 663
f 702 664 678
f 702 688 664
f 703 689 666
f 703 666 680
f 704 667 681
f 704 690 667
f 705 691 668
f 705 668 682
f 706 669 683
f 706 692 669
f 707 22 693
f 707 693 670
f 707 670 684
f 708 98 99
f 708 694 98
f 709 695 671
f 709 671 685
f 710 672 686
f 710 696 672
f 711 673 687
f 711 697 673
f 712 674 688
f 712 698 674
f 713 675 689
f 713 699 675
f 714 700 676
f 714 676 690
f 715 701 677
f 715 677 691
f 716 702 678
f 716 678 692
f 717 680 694
f 717 703 680
f 718 704 681
f 718 681 695
f 719 682 696
f 719 705 682
f 720 683 697
f 720 706 683
f 721 22 707
f 721 684 698
f 721 707 684
f 722 708 99
f 722 99 100
f 723 709 685
f 723 685 699
f 724 686 700
f 724 710 686
f 725 687 701
f 725 711 687
f 726 688 702
f 726 712 688
f 727 689 703
f 727 713 689
f 728 714 690
f 728 690 704
f 729 715 691
f 729 691 705
f 730 716 692
f 730 692 706
f 731 717 694
f 731 694 708
f 732 718 695
f 732 695 709
f 733 696 710
f 733 719 696
f 734 697 711
f 734 720 697
f 735 22 721
f 735 721 698
f 735 698 712
f 736 722 100
f 736 100 101
f 736 101 102
f 737 723 699
f 737 699 713
f 738 724 700
f 738 700 714
f 739 725 701
f 739 701 715
f 740 726 702
f 740 702 716
f 741 703 717
f 741 727 703
f 742 728 704
f 742 704 718
f 743 705 719
f 743 729 705
f 744 706 720
f 744 730 706
f 745 731 708
f 745 708 722
f 746 732 709
f 746 709 723
f 747 710 724
f 747 733 710
f 748 734 711
f 748 711 725
f 749 712 726
f 749 735 712
f 749 22 735
f 750 102 103
f 750 736 102
f 751 713 727
f 751 737 713
f 752 714 728
f 752 738 714
f 753 715 729
f 753 739 715
f 754 716 730
f 754 740 716
f 755 741 717
f 755 717 731
f 756 718 732
f 756 742 718
f 757 719 733
f 757 743 719
f 758 720 734
f 758 744 720
f 759 745 722
f 759 722 736
f 760 746 723
f 760 723 737
f 761 724 738
f 761 747 724
f 762 725 739
f 762 748 725
f 763 749 726
f 763 22 749
f 763 726 740
f 764 103 104
f 764 104 105
f 764 750 103
f 765 727 741
f 765 751 727
f 766 728 742
f 766 752 728
f 767 729 743
f 767 753 729
f 768 730 744
f 768 754 730
f 769 755 731
f 769 731 745
f 770 756 732
f 770 732 746
f 771 733 747
f 771 757 733
f 772 734 748
f 772 758 734
f 773 736 750
f 773 759 736
f 774 760 737
f 774 737 751
f 775 761 738
f 775 738 752
f 776 739 753
f 776 762 739
f 777 740 754
f 777 22 763
f 777 763 740
f 778 105 106
f 778 764 105
f 779 741 755
f 779 765 741
f 780 742 756
f 780 766 742
f 781 767 743
f 781 743 757
f 782 768 744
f 782 744 758
f 783 769 745
f 783 745 759
f 784 746 760
f 784 770 746
f 785 747 761
f 785 771 747
f 786 772 748
f 786 748 762
f 787 750 764
f 787 773 750
f 788 751 765
f 788 774 751
f 789 752 766
f 789 775 752
f 790 753 767
f 790 776 753
f 791 777 754
f 791 22 777
f 791 754 768
f 792 106 107
f 792 778 106
f 793 779 755
f 793 755 769
f 794 756 770
f 794 780 756
f 795 781 757
f 795 757 771
f 796 782 758
f 796 758 772
f 797 783 759
f 797 759 773
f 798 784 760
f 798 760 774
f 799 785 761
f 799 761 775
f 800 762 776
f 800 786 762
f 801 764 778
f 801 787 764
f 802 788 765
f 802 765 779
f 803 766 780
f 803 789 766
f 804 790 767
f 804 767 781
f 805 791 768
f 805 768 782
f 805 22 791
f 806 792 107
f 806 107 108
f 806 108 109
f 807 793 769
f 807 769 783
f 808 770 784
f 808 794 770
f 809 795 771
f 809 771 785
f 810 772 786
f 810 796 772
f 811 773 787
f 811 797 773
f 812 798 774
f 812 774 788
f 813 775 789
f 813 799 775
f 814 776 790
f 814 800 776
f 815 778 792
f 815 801 778
f 816 802 779
f 816 779 793
f 817 780 794
f 817 803 780
f 818 781 795
f 818 804 781
f 819 782 796
f 819 805 782
f 819 22 805
f 820 109 110
f 820 806 109
f 821 783 797
f 821 807 783
f 822 784 798
f 822 808 784
f 823 785 799
f 823 809 785
f 824 810 786
f 824 786 800
f 825 787 801
f 825 811 787
f 826 788 802
f 826 812 788
f 827 813 789
f 827 789 803
f 828 814 790
f 828 790 804
f 829 815 792
f 829 792 806
f 830 816 793
f 830 793 807
f 831 817 794
f 831 794 808
f 832 818 795
f 832 795 809
f 833 796 810
f 833 22 819
f 833 819 796
f 834 110 111
f 834 111 112
f 834 820 110
f 835 797 811
f 835 821 797
f 836 798 812
f 836 822 798
f 837 799 813
f 837 823 799
f 838 800 814
f 838 824 800
f 839 825 801
f 839 801 815
f 840 802 816
f 840 826 802
f 841 827 803
f 841 803 817
f 842 828 804
f 842 804 818
f 843 806 820
f 843 829 806
f 844 807 821
f 844 830 807
f 845 808 822
f 845 831 808
f 846 809 823
f 846 832 809
f 847 810 824
f 847 22 833
f 847 833 810
f 848 112 113
f 848 834 112
f 849 835 811
f 849 811 825
f 850 812 826
f 850 836 812
f 851 813 827
f 851 837 813
f 852 838 814
f 852 814 828
f 853 815 829
f 853 839 815
f 854 840 816
f 854 816 830
f 855 817 831
f 855 841 817
f 856 818 832
f 856 842 818
f 857 820 834
f 857 843 820
f 858 844 821
f 858 821 835
f 859 845 822
f 859 822 836
f 860 846 823
f 860 823 837
f 861 824 838
f 861 22 847
f 861 847 824
f 862 113 114
f 862 848 113
f 863 849 825
f 863 825 839
f 864 850 826
f 864 826 840
f 865 851 827
f 865 827 841
f 866 852 828
f 866 828 842
f 867 853 829
f 867 829 843
f 868 830 844
f 868 854 830
f 869 831 845
f 869 855 831
f 870 832 846
f 870 856 832
f 871 834 848
f 871 857 834
f 872 858 835
f 872 835 849
f 873 836 850
f 873 859 836
f 874 837 851
f 874 860 837
f 875 861 838
f 875 22 861
f 875 838 852
f 876 862 114
f 876 114 115
f 876 115 116
f 877 839 853
f 877 863 839
f 878 840 854
f 878 864 840
f 879 865 841
f 879 841 855
f 880 842 856
f 880 866 842
f 881 843 857
f 881 867 843
f 882 844 858
f 882 868 844
f 883 845 859
f 883 869 845
f 884 870 846
f 884 846 860
f 885 848 862
f 885 871 848
f 886 849 863
f 886 872 849
f 887 873 850
f 887 850 864
f 888 851 865
f 888 874 851
f 889 852 866
f 889 875 852
f 889 22 875
f 890 116 117
f 890 876 116
f 891 853 867
f 891 877 853
f 892 878 854
f 892 854 868
f 893 855 869
f 893 879 855
f 894 880 856
f 894 856 870
f 895 881 857
f 895 857 871
f 896 882 858
f 896 858 872
f 897 883 859
f 897 859 873
f 898 884 860
f 898 860 874
f 899 885 862
f 899 862 876
f 900 886 863
f 900 863 877
f 901 864 878
f 901 887 864
f 902 888 865
f 902 865 879
f 903 889 866
f 903 866 880
f 903 22 889
f 904 117 118
f 904 118 119
f 904 890 117
f 905 891 867
f 905 867 881
f 906 868 882
f 906 892 868
f 907 869 883
f 907 893 869
f 908 870 884
f 908 894 870
f 909 895 871
f 909 871 885
f 910 872 886
f 910 896 872
f 911 897 873
f 911 873 887
f 912 874 888
f 912 898 874
f 913 899 876
f 913 876 890
f 914 877 891
f 914 900 877
f 915 878 892
f 915 901 878
f 916 879 893
f 916 902 879
f 917 903 880
f 917 880 894
f 917 22 903
f 918 119 120
f 918 904 119
f 919 881 895
f 919 905 881
f 920 882 896
f 920 906 882
f 921 907 883
f 921 883 897
f 922 908 884
f 922 884 898
f 923 909 885
f 923 885 899
f 924 886 900
f 924 910 886
f 925 911 887
f 925 887 901
f 926 912 888
f 926 888 902
f 927 913 890
f 927 890 904
f 928 914 891
f 928 891 905
f 929 915 892
f 929 892 906
f 930 916 893
f 930 893 907
f 931 917 894
f 931 22 917
f 931 894 908
f 932 120 121
f 932 918 120
f 933 919 895
f 933 895 909
f 934 920 896
f 934 896 910
f 935 921 897
f 935 897 911
f 936 922 898
f 936 898 912
f 937 923 899
f 937 899 913
f 938 900 914
f 938 924 900
f 939 901 915
f 939 925 901
f 940 902 916
f 940 926 902
f 941 904 918
f 941 927 904
f 942 928 905
f 942 905 919
f 943 929 906
f 943 906 920
f 944 907 921
f 944 930 907
f 945 931 908
f 945 908 922
f 945 22 931
f 946 932 121
f 946 121 122
f 946 122 123
f 947 909 923
f 947 933 909
f 948 910 924
f 948 934 910
f 949 935 911
f 949 911 925
f 950 936 912
f 950 912 926
f 951 937 913
f 951 913 927
f 952 914 928
f 952 938 914
f 953 915 929
f 953 939 915
f 954 916 930
f 954 940 916
f 955 918 932
f 955 941 918
f 956 919 933
f 956 942 919
f 957 920 934
f 957 943 920
f 958 921 935
f 958 944 921
f 959 922 936
f 959 945 922
f 959 22 945
f 960 946 123
f 960 123 124
f 961 947 923
f 961 923 937
f 962 948 924
f 962 924 938
f 963 949 925
f 963 925 939
f 964 950 926
f 964 926 940
f 965 951 927
f 965 927 941
f 966 952 928
f 966 928 942
f 967 929 943
f 967 953 929
f 968 954 930
f 968 930 944
f 969 955 932
f 969 932 946
f 970 956 933
f 970 933 947
f 971 934 948
f 971 957 934
f 972 958 935
f 972 935 949
f 973 22 959
f 973 959 936
f 973 936 950
f 974 124 125
f 974 125 126
f 974 960 124
f 975 961 937
f 975 937 951
f 976 962 938
f 976 938 952
f 977 939 953
f 977 963 939
f 978 964 940
f 978 940 954
f 979 941 955
f 979 965 941
f 980 942 956
f 980 966 942
f 981 967 943
f 981 943 957
f 982 944 958
f 982 968 944
f 983 946 960
f 983 969 946
f 984 947 961
f 984 970 947
f 985 971 948
f 985 948 962
f 986 972 949
f 986 949 963
f 987 22 973
f 987 950 964
f 987 973 950
f 988 126 127
f 988 974 126
f 989 951 965
f 989 975 951
f 990 952 966
f 990 976 952
f 991 953 967
f 991 977 953
f 992 954 968
f 992 978 954
f 993 979 955
f 993 955 969
f 994 980 956
f 994 956 970
f 995 957 971
f 995 981 957
f 996 958 972
f 996 982 958
f 997 983 960
f 997 960 974
f 998 984 961
f 998 961 975
f 999 985 962
f 999 962 976
f 1000 986 963
f 1000 963 977
f 1001 987 964
f 1001 22 987
f 1001 964 978
f 1002 988 127
f 1002 127 128
f 1003 965 979
f 1003 989 965
f 1004 966 980
f 1004 990 966
f 1005 967 981
f 1005 991 967
f 1006 968 982
f 1006 992 968
f 1007 969 983
f 1007 993 969
f 1008 994 970
f 1008 970 984
f 1009 995 971
f 1009 971 985
f 1010 972 986
f 1010 996 972
f 1011 997 974
f 1011 974 988
f 1012 975 989
f 1012 998 975
f 1013 976 990
f 1013 999 976
f 1014 1000 977
f 1014 977 991
f 1015 978 992
f 1015 22 1001
f 1015 1001 978
f 1016 128 129
f 1016 129 130
f 1016 1002 128
f 1017 979 993
f 1017 1003 979
f 1018 1004 980
f 1018 980 994
f 1019 981 995
f 1019 1005 981
f 1020 1006 982
f 1020 982 996
f 1021 983 997
f 1021 1007 983
f 1022 1008 984
f 1022 984 998
f 1023 985 999
f 1023 1009 985
f 1024 1010 986
f 1024 986 1000
f 1025 988 1002
f 1025 1011 988
f 1026 989 1003
f 1026 1012 989
f 1027 990 1004
f 1027 1013 990
f 1028 1014 991
f 1028 991 1005
f 1029 1015 992
f 1029 22 1015
f 1029 992 1006
f 1030 130 131
f 1030 1016 130
f 1031 1017 993
f 1031 993 1007
f 1032 1018 994
f 1032 994 1008
f 1033 1019 995
f 1033 995 1009
f 1034 996 1010
f 1034 1020 996
f 1035 997 1011
f 1035 1021 997
f 1036 1022 998
f 1036 998 1012
f 1037 1023 999
f 1037 999 1013
f 1038 1024 1000
f 1038 1000 1014
f 1039 1002 1016
f 1039 1025 1002
f 1040 1026 1003
f 1040 1003 1017
f 1041 1004 1018
f 1041 1027 1004
f 1042 1028 1005
f 1042 1005 1019
f 1043 22 1029
f 1043 1006 1020
f 1043 1029 1006
f 1044 131 132
f 1044 132 133
f 1044 1030 131
f 1045 1007 1021
f 1045 1031 1007
f 1046 1032 1008
f 1046 1008 1022
f 1047 1009 1023
f 1047 1033 1009
f 1048 1034 1010
f 1048 1010 1024
f 1049 1011 1025
f 1049 1035 1011
f 1050 1012 1026
f 1050 1036 1012
f 1051 1037 1013
f 1051 1013 1027
f 1052 1038 1014
f 1052 1014 1028
f 1053 1016 1030
f 1053 1039 1016
f 1054 1040 1017
f 1054 1017 1031
f 1055 1018 1032
f 1055 1041 1018
f 1056 1019 1033
f 1056 1042 1019
f 1057 22 1043
f 1057 1020 1034
f 1057 1043 1020
f 1058 1044 133
f 1058 133 134
f 1059 1021 1035
f 1059 1045 1021
f 1060 1046 1022
f 1060 1022 1036
f 1061 1023 1037
f 1061 1047 1023
f 1062 1048 1024
f 1062 1024 1038
f 1063 1049 1025
f 1063 1025 1039
f 1064 1026 1040
f 1064 1050 1026
f 1065 1051 1027
f 1065 1027 1041
f 1066 1052 1028
f 1066 1028 1042
f 1067 1053 1030
f 1067 1030 1044
f 1068 1054 1031
f 1068 1031 1045
f 1069 1055 1032
f 1069 1032 1046
f 1070 1033 1047
f 1070 1056 1033
f 1071 1057 1034
f 1071 22 1057
f 1071 1034 1048
f 1072 134 135
f 1072 1058 134
f 1073 1035 1049
f 1073 1059 1035
f 1074 1036 1050
f 1074 1060 1036
f 1075 1061 1037
f 1075 1037 1051
f 1076 1038 1052
f 1076 1062 1038
f 1077 1063 1039
f 1077 1039 1053
f 1078 1040 1054
f 1078 1064 1040
f 1079 1065 1041
f 1079 1041 1055
f 1080 1042 1056
f 1080 1066 1042
f 1081 1067 1044
f 1081 1044 1058
f 1082 1045 1059
f 1082 1068 1045
f 1083 1046 1060
f 1083 1069 1046
f 1084 1047 1061
f 1084 1070 1047
f 1085 22 1071
f 1085 1071 1048
f 1085 1048 1062
f 1086 135 136
f 1086 136 137
f 1086 1072 135
f 1087 1073 1049
f 1087 1049 1063
f 1088 1074 1050
f 1088 1050 1064
f 1089 1075 1051
f 1089 1051 1065
f 1090 1076 1052
f 1090 1052 1066
f 1091 1053 1067
f 1091 1077 1053
f 1092 1054 1068
f 1092 1078 1054
f 1093 1055 1069
f 1093 1079 1055
f 1094 1080 1056
f 1094 1056 1070
f 1095 1081 1058
f 1095 1058 1072
f 1096 1082 1059
f 1096 1059 1073
f 1097 1060 1074
f 1097 1083 1060
f 1098 1084 1061
f 1098 1061 1075
f 1099 1085 1062
f 1099 22 1085
f 1099 1062 1076
f 1100 137 138
f 1100 1086 137
f 1101 1087 1063
f 1101 1063 1077
f 1102 1088 1064
f 1102 1064 1078
f 1103 1089 1065
f 1103 1065 1079
f 1104 1090 1066
f 1104 1066 1080
f 1105 1067 1081
f 1105 1091 1067
f 1106 1068 1082
f 1106 1092 1068
f 1107 1093 1069
f 1107 1069 1083
f 1108 1070 1084
f 1108 1094 1070
f 1109 1095 1072
f 1109 1072 1086
f 1110 1096 1073
f 1110 1073 1087
f 1111 1097 1074
f 1111 1074 1088
f 1112 1098 1075
f 1112 1075 1089
f 1113 1099 1076
f 1113 1076 1090
f 1113 22 1099
f 1114 1100 138
f 1114 138 139
f 1114 139 140
f 1115 1077 1091
f 1115 1101 1077
f 1116 1078 1092
f 1116 1102 1078
f 1117 1079 1093
f 1117 1103 1079
f 1118 1080 1094
f 1118 1104 1080
f 1119 1105 1081
f 1119 1081 1095
f 1120 1106 1082
f 1120 1082 1096
f 1121 1083 1097
f 1121 1107 1083
f 1122 1084 1098
f 1122 1108 1084
f 1123 1086 1100
f 1123 1109 1086
f 1124 1087 1101
f 1124 1110 1087
f 1125 1088 1102
f 1125 1111 1088
f 1126 1089 1103
f 1126 1112 1089
f 1127 1090 1104
f 1127 1113 1090
f 1127 22 1113
f 1128 140 141
f 1128 1114 140
f 1129 1115 1091
f 1129 1091 1105
f 1130 1116 1092
f 1130 1092 1106
f 1131 1117 1093
f 1131 1093 1107
f 1132 1118 1094
f 1132 1094 1108
f 1133 1119 1095
f 1133 1095 1109
f 1134 1120 1096
f 1134 1096 1110
f 1135 1121 1097
f 1135 1097 1111
f 1136 1122 1098
f 1136 1098 1112
f 1137 1100 1114
f 1137 1123 1100
f 1138 1101 1115
f 1138 1124 1101
f 1139 1102 1116
f 1139 1125 1102
f 1140 1103 1117
f 1140 1126 1103
f 1141 1104 1118
f 1141 22 1127
f 1141 1127 1104
f 1142 141 142
f 1142 1128 141
f 1143 1105 1119
f 1143 1129 1105
f 1144 1130 1106
f 1144 1106 1120
f 1145 1107 1121
f 1145 1131 1107
f 1146 1108 1122
f 1146 1132 1108
f 1147 1133 1109
f 1147 1109 1123
f 1148 1110 1124
f 1148 1134 1110
f 1149 1111 1125
f 1149 1135 1111
f 1150 1136 1112
f 1150 1112 1126
f 1151 1114 1128
f 1151 1137 1114
f 1152 1115 1129
f 1152 1138 1115
f 1153 1139 1116
f 1153 1116 1130
f 1154 1117 1131
f 1154 1140 1117
f 1155 1118 1132
f 1155 1141 1118
f 1155 22 1141
f 1156 142 143
f 1156 143 144
f 1156 1142 142
f 1157 1119 1133
f 1157 1143 1119
f 1158 1120 1134
f 1158 1144 1120
f 1159 1145 1121
f 1159 1121 1135
f 1160 1122 1136
f 1160 1146 1122
f 1161 1147 1123
f 1161 1123 1137
f 1162 1124 1138
f 1162 1148 1124
f 1163 1149 1125
f 1163 1125 1139
f 1164 1126 1140
f 1164 1150 1126
f 1165 1151 1128
f 1165 1128 1142
f 1166 1152 1129
f 1166 1129 1143
f 1167 1153 1130
f 1167 1130 1144
f 1168 1131 1145
f 1168 1154 1131
f 1169 1155 1132
f 1169 1132 1146
f 1169 22 1155
f 1170 1156 144
f 1170 144 145
f 1171 1157 1133
f 1171 1133 1147
f 1172 1134 1148
f 1172 1158 1134
f 1173 1135 1149
f 1173 1159 1135
f 1174 1160 1136
f 1174 1136 1150
f 1175 1161 1137
f 1175 1137 1151
f 1176 1138 1152
f 1176 1162 1138
f 1177 1163 1139
f 1177 1139 1153
f 1178 1164 1140
f 1178 1140 1154
f 1179 1142 1156
f 1179 1165 1142
f 1180 1143 1157
f 1180 1166 1143
f 1181 1144 1158
f 1181 1167 1144
f 1182 1145 1159
f 1182 1168 1145
f 1183 1146 1160
f 1183 1169 1146
f 1183 22 1169
f 1184 145 146
f 1184 147 2
f 1184 146 147
f 1184 1170 145
f 1185 1147 1161
f 1185 1171 1147
f 1186 1148 1162
f 1186 1172 1148
f 1187 1173 1149
f 1187 1149 1163
f 1188 1150 1164
f 1188 1174 1150
f 1189 1151 1165
f 1189 1175 1151
f 1190 1176 1152
f 1190 1152 1166
f 1191 1153 1167
f 1191 1177 1153
f 1192 1178 1154
f 1192 1154 1168
f 1193 1156 1170
f 1193 1179 1156
f 1194 1157 1171
f 1194 1180 1157
f 1195 1181 1158
f 1195 1158 1172
f 1196 1159 1173
f 1196 1182 1159
f 1197 22 1183
f 1197 1160 1174
f 1197 1183 1160
f 1198 2 3
f 1198 1184 2
f 1198 3 1184
f 1199 1185 1161
f 1199 1161 1175
f 1200 1186 1162
f 1200 1162 1176
f 1201 1163 1177
f 1201 1187 1163
f 1202 1164 1178
f 1202 1188 1164
f 1203 1189 1165
f 1203 1165 1179
f 1204 1190 1166
f 1204 1166 1180
f 1205 1167 1181
f 1205 1191 1167
f 1206 1192 1168
f 1206 1168 1182
f 1207 1193 1170
f 1207 1170 1184
f 1208 1194 1171
f 1208 1171 1185
f 1209 1195 1172
f 1209 1172 1186
f 1210 1173 1187
f 1210 1196 1173
f 1211 1197 1174
f 1211 22 1197
f 1211 1174 1188
f 1212 1175 1189
f 1212 1199 1175
f 1213 1176 1190
f 1213 1200 1176
f 1214 1201 1177
f 1214 1177 1191
f 1215 1202 1178
f 1215 1178 1192
f 1216 1179 1193
f 1216 1203 1179
f 1217 1180 1194
f 1217 1204 1180
f 1218 1205 1181
f 1218 1181 1195
f 1219 1182 1196
f 1219 1206 1182
f 1220 3 4
f 1220 4 5
f 1220 1184 3
f 1220 1207 1184
f 1221 1185 1199
f 1221 1208 1185
f 1222 1186 1200
f 1222 1209 1186
f 1223 1187 1201
f 1223 1210 1187
f 1224 1188 1202
f 1224 1211 1188
f 1224 22 1211
f 1225 1189 1203
f 1225 1212 1189
f 1226 1190 1204
f 1226 1213 1190
f 1227 1214 1191
f 1227 1191 1205
f 1228 1215 1192
f 1228 1192 1206
f 1229 1216 1193
f 1229 1193 1207
f 1230 1217 1194
f 1230 1194 1208
f 1231 1218 1195
f 1231 1195 1209
f 1232 1219 1196
f 1232 1196 1210
f 1233 1221 1199
f 1233 1199 1212
f 1234 1222 1200
f 1234 1200 1213
f 1235 1201 1214
f 1235 1223 1201
f 1236 1224 1202
f 1236 22 1224
f 1236 1202 1215
f 1237 1203 1216
f 1237 1225 1203
f 1238 1204 1217
f 1238 1226 1204
f 1239 1227 1205
f 1239 1205 1218
f 1240 1228 1206
f 1240 1206 1219
f 1241 1207 1220
f 1241 1229 1207
f 1242 1208 1221
f 1242 1230 1208
f 1243 1209 1222
f 1243 1231 1209
f 1244 1232 1210
f 1244 1210 1223
f 1245 1212 1225
f 1245 1233 1212
f 1246 1213 1226
f 1246 1234 1213
f 1247 1214 1227
f 1247 1235 1214
f 1248 22 1236
f 1248 1236 1215
f 1248 1215 1228
f 1249 1216 1229
f 1249 1237 1216
f 1250 1217 1230
f 1250 1238 1217
f 1251 1239 1218
f 1251 1218 1231
f 1252 1219 1232
f 1252 1240 1219
f 1253 5 6
f 1253 1220 5
f 1253 1241 1220
f 1253 6 1241
f 1254 1242 1221
f 1254 1221 1233
f 1255 1222 1234
f 1255 1243 1222
f 1256 1223 1235
f 1256 1244 1223
f 1257 1245 1225
f 1257 1225 1237
f 1258 1226 1238
f 1258 1246 1226
f 1259 1227 1239
f 1259 1247 1227
f 1260 22 1248
f 1260 1228 1240
f 1260 1248 1228
f 1261 1249 1229
f 1261 1229 1241
f 1262 1250 1230
f 1262 1230 1242
f 1263 1251 1231
f 1263 1231 1243
f 1264 1252 1232
f 1264 1232 1244
f 1265 1254 1233
f 1265 1233 1245
f 1266 1255 1234
f 1266 1234 1246
f 1267 1256 1235
f 1267 1235 1247
f 1268 1257 1237
f 1268 1237 1249
f 1269 1238 1250
f 1269 1258 1238
f 1270 1239 1251
f 1270 1259 1239
f 1271 22 1260
f 1271 1260 1240
f 1271 1240 1252
f 1272 6 7
f 1272 1261 1241
f 1272 1241 6
f 1273 1262 1242
f 1273 1242 1254
f 1274 1243 1255
f 1274 1263 1243
f 1275 1244 1256
f 1275 1264 1244
f 1276 1245 1257
f 1276 1265 1245
f 1277 1246 1258
f 1277 1266 1246
f 1278 1267 1247
f 1278 1247 1259
f 1279 1249 1261
f 1279 1268 1249
f 1280 1250 1262
f 1280 1269 1250
f 1281 1270 1251
f 1281 1251 1263
f 1282 1252 1264
f 1282 1271 1252
f 1282 22 1271
f 1283 1273 1254
f 1283 1254 1265
f 1284 1274 1255
f 1284 1255 1266
f 1285 1256 1267
f 1285 1275 1256
f 1286 1276 1257
f 1286 1257 1268
f 1287 1258 1269
f 1287 1277 1258
f 1288 1259 1270
f 1288 1278 1259
f 1289 1272 7
f 1289 1279 1261
f 1289 1261 1272
f 1290 1262 1273
f 1290 1280 1262
f 1291 1281 1263
f 1291 1263 1274
f 1292 1282 1264
f 1292 22 1282
f 1292 1264 1275
f 1293 1283 1265
f 1293 1265 1276
f 1294 1284 1266
f 1294 1266 1277
f 1295 1285 1267
f 1295 1267 1278
f 1296 1286 1268
f 1296 1268 1279
f 1297 1287 1269
f 1297 1269 1280
f 1298 1288 1270
f 1298 1270 1281
f 1299 7 8
f 1299 8 9
f 1299 1289 7
f 1299 9 1289
f 1300 1290 1273
f 1300 1273 1283
f 1301 1291 1274
f 1301 1274 1284
f 1302 1275 1285
f 1302 22 1292
f 1302 1292 1275
f 1303 1293 1276
f 1303 1276 1286
f 1304 1294 1277
f 1304 1277 1287
f 1305 1295 1278
f 1305 1278 1288
f 1306 1279 1289
f 1306 1296 1279
f 1307 1280 1290
f 1307 1297 1280
f 1308 1298 1281
f 1308 1281 1291
f 1309 1283 1293
f 1309 1300 1283
f 1310 1301 1284
f 1310 1284 1294
f 1311 22 1302
f 1311 1302 1285
f 1311 1285 1295
f 1312 1286 1296
f 1312 1303 1286
f 1313 1287 1297
f 1313 1304 1287
f 1314 1305 1288
f 1314 1288 1298
f 1315 9 10
f 1315 1289 9
f 1315 1306 1289
f 1316 1290 1300
f 1316 1307 1290
f 1317 1291 1301
f 1317 1308 1291
f 1318 1309 1293
f 1318 1293 1303
f 1319 1294 1304
f 1319 1310 1294
f 1320 22 1311
f 1320 1295 1305
f 1320 1311 1295
f 1321 1296 1306
f 1321 1312 1296
f 1322 1297 1307
f 1322 1313 1297
f 1323 1298 1308
f 1323 1314 1298
f 1324 1316 1300
f 1324 1300 1309
f 1325 1317 1301
f 1325 1301 1310
f 1326 1318 1303
f 1326 1303 1312
f 1327 1319 1304
f 1327 1304 1313
f 1328 22 1320
f 1328 1320 1305
f 1328 1305 1314
f 1329 1306 1315
f 1329 1321 1306
f 1329 1315 10
f 1330 1307 1316
f 1330 1322 1307
f 1331 1308 1317
f 1331 1323 1308
f 1332 1324 1309
f 1332 1309 1318
f 1333 1310 1319
f 1333 1325 1310
f 1334 1312 1321
f 1334 1326 1312
f 1335 1313 1322
f 1335 1327 1313
f 1336 1314 1323
f 1336 1328 1314
f 1336 22 1328
f 1337 10 11
f 1337 1329 10
f 1338 1330 1316
f 1338 1316 1324
f 1339 1331 1317
f 1339 1317 1325
f 1340 1318 1326
f 1340 1332 1318
f 1341 1333 1319
f 1341 1319 1327
f 1342 1321 1329
f 1342 1334 1321
f 1343 1322 1330
f 1343 1335 1322
f 1344 1336 1323
f 1344 1323 1331
f 1344 22 1336
f 1345 1324 1332
f 1345 1338 1324
f 1346 1325 1333
f 1346 1339 1325
f 1347 1340 1326
f 1347 1326 1334
f 1348 1327 1335
f 1348 1341 1327
f 1349 11 12
f 1349 12 13
f 1349 1342 1329
f 1349 1337 11
f 1349 1329 1337
f 1350 1330 1338
f 1350 1343 1330
f 1351 1331 1339
f 1351 22 1344
f 1351 1344 1331
f 1352 1332 1340
f 1352 1345 1332
f 1353 1333 1341
f 1353 1346 1333
f 1354 1334 1342
f 1354 1347 1334
f 1355 1335 1343
f 1355 1348 1335
f 1356 1350 1338
f 1356 1338 1345
f 1357 22 1351
f 1357 1351 1339
f 1357 1339 1346
f 1358 1352 1340
f 1358 1340 1347
f 1359 1353 1341
f 1359 1341 1348
f 1360 1342 1349
f 1360 1349 13
f 1360 1354 1342
f 1361 1343 1350
f 1361 1355 1343
f 1362 1356 1345
f 1362 1345 1352
f 1363 1346 1353
f 1363 1357 1346
f 1363 22 1357
f 1364 1358 1347
f 1364 1347 1354
f 1365 1348 1355
f 1365 1359 1348
f 1366 13 14
f 1366 14 1360
f 1366 1360 13
f 1367 1361 1350
f 1367 1350 1356
f 1368 1362 1352
f 1368 1352 1358
f 1369 1353 1359
f 1369 1363 1353
f 1369 22 1363
f 1370 1354 1360
f 1370 1364 1354
f 1371 1365 1355
f 1371 1355 1361
f 1372 1356 1362
f 1372 1367 1356
f 1373 1358 1364
f 1373 1368 1358
f 1374 1369 1359
f 1374 1359 1365
f 1374 22 1369
f 1375 14 15
f 1375 15 16
f 1375 1360 14
f 1375 1370 1360
f 1376 1361 1367
f 1376 1371 1361
f 1377 1362 1368
f 1377 1372 1362
f 1378 1364 1370
f 1378 1373 1364
f 1379 1365 1371
f 1379 1374 1365
f 1379 22 1374
f 1380 1367 1372
f 1380 1376 1367
f 1381 1377 1368
f 1381 1368 1373
f 1382 1375 16
f 1382 1370 1375
f 1382 1378 1370
f 1383 1379 1371
f 1383 1371 1376
f 1383 22 1379
f 1384 1372 1377
f 1384 1380 1372
f 1385 1373 1378
f 1385 1381 1373
f 1386 16 17
f 1386 1382 16
f 1386 17 1382
f 1387 1383 1376
f 1387 22 1383
f 1387 1376 1380
f 1388 1377 1381
f 1388 1384 1377
f 1389 1385 1378
f 1389 1378 1382
f 1390 1380 1384
f 1390 22 1387
f 1390 1387 1380
f 1391 1381 1385
f 1391 1388 1381
f 1392 17 18
f 1392 18 19
f 1392 1389 1382
f 1392 1382 17
f 1393 22 1390
f 1393 1390 1384
f 1393 1384 1388
f 1394 1385 1389
f 1394 1391 1385
f 1395 22 1393
f 1395 1388 1391
f 1395 1393 1388
f 1396 1389 1392
f 1396 1394 1389
f 1397 22 1395
f 1397 1391 1394
f 1397 1395 1391
f 1398 19 20
f 1398 1392 19
f 1398 20 1396
f 1398 1396 1392
f 1399 22 1397
f 1399 1394 1396
f 1399 1397 1394
f 1400 22 1399
f 1400 20 21
f 1400 21 22
f 1400 1396 20
f 1400 1399 1396
f 98 100 99
f 105 102 101
f 105 103 102
f 105 104 103
f 106 100 98
f 106 105 101
f 106 101 100
f 95 97 96
f 108 106 98
f 108 107 106
f 93 97 95
f 93 95 94
f 93 98 97
f 110 109 108
f 111 110 108
f 90 92 91
f 90 93 92
f 113 111 108
f 113 112 111
f 86 88 87
f 86 89 88
f 86 90 89
f 116 114 113
f 116 115 114
f 85 90 86
f 117 116 113
f 119 118 117
f 82 84 83
f 82 85 84
f 82 93 90
f 82 90 85
f 120 119 117
f 120 117 113
f 122 120 113
f 122 113 108
f 122 121 120
f 79 81 80
f 79 82 81
f 76 82 79
f 76 78 77
f 76 79 78
f 76 93 82
f 126 125 124
f 74 76 75
f 73 76 74
f 71 73 72
f 132 131 130
f 69 71 70
f 133 130 129
f 133 132 130
f 67 73 71
f 67 71 69
f 67 69 68
f 135 123 122
f 135 124 123
f 135 127 126
f 135 128 127
f 135 129 128
f 135 122 108
f 135 134 133
f 135 126 124
f 135 133 129
f 135 108 98
f 135 98 93
f 137 136 135
f 64 66 65
f 64 67 66
f 139 138 137
f 61 63 62
f 61 64 63
f 61 73 67
f 61 67 64
f 141 140 139
f 142 141 139
f 59 61 60
f 144 143 142
f 144 142 139
f 57 59 58
f 57 76 73
f 57 73 61
f 57 61 59
f 146 145 144
f 146 137 135
f 146 139 137
f 146 144 139
f 53 55 54
f 53 56 55
f 53 57 56
f 23 1 147
f 52 57 53
f 24 147 146
f 24 135 93
f 24 93 76
f 24 146 135
f 24 23 147
f 48 57 52
f 48 50 49
f 48 51 50
f 48 52 51
f 28 27 26
f 29 25 24
f 29 26 25
f 29 28 26
f 46 48 47
f 46 57 48
f 46 76 57
f 32 30 29
f 32 31 30
f 42 44 43
f 42 45 44
f 41 45 42
f 40 46 45
f 40 45 41
f 36 34 33
f 36 35 34
f 37 24 76
f 37 33 32
f 37 29 24
f 37 32 29
f 37 36 33
f 38 40 39
f 38 76 46
f 38 46 40
f 38 37 76

