ISO-10303-21;
HEADER;
FILE_DESCRIPTION(('Open CASCADE Model'),'2;1');
FILE_NAME('Spear_FlushJunction_Cap_Focus','2000-01-01T00:00:00',(
    'Author'),('Open CASCADE'),'Open CASCADE STEP processor 7.9',
  'cadgen','Unknown');
FILE_SCHEMA(('AUTOMOTIVE_DESIGN { 1 0 10303 214 1 1 1 1 }'));
ENDSEC;
DATA;
#1 = APPLICATION_PROTOCOL_DEFINITION('international standard',
  'automotive_design',2000,#2);
#2 = APPLICATION_CONTEXT(
  'core data for automotive mechanical design processes');
#3 = SHAPE_DEFINITION_REPRESENTATION(#4,#10);
#4 = PRODUCT_DEFINITION_SHAPE('','',#5);
#5 = PRODUCT_DEFINITION('design','',#6,#9);
#6 = PRODUCT_DEFINITION_FORMATION('','',#7);
#7 = PRODUCT('Spear_FlushJunction_Cap_Focus',
  'Spear_FlushJunction_Cap_Focus','',(#8));
#8 = PRODUCT_CONTEXT('',#2,'mechanical');
#9 = PRODUCT_DEFINITION_CONTEXT('part definition',#2,'design');
#10 = SHAPE_REPRESENTATION('',(#11,#15,#19,#23,#27,#31,#35),#39);
#11 = AXIS2_PLACEMENT_3D('',#12,#13,#14);
#12 = CARTESIAN_POINT('',(0.,0.,0.));
#13 = DIRECTION('',(0.,0.,1.));
#14 = DIRECTION('',(1.,0.,0.));
#15 = AXIS2_PLACEMENT_3D('',#16,#17,#18);
#16 = CARTESIAN_POINT('',(0.,0.,0.));
#17 = DIRECTION('',(0.,0.,1.));
#18 = DIRECTION('',(1.,0.,0.));
#19 = AXIS2_PLACEMENT_3D('',#20,#21,#22);
#20 = CARTESIAN_POINT('',(-470.,60.,0.));
#21 = DIRECTION('',(0.,1.,1.110223024625E-16));
#22 = DIRECTION('',(1.,0.,0.));
#23 = AXIS2_PLACEMENT_3D('',#24,#25,#26);
#24 = CARTESIAN_POINT('',(-470.4,3.910297229677E-15,63.86));
#25 = DIRECTION('',(0.,0.,1.));
#26 = DIRECTION('',(1.,0.,0.));
#27 = AXIS2_PLACEMENT_3D('',#28,#29,#30);
#28 = CARTESIAN_POINT('',(-470.4,-63.86,7.820594459355E-15));
#29 = DIRECTION('',(0.,1.,1.110223024625E-16));
#30 = DIRECTION('',(1.,0.,0.));
#31 = AXIS2_PLACEMENT_3D('',#32,#33,#34);
#32 = CARTESIAN_POINT('',(-470.4,-1.173089168903E-14,-63.86));
#33 = DIRECTION('',(0.,1.224646799147E-16,-1.));
#34 = DIRECTION('',(1.,0.,0.));
#35 = AXIS2_PLACEMENT_3D('',#36,#37,#38);
#36 = CARTESIAN_POINT('',(-470.,48.,0.));
#37 = DIRECTION('',(0.,1.,1.110223024625E-16));
#38 = DIRECTION('',(1.,0.,0.));
#39 = ( GEOMETRIC_REPRESENTATION_CONTEXT(3) 
GLOBAL_UNCERTAINTY_ASSIGNED_CONTEXT((#43)) GLOBAL_UNIT_ASSIGNED_CONTEXT(
(#40,#41,#42)) REPRESENTATION_CONTEXT('Context #1',
  '3D Context with UNIT and UNCERTAINTY') );
#40 = ( LENGTH_UNIT() NAMED_UNIT(*) SI_UNIT(.MILLI.,.METRE.) );
#41 = ( NAMED_UNIT(*) PLANE_ANGLE_UNIT() SI_UNIT($,.RADIAN.) );
#42 = ( NAMED_UNIT(*) SI_UNIT($,.STERADIAN.) SOLID_ANGLE_UNIT() );
#43 = UNCERTAINTY_MEASURE_WITH_UNIT(LENGTH_MEASURE(1.E-07),#40,
  'distance_accuracy_value','confusion accuracy');
#44 = PRODUCT_RELATED_PRODUCT_CATEGORY('part',$,(#7));
#45 = SHAPE_DEFINITION_REPRESENTATION(#46,#52);
#46 = PRODUCT_DEFINITION_SHAPE('','',#47);
#47 = PRODUCT_DEFINITION('design','',#48,#51);
#48 = PRODUCT_DEFINITION_FORMATION('','',#49);
#49 = PRODUCT('turning_cap','turning_cap','',(#50));
#50 = PRODUCT_CONTEXT('',#2,'mechanical');
#51 = PRODUCT_DEFINITION_CONTEXT('part definition',#2,'design');
#52 = ADVANCED_BREP_SHAPE_REPRESENTATION('',(#11,#53),#561);
#53 = MANIFOLD_SOLID_BREP('',#54);
#54 = CLOSED_SHELL('',(#55,#440,#494,#498,#553,#557));
#55 = ADVANCED_FACE('',(#56,#143),#69,.T.);
#56 = FACE_BOUND('',#57,.T.);
#57 = EDGE_LOOP('',(#58,#92,#115,#142));
#58 = ORIENTED_EDGE('',*,*,#59,.T.);
#59 = EDGE_CURVE('',#60,#60,#62,.T.);
#60 = VERTEX_POINT('',#61);
#61 = CARTESIAN_POINT('',(-578.,0.,-62.));
#62 = SURFACE_CURVE('',#63,(#68,#80),.PCURVE_S1.);
#63 = CIRCLE('',#64,62.);
#64 = AXIS2_PLACEMENT_3D('',#65,#66,#67);
#65 = CARTESIAN_POINT('',(-578.,0.,2.442490654175E-15));
#66 = DIRECTION('',(1.,0.,1.110223024625E-16));
#67 = DIRECTION('',(1.110223024625E-16,0.,-1.));
#68 = PCURVE('',#69,#74);
#69 = CYLINDRICAL_SURFACE('',#70,62.);
#70 = AXIS2_PLACEMENT_3D('',#71,#72,#73);
#71 = CARTESIAN_POINT('',(-600.,0.,0.));
#72 = DIRECTION('',(1.,0.,1.110223024625E-16));
#73 = DIRECTION('',(1.110223024625E-16,0.,-1.));
#74 = DEFINITIONAL_REPRESENTATION('',(#75),#79);
#75 = LINE('',#76,#77);
#76 = CARTESIAN_POINT('',(0.,22.));
#77 = VECTOR('',#78,1.);
#78 = DIRECTION('',(1.,0.));
#79 = ( GEOMETRIC_REPRESENTATION_CONTEXT(2) 
PARAMETRIC_REPRESENTATION_CONTEXT() REPRESENTATION_CONTEXT('2D SPACE',''
  ) );
#80 = PCURVE('',#81,#86);
#81 = TOROIDAL_SURFACE('',#82,40.,22.);
#82 = AXIS2_PLACEMENT_3D('',#83,#84,#85);
#83 = CARTESIAN_POINT('',(-578.,0.,2.442490654175E-15));
#84 = DIRECTION('',(-1.,0.,-1.110223024625E-16));
#85 = DIRECTION('',(1.110223024625E-16,0.,-1.));
#86 = DEFINITIONAL_REPRESENTATION('',(#87),#91);
#87 = LINE('',#88,#89);
#88 = CARTESIAN_POINT('',(0.,0.));
#89 = VECTOR('',#90,1.);
#90 = DIRECTION('',(-1.,0.));
#91 = ( GEOMETRIC_REPRESENTATION_CONTEXT(2) 
PARAMETRIC_REPRESENTATION_CONTEXT() REPRESENTATION_CONTEXT('2D SPACE',''
  ) );
#92 = ORIENTED_EDGE('',*,*,#93,.T.);
#93 = EDGE_CURVE('',#60,#94,#96,.T.);
#94 = VERTEX_POINT('',#95);
#95 = CARTESIAN_POINT('',(-420.,-1.518562030943E-14,-62.));
#96 = SEAM_CURVE('',#97,(#101,#108),.PCURVE_S1.);
#97 = LINE('',#98,#99);
#98 = CARTESIAN_POINT('',(-600.,-1.518562030943E-14,-62.));
#99 = VECTOR('',#100,1.);
#100 = DIRECTION('',(1.,0.,1.110223024625E-16));
#101 = PCURVE('',#69,#102);
#102 = DEFINITIONAL_REPRESENTATION('',(#103),#107);
#103 = LINE('',#104,#105);
#104 = CARTESIAN_POINT('',(0.,0.));
#105 = VECTOR('',#106,1.);
#106 = DIRECTION('',(0.,1.));
#107 = ( GEOMETRIC_REPRESENTATION_CONTEXT(2) 
PARAMETRIC_REPRESENTATION_CONTEXT() REPRESENTATION_CONTEXT('2D SPACE',''
  ) );
#108 = PCURVE('',#69,#109);
#109 = DEFINITIONAL_REPRESENTATION('',(#110),#114);
#110 = LINE('',#111,#112);
#111 = CARTESIAN_POINT('',(6.28318530718,0.));
#112 = VECTOR('',#113,1.);
#113 = DIRECTION('',(0.,1.));
#114 = ( GEOMETRIC_REPRESENTATION_CONTEXT(2) 
PARAMETRIC_REPRESENTATION_CONTEXT() REPRESENTATION_CONTEXT('2D SPACE',''
  ) );
#115 = ORIENTED_EDGE('',*,*,#116,.F.);
#116 = EDGE_CURVE('',#94,#94,#117,.T.);
#117 = SURFACE_CURVE('',#118,(#123,#130),.PCURVE_S1.);
#118 = CIRCLE('',#119,62.);
#119 = AXIS2_PLACEMENT_3D('',#120,#121,#122);
#120 = CARTESIAN_POINT('',(-420.,0.,1.998401444325E-14));
#121 = DIRECTION('',(1.,0.,1.110223024625E-16));
#122 = DIRECTION('',(1.110223024625E-16,0.,-1.));
#123 = PCURVE('',#69,#124);
#124 = DEFINITIONAL_REPRESENTATION('',(#125),#129);
#125 = LINE('',#126,#127);
#126 = CARTESIAN_POINT('',(0.,180.));
#127 = VECTOR('',#128,1.);
#128 = DIRECTION('',(1.,0.));
#129 = ( GEOMETRIC_REPRESENTATION_CONTEXT(2) 
PARAMETRIC_REPRESENTATION_CONTEXT() REPRESENTATION_CONTEXT('2D SPACE',''
  ) );
#130 = PCURVE('',#131,#136);
#131 = PLANE('',#132);
#132 = AXIS2_PLACEMENT_3D('',#133,#134,#135);
#133 = CARTESIAN_POINT('',(-420.,0.,1.998401444325E-14));
#134 = DIRECTION('',(1.,0.,1.110223024625E-16));
#135 = DIRECTION('',(1.110223024625E-16,0.,-1.));
#136 = DEFINITIONAL_REPRESENTATION('',(#137),#141);
#137 = CIRCLE('',#138,62.);
#138 = AXIS2_PLACEMENT_2D('',#139,#140);
#139 = CARTESIAN_POINT('',(0.,0.));
#140 = DIRECTION('',(1.,0.));
#141 = ( GEOMETRIC_REPRESENTATION_CONTEXT(2) 
PARAMETRIC_REPRESENTATION_CONTEXT() REPRESENTATION_CONTEXT('2D SPACE',''
  ) );
#142 = ORIENTED_EDGE('',*,*,#93,.F.);
#143 = FACE_BOUND('',#144,.T.);
#144 = EDGE_LOOP('',(#145));
#145 = ORIENTED_EDGE('',*,*,#146,.F.);
#146 = EDGE_CURVE('',#147,#147,#149,.T.);
#147 = VERTEX_POINT('',#148);
#148 = CARTESIAN_POINT('',(-463.6,62.,3.121860137384E-15));
#149 = SURFACE_CURVE('',#150,(#243,#339),.PCURVE_S1.);
#150 = B_SPLINE_CURVE_WITH_KNOTS('',7,(#151,#152,#153,#154,#155,#156,
    #157,#158,#159,#160,#161,#162,#163,#164,#165,#166,#167,#168,#169,
    #170,#171,#172,#173,#174,#175,#176,#177,#178,#179,#180,#181,#182,
    #183,#184,#185,#186,#187,#188,#189,#190,#191,#192,#193,#194,#195,
    #196,#197,#198,#199,#200,#201,#202,#203,#204,#205,#206,#207,#208,
    #209,#210,#211,#212,#213,#214,#215,#216,#217,#218,#219,#220,#221,
    #222,#223,#224,#225,#226,#227,#228,#229,#230,#231,#232,#233,#234,
    #235,#236,#237,#238,#239,#240,#241,#242),.UNSPECIFIED.,.T.,.F.,(8,6,
    6,6,6,6,6,6,6,6,6,6,6,6,6,8),(0.,4.762946056208E-02,
    7.946111660573E-02,0.119771041429,0.1786057962,0.250297931787,
    0.347844225914,0.454439643986,0.545560359783,0.652155777856,
    0.749702071983,0.82139420757,0.880228958454,0.920538883314,
    0.952370539388,1.),.UNSPECIFIED.);
#151 = CARTESIAN_POINT('',(-463.6,62.,0.));
#152 = CARTESIAN_POINT('',(-463.6,62.,-0.332284770786));
#153 = CARTESIAN_POINT('',(-463.6201274882,61.997922369941,
    -0.663957063802));
#154 = CARTESIAN_POINT('',(-463.6602484367,61.993780696921,
    -0.992564521075));
#155 = CARTESIAN_POINT('',(-463.7197382053,61.987680738828,
    -1.315689310609));
#156 = CARTESIAN_POINT('',(-463.7974922874,61.979815866704,
    -1.631013949963));
#157 = CARTESIAN_POINT('',(-463.8919356007,61.970449898441,
    -1.936385703538));
#158 = CARTESIAN_POINT('',(-464.07394036,61.952828158319,-2.426026962695
    ));
#159 = CARTESIAN_POINT('',(-464.1534859462,61.945225676652,
    -2.617115178744));
#160 = CARTESIAN_POINT('',(-464.2392308755,61.937154712926,
    -2.802928349892));
#161 = CARTESIAN_POINT('',(-464.3307356299,61.928691189769,
    -2.983278247015));
#162 = CARTESIAN_POINT('',(-464.4275572796,61.919910695905,
    -3.158004243812));
#163 = CARTESIAN_POINT('',(-464.5292493826,61.910887063769,
    -3.326973296899));
#164 = CARTESIAN_POINT('',(-464.7697371417,61.890045471579,
    -3.696629529987));
#165 = CARTESIAN_POINT('',(-464.9112406547,61.878119933745,
    -3.893838736434));
#166 = CARTESIAN_POINT('',(-465.0591355204,61.866043206559,
    -4.081743644705));
#167 = CARTESIAN_POINT('',(-465.2127491337,61.853932162617,
    -4.260414301747));
#168 = CARTESIAN_POINT('',(-465.3714675593,61.841891779802,-4.4299478808
    ));
#169 = CARTESIAN_POINT('',(-465.534729904,61.830015246954,
    -4.590461860218));
#170 = CARTESIAN_POINT('',(-465.9461965499,61.801407667914,
    -4.963393489891));
#171 = CARTESIAN_POINT('',(-466.1990422669,61.784948080696,
    -5.165842113469));
#172 = CARTESIAN_POINT('',(-466.4591252815,61.769249635243,
    -5.349952776534));
#173 = CARTESIAN_POINT('',(-466.7252532064,61.754507792848,
    -5.516243037109));
#174 = CARTESIAN_POINT('',(-466.9964382492,61.740876982891,
    -5.665204222311));
#175 = CARTESIAN_POINT('',(-467.2718596357,61.728478437026,
    -5.797277342941));
#176 = CARTESIAN_POINT('',(-467.8907560086,61.70391835044,
    -6.053632614311));
#177 = CARTESIAN_POINT('',(-468.2359488913,61.692400697334,
    -6.169904733863));
#178 = CARTESIAN_POINT('',(-468.5850595885,61.683032100734,
    -6.262270179472));
#179 = CARTESIAN_POINT('',(-468.9369614497,61.675931408377,
    -6.331213591356));
#180 = CARTESIAN_POINT('',(-469.2906782633,61.671172691363,
    -6.377067596902));
#181 = CARTESIAN_POINT('',(-469.6453168137,61.668792756142,-6.4));
#182 = CARTESIAN_POINT('',(-470.4825917113,61.668792756142,-6.4));
#183 = CARTESIAN_POINT('',(-470.9649651558,61.6731987882,-6.357545516167
    ));
#184 = CARTESIAN_POINT('',(-471.4450281649,61.682003357473,
    -6.272703604869));
#185 = CARTESIAN_POINT('',(-471.9205739821,61.695083230382,
    -6.144880675137));
#186 = CARTESIAN_POINT('',(-472.3890175053,61.712188008596,
    -5.972902072006));
#187 = CARTESIAN_POINT('',(-472.8470564688,61.732891240347,
    -5.755107616746));
#188 = CARTESIAN_POINT('',(-473.7745733057,61.782307400368,
    -5.199175419083));
#189 = CARTESIAN_POINT('',(-474.2435400049,61.811711367036,
    -4.850327195239));
#190 = CARTESIAN_POINT('',(-474.6896536001,61.843805853481,
    -4.440099825483));
#191 = CARTESIAN_POINT('',(-475.1036726366,61.877194679443,
    -3.966087989279));
#192 = CARTESIAN_POINT('',(-475.4742233274,61.909909649547,-3.426854497)
  );
#193 = CARTESIAN_POINT('',(-475.7874566903,61.939311797455,
    -2.822449210315));
#194 = CARTESIAN_POINT('',(-476.2296945903,61.982319640284,
    -1.586477079129));
#195 = CARTESIAN_POINT('',(-476.3788715878,61.997600847088,
    -0.971510391259));
#196 = CARTESIAN_POINT('',(-476.4574272183,62.006046965108,
    -0.327239278035));
#197 = CARTESIAN_POINT('',(-476.4574272183,62.006046965108,
    0.327239278034));
#198 = CARTESIAN_POINT('',(-476.3788715878,61.997600847088,0.97151039126
    ));
#199 = CARTESIAN_POINT('',(-476.2296945903,61.982319640284,
    1.586477079129));
#200 = CARTESIAN_POINT('',(-475.7874566903,61.939311797455,
    2.822449210316));
#201 = CARTESIAN_POINT('',(-475.4742233274,61.909909649547,
    3.426854496999));
#202 = CARTESIAN_POINT('',(-475.1036726366,61.877194679443,
    3.966087989279));
#203 = CARTESIAN_POINT('',(-474.6896536001,61.84380585348,4.440099825485
    ));
#204 = CARTESIAN_POINT('',(-474.2435400049,61.811711367036,
    4.850327195238));
#205 = CARTESIAN_POINT('',(-473.7745733057,61.782307400368,
    5.199175419083));
#206 = CARTESIAN_POINT('',(-472.8470564688,61.732891240347,
    5.755107616746));
#207 = CARTESIAN_POINT('',(-472.3890175053,61.712188008596,
    5.972902072006));
#208 = CARTESIAN_POINT('',(-471.9205739821,61.695083230382,
    6.144880675137));
#209 = CARTESIAN_POINT('',(-471.4450281649,61.682003357473,
    6.272703604869));
#210 = CARTESIAN_POINT('',(-470.9649651558,61.6731987882,6.357545516167)
  );
#211 = CARTESIAN_POINT('',(-470.4825917113,61.668792756142,6.4));
#212 = CARTESIAN_POINT('',(-469.6453168137,61.668792756142,6.4));
#213 = CARTESIAN_POINT('',(-469.2906782633,61.671172691363,
    6.377067596902));
#214 = CARTESIAN_POINT('',(-468.9369614497,61.675931408377,
    6.331213591356));
#215 = CARTESIAN_POINT('',(-468.5850595885,61.683032100734,
    6.262270179472));
#216 = CARTESIAN_POINT('',(-468.2359488913,61.692400697334,
    6.169904733863));
#217 = CARTESIAN_POINT('',(-467.8907560086,61.70391835044,6.053632614311
    ));
#218 = CARTESIAN_POINT('',(-467.2718596541,61.728478436295,
    5.797277350575));
#219 = CARTESIAN_POINT('',(-466.9964382318,61.740876983872,
    5.665204210462));
#220 = CARTESIAN_POINT('',(-466.7252531916,61.754507793456,
    5.516243030701));
#221 = CARTESIAN_POINT('',(-466.4591252947,61.769249634337,
    5.349952788188));
#222 = CARTESIAN_POINT('',(-466.1990422846,61.784948079775,5.16584212424
    ));
#223 = CARTESIAN_POINT('',(-465.9461965335,61.801407669051,
    4.963393475069));
#224 = CARTESIAN_POINT('',(-465.534729904,61.830015246954,4.590461860218
    ));
#225 = CARTESIAN_POINT('',(-465.3714675593,61.841891779802,4.4299478808)
  );
#226 = CARTESIAN_POINT('',(-465.2127491337,61.853932162617,
    4.260414301747));
#227 = CARTESIAN_POINT('',(-465.0591355204,61.866043206559,
    4.081743644705));
#228 = CARTESIAN_POINT('',(-464.9112406547,61.878119933745,
    3.893838736434));
#229 = CARTESIAN_POINT('',(-464.7697371417,61.890045471579,
    3.696629529986));
#230 = CARTESIAN_POINT('',(-464.5292493826,61.910887063769,
    3.326973296894));
#231 = CARTESIAN_POINT('',(-464.4275572796,61.919910695905,
    3.158004243811));
#232 = CARTESIAN_POINT('',(-464.3307356299,61.928691189768,2.98327824702
    ));
#233 = CARTESIAN_POINT('',(-464.2392308755,61.937154712926,
    2.802928349897));
#234 = CARTESIAN_POINT('',(-464.1534859462,61.945225676652,
    2.617115178744));
#235 = CARTESIAN_POINT('',(-464.07394036,61.952828158319,2.426026962688)
  );
#236 = CARTESIAN_POINT('',(-463.8919356007,61.970449898441,
    1.936385703517));
#237 = CARTESIAN_POINT('',(-463.7974922874,61.979815866703,
    1.631013949983));
#238 = CARTESIAN_POINT('',(-463.7197382053,61.987680738828,
    1.315689310628));
#239 = CARTESIAN_POINT('',(-463.6602484367,61.993780696922,
    0.992564521058));
#240 = CARTESIAN_POINT('',(-463.6201274882,61.99792236994,0.663957063777
    ));
#241 = CARTESIAN_POINT('',(-463.6,62.,0.332284770809));
#242 = CARTESIAN_POINT('',(-463.6,62.,0.));
#243 = PCURVE('',#69,#244);
#244 = DEFINITIONAL_REPRESENTATION('',(#245),#338);
#245 = B_SPLINE_CURVE_WITH_KNOTS('',7,(#246,#247,#248,#249,#250,#251,
    #252,#253,#254,#255,#256,#257,#258,#259,#260,#261,#262,#263,#264,
    #265,#266,#267,#268,#269,#270,#271,#272,#273,#274,#275,#276,#277,
    #278,#279,#280,#281,#282,#283,#284,#285,#286,#287,#288,#289,#290,
    #291,#292,#293,#294,#295,#296,#297,#298,#299,#300,#301,#302,#303,
    #304,#305,#306,#307,#308,#309,#310,#311,#312,#313,#314,#315,#316,
    #317,#318,#319,#320,#321,#322,#323,#324,#325,#326,#327,#328,#329,
    #330,#331,#332,#333,#334,#335,#336,#337),.UNSPECIFIED.,.T.,.F.,(8,6,
    6,6,6,6,6,6,6,6,6,6,6,6,6,8),(0.,4.762946056208E-02,
    7.946111660573E-02,0.119771041429,0.1786057962,0.250297931787,
    0.347844225914,0.454439643986,0.545560359783,0.652155777856,
    0.749702071983,0.82139420757,0.880228958454,0.920538883314,
    0.952370539388,1.),.UNSPECIFIED.);
#246 = CARTESIAN_POINT('',(1.570796326795,136.4));
#247 = CARTESIAN_POINT('',(1.565436895008,136.4));
#248 = CARTESIAN_POINT('',(1.560087341738,136.37987251171));
#249 = CARTESIAN_POINT('',(1.554786970596,136.33975156328));
#250 = CARTESIAN_POINT('',(1.54957452939,136.28026179469));
#251 = CARTESIAN_POINT('',(1.544487203137,136.20250771256));
#252 = CARTESIAN_POINT('',(1.539559605575,136.10806439928));
#253 = CARTESIAN_POINT('',(1.531657053128,135.92605963991));
#254 = CARTESIAN_POINT('',(1.528572569069,135.84651405374));
#255 = CARTESIAN_POINT('',(1.525572787575,135.76076912446));
#256 = CARTESIAN_POINT('',(1.522660747133,135.66926437008));
#257 = CARTESIAN_POINT('',(1.519839052612,135.57244272039));
#258 = CARTESIAN_POINT('',(1.517109873754,135.47075061734));
#259 = CARTESIAN_POINT('',(1.511138207594,135.23026285828));
#260 = CARTESIAN_POINT('',(1.507951629897,135.08875934527));
#261 = CARTESIAN_POINT('',(1.50491468579,134.9408644795));
#262 = CARTESIAN_POINT('',(1.502026317038,134.7872508662));
#263 = CARTESIAN_POINT('',(1.499285036732,134.62853244065));
#264 = CARTESIAN_POINT('',(1.496689034085,134.46527009599));
#265 = CARTESIAN_POINT('',(1.490656336283,134.05380345007));
#266 = CARTESIAN_POINT('',(1.487380295047,133.80095773302));
#267 = CARTESIAN_POINT('',(1.484400027226,133.54087471848));
#268 = CARTESIAN_POINT('',(1.481707429158,133.27474679358));
#269 = CARTESIAN_POINT('',(1.479294801428,133.00356175073));
#270 = CARTESIAN_POINT('',(1.477155228487,132.72814036425));
#271 = CARTESIAN_POINT('',(1.473001533774,132.10924399132));
#272 = CARTESIAN_POINT('',(1.471117008287,131.76405110865));
#273 = CARTESIAN_POINT('',(1.469619603354,131.41494041146));
#274 = CARTESIAN_POINT('',(1.468501730803,131.0630385502));
#275 = CARTESIAN_POINT('',(1.467758178156,130.70932173663));
#276 = CARTESIAN_POINT('',(1.467386314114,130.35468318623));
#277 = CARTESIAN_POINT('',(1.467386314114,129.5174082886));
#278 = CARTESIAN_POINT('',(1.468074742169,129.03503484418));
#279 = CARTESIAN_POINT('',(1.469450507164,128.554971835));
#280 = CARTESIAN_POINT('',(1.471522933014,128.07942601784));
#281 = CARTESIAN_POINT('',(1.47431044176,127.61098249468));
#282 = CARTESIAN_POINT('',(1.477839025617,127.15294353119));
#283 = CARTESIAN_POINT('',(1.486841028014,126.22542669425));
#284 = CARTESIAN_POINT('',(1.492487506439,125.756459995));
#285 = CARTESIAN_POINT('',(1.499124087967,125.31034639981));
#286 = CARTESIAN_POINT('',(1.506787926937,124.89632736332));
#287 = CARTESIAN_POINT('',(1.515500368057,124.52577667251));
#288 = CARTESIAN_POINT('',(1.525259434533,124.21254330962));
#289 = CARTESIAN_POINT('',(1.54520653408,123.77030540969));
#290 = CARTESIAN_POINT('',(1.555127923403,123.6211284121));
#291 = CARTESIAN_POINT('',(1.565519114836,123.54257278169));
#292 = CARTESIAN_POINT('',(1.576073538753,123.54257278168));
#293 = CARTESIAN_POINT('',(1.586464730186,123.6211284121));
#294 = CARTESIAN_POINT('',(1.59638611951,123.77030540969));
#295 = CARTESIAN_POINT('',(1.616333219057,124.21254330962));
#296 = CARTESIAN_POINT('',(1.626092285533,124.52577667251));
#297 = CARTESIAN_POINT('',(1.634804726653,124.89632736331));
#298 = CARTESIAN_POINT('',(1.642468565623,125.31034639981));
#299 = CARTESIAN_POINT('',(1.649105147151,125.756459995));
#300 = CARTESIAN_POINT('',(1.654751625576,126.22542669425));
#301 = CARTESIAN_POINT('',(1.663753627973,127.15294353119));
#302 = CARTESIAN_POINT('',(1.66728221183,127.61098249468));
#303 = CARTESIAN_POINT('',(1.670069720576,128.07942601784));
#304 = CARTESIAN_POINT('',(1.672142146426,128.554971835));
#305 = CARTESIAN_POINT('',(1.673517911421,129.03503484418));
#306 = CARTESIAN_POINT('',(1.674206339475,129.5174082886));
#307 = CARTESIAN_POINT('',(1.674206339475,130.35468318623));
#308 = CARTESIAN_POINT('',(1.673834475434,130.70932173663));
#309 = CARTESIAN_POINT('',(1.673090922787,131.0630385502));
#310 = CARTESIAN_POINT('',(1.671973050236,131.41494041146));
#311 = CARTESIAN_POINT('',(1.670475645303,131.76405110865));
#312 = CARTESIAN_POINT('',(1.668591119816,132.10924399132));
#313 = CARTESIAN_POINT('',(1.664437425227,132.72814034582));
#314 = CARTESIAN_POINT('',(1.66229785197,133.00356176811));
#315 = CARTESIAN_POINT('',(1.659885224328,133.27474680834));
#316 = CARTESIAN_POINT('',(1.657192626552,133.54087470522));
#317 = CARTESIAN_POINT('',(1.654212358717,133.80095771531));
#318 = CARTESIAN_POINT('',(1.650936317067,134.05380346642));
#319 = CARTESIAN_POINT('',(1.644903619505,134.46527009599));
#320 = CARTESIAN_POINT('',(1.642307616858,134.62853244065));
#321 = CARTESIAN_POINT('',(1.639566336552,134.7872508662));
#322 = CARTESIAN_POINT('',(1.6366779678,134.9408644795));
#323 = CARTESIAN_POINT('',(1.633641023693,135.08875934527));
#324 = CARTESIAN_POINT('',(1.630454445996,135.23026285828));
#325 = CARTESIAN_POINT('',(1.624482779836,135.47075061734));
#326 = CARTESIAN_POINT('',(1.621753600977,135.57244272039));
#327 = CARTESIAN_POINT('',(1.618931906457,135.66926437008));
#328 = CARTESIAN_POINT('',(1.616019866015,135.76076912445));
#329 = CARTESIAN_POINT('',(1.613020084521,135.84651405374));
#330 = CARTESIAN_POINT('',(1.609935600462,135.92605963991));
#331 = CARTESIAN_POINT('',(1.602033048015,136.10806439928));
#332 = CARTESIAN_POINT('',(1.597105450453,136.20250771255));
#333 = CARTESIAN_POINT('',(1.5920181242,136.28026179469));
#334 = CARTESIAN_POINT('',(1.586805682993,136.33975156329));
#335 = CARTESIAN_POINT('',(1.581505311851,136.3798725117));
#336 = CARTESIAN_POINT('',(1.576155758582,136.4));
#337 = CARTESIAN_POINT('',(1.570796326795,136.4));
#338 = ( GEOMETRIC_REPRESENTATION_CONTEXT(2) 
PARAMETRIC_REPRESENTATION_CONTEXT() REPRESENTATION_CONTEXT('2D SPACE',''
  ) );
#339 = PCURVE('',#340,#345);
#340 = CYLINDRICAL_SURFACE('',#341,6.4);
#341 = AXIS2_PLACEMENT_3D('',#342,#343,#344);
#342 = CARTESIAN_POINT('',(-470.,48.,0.));
#343 = DIRECTION('',(0.,1.,1.110223024625E-16));
#344 = DIRECTION('',(1.,0.,0.));
#345 = DEFINITIONAL_REPRESENTATION('',(#346),#439);
#346 = B_SPLINE_CURVE_WITH_KNOTS('',7,(#347,#348,#349,#350,#351,#352,
    #353,#354,#355,#356,#357,#358,#359,#360,#361,#362,#363,#364,#365,
    #366,#367,#368,#369,#370,#371,#372,#373,#374,#375,#376,#377,#378,
    #379,#380,#381,#382,#383,#384,#385,#386,#387,#388,#389,#390,#391,
    #392,#393,#394,#395,#396,#397,#398,#399,#400,#401,#402,#403,#404,
    #405,#406,#407,#408,#409,#410,#411,#412,#413,#414,#415,#416,#417,
    #418,#419,#420,#421,#422,#423,#424,#425,#426,#427,#428,#429,#430,
    #431,#432,#433,#434,#435,#436,#437,#438),.UNSPECIFIED.,.F.,.F.,(8,6,
    6,6,6,6,6,6,6,6,6,6,6,6,6,8),(0.,4.762946056208E-02,
    7.946111660573E-02,0.119771041429,0.1786057962,0.250297931787,
    0.347844225914,0.454439643986,0.545560359783,0.652155777856,
    0.749702071983,0.82139420757,0.880228958454,0.920538883314,
    0.952370539388,1.),.UNSPECIFIED.);
#347 = CARTESIAN_POINT('',(0.,14.));
#348 = CARTESIAN_POINT('',(5.191949543525E-02,14.));
#349 = CARTESIAN_POINT('',(0.103743288061,13.997922369941));
#350 = CARTESIAN_POINT('',(0.155316812935,13.993780696922));
#351 = CARTESIAN_POINT('',(0.206487017397,13.987680738828));
#352 = CARTESIAN_POINT('',(0.257093461597,13.979815866704));
#353 = CARTESIAN_POINT('',(0.306959499846,13.970449898441));
#354 = CARTESIAN_POINT('',(0.388580392363,13.952828158319));
#355 = CARTESIAN_POINT('',(0.420897527766,13.945225676652));
#356 = CARTESIAN_POINT('',(0.452836646432,13.937154712926));
#357 = CARTESIAN_POINT('',(0.484397426579,13.928691189769));
#358 = CARTESIAN_POINT('',(0.515577553233,13.919910695905));
#359 = CARTESIAN_POINT('',(0.546372744232,13.910887063769));
#360 = CARTESIAN_POINT('',(0.615278833539,13.890045471579));
#361 = CARTESIAN_POINT('',(0.653164974761,13.878119933745));
#362 = CARTESIAN_POINT('',(0.690470193976,13.866043206559));
#363 = CARTESIAN_POINT('',(0.727226378699,13.853932162617));
#364 = CARTESIAN_POINT('',(0.763462907316,13.841891779802));
#365 = CARTESIAN_POINT('',(0.799207246497,13.830015246954));
#366 = CARTESIAN_POINT('',(0.885976348026,13.801407667914));
#367 = CARTESIAN_POINT('',(0.936492576715,13.784948080696));
#368 = CARTESIAN_POINT('',(0.986144812383,13.769249635243));
#369 = CARTESIAN_POINT('',(1.035035479926,13.754507792848));
#370 = CARTESIAN_POINT('',(1.083261575927,13.740876982891));
#371 = CARTESIAN_POINT('',(1.130917393162,13.728478437026));
#372 = CARTESIAN_POINT('',(1.235587487981,13.70391835044));
#373 = CARTESIAN_POINT('',(1.292370653227,13.692400697334));
#374 = CARTESIAN_POINT('',(1.348600101159,13.683032100734));
#375 = CARTESIAN_POINT('',(1.404418627603,13.675931408377));
#376 = CARTESIAN_POINT('',(1.459964771351,13.671172691363));
#377 = CARTESIAN_POINT('',(1.515377078945,13.668792756142));
#378 = CARTESIAN_POINT('',(1.646201281701,13.668792756142));
#379 = CARTESIAN_POINT('',(1.72157243805,13.6731987882));
#380 = CARTESIAN_POINT('',(1.797281517863,13.682003357473));
#381 = CARTESIAN_POINT('',(1.873684999481,13.695083230382));
#382 = CARTESIAN_POINT('',(1.951138997552,13.712188008596));
#383 = CARTESIAN_POINT('',(2.030020871738,13.732891240347));
#384 = CARTESIAN_POINT('',(2.198983996066,13.782307400368));
#385 = CARTESIAN_POINT('',(2.289857228996,13.811711367036));
#386 = CARTESIAN_POINT('',(2.383721104507,13.843805853481));
#387 = CARTESIAN_POINT('',(2.480949921569,13.877194679443));
#388 = CARTESIAN_POINT('',(2.581992542747,13.909909649547));
#389 = CARTESIAN_POINT('',(2.687398946585,13.939311797455));
#390 = CARTESIAN_POINT('',(2.892509522541,13.982319640284));
#391 = CARTESIAN_POINT('',(2.990833705672,13.997600847088));
#392 = CARTESIAN_POINT('',(3.091130797927,14.006046965108));
#393 = CARTESIAN_POINT('',(3.192054509253,14.006046965108));
#394 = CARTESIAN_POINT('',(3.292351601507,13.997600847088));
#395 = CARTESIAN_POINT('',(3.390675784638,13.982319640284));
#396 = CARTESIAN_POINT('',(3.595786360595,13.939311797455));
#397 = CARTESIAN_POINT('',(3.701192764432,13.909909649547));
#398 = CARTESIAN_POINT('',(3.80223538561,13.877194679443));
#399 = CARTESIAN_POINT('',(3.899464202673,13.84380585348));
#400 = CARTESIAN_POINT('',(3.993328078183,13.811711367036));
#401 = CARTESIAN_POINT('',(4.084201311113,13.782307400368));
#402 = CARTESIAN_POINT('',(4.253164435442,13.732891240347));
#403 = CARTESIAN_POINT('',(4.332046309628,13.712188008596));
#404 = CARTESIAN_POINT('',(4.409500307699,13.695083230382));
#405 = CARTESIAN_POINT('',(4.485903789316,13.682003357473));
#406 = CARTESIAN_POINT('',(4.56161286913,13.6731987882));
#407 = CARTESIAN_POINT('',(4.636984025479,13.668792756142));
#408 = CARTESIAN_POINT('',(4.767808228234,13.668792756142));
#409 = CARTESIAN_POINT('',(4.823220535829,13.671172691363));
#410 = CARTESIAN_POINT('',(4.878766679577,13.675931408377));
#411 = CARTESIAN_POINT('',(4.934585206021,13.683032100734));
#412 = CARTESIAN_POINT('',(4.990814653953,13.692400697334));
#413 = CARTESIAN_POINT('',(5.047597819198,13.70391835044));
#414 = CARTESIAN_POINT('',(5.152267910901,13.728478436295));
#415 = CARTESIAN_POINT('',(5.199923734577,13.740876983872));
#416 = CARTESIAN_POINT('',(5.248149829769,13.754507793456));
#417 = CARTESIAN_POINT('',(5.297040492037,13.769249634337));
#418 = CARTESIAN_POINT('',(5.346692727188,13.784948079775));
#419 = CARTESIAN_POINT('',(5.397208962602,13.801407669051));
#420 = CARTESIAN_POINT('',(5.483978060683,13.830015246954));
#421 = CARTESIAN_POINT('',(5.519722399864,13.841891779802));
#422 = CARTESIAN_POINT('',(5.555958928481,13.853932162617));
#423 = CARTESIAN_POINT('',(5.592715113204,13.866043206559));
#424 = CARTESIAN_POINT('',(5.630020332418,13.878119933745));
#425 = CARTESIAN_POINT('',(5.667906473641,13.890045471579));
#426 = CARTESIAN_POINT('',(5.736812562948,13.910887063769));
#427 = CARTESIAN_POINT('',(5.767607753947,13.919910695905));
#428 = CARTESIAN_POINT('',(5.7987878806,13.928691189768));
#429 = CARTESIAN_POINT('',(5.830348660747,13.937154712926));
#430 = CARTESIAN_POINT('',(5.862287779413,13.945225676652));
#431 = CARTESIAN_POINT('',(5.894604914818,13.952828158319));
#432 = CARTESIAN_POINT('',(5.976225807337,13.970449898441));
#433 = CARTESIAN_POINT('',(6.026091845579,13.979815866703));
#434 = CARTESIAN_POINT('',(6.07669828978,13.987680738828));
#435 = CARTESIAN_POINT('',(6.127868494248,13.993780696922));
#436 = CARTESIAN_POINT('',(6.179442019123,13.99792236994));
#437 = CARTESIAN_POINT('',(6.231265811741,14.));
#438 = CARTESIAN_POINT('',(6.28318530718,14.));
#439 = ( GEOMETRIC_REPRESENTATION_CONTEXT(2) 
PARAMETRIC_REPRESENTATION_CONTEXT() REPRESENTATION_CONTEXT('2D SPACE',''
  ) );
#440 = ADVANCED_FACE('',(#441),#81,.T.);
#441 = FACE_BOUND('',#442,.F.);
#442 = EDGE_LOOP('',(#443,#465,#466,#467));
#443 = ORIENTED_EDGE('',*,*,#444,.F.);
#444 = EDGE_CURVE('',#60,#445,#447,.T.);
#445 = VERTEX_POINT('',#446);
#446 = CARTESIAN_POINT('',(-600.,0.,-40.));
#447 = SEAM_CURVE('',#448,(#453,#459),.PCURVE_S1.);
#448 = CIRCLE('',#449,22.);
#449 = AXIS2_PLACEMENT_3D('',#450,#451,#452);
#450 = CARTESIAN_POINT('',(-578.,0.,-40.));
#451 = DIRECTION('',(0.,1.,0.));
#452 = DIRECTION('',(1.110223024625E-16,0.,-1.));
#453 = PCURVE('',#81,#454);
#454 = DEFINITIONAL_REPRESENTATION('',(#455),#458);
#455 = B_SPLINE_CURVE_WITH_KNOTS('',1,(#456,#457),.UNSPECIFIED.,.F.,.F.,
  (2,2),(0.,1.570796326795),.PIECEWISE_BEZIER_KNOTS.);
#456 = CARTESIAN_POINT('',(0.,0.));
#457 = CARTESIAN_POINT('',(0.,1.570796326795));
#458 = ( GEOMETRIC_REPRESENTATION_CONTEXT(2) 
PARAMETRIC_REPRESENTATION_CONTEXT() REPRESENTATION_CONTEXT('2D SPACE',''
  ) );
#459 = PCURVE('',#81,#460);
#460 = DEFINITIONAL_REPRESENTATION('',(#461),#464);
#461 = B_SPLINE_CURVE_WITH_KNOTS('',1,(#462,#463),.UNSPECIFIED.,.F.,.F.,
  (2,2),(0.,1.570796326795),.PIECEWISE_BEZIER_KNOTS.);
#462 = CARTESIAN_POINT('',(-6.28318530718,0.));
#463 = CARTESIAN_POINT('',(-6.28318530718,1.570796326795));
#464 = ( GEOMETRIC_REPRESENTATION_CONTEXT(2) 
PARAMETRIC_REPRESENTATION_CONTEXT() REPRESENTATION_CONTEXT('2D SPACE',''
  ) );
#465 = ORIENTED_EDGE('',*,*,#59,.F.);
#466 = ORIENTED_EDGE('',*,*,#444,.T.);
#467 = ORIENTED_EDGE('',*,*,#468,.T.);
#468 = EDGE_CURVE('',#445,#445,#469,.T.);
#469 = SURFACE_CURVE('',#470,(#475,#482),.PCURVE_S1.);
#470 = CIRCLE('',#471,40.);
#471 = AXIS2_PLACEMENT_3D('',#472,#473,#474);
#472 = CARTESIAN_POINT('',(-600.,0.,0.));
#473 = DIRECTION('',(1.,0.,1.110223024625E-16));
#474 = DIRECTION('',(1.110223024625E-16,0.,-1.));
#475 = PCURVE('',#81,#476);
#476 = DEFINITIONAL_REPRESENTATION('',(#477),#481);
#477 = LINE('',#478,#479);
#478 = CARTESIAN_POINT('',(0.,1.570796326795));
#479 = VECTOR('',#480,1.);
#480 = DIRECTION('',(-1.,0.));
#481 = ( GEOMETRIC_REPRESENTATION_CONTEXT(2) 
PARAMETRIC_REPRESENTATION_CONTEXT() REPRESENTATION_CONTEXT('2D SPACE',''
  ) );
#482 = PCURVE('',#483,#488);
#483 = PLANE('',#484);
#484 = AXIS2_PLACEMENT_3D('',#485,#486,#487);
#485 = CARTESIAN_POINT('',(-600.,0.,0.));
#486 = DIRECTION('',(1.,0.,1.110223024625E-16));
#487 = DIRECTION('',(1.110223024625E-16,0.,-1.));
#488 = DEFINITIONAL_REPRESENTATION('',(#489),#493);
#489 = CIRCLE('',#490,40.);
#490 = AXIS2_PLACEMENT_2D('',#491,#492);
#491 = CARTESIAN_POINT('',(0.,0.));
#492 = DIRECTION('',(1.,0.));
#493 = ( GEOMETRIC_REPRESENTATION_CONTEXT(2) 
PARAMETRIC_REPRESENTATION_CONTEXT() REPRESENTATION_CONTEXT('2D SPACE',''
  ) );
#494 = ADVANCED_FACE('',(#495),#131,.T.);
#495 = FACE_BOUND('',#496,.T.);
#496 = EDGE_LOOP('',(#497));
#497 = ORIENTED_EDGE('',*,*,#116,.T.);
#498 = ADVANCED_FACE('',(#499),#340,.F.);
#499 = FACE_BOUND('',#500,.F.);
#500 = EDGE_LOOP('',(#501,#502,#525,#552));
#501 = ORIENTED_EDGE('',*,*,#146,.F.);
#502 = ORIENTED_EDGE('',*,*,#503,.F.);
#503 = EDGE_CURVE('',#504,#147,#506,.T.);
#504 = VERTEX_POINT('',#505);
#505 = CARTESIAN_POINT('',(-463.6,48.,1.567547902909E-15));
#506 = SEAM_CURVE('',#507,(#511,#518),.PCURVE_S1.);
#507 = LINE('',#508,#509);
#508 = CARTESIAN_POINT('',(-463.6,48.,1.567547902909E-15));
#509 = VECTOR('',#510,1.);
#510 = DIRECTION('',(0.,1.,1.110223024625E-16));
#511 = PCURVE('',#340,#512);
#512 = DEFINITIONAL_REPRESENTATION('',(#513),#517);
#513 = LINE('',#514,#515);
#514 = CARTESIAN_POINT('',(6.28318530718,0.));
#515 = VECTOR('',#516,1.);
#516 = DIRECTION('',(0.,1.));
#517 = ( GEOMETRIC_REPRESENTATION_CONTEXT(2) 
PARAMETRIC_REPRESENTATION_CONTEXT() REPRESENTATION_CONTEXT('2D SPACE',''
  ) );
#518 = PCURVE('',#340,#519);
#519 = DEFINITIONAL_REPRESENTATION('',(#520),#524);
#520 = LINE('',#521,#522);
#521 = CARTESIAN_POINT('',(0.,0.));
#522 = VECTOR('',#523,1.);
#523 = DIRECTION('',(0.,1.));
#524 = ( GEOMETRIC_REPRESENTATION_CONTEXT(2) 
PARAMETRIC_REPRESENTATION_CONTEXT() REPRESENTATION_CONTEXT('2D SPACE',''
  ) );
#525 = ORIENTED_EDGE('',*,*,#526,.T.);
#526 = EDGE_CURVE('',#504,#504,#527,.T.);
#527 = SURFACE_CURVE('',#528,(#533,#540),.PCURVE_S1.);
#528 = CIRCLE('',#529,6.4);
#529 = AXIS2_PLACEMENT_3D('',#530,#531,#532);
#530 = CARTESIAN_POINT('',(-470.,48.,0.));
#531 = DIRECTION('',(0.,1.,1.110223024625E-16));
#532 = DIRECTION('',(1.,0.,0.));
#533 = PCURVE('',#340,#534);
#534 = DEFINITIONAL_REPRESENTATION('',(#535),#539);
#535 = LINE('',#536,#537);
#536 = CARTESIAN_POINT('',(0.,0.));
#537 = VECTOR('',#538,1.);
#538 = DIRECTION('',(1.,0.));
#539 = ( GEOMETRIC_REPRESENTATION_CONTEXT(2) 
PARAMETRIC_REPRESENTATION_CONTEXT() REPRESENTATION_CONTEXT('2D SPACE',''
  ) );
#540 = PCURVE('',#541,#546);
#541 = PLANE('',#542);
#542 = AXIS2_PLACEMENT_3D('',#543,#544,#545);
#543 = CARTESIAN_POINT('',(-470.,48.,0.));
#544 = DIRECTION('',(0.,1.,1.110223024625E-16));
#545 = DIRECTION('',(1.,0.,0.));
#546 = DEFINITIONAL_REPRESENTATION('',(#547),#551);
#547 = CIRCLE('',#548,6.4);
#548 = AXIS2_PLACEMENT_2D('',#549,#550);
#549 = CARTESIAN_POINT('',(0.,0.));
#550 = DIRECTION('',(1.,0.));
#551 = ( GEOMETRIC_REPRESENTATION_CONTEXT(2) 
PARAMETRIC_REPRESENTATION_CONTEXT() REPRESENTATION_CONTEXT('2D SPACE',''
  ) );
#552 = ORIENTED_EDGE('',*,*,#503,.T.);
#553 = ADVANCED_FACE('',(#554),#483,.F.);
#554 = FACE_BOUND('',#555,.F.);
#555 = EDGE_LOOP('',(#556));
#556 = ORIENTED_EDGE('',*,*,#468,.T.);
#557 = ADVANCED_FACE('',(#558),#541,.T.);
#558 = FACE_BOUND('',#559,.F.);
#559 = EDGE_LOOP('',(#560));
#560 = ORIENTED_EDGE('',*,*,#526,.F.);
#561 = ( GEOMETRIC_REPRESENTATION_CONTEXT(3) 
GLOBAL_UNCERTAINTY_ASSIGNED_CONTEXT((#565)) GLOBAL_UNIT_ASSIGNED_CONTEXT
((#562,#563,#564)) REPRESENTATION_CONTEXT('Context #1',
  '3D Context with UNIT and UNCERTAINTY') );
#562 = ( LENGTH_UNIT() NAMED_UNIT(*) SI_UNIT(.MILLI.,.METRE.) );
#563 = ( NAMED_UNIT(*) PLANE_ANGLE_UNIT() SI_UNIT($,.RADIAN.) );
#564 = ( NAMED_UNIT(*) SI_UNIT($,.STERADIAN.) SOLID_ANGLE_UNIT() );
#565 = UNCERTAINTY_MEASURE_WITH_UNIT(LENGTH_MEASURE(1.E-07),#562,
  'distance_accuracy_value','confusion accuracy');
#566 = CONTEXT_DEPENDENT_SHAPE_REPRESENTATION(#567,#569);
#567 = ( REPRESENTATION_RELATIONSHIP('','',#52,#10) 
REPRESENTATION_RELATIONSHIP_WITH_TRANSFORMATION(#568) 
SHAPE_REPRESENTATION_RELATIONSHIP() );
#568 = ITEM_DEFINED_TRANSFORMATION('','',#11,#15);
#569 = PRODUCT_DEFINITION_SHAPE('Placement','Placement of an item',#570
  );
#570 = NEXT_ASSEMBLY_USAGE_OCCURRENCE('1','turning_cap','',#5,#47,$);
#571 = PRODUCT_RELATED_PRODUCT_CATEGORY('part',$,(#49));
#572 = SHAPE_DEFINITION_REPRESENTATION(#573,#579);
#573 = PRODUCT_DEFINITION_SHAPE('','',#574);
#574 = PRODUCT_DEFINITION('design','',#575,#578);
#575 = PRODUCT_DEFINITION_FORMATION('','',#576);
#576 = PRODUCT('thruster_0','thruster_0','',(#577));
#577 = PRODUCT_CONTEXT('',#2,'mechanical');
#578 = PRODUCT_DEFINITION_CONTEXT('part definition',#2,'design');
#579 = ADVANCED_BREP_SHAPE_REPRESENTATION('',(#11,#580),#1032);
#580 = MANIFOLD_SOLID_BREP('',#581);
#581 = CLOSED_SHELL('',(#582,#670,#705,#740,#795,#850,#885,#920,#975,
    #1025));
#582 = ADVANCED_FACE('',(#583),#596,.T.);
#583 = FACE_BOUND('',#584,.T.);
#584 = EDGE_LOOP('',(#585,#619,#642,#669));
#585 = ORIENTED_EDGE('',*,*,#586,.F.);
#586 = EDGE_CURVE('',#587,#587,#589,.T.);
#587 = VERTEX_POINT('',#588);
#588 = CARTESIAN_POINT('',(12.,-2.939152317954E-15,4.));
#589 = SURFACE_CURVE('',#590,(#595,#607),.PCURVE_S1.);
#590 = CIRCLE('',#591,12.);
#591 = AXIS2_PLACEMENT_3D('',#592,#593,#594);
#592 = CARTESIAN_POINT('',(0.,0.,4.));
#593 = DIRECTION('',(0.,0.,1.));
#594 = DIRECTION('',(1.,0.,0.));
#595 = PCURVE('',#596,#601);
#596 = CYLINDRICAL_SURFACE('',#597,12.);
#597 = AXIS2_PLACEMENT_3D('',#598,#599,#600);
#598 = CARTESIAN_POINT('',(0.,0.,0.));
#599 = DIRECTION('',(0.,0.,1.));
#600 = DIRECTION('',(1.,0.,0.));
#601 = DEFINITIONAL_REPRESENTATION('',(#602),#606);
#602 = LINE('',#603,#604);
#603 = CARTESIAN_POINT('',(0.,4.));
#604 = VECTOR('',#605,1.);
#605 = DIRECTION('',(1.,0.));
#606 = ( GEOMETRIC_REPRESENTATION_CONTEXT(2) 
PARAMETRIC_REPRESENTATION_CONTEXT() REPRESENTATION_CONTEXT('2D SPACE',''
  ) );
#607 = PCURVE('',#608,#613);
#608 = PLANE('',#609);
#609 = AXIS2_PLACEMENT_3D('',#610,#611,#612);
#610 = CARTESIAN_POINT('',(0.,0.,4.));
#611 = DIRECTION('',(0.,0.,1.));
#612 = DIRECTION('',(1.,0.,0.));
#613 = DEFINITIONAL_REPRESENTATION('',(#614),#618);
#614 = CIRCLE('',#615,12.);
#615 = AXIS2_PLACEMENT_2D('',#616,#617);
#616 = CARTESIAN_POINT('',(0.,0.));
#617 = DIRECTION('',(1.,0.));
#618 = ( GEOMETRIC_REPRESENTATION_CONTEXT(2) 
PARAMETRIC_REPRESENTATION_CONTEXT() REPRESENTATION_CONTEXT('2D SPACE',''
  ) );
#619 = ORIENTED_EDGE('',*,*,#620,.T.);
#620 = EDGE_CURVE('',#587,#621,#623,.T.);
#621 = VERTEX_POINT('',#622);
#622 = CARTESIAN_POINT('',(12.,-2.939152317954E-15,0.));
#623 = SEAM_CURVE('',#624,(#628,#635),.PCURVE_S1.);
#624 = LINE('',#625,#626);
#625 = CARTESIAN_POINT('',(12.,-2.939152317954E-15,4.));
#626 = VECTOR('',#627,1.);
#627 = DIRECTION('',(0.,0.,-1.));
#628 = PCURVE('',#596,#629);
#629 = DEFINITIONAL_REPRESENTATION('',(#630),#634);
#630 = LINE('',#631,#632);
#631 = CARTESIAN_POINT('',(0.,4.));
#632 = VECTOR('',#633,1.);
#633 = DIRECTION('',(0.,-1.));
#634 = ( GEOMETRIC_REPRESENTATION_CONTEXT(2) 
PARAMETRIC_REPRESENTATION_CONTEXT() REPRESENTATION_CONTEXT('2D SPACE',''
  ) );
#635 = PCURVE('',#596,#636);
#636 = DEFINITIONAL_REPRESENTATION('',(#637),#641);
#637 = LINE('',#638,#639);
#638 = CARTESIAN_POINT('',(6.28318530718,4.));
#639 = VECTOR('',#640,1.);
#640 = DIRECTION('',(0.,-1.));
#641 = ( GEOMETRIC_REPRESENTATION_CONTEXT(2) 
PARAMETRIC_REPRESENTATION_CONTEXT() REPRESENTATION_CONTEXT('2D SPACE',''
  ) );
#642 = ORIENTED_EDGE('',*,*,#643,.T.);
#643 = EDGE_CURVE('',#621,#621,#644,.T.);
#644 = SURFACE_CURVE('',#645,(#650,#657),.PCURVE_S1.);
#645 = CIRCLE('',#646,12.);
#646 = AXIS2_PLACEMENT_3D('',#647,#648,#649);
#647 = CARTESIAN_POINT('',(0.,0.,0.));
#648 = DIRECTION('',(0.,0.,1.));
#649 = DIRECTION('',(1.,0.,0.));
#650 = PCURVE('',#596,#651);
#651 = DEFINITIONAL_REPRESENTATION('',(#652),#656);
#652 = LINE('',#653,#654);
#653 = CARTESIAN_POINT('',(0.,0.));
#654 = VECTOR('',#655,1.);
#655 = DIRECTION('',(1.,0.));
#656 = ( GEOMETRIC_REPRESENTATION_CONTEXT(2) 
PARAMETRIC_REPRESENTATION_CONTEXT() REPRESENTATION_CONTEXT('2D SPACE',''
  ) );
#657 = PCURVE('',#658,#663);
#658 = PLANE('',#659);
#659 = AXIS2_PLACEMENT_3D('',#660,#661,#662);
#660 = CARTESIAN_POINT('',(0.,0.,0.));
#661 = DIRECTION('',(0.,0.,1.));
#662 = DIRECTION('',(1.,0.,0.));
#663 = DEFINITIONAL_REPRESENTATION('',(#664),#668);
#664 = CIRCLE('',#665,12.);
#665 = AXIS2_PLACEMENT_2D('',#666,#667);
#666 = CARTESIAN_POINT('',(0.,0.));
#667 = DIRECTION('',(1.,0.));
#668 = ( GEOMETRIC_REPRESENTATION_CONTEXT(2) 
PARAMETRIC_REPRESENTATION_CONTEXT() REPRESENTATION_CONTEXT('2D SPACE',''
  ) );
#669 = ORIENTED_EDGE('',*,*,#620,.F.);
#670 = ADVANCED_FACE('',(#671,#674),#608,.T.);
#671 = FACE_BOUND('',#672,.T.);
#672 = EDGE_LOOP('',(#673));
#673 = ORIENTED_EDGE('',*,*,#586,.T.);
#674 = FACE_BOUND('',#675,.T.);
#675 = EDGE_LOOP('',(#676));
#676 = ORIENTED_EDGE('',*,*,#677,.F.);
#677 = EDGE_CURVE('',#678,#678,#680,.T.);
#678 = VERTEX_POINT('',#679);
#679 = CARTESIAN_POINT('',(11.444444444444,-2.803080451382E-15,4.));
#680 = SURFACE_CURVE('',#681,(#686,#693),.PCURVE_S1.);
#681 = CIRCLE('',#682,11.444444444444);
#682 = AXIS2_PLACEMENT_3D('',#683,#684,#685);
#683 = CARTESIAN_POINT('',(0.,0.,4.));
#684 = DIRECTION('',(0.,0.,1.));
#685 = DIRECTION('',(1.,0.,0.));
#686 = PCURVE('',#608,#687);
#687 = DEFINITIONAL_REPRESENTATION('',(#688),#692);
#688 = CIRCLE('',#689,11.444444444444);
#689 = AXIS2_PLACEMENT_2D('',#690,#691);
#690 = CARTESIAN_POINT('',(0.,0.));
#691 = DIRECTION('',(1.,0.));
#692 = ( GEOMETRIC_REPRESENTATION_CONTEXT(2) 
PARAMETRIC_REPRESENTATION_CONTEXT() REPRESENTATION_CONTEXT('2D SPACE',''
  ) );
#693 = PCURVE('',#694,#699);
#694 = CONICAL_SURFACE('',#695,12.,0.507098504392);
#695 = AXIS2_PLACEMENT_3D('',#696,#697,#698);
#696 = CARTESIAN_POINT('',(0.,0.,3.));
#697 = DIRECTION('',(0.,0.,-1.));
#698 = DIRECTION('',(1.,0.,0.));
#699 = DEFINITIONAL_REPRESENTATION('',(#700),#704);
#700 = LINE('',#701,#702);
#701 = CARTESIAN_POINT('',(0.,-1.));
#702 = VECTOR('',#703,1.);
#703 = DIRECTION('',(-1.,0.));
#704 = ( GEOMETRIC_REPRESENTATION_CONTEXT(2) 
PARAMETRIC_REPRESENTATION_CONTEXT() REPRESENTATION_CONTEXT('2D SPACE',''
  ) );
#705 = ADVANCED_FACE('',(#706,#709),#658,.F.);
#706 = FACE_BOUND('',#707,.F.);
#707 = EDGE_LOOP('',(#708));
#708 = ORIENTED_EDGE('',*,*,#643,.T.);
#709 = FACE_BOUND('',#710,.F.);
#710 = EDGE_LOOP('',(#711));
#711 = ORIENTED_EDGE('',*,*,#712,.F.);
#712 = EDGE_CURVE('',#713,#713,#715,.T.);
#713 = VERTEX_POINT('',#714);
#714 = CARTESIAN_POINT('',(5.546666666667,-1.358541515854E-15,0.));
#715 = SURFACE_CURVE('',#716,(#721,#728),.PCURVE_S1.);
#716 = CIRCLE('',#717,5.546666666667);
#717 = AXIS2_PLACEMENT_3D('',#718,#719,#720);
#718 = CARTESIAN_POINT('',(0.,0.,0.));
#719 = DIRECTION('',(0.,0.,1.));
#720 = DIRECTION('',(1.,0.,0.));
#721 = PCURVE('',#658,#722);
#722 = DEFINITIONAL_REPRESENTATION('',(#723),#727);
#723 = CIRCLE('',#724,5.546666666667);
#724 = AXIS2_PLACEMENT_2D('',#725,#726);
#725 = CARTESIAN_POINT('',(0.,0.));
#726 = DIRECTION('',(1.,0.));
#727 = ( GEOMETRIC_REPRESENTATION_CONTEXT(2) 
PARAMETRIC_REPRESENTATION_CONTEXT() REPRESENTATION_CONTEXT('2D SPACE',''
  ) );
#728 = PCURVE('',#729,#734);
#729 = CONICAL_SURFACE('',#730,5.5,0.229231933277);
#730 = AXIS2_PLACEMENT_3D('',#731,#732,#733);
#731 = CARTESIAN_POINT('',(0.,0.,-0.2));
#732 = DIRECTION('',(0.,0.,1.));
#733 = DIRECTION('',(1.,0.,0.));
#734 = DEFINITIONAL_REPRESENTATION('',(#735),#739);
#735 = LINE('',#736,#737);
#736 = CARTESIAN_POINT('',(0.,0.2));
#737 = VECTOR('',#738,1.);
#738 = DIRECTION('',(1.,0.));
#739 = ( GEOMETRIC_REPRESENTATION_CONTEXT(2) 
PARAMETRIC_REPRESENTATION_CONTEXT() REPRESENTATION_CONTEXT('2D SPACE',''
  ) );
#740 = ADVANCED_FACE('',(#741),#694,.T.);
#741 = FACE_BOUND('',#742,.T.);
#742 = EDGE_LOOP('',(#743,#772,#793,#794));
#743 = ORIENTED_EDGE('',*,*,#744,.F.);
#744 = EDGE_CURVE('',#745,#745,#747,.T.);
#745 = VERTEX_POINT('',#746);
#746 = CARTESIAN_POINT('',(9.833333333333,-2.408472038323E-15,6.9));
#747 = SURFACE_CURVE('',#748,(#753,#760),.PCURVE_S1.);
#748 = CIRCLE('',#749,9.833333333333);
#749 = AXIS2_PLACEMENT_3D('',#750,#751,#752);
#750 = CARTESIAN_POINT('',(0.,0.,6.9));
#751 = DIRECTION('',(0.,0.,1.));
#752 = DIRECTION('',(1.,0.,0.));
#753 = PCURVE('',#694,#754);
#754 = DEFINITIONAL_REPRESENTATION('',(#755),#759);
#755 = LINE('',#756,#757);
#756 = CARTESIAN_POINT('',(0.,-3.9));
#757 = VECTOR('',#758,1.);
#758 = DIRECTION('',(-1.,0.));
#759 = ( GEOMETRIC_REPRESENTATION_CONTEXT(2) 
PARAMETRIC_REPRESENTATION_CONTEXT() REPRESENTATION_CONTEXT('2D SPACE',''
  ) );
#760 = PCURVE('',#761,#766);
#761 = PLANE('',#762);
#762 = AXIS2_PLACEMENT_3D('',#763,#764,#765);
#763 = CARTESIAN_POINT('',(0.,0.,6.9));
#764 = DIRECTION('',(0.,0.,1.));
#765 = DIRECTION('',(1.,0.,0.));
#766 = DEFINITIONAL_REPRESENTATION('',(#767),#771);
#767 = CIRCLE('',#768,9.833333333333);
#768 = AXIS2_PLACEMENT_2D('',#769,#770);
#769 = CARTESIAN_POINT('',(0.,0.));
#770 = DIRECTION('',(1.,0.));
#771 = ( GEOMETRIC_REPRESENTATION_CONTEXT(2) 
PARAMETRIC_REPRESENTATION_CONTEXT() REPRESENTATION_CONTEXT('2D SPACE',''
  ) );
#772 = ORIENTED_EDGE('',*,*,#773,.F.);
#773 = EDGE_CURVE('',#678,#745,#774,.T.);
#774 = SEAM_CURVE('',#775,(#779,#786),.PCURVE_S1.);
#775 = LINE('',#776,#777);
#776 = CARTESIAN_POINT('',(12.,-2.939152317954E-15,3.));
#777 = VECTOR('',#778,1.);
#778 = DIRECTION('',(-0.485642931179,1.189482122393E-16,0.874157276122)
  );
#779 = PCURVE('',#694,#780);
#780 = DEFINITIONAL_REPRESENTATION('',(#781),#785);
#781 = LINE('',#782,#783);
#782 = CARTESIAN_POINT('',(-6.28318530718,0.));
#783 = VECTOR('',#784,1.);
#784 = DIRECTION('',(0.,-1.));
#785 = ( GEOMETRIC_REPRESENTATION_CONTEXT(2) 
PARAMETRIC_REPRESENTATION_CONTEXT() REPRESENTATION_CONTEXT('2D SPACE',''
  ) );
#786 = PCURVE('',#694,#787);
#787 = DEFINITIONAL_REPRESENTATION('',(#788),#792);
#788 = LINE('',#789,#790);
#789 = CARTESIAN_POINT('',(0.,0.));
#790 = VECTOR('',#791,1.);
#791 = DIRECTION('',(0.,-1.));
#792 = ( GEOMETRIC_REPRESENTATION_CONTEXT(2) 
PARAMETRIC_REPRESENTATION_CONTEXT() REPRESENTATION_CONTEXT('2D SPACE',''
  ) );
#793 = ORIENTED_EDGE('',*,*,#677,.T.);
#794 = ORIENTED_EDGE('',*,*,#773,.T.);
#795 = ADVANCED_FACE('',(#796),#729,.F.);
#796 = FACE_BOUND('',#797,.F.);
#797 = EDGE_LOOP('',(#798,#827,#848,#849));
#798 = ORIENTED_EDGE('',*,*,#799,.F.);
#799 = EDGE_CURVE('',#800,#800,#802,.T.);
#800 = VERTEX_POINT('',#801);
#801 = CARTESIAN_POINT('',(7.086666666667,-1.735732729992E-15,6.6));
#802 = SURFACE_CURVE('',#803,(#808,#815),.PCURVE_S1.);
#803 = CIRCLE('',#804,7.086666666667);
#804 = AXIS2_PLACEMENT_3D('',#805,#806,#807);
#805 = CARTESIAN_POINT('',(0.,0.,6.6));
#806 = DIRECTION('',(0.,0.,1.));
#807 = DIRECTION('',(1.,0.,0.));
#808 = PCURVE('',#729,#809);
#809 = DEFINITIONAL_REPRESENTATION('',(#810),#814);
#810 = LINE('',#811,#812);
#811 = CARTESIAN_POINT('',(0.,6.8));
#812 = VECTOR('',#813,1.);
#813 = DIRECTION('',(1.,0.));
#814 = ( GEOMETRIC_REPRESENTATION_CONTEXT(2) 
PARAMETRIC_REPRESENTATION_CONTEXT() REPRESENTATION_CONTEXT('2D SPACE',''
  ) );
#815 = PCURVE('',#816,#821);
#816 = PLANE('',#817);
#817 = AXIS2_PLACEMENT_3D('',#818,#819,#820);
#818 = CARTESIAN_POINT('',(0.,0.,6.6));
#819 = DIRECTION('',(0.,0.,1.));
#820 = DIRECTION('',(1.,0.,0.));
#821 = DEFINITIONAL_REPRESENTATION('',(#822),#826);
#822 = CIRCLE('',#823,7.086666666667);
#823 = AXIS2_PLACEMENT_2D('',#824,#825);
#824 = CARTESIAN_POINT('',(0.,0.));
#825 = DIRECTION('',(1.,0.));
#826 = ( GEOMETRIC_REPRESENTATION_CONTEXT(2) 
PARAMETRIC_REPRESENTATION_CONTEXT() REPRESENTATION_CONTEXT('2D SPACE',''
  ) );
#827 = ORIENTED_EDGE('',*,*,#828,.F.);
#828 = EDGE_CURVE('',#713,#800,#829,.T.);
#829 = SEAM_CURVE('',#830,(#834,#841),.PCURVE_S1.);
#830 = LINE('',#831,#832);
#831 = CARTESIAN_POINT('',(5.5,-1.347111479062E-15,-0.2));
#832 = VECTOR('',#833,1.);
#833 = DIRECTION('',(0.227229615606,-5.565520428478E-17,0.973841209742)
  );
#834 = PCURVE('',#729,#835);
#835 = DEFINITIONAL_REPRESENTATION('',(#836),#840);
#836 = LINE('',#837,#838);
#837 = CARTESIAN_POINT('',(6.28318530718,0.));
#838 = VECTOR('',#839,1.);
#839 = DIRECTION('',(0.,1.));
#840 = ( GEOMETRIC_REPRESENTATION_CONTEXT(2) 
PARAMETRIC_REPRESENTATION_CONTEXT() REPRESENTATION_CONTEXT('2D SPACE',''
  ) );
#841 = PCURVE('',#729,#842);
#842 = DEFINITIONAL_REPRESENTATION('',(#843),#847);
#843 = LINE('',#844,#845);
#844 = CARTESIAN_POINT('',(0.,0.));
#845 = VECTOR('',#846,1.);
#846 = DIRECTION('',(0.,1.));
#847 = ( GEOMETRIC_REPRESENTATION_CONTEXT(2) 
PARAMETRIC_REPRESENTATION_CONTEXT() REPRESENTATION_CONTEXT('2D SPACE',''
  ) );
#848 = ORIENTED_EDGE('',*,*,#712,.T.);
#849 = ORIENTED_EDGE('',*,*,#828,.T.);
#850 = ADVANCED_FACE('',(#851,#882),#761,.F.);
#851 = FACE_BOUND('',#852,.F.);
#852 = EDGE_LOOP('',(#853));
#853 = ORIENTED_EDGE('',*,*,#854,.T.);
#854 = EDGE_CURVE('',#855,#855,#857,.T.);
#855 = VERTEX_POINT('',#856);
#856 = CARTESIAN_POINT('',(10.2,-2.498279470261E-15,6.9));
#857 = SURFACE_CURVE('',#858,(#863,#870),.PCURVE_S1.);
#858 = CIRCLE('',#859,10.2);
#859 = AXIS2_PLACEMENT_3D('',#860,#861,#862);
#860 = CARTESIAN_POINT('',(0.,0.,6.9));
#861 = DIRECTION('',(0.,0.,1.));
#862 = DIRECTION('',(1.,0.,0.));
#863 = PCURVE('',#761,#864);
#864 = DEFINITIONAL_REPRESENTATION('',(#865),#869);
#865 = CIRCLE('',#866,10.2);
#866 = AXIS2_PLACEMENT_2D('',#867,#868);
#867 = CARTESIAN_POINT('',(0.,0.));
#868 = DIRECTION('',(1.,0.));
#869 = ( GEOMETRIC_REPRESENTATION_CONTEXT(2) 
PARAMETRIC_REPRESENTATION_CONTEXT() REPRESENTATION_CONTEXT('2D SPACE',''
  ) );
#870 = PCURVE('',#871,#876);
#871 = CYLINDRICAL_SURFACE('',#872,10.2);
#872 = AXIS2_PLACEMENT_3D('',#873,#874,#875);
#873 = CARTESIAN_POINT('',(0.,0.,6.9));
#874 = DIRECTION('',(0.,0.,1.));
#875 = DIRECTION('',(1.,0.,0.));
#876 = DEFINITIONAL_REPRESENTATION('',(#877),#881);
#877 = LINE('',#878,#879);
#878 = CARTESIAN_POINT('',(0.,0.));
#879 = VECTOR('',#880,1.);
#880 = DIRECTION('',(1.,0.));
#881 = ( GEOMETRIC_REPRESENTATION_CONTEXT(2) 
PARAMETRIC_REPRESENTATION_CONTEXT() REPRESENTATION_CONTEXT('2D SPACE',''
  ) );
#882 = FACE_BOUND('',#883,.F.);
#883 = EDGE_LOOP('',(#884));
#884 = ORIENTED_EDGE('',*,*,#744,.F.);
#885 = ADVANCED_FACE('',(#886,#917),#816,.T.);
#886 = FACE_BOUND('',#887,.T.);
#887 = EDGE_LOOP('',(#888));
#888 = ORIENTED_EDGE('',*,*,#889,.T.);
#889 = EDGE_CURVE('',#890,#890,#892,.T.);
#890 = VERTEX_POINT('',#891);
#891 = CARTESIAN_POINT('',(8.1,-1.983927814619E-15,6.6));
#892 = SURFACE_CURVE('',#893,(#898,#905),.PCURVE_S1.);
#893 = CIRCLE('',#894,8.1);
#894 = AXIS2_PLACEMENT_3D('',#895,#896,#897);
#895 = CARTESIAN_POINT('',(0.,0.,6.6));
#896 = DIRECTION('',(0.,0.,1.));
#897 = DIRECTION('',(1.,0.,0.));
#898 = PCURVE('',#816,#899);
#899 = DEFINITIONAL_REPRESENTATION('',(#900),#904);
#900 = CIRCLE('',#901,8.1);
#901 = AXIS2_PLACEMENT_2D('',#902,#903);
#902 = CARTESIAN_POINT('',(0.,0.));
#903 = DIRECTION('',(1.,0.));
#904 = ( GEOMETRIC_REPRESENTATION_CONTEXT(2) 
PARAMETRIC_REPRESENTATION_CONTEXT() REPRESENTATION_CONTEXT('2D SPACE',''
  ) );
#905 = PCURVE('',#906,#911);
#906 = CYLINDRICAL_SURFACE('',#907,8.1);
#907 = AXIS2_PLACEMENT_3D('',#908,#909,#910);
#908 = CARTESIAN_POINT('',(0.,0.,6.6));
#909 = DIRECTION('',(0.,0.,1.));
#910 = DIRECTION('',(1.,0.,0.));
#911 = DEFINITIONAL_REPRESENTATION('',(#912),#916);
#912 = LINE('',#913,#914);
#913 = CARTESIAN_POINT('',(0.,0.));
#914 = VECTOR('',#915,1.);
#915 = DIRECTION('',(1.,0.));
#916 = ( GEOMETRIC_REPRESENTATION_CONTEXT(2) 
PARAMETRIC_REPRESENTATION_CONTEXT() REPRESENTATION_CONTEXT('2D SPACE',''
  ) );
#917 = FACE_BOUND('',#918,.T.);
#918 = EDGE_LOOP('',(#919));
#919 = ORIENTED_EDGE('',*,*,#799,.F.);
#920 = ADVANCED_FACE('',(#921),#871,.T.);
#921 = FACE_BOUND('',#922,.T.);
#922 = EDGE_LOOP('',(#923,#952,#973,#974));
#923 = ORIENTED_EDGE('',*,*,#924,.F.);
#924 = EDGE_CURVE('',#925,#925,#927,.T.);
#925 = VERTEX_POINT('',#926);
#926 = CARTESIAN_POINT('',(10.2,-2.498279470261E-15,8.2));
#927 = SURFACE_CURVE('',#928,(#933,#940),.PCURVE_S1.);
#928 = CIRCLE('',#929,10.2);
#929 = AXIS2_PLACEMENT_3D('',#930,#931,#932);
#930 = CARTESIAN_POINT('',(0.,0.,8.2));
#931 = DIRECTION('',(0.,0.,1.));
#932 = DIRECTION('',(1.,0.,0.));
#933 = PCURVE('',#871,#934);
#934 = DEFINITIONAL_REPRESENTATION('',(#935),#939);
#935 = LINE('',#936,#937);
#936 = CARTESIAN_POINT('',(0.,1.3));
#937 = VECTOR('',#938,1.);
#938 = DIRECTION('',(1.,0.));
#939 = ( GEOMETRIC_REPRESENTATION_CONTEXT(2) 
PARAMETRIC_REPRESENTATION_CONTEXT() REPRESENTATION_CONTEXT('2D SPACE',''
  ) );
#940 = PCURVE('',#941,#946);
#941 = PLANE('',#942);
#942 = AXIS2_PLACEMENT_3D('',#943,#944,#945);
#943 = CARTESIAN_POINT('',(0.,0.,8.2));
#944 = DIRECTION('',(0.,0.,1.));
#945 = DIRECTION('',(1.,0.,0.));
#946 = DEFINITIONAL_REPRESENTATION('',(#947),#951);
#947 = CIRCLE('',#948,10.2);
#948 = AXIS2_PLACEMENT_2D('',#949,#950);
#949 = CARTESIAN_POINT('',(0.,0.));
#950 = DIRECTION('',(1.,0.));
#951 = ( GEOMETRIC_REPRESENTATION_CONTEXT(2) 
PARAMETRIC_REPRESENTATION_CONTEXT() REPRESENTATION_CONTEXT('2D SPACE',''
  ) );
#952 = ORIENTED_EDGE('',*,*,#953,.F.);
#953 = EDGE_CURVE('',#855,#925,#954,.T.);
#954 = SEAM_CURVE('',#955,(#959,#966),.PCURVE_S1.);
#955 = LINE('',#956,#957);
#956 = CARTESIAN_POINT('',(10.2,-2.498279470261E-15,6.9));
#957 = VECTOR('',#958,1.);
#958 = DIRECTION('',(0.,0.,1.));
#959 = PCURVE('',#871,#960);
#960 = DEFINITIONAL_REPRESENTATION('',(#961),#965);
#961 = LINE('',#962,#963);
#962 = CARTESIAN_POINT('',(6.28318530718,0.));
#963 = VECTOR('',#964,1.);
#964 = DIRECTION('',(0.,1.));
#965 = ( GEOMETRIC_REPRESENTATION_CONTEXT(2) 
PARAMETRIC_REPRESENTATION_CONTEXT() REPRESENTATION_CONTEXT('2D SPACE',''
  ) );
#966 = PCURVE('',#871,#967);
#967 = DEFINITIONAL_REPRESENTATION('',(#968),#972);
#968 = LINE('',#969,#970);
#969 = CARTESIAN_POINT('',(0.,0.));
#970 = VECTOR('',#971,1.);
#971 = DIRECTION('',(0.,1.));
#972 = ( GEOMETRIC_REPRESENTATION_CONTEXT(2) 
PARAMETRIC_REPRESENTATION_CONTEXT() REPRESENTATION_CONTEXT('2D SPACE',''
  ) );
#973 = ORIENTED_EDGE('',*,*,#854,.T.);
#974 = ORIENTED_EDGE('',*,*,#953,.T.);
#975 = ADVANCED_FACE('',(#976),#906,.F.);
#976 = FACE_BOUND('',#977,.F.);
#977 = EDGE_LOOP('',(#978,#1002,#1023,#1024));
#978 = ORIENTED_EDGE('',*,*,#979,.F.);
#979 = EDGE_CURVE('',#980,#980,#982,.T.);
#980 = VERTEX_POINT('',#981);
#981 = CARTESIAN_POINT('',(8.1,-1.983927814619E-15,8.2));
#982 = SURFACE_CURVE('',#983,(#988,#995),.PCURVE_S1.);
#983 = CIRCLE('',#984,8.1);
#984 = AXIS2_PLACEMENT_3D('',#985,#986,#987);
#985 = CARTESIAN_POINT('',(0.,0.,8.2));
#986 = DIRECTION('',(0.,0.,1.));
#987 = DIRECTION('',(1.,0.,0.));
#988 = PCURVE('',#906,#989);
#989 = DEFINITIONAL_REPRESENTATION('',(#990),#994);
#990 = LINE('',#991,#992);
#991 = CARTESIAN_POINT('',(0.,1.6));
#992 = VECTOR('',#993,1.);
#993 = DIRECTION('',(1.,0.));
#994 = ( GEOMETRIC_REPRESENTATION_CONTEXT(2) 
PARAMETRIC_REPRESENTATION_CONTEXT() REPRESENTATION_CONTEXT('2D SPACE',''
  ) );
#995 = PCURVE('',#941,#996);
#996 = DEFINITIONAL_REPRESENTATION('',(#997),#1001);
#997 = CIRCLE('',#998,8.1);
#998 = AXIS2_PLACEMENT_2D('',#999,#1000);
#999 = CARTESIAN_POINT('',(0.,0.));
#1000 = DIRECTION('',(1.,0.));
#1001 = ( GEOMETRIC_REPRESENTATION_CONTEXT(2) 
PARAMETRIC_REPRESENTATION_CONTEXT() REPRESENTATION_CONTEXT('2D SPACE',''
  ) );
#1002 = ORIENTED_EDGE('',*,*,#1003,.F.);
#1003 = EDGE_CURVE('',#890,#980,#1004,.T.);
#1004 = SEAM_CURVE('',#1005,(#1009,#1016),.PCURVE_S1.);
#1005 = LINE('',#1006,#1007);
#1006 = CARTESIAN_POINT('',(8.1,-1.983927814619E-15,6.6));
#1007 = VECTOR('',#1008,1.);
#1008 = DIRECTION('',(0.,0.,1.));
#1009 = PCURVE('',#906,#1010);
#1010 = DEFINITIONAL_REPRESENTATION('',(#1011),#1015);
#1011 = LINE('',#1012,#1013);
#1012 = CARTESIAN_POINT('',(6.28318530718,0.));
#1013 = VECTOR('',#1014,1.);
#1014 = DIRECTION('',(0.,1.));
#1015 = ( GEOMETRIC_REPRESENTATION_CONTEXT(2) 
PARAMETRIC_REPRESENTATION_CONTEXT() REPRESENTATION_CONTEXT('2D SPACE',''
  ) );
#1016 = PCURVE('',#906,#1017);
#1017 = DEFINITIONAL_REPRESENTATION('',(#1018),#1022);
#1018 = LINE('',#1019,#1020);
#1019 = CARTESIAN_POINT('',(0.,0.));
#1020 = VECTOR('',#1021,1.);
#1021 = DIRECTION('',(0.,1.));
#1022 = ( GEOMETRIC_REPRESENTATION_CONTEXT(2) 
PARAMETRIC_REPRESENTATION_CONTEXT() REPRESENTATION_CONTEXT('2D SPACE',''
  ) );
#1023 = ORIENTED_EDGE('',*,*,#889,.T.);
#1024 = ORIENTED_EDGE('',*,*,#1003,.T.);
#1025 = ADVANCED_FACE('',(#1026,#1029),#941,.T.);
#1026 = FACE_BOUND('',#1027,.T.);
#1027 = EDGE_LOOP('',(#1028));
#1028 = ORIENTED_EDGE('',*,*,#924,.T.);
#1029 = FACE_BOUND('',#1030,.T.);
#1030 = EDGE_LOOP('',(#1031));
#1031 = ORIENTED_EDGE('',*,*,#979,.F.);
#1032 = ( GEOMETRIC_REPRESENTATION_CONTEXT(3) 
GLOBAL_UNCERTAINTY_ASSIGNED_CONTEXT((#1036)) 
GLOBAL_UNIT_ASSIGNED_CONTEXT((#1033,#1034,#1035)) REPRESENTATION_CONTEXT
('Context #1','3D Context with UNIT and UNCERTAINTY') );
#1033 = ( LENGTH_UNIT() NAMED_UNIT(*) SI_UNIT(.MILLI.,.METRE.) );
#1034 = ( NAMED_UNIT(*) PLANE_ANGLE_UNIT() SI_UNIT($,.RADIAN.) );
#1035 = ( NAMED_UNIT(*) SI_UNIT($,.STERADIAN.) SOLID_ANGLE_UNIT() );
#1036 = UNCERTAINTY_MEASURE_WITH_UNIT(LENGTH_MEASURE(1.E-07),#1033,
  'distance_accuracy_value','confusion accuracy');
#1037 = CONTEXT_DEPENDENT_SHAPE_REPRESENTATION(#1038,#1040);
#1038 = ( REPRESENTATION_RELATIONSHIP('','',#579,#10) 
REPRESENTATION_RELATIONSHIP_WITH_TRANSFORMATION(#1039) 
SHAPE_REPRESENTATION_RELATIONSHIP() );
#1039 = ITEM_DEFINED_TRANSFORMATION('','',#11,#19);
#1040 = PRODUCT_DEFINITION_SHAPE('Placement','Placement of an item',
  #1041);
#1041 = NEXT_ASSEMBLY_USAGE_OCCURRENCE('2','thruster_0','',#5,#574,$);
#1042 = PRODUCT_RELATED_PRODUCT_CATEGORY('part',$,(#576));
#1043 = SHAPE_DEFINITION_REPRESENTATION(#1044,#1050);
#1044 = PRODUCT_DEFINITION_SHAPE('','',#1045);
#1045 = PRODUCT_DEFINITION('design','',#1046,#1049);
#1046 = PRODUCT_DEFINITION_FORMATION('','',#1047);
#1047 = PRODUCT('thruster_270','thruster_270','',(#1048));
#1048 = PRODUCT_CONTEXT('',#2,'mechanical');
#1049 = PRODUCT_DEFINITION_CONTEXT('part definition',#2,'design');
#1050 = ADVANCED_BREP_SHAPE_REPRESENTATION('',(#11,#1051),#1233);
#1051 = MANIFOLD_SOLID_BREP('',#1052);
#1052 = CLOSED_SHELL('',(#1053,#1141,#1176,#1206));
#1053 = ADVANCED_FACE('',(#1054),#1067,.T.);
#1054 = FACE_BOUND('',#1055,.T.);
#1055 = EDGE_LOOP('',(#1056,#1090,#1113,#1140));
#1056 = ORIENTED_EDGE('',*,*,#1057,.F.);
#1057 = EDGE_CURVE('',#1058,#1058,#1060,.T.);
#1058 = VERTEX_POINT('',#1059);
#1059 = CARTESIAN_POINT('',(10.5,-2.571758278209E-15,9.));
#1060 = SURFACE_CURVE('',#1061,(#1066,#1078),.PCURVE_S1.);
#1061 = CIRCLE('',#1062,10.5);
#1062 = AXIS2_PLACEMENT_3D('',#1063,#1064,#1065);
#1063 = CARTESIAN_POINT('',(0.,0.,9.));
#1064 = DIRECTION('',(0.,0.,1.));
#1065 = DIRECTION('',(1.,0.,0.));
#1066 = PCURVE('',#1067,#1072);
#1067 = CYLINDRICAL_SURFACE('',#1068,10.5);
#1068 = AXIS2_PLACEMENT_3D('',#1069,#1070,#1071);
#1069 = CARTESIAN_POINT('',(0.,0.,-9.));
#1070 = DIRECTION('',(0.,0.,1.));
#1071 = DIRECTION('',(1.,0.,0.));
#1072 = DEFINITIONAL_REPRESENTATION('',(#1073),#1077);
#1073 = LINE('',#1074,#1075);
#1074 = CARTESIAN_POINT('',(0.,18.));
#1075 = VECTOR('',#1076,1.);
#1076 = DIRECTION('',(1.,0.));
#1077 = ( GEOMETRIC_REPRESENTATION_CONTEXT(2) 
PARAMETRIC_REPRESENTATION_CONTEXT() REPRESENTATION_CONTEXT('2D SPACE',''
  ) );
#1078 = PCURVE('',#1079,#1084);
#1079 = PLANE('',#1080);
#1080 = AXIS2_PLACEMENT_3D('',#1081,#1082,#1083);
#1081 = CARTESIAN_POINT('',(0.,0.,9.));
#1082 = DIRECTION('',(0.,0.,1.));
#1083 = DIRECTION('',(1.,0.,0.));
#1084 = DEFINITIONAL_REPRESENTATION('',(#1085),#1089);
#1085 = CIRCLE('',#1086,10.5);
#1086 = AXIS2_PLACEMENT_2D('',#1087,#1088);
#1087 = CARTESIAN_POINT('',(0.,0.));
#1088 = DIRECTION('',(1.,0.));
#1089 = ( GEOMETRIC_REPRESENTATION_CONTEXT(2) 
PARAMETRIC_REPRESENTATION_CONTEXT() REPRESENTATION_CONTEXT('2D SPACE',''
  ) );
#1090 = ORIENTED_EDGE('',*,*,#1091,.F.);
#1091 = EDGE_CURVE('',#1092,#1058,#1094,.T.);
#1092 = VERTEX_POINT('',#1093);
#1093 = CARTESIAN_POINT('',(10.5,-2.571758278209E-15,-9.));
#1094 = SEAM_CURVE('',#1095,(#1099,#1106),.PCURVE_S1.);
#1095 = LINE('',#1096,#1097);
#1096 = CARTESIAN_POINT('',(10.5,-2.571758278209E-15,-9.));
#1097 = VECTOR('',#1098,1.);
#1098 = DIRECTION('',(0.,0.,1.));
#1099 = PCURVE('',#1067,#1100);
#1100 = DEFINITIONAL_REPRESENTATION('',(#1101),#1105);
#1101 = LINE('',#1102,#1103);
#1102 = CARTESIAN_POINT('',(6.28318530718,0.));
#1103 = VECTOR('',#1104,1.);
#1104 = DIRECTION('',(0.,1.));
#1105 = ( GEOMETRIC_REPRESENTATION_CONTEXT(2) 
PARAMETRIC_REPRESENTATION_CONTEXT() REPRESENTATION_CONTEXT('2D SPACE',''
  ) );
#1106 = PCURVE('',#1067,#1107);
#1107 = DEFINITIONAL_REPRESENTATION('',(#1108),#1112);
#1108 = LINE('',#1109,#1110);
#1109 = CARTESIAN_POINT('',(0.,0.));
#1110 = VECTOR('',#1111,1.);
#1111 = DIRECTION('',(0.,1.));
#1112 = ( GEOMETRIC_REPRESENTATION_CONTEXT(2) 
PARAMETRIC_REPRESENTATION_CONTEXT() REPRESENTATION_CONTEXT('2D SPACE',''
  ) );
#1113 = ORIENTED_EDGE('',*,*,#1114,.T.);
#1114 = EDGE_CURVE('',#1092,#1092,#1115,.T.);
#1115 = SURFACE_CURVE('',#1116,(#1121,#1128),.PCURVE_S1.);
#1116 = CIRCLE('',#1117,10.5);
#1117 = AXIS2_PLACEMENT_3D('',#1118,#1119,#1120);
#1118 = CARTESIAN_POINT('',(0.,0.,-9.));
#1119 = DIRECTION('',(0.,0.,1.));
#1120 = DIRECTION('',(1.,0.,0.));
#1121 = PCURVE('',#1067,#1122);
#1122 = DEFINITIONAL_REPRESENTATION('',(#1123),#1127);
#1123 = LINE('',#1124,#1125);
#1124 = CARTESIAN_POINT('',(0.,0.));
#1125 = VECTOR('',#1126,1.);
#1126 = DIRECTION('',(1.,0.));
#1127 = ( GEOMETRIC_REPRESENTATION_CONTEXT(2) 
PARAMETRIC_REPRESENTATION_CONTEXT() REPRESENTATION_CONTEXT('2D SPACE',''
  ) );
#1128 = PCURVE('',#1129,#1134);
#1129 = PLANE('',#1130);
#1130 = AXIS2_PLACEMENT_3D('',#1131,#1132,#1133);
#1131 = CARTESIAN_POINT('',(0.,0.,-9.));
#1132 = DIRECTION('',(0.,0.,1.));
#1133 = DIRECTION('',(1.,0.,0.));
#1134 = DEFINITIONAL_REPRESENTATION('',(#1135),#1139);
#1135 = CIRCLE('',#1136,10.5);
#1136 = AXIS2_PLACEMENT_2D('',#1137,#1138);
#1137 = CARTESIAN_POINT('',(0.,0.));
#1138 = DIRECTION('',(1.,0.));
#1139 = ( GEOMETRIC_REPRESENTATION_CONTEXT(2) 
PARAMETRIC_REPRESENTATION_CONTEXT() REPRESENTATION_CONTEXT('2D SPACE',''
  ) );
#1140 = ORIENTED_EDGE('',*,*,#1091,.T.);
#1141 = ADVANCED_FACE('',(#1142,#1145),#1079,.T.);
#1142 = FACE_BOUND('',#1143,.T.);
#1143 = EDGE_LOOP('',(#1144));
#1144 = ORIENTED_EDGE('',*,*,#1057,.T.);
#1145 = FACE_BOUND('',#1146,.T.);
#1146 = EDGE_LOOP('',(#1147));
#1147 = ORIENTED_EDGE('',*,*,#1148,.F.);
#1148 = EDGE_CURVE('',#1149,#1149,#1151,.T.);
#1149 = VERTEX_POINT('',#1150);
#1150 = CARTESIAN_POINT('',(6.6,-1.616533774875E-15,9.));
#1151 = SURFACE_CURVE('',#1152,(#1157,#1164),.PCURVE_S1.);
#1152 = CIRCLE('',#1153,6.6);
#1153 = AXIS2_PLACEMENT_3D('',#1154,#1155,#1156);
#1154 = CARTESIAN_POINT('',(0.,0.,9.));
#1155 = DIRECTION('',(0.,0.,1.));
#1156 = DIRECTION('',(1.,0.,0.));
#1157 = PCURVE('',#1079,#1158);
#1158 = DEFINITIONAL_REPRESENTATION('',(#1159),#1163);
#1159 = CIRCLE('',#1160,6.6);
#1160 = AXIS2_PLACEMENT_2D('',#1161,#1162);
#1161 = CARTESIAN_POINT('',(0.,0.));
#1162 = DIRECTION('',(1.,0.));
#1163 = ( GEOMETRIC_REPRESENTATION_CONTEXT(2) 
PARAMETRIC_REPRESENTATION_CONTEXT() REPRESENTATION_CONTEXT('2D SPACE',''
  ) );
#1164 = PCURVE('',#1165,#1170);
#1165 = CYLINDRICAL_SURFACE('',#1166,6.6);
#1166 = AXIS2_PLACEMENT_3D('',#1167,#1168,#1169);
#1167 = CARTESIAN_POINT('',(0.,0.,-10.));
#1168 = DIRECTION('',(0.,0.,1.));
#1169 = DIRECTION('',(1.,0.,0.));
#1170 = DEFINITIONAL_REPRESENTATION('',(#1171),#1175);
#1171 = LINE('',#1172,#1173);
#1172 = CARTESIAN_POINT('',(0.,19.));
#1173 = VECTOR('',#1174,1.);
#1174 = DIRECTION('',(1.,0.));
#1175 = ( GEOMETRIC_REPRESENTATION_CONTEXT(2) 
PARAMETRIC_REPRESENTATION_CONTEXT() REPRESENTATION_CONTEXT('2D SPACE',''
  ) );
#1176 = ADVANCED_FACE('',(#1177,#1180),#1129,.F.);
#1177 = FACE_BOUND('',#1178,.F.);
#1178 = EDGE_LOOP('',(#1179));
#1179 = ORIENTED_EDGE('',*,*,#1114,.T.);
#1180 = FACE_BOUND('',#1181,.F.);
#1181 = EDGE_LOOP('',(#1182));
#1182 = ORIENTED_EDGE('',*,*,#1183,.F.);
#1183 = EDGE_CURVE('',#1184,#1184,#1186,.T.);
#1184 = VERTEX_POINT('',#1185);
#1185 = CARTESIAN_POINT('',(6.6,-1.616533774875E-15,-9.));
#1186 = SURFACE_CURVE('',#1187,(#1192,#1199),.PCURVE_S1.);
#1187 = CIRCLE('',#1188,6.6);
#1188 = AXIS2_PLACEMENT_3D('',#1189,#1190,#1191);
#1189 = CARTESIAN_POINT('',(0.,0.,-9.));
#1190 = DIRECTION('',(0.,0.,1.));
#1191 = DIRECTION('',(1.,0.,0.));
#1192 = PCURVE('',#1129,#1193);
#1193 = DEFINITIONAL_REPRESENTATION('',(#1194),#1198);
#1194 = CIRCLE('',#1195,6.6);
#1195 = AXIS2_PLACEMENT_2D('',#1196,#1197);
#1196 = CARTESIAN_POINT('',(0.,0.));
#1197 = DIRECTION('',(1.,0.));
#1198 = ( GEOMETRIC_REPRESENTATION_CONTEXT(2) 
PARAMETRIC_REPRESENTATION_CONTEXT() REPRESENTATION_CONTEXT('2D SPACE',''
  ) );
#1199 = PCURVE('',#1165,#1200);
#1200 = DEFINITIONAL_REPRESENTATION('',(#1201),#1205);
#1201 = LINE('',#1202,#1203);
#1202 = CARTESIAN_POINT('',(0.,1.));
#1203 = VECTOR('',#1204,1.);
#1204 = DIRECTION('',(1.,0.));
#1205 = ( GEOMETRIC_REPRESENTATION_CONTEXT(2) 
PARAMETRIC_REPRESENTATION_CONTEXT() REPRESENTATION_CONTEXT('2D SPACE',''
  ) );
#1206 = ADVANCED_FACE('',(#1207),#1165,.F.);
#1207 = FACE_BOUND('',#1208,.F.);
#1208 = EDGE_LOOP('',(#1209,#1210,#1231,#1232));
#1209 = ORIENTED_EDGE('',*,*,#1148,.F.);
#1210 = ORIENTED_EDGE('',*,*,#1211,.F.);
#1211 = EDGE_CURVE('',#1184,#1149,#1212,.T.);
#1212 = SEAM_CURVE('',#1213,(#1217,#1224),.PCURVE_S1.);
#1213 = LINE('',#1214,#1215);
#1214 = CARTESIAN_POINT('',(6.6,-1.616533774875E-15,-10.));
#1215 = VECTOR('',#1216,1.);
#1216 = DIRECTION('',(0.,0.,1.));
#1217 = PCURVE('',#1165,#1218);
#1218 = DEFINITIONAL_REPRESENTATION('',(#1219),#1223);
#1219 = LINE('',#1220,#1221);
#1220 = CARTESIAN_POINT('',(6.28318530718,0.));
#1221 = VECTOR('',#1222,1.);
#1222 = DIRECTION('',(0.,1.));
#1223 = ( GEOMETRIC_REPRESENTATION_CONTEXT(2) 
PARAMETRIC_REPRESENTATION_CONTEXT() REPRESENTATION_CONTEXT('2D SPACE',''
  ) );
#1224 = PCURVE('',#1165,#1225);
#1225 = DEFINITIONAL_REPRESENTATION('',(#1226),#1230);
#1226 = LINE('',#1227,#1228);
#1227 = CARTESIAN_POINT('',(0.,0.));
#1228 = VECTOR('',#1229,1.);
#1229 = DIRECTION('',(0.,1.));
#1230 = ( GEOMETRIC_REPRESENTATION_CONTEXT(2) 
PARAMETRIC_REPRESENTATION_CONTEXT() REPRESENTATION_CONTEXT('2D SPACE',''
  ) );
#1231 = ORIENTED_EDGE('',*,*,#1183,.T.);
#1232 = ORIENTED_EDGE('',*,*,#1211,.T.);
#1233 = ( GEOMETRIC_REPRESENTATION_CONTEXT(3) 
GLOBAL_UNCERTAINTY_ASSIGNED_CONTEXT((#1237)) 
GLOBAL_UNIT_ASSIGNED_CONTEXT((#1234,#1235,#1236)) REPRESENTATION_CONTEXT
('Context #1','3D Context with UNIT and UNCERTAINTY') );
#1234 = ( LENGTH_UNIT() NAMED_UNIT(*) SI_UNIT(.MILLI.,.METRE.) );
#1235 = ( NAMED_UNIT(*) PLANE_ANGLE_UNIT() SI_UNIT($,.RADIAN.) );
#1236 = ( NAMED_UNIT(*) SI_UNIT($,.STERADIAN.) SOLID_ANGLE_UNIT() );
#1237 = UNCERTAINTY_MEASURE_WITH_UNIT(LENGTH_MEASURE(1.E-07),#1234,
  'distance_accuracy_value','confusion accuracy');
#1238 = CONTEXT_DEPENDENT_SHAPE_REPRESENTATION(#1239,#1241);
#1239 = ( REPRESENTATION_RELATIONSHIP('','',#1050,#10) 
REPRESENTATION_RELATIONSHIP_WITH_TRANSFORMATION(#1240) 
SHAPE_REPRESENTATION_RELATIONSHIP() );
#1240 = ITEM_DEFINED_TRANSFORMATION('','',#11,#23);
#1241 = PRODUCT_DEFINITION_SHAPE('Placement','Placement of an item',
  #1242);
#1242 = NEXT_ASSEMBLY_USAGE_OCCURRENCE('3','thruster_90','',#5,#1045,$);
#1243 = PRODUCT_RELATED_PRODUCT_CATEGORY('part',$,(#1047));
#1244 = CONTEXT_DEPENDENT_SHAPE_REPRESENTATION(#1245,#1247);
#1245 = ( REPRESENTATION_RELATIONSHIP('','',#1050,#10) 
REPRESENTATION_RELATIONSHIP_WITH_TRANSFORMATION(#1246) 
SHAPE_REPRESENTATION_RELATIONSHIP() );
#1246 = ITEM_DEFINED_TRANSFORMATION('','',#11,#27);
#1247 = PRODUCT_DEFINITION_SHAPE('Placement','Placement of an item',
  #1248);
#1248 = NEXT_ASSEMBLY_USAGE_OCCURRENCE('4','thruster_180','',#5,#1045,$
  );
#1249 = CONTEXT_DEPENDENT_SHAPE_REPRESENTATION(#1250,#1252);
#1250 = ( REPRESENTATION_RELATIONSHIP('','',#1050,#10) 
REPRESENTATION_RELATIONSHIP_WITH_TRANSFORMATION(#1251) 
SHAPE_REPRESENTATION_RELATIONSHIP() );
#1251 = ITEM_DEFINED_TRANSFORMATION('','',#11,#31);
#1252 = PRODUCT_DEFINITION_SHAPE('Placement','Placement of an item',
  #1253);
#1253 = NEXT_ASSEMBLY_USAGE_OCCURRENCE('5','thruster_270','',#5,#1045,$
  );
#1254 = SHAPE_DEFINITION_REPRESENTATION(#1255,#1261);
#1255 = PRODUCT_DEFINITION_SHAPE('','',#1256);
#1256 = PRODUCT_DEFINITION('design','',#1257,#1260);
#1257 = PRODUCT_DEFINITION_FORMATION('','',#1258);
#1258 = PRODUCT('thruster_0_throat','thruster_0_throat','',(#1259));
#1259 = PRODUCT_CONTEXT('',#2,'mechanical');
#1260 = PRODUCT_DEFINITION_CONTEXT('part definition',#2,'design');
#1261 = ADVANCED_BREP_SHAPE_REPRESENTATION('',(#11,#1262),#1360);
#1262 = MANIFOLD_SOLID_BREP('',#1263);
#1263 = CLOSED_SHELL('',(#1264,#1352,#1356));
#1264 = ADVANCED_FACE('',(#1265),#1278,.T.);
#1265 = FACE_BOUND('',#1266,.T.);
#1266 = EDGE_LOOP('',(#1267,#1301,#1324,#1351));
#1267 = ORIENTED_EDGE('',*,*,#1268,.F.);
#1268 = EDGE_CURVE('',#1269,#1269,#1271,.T.);
#1269 = VERTEX_POINT('',#1270);
#1270 = CARTESIAN_POINT('',(5.8,-1.420590287011E-15,2.));
#1271 = SURFACE_CURVE('',#1272,(#1277,#1289),.PCURVE_S1.);
#1272 = CIRCLE('',#1273,5.8);
#1273 = AXIS2_PLACEMENT_3D('',#1274,#1275,#1276);
#1274 = CARTESIAN_POINT('',(0.,0.,2.));
#1275 = DIRECTION('',(0.,0.,1.));
#1276 = DIRECTION('',(1.,0.,0.));
#1277 = PCURVE('',#1278,#1283);
#1278 = CYLINDRICAL_SURFACE('',#1279,5.8);
#1279 = AXIS2_PLACEMENT_3D('',#1280,#1281,#1282);
#1280 = CARTESIAN_POINT('',(0.,0.,0.));
#1281 = DIRECTION('',(0.,0.,1.));
#1282 = DIRECTION('',(1.,0.,0.));
#1283 = DEFINITIONAL_REPRESENTATION('',(#1284),#1288);
#1284 = LINE('',#1285,#1286);
#1285 = CARTESIAN_POINT('',(0.,2.));
#1286 = VECTOR('',#1287,1.);
#1287 = DIRECTION('',(1.,0.));
#1288 = ( GEOMETRIC_REPRESENTATION_CONTEXT(2) 
PARAMETRIC_REPRESENTATION_CONTEXT() REPRESENTATION_CONTEXT('2D SPACE',''
  ) );
#1289 = PCURVE('',#1290,#1295);
#1290 = PLANE('',#1291);
#1291 = AXIS2_PLACEMENT_3D('',#1292,#1293,#1294);
#1292 = CARTESIAN_POINT('',(0.,0.,2.));
#1293 = DIRECTION('',(0.,0.,1.));
#1294 = DIRECTION('',(1.,0.,0.));
#1295 = DEFINITIONAL_REPRESENTATION('',(#1296),#1300);
#1296 = CIRCLE('',#1297,5.8);
#1297 = AXIS2_PLACEMENT_2D('',#1298,#1299);
#1298 = CARTESIAN_POINT('',(0.,0.));
#1299 = DIRECTION('',(1.,0.));
#1300 = ( GEOMETRIC_REPRESENTATION_CONTEXT(2) 
PARAMETRIC_REPRESENTATION_CONTEXT() REPRESENTATION_CONTEXT('2D SPACE',''
  ) );
#1301 = ORIENTED_EDGE('',*,*,#1302,.F.);
#1302 = EDGE_CURVE('',#1303,#1269,#1305,.T.);
#1303 = VERTEX_POINT('',#1304);
#1304 = CARTESIAN_POINT('',(5.8,-1.420590287011E-15,0.));
#1305 = SEAM_CURVE('',#1306,(#1310,#1317),.PCURVE_S1.);
#1306 = LINE('',#1307,#1308);
#1307 = CARTESIAN_POINT('',(5.8,-1.420590287011E-15,0.));
#1308 = VECTOR('',#1309,1.);
#1309 = DIRECTION('',(0.,0.,1.));
#1310 = PCURVE('',#1278,#1311);
#1311 = DEFINITIONAL_REPRESENTATION('',(#1312),#1316);
#1312 = LINE('',#1313,#1314);
#1313 = CARTESIAN_POINT('',(6.28318530718,0.));
#1314 = VECTOR('',#1315,1.);
#1315 = DIRECTION('',(0.,1.));
#1316 = ( GEOMETRIC_REPRESENTATION_CONTEXT(2) 
PARAMETRIC_REPRESENTATION_CONTEXT() REPRESENTATION_CONTEXT('2D SPACE',''
  ) );
#1317 = PCURVE('',#1278,#1318);
#1318 = DEFINITIONAL_REPRESENTATION('',(#1319),#1323);
#1319 = LINE('',#1320,#1321);
#1320 = CARTESIAN_POINT('',(0.,0.));
#1321 = VECTOR('',#1322,1.);
#1322 = DIRECTION('',(0.,1.));
#1323 = ( GEOMETRIC_REPRESENTATION_CONTEXT(2) 
PARAMETRIC_REPRESENTATION_CONTEXT() REPRESENTATION_CONTEXT('2D SPACE',''
  ) );
#1324 = ORIENTED_EDGE('',*,*,#1325,.T.);
#1325 = EDGE_CURVE('',#1303,#1303,#1326,.T.);
#1326 = SURFACE_CURVE('',#1327,(#1332,#1339),.PCURVE_S1.);
#1327 = CIRCLE('',#1328,5.8);
#1328 = AXIS2_PLACEMENT_3D('',#1329,#1330,#1331);
#1329 = CARTESIAN_POINT('',(0.,0.,0.));
#1330 = DIRECTION('',(0.,0.,1.));
#1331 = DIRECTION('',(1.,0.,0.));
#1332 = PCURVE('',#1278,#1333);
#1333 = DEFINITIONAL_REPRESENTATION('',(#1334),#1338);
#1334 = LINE('',#1335,#1336);
#1335 = CARTESIAN_POINT('',(0.,0.));
#1336 = VECTOR('',#1337,1.);
#1337 = DIRECTION('',(1.,0.));
#1338 = ( GEOMETRIC_REPRESENTATION_CONTEXT(2) 
PARAMETRIC_REPRESENTATION_CONTEXT() REPRESENTATION_CONTEXT('2D SPACE',''
  ) );
#1339 = PCURVE('',#1340,#1345);
#1340 = PLANE('',#1341);
#1341 = AXIS2_PLACEMENT_3D('',#1342,#1343,#1344);
#1342 = CARTESIAN_POINT('',(0.,0.,0.));
#1343 = DIRECTION('',(0.,0.,1.));
#1344 = DIRECTION('',(1.,0.,0.));
#1345 = DEFINITIONAL_REPRESENTATION('',(#1346),#1350);
#1346 = CIRCLE('',#1347,5.8);
#1347 = AXIS2_PLACEMENT_2D('',#1348,#1349);
#1348 = CARTESIAN_POINT('',(0.,0.));
#1349 = DIRECTION('',(1.,0.));
#1350 = ( GEOMETRIC_REPRESENTATION_CONTEXT(2) 
PARAMETRIC_REPRESENTATION_CONTEXT() REPRESENTATION_CONTEXT('2D SPACE',''
  ) );
#1351 = ORIENTED_EDGE('',*,*,#1302,.T.);
#1352 = ADVANCED_FACE('',(#1353),#1290,.T.);
#1353 = FACE_BOUND('',#1354,.T.);
#1354 = EDGE_LOOP('',(#1355));
#1355 = ORIENTED_EDGE('',*,*,#1268,.T.);
#1356 = ADVANCED_FACE('',(#1357),#1340,.F.);
#1357 = FACE_BOUND('',#1358,.T.);
#1358 = EDGE_LOOP('',(#1359));
#1359 = ORIENTED_EDGE('',*,*,#1325,.F.);
#1360 = ( GEOMETRIC_REPRESENTATION_CONTEXT(3) 
GLOBAL_UNCERTAINTY_ASSIGNED_CONTEXT((#1364)) 
GLOBAL_UNIT_ASSIGNED_CONTEXT((#1361,#1362,#1363)) REPRESENTATION_CONTEXT
('Context #1','3D Context with UNIT and UNCERTAINTY') );
#1361 = ( LENGTH_UNIT() NAMED_UNIT(*) SI_UNIT(.MILLI.,.METRE.) );
#1362 = ( NAMED_UNIT(*) PLANE_ANGLE_UNIT() SI_UNIT($,.RADIAN.) );
#1363 = ( NAMED_UNIT(*) SI_UNIT($,.STERADIAN.) SOLID_ANGLE_UNIT() );
#1364 = UNCERTAINTY_MEASURE_WITH_UNIT(LENGTH_MEASURE(1.E-07),#1361,
  'distance_accuracy_value','confusion accuracy');
#1365 = CONTEXT_DEPENDENT_SHAPE_REPRESENTATION(#1366,#1368);
#1366 = ( REPRESENTATION_RELATIONSHIP('','',#1261,#10) 
REPRESENTATION_RELATIONSHIP_WITH_TRANSFORMATION(#1367) 
SHAPE_REPRESENTATION_RELATIONSHIP() );
#1367 = ITEM_DEFINED_TRANSFORMATION('','',#11,#35);
#1368 = PRODUCT_DEFINITION_SHAPE('Placement','Placement of an item',
  #1369);
#1369 = NEXT_ASSEMBLY_USAGE_OCCURRENCE('6','thruster_0_throat','',#5,
  #1256,$);
#1370 = PRODUCT_RELATED_PRODUCT_CATEGORY('part',$,(#1258));
#1371 = SHAPE_DEFINITION_REPRESENTATION(#569,#1372);
#1372 = SHAPE_REPRESENTATION('',(#15),#561);
#1373 = SHAPE_DEFINITION_REPRESENTATION(#1040,#1374);
#1374 = SHAPE_REPRESENTATION('',(#19),#1032);
#1375 = SHAPE_DEFINITION_REPRESENTATION(#1241,#1376);
#1376 = SHAPE_REPRESENTATION('',(#23),#1233);
#1377 = SHAPE_DEFINITION_REPRESENTATION(#1247,#1378);
#1378 = SHAPE_REPRESENTATION('',(#27),#1233);
#1379 = SHAPE_DEFINITION_REPRESENTATION(#1252,#1380);
#1380 = SHAPE_REPRESENTATION('',(#31),#1233);
#1381 = SHAPE_DEFINITION_REPRESENTATION(#1368,#1382);
#1382 = SHAPE_REPRESENTATION('',(#35),#1360);
#1383 = SHAPE_DEFINITION_REPRESENTATION(#569,#1384);
#1384 = SHAPE_REPRESENTATION('',(#15),#561);
#1385 = SHAPE_DEFINITION_REPRESENTATION(#1040,#1386);
#1386 = SHAPE_REPRESENTATION('',(#19),#1032);
#1387 = SHAPE_DEFINITION_REPRESENTATION(#1241,#1388);
#1388 = SHAPE_REPRESENTATION('',(#23),#1233);
#1389 = SHAPE_DEFINITION_REPRESENTATION(#1247,#1390);
#1390 = SHAPE_REPRESENTATION('',(#27),#1233);
#1391 = SHAPE_DEFINITION_REPRESENTATION(#1252,#1392);
#1392 = SHAPE_REPRESENTATION('',(#31),#1233);
#1393 = SHAPE_DEFINITION_REPRESENTATION(#1368,#1394);
#1394 = SHAPE_REPRESENTATION('',(#35),#1360);
#1395 = MECHANICAL_DESIGN_GEOMETRIC_PRESENTATION_REPRESENTATION('',(
    #1396,#1404),#561);
#1396 = STYLED_ITEM('color',(#1397),#53);
#1397 = PRESENTATION_STYLE_ASSIGNMENT((#1398));
#1398 = SURFACE_STYLE_USAGE(.BOTH.,#1399);
#1399 = SURFACE_SIDE_STYLE('',(#1400));
#1400 = SURFACE_STYLE_FILL_AREA(#1401);
#1401 = FILL_AREA_STYLE('',(#1402));
#1402 = FILL_AREA_STYLE_COLOUR('',#1403);
#1403 = COLOUR_RGB('',0.580392170981,0.619607810787,0.639215690656);
#1404 = OVER_RIDING_STYLED_ITEM('overriding color',(#1405),#53,#1396);
#1405 = PRESENTATION_STYLE_BY_CONTEXT((#1406),#1384);
#1406 = SURFACE_STYLE_USAGE(.BOTH.,#1407);
#1407 = SURFACE_SIDE_STYLE('',(#1408));
#1408 = SURFACE_STYLE_FILL_AREA(#1409);
#1409 = FILL_AREA_STYLE('',(#1410));
#1410 = FILL_AREA_STYLE_COLOUR('',#1411);
#1411 = COLOUR_RGB('',0.580392170981,0.619607810787,0.639215690656);
#1412 = MECHANICAL_DESIGN_GEOMETRIC_PRESENTATION_REPRESENTATION('',(
    #1413,#1421),#1032);
#1413 = STYLED_ITEM('color',(#1414),#580);
#1414 = PRESENTATION_STYLE_ASSIGNMENT((#1415));
#1415 = SURFACE_STYLE_USAGE(.BOTH.,#1416);
#1416 = SURFACE_SIDE_STYLE('',(#1417));
#1417 = SURFACE_STYLE_FILL_AREA(#1418);
#1418 = FILL_AREA_STYLE('',(#1419));
#1419 = FILL_AREA_STYLE_COLOUR('',#1420);
#1420 = COLOUR_RGB('',0.188235174936,0.219607738591,0.231372472571);
#1421 = OVER_RIDING_STYLED_ITEM('overriding color',(#1422),#580,#1413);
#1422 = PRESENTATION_STYLE_BY_CONTEXT((#1423),#1386);
#1423 = SURFACE_STYLE_USAGE(.BOTH.,#1424);
#1424 = SURFACE_SIDE_STYLE('',(#1425));
#1425 = SURFACE_STYLE_FILL_AREA(#1426);
#1426 = FILL_AREA_STYLE('',(#1427));
#1427 = FILL_AREA_STYLE_COLOUR('',#1428);
#1428 = COLOUR_RGB('',0.188235174936,0.219607738591,0.231372472571);
#1429 = MECHANICAL_DESIGN_GEOMETRIC_PRESENTATION_REPRESENTATION('',(
    #1430,#1438,#1445,#1452,#1460,#1467),#1233);
#1430 = STYLED_ITEM('color',(#1431),#1051);
#1431 = PRESENTATION_STYLE_ASSIGNMENT((#1432));
#1432 = SURFACE_STYLE_USAGE(.BOTH.,#1433);
#1433 = SURFACE_SIDE_STYLE('',(#1434));
#1434 = SURFACE_STYLE_FILL_AREA(#1435);
#1435 = FILL_AREA_STYLE('',(#1436));
#1436 = FILL_AREA_STYLE_COLOUR('',#1437);
#1437 = COLOUR_RGB('',0.196078319175,0.227450951338,0.243137191472);
#1438 = OVER_RIDING_STYLED_ITEM('overriding color',(#1439),#1051,#1430);
#1439 = PRESENTATION_STYLE_BY_CONTEXT((#1440),#1378);
#1440 = SURFACE_STYLE_USAGE(.BOTH.,#1441);
#1441 = SURFACE_SIDE_STYLE('',(#1442));
#1442 = SURFACE_STYLE_FILL_AREA(#1443);
#1443 = FILL_AREA_STYLE('',(#1444));
#1444 = FILL_AREA_STYLE_COLOUR('',#1437);
#1445 = OVER_RIDING_STYLED_ITEM('overriding color',(#1446),#1051,#1430);
#1446 = PRESENTATION_STYLE_BY_CONTEXT((#1447),#1380);
#1447 = SURFACE_STYLE_USAGE(.BOTH.,#1448);
#1448 = SURFACE_SIDE_STYLE('',(#1449));
#1449 = SURFACE_STYLE_FILL_AREA(#1450);
#1450 = FILL_AREA_STYLE('',(#1451));
#1451 = FILL_AREA_STYLE_COLOUR('',#1437);
#1452 = OVER_RIDING_STYLED_ITEM('overriding color',(#1453),#1051,#1430);
#1453 = PRESENTATION_STYLE_BY_CONTEXT((#1454),#1388);
#1454 = SURFACE_STYLE_USAGE(.BOTH.,#1455);
#1455 = SURFACE_SIDE_STYLE('',(#1456));
#1456 = SURFACE_STYLE_FILL_AREA(#1457);
#1457 = FILL_AREA_STYLE('',(#1458));
#1458 = FILL_AREA_STYLE_COLOUR('',#1459);
#1459 = COLOUR_RGB('',0.196078319175,0.227450951338,0.243137191472);
#1460 = OVER_RIDING_STYLED_ITEM('overriding color',(#1461),#1051,#1430);
#1461 = PRESENTATION_STYLE_BY_CONTEXT((#1462),#1390);
#1462 = SURFACE_STYLE_USAGE(.BOTH.,#1463);
#1463 = SURFACE_SIDE_STYLE('',(#1464));
#1464 = SURFACE_STYLE_FILL_AREA(#1465);
#1465 = FILL_AREA_STYLE('',(#1466));
#1466 = FILL_AREA_STYLE_COLOUR('',#1459);
#1467 = OVER_RIDING_STYLED_ITEM('overriding color',(#1468),#1051,#1430);
#1468 = PRESENTATION_STYLE_BY_CONTEXT((#1469),#1392);
#1469 = SURFACE_STYLE_USAGE(.BOTH.,#1470);
#1470 = SURFACE_SIDE_STYLE('',(#1471));
#1471 = SURFACE_STYLE_FILL_AREA(#1472);
#1472 = FILL_AREA_STYLE('',(#1473));
#1473 = FILL_AREA_STYLE_COLOUR('',#1459);
#1474 = MECHANICAL_DESIGN_GEOMETRIC_PRESENTATION_REPRESENTATION('',(
    #1475),#1360);
#1475 = STYLED_ITEM('color',(#1476),#1262);
#1476 = PRESENTATION_STYLE_ASSIGNMENT((#1477));
#1477 = SURFACE_STYLE_USAGE(.BOTH.,#1478);
#1478 = SURFACE_SIDE_STYLE('',(#1479));
#1479 = SURFACE_STYLE_FILL_AREA(#1480);
#1480 = FILL_AREA_STYLE('',(#1481));
#1481 = FILL_AREA_STYLE_COLOUR('',#1482);
#1482 = COLOUR_RGB('',6.666674308799E-02,9.019589542666E-02,
  0.105882390936);
ENDSEC;
END-ISO-10303-21;
