ISO-10303-21;
HEADER;
FILE_DESCRIPTION(('Open CASCADE Model'),'2;1');
FILE_NAME('Spear_CylinderFillet_Cap_Focus','2000-01-01T00:00:00',(
    'Author'),('Open CASCADE'),'Open CASCADE STEP processor 7.9',
  'cadgen','Unknown');
FILE_SCHEMA(('AUTOMOTIVE_DESIGN { 1 0 10303 214 1 1 1 1 }'));
ENDSEC;
DATA;
#1 = APPLICATION_PROTOCOL_DEFINITION('international standard',
  'automotive_design',2000,#2);
#2 = APPLICATION_CONTEXT(
  'core data for automotive mechanical design processes');
#3 = SHAPE_DEFINITION_REPRESENTATION(#4,#10);
#4 = PRODUCT_DEFINITION_SHAPE('','',#5);
#5 = PRODUCT_DEFINITION('design','',#6,#9);
#6 = PRODUCT_DEFINITION_FORMATION('','',#7);
#7 = PRODUCT('Spear_CylinderFillet_Cap_Focus',
  'Spear_CylinderFillet_Cap_Focus','',(#8));
#8 = PRODUCT_CONTEXT('',#2,'mechanical');
#9 = PRODUCT_DEFINITION_CONTEXT('part definition',#2,'design');
#10 = SHAPE_REPRESENTATION('',(#11,#15,#19,#23,#27,#31,#35),#39);
#11 = AXIS2_PLACEMENT_3D('',#12,#13,#14);
#12 = CARTESIAN_POINT('',(0.,0.,0.));
#13 = DIRECTION('',(0.,0.,1.));
#14 = DIRECTION('',(1.,0.,0.));
#15 = AXIS2_PLACEMENT_3D('',#16,#17,#18);
#16 = CARTESIAN_POINT('',(0.,0.,0.));
#17 = DIRECTION('',(0.,0.,1.));
#18 = DIRECTION('',(1.,0.,0.));
#19 = AXIS2_PLACEMENT_3D('',#20,#21,#22);
#20 = CARTESIAN_POINT('',(-470.,60.,0.));
#21 = DIRECTION('',(0.,1.,1.110223024625E-16));
#22 = DIRECTION('',(1.,0.,0.));
#23 = AXIS2_PLACEMENT_3D('',#24,#25,#26);
#24 = CARTESIAN_POINT('',(-470.4,3.910297229677E-15,63.86));
#25 = DIRECTION('',(0.,0.,1.));
#26 = DIRECTION('',(1.,0.,0.));
#27 = AXIS2_PLACEMENT_3D('',#28,#29,#30);
#28 = CARTESIAN_POINT('',(-470.4,-63.86,7.820594459355E-15));
#29 = DIRECTION('',(0.,1.,1.110223024625E-16));
#30 = DIRECTION('',(1.,0.,0.));
#31 = AXIS2_PLACEMENT_3D('',#32,#33,#34);
#32 = CARTESIAN_POINT('',(-470.4,-1.173089168903E-14,-63.86));
#33 = DIRECTION('',(0.,1.224646799147E-16,-1.));
#34 = DIRECTION('',(1.,0.,0.));
#35 = AXIS2_PLACEMENT_3D('',#36,#37,#38);
#36 = CARTESIAN_POINT('',(-470.,48.,0.));
#37 = DIRECTION('',(0.,1.,1.110223024625E-16));
#38 = DIRECTION('',(1.,0.,0.));
#39 = ( GEOMETRIC_REPRESENTATION_CONTEXT(3) 
GLOBAL_UNCERTAINTY_ASSIGNED_CONTEXT((#43)) GLOBAL_UNIT_ASSIGNED_CONTEXT(
(#40,#41,#42)) REPRESENTATION_CONTEXT('Context #1',
  '3D Context with UNIT and UNCERTAINTY') );
#40 = ( LENGTH_UNIT() NAMED_UNIT(*) SI_UNIT(.MILLI.,.METRE.) );
#41 = ( NAMED_UNIT(*) PLANE_ANGLE_UNIT() SI_UNIT($,.RADIAN.) );
#42 = ( NAMED_UNIT(*) SI_UNIT($,.STERADIAN.) SOLID_ANGLE_UNIT() );
#43 = UNCERTAINTY_MEASURE_WITH_UNIT(LENGTH_MEASURE(1.E-07),#40,
  'distance_accuracy_value','confusion accuracy');
#44 = PRODUCT_RELATED_PRODUCT_CATEGORY('part',$,(#7));
#45 = SHAPE_DEFINITION_REPRESENTATION(#46,#52);
#46 = PRODUCT_DEFINITION_SHAPE('','',#47);
#47 = PRODUCT_DEFINITION('design','',#48,#51);
#48 = PRODUCT_DEFINITION_FORMATION('','',#49);
#49 = PRODUCT('turning_cap','turning_cap','',(#50));
#50 = PRODUCT_CONTEXT('',#2,'mechanical');
#51 = PRODUCT_DEFINITION_CONTEXT('part definition',#2,'design');
#52 = ADVANCED_BREP_SHAPE_REPRESENTATION('',(#11,#53),#561);
#53 = MANIFOLD_SOLID_BREP('',#54);
#54 = CLOSED_SHELL('',(#55,#440,#494,#498,#553,#557));
#55 = ADVANCED_FACE('',(#56,#143),#69,.T.);
#56 = FACE_BOUND('',#57,.T.);
#57 = EDGE_LOOP('',(#58,#92,#115,#142));
#58 = ORIENTED_EDGE('',*,*,#59,.T.);
#59 = EDGE_CURVE('',#60,#60,#62,.T.);
#60 = VERTEX_POINT('',#61);
#61 = CARTESIAN_POINT('',(-578.,0.,-60.76));
#62 = SURFACE_CURVE('',#63,(#68,#80),.PCURVE_S1.);
#63 = CIRCLE('',#64,60.76);
#64 = AXIS2_PLACEMENT_3D('',#65,#66,#67);
#65 = CARTESIAN_POINT('',(-578.,0.,2.442490654175E-15));
#66 = DIRECTION('',(1.,0.,1.110223024625E-16));
#67 = DIRECTION('',(1.110223024625E-16,0.,-1.));
#68 = PCURVE('',#69,#74);
#69 = CYLINDRICAL_SURFACE('',#70,60.76);
#70 = AXIS2_PLACEMENT_3D('',#71,#72,#73);
#71 = CARTESIAN_POINT('',(-600.,0.,0.));
#72 = DIRECTION('',(1.,0.,1.110223024625E-16));
#73 = DIRECTION('',(1.110223024625E-16,0.,-1.));
#74 = DEFINITIONAL_REPRESENTATION('',(#75),#79);
#75 = LINE('',#76,#77);
#76 = CARTESIAN_POINT('',(0.,22.));
#77 = VECTOR('',#78,1.);
#78 = DIRECTION('',(1.,0.));
#79 = ( GEOMETRIC_REPRESENTATION_CONTEXT(2) 
PARAMETRIC_REPRESENTATION_CONTEXT() REPRESENTATION_CONTEXT('2D SPACE',''
  ) );
#80 = PCURVE('',#81,#86);
#81 = TOROIDAL_SURFACE('',#82,38.76,22.);
#82 = AXIS2_PLACEMENT_3D('',#83,#84,#85);
#83 = CARTESIAN_POINT('',(-578.,0.,2.442490654175E-15));
#84 = DIRECTION('',(-1.,0.,-1.110223024625E-16));
#85 = DIRECTION('',(1.110223024625E-16,0.,-1.));
#86 = DEFINITIONAL_REPRESENTATION('',(#87),#91);
#87 = LINE('',#88,#89);
#88 = CARTESIAN_POINT('',(0.,0.));
#89 = VECTOR('',#90,1.);
#90 = DIRECTION('',(-1.,0.));
#91 = ( GEOMETRIC_REPRESENTATION_CONTEXT(2) 
PARAMETRIC_REPRESENTATION_CONTEXT() REPRESENTATION_CONTEXT('2D SPACE',''
  ) );
#92 = ORIENTED_EDGE('',*,*,#93,.T.);
#93 = EDGE_CURVE('',#60,#94,#96,.T.);
#94 = VERTEX_POINT('',#95);
#95 = CARTESIAN_POINT('',(-420.,-1.488190790324E-14,-60.76));
#96 = SEAM_CURVE('',#97,(#101,#108),.PCURVE_S1.);
#97 = LINE('',#98,#99);
#98 = CARTESIAN_POINT('',(-600.,-1.488190790324E-14,-60.76));
#99 = VECTOR('',#100,1.);
#100 = DIRECTION('',(1.,0.,1.110223024625E-16));
#101 = PCURVE('',#69,#102);
#102 = DEFINITIONAL_REPRESENTATION('',(#103),#107);
#103 = LINE('',#104,#105);
#104 = CARTESIAN_POINT('',(0.,0.));
#105 = VECTOR('',#106,1.);
#106 = DIRECTION('',(0.,1.));
#107 = ( GEOMETRIC_REPRESENTATION_CONTEXT(2) 
PARAMETRIC_REPRESENTATION_CONTEXT() REPRESENTATION_CONTEXT('2D SPACE',''
  ) );
#108 = PCURVE('',#69,#109);
#109 = DEFINITIONAL_REPRESENTATION('',(#110),#114);
#110 = LINE('',#111,#112);
#111 = CARTESIAN_POINT('',(6.28318530718,0.));
#112 = VECTOR('',#113,1.);
#113 = DIRECTION('',(0.,1.));
#114 = ( GEOMETRIC_REPRESENTATION_CONTEXT(2) 
PARAMETRIC_REPRESENTATION_CONTEXT() REPRESENTATION_CONTEXT('2D SPACE',''
  ) );
#115 = ORIENTED_EDGE('',*,*,#116,.F.);
#116 = EDGE_CURVE('',#94,#94,#117,.T.);
#117 = SURFACE_CURVE('',#118,(#123,#130),.PCURVE_S1.);
#118 = CIRCLE('',#119,60.76);
#119 = AXIS2_PLACEMENT_3D('',#120,#121,#122);
#120 = CARTESIAN_POINT('',(-420.,0.,1.998401444325E-14));
#121 = DIRECTION('',(1.,0.,1.110223024625E-16));
#122 = DIRECTION('',(1.110223024625E-16,0.,-1.));
#123 = PCURVE('',#69,#124);
#124 = DEFINITIONAL_REPRESENTATION('',(#125),#129);
#125 = LINE('',#126,#127);
#126 = CARTESIAN_POINT('',(0.,180.));
#127 = VECTOR('',#128,1.);
#128 = DIRECTION('',(1.,0.));
#129 = ( GEOMETRIC_REPRESENTATION_CONTEXT(2) 
PARAMETRIC_REPRESENTATION_CONTEXT() REPRESENTATION_CONTEXT('2D SPACE',''
  ) );
#130 = PCURVE('',#131,#136);
#131 = PLANE('',#132);
#132 = AXIS2_PLACEMENT_3D('',#133,#134,#135);
#133 = CARTESIAN_POINT('',(-420.,0.,1.998401444325E-14));
#134 = DIRECTION('',(1.,0.,1.110223024625E-16));
#135 = DIRECTION('',(1.110223024625E-16,0.,-1.));
#136 = DEFINITIONAL_REPRESENTATION('',(#137),#141);
#137 = CIRCLE('',#138,60.76);
#138 = AXIS2_PLACEMENT_2D('',#139,#140);
#139 = CARTESIAN_POINT('',(0.,0.));
#140 = DIRECTION('',(1.,0.));
#141 = ( GEOMETRIC_REPRESENTATION_CONTEXT(2) 
PARAMETRIC_REPRESENTATION_CONTEXT() REPRESENTATION_CONTEXT('2D SPACE',''
  ) );
#142 = ORIENTED_EDGE('',*,*,#93,.F.);
#143 = FACE_BOUND('',#144,.T.);
#144 = EDGE_LOOP('',(#145));
#145 = ORIENTED_EDGE('',*,*,#146,.F.);
#146 = EDGE_CURVE('',#147,#147,#149,.T.);
#147 = VERTEX_POINT('',#148);
#148 = CARTESIAN_POINT('',(-463.6,60.76,2.98419248233E-15));
#149 = SURFACE_CURVE('',#150,(#243,#339),.PCURVE_S1.);
#150 = B_SPLINE_CURVE_WITH_KNOTS('',7,(#151,#152,#153,#154,#155,#156,
    #157,#158,#159,#160,#161,#162,#163,#164,#165,#166,#167,#168,#169,
    #170,#171,#172,#173,#174,#175,#176,#177,#178,#179,#180,#181,#182,
    #183,#184,#185,#186,#187,#188,#189,#190,#191,#192,#193,#194,#195,
    #196,#197,#198,#199,#200,#201,#202,#203,#204,#205,#206,#207,#208,
    #209,#210,#211,#212,#213,#214,#215,#216,#217,#218,#219,#220,#221,
    #222,#223,#224,#225,#226,#227,#228,#229,#230,#231,#232,#233,#234,
    #235,#236,#237,#238,#239,#240,#241,#242),.UNSPECIFIED.,.T.,.F.,(8,6,
    6,6,6,6,6,6,6,6,6,6,6,6,6,8),(0.,4.762936027418E-02,
    7.762985677185E-02,0.119771947138,0.178607402497,0.250297381999,
    0.347841508187,0.45444037348,0.545559629473,0.652158494766,
    0.749702620955,0.821392600457,0.880228051928,0.922370143194,
    0.952370639713,1.),.UNSPECIFIED.);
#151 = CARTESIAN_POINT('',(-463.6,60.76,8.881784197001E-16));
#152 = CARTESIAN_POINT('',(-463.6,60.76,-0.332290491982));
#153 = CARTESIAN_POINT('',(-463.6201281813,60.757879896216,
    -0.663967277906));
#154 = CARTESIAN_POINT('',(-463.6602502458,60.753653582056,
    -0.992577619789));
#155 = CARTESIAN_POINT('',(-463.7197411587,60.747428998443,
    -1.315703294151));
#156 = CARTESIAN_POINT('',(-463.7974958753,60.739403487139,
    -1.631026388811));
#157 = CARTESIAN_POINT('',(-463.8919385637,60.729846283893,
    -1.936393674825));
#158 = CARTESIAN_POINT('',(-464.0697443889,60.712279285816,
    -2.414738683081));
#159 = CARTESIAN_POINT('',(-464.1443555073,60.704997623356,
    -2.595112974253));
#160 = CARTESIAN_POINT('',(-464.2244979208,60.697287142844,
    -2.77081668035));
#161 = CARTESIAN_POINT('',(-464.3098022559,60.689212816686,
    -2.941686175175));
#162 = CARTESIAN_POINT('',(-464.3998954457,60.680839498953,
    -3.107579944939));
#163 = CARTESIAN_POINT('',(-464.4944006511,60.672230813442,
    -3.268378580115));
#164 = CARTESIAN_POINT('',(-464.7313527385,60.651110767307,
    -3.642566816461));
#165 = CARTESIAN_POINT('',(-464.8777489708,60.638427607021,-3.8509440976
    ));
#166 = CARTESIAN_POINT('',(-465.0312699916,60.625551362581,
    -4.049145864174));
#167 = CARTESIAN_POINT('',(-465.1911366056,60.61262037615,
    -4.237243754203));
#168 = CARTESIAN_POINT('',(-465.3566393693,60.599758573322,
    -4.415343261151));
#169 = CARTESIAN_POINT('',(-465.5271316506,60.587075506094,
    -4.583575204823));
#170 = CARTESIAN_POINT('',(-465.946191732,60.557341776983,
    -4.963389123194));
#171 = CARTESIAN_POINT('',(-466.1990336271,60.540544237697,
    -5.165835337178));
#172 = CARTESIAN_POINT('',(-466.4591142593,60.524523129197,
    -5.349945314552));
#173 = CARTESIAN_POINT('',(-466.7252416137,60.509477972387,
    -5.516236301132));
#174 = CARTESIAN_POINT('',(-466.9964281884,60.495566441088,
    -5.665199251626));
#175 = CARTESIAN_POINT('',(-467.2718534073,60.482912345279,
    -5.797274763039));
#176 = CARTESIAN_POINT('',(-467.8907493271,60.457846307106,
    -6.053629846737));
#177 = CARTESIAN_POINT('',(-468.2359383505,60.446091297947,
    -6.169901418062));
#178 = CARTESIAN_POINT('',(-468.5850479472,60.43652941399,
    -6.262267580208));
#179 = CARTESIAN_POINT('',(-468.9369510501,60.429282105786,
    -6.331212138683));
#180 = CARTESIAN_POINT('',(-469.2906707766,60.424425090636,
    -6.37706711461));
#181 = CARTESIAN_POINT('',(-469.645313086,60.421995994836,-6.4));
#182 = CARTESIAN_POINT('',(-470.4826005716,60.421995994836,-6.4));
#183 = CARTESIAN_POINT('',(-470.9649829234,60.426493109289,
    -6.357543957828));
#184 = CARTESIAN_POINT('',(-471.4450526109,60.435479692248,
    -6.272698912786));
#185 = CARTESIAN_POINT('',(-471.9206007746,60.448829749935,
    -6.144872360558));
#186 = CARTESIAN_POINT('',(-472.3890409534,60.46628731328,-5.97289164534
    ));
#187 = CARTESIAN_POINT('',(-472.8470706376,60.487416685399,
    -5.755099124249));
#188 = CARTESIAN_POINT('',(-473.7745842484,60.537849378983,
    -5.199168860302));
#189 = CARTESIAN_POINT('',(-474.2435482274,60.567857837334,
    -4.850319207923));
#190 = CARTESIAN_POINT('',(-474.6896539016,60.600610822309,
    -4.440096483408));
#191 = CARTESIAN_POINT('',(-475.1036661981,60.634683601859,
    -3.966093063326));
#192 = CARTESIAN_POINT('',(-475.4742151355,60.668068055663,
    -3.426866978364));
#193 = CARTESIAN_POINT('',(-475.7874521056,60.698071739607,
    -2.822462023657));
#194 = CARTESIAN_POINT('',(-476.2296886532,60.741958254846,
    -1.586493672203));
#195 = CARTESIAN_POINT('',(-476.3788699125,60.757551779708,
    -0.971526623665));
#196 = CARTESIAN_POINT('',(-476.4574294111,60.766170561761,
    -0.327245679925));
#197 = CARTESIAN_POINT('',(-476.4574294111,60.766170561761,
    0.327245679925));
#198 = CARTESIAN_POINT('',(-476.3788699125,60.757551779708,
    0.971526623665));
#199 = CARTESIAN_POINT('',(-476.2296886532,60.741958254846,
    1.586493672203));
#200 = CARTESIAN_POINT('',(-475.7874521056,60.698071739607,
    2.822462023658));
#201 = CARTESIAN_POINT('',(-475.4742151355,60.668068055664,3.42686697836
    ));
#202 = CARTESIAN_POINT('',(-475.1036661981,60.634683601859,
    3.966093063332));
#203 = CARTESIAN_POINT('',(-474.6896539016,60.600610822309,
    4.440096483405));
#204 = CARTESIAN_POINT('',(-474.2435482274,60.567857837334,
    4.850319207924));
#205 = CARTESIAN_POINT('',(-473.7745842484,60.537849378983,
    5.199168860302));
#206 = CARTESIAN_POINT('',(-472.8470706376,60.487416685399,5.75509912425
    ));
#207 = CARTESIAN_POINT('',(-472.3890409534,60.466287313281,
    5.972891645339));
#208 = CARTESIAN_POINT('',(-471.9206007746,60.448829749935,
    6.144872360558));
#209 = CARTESIAN_POINT('',(-471.4450526109,60.435479692248,
    6.272698912787));
#210 = CARTESIAN_POINT('',(-470.9649829234,60.426493109289,
    6.357543957828));
#211 = CARTESIAN_POINT('',(-470.4826005716,60.421995994836,6.4));
#212 = CARTESIAN_POINT('',(-469.645313086,60.421995994836,6.4));
#213 = CARTESIAN_POINT('',(-469.2906707766,60.424425090636,6.37706711461
    ));
#214 = CARTESIAN_POINT('',(-468.9369510501,60.429282105786,
    6.331212138683));
#215 = CARTESIAN_POINT('',(-468.5850479472,60.43652941399,6.262267580208
    ));
#216 = CARTESIAN_POINT('',(-468.2359383505,60.446091297947,
    6.169901418062));
#217 = CARTESIAN_POINT('',(-467.8907493271,60.457846307106,
    6.053629846737));
#218 = CARTESIAN_POINT('',(-467.2718534257,60.482912344532,
    5.797274770676));
#219 = CARTESIAN_POINT('',(-466.996428171,60.495566442089,5.665199239773
    ));
#220 = CARTESIAN_POINT('',(-466.7252415989,60.509477973008,
    5.516236294721));
#221 = CARTESIAN_POINT('',(-466.4591142725,60.524523128272,
    5.349945326211));
#222 = CARTESIAN_POINT('',(-466.1990336448,60.540544236757,
    5.165835347953));
#223 = CARTESIAN_POINT('',(-465.9461917156,60.557341778144,
    4.963389108366));
#224 = CARTESIAN_POINT('',(-465.5271316471,60.587075506347,
    4.583575201583));
#225 = CARTESIAN_POINT('',(-465.3566393725,60.599758573064,
    4.415343265161));
#226 = CARTESIAN_POINT('',(-465.1911366085,60.612620375946,
    4.237243756855));
#227 = CARTESIAN_POINT('',(-465.0312699893,60.625551362788,
    4.049145860575));
#228 = CARTESIAN_POINT('',(-464.8777489675,60.638427607279,
    3.850944093783));
#229 = CARTESIAN_POINT('',(-464.7313527413,60.651110767051,
    3.642566820995));
#230 = CARTESIAN_POINT('',(-464.494400651,60.672230813443,3.2683785801)
  );
#231 = CARTESIAN_POINT('',(-464.3998954457,60.680839498953,
    3.107579944937));
#232 = CARTESIAN_POINT('',(-464.3098022559,60.689212816686,
    2.941686175187));
#233 = CARTESIAN_POINT('',(-464.2244979208,60.697287142843,
    2.770816680364));
#234 = CARTESIAN_POINT('',(-464.1443555073,60.704997623356,
    2.595112974252));
#235 = CARTESIAN_POINT('',(-464.0697443888,60.712279285816,
    2.414738683064));
#236 = CARTESIAN_POINT('',(-463.8919385637,60.729846283887,
    1.936393674981));
#237 = CARTESIAN_POINT('',(-463.7974958753,60.739403487141,
    1.631026388806));
#238 = CARTESIAN_POINT('',(-463.7197411587,60.747428998446,1.31570329402
    ));
#239 = CARTESIAN_POINT('',(-463.6602502458,60.753653582056,
    0.992577619692));
#240 = CARTESIAN_POINT('',(-463.6201281814,60.757879896214,
    0.663967277947));
#241 = CARTESIAN_POINT('',(-463.6,60.76,0.332290492104));
#242 = CARTESIAN_POINT('',(-463.6,60.76,8.881784197001E-16));
#243 = PCURVE('',#69,#244);
#244 = DEFINITIONAL_REPRESENTATION('',(#245),#338);
#245 = B_SPLINE_CURVE_WITH_KNOTS('',7,(#246,#247,#248,#249,#250,#251,
    #252,#253,#254,#255,#256,#257,#258,#259,#260,#261,#262,#263,#264,
    #265,#266,#267,#268,#269,#270,#271,#272,#273,#274,#275,#276,#277,
    #278,#279,#280,#281,#282,#283,#284,#285,#286,#287,#288,#289,#290,
    #291,#292,#293,#294,#295,#296,#297,#298,#299,#300,#301,#302,#303,
    #304,#305,#306,#307,#308,#309,#310,#311,#312,#313,#314,#315,#316,
    #317,#318,#319,#320,#321,#322,#323,#324,#325,#326,#327,#328,#329,
    #330,#331,#332,#333,#334,#335,#336,#337),.UNSPECIFIED.,.T.,.F.,(8,6,
    6,6,6,6,6,6,6,6,6,6,6,6,6,8),(0.,4.762936027418E-02,
    7.762985677185E-02,0.119771947138,0.178607402497,0.250297381999,
    0.347841508187,0.45444037348,0.545559629473,0.652158494766,
    0.749702620955,0.821392600457,0.880228051928,0.922370143194,
    0.952370639713,1.),.UNSPECIFIED.);
#246 = CARTESIAN_POINT('',(1.570796326795,136.4));
#247 = CARTESIAN_POINT('',(1.565327424689,136.4));
#248 = CARTESIAN_POINT('',(1.55986862291,136.3798718186));
#249 = CARTESIAN_POINT('',(1.554460022884,136.33974975411));
#250 = CARTESIAN_POINT('',(1.549141159132,136.28025884121));
#251 = CARTESIAN_POINT('',(1.543949974471,136.20250412462));
#252 = CARTESIAN_POINT('',(1.538921792633,136.10806143627));
#253 = CARTESIAN_POINT('',(1.531043789514,135.93025561109));
#254 = CARTESIAN_POINT('',(1.52807275574,135.85564449264));
#255 = CARTESIAN_POINT('',(1.525178234348,135.77550207915));
#256 = CARTESIAN_POINT('',(1.522362919914,135.69019774402));
#257 = CARTESIAN_POINT('',(1.519629152945,135.60010455424));
#258 = CARTESIAN_POINT('',(1.516978918589,135.50559934889));
#259 = CARTESIAN_POINT('',(1.510810653375,135.26864726149));
#260 = CARTESIAN_POINT('',(1.507374825708,135.12225102918));
#261 = CARTESIAN_POINT('',(1.504105947267,134.96873000832));
#262 = CARTESIAN_POINT('',(1.50100292442,134.80886339431));
#263 = CARTESIAN_POINT('',(1.49806411831,134.64336063065));
#264 = CARTESIAN_POINT('',(1.495287478184,134.47286834932));
#265 = CARTESIAN_POINT('',(1.489017300551,134.05380826798));
#266 = CARTESIAN_POINT('',(1.485673986946,133.80096637287));
#267 = CARTESIAN_POINT('',(1.482632454261,133.54088574069));
#268 = CARTESIAN_POINT('',(1.479884448918,133.27475838629));
#269 = CARTESIAN_POINT('',(1.477422130074,133.00357181158));
#270 = CARTESIAN_POINT('',(1.475238456286,132.72814659268));
#271 = CARTESIAN_POINT('',(1.470999193128,132.10925067283));
#272 = CARTESIAN_POINT('',(1.46907582832,131.76406164948));
#273 = CARTESIAN_POINT('',(1.467547528252,131.41495205277));
#274 = CARTESIAN_POINT('',(1.466406573473,131.0630489498));
#275 = CARTESIAN_POINT('',(1.465647661701,130.70932922332));
#276 = CARTESIAN_POINT('',(1.46526811633,130.35468691394));
#277 = CARTESIAN_POINT('',(1.46526811633,129.51739942831));
#278 = CARTESIAN_POINT('',(1.465970775789,129.03501707655));
#279 = CARTESIAN_POINT('',(1.467374981214,128.55494738908));
#280 = CARTESIAN_POINT('',(1.469490218046,128.07939922532));
#281 = CARTESIAN_POINT('',(1.472335228725,127.61095904652));
#282 = CARTESIAN_POINT('',(1.475936460507,127.15292936231));
#283 = CARTESIAN_POINT('',(1.485123641954,126.22541575158));
#284 = CARTESIAN_POINT('',(1.490886219729,125.75645177254));
#285 = CARTESIAN_POINT('',(1.497659010589,125.3103460983));
#286 = CARTESIAN_POINT('',(1.505479895898,124.89633380183));
#287 = CARTESIAN_POINT('',(1.514370657829,124.52578486444));
#288 = CARTESIAN_POINT('',(1.524329330001,124.2125478943));
#289 = CARTESIAN_POINT('',(1.544683959079,123.77031134679));
#290 = CARTESIAN_POINT('',(1.55480794006,123.62113008743));
#291 = CARTESIAN_POINT('',(1.565411346686,123.54257058884));
#292 = CARTESIAN_POINT('',(1.576181306904,123.54257058884));
#293 = CARTESIAN_POINT('',(1.586784713529,123.62113008743));
#294 = CARTESIAN_POINT('',(1.596908694511,123.77031134679));
#295 = CARTESIAN_POINT('',(1.617263323589,124.2125478943));
#296 = CARTESIAN_POINT('',(1.627221995761,124.52578486444));
#297 = CARTESIAN_POINT('',(1.636112757692,124.89633380183));
#298 = CARTESIAN_POINT('',(1.643933643001,125.3103460983));
#299 = CARTESIAN_POINT('',(1.65070643386,125.75645177254));
#300 = CARTESIAN_POINT('',(1.656469011635,126.22541575158));
#301 = CARTESIAN_POINT('',(1.665656193083,127.15292936232));
#302 = CARTESIAN_POINT('',(1.669257424864,127.61095904651));
#303 = CARTESIAN_POINT('',(1.672102435544,128.07939922532));
#304 = CARTESIAN_POINT('',(1.674217672376,128.55494738908));
#305 = CARTESIAN_POINT('',(1.675621877801,129.03501707655));
#306 = CARTESIAN_POINT('',(1.67632453726,129.51739942831));
#307 = CARTESIAN_POINT('',(1.67632453726,130.35468691394));
#308 = CARTESIAN_POINT('',(1.675944991889,130.70932922332));
#309 = CARTESIAN_POINT('',(1.675186080117,131.0630489498));
#310 = CARTESIAN_POINT('',(1.674045125338,131.41495205277));
#311 = CARTESIAN_POINT('',(1.672516825269,131.76406164948));
#312 = CARTESIAN_POINT('',(1.670593460462,132.10925067284));
#313 = CARTESIAN_POINT('',(1.66635419743,132.72814657424));
#314 = CARTESIAN_POINT('',(1.66417052332,133.00357182897));
#315 = CARTESIAN_POINT('',(1.661708204566,133.27475840105));
#316 = CARTESIAN_POINT('',(1.658960199521,133.54088572743));
#317 = CARTESIAN_POINT('',(1.655918666821,133.80096635516));
#318 = CARTESIAN_POINT('',(1.652575352794,134.05380828434));
#319 = CARTESIAN_POINT('',(1.646305175352,134.47286835289));
#320 = CARTESIAN_POINT('',(1.643528535346,134.64336062746));
#321 = CARTESIAN_POINT('',(1.640589729214,134.80886339146));
#322 = CARTESIAN_POINT('',(1.637486706263,134.96873001066));
#323 = CARTESIAN_POINT('',(1.634217827818,135.12225103249));
#324 = CARTESIAN_POINT('',(1.63078200029,135.26864725861));
#325 = CARTESIAN_POINT('',(1.624613735,135.5055993489));
#326 = CARTESIAN_POINT('',(1.621963500644,135.60010455424));
#327 = CARTESIAN_POINT('',(1.619229733676,135.69019774401));
#328 = CARTESIAN_POINT('',(1.616414419242,135.77550207914));
#329 = CARTESIAN_POINT('',(1.613519897849,135.85564449264));
#330 = CARTESIAN_POINT('',(1.610548864075,135.9302556111));
#331 = CARTESIAN_POINT('',(1.602670860959,136.10806143621));
#332 = CARTESIAN_POINT('',(1.597642679118,136.20250412464));
#333 = CARTESIAN_POINT('',(1.592451494455,136.28025884125));
#334 = CARTESIAN_POINT('',(1.587132630704,136.33974975411));
#335 = CARTESIAN_POINT('',(1.58172403068,136.37987181859));
#336 = CARTESIAN_POINT('',(1.576265228903,136.4));
#337 = CARTESIAN_POINT('',(1.570796326795,136.4));
#338 = ( GEOMETRIC_REPRESENTATION_CONTEXT(2) 
PARAMETRIC_REPRESENTATION_CONTEXT() REPRESENTATION_CONTEXT('2D SPACE',''
  ) );
#339 = PCURVE('',#340,#345);
#340 = CYLINDRICAL_SURFACE('',#341,6.4);
#341 = AXIS2_PLACEMENT_3D('',#342,#343,#344);
#342 = CARTESIAN_POINT('',(-470.,48.,0.));
#343 = DIRECTION('',(0.,1.,1.110223024625E-16));
#344 = DIRECTION('',(1.,0.,0.));
#345 = DEFINITIONAL_REPRESENTATION('',(#346),#439);
#346 = B_SPLINE_CURVE_WITH_KNOTS('',7,(#347,#348,#349,#350,#351,#352,
    #353,#354,#355,#356,#357,#358,#359,#360,#361,#362,#363,#364,#365,
    #366,#367,#368,#369,#370,#371,#372,#373,#374,#375,#376,#377,#378,
    #379,#380,#381,#382,#383,#384,#385,#386,#387,#388,#389,#390,#391,
    #392,#393,#394,#395,#396,#397,#398,#399,#400,#401,#402,#403,#404,
    #405,#406,#407,#408,#409,#410,#411,#412,#413,#414,#415,#416,#417,
    #418,#419,#420,#421,#422,#423,#424,#425,#426,#427,#428,#429,#430,
    #431,#432,#433,#434,#435,#436,#437,#438),.UNSPECIFIED.,.F.,.F.,(8,6,
    6,6,6,6,6,6,6,6,6,6,6,6,6,8),(0.,4.762936027418E-02,
    7.762985677185E-02,0.119771947138,0.178607402497,0.250297381999,
    0.347841508187,0.45444037348,0.545559629473,0.652158494766,
    0.749702620955,0.821392600457,0.880228051928,0.922370143194,
    0.952370639713,1.),.UNSPECIFIED.);
#347 = CARTESIAN_POINT('',(0.,12.76));
#348 = CARTESIAN_POINT('',(5.192038937226E-02,12.76));
#349 = CARTESIAN_POINT('',(0.103744883983,12.757879896216));
#350 = CARTESIAN_POINT('',(0.1553188715,12.753653582056));
#351 = CARTESIAN_POINT('',(0.206489241725,12.747428998443));
#352 = CARTESIAN_POINT('',(0.257095478738,12.739403487139));
#353 = CARTESIAN_POINT('',(0.306960828622,12.729846283893));
#354 = CARTESIAN_POINT('',(0.3866986893,12.712279285816));
#355 = CARTESIAN_POINT('',(0.417178034312,12.704997623356));
#356 = CARTESIAN_POINT('',(0.447322229887,12.697287142844));
#357 = CARTESIAN_POINT('',(0.477130340644,12.689212816686));
#358 = CARTESIAN_POINT('',(0.506599840491,12.680839498953));
#359 = CARTESIAN_POINT('',(0.535726609362,12.672230813442));
#360 = CARTESIAN_POINT('',(0.60493021379,12.651110767307));
#361 = CARTESIAN_POINT('',(0.644675570743,12.638427607021));
#362 = CARTESIAN_POINT('',(0.683780997051,12.625551362581));
#363 = CARTESIAN_POINT('',(0.722282676889,12.61262037615));
#364 = CARTESIAN_POINT('',(0.760213727612,12.599758573322));
#365 = CARTESIAN_POINT('',(0.797604945019,12.587075506094));
#366 = CARTESIAN_POINT('',(0.885975332038,12.557341776983));
#367 = CARTESIAN_POINT('',(0.936490865441,12.540544237697));
#368 = CARTESIAN_POINT('',(0.986142740082,12.524523129197));
#369 = CARTESIAN_POINT('',(1.035033392151,12.509477972387));
#370 = CARTESIAN_POINT('',(1.083259826401,12.495566441088));
#371 = CARTESIAN_POINT('',(1.130916339785,12.482912345279));
#372 = CARTESIAN_POINT('',(1.235586357978,12.457846307106));
#373 = CARTESIAN_POINT('',(1.292368933329,12.446091297947));
#374 = CARTESIAN_POINT('',(1.348598246931,12.43652941399));
#375 = CARTESIAN_POINT('',(1.404416993921,12.429282105786));
#376 = CARTESIAN_POINT('',(1.459963601545,12.424425090636));
#377 = CARTESIAN_POINT('',(1.515376496491,12.421995994836));
#378 = CARTESIAN_POINT('',(1.64620266612,12.421995994836));
#379 = CARTESIAN_POINT('',(1.721575214253,12.426493109289));
#380 = CARTESIAN_POINT('',(1.797285376079,12.435479692248));
#381 = CARTESIAN_POINT('',(1.873689340659,12.448829749935));
#382 = CARTESIAN_POINT('',(1.951142977588,12.46628731328));
#383 = CARTESIAN_POINT('',(2.030023452842,12.487416685399));
#384 = CARTESIAN_POINT('',(2.198985989461,12.537849378983));
#385 = CARTESIAN_POINT('',(2.289858972249,12.567857837334));
#386 = CARTESIAN_POINT('',(2.383721490666,12.600610822309));
#387 = CARTESIAN_POINT('',(2.480948709964,12.634683601859));
#388 = CARTESIAN_POINT('',(2.581990275108,12.668068055663));
#389 = CARTESIAN_POINT('',(2.687396820201,12.698071739607));
#390 = CARTESIAN_POINT('',(2.892506768907,12.741958254846));
#391 = CARTESIAN_POINT('',(2.990831229433,12.757551779708));
#392 = CARTESIAN_POINT('',(3.091129850528,12.766170561761));
#393 = CARTESIAN_POINT('',(3.192055456652,12.766170561761));
#394 = CARTESIAN_POINT('',(3.292354077747,12.757551779708));
#395 = CARTESIAN_POINT('',(3.390678538272,12.741958254846));
#396 = CARTESIAN_POINT('',(3.595788486979,12.698071739607));
#397 = CARTESIAN_POINT('',(3.701195032071,12.668068055664));
#398 = CARTESIAN_POINT('',(3.802236597217,12.634683601859));
#399 = CARTESIAN_POINT('',(3.899463816513,12.600610822309));
#400 = CARTESIAN_POINT('',(3.993326334931,12.567857837334));
#401 = CARTESIAN_POINT('',(4.084199317719,12.537849378983));
#402 = CARTESIAN_POINT('',(4.253161854338,12.487416685399));
#403 = CARTESIAN_POINT('',(4.332042329592,12.466287313281));
#404 = CARTESIAN_POINT('',(4.40949596652,12.448829749935));
#405 = CARTESIAN_POINT('',(4.485899931101,12.435479692248));
#406 = CARTESIAN_POINT('',(4.561610092927,12.426493109289));
#407 = CARTESIAN_POINT('',(4.636982641059,12.421995994836));
#408 = CARTESIAN_POINT('',(4.767808810689,12.421995994836));
#409 = CARTESIAN_POINT('',(4.823221705635,12.424425090636));
#410 = CARTESIAN_POINT('',(4.878768313259,12.429282105786));
#411 = CARTESIAN_POINT('',(4.934587060249,12.43652941399));
#412 = CARTESIAN_POINT('',(4.990816373851,12.446091297947));
#413 = CARTESIAN_POINT('',(5.047598949201,12.457846307106));
#414 = CARTESIAN_POINT('',(5.152268964276,12.482912344532));
#415 = CARTESIAN_POINT('',(5.199925484105,12.495566442089));
#416 = CARTESIAN_POINT('',(5.248151917544,12.509477973008));
#417 = CARTESIAN_POINT('',(5.297042564337,12.524523128272));
#418 = CARTESIAN_POINT('',(5.346694438461,12.540544236757));
#419 = CARTESIAN_POINT('',(5.397209978592,12.557341778144));
#420 = CARTESIAN_POINT('',(5.485580362914,12.587075506347));
#421 = CARTESIAN_POINT('',(5.522971578761,12.599758573064));
#422 = CARTESIAN_POINT('',(5.560902629682,12.612620375946));
#423 = CARTESIAN_POINT('',(5.599404310799,12.625551362788));
#424 = CARTESIAN_POINT('',(5.638509737231,12.638427607279));
#425 = CARTESIAN_POINT('',(5.678255092551,12.651110767051));
#426 = CARTESIAN_POINT('',(5.747458697821,12.672230813443));
#427 = CARTESIAN_POINT('',(5.776585466689,12.680839498953));
#428 = CARTESIAN_POINT('',(5.806054966533,12.689212816686));
#429 = CARTESIAN_POINT('',(5.83586307729,12.697287142843));
#430 = CARTESIAN_POINT('',(5.866007272868,12.704997623356));
#431 = CARTESIAN_POINT('',(5.896486617883,12.712279285816));
#432 = CARTESIAN_POINT('',(5.976224478532,12.729846283887));
#433 = CARTESIAN_POINT('',(6.026089828444,12.739403487141));
#434 = CARTESIAN_POINT('',(6.076696065475,12.747428998446));
#435 = CARTESIAN_POINT('',(6.127866435694,12.753653582056));
#436 = CARTESIAN_POINT('',(6.17944042319,12.757879896214));
#437 = CARTESIAN_POINT('',(6.231264917788,12.76));
#438 = CARTESIAN_POINT('',(6.28318530718,12.76));
#439 = ( GEOMETRIC_REPRESENTATION_CONTEXT(2) 
PARAMETRIC_REPRESENTATION_CONTEXT() REPRESENTATION_CONTEXT('2D SPACE',''
  ) );
#440 = ADVANCED_FACE('',(#441),#81,.T.);
#441 = FACE_BOUND('',#442,.F.);
#442 = EDGE_LOOP('',(#443,#465,#466,#467));
#443 = ORIENTED_EDGE('',*,*,#444,.F.);
#444 = EDGE_CURVE('',#60,#445,#447,.T.);
#445 = VERTEX_POINT('',#446);
#446 = CARTESIAN_POINT('',(-600.,0.,-38.76));
#447 = SEAM_CURVE('',#448,(#453,#459),.PCURVE_S1.);
#448 = CIRCLE('',#449,22.);
#449 = AXIS2_PLACEMENT_3D('',#450,#451,#452);
#450 = CARTESIAN_POINT('',(-578.,0.,-38.76));
#451 = DIRECTION('',(0.,1.,0.));
#452 = DIRECTION('',(1.110223024625E-16,0.,-1.));
#453 = PCURVE('',#81,#454);
#454 = DEFINITIONAL_REPRESENTATION('',(#455),#458);
#455 = B_SPLINE_CURVE_WITH_KNOTS('',1,(#456,#457),.UNSPECIFIED.,.F.,.F.,
  (2,2),(0.,1.570796326795),.PIECEWISE_BEZIER_KNOTS.);
#456 = CARTESIAN_POINT('',(0.,0.));
#457 = CARTESIAN_POINT('',(0.,1.570796326795));
#458 = ( GEOMETRIC_REPRESENTATION_CONTEXT(2) 
PARAMETRIC_REPRESENTATION_CONTEXT() REPRESENTATION_CONTEXT('2D SPACE',''
  ) );
#459 = PCURVE('',#81,#460);
#460 = DEFINITIONAL_REPRESENTATION('',(#461),#464);
#461 = B_SPLINE_CURVE_WITH_KNOTS('',1,(#462,#463),.UNSPECIFIED.,.F.,.F.,
  (2,2),(0.,1.570796326795),.PIECEWISE_BEZIER_KNOTS.);
#462 = CARTESIAN_POINT('',(-6.28318530718,0.));
#463 = CARTESIAN_POINT('',(-6.28318530718,1.570796326795));
#464 = ( GEOMETRIC_REPRESENTATION_CONTEXT(2) 
PARAMETRIC_REPRESENTATION_CONTEXT() REPRESENTATION_CONTEXT('2D SPACE',''
  ) );
#465 = ORIENTED_EDGE('',*,*,#59,.F.);
#466 = ORIENTED_EDGE('',*,*,#444,.T.);
#467 = ORIENTED_EDGE('',*,*,#468,.T.);
#468 = EDGE_CURVE('',#445,#445,#469,.T.);
#469 = SURFACE_CURVE('',#470,(#475,#482),.PCURVE_S1.);
#470 = CIRCLE('',#471,38.76);
#471 = AXIS2_PLACEMENT_3D('',#472,#473,#474);
#472 = CARTESIAN_POINT('',(-600.,0.,0.));
#473 = DIRECTION('',(1.,0.,1.110223024625E-16));
#474 = DIRECTION('',(1.110223024625E-16,0.,-1.));
#475 = PCURVE('',#81,#476);
#476 = DEFINITIONAL_REPRESENTATION('',(#477),#481);
#477 = LINE('',#478,#479);
#478 = CARTESIAN_POINT('',(0.,1.570796326795));
#479 = VECTOR('',#480,1.);
#480 = DIRECTION('',(-1.,0.));
#481 = ( GEOMETRIC_REPRESENTATION_CONTEXT(2) 
PARAMETRIC_REPRESENTATION_CONTEXT() REPRESENTATION_CONTEXT('2D SPACE',''
  ) );
#482 = PCURVE('',#483,#488);
#483 = PLANE('',#484);
#484 = AXIS2_PLACEMENT_3D('',#485,#486,#487);
#485 = CARTESIAN_POINT('',(-600.,0.,0.));
#486 = DIRECTION('',(1.,0.,1.110223024625E-16));
#487 = DIRECTION('',(1.110223024625E-16,0.,-1.));
#488 = DEFINITIONAL_REPRESENTATION('',(#489),#493);
#489 = CIRCLE('',#490,38.76);
#490 = AXIS2_PLACEMENT_2D('',#491,#492);
#491 = CARTESIAN_POINT('',(0.,0.));
#492 = DIRECTION('',(1.,0.));
#493 = ( GEOMETRIC_REPRESENTATION_CONTEXT(2) 
PARAMETRIC_REPRESENTATION_CONTEXT() REPRESENTATION_CONTEXT('2D SPACE',''
  ) );
#494 = ADVANCED_FACE('',(#495),#131,.T.);
#495 = FACE_BOUND('',#496,.T.);
#496 = EDGE_LOOP('',(#497));
#497 = ORIENTED_EDGE('',*,*,#116,.T.);
#498 = ADVANCED_FACE('',(#499),#340,.F.);
#499 = FACE_BOUND('',#500,.F.);
#500 = EDGE_LOOP('',(#501,#502,#525,#552));
#501 = ORIENTED_EDGE('',*,*,#146,.F.);
#502 = ORIENTED_EDGE('',*,*,#503,.F.);
#503 = EDGE_CURVE('',#504,#147,#506,.T.);
#504 = VERTEX_POINT('',#505);
#505 = CARTESIAN_POINT('',(-463.6,48.,1.567547902909E-15));
#506 = SEAM_CURVE('',#507,(#511,#518),.PCURVE_S1.);
#507 = LINE('',#508,#509);
#508 = CARTESIAN_POINT('',(-463.6,48.,1.567547902909E-15));
#509 = VECTOR('',#510,1.);
#510 = DIRECTION('',(0.,1.,1.110223024625E-16));
#511 = PCURVE('',#340,#512);
#512 = DEFINITIONAL_REPRESENTATION('',(#513),#517);
#513 = LINE('',#514,#515);
#514 = CARTESIAN_POINT('',(6.28318530718,0.));
#515 = VECTOR('',#516,1.);
#516 = DIRECTION('',(0.,1.));
#517 = ( GEOMETRIC_REPRESENTATION_CONTEXT(2) 
PARAMETRIC_REPRESENTATION_CONTEXT() REPRESENTATION_CONTEXT('2D SPACE',''
  ) );
#518 = PCURVE('',#340,#519);
#519 = DEFINITIONAL_REPRESENTATION('',(#520),#524);
#520 = LINE('',#521,#522);
#521 = CARTESIAN_POINT('',(0.,0.));
#522 = VECTOR('',#523,1.);
#523 = DIRECTION('',(0.,1.));
#524 = ( GEOMETRIC_REPRESENTATION_CONTEXT(2) 
PARAMETRIC_REPRESENTATION_CONTEXT() REPRESENTATION_CONTEXT('2D SPACE',''
  ) );
#525 = ORIENTED_EDGE('',*,*,#526,.T.);
#526 = EDGE_CURVE('',#504,#504,#527,.T.);
#527 = SURFACE_CURVE('',#528,(#533,#540),.PCURVE_S1.);
#528 = CIRCLE('',#529,6.4);
#529 = AXIS2_PLACEMENT_3D('',#530,#531,#532);
#530 = CARTESIAN_POINT('',(-470.,48.,0.));
#531 = DIRECTION('',(0.,1.,1.110223024625E-16));
#532 = DIRECTION('',(1.,0.,0.));
#533 = PCURVE('',#340,#534);
#534 = DEFINITIONAL_REPRESENTATION('',(#535),#539);
#535 = LINE('',#536,#537);
#536 = CARTESIAN_POINT('',(0.,0.));
#537 = VECTOR('',#538,1.);
#538 = DIRECTION('',(1.,0.));
#539 = ( GEOMETRIC_REPRESENTATION_CONTEXT(2) 
PARAMETRIC_REPRESENTATION_CONTEXT() REPRESENTATION_CONTEXT('2D SPACE',''
  ) );
#540 = PCURVE('',#541,#546);
#541 = PLANE('',#542);
#542 = AXIS2_PLACEMENT_3D('',#543,#544,#545);
#543 = CARTESIAN_POINT('',(-470.,48.,0.));
#544 = DIRECTION('',(0.,1.,1.110223024625E-16));
#545 = DIRECTION('',(1.,0.,0.));
#546 = DEFINITIONAL_REPRESENTATION('',(#547),#551);
#547 = CIRCLE('',#548,6.4);
#548 = AXIS2_PLACEMENT_2D('',#549,#550);
#549 = CARTESIAN_POINT('',(0.,0.));
#550 = DIRECTION('',(1.,0.));
#551 = ( GEOMETRIC_REPRESENTATION_CONTEXT(2) 
PARAMETRIC_REPRESENTATION_CONTEXT() REPRESENTATION_CONTEXT('2D SPACE',''
  ) );
#552 = ORIENTED_EDGE('',*,*,#503,.T.);
#553 = ADVANCED_FACE('',(#554),#483,.F.);
#554 = FACE_BOUND('',#555,.F.);
#555 = EDGE_LOOP('',(#556));
#556 = ORIENTED_EDGE('',*,*,#468,.T.);
#557 = ADVANCED_FACE('',(#558),#541,.T.);
#558 = FACE_BOUND('',#559,.F.);
#559 = EDGE_LOOP('',(#560));
#560 = ORIENTED_EDGE('',*,*,#526,.F.);
#561 = ( GEOMETRIC_REPRESENTATION_CONTEXT(3) 
GLOBAL_UNCERTAINTY_ASSIGNED_CONTEXT((#565)) GLOBAL_UNIT_ASSIGNED_CONTEXT
((#562,#563,#564)) REPRESENTATION_CONTEXT('Context #1',
  '3D Context with UNIT and UNCERTAINTY') );
#562 = ( LENGTH_UNIT() NAMED_UNIT(*) SI_UNIT(.MILLI.,.METRE.) );
#563 = ( NAMED_UNIT(*) PLANE_ANGLE_UNIT() SI_UNIT($,.RADIAN.) );
#564 = ( NAMED_UNIT(*) SI_UNIT($,.STERADIAN.) SOLID_ANGLE_UNIT() );
#565 = UNCERTAINTY_MEASURE_WITH_UNIT(LENGTH_MEASURE(1.E-07),#562,
  'distance_accuracy_value','confusion accuracy');
#566 = CONTEXT_DEPENDENT_SHAPE_REPRESENTATION(#567,#569);
#567 = ( REPRESENTATION_RELATIONSHIP('','',#52,#10) 
REPRESENTATION_RELATIONSHIP_WITH_TRANSFORMATION(#568) 
SHAPE_REPRESENTATION_RELATIONSHIP() );
#568 = ITEM_DEFINED_TRANSFORMATION('','',#11,#15);
#569 = PRODUCT_DEFINITION_SHAPE('Placement','Placement of an item',#570
  );
#570 = NEXT_ASSEMBLY_USAGE_OCCURRENCE('1','turning_cap','',#5,#47,$);
#571 = PRODUCT_RELATED_PRODUCT_CATEGORY('part',$,(#49));
#572 = SHAPE_DEFINITION_REPRESENTATION(#573,#579);
#573 = PRODUCT_DEFINITION_SHAPE('','',#574);
#574 = PRODUCT_DEFINITION('design','',#575,#578);
#575 = PRODUCT_DEFINITION_FORMATION('','',#576);
#576 = PRODUCT('thruster_0','thruster_0','',(#577));
#577 = PRODUCT_CONTEXT('',#2,'mechanical');
#578 = PRODUCT_DEFINITION_CONTEXT('part definition',#2,'design');
#579 = ADVANCED_BREP_SHAPE_REPRESENTATION('',(#11,#580),#1032);
#580 = MANIFOLD_SOLID_BREP('',#581);
#581 = CLOSED_SHELL('',(#582,#670,#705,#740,#795,#850,#885,#920,#975,
    #1025));
#582 = ADVANCED_FACE('',(#583),#596,.T.);
#583 = FACE_BOUND('',#584,.T.);
#584 = EDGE_LOOP('',(#585,#619,#642,#669));
#585 = ORIENTED_EDGE('',*,*,#586,.F.);
#586 = EDGE_CURVE('',#587,#587,#589,.T.);
#587 = VERTEX_POINT('',#588);
#588 = CARTESIAN_POINT('',(12.,-2.939152317954E-15,4.));
#589 = SURFACE_CURVE('',#590,(#595,#607),.PCURVE_S1.);
#590 = CIRCLE('',#591,12.);
#591 = AXIS2_PLACEMENT_3D('',#592,#593,#594);
#592 = CARTESIAN_POINT('',(0.,0.,4.));
#593 = DIRECTION('',(0.,0.,1.));
#594 = DIRECTION('',(1.,0.,0.));
#595 = PCURVE('',#596,#601);
#596 = CYLINDRICAL_SURFACE('',#597,12.);
#597 = AXIS2_PLACEMENT_3D('',#598,#599,#600);
#598 = CARTESIAN_POINT('',(0.,0.,0.));
#599 = DIRECTION('',(0.,0.,1.));
#600 = DIRECTION('',(1.,0.,0.));
#601 = DEFINITIONAL_REPRESENTATION('',(#602),#606);
#602 = LINE('',#603,#604);
#603 = CARTESIAN_POINT('',(0.,4.));
#604 = VECTOR('',#605,1.);
#605 = DIRECTION('',(1.,0.));
#606 = ( GEOMETRIC_REPRESENTATION_CONTEXT(2) 
PARAMETRIC_REPRESENTATION_CONTEXT() REPRESENTATION_CONTEXT('2D SPACE',''
  ) );
#607 = PCURVE('',#608,#613);
#608 = PLANE('',#609);
#609 = AXIS2_PLACEMENT_3D('',#610,#611,#612);
#610 = CARTESIAN_POINT('',(0.,0.,4.));
#611 = DIRECTION('',(0.,0.,1.));
#612 = DIRECTION('',(1.,0.,0.));
#613 = DEFINITIONAL_REPRESENTATION('',(#614),#618);
#614 = CIRCLE('',#615,12.);
#615 = AXIS2_PLACEMENT_2D('',#616,#617);
#616 = CARTESIAN_POINT('',(0.,0.));
#617 = DIRECTION('',(1.,0.));
#618 = ( GEOMETRIC_REPRESENTATION_CONTEXT(2) 
PARAMETRIC_REPRESENTATION_CONTEXT() REPRESENTATION_CONTEXT('2D SPACE',''
  ) );
#619 = ORIENTED_EDGE('',*,*,#620,.T.);
#620 = EDGE_CURVE('',#587,#621,#623,.T.);
#621 = VERTEX_POINT('',#622);
#622 = CARTESIAN_POINT('',(12.,-2.939152317954E-15,0.));
#623 = SEAM_CURVE('',#624,(#628,#635),.PCURVE_S1.);
#624 = LINE('',#625,#626);
#625 = CARTESIAN_POINT('',(12.,-2.939152317954E-15,4.));
#626 = VECTOR('',#627,1.);
#627 = DIRECTION('',(0.,0.,-1.));
#628 = PCURVE('',#596,#629);
#629 = DEFINITIONAL_REPRESENTATION('',(#630),#634);
#630 = LINE('',#631,#632);
#631 = CARTESIAN_POINT('',(0.,4.));
#632 = VECTOR('',#633,1.);
#633 = DIRECTION('',(0.,-1.));
#634 = ( GEOMETRIC_REPRESENTATION_CONTEXT(2) 
PARAMETRIC_REPRESENTATION_CONTEXT() REPRESENTATION_CONTEXT('2D SPACE',''
  ) );
#635 = PCURVE('',#596,#636);
#636 = DEFINITIONAL_REPRESENTATION('',(#637),#641);
#637 = LINE('',#638,#639);
#638 = CARTESIAN_POINT('',(6.28318530718,4.));
#639 = VECTOR('',#640,1.);
#640 = DIRECTION('',(0.,-1.));
#641 = ( GEOMETRIC_REPRESENTATION_CONTEXT(2) 
PARAMETRIC_REPRESENTATION_CONTEXT() REPRESENTATION_CONTEXT('2D SPACE',''
  ) );
#642 = ORIENTED_EDGE('',*,*,#643,.T.);
#643 = EDGE_CURVE('',#621,#621,#644,.T.);
#644 = SURFACE_CURVE('',#645,(#650,#657),.PCURVE_S1.);
#645 = CIRCLE('',#646,12.);
#646 = AXIS2_PLACEMENT_3D('',#647,#648,#649);
#647 = CARTESIAN_POINT('',(0.,0.,0.));
#648 = DIRECTION('',(0.,0.,1.));
#649 = DIRECTION('',(1.,0.,0.));
#650 = PCURVE('',#596,#651);
#651 = DEFINITIONAL_REPRESENTATION('',(#652),#656);
#652 = LINE('',#653,#654);
#653 = CARTESIAN_POINT('',(0.,0.));
#654 = VECTOR('',#655,1.);
#655 = DIRECTION('',(1.,0.));
#656 = ( GEOMETRIC_REPRESENTATION_CONTEXT(2) 
PARAMETRIC_REPRESENTATION_CONTEXT() REPRESENTATION_CONTEXT('2D SPACE',''
  ) );
#657 = PCURVE('',#658,#663);
#658 = PLANE('',#659);
#659 = AXIS2_PLACEMENT_3D('',#660,#661,#662);
#660 = CARTESIAN_POINT('',(0.,0.,0.));
#661 = DIRECTION('',(0.,0.,1.));
#662 = DIRECTION('',(1.,0.,0.));
#663 = DEFINITIONAL_REPRESENTATION('',(#664),#668);
#664 = CIRCLE('',#665,12.);
#665 = AXIS2_PLACEMENT_2D('',#666,#667);
#666 = CARTESIAN_POINT('',(0.,0.));
#667 = DIRECTION('',(1.,0.));
#668 = ( GEOMETRIC_REPRESENTATION_CONTEXT(2) 
PARAMETRIC_REPRESENTATION_CONTEXT() REPRESENTATION_CONTEXT('2D SPACE',''
  ) );
#669 = ORIENTED_EDGE('',*,*,#620,.F.);
#670 = ADVANCED_FACE('',(#671,#674),#608,.T.);
#671 = FACE_BOUND('',#672,.T.);
#672 = EDGE_LOOP('',(#673));
#673 = ORIENTED_EDGE('',*,*,#586,.T.);
#674 = FACE_BOUND('',#675,.T.);
#675 = EDGE_LOOP('',(#676));
#676 = ORIENTED_EDGE('',*,*,#677,.F.);
#677 = EDGE_CURVE('',#678,#678,#680,.T.);
#678 = VERTEX_POINT('',#679);
#679 = CARTESIAN_POINT('',(11.444444444444,-2.803080451382E-15,4.));
#680 = SURFACE_CURVE('',#681,(#686,#693),.PCURVE_S1.);
#681 = CIRCLE('',#682,11.444444444444);
#682 = AXIS2_PLACEMENT_3D('',#683,#684,#685);
#683 = CARTESIAN_POINT('',(0.,0.,4.));
#684 = DIRECTION('',(0.,0.,1.));
#685 = DIRECTION('',(1.,0.,0.));
#686 = PCURVE('',#608,#687);
#687 = DEFINITIONAL_REPRESENTATION('',(#688),#692);
#688 = CIRCLE('',#689,11.444444444444);
#689 = AXIS2_PLACEMENT_2D('',#690,#691);
#690 = CARTESIAN_POINT('',(0.,0.));
#691 = DIRECTION('',(1.,0.));
#692 = ( GEOMETRIC_REPRESENTATION_CONTEXT(2) 
PARAMETRIC_REPRESENTATION_CONTEXT() REPRESENTATION_CONTEXT('2D SPACE',''
  ) );
#693 = PCURVE('',#694,#699);
#694 = CONICAL_SURFACE('',#695,12.,0.507098504392);
#695 = AXIS2_PLACEMENT_3D('',#696,#697,#698);
#696 = CARTESIAN_POINT('',(0.,0.,3.));
#697 = DIRECTION('',(0.,0.,-1.));
#698 = DIRECTION('',(1.,0.,0.));
#699 = DEFINITIONAL_REPRESENTATION('',(#700),#704);
#700 = LINE('',#701,#702);
#701 = CARTESIAN_POINT('',(0.,-1.));
#702 = VECTOR('',#703,1.);
#703 = DIRECTION('',(-1.,0.));
#704 = ( GEOMETRIC_REPRESENTATION_CONTEXT(2) 
PARAMETRIC_REPRESENTATION_CONTEXT() REPRESENTATION_CONTEXT('2D SPACE',''
  ) );
#705 = ADVANCED_FACE('',(#706,#709),#658,.F.);
#706 = FACE_BOUND('',#707,.F.);
#707 = EDGE_LOOP('',(#708));
#708 = ORIENTED_EDGE('',*,*,#643,.T.);
#709 = FACE_BOUND('',#710,.F.);
#710 = EDGE_LOOP('',(#711));
#711 = ORIENTED_EDGE('',*,*,#712,.F.);
#712 = EDGE_CURVE('',#713,#713,#715,.T.);
#713 = VERTEX_POINT('',#714);
#714 = CARTESIAN_POINT('',(5.546666666667,-1.358541515854E-15,0.));
#715 = SURFACE_CURVE('',#716,(#721,#728),.PCURVE_S1.);
#716 = CIRCLE('',#717,5.546666666667);
#717 = AXIS2_PLACEMENT_3D('',#718,#719,#720);
#718 = CARTESIAN_POINT('',(0.,0.,0.));
#719 = DIRECTION('',(0.,0.,1.));
#720 = DIRECTION('',(1.,0.,0.));
#721 = PCURVE('',#658,#722);
#722 = DEFINITIONAL_REPRESENTATION('',(#723),#727);
#723 = CIRCLE('',#724,5.546666666667);
#724 = AXIS2_PLACEMENT_2D('',#725,#726);
#725 = CARTESIAN_POINT('',(0.,0.));
#726 = DIRECTION('',(1.,0.));
#727 = ( GEOMETRIC_REPRESENTATION_CONTEXT(2) 
PARAMETRIC_REPRESENTATION_CONTEXT() REPRESENTATION_CONTEXT('2D SPACE',''
  ) );
#728 = PCURVE('',#729,#734);
#729 = CONICAL_SURFACE('',#730,5.5,0.229231933277);
#730 = AXIS2_PLACEMENT_3D('',#731,#732,#733);
#731 = CARTESIAN_POINT('',(0.,0.,-0.2));
#732 = DIRECTION('',(0.,0.,1.));
#733 = DIRECTION('',(1.,0.,0.));
#734 = DEFINITIONAL_REPRESENTATION('',(#735),#739);
#735 = LINE('',#736,#737);
#736 = CARTESIAN_POINT('',(0.,0.2));
#737 = VECTOR('',#738,1.);
#738 = DIRECTION('',(1.,0.));
#739 = ( GEOMETRIC_REPRESENTATION_CONTEXT(2) 
PARAMETRIC_REPRESENTATION_CONTEXT() REPRESENTATION_CONTEXT('2D SPACE',''
  ) );
#740 = ADVANCED_FACE('',(#741),#694,.T.);
#741 = FACE_BOUND('',#742,.T.);
#742 = EDGE_LOOP('',(#743,#772,#793,#794));
#743 = ORIENTED_EDGE('',*,*,#744,.F.);
#744 = EDGE_CURVE('',#745,#745,#747,.T.);
#745 = VERTEX_POINT('',#746);
#746 = CARTESIAN_POINT('',(9.833333333333,-2.408472038323E-15,6.9));
#747 = SURFACE_CURVE('',#748,(#753,#760),.PCURVE_S1.);
#748 = CIRCLE('',#749,9.833333333333);
#749 = AXIS2_PLACEMENT_3D('',#750,#751,#752);
#750 = CARTESIAN_POINT('',(0.,0.,6.9));
#751 = DIRECTION('',(0.,0.,1.));
#752 = DIRECTION('',(1.,0.,0.));
#753 = PCURVE('',#694,#754);
#754 = DEFINITIONAL_REPRESENTATION('',(#755),#759);
#755 = LINE('',#756,#757);
#756 = CARTESIAN_POINT('',(0.,-3.9));
#757 = VECTOR('',#758,1.);
#758 = DIRECTION('',(-1.,0.));
#759 = ( GEOMETRIC_REPRESENTATION_CONTEXT(2) 
PARAMETRIC_REPRESENTATION_CONTEXT() REPRESENTATION_CONTEXT('2D SPACE',''
  ) );
#760 = PCURVE('',#761,#766);
#761 = PLANE('',#762);
#762 = AXIS2_PLACEMENT_3D('',#763,#764,#765);
#763 = CARTESIAN_POINT('',(0.,0.,6.9));
#764 = DIRECTION('',(0.,0.,1.));
#765 = DIRECTION('',(1.,0.,0.));
#766 = DEFINITIONAL_REPRESENTATION('',(#767),#771);
#767 = CIRCLE('',#768,9.833333333333);
#768 = AXIS2_PLACEMENT_2D('',#769,#770);
#769 = CARTESIAN_POINT('',(0.,0.));
#770 = DIRECTION('',(1.,0.));
#771 = ( GEOMETRIC_REPRESENTATION_CONTEXT(2) 
PARAMETRIC_REPRESENTATION_CONTEXT() REPRESENTATION_CONTEXT('2D SPACE',''
  ) );
#772 = ORIENTED_EDGE('',*,*,#773,.F.);
#773 = EDGE_CURVE('',#678,#745,#774,.T.);
#774 = SEAM_CURVE('',#775,(#779,#786),.PCURVE_S1.);
#775 = LINE('',#776,#777);
#776 = CARTESIAN_POINT('',(12.,-2.939152317954E-15,3.));
#777 = VECTOR('',#778,1.);
#778 = DIRECTION('',(-0.485642931179,1.189482122393E-16,0.874157276122)
  );
#779 = PCURVE('',#694,#780);
#780 = DEFINITIONAL_REPRESENTATION('',(#781),#785);
#781 = LINE('',#782,#783);
#782 = CARTESIAN_POINT('',(-6.28318530718,0.));
#783 = VECTOR('',#784,1.);
#784 = DIRECTION('',(0.,-1.));
#785 = ( GEOMETRIC_REPRESENTATION_CONTEXT(2) 
PARAMETRIC_REPRESENTATION_CONTEXT() REPRESENTATION_CONTEXT('2D SPACE',''
  ) );
#786 = PCURVE('',#694,#787);
#787 = DEFINITIONAL_REPRESENTATION('',(#788),#792);
#788 = LINE('',#789,#790);
#789 = CARTESIAN_POINT('',(0.,0.));
#790 = VECTOR('',#791,1.);
#791 = DIRECTION('',(0.,-1.));
#792 = ( GEOMETRIC_REPRESENTATION_CONTEXT(2) 
PARAMETRIC_REPRESENTATION_CONTEXT() REPRESENTATION_CONTEXT('2D SPACE',''
  ) );
#793 = ORIENTED_EDGE('',*,*,#677,.T.);
#794 = ORIENTED_EDGE('',*,*,#773,.T.);
#795 = ADVANCED_FACE('',(#796),#729,.F.);
#796 = FACE_BOUND('',#797,.F.);
#797 = EDGE_LOOP('',(#798,#827,#848,#849));
#798 = ORIENTED_EDGE('',*,*,#799,.F.);
#799 = EDGE_CURVE('',#800,#800,#802,.T.);
#800 = VERTEX_POINT('',#801);
#801 = CARTESIAN_POINT('',(7.086666666667,-1.735732729992E-15,6.6));
#802 = SURFACE_CURVE('',#803,(#808,#815),.PCURVE_S1.);
#803 = CIRCLE('',#804,7.086666666667);
#804 = AXIS2_PLACEMENT_3D('',#805,#806,#807);
#805 = CARTESIAN_POINT('',(0.,0.,6.6));
#806 = DIRECTION('',(0.,0.,1.));
#807 = DIRECTION('',(1.,0.,0.));
#808 = PCURVE('',#729,#809);
#809 = DEFINITIONAL_REPRESENTATION('',(#810),#814);
#810 = LINE('',#811,#812);
#811 = CARTESIAN_POINT('',(0.,6.8));
#812 = VECTOR('',#813,1.);
#813 = DIRECTION('',(1.,0.));
#814 = ( GEOMETRIC_REPRESENTATION_CONTEXT(2) 
PARAMETRIC_REPRESENTATION_CONTEXT() REPRESENTATION_CONTEXT('2D SPACE',''
  ) );
#815 = PCURVE('',#816,#821);
#816 = PLANE('',#817);
#817 = AXIS2_PLACEMENT_3D('',#818,#819,#820);
#818 = CARTESIAN_POINT('',(0.,0.,6.6));
#819 = DIRECTION('',(0.,0.,1.));
#820 = DIRECTION('',(1.,0.,0.));
#821 = DEFINITIONAL_REPRESENTATION('',(#822),#826);
#822 = CIRCLE('',#823,7.086666666667);
#823 = AXIS2_PLACEMENT_2D('',#824,#825);
#824 = CARTESIAN_POINT('',(0.,0.));
#825 = DIRECTION('',(1.,0.));
#826 = ( GEOMETRIC_REPRESENTATION_CONTEXT(2) 
PARAMETRIC_REPRESENTATION_CONTEXT() REPRESENTATION_CONTEXT('2D SPACE',''
  ) );
#827 = ORIENTED_EDGE('',*,*,#828,.F.);
#828 = EDGE_CURVE('',#713,#800,#829,.T.);
#829 = SEAM_CURVE('',#830,(#834,#841),.PCURVE_S1.);
#830 = LINE('',#831,#832);
#831 = CARTESIAN_POINT('',(5.5,-1.347111479062E-15,-0.2));
#832 = VECTOR('',#833,1.);
#833 = DIRECTION('',(0.227229615606,-5.565520428478E-17,0.973841209742)
  );
#834 = PCURVE('',#729,#835);
#835 = DEFINITIONAL_REPRESENTATION('',(#836),#840);
#836 = LINE('',#837,#838);
#837 = CARTESIAN_POINT('',(6.28318530718,0.));
#838 = VECTOR('',#839,1.);
#839 = DIRECTION('',(0.,1.));
#840 = ( GEOMETRIC_REPRESENTATION_CONTEXT(2) 
PARAMETRIC_REPRESENTATION_CONTEXT() REPRESENTATION_CONTEXT('2D SPACE',''
  ) );
#841 = PCURVE('',#729,#842);
#842 = DEFINITIONAL_REPRESENTATION('',(#843),#847);
#843 = LINE('',#844,#845);
#844 = CARTESIAN_POINT('',(0.,0.));
#845 = VECTOR('',#846,1.);
#846 = DIRECTION('',(0.,1.));
#847 = ( GEOMETRIC_REPRESENTATION_CONTEXT(2) 
PARAMETRIC_REPRESENTATION_CONTEXT() REPRESENTATION_CONTEXT('2D SPACE',''
  ) );
#848 = ORIENTED_EDGE('',*,*,#712,.T.);
#849 = ORIENTED_EDGE('',*,*,#828,.T.);
#850 = ADVANCED_FACE('',(#851,#882),#761,.F.);
#851 = FACE_BOUND('',#852,.F.);
#852 = EDGE_LOOP('',(#853));
#853 = ORIENTED_EDGE('',*,*,#854,.T.);
#854 = EDGE_CURVE('',#855,#855,#857,.T.);
#855 = VERTEX_POINT('',#856);
#856 = CARTESIAN_POINT('',(10.2,-2.498279470261E-15,6.9));
#857 = SURFACE_CURVE('',#858,(#863,#870),.PCURVE_S1.);
#858 = CIRCLE('',#859,10.2);
#859 = AXIS2_PLACEMENT_3D('',#860,#861,#862);
#860 = CARTESIAN_POINT('',(0.,0.,6.9));
#861 = DIRECTION('',(0.,0.,1.));
#862 = DIRECTION('',(1.,0.,0.));
#863 = PCURVE('',#761,#864);
#864 = DEFINITIONAL_REPRESENTATION('',(#865),#869);
#865 = CIRCLE('',#866,10.2);
#866 = AXIS2_PLACEMENT_2D('',#867,#868);
#867 = CARTESIAN_POINT('',(0.,0.));
#868 = DIRECTION('',(1.,0.));
#869 = ( GEOMETRIC_REPRESENTATION_CONTEXT(2) 
PARAMETRIC_REPRESENTATION_CONTEXT() REPRESENTATION_CONTEXT('2D SPACE',''
  ) );
#870 = PCURVE('',#871,#876);
#871 = CYLINDRICAL_SURFACE('',#872,10.2);
#872 = AXIS2_PLACEMENT_3D('',#873,#874,#875);
#873 = CARTESIAN_POINT('',(0.,0.,6.9));
#874 = DIRECTION('',(0.,0.,1.));
#875 = DIRECTION('',(1.,0.,0.));
#876 = DEFINITIONAL_REPRESENTATION('',(#877),#881);
#877 = LINE('',#878,#879);
#878 = CARTESIAN_POINT('',(0.,0.));
#879 = VECTOR('',#880,1.);
#880 = DIRECTION('',(1.,0.));
#881 = ( GEOMETRIC_REPRESENTATION_CONTEXT(2) 
PARAMETRIC_REPRESENTATION_CONTEXT() REPRESENTATION_CONTEXT('2D SPACE',''
  ) );
#882 = FACE_BOUND('',#883,.F.);
#883 = EDGE_LOOP('',(#884));
#884 = ORIENTED_EDGE('',*,*,#744,.F.);
#885 = ADVANCED_FACE('',(#886,#917),#816,.T.);
#886 = FACE_BOUND('',#887,.T.);
#887 = EDGE_LOOP('',(#888));
#888 = ORIENTED_EDGE('',*,*,#889,.T.);
#889 = EDGE_CURVE('',#890,#890,#892,.T.);
#890 = VERTEX_POINT('',#891);
#891 = CARTESIAN_POINT('',(8.1,-1.983927814619E-15,6.6));
#892 = SURFACE_CURVE('',#893,(#898,#905),.PCURVE_S1.);
#893 = CIRCLE('',#894,8.1);
#894 = AXIS2_PLACEMENT_3D('',#895,#896,#897);
#895 = CARTESIAN_POINT('',(0.,0.,6.6));
#896 = DIRECTION('',(0.,0.,1.));
#897 = DIRECTION('',(1.,0.,0.));
#898 = PCURVE('',#816,#899);
#899 = DEFINITIONAL_REPRESENTATION('',(#900),#904);
#900 = CIRCLE('',#901,8.1);
#901 = AXIS2_PLACEMENT_2D('',#902,#903);
#902 = CARTESIAN_POINT('',(0.,0.));
#903 = DIRECTION('',(1.,0.));
#904 = ( GEOMETRIC_REPRESENTATION_CONTEXT(2) 
PARAMETRIC_REPRESENTATION_CONTEXT() REPRESENTATION_CONTEXT('2D SPACE',''
  ) );
#905 = PCURVE('',#906,#911);
#906 = CYLINDRICAL_SURFACE('',#907,8.1);
#907 = AXIS2_PLACEMENT_3D('',#908,#909,#910);
#908 = CARTESIAN_POINT('',(0.,0.,6.6));
#909 = DIRECTION('',(0.,0.,1.));
#910 = DIRECTION('',(1.,0.,0.));
#911 = DEFINITIONAL_REPRESENTATION('',(#912),#916);
#912 = LINE('',#913,#914);
#913 = CARTESIAN_POINT('',(0.,0.));
#914 = VECTOR('',#915,1.);
#915 = DIRECTION('',(1.,0.));
#916 = ( GEOMETRIC_REPRESENTATION_CONTEXT(2) 
PARAMETRIC_REPRESENTATION_CONTEXT() REPRESENTATION_CONTEXT('2D SPACE',''
  ) );
#917 = FACE_BOUND('',#918,.T.);
#918 = EDGE_LOOP('',(#919));
#919 = ORIENTED_EDGE('',*,*,#799,.F.);
#920 = ADVANCED_FACE('',(#921),#871,.T.);
#921 = FACE_BOUND('',#922,.T.);
#922 = EDGE_LOOP('',(#923,#952,#973,#974));
#923 = ORIENTED_EDGE('',*,*,#924,.F.);
#924 = EDGE_CURVE('',#925,#925,#927,.T.);
#925 = VERTEX_POINT('',#926);
#926 = CARTESIAN_POINT('',(10.2,-2.498279470261E-15,8.2));
#927 = SURFACE_CURVE('',#928,(#933,#940),.PCURVE_S1.);
#928 = CIRCLE('',#929,10.2);
#929 = AXIS2_PLACEMENT_3D('',#930,#931,#932);
#930 = CARTESIAN_POINT('',(0.,0.,8.2));
#931 = DIRECTION('',(0.,0.,1.));
#932 = DIRECTION('',(1.,0.,0.));
#933 = PCURVE('',#871,#934);
#934 = DEFINITIONAL_REPRESENTATION('',(#935),#939);
#935 = LINE('',#936,#937);
#936 = CARTESIAN_POINT('',(0.,1.3));
#937 = VECTOR('',#938,1.);
#938 = DIRECTION('',(1.,0.));
#939 = ( GEOMETRIC_REPRESENTATION_CONTEXT(2) 
PARAMETRIC_REPRESENTATION_CONTEXT() REPRESENTATION_CONTEXT('2D SPACE',''
  ) );
#940 = PCURVE('',#941,#946);
#941 = PLANE('',#942);
#942 = AXIS2_PLACEMENT_3D('',#943,#944,#945);
#943 = CARTESIAN_POINT('',(0.,0.,8.2));
#944 = DIRECTION('',(0.,0.,1.));
#945 = DIRECTION('',(1.,0.,0.));
#946 = DEFINITIONAL_REPRESENTATION('',(#947),#951);
#947 = CIRCLE('',#948,10.2);
#948 = AXIS2_PLACEMENT_2D('',#949,#950);
#949 = CARTESIAN_POINT('',(0.,0.));
#950 = DIRECTION('',(1.,0.));
#951 = ( GEOMETRIC_REPRESENTATION_CONTEXT(2) 
PARAMETRIC_REPRESENTATION_CONTEXT() REPRESENTATION_CONTEXT('2D SPACE',''
  ) );
#952 = ORIENTED_EDGE('',*,*,#953,.F.);
#953 = EDGE_CURVE('',#855,#925,#954,.T.);
#954 = SEAM_CURVE('',#955,(#959,#966),.PCURVE_S1.);
#955 = LINE('',#956,#957);
#956 = CARTESIAN_POINT('',(10.2,-2.498279470261E-15,6.9));
#957 = VECTOR('',#958,1.);
#958 = DIRECTION('',(0.,0.,1.));
#959 = PCURVE('',#871,#960);
#960 = DEFINITIONAL_REPRESENTATION('',(#961),#965);
#961 = LINE('',#962,#963);
#962 = CARTESIAN_POINT('',(6.28318530718,0.));
#963 = VECTOR('',#964,1.);
#964 = DIRECTION('',(0.,1.));
#965 = ( GEOMETRIC_REPRESENTATION_CONTEXT(2) 
PARAMETRIC_REPRESENTATION_CONTEXT() REPRESENTATION_CONTEXT('2D SPACE',''
  ) );
#966 = PCURVE('',#871,#967);
#967 = DEFINITIONAL_REPRESENTATION('',(#968),#972);
#968 = LINE('',#969,#970);
#969 = CARTESIAN_POINT('',(0.,0.));
#970 = VECTOR('',#971,1.);
#971 = DIRECTION('',(0.,1.));
#972 = ( GEOMETRIC_REPRESENTATION_CONTEXT(2) 
PARAMETRIC_REPRESENTATION_CONTEXT() REPRESENTATION_CONTEXT('2D SPACE',''
  ) );
#973 = ORIENTED_EDGE('',*,*,#854,.T.);
#974 = ORIENTED_EDGE('',*,*,#953,.T.);
#975 = ADVANCED_FACE('',(#976),#906,.F.);
#976 = FACE_BOUND('',#977,.F.);
#977 = EDGE_LOOP('',(#978,#1002,#1023,#1024));
#978 = ORIENTED_EDGE('',*,*,#979,.F.);
#979 = EDGE_CURVE('',#980,#980,#982,.T.);
#980 = VERTEX_POINT('',#981);
#981 = CARTESIAN_POINT('',(8.1,-1.983927814619E-15,8.2));
#982 = SURFACE_CURVE('',#983,(#988,#995),.PCURVE_S1.);
#983 = CIRCLE('',#984,8.1);
#984 = AXIS2_PLACEMENT_3D('',#985,#986,#987);
#985 = CARTESIAN_POINT('',(0.,0.,8.2));
#986 = DIRECTION('',(0.,0.,1.));
#987 = DIRECTION('',(1.,0.,0.));
#988 = PCURVE('',#906,#989);
#989 = DEFINITIONAL_REPRESENTATION('',(#990),#994);
#990 = LINE('',#991,#992);
#991 = CARTESIAN_POINT('',(0.,1.6));
#992 = VECTOR('',#993,1.);
#993 = DIRECTION('',(1.,0.));
#994 = ( GEOMETRIC_REPRESENTATION_CONTEXT(2) 
PARAMETRIC_REPRESENTATION_CONTEXT() REPRESENTATION_CONTEXT('2D SPACE',''
  ) );
#995 = PCURVE('',#941,#996);
#996 = DEFINITIONAL_REPRESENTATION('',(#997),#1001);
#997 = CIRCLE('',#998,8.1);
#998 = AXIS2_PLACEMENT_2D('',#999,#1000);
#999 = CARTESIAN_POINT('',(0.,0.));
#1000 = DIRECTION('',(1.,0.));
#1001 = ( GEOMETRIC_REPRESENTATION_CONTEXT(2) 
PARAMETRIC_REPRESENTATION_CONTEXT() REPRESENTATION_CONTEXT('2D SPACE',''
  ) );
#1002 = ORIENTED_EDGE('',*,*,#1003,.F.);
#1003 = EDGE_CURVE('',#890,#980,#1004,.T.);
#1004 = SEAM_CURVE('',#1005,(#1009,#1016),.PCURVE_S1.);
#1005 = LINE('',#1006,#1007);
#1006 = CARTESIAN_POINT('',(8.1,-1.983927814619E-15,6.6));
#1007 = VECTOR('',#1008,1.);
#1008 = DIRECTION('',(0.,0.,1.));
#1009 = PCURVE('',#906,#1010);
#1010 = DEFINITIONAL_REPRESENTATION('',(#1011),#1015);
#1011 = LINE('',#1012,#1013);
#1012 = CARTESIAN_POINT('',(6.28318530718,0.));
#1013 = VECTOR('',#1014,1.);
#1014 = DIRECTION('',(0.,1.));
#1015 = ( GEOMETRIC_REPRESENTATION_CONTEXT(2) 
PARAMETRIC_REPRESENTATION_CONTEXT() REPRESENTATION_CONTEXT('2D SPACE',''
  ) );
#1016 = PCURVE('',#906,#1017);
#1017 = DEFINITIONAL_REPRESENTATION('',(#1018),#1022);
#1018 = LINE('',#1019,#1020);
#1019 = CARTESIAN_POINT('',(0.,0.));
#1020 = VECTOR('',#1021,1.);
#1021 = DIRECTION('',(0.,1.));
#1022 = ( GEOMETRIC_REPRESENTATION_CONTEXT(2) 
PARAMETRIC_REPRESENTATION_CONTEXT() REPRESENTATION_CONTEXT('2D SPACE',''
  ) );
#1023 = ORIENTED_EDGE('',*,*,#889,.T.);
#1024 = ORIENTED_EDGE('',*,*,#1003,.T.);
#1025 = ADVANCED_FACE('',(#1026,#1029),#941,.T.);
#1026 = FACE_BOUND('',#1027,.T.);
#1027 = EDGE_LOOP('',(#1028));
#1028 = ORIENTED_EDGE('',*,*,#924,.T.);
#1029 = FACE_BOUND('',#1030,.T.);
#1030 = EDGE_LOOP('',(#1031));
#1031 = ORIENTED_EDGE('',*,*,#979,.F.);
#1032 = ( GEOMETRIC_REPRESENTATION_CONTEXT(3) 
GLOBAL_UNCERTAINTY_ASSIGNED_CONTEXT((#1036)) 
GLOBAL_UNIT_ASSIGNED_CONTEXT((#1033,#1034,#1035)) REPRESENTATION_CONTEXT
('Context #1','3D Context with UNIT and UNCERTAINTY') );
#1033 = ( LENGTH_UNIT() NAMED_UNIT(*) SI_UNIT(.MILLI.,.METRE.) );
#1034 = ( NAMED_UNIT(*) PLANE_ANGLE_UNIT() SI_UNIT($,.RADIAN.) );
#1035 = ( NAMED_UNIT(*) SI_UNIT($,.STERADIAN.) SOLID_ANGLE_UNIT() );
#1036 = UNCERTAINTY_MEASURE_WITH_UNIT(LENGTH_MEASURE(1.E-07),#1033,
  'distance_accuracy_value','confusion accuracy');
#1037 = CONTEXT_DEPENDENT_SHAPE_REPRESENTATION(#1038,#1040);
#1038 = ( REPRESENTATION_RELATIONSHIP('','',#579,#10) 
REPRESENTATION_RELATIONSHIP_WITH_TRANSFORMATION(#1039) 
SHAPE_REPRESENTATION_RELATIONSHIP() );
#1039 = ITEM_DEFINED_TRANSFORMATION('','',#11,#19);
#1040 = PRODUCT_DEFINITION_SHAPE('Placement','Placement of an item',
  #1041);
#1041 = NEXT_ASSEMBLY_USAGE_OCCURRENCE('2','thruster_0','',#5,#574,$);
#1042 = PRODUCT_RELATED_PRODUCT_CATEGORY('part',$,(#576));
#1043 = SHAPE_DEFINITION_REPRESENTATION(#1044,#1050);
#1044 = PRODUCT_DEFINITION_SHAPE('','',#1045);
#1045 = PRODUCT_DEFINITION('design','',#1046,#1049);
#1046 = PRODUCT_DEFINITION_FORMATION('','',#1047);
#1047 = PRODUCT('thruster_270','thruster_270','',(#1048));
#1048 = PRODUCT_CONTEXT('',#2,'mechanical');
#1049 = PRODUCT_DEFINITION_CONTEXT('part definition',#2,'design');
#1050 = ADVANCED_BREP_SHAPE_REPRESENTATION('',(#11,#1051),#1233);
#1051 = MANIFOLD_SOLID_BREP('',#1052);
#1052 = CLOSED_SHELL('',(#1053,#1141,#1176,#1206));
#1053 = ADVANCED_FACE('',(#1054),#1067,.T.);
#1054 = FACE_BOUND('',#1055,.T.);
#1055 = EDGE_LOOP('',(#1056,#1090,#1113,#1140));
#1056 = ORIENTED_EDGE('',*,*,#1057,.F.);
#1057 = EDGE_CURVE('',#1058,#1058,#1060,.T.);
#1058 = VERTEX_POINT('',#1059);
#1059 = CARTESIAN_POINT('',(10.5,-2.571758278209E-15,9.));
#1060 = SURFACE_CURVE('',#1061,(#1066,#1078),.PCURVE_S1.);
#1061 = CIRCLE('',#1062,10.5);
#1062 = AXIS2_PLACEMENT_3D('',#1063,#1064,#1065);
#1063 = CARTESIAN_POINT('',(0.,0.,9.));
#1064 = DIRECTION('',(0.,0.,1.));
#1065 = DIRECTION('',(1.,0.,0.));
#1066 = PCURVE('',#1067,#1072);
#1067 = CYLINDRICAL_SURFACE('',#1068,10.5);
#1068 = AXIS2_PLACEMENT_3D('',#1069,#1070,#1071);
#1069 = CARTESIAN_POINT('',(0.,0.,-9.));
#1070 = DIRECTION('',(0.,0.,1.));
#1071 = DIRECTION('',(1.,0.,0.));
#1072 = DEFINITIONAL_REPRESENTATION('',(#1073),#1077);
#1073 = LINE('',#1074,#1075);
#1074 = CARTESIAN_POINT('',(0.,18.));
#1075 = VECTOR('',#1076,1.);
#1076 = DIRECTION('',(1.,0.));
#1077 = ( GEOMETRIC_REPRESENTATION_CONTEXT(2) 
PARAMETRIC_REPRESENTATION_CONTEXT() REPRESENTATION_CONTEXT('2D SPACE',''
  ) );
#1078 = PCURVE('',#1079,#1084);
#1079 = PLANE('',#1080);
#1080 = AXIS2_PLACEMENT_3D('',#1081,#1082,#1083);
#1081 = CARTESIAN_POINT('',(0.,0.,9.));
#1082 = DIRECTION('',(0.,0.,1.));
#1083 = DIRECTION('',(1.,0.,0.));
#1084 = DEFINITIONAL_REPRESENTATION('',(#1085),#1089);
#1085 = CIRCLE('',#1086,10.5);
#1086 = AXIS2_PLACEMENT_2D('',#1087,#1088);
#1087 = CARTESIAN_POINT('',(0.,0.));
#1088 = DIRECTION('',(1.,0.));
#1089 = ( GEOMETRIC_REPRESENTATION_CONTEXT(2) 
PARAMETRIC_REPRESENTATION_CONTEXT() REPRESENTATION_CONTEXT('2D SPACE',''
  ) );
#1090 = ORIENTED_EDGE('',*,*,#1091,.F.);
#1091 = EDGE_CURVE('',#1092,#1058,#1094,.T.);
#1092 = VERTEX_POINT('',#1093);
#1093 = CARTESIAN_POINT('',(10.5,-2.571758278209E-15,-9.));
#1094 = SEAM_CURVE('',#1095,(#1099,#1106),.PCURVE_S1.);
#1095 = LINE('',#1096,#1097);
#1096 = CARTESIAN_POINT('',(10.5,-2.571758278209E-15,-9.));
#1097 = VECTOR('',#1098,1.);
#1098 = DIRECTION('',(0.,0.,1.));
#1099 = PCURVE('',#1067,#1100);
#1100 = DEFINITIONAL_REPRESENTATION('',(#1101),#1105);
#1101 = LINE('',#1102,#1103);
#1102 = CARTESIAN_POINT('',(6.28318530718,0.));
#1103 = VECTOR('',#1104,1.);
#1104 = DIRECTION('',(0.,1.));
#1105 = ( GEOMETRIC_REPRESENTATION_CONTEXT(2) 
PARAMETRIC_REPRESENTATION_CONTEXT() REPRESENTATION_CONTEXT('2D SPACE',''
  ) );
#1106 = PCURVE('',#1067,#1107);
#1107 = DEFINITIONAL_REPRESENTATION('',(#1108),#1112);
#1108 = LINE('',#1109,#1110);
#1109 = CARTESIAN_POINT('',(0.,0.));
#1110 = VECTOR('',#1111,1.);
#1111 = DIRECTION('',(0.,1.));
#1112 = ( GEOMETRIC_REPRESENTATION_CONTEXT(2) 
PARAMETRIC_REPRESENTATION_CONTEXT() REPRESENTATION_CONTEXT('2D SPACE',''
  ) );
#1113 = ORIENTED_EDGE('',*,*,#1114,.T.);
#1114 = EDGE_CURVE('',#1092,#1092,#1115,.T.);
#1115 = SURFACE_CURVE('',#1116,(#1121,#1128),.PCURVE_S1.);
#1116 = CIRCLE('',#1117,10.5);
#1117 = AXIS2_PLACEMENT_3D('',#1118,#1119,#1120);
#1118 = CARTESIAN_POINT('',(0.,0.,-9.));
#1119 = DIRECTION('',(0.,0.,1.));
#1120 = DIRECTION('',(1.,0.,0.));
#1121 = PCURVE('',#1067,#1122);
#1122 = DEFINITIONAL_REPRESENTATION('',(#1123),#1127);
#1123 = LINE('',#1124,#1125);
#1124 = CARTESIAN_POINT('',(0.,0.));
#1125 = VECTOR('',#1126,1.);
#1126 = DIRECTION('',(1.,0.));
#1127 = ( GEOMETRIC_REPRESENTATION_CONTEXT(2) 
PARAMETRIC_REPRESENTATION_CONTEXT() REPRESENTATION_CONTEXT('2D SPACE',''
  ) );
#1128 = PCURVE('',#1129,#1134);
#1129 = PLANE('',#1130);
#1130 = AXIS2_PLACEMENT_3D('',#1131,#1132,#1133);
#1131 = CARTESIAN_POINT('',(0.,0.,-9.));
#1132 = DIRECTION('',(0.,0.,1.));
#1133 = DIRECTION('',(1.,0.,0.));
#1134 = DEFINITIONAL_REPRESENTATION('',(#1135),#1139);
#1135 = CIRCLE('',#1136,10.5);
#1136 = AXIS2_PLACEMENT_2D('',#1137,#1138);
#1137 = CARTESIAN_POINT('',(0.,0.));
#1138 = DIRECTION('',(1.,0.));
#1139 = ( GEOMETRIC_REPRESENTATION_CONTEXT(2) 
PARAMETRIC_REPRESENTATION_CONTEXT() REPRESENTATION_CONTEXT('2D SPACE',''
  ) );
#1140 = ORIENTED_EDGE('',*,*,#1091,.T.);
#1141 = ADVANCED_FACE('',(#1142,#1145),#1079,.T.);
#1142 = FACE_BOUND('',#1143,.T.);
#1143 = EDGE_LOOP('',(#1144));
#1144 = ORIENTED_EDGE('',*,*,#1057,.T.);
#1145 = FACE_BOUND('',#1146,.T.);
#1146 = EDGE_LOOP('',(#1147));
#1147 = ORIENTED_EDGE('',*,*,#1148,.F.);
#1148 = EDGE_CURVE('',#1149,#1149,#1151,.T.);
#1149 = VERTEX_POINT('',#1150);
#1150 = CARTESIAN_POINT('',(6.6,-1.616533774875E-15,9.));
#1151 = SURFACE_CURVE('',#1152,(#1157,#1164),.PCURVE_S1.);
#1152 = CIRCLE('',#1153,6.6);
#1153 = AXIS2_PLACEMENT_3D('',#1154,#1155,#1156);
#1154 = CARTESIAN_POINT('',(0.,0.,9.));
#1155 = DIRECTION('',(0.,0.,1.));
#1156 = DIRECTION('',(1.,0.,0.));
#1157 = PCURVE('',#1079,#1158);
#1158 = DEFINITIONAL_REPRESENTATION('',(#1159),#1163);
#1159 = CIRCLE('',#1160,6.6);
#1160 = AXIS2_PLACEMENT_2D('',#1161,#1162);
#1161 = CARTESIAN_POINT('',(0.,0.));
#1162 = DIRECTION('',(1.,0.));
#1163 = ( GEOMETRIC_REPRESENTATION_CONTEXT(2) 
PARAMETRIC_REPRESENTATION_CONTEXT() REPRESENTATION_CONTEXT('2D SPACE',''
  ) );
#1164 = PCURVE('',#1165,#1170);
#1165 = CYLINDRICAL_SURFACE('',#1166,6.6);
#1166 = AXIS2_PLACEMENT_3D('',#1167,#1168,#1169);
#1167 = CARTESIAN_POINT('',(0.,0.,-10.));
#1168 = DIRECTION('',(0.,0.,1.));
#1169 = DIRECTION('',(1.,0.,0.));
#1170 = DEFINITIONAL_REPRESENTATION('',(#1171),#1175);
#1171 = LINE('',#1172,#1173);
#1172 = CARTESIAN_POINT('',(0.,19.));
#1173 = VECTOR('',#1174,1.);
#1174 = DIRECTION('',(1.,0.));
#1175 = ( GEOMETRIC_REPRESENTATION_CONTEXT(2) 
PARAMETRIC_REPRESENTATION_CONTEXT() REPRESENTATION_CONTEXT('2D SPACE',''
  ) );
#1176 = ADVANCED_FACE('',(#1177,#1180),#1129,.F.);
#1177 = FACE_BOUND('',#1178,.F.);
#1178 = EDGE_LOOP('',(#1179));
#1179 = ORIENTED_EDGE('',*,*,#1114,.T.);
#1180 = FACE_BOUND('',#1181,.F.);
#1181 = EDGE_LOOP('',(#1182));
#1182 = ORIENTED_EDGE('',*,*,#1183,.F.);
#1183 = EDGE_CURVE('',#1184,#1184,#1186,.T.);
#1184 = VERTEX_POINT('',#1185);
#1185 = CARTESIAN_POINT('',(6.6,-1.616533774875E-15,-9.));
#1186 = SURFACE_CURVE('',#1187,(#1192,#1199),.PCURVE_S1.);
#1187 = CIRCLE('',#1188,6.6);
#1188 = AXIS2_PLACEMENT_3D('',#1189,#1190,#1191);
#1189 = CARTESIAN_POINT('',(0.,0.,-9.));
#1190 = DIRECTION('',(0.,0.,1.));
#1191 = DIRECTION('',(1.,0.,0.));
#1192 = PCURVE('',#1129,#1193);
#1193 = DEFINITIONAL_REPRESENTATION('',(#1194),#1198);
#1194 = CIRCLE('',#1195,6.6);
#1195 = AXIS2_PLACEMENT_2D('',#1196,#1197);
#1196 = CARTESIAN_POINT('',(0.,0.));
#1197 = DIRECTION('',(1.,0.));
#1198 = ( GEOMETRIC_REPRESENTATION_CONTEXT(2) 
PARAMETRIC_REPRESENTATION_CONTEXT() REPRESENTATION_CONTEXT('2D SPACE',''
  ) );
#1199 = PCURVE('',#1165,#1200);
#1200 = DEFINITIONAL_REPRESENTATION('',(#1201),#1205);
#1201 = LINE('',#1202,#1203);
#1202 = CARTESIAN_POINT('',(0.,1.));
#1203 = VECTOR('',#1204,1.);
#1204 = DIRECTION('',(1.,0.));
#1205 = ( GEOMETRIC_REPRESENTATION_CONTEXT(2) 
PARAMETRIC_REPRESENTATION_CONTEXT() REPRESENTATION_CONTEXT('2D SPACE',''
  ) );
#1206 = ADVANCED_FACE('',(#1207),#1165,.F.);
#1207 = FACE_BOUND('',#1208,.F.);
#1208 = EDGE_LOOP('',(#1209,#1210,#1231,#1232));
#1209 = ORIENTED_EDGE('',*,*,#1148,.F.);
#1210 = ORIENTED_EDGE('',*,*,#1211,.F.);
#1211 = EDGE_CURVE('',#1184,#1149,#1212,.T.);
#1212 = SEAM_CURVE('',#1213,(#1217,#1224),.PCURVE_S1.);
#1213 = LINE('',#1214,#1215);
#1214 = CARTESIAN_POINT('',(6.6,-1.616533774875E-15,-10.));
#1215 = VECTOR('',#1216,1.);
#1216 = DIRECTION('',(0.,0.,1.));
#1217 = PCURVE('',#1165,#1218);
#1218 = DEFINITIONAL_REPRESENTATION('',(#1219),#1223);
#1219 = LINE('',#1220,#1221);
#1220 = CARTESIAN_POINT('',(6.28318530718,0.));
#1221 = VECTOR('',#1222,1.);
#1222 = DIRECTION('',(0.,1.));
#1223 = ( GEOMETRIC_REPRESENTATION_CONTEXT(2) 
PARAMETRIC_REPRESENTATION_CONTEXT() REPRESENTATION_CONTEXT('2D SPACE',''
  ) );
#1224 = PCURVE('',#1165,#1225);
#1225 = DEFINITIONAL_REPRESENTATION('',(#1226),#1230);
#1226 = LINE('',#1227,#1228);
#1227 = CARTESIAN_POINT('',(0.,0.));
#1228 = VECTOR('',#1229,1.);
#1229 = DIRECTION('',(0.,1.));
#1230 = ( GEOMETRIC_REPRESENTATION_CONTEXT(2) 
PARAMETRIC_REPRESENTATION_CONTEXT() REPRESENTATION_CONTEXT('2D SPACE',''
  ) );
#1231 = ORIENTED_EDGE('',*,*,#1183,.T.);
#1232 = ORIENTED_EDGE('',*,*,#1211,.T.);
#1233 = ( GEOMETRIC_REPRESENTATION_CONTEXT(3) 
GLOBAL_UNCERTAINTY_ASSIGNED_CONTEXT((#1237)) 
GLOBAL_UNIT_ASSIGNED_CONTEXT((#1234,#1235,#1236)) REPRESENTATION_CONTEXT
('Context #1','3D Context with UNIT and UNCERTAINTY') );
#1234 = ( LENGTH_UNIT() NAMED_UNIT(*) SI_UNIT(.MILLI.,.METRE.) );
#1235 = ( NAMED_UNIT(*) PLANE_ANGLE_UNIT() SI_UNIT($,.RADIAN.) );
#1236 = ( NAMED_UNIT(*) SI_UNIT($,.STERADIAN.) SOLID_ANGLE_UNIT() );
#1237 = UNCERTAINTY_MEASURE_WITH_UNIT(LENGTH_MEASURE(1.E-07),#1234,
  'distance_accuracy_value','confusion accuracy');
#1238 = CONTEXT_DEPENDENT_SHAPE_REPRESENTATION(#1239,#1241);
#1239 = ( REPRESENTATION_RELATIONSHIP('','',#1050,#10) 
REPRESENTATION_RELATIONSHIP_WITH_TRANSFORMATION(#1240) 
SHAPE_REPRESENTATION_RELATIONSHIP() );
#1240 = ITEM_DEFINED_TRANSFORMATION('','',#11,#23);
#1241 = PRODUCT_DEFINITION_SHAPE('Placement','Placement of an item',
  #1242);
#1242 = NEXT_ASSEMBLY_USAGE_OCCURRENCE('3','thruster_90','',#5,#1045,$);
#1243 = PRODUCT_RELATED_PRODUCT_CATEGORY('part',$,(#1047));
#1244 = CONTEXT_DEPENDENT_SHAPE_REPRESENTATION(#1245,#1247);
#1245 = ( REPRESENTATION_RELATIONSHIP('','',#1050,#10) 
REPRESENTATION_RELATIONSHIP_WITH_TRANSFORMATION(#1246) 
SHAPE_REPRESENTATION_RELATIONSHIP() );
#1246 = ITEM_DEFINED_TRANSFORMATION('','',#11,#27);
#1247 = PRODUCT_DEFINITION_SHAPE('Placement','Placement of an item',
  #1248);
#1248 = NEXT_ASSEMBLY_USAGE_OCCURRENCE('4','thruster_180','',#5,#1045,$
  );
#1249 = CONTEXT_DEPENDENT_SHAPE_REPRESENTATION(#1250,#1252);
#1250 = ( REPRESENTATION_RELATIONSHIP('','',#1050,#10) 
REPRESENTATION_RELATIONSHIP_WITH_TRANSFORMATION(#1251) 
SHAPE_REPRESENTATION_RELATIONSHIP() );
#1251 = ITEM_DEFINED_TRANSFORMATION('','',#11,#31);
#1252 = PRODUCT_DEFINITION_SHAPE('Placement','Placement of an item',
  #1253);
#1253 = NEXT_ASSEMBLY_USAGE_OCCURRENCE('5','thruster_270','',#5,#1045,$
  );
#1254 = SHAPE_DEFINITION_REPRESENTATION(#1255,#1261);
#1255 = PRODUCT_DEFINITION_SHAPE('','',#1256);
#1256 = PRODUCT_DEFINITION('design','',#1257,#1260);
#1257 = PRODUCT_DEFINITION_FORMATION('','',#1258);
#1258 = PRODUCT('thruster_0_throat','thruster_0_throat','',(#1259));
#1259 = PRODUCT_CONTEXT('',#2,'mechanical');
#1260 = PRODUCT_DEFINITION_CONTEXT('part definition',#2,'design');
#1261 = ADVANCED_BREP_SHAPE_REPRESENTATION('',(#11,#1262),#1360);
#1262 = MANIFOLD_SOLID_BREP('',#1263);
#1263 = CLOSED_SHELL('',(#1264,#1352,#1356));
#1264 = ADVANCED_FACE('',(#1265),#1278,.T.);
#1265 = FACE_BOUND('',#1266,.T.);
#1266 = EDGE_LOOP('',(#1267,#1301,#1324,#1351));
#1267 = ORIENTED_EDGE('',*,*,#1268,.F.);
#1268 = EDGE_CURVE('',#1269,#1269,#1271,.T.);
#1269 = VERTEX_POINT('',#1270);
#1270 = CARTESIAN_POINT('',(5.8,-1.420590287011E-15,2.));
#1271 = SURFACE_CURVE('',#1272,(#1277,#1289),.PCURVE_S1.);
#1272 = CIRCLE('',#1273,5.8);
#1273 = AXIS2_PLACEMENT_3D('',#1274,#1275,#1276);
#1274 = CARTESIAN_POINT('',(0.,0.,2.));
#1275 = DIRECTION('',(0.,0.,1.));
#1276 = DIRECTION('',(1.,0.,0.));
#1277 = PCURVE('',#1278,#1283);
#1278 = CYLINDRICAL_SURFACE('',#1279,5.8);
#1279 = AXIS2_PLACEMENT_3D('',#1280,#1281,#1282);
#1280 = CARTESIAN_POINT('',(0.,0.,0.));
#1281 = DIRECTION('',(0.,0.,1.));
#1282 = DIRECTION('',(1.,0.,0.));
#1283 = DEFINITIONAL_REPRESENTATION('',(#1284),#1288);
#1284 = LINE('',#1285,#1286);
#1285 = CARTESIAN_POINT('',(0.,2.));
#1286 = VECTOR('',#1287,1.);
#1287 = DIRECTION('',(1.,0.));
#1288 = ( GEOMETRIC_REPRESENTATION_CONTEXT(2) 
PARAMETRIC_REPRESENTATION_CONTEXT() REPRESENTATION_CONTEXT('2D SPACE',''
  ) );
#1289 = PCURVE('',#1290,#1295);
#1290 = PLANE('',#1291);
#1291 = AXIS2_PLACEMENT_3D('',#1292,#1293,#1294);
#1292 = CARTESIAN_POINT('',(0.,0.,2.));
#1293 = DIRECTION('',(0.,0.,1.));
#1294 = DIRECTION('',(1.,0.,0.));
#1295 = DEFINITIONAL_REPRESENTATION('',(#1296),#1300);
#1296 = CIRCLE('',#1297,5.8);
#1297 = AXIS2_PLACEMENT_2D('',#1298,#1299);
#1298 = CARTESIAN_POINT('',(0.,0.));
#1299 = DIRECTION('',(1.,0.));
#1300 = ( GEOMETRIC_REPRESENTATION_CONTEXT(2) 
PARAMETRIC_REPRESENTATION_CONTEXT() REPRESENTATION_CONTEXT('2D SPACE',''
  ) );
#1301 = ORIENTED_EDGE('',*,*,#1302,.F.);
#1302 = EDGE_CURVE('',#1303,#1269,#1305,.T.);
#1303 = VERTEX_POINT('',#1304);
#1304 = CARTESIAN_POINT('',(5.8,-1.420590287011E-15,0.));
#1305 = SEAM_CURVE('',#1306,(#1310,#1317),.PCURVE_S1.);
#1306 = LINE('',#1307,#1308);
#1307 = CARTESIAN_POINT('',(5.8,-1.420590287011E-15,0.));
#1308 = VECTOR('',#1309,1.);
#1309 = DIRECTION('',(0.,0.,1.));
#1310 = PCURVE('',#1278,#1311);
#1311 = DEFINITIONAL_REPRESENTATION('',(#1312),#1316);
#1312 = LINE('',#1313,#1314);
#1313 = CARTESIAN_POINT('',(6.28318530718,0.));
#1314 = VECTOR('',#1315,1.);
#1315 = DIRECTION('',(0.,1.));
#1316 = ( GEOMETRIC_REPRESENTATION_CONTEXT(2) 
PARAMETRIC_REPRESENTATION_CONTEXT() REPRESENTATION_CONTEXT('2D SPACE',''
  ) );
#1317 = PCURVE('',#1278,#1318);
#1318 = DEFINITIONAL_REPRESENTATION('',(#1319),#1323);
#1319 = LINE('',#1320,#1321);
#1320 = CARTESIAN_POINT('',(0.,0.));
#1321 = VECTOR('',#1322,1.);
#1322 = DIRECTION('',(0.,1.));
#1323 = ( GEOMETRIC_REPRESENTATION_CONTEXT(2) 
PARAMETRIC_REPRESENTATION_CONTEXT() REPRESENTATION_CONTEXT('2D SPACE',''
  ) );
#1324 = ORIENTED_EDGE('',*,*,#1325,.T.);
#1325 = EDGE_CURVE('',#1303,#1303,#1326,.T.);
#1326 = SURFACE_CURVE('',#1327,(#1332,#1339),.PCURVE_S1.);
#1327 = CIRCLE('',#1328,5.8);
#1328 = AXIS2_PLACEMENT_3D('',#1329,#1330,#1331);
#1329 = CARTESIAN_POINT('',(0.,0.,0.));
#1330 = DIRECTION('',(0.,0.,1.));
#1331 = DIRECTION('',(1.,0.,0.));
#1332 = PCURVE('',#1278,#1333);
#1333 = DEFINITIONAL_REPRESENTATION('',(#1334),#1338);
#1334 = LINE('',#1335,#1336);
#1335 = CARTESIAN_POINT('',(0.,0.));
#1336 = VECTOR('',#1337,1.);
#1337 = DIRECTION('',(1.,0.));
#1338 = ( GEOMETRIC_REPRESENTATION_CONTEXT(2) 
PARAMETRIC_REPRESENTATION_CONTEXT() REPRESENTATION_CONTEXT('2D SPACE',''
  ) );
#1339 = PCURVE('',#1340,#1345);
#1340 = PLANE('',#1341);
#1341 = AXIS2_PLACEMENT_3D('',#1342,#1343,#1344);
#1342 = CARTESIAN_POINT('',(0.,0.,0.));
#1343 = DIRECTION('',(0.,0.,1.));
#1344 = DIRECTION('',(1.,0.,0.));
#1345 = DEFINITIONAL_REPRESENTATION('',(#1346),#1350);
#1346 = CIRCLE('',#1347,5.8);
#1347 = AXIS2_PLACEMENT_2D('',#1348,#1349);
#1348 = CARTESIAN_POINT('',(0.,0.));
#1349 = DIRECTION('',(1.,0.));
#1350 = ( GEOMETRIC_REPRESENTATION_CONTEXT(2) 
PARAMETRIC_REPRESENTATION_CONTEXT() REPRESENTATION_CONTEXT('2D SPACE',''
  ) );
#1351 = ORIENTED_EDGE('',*,*,#1302,.T.);
#1352 = ADVANCED_FACE('',(#1353),#1290,.T.);
#1353 = FACE_BOUND('',#1354,.T.);
#1354 = EDGE_LOOP('',(#1355));
#1355 = ORIENTED_EDGE('',*,*,#1268,.T.);
#1356 = ADVANCED_FACE('',(#1357),#1340,.F.);
#1357 = FACE_BOUND('',#1358,.T.);
#1358 = EDGE_LOOP('',(#1359));
#1359 = ORIENTED_EDGE('',*,*,#1325,.F.);
#1360 = ( GEOMETRIC_REPRESENTATION_CONTEXT(3) 
GLOBAL_UNCERTAINTY_ASSIGNED_CONTEXT((#1364)) 
GLOBAL_UNIT_ASSIGNED_CONTEXT((#1361,#1362,#1363)) REPRESENTATION_CONTEXT
('Context #1','3D Context with UNIT and UNCERTAINTY') );
#1361 = ( LENGTH_UNIT() NAMED_UNIT(*) SI_UNIT(.MILLI.,.METRE.) );
#1362 = ( NAMED_UNIT(*) PLANE_ANGLE_UNIT() SI_UNIT($,.RADIAN.) );
#1363 = ( NAMED_UNIT(*) SI_UNIT($,.STERADIAN.) SOLID_ANGLE_UNIT() );
#1364 = UNCERTAINTY_MEASURE_WITH_UNIT(LENGTH_MEASURE(1.E-07),#1361,
  'distance_accuracy_value','confusion accuracy');
#1365 = CONTEXT_DEPENDENT_SHAPE_REPRESENTATION(#1366,#1368);
#1366 = ( REPRESENTATION_RELATIONSHIP('','',#1261,#10) 
REPRESENTATION_RELATIONSHIP_WITH_TRANSFORMATION(#1367) 
SHAPE_REPRESENTATION_RELATIONSHIP() );
#1367 = ITEM_DEFINED_TRANSFORMATION('','',#11,#35);
#1368 = PRODUCT_DEFINITION_SHAPE('Placement','Placement of an item',
  #1369);
#1369 = NEXT_ASSEMBLY_USAGE_OCCURRENCE('6','thruster_0_throat','',#5,
  #1256,$);
#1370 = PRODUCT_RELATED_PRODUCT_CATEGORY('part',$,(#1258));
#1371 = SHAPE_DEFINITION_REPRESENTATION(#569,#1372);
#1372 = SHAPE_REPRESENTATION('',(#15),#561);
#1373 = SHAPE_DEFINITION_REPRESENTATION(#1040,#1374);
#1374 = SHAPE_REPRESENTATION('',(#19),#1032);
#1375 = SHAPE_DEFINITION_REPRESENTATION(#1241,#1376);
#1376 = SHAPE_REPRESENTATION('',(#23),#1233);
#1377 = SHAPE_DEFINITION_REPRESENTATION(#1247,#1378);
#1378 = SHAPE_REPRESENTATION('',(#27),#1233);
#1379 = SHAPE_DEFINITION_REPRESENTATION(#1252,#1380);
#1380 = SHAPE_REPRESENTATION('',(#31),#1233);
#1381 = SHAPE_DEFINITION_REPRESENTATION(#1368,#1382);
#1382 = SHAPE_REPRESENTATION('',(#35),#1360);
#1383 = SHAPE_DEFINITION_REPRESENTATION(#569,#1384);
#1384 = SHAPE_REPRESENTATION('',(#15),#561);
#1385 = SHAPE_DEFINITION_REPRESENTATION(#1040,#1386);
#1386 = SHAPE_REPRESENTATION('',(#19),#1032);
#1387 = SHAPE_DEFINITION_REPRESENTATION(#1241,#1388);
#1388 = SHAPE_REPRESENTATION('',(#23),#1233);
#1389 = SHAPE_DEFINITION_REPRESENTATION(#1247,#1390);
#1390 = SHAPE_REPRESENTATION('',(#27),#1233);
#1391 = SHAPE_DEFINITION_REPRESENTATION(#1252,#1392);
#1392 = SHAPE_REPRESENTATION('',(#31),#1233);
#1393 = SHAPE_DEFINITION_REPRESENTATION(#1368,#1394);
#1394 = SHAPE_REPRESENTATION('',(#35),#1360);
#1395 = MECHANICAL_DESIGN_GEOMETRIC_PRESENTATION_REPRESENTATION('',(
    #1396,#1404),#561);
#1396 = STYLED_ITEM('color',(#1397),#53);
#1397 = PRESENTATION_STYLE_ASSIGNMENT((#1398));
#1398 = SURFACE_STYLE_USAGE(.BOTH.,#1399);
#1399 = SURFACE_SIDE_STYLE('',(#1400));
#1400 = SURFACE_STYLE_FILL_AREA(#1401);
#1401 = FILL_AREA_STYLE('',(#1402));
#1402 = FILL_AREA_STYLE_COLOUR('',#1403);
#1403 = COLOUR_RGB('',0.580392170981,0.619607810787,0.639215690656);
#1404 = OVER_RIDING_STYLED_ITEM('overriding color',(#1405),#53,#1396);
#1405 = PRESENTATION_STYLE_BY_CONTEXT((#1406),#1384);
#1406 = SURFACE_STYLE_USAGE(.BOTH.,#1407);
#1407 = SURFACE_SIDE_STYLE('',(#1408));
#1408 = SURFACE_STYLE_FILL_AREA(#1409);
#1409 = FILL_AREA_STYLE('',(#1410));
#1410 = FILL_AREA_STYLE_COLOUR('',#1411);
#1411 = COLOUR_RGB('',0.580392170981,0.619607810787,0.639215690656);
#1412 = MECHANICAL_DESIGN_GEOMETRIC_PRESENTATION_REPRESENTATION('',(
    #1413,#1421),#1032);
#1413 = STYLED_ITEM('color',(#1414),#580);
#1414 = PRESENTATION_STYLE_ASSIGNMENT((#1415));
#1415 = SURFACE_STYLE_USAGE(.BOTH.,#1416);
#1416 = SURFACE_SIDE_STYLE('',(#1417));
#1417 = SURFACE_STYLE_FILL_AREA(#1418);
#1418 = FILL_AREA_STYLE('',(#1419));
#1419 = FILL_AREA_STYLE_COLOUR('',#1420);
#1420 = COLOUR_RGB('',0.188235174936,0.219607738591,0.231372472571);
#1421 = OVER_RIDING_STYLED_ITEM('overriding color',(#1422),#580,#1413);
#1422 = PRESENTATION_STYLE_BY_CONTEXT((#1423),#1386);
#1423 = SURFACE_STYLE_USAGE(.BOTH.,#1424);
#1424 = SURFACE_SIDE_STYLE('',(#1425));
#1425 = SURFACE_STYLE_FILL_AREA(#1426);
#1426 = FILL_AREA_STYLE('',(#1427));
#1427 = FILL_AREA_STYLE_COLOUR('',#1428);
#1428 = COLOUR_RGB('',0.188235174936,0.219607738591,0.231372472571);
#1429 = MECHANICAL_DESIGN_GEOMETRIC_PRESENTATION_REPRESENTATION('',(
    #1430,#1438,#1445,#1452,#1460,#1467),#1233);
#1430 = STYLED_ITEM('color',(#1431),#1051);
#1431 = PRESENTATION_STYLE_ASSIGNMENT((#1432));
#1432 = SURFACE_STYLE_USAGE(.BOTH.,#1433);
#1433 = SURFACE_SIDE_STYLE('',(#1434));
#1434 = SURFACE_STYLE_FILL_AREA(#1435);
#1435 = FILL_AREA_STYLE('',(#1436));
#1436 = FILL_AREA_STYLE_COLOUR('',#1437);
#1437 = COLOUR_RGB('',0.196078319175,0.227450951338,0.243137191472);
#1438 = OVER_RIDING_STYLED_ITEM('overriding color',(#1439),#1051,#1430);
#1439 = PRESENTATION_STYLE_BY_CONTEXT((#1440),#1378);
#1440 = SURFACE_STYLE_USAGE(.BOTH.,#1441);
#1441 = SURFACE_SIDE_STYLE('',(#1442));
#1442 = SURFACE_STYLE_FILL_AREA(#1443);
#1443 = FILL_AREA_STYLE('',(#1444));
#1444 = FILL_AREA_STYLE_COLOUR('',#1437);
#1445 = OVER_RIDING_STYLED_ITEM('overriding color',(#1446),#1051,#1430);
#1446 = PRESENTATION_STYLE_BY_CONTEXT((#1447),#1380);
#1447 = SURFACE_STYLE_USAGE(.BOTH.,#1448);
#1448 = SURFACE_SIDE_STYLE('',(#1449));
#1449 = SURFACE_STYLE_FILL_AREA(#1450);
#1450 = FILL_AREA_STYLE('',(#1451));
#1451 = FILL_AREA_STYLE_COLOUR('',#1437);
#1452 = OVER_RIDING_STYLED_ITEM('overriding color',(#1453),#1051,#1430);
#1453 = PRESENTATION_STYLE_BY_CONTEXT((#1454),#1388);
#1454 = SURFACE_STYLE_USAGE(.BOTH.,#1455);
#1455 = SURFACE_SIDE_STYLE('',(#1456));
#1456 = SURFACE_STYLE_FILL_AREA(#1457);
#1457 = FILL_AREA_STYLE('',(#1458));
#1458 = FILL_AREA_STYLE_COLOUR('',#1459);
#1459 = COLOUR_RGB('',0.196078319175,0.227450951338,0.243137191472);
#1460 = OVER_RIDING_STYLED_ITEM('overriding color',(#1461),#1051,#1430);
#1461 = PRESENTATION_STYLE_BY_CONTEXT((#1462),#1390);
#1462 = SURFACE_STYLE_USAGE(.BOTH.,#1463);
#1463 = SURFACE_SIDE_STYLE('',(#1464));
#1464 = SURFACE_STYLE_FILL_AREA(#1465);
#1465 = FILL_AREA_STYLE('',(#1466));
#1466 = FILL_AREA_STYLE_COLOUR('',#1459);
#1467 = OVER_RIDING_STYLED_ITEM('overriding color',(#1468),#1051,#1430);
#1468 = PRESENTATION_STYLE_BY_CONTEXT((#1469),#1392);
#1469 = SURFACE_STYLE_USAGE(.BOTH.,#1470);
#1470 = SURFACE_SIDE_STYLE('',(#1471));
#1471 = SURFACE_STYLE_FILL_AREA(#1472);
#1472 = FILL_AREA_STYLE('',(#1473));
#1473 = FILL_AREA_STYLE_COLOUR('',#1459);
#1474 = MECHANICAL_DESIGN_GEOMETRIC_PRESENTATION_REPRESENTATION('',(
    #1475),#1360);
#1475 = STYLED_ITEM('color',(#1476),#1262);
#1476 = PRESENTATION_STYLE_ASSIGNMENT((#1477));
#1477 = SURFACE_STYLE_USAGE(.BOTH.,#1478);
#1478 = SURFACE_SIDE_STYLE('',(#1479));
#1479 = SURFACE_STYLE_FILL_AREA(#1480);
#1480 = FILL_AREA_STYLE('',(#1481));
#1481 = FILL_AREA_STYLE_COLOUR('',#1482);
#1482 = COLOUR_RGB('',6.666674308799E-02,9.019589542666E-02,
  0.105882390936);
ENDSEC;
END-ISO-10303-21;
