ISO-10303-21;
HEADER;
FILE_DESCRIPTION(('Open CASCADE Model'),'2;1');
FILE_NAME('Spear_BandedCap_Cap_Focus','2000-01-01T00:00:00',('Author'),(
    'Open CASCADE'),'Open CASCADE STEP processor 7.9','cadgen','Unknown'
  );
FILE_SCHEMA(('AUTOMOTIVE_DESIGN { 1 0 10303 214 1 1 1 1 }'));
ENDSEC;
DATA;
#1 = APPLICATION_PROTOCOL_DEFINITION('international standard',
  'automotive_design',2000,#2);
#2 = APPLICATION_CONTEXT(
  'core data for automotive mechanical design processes');
#3 = SHAPE_DEFINITION_REPRESENTATION(#4,#10);
#4 = PRODUCT_DEFINITION_SHAPE('','',#5);
#5 = PRODUCT_DEFINITION('design','',#6,#9);
#6 = PRODUCT_DEFINITION_FORMATION('','',#7);
#7 = PRODUCT('Spear_BandedCap_Cap_Focus','Spear_BandedCap_Cap_Focus','',
  (#8));
#8 = PRODUCT_CONTEXT('',#2,'mechanical');
#9 = PRODUCT_DEFINITION_CONTEXT('part definition',#2,'design');
#10 = SHAPE_REPRESENTATION('',(#11,#15,#19,#23,#27,#31,#35),#39);
#11 = AXIS2_PLACEMENT_3D('',#12,#13,#14);
#12 = CARTESIAN_POINT('',(0.,0.,0.));
#13 = DIRECTION('',(0.,0.,1.));
#14 = DIRECTION('',(1.,0.,0.));
#15 = AXIS2_PLACEMENT_3D('',#16,#17,#18);
#16 = CARTESIAN_POINT('',(0.,0.,0.));
#17 = DIRECTION('',(0.,0.,1.));
#18 = DIRECTION('',(1.,0.,0.));
#19 = AXIS2_PLACEMENT_3D('',#20,#21,#22);
#20 = CARTESIAN_POINT('',(-470.,60.,0.));
#21 = DIRECTION('',(0.,1.,1.110223024625E-16));
#22 = DIRECTION('',(1.,0.,0.));
#23 = AXIS2_PLACEMENT_3D('',#24,#25,#26);
#24 = CARTESIAN_POINT('',(-470.4,3.910297229677E-15,63.86));
#25 = DIRECTION('',(0.,0.,1.));
#26 = DIRECTION('',(1.,0.,0.));
#27 = AXIS2_PLACEMENT_3D('',#28,#29,#30);
#28 = CARTESIAN_POINT('',(-470.4,-63.86,7.820594459355E-15));
#29 = DIRECTION('',(0.,1.,1.110223024625E-16));
#30 = DIRECTION('',(1.,0.,0.));
#31 = AXIS2_PLACEMENT_3D('',#32,#33,#34);
#32 = CARTESIAN_POINT('',(-470.4,-1.173089168903E-14,-63.86));
#33 = DIRECTION('',(0.,1.224646799147E-16,-1.));
#34 = DIRECTION('',(1.,0.,0.));
#35 = AXIS2_PLACEMENT_3D('',#36,#37,#38);
#36 = CARTESIAN_POINT('',(-470.,48.,0.));
#37 = DIRECTION('',(0.,1.,1.110223024625E-16));
#38 = DIRECTION('',(1.,0.,0.));
#39 = ( GEOMETRIC_REPRESENTATION_CONTEXT(3) 
GLOBAL_UNCERTAINTY_ASSIGNED_CONTEXT((#43)) GLOBAL_UNIT_ASSIGNED_CONTEXT(
(#40,#41,#42)) REPRESENTATION_CONTEXT('Context #1',
  '3D Context with UNIT and UNCERTAINTY') );
#40 = ( LENGTH_UNIT() NAMED_UNIT(*) SI_UNIT(.MILLI.,.METRE.) );
#41 = ( NAMED_UNIT(*) PLANE_ANGLE_UNIT() SI_UNIT($,.RADIAN.) );
#42 = ( NAMED_UNIT(*) SI_UNIT($,.STERADIAN.) SOLID_ANGLE_UNIT() );
#43 = UNCERTAINTY_MEASURE_WITH_UNIT(LENGTH_MEASURE(1.E-07),#40,
  'distance_accuracy_value','confusion accuracy');
#44 = PRODUCT_RELATED_PRODUCT_CATEGORY('part',$,(#7));
#45 = SHAPE_DEFINITION_REPRESENTATION(#46,#52);
#46 = PRODUCT_DEFINITION_SHAPE('','',#47);
#47 = PRODUCT_DEFINITION('design','',#48,#51);
#48 = PRODUCT_DEFINITION_FORMATION('','',#49);
#49 = PRODUCT('turning_cap','turning_cap','',(#50));
#50 = PRODUCT_CONTEXT('',#2,'mechanical');
#51 = PRODUCT_DEFINITION_CONTEXT('part definition',#2,'design');
#52 = ADVANCED_BREP_SHAPE_REPRESENTATION('',(#11,#53),#726);
#53 = MANIFOLD_SOLID_BREP('',#54);
#54 = CLOSED_SHELL('',(#55,#188,#604,#610,#666,#718,#722));
#55 = ADVANCED_FACE('',(#56),#69,.T.);
#56 = FACE_BOUND('',#57,.T.);
#57 = EDGE_LOOP('',(#58,#85,#114,#138,#160,#161));
#58 = ORIENTED_EDGE('',*,*,#59,.F.);
#59 = EDGE_CURVE('',#60,#62,#64,.T.);
#60 = VERTEX_POINT('',#61);
#61 = CARTESIAN_POINT('',(-566.,34.,0.));
#62 = VERTEX_POINT('',#63);
#63 = CARTESIAN_POINT('',(-520.,62.,0.));
#64 = SEAM_CURVE('',#65,(#68,#79),.PCURVE_S1.);
#65 = B_SPLINE_CURVE_WITH_KNOTS('',1,(#66,#67),.UNSPECIFIED.,.F.,.F.,(2,
    2),(0.,1.),.PIECEWISE_BEZIER_KNOTS.);
#66 = CARTESIAN_POINT('',(-566.,34.,0.));
#67 = CARTESIAN_POINT('',(-520.,62.,0.));
#68 = PCURVE('',#69,#74);
#69 = CONICAL_SURFACE('',#70,34.,0.546788840889);
#70 = AXIS2_PLACEMENT_3D('',#71,#72,#73);
#71 = CARTESIAN_POINT('',(-566.,0.,0.));
#72 = DIRECTION('',(1.,0.,0.));
#73 = DIRECTION('',(0.,1.,0.));
#74 = DEFINITIONAL_REPRESENTATION('',(#75),#78);
#75 = B_SPLINE_CURVE_WITH_KNOTS('',1,(#76,#77),.UNSPECIFIED.,.F.,.F.,(2,
    2),(0.,1.),.PIECEWISE_BEZIER_KNOTS.);
#76 = CARTESIAN_POINT('',(0.,0.));
#77 = CARTESIAN_POINT('',(0.,46.));
#78 = ( GEOMETRIC_REPRESENTATION_CONTEXT(2) 
PARAMETRIC_REPRESENTATION_CONTEXT() REPRESENTATION_CONTEXT('2D SPACE',''
  ) );
#79 = PCURVE('',#69,#80);
#80 = DEFINITIONAL_REPRESENTATION('',(#81),#84);
#81 = B_SPLINE_CURVE_WITH_KNOTS('',1,(#82,#83),.UNSPECIFIED.,.F.,.F.,(2,
    2),(0.,1.),.PIECEWISE_BEZIER_KNOTS.);
#82 = CARTESIAN_POINT('',(6.28318530718,0.));
#83 = CARTESIAN_POINT('',(6.28318530718,46.));
#84 = ( GEOMETRIC_REPRESENTATION_CONTEXT(2) 
PARAMETRIC_REPRESENTATION_CONTEXT() REPRESENTATION_CONTEXT('2D SPACE',''
  ) );
#85 = ORIENTED_EDGE('',*,*,#86,.T.);
#86 = EDGE_CURVE('',#60,#87,#89,.T.);
#87 = VERTEX_POINT('',#88);
#88 = CARTESIAN_POINT('',(-566.,-5.09918326105E-31,34.));
#89 = SURFACE_CURVE('',#90,(#95,#102),.PCURVE_S1.);
#90 = CIRCLE('',#91,34.);
#91 = AXIS2_PLACEMENT_3D('',#92,#93,#94);
#92 = CARTESIAN_POINT('',(-566.,0.,0.));
#93 = DIRECTION('',(1.,0.,0.));
#94 = DIRECTION('',(0.,1.,0.));
#95 = PCURVE('',#69,#96);
#96 = DEFINITIONAL_REPRESENTATION('',(#97),#101);
#97 = LINE('',#98,#99);
#98 = CARTESIAN_POINT('',(0.,0.));
#99 = VECTOR('',#100,1.);
#100 = DIRECTION('',(1.,0.));
#101 = ( GEOMETRIC_REPRESENTATION_CONTEXT(2) 
PARAMETRIC_REPRESENTATION_CONTEXT() REPRESENTATION_CONTEXT('2D SPACE',''
  ) );
#102 = PCURVE('',#103,#108);
#103 = SPHERICAL_SURFACE('',#104,34.);
#104 = AXIS2_PLACEMENT_3D('',#105,#106,#107);
#105 = CARTESIAN_POINT('',(-566.,0.,0.));
#106 = DIRECTION('',(0.,0.,1.));
#107 = DIRECTION('',(1.,0.,0.));
#108 = DEFINITIONAL_REPRESENTATION('',(#109),#113);
#109 = LINE('',#110,#111);
#110 = CARTESIAN_POINT('',(1.570796326795,0.));
#111 = VECTOR('',#112,1.);
#112 = DIRECTION('',(0.,1.));
#113 = ( GEOMETRIC_REPRESENTATION_CONTEXT(2) 
PARAMETRIC_REPRESENTATION_CONTEXT() REPRESENTATION_CONTEXT('2D SPACE',''
  ) );
#114 = ORIENTED_EDGE('',*,*,#115,.T.);
#115 = EDGE_CURVE('',#87,#116,#118,.T.);
#116 = VERTEX_POINT('',#117);
#117 = CARTESIAN_POINT('',(-566.,-5.09918326105E-31,-34.));
#118 = SURFACE_CURVE('',#119,(#124,#131),.PCURVE_S1.);
#119 = CIRCLE('',#120,34.);
#120 = AXIS2_PLACEMENT_3D('',#121,#122,#123);
#121 = CARTESIAN_POINT('',(-566.,0.,0.));
#122 = DIRECTION('',(1.,0.,0.));
#123 = DIRECTION('',(0.,1.,0.));
#124 = PCURVE('',#69,#125);
#125 = DEFINITIONAL_REPRESENTATION('',(#126),#130);
#126 = LINE('',#127,#128);
#127 = CARTESIAN_POINT('',(0.,0.));
#128 = VECTOR('',#129,1.);
#129 = DIRECTION('',(1.,0.));
#130 = ( GEOMETRIC_REPRESENTATION_CONTEXT(2) 
PARAMETRIC_REPRESENTATION_CONTEXT() REPRESENTATION_CONTEXT('2D SPACE',''
  ) );
#131 = PCURVE('',#103,#132);
#132 = DEFINITIONAL_REPRESENTATION('',(#133),#137);
#133 = LINE('',#134,#135);
#134 = CARTESIAN_POINT('',(4.712388980385,3.14159265359));
#135 = VECTOR('',#136,1.);
#136 = DIRECTION('',(0.,-1.));
#137 = ( GEOMETRIC_REPRESENTATION_CONTEXT(2) 
PARAMETRIC_REPRESENTATION_CONTEXT() REPRESENTATION_CONTEXT('2D SPACE',''
  ) );
#138 = ORIENTED_EDGE('',*,*,#139,.T.);
#139 = EDGE_CURVE('',#116,#60,#140,.T.);
#140 = SURFACE_CURVE('',#141,(#146,#153),.PCURVE_S1.);
#141 = CIRCLE('',#142,34.);
#142 = AXIS2_PLACEMENT_3D('',#143,#144,#145);
#143 = CARTESIAN_POINT('',(-566.,0.,0.));
#144 = DIRECTION('',(1.,0.,0.));
#145 = DIRECTION('',(0.,1.,0.));
#146 = PCURVE('',#69,#147);
#147 = DEFINITIONAL_REPRESENTATION('',(#148),#152);
#148 = LINE('',#149,#150);
#149 = CARTESIAN_POINT('',(0.,0.));
#150 = VECTOR('',#151,1.);
#151 = DIRECTION('',(1.,0.));
#152 = ( GEOMETRIC_REPRESENTATION_CONTEXT(2) 
PARAMETRIC_REPRESENTATION_CONTEXT() REPRESENTATION_CONTEXT('2D SPACE',''
  ) );
#153 = PCURVE('',#103,#154);
#154 = DEFINITIONAL_REPRESENTATION('',(#155),#159);
#155 = LINE('',#156,#157);
#156 = CARTESIAN_POINT('',(1.570796326795,-6.28318530718));
#157 = VECTOR('',#158,1.);
#158 = DIRECTION('',(0.,1.));
#159 = ( GEOMETRIC_REPRESENTATION_CONTEXT(2) 
PARAMETRIC_REPRESENTATION_CONTEXT() REPRESENTATION_CONTEXT('2D SPACE',''
  ) );
#160 = ORIENTED_EDGE('',*,*,#59,.T.);
#161 = ORIENTED_EDGE('',*,*,#162,.F.);
#162 = EDGE_CURVE('',#62,#62,#163,.T.);
#163 = SURFACE_CURVE('',#164,(#169,#176),.PCURVE_S1.);
#164 = CIRCLE('',#165,62.);
#165 = AXIS2_PLACEMENT_3D('',#166,#167,#168);
#166 = CARTESIAN_POINT('',(-520.,0.,0.));
#167 = DIRECTION('',(1.,0.,0.));
#168 = DIRECTION('',(0.,1.,0.));
#169 = PCURVE('',#69,#170);
#170 = DEFINITIONAL_REPRESENTATION('',(#171),#175);
#171 = LINE('',#172,#173);
#172 = CARTESIAN_POINT('',(0.,46.));
#173 = VECTOR('',#174,1.);
#174 = DIRECTION('',(1.,0.));
#175 = ( GEOMETRIC_REPRESENTATION_CONTEXT(2) 
PARAMETRIC_REPRESENTATION_CONTEXT() REPRESENTATION_CONTEXT('2D SPACE',''
  ) );
#176 = PCURVE('',#177,#182);
#177 = CYLINDRICAL_SURFACE('',#178,62.);
#178 = AXIS2_PLACEMENT_3D('',#179,#180,#181);
#179 = CARTESIAN_POINT('',(-520.,0.,0.));
#180 = DIRECTION('',(1.,0.,0.));
#181 = DIRECTION('',(0.,1.,0.));
#182 = DEFINITIONAL_REPRESENTATION('',(#183),#187);
#183 = LINE('',#184,#185);
#184 = CARTESIAN_POINT('',(0.,0.));
#185 = VECTOR('',#186,1.);
#186 = DIRECTION('',(1.,0.));
#187 = ( GEOMETRIC_REPRESENTATION_CONTEXT(2) 
PARAMETRIC_REPRESENTATION_CONTEXT() REPRESENTATION_CONTEXT('2D SPACE',''
  ) );
#188 = ADVANCED_FACE('',(#189),#177,.T.);
#189 = FACE_BOUND('',#190,.T.);
#190 = EDGE_LOOP('',(#191,#211,#212,#213,#388,#408,#435,#436));
#191 = ORIENTED_EDGE('',*,*,#192,.F.);
#192 = EDGE_CURVE('',#62,#193,#195,.T.);
#193 = VERTEX_POINT('',#194);
#194 = CARTESIAN_POINT('',(-476.4,62.,0.));
#195 = SEAM_CURVE('',#196,(#199,#205),.PCURVE_S1.);
#196 = B_SPLINE_CURVE_WITH_KNOTS('',1,(#197,#198),.UNSPECIFIED.,.F.,.F.,
  (2,2),(0.,1.),.PIECEWISE_BEZIER_KNOTS.);
#197 = CARTESIAN_POINT('',(-520.,62.,0.));
#198 = CARTESIAN_POINT('',(-430.,62.,0.));
#199 = PCURVE('',#177,#200);
#200 = DEFINITIONAL_REPRESENTATION('',(#201),#204);
#201 = B_SPLINE_CURVE_WITH_KNOTS('',1,(#202,#203),.UNSPECIFIED.,.F.,.F.,
  (2,2),(0.,1.),.PIECEWISE_BEZIER_KNOTS.);
#202 = CARTESIAN_POINT('',(0.,0.));
#203 = CARTESIAN_POINT('',(0.,90.));
#204 = ( GEOMETRIC_REPRESENTATION_CONTEXT(2) 
PARAMETRIC_REPRESENTATION_CONTEXT() REPRESENTATION_CONTEXT('2D SPACE',''
  ) );
#205 = PCURVE('',#177,#206);
#206 = DEFINITIONAL_REPRESENTATION('',(#207),#210);
#207 = B_SPLINE_CURVE_WITH_KNOTS('',1,(#208,#209),.UNSPECIFIED.,.F.,.F.,
  (2,2),(0.,1.),.PIECEWISE_BEZIER_KNOTS.);
#208 = CARTESIAN_POINT('',(6.28318530718,0.));
#209 = CARTESIAN_POINT('',(6.28318530718,90.));
#210 = ( GEOMETRIC_REPRESENTATION_CONTEXT(2) 
PARAMETRIC_REPRESENTATION_CONTEXT() REPRESENTATION_CONTEXT('2D SPACE',''
  ) );
#211 = ORIENTED_EDGE('',*,*,#162,.T.);
#212 = ORIENTED_EDGE('',*,*,#192,.T.);
#213 = ORIENTED_EDGE('',*,*,#214,.F.);
#214 = EDGE_CURVE('',#215,#193,#217,.T.);
#215 = VERTEX_POINT('',#216);
#216 = CARTESIAN_POINT('',(-463.6,62.,1.560930068692E-15));
#217 = SURFACE_CURVE('',#218,(#271,#327),.PCURVE_S1.);
#218 = B_SPLINE_CURVE_WITH_KNOTS('',6,(#219,#220,#221,#222,#223,#224,
    #225,#226,#227,#228,#229,#230,#231,#232,#233,#234,#235,#236,#237,
    #238,#239,#240,#241,#242,#243,#244,#245,#246,#247,#248,#249,#250,
    #251,#252,#253,#254,#255,#256,#257,#258,#259,#260,#261,#262,#263,
    #264,#265,#266,#267,#268,#269,#270),.UNSPECIFIED.,.F.,.F.,(7,5,5,5,5
    ,5,5,5,5,5,7),(0.,9.514553495663E-02,0.158733068976,0.239256958697,
    0.356786399059,0.500000000668,0.643213602293,0.760743042654,
    0.841266930979,0.904854465011,1.),.UNSPECIFIED.);
#219 = CARTESIAN_POINT('',(-463.6,62.,-3.552713678801E-15));
#220 = CARTESIAN_POINT('',(-463.6,62.,-0.387665566047));
#221 = CARTESIAN_POINT('',(-463.6281784836,61.997091317915,
    -0.774473662921));
#222 = CARTESIAN_POINT('',(-463.6843009015,61.991297731178,
    -1.156132664538));
#223 = CARTESIAN_POINT('',(-463.7669879436,61.982858082369,
    -1.528431505169));
#224 = CARTESIAN_POINT('',(-463.8737531469,61.972210327545,
    -1.887470061984));
#225 = CARTESIAN_POINT('',(-464.0860920328,61.951651630741,
    -2.458718197536));
#226 = CARTESIAN_POINT('',(-464.1804435116,61.942655295017,
    -2.680473971227));
#227 = CARTESIAN_POINT('',(-464.2833213984,61.933029276358,-2.8947691339
    ));
#228 = CARTESIAN_POINT('',(-464.3939546051,61.922907074316,
    -3.101290397845));
#229 = CARTESIAN_POINT('',(-464.5115639656,61.91241974988,
    -3.299788858726));
#230 = CARTESIAN_POINT('',(-464.7921330206,61.888104558753,
    -3.731054468231));
#231 = CARTESIAN_POINT('',(-464.9588837045,61.874126084029,
    -3.958952439413));
#232 = CARTESIAN_POINT('',(-465.134324379,61.859981048746,
    -4.173837043638));
#233 = CARTESIAN_POINT('',(-465.3173154788,61.845866980731,
    -4.375850650908));
#234 = CARTESIAN_POINT('',(-465.5068477697,61.831953776762,
    -4.565190966807));
#235 = CARTESIAN_POINT('',(-465.9868921743,61.798578268973,
    -5.000277853868));
#236 = CARTESIAN_POINT('',(-466.2839023288,61.779496004096,
    -5.232067832388));
#237 = CARTESIAN_POINT('',(-466.5905425192,61.761564857018,
    -5.438366505038));
#238 = CARTESIAN_POINT('',(-466.9048674215,61.745098375374,
    -5.620078398251));
#239 = CARTESIAN_POINT('',(-467.2253652577,61.730323505118,
    -5.778018740992));
#240 = CARTESIAN_POINT('',(-467.9474110046,61.701670071621,
    -6.077099882017));
#241 = CARTESIAN_POINT('',(-468.351364046,61.688692947619,
    -6.207026674601));
#242 = CARTESIAN_POINT('',(-468.7603312454,61.678786465571,
    -6.303702808125));
#243 = CARTESIAN_POINT('',(-469.1724683889,61.672124665451,
    -6.367894635663));
#244 = CARTESIAN_POINT('',(-469.5862029493,61.668792756142,-6.4));
#245 = CARTESIAN_POINT('',(-470.4137970506,61.668792756142,-6.4));
#246 = CARTESIAN_POINT('',(-470.8275316109,61.672124665452,
    -6.367894635656));
#247 = CARTESIAN_POINT('',(-471.2396687545,61.678786465568,
    -6.30370280815));
#248 = CARTESIAN_POINT('',(-471.648635954,61.688692947622,
    -6.207026674567));
#249 = CARTESIAN_POINT('',(-472.0525889953,61.701670071619,
    -6.077099882035));
#250 = CARTESIAN_POINT('',(-472.7746347422,61.730323505118,
    -5.778018740992));
#251 = CARTESIAN_POINT('',(-473.0951325784,61.745098375374,
    -5.620078398251));
#252 = CARTESIAN_POINT('',(-473.4094574807,61.761564857018,
    -5.438366505038));
#253 = CARTESIAN_POINT('',(-473.7160976711,61.779496004096,
    -5.232067832388));
#254 = CARTESIAN_POINT('',(-474.0131078256,61.798578268973,
    -5.000277853868));
#255 = CARTESIAN_POINT('',(-474.4931522268,61.831953776527,
    -4.565190969876));
#256 = CARTESIAN_POINT('',(-474.6826845261,61.845866981113,
    -4.37585064517));
#257 = CARTESIAN_POINT('',(-474.8656756212,61.859981048745,
    -4.173837044179));
#258 = CARTESIAN_POINT('',(-475.0411162905,61.874126083646,
    -3.958952445407));
#259 = CARTESIAN_POINT('',(-475.207866982,61.888104558991,
    -3.731054464001));
#260 = CARTESIAN_POINT('',(-475.4884360343,61.91241974988,
    -3.299788858726));
#261 = CARTESIAN_POINT('',(-475.6060453948,61.922907074316,
    -3.101290397845));
#262 = CARTESIAN_POINT('',(-475.7166786015,61.933029276358,-2.8947691339
    ));
#263 = CARTESIAN_POINT('',(-475.8195564883,61.942655295017,
    -2.680473971227));
#264 = CARTESIAN_POINT('',(-475.9139079671,61.951651630741,
    -2.458718197537));
#265 = CARTESIAN_POINT('',(-476.126246853,61.972210327547,
    -1.887470061937));
#266 = CARTESIAN_POINT('',(-476.2330120563,61.982858082367,
    -1.528431505183));
#267 = CARTESIAN_POINT('',(-476.3156990984,61.991297731177,
    -1.156132664585));
#268 = CARTESIAN_POINT('',(-476.3718215163,61.997091317916,
    -0.774473662934));
#269 = CARTESIAN_POINT('',(-476.4,62.,-0.387665565997));
#270 = CARTESIAN_POINT('',(-476.4,62.,-1.7763568394E-15));
#271 = PCURVE('',#177,#272);
#272 = DEFINITIONAL_REPRESENTATION('',(#273),#326);
#273 = B_SPLINE_CURVE_WITH_KNOTS('',6,(#274,#275,#276,#277,#278,#279,
    #280,#281,#282,#283,#284,#285,#286,#287,#288,#289,#290,#291,#292,
    #293,#294,#295,#296,#297,#298,#299,#300,#301,#302,#303,#304,#305,
    #306,#307,#308,#309,#310,#311,#312,#313,#314,#315,#316,#317,#318,
    #319,#320,#321,#322,#323,#324,#325),.UNSPECIFIED.,.F.,.F.,(7,5,5,5,5
    ,5,5,5,5,5,7),(0.,9.514553495663E-02,0.158733068976,0.239256958697,
    0.356786399059,0.500000000668,0.643213602293,0.760743042654,
    0.841266930979,0.904854465011,1.),.UNSPECIFIED.);
#274 = CARTESIAN_POINT('',(6.28318530718,56.4));
#275 = CARTESIAN_POINT('',(6.276932636759,56.4));
#276 = CARTESIAN_POINT('',(6.270693796268,56.371821516375));
#277 = CARTESIAN_POINT('',(6.264537567018,56.315699098483));
#278 = CARTESIAN_POINT('',(6.258531433453,56.233012056376));
#279 = CARTESIAN_POINT('',(6.252738058692,56.126246853074));
#280 = CARTESIAN_POINT('',(6.243518414173,55.913907967191));
#281 = CARTESIAN_POINT('',(6.239938803566,55.819556488365));
#282 = CARTESIAN_POINT('',(6.236478991255,55.716678601527));
#283 = CARTESIAN_POINT('',(6.233144042533,55.606045394822));
#284 = CARTESIAN_POINT('',(6.229938009156,55.488436034315));
#285 = CARTESIAN_POINT('',(6.222971065234,55.207866979321));
#286 = CARTESIAN_POINT('',(6.21928842837,55.041116295421));
#287 = CARTESIAN_POINT('',(6.21581509461,54.865675620927));
#288 = CARTESIAN_POINT('',(6.212548901092,54.682684521187));
#289 = CARTESIAN_POINT('',(6.209486806996,54.493152230204));
#290 = CARTESIAN_POINT('',(6.202448659791,54.013107825661));
#291 = CARTESIAN_POINT('',(6.198697521444,53.716097671179));
#292 = CARTESIAN_POINT('',(6.195357621906,53.409457480758));
#293 = CARTESIAN_POINT('',(6.192414793301,53.095132578459));
#294 = CARTESIAN_POINT('',(6.189856253764,52.774634742269));
#295 = CARTESIAN_POINT('',(6.185010276743,52.052588995355));
#296 = CARTESIAN_POINT('',(6.182904273443,51.64863595397));
#297 = CARTESIAN_POINT('',(6.18133681646,51.239668754579));
#298 = CARTESIAN_POINT('',(6.180295904157,50.827531611046));
#299 = CARTESIAN_POINT('',(6.179775294499,50.413797050611));
#300 = CARTESIAN_POINT('',(6.179775294499,49.586202949347));
#301 = CARTESIAN_POINT('',(6.180295904157,49.172468389023));
#302 = CARTESIAN_POINT('',(6.18133681646,48.760331245418));
#303 = CARTESIAN_POINT('',(6.182904273443,48.351364045965));
#304 = CARTESIAN_POINT('',(6.185010276743,47.947411004686));
#305 = CARTESIAN_POINT('',(6.189856253764,47.225365257731));
#306 = CARTESIAN_POINT('',(6.192414793301,46.904867421541));
#307 = CARTESIAN_POINT('',(6.195357621906,46.590542519243));
#308 = CARTESIAN_POINT('',(6.198697521444,46.283902328821));
#309 = CARTESIAN_POINT('',(6.202448659791,45.986892174339));
#310 = CARTESIAN_POINT('',(6.209486806946,45.506847773182));
#311 = CARTESIAN_POINT('',(6.212548901185,45.317315473808));
#312 = CARTESIAN_POINT('',(6.215815094601,45.13432437878));
#313 = CARTESIAN_POINT('',(6.219288428273,44.958883709448));
#314 = CARTESIAN_POINT('',(6.222971065303,44.792133017927));
#315 = CARTESIAN_POINT('',(6.229938009156,44.511563965685));
#316 = CARTESIAN_POINT('',(6.233144042533,44.393954605178));
#317 = CARTESIAN_POINT('',(6.236478991255,44.283321398472));
#318 = CARTESIAN_POINT('',(6.239938803566,44.180443511635));
#319 = CARTESIAN_POINT('',(6.243518414173,44.086092032809));
#320 = CARTESIAN_POINT('',(6.252738058693,43.873753146908));
#321 = CARTESIAN_POINT('',(6.258531433453,43.766987943637));
#322 = CARTESIAN_POINT('',(6.264537567017,43.684300901525));
#323 = CARTESIAN_POINT('',(6.270693796268,43.628178483618));
#324 = CARTESIAN_POINT('',(6.27693263676,43.6));
#325 = CARTESIAN_POINT('',(6.28318530718,43.6));
#326 = ( GEOMETRIC_REPRESENTATION_CONTEXT(2) 
PARAMETRIC_REPRESENTATION_CONTEXT() REPRESENTATION_CONTEXT('2D SPACE',''
  ) );
#327 = PCURVE('',#328,#333);
#328 = CYLINDRICAL_SURFACE('',#329,6.4);
#329 = AXIS2_PLACEMENT_3D('',#330,#331,#332);
#330 = CARTESIAN_POINT('',(-470.,48.,0.));
#331 = DIRECTION('',(0.,1.,1.110223024625E-16));
#332 = DIRECTION('',(1.,0.,0.));
#333 = DEFINITIONAL_REPRESENTATION('',(#334),#387);
#334 = B_SPLINE_CURVE_WITH_KNOTS('',6,(#335,#336,#337,#338,#339,#340,
    #341,#342,#343,#344,#345,#346,#347,#348,#349,#350,#351,#352,#353,
    #354,#355,#356,#357,#358,#359,#360,#361,#362,#363,#364,#365,#366,
    #367,#368,#369,#370,#371,#372,#373,#374,#375,#376,#377,#378,#379,
    #380,#381,#382,#383,#384,#385,#386),.UNSPECIFIED.,.F.,.F.,(7,5,5,5,5
    ,5,5,5,5,5,7),(0.,9.514553495663E-02,0.158733068976,0.239256958697,
    0.356786399059,0.500000000668,0.643213602293,0.760743042654,
    0.841266930979,0.904854465011,1.),.UNSPECIFIED.);
#335 = CARTESIAN_POINT('',(-8.881784197001E-16,14.));
#336 = CARTESIAN_POINT('',(6.057274469477E-02,14.));
#337 = CARTESIAN_POINT('',(0.12101150541,13.997091317915));
#338 = CARTESIAN_POINT('',(0.181045793555,13.991297731178));
#339 = CARTESIAN_POINT('',(0.240408649154,13.982858082369));
#340 = CARTESIAN_POINT('',(0.298805492709,13.972210327545));
#341 = CARTESIAN_POINT('',(0.39402986729,13.951651630741));
#342 = CARTESIAN_POINT('',(0.431644591957,13.942655295017));
#343 = CARTESIAN_POINT('',(0.468730687289,13.933029276358));
#344 = CARTESIAN_POINT('',(0.505286412301,13.922907074316));
#345 = CARTESIAN_POINT('',(0.541305405562,13.91241974988));
#346 = CARTESIAN_POINT('',(0.621695843876,13.888104558753));
#347 = CARTESIAN_POINT('',(0.665752626216,13.874126084029));
#348 = CARTESIAN_POINT('',(0.70900836885,13.859981048746));
#349 = CARTESIAN_POINT('',(0.751517059649,13.845866980731));
#350 = CARTESIAN_POINT('',(0.793327528764,13.831953776762));
#351 = CARTESIAN_POINT('',(0.894558143906,13.798578268973));
#352 = CARTESIAN_POINT('',(0.953266354426,13.779496004096));
#353 = CARTESIAN_POINT('',(1.01080366068,13.761564857018));
#354 = CARTESIAN_POINT('',(1.067344566386,13.745098375374));
#355 = CARTESIAN_POINT('',(1.123054088142,13.730323505118));
#356 = CARTESIAN_POINT('',(1.245169195129,13.701670071621));
#357 = CARTESIAN_POINT('',(1.311251236466,13.688692947619));
#358 = CARTESIAN_POINT('',(1.376611749678,13.678786465571));
#359 = CARTESIAN_POINT('',(1.441494464836,13.672124665451));
#360 = CARTESIAN_POINT('',(1.506140537637,13.668792756142));
#361 = CARTESIAN_POINT('',(1.635452115959,13.668792756142));
#362 = CARTESIAN_POINT('',(1.700098188743,13.672124665452));
#363 = CARTESIAN_POINT('',(1.764980903911,13.678786465568));
#364 = CARTESIAN_POINT('',(1.830341417135,13.688692947622));
#365 = CARTESIAN_POINT('',(1.896423458454,13.701670071619));
#366 = CARTESIAN_POINT('',(2.018538565447,13.730323505118));
#367 = CARTESIAN_POINT('',(2.074248087204,13.745098375374));
#368 = CARTESIAN_POINT('',(2.13078899291,13.761564857018));
#369 = CARTESIAN_POINT('',(2.188326299164,13.779496004096));
#370 = CARTESIAN_POINT('',(2.247034509684,13.798578268973));
#371 = CARTESIAN_POINT('',(2.348265124112,13.831953776527));
#372 = CARTESIAN_POINT('',(2.390075595139,13.845866981113));
#373 = CARTESIAN_POINT('',(2.432584284705,13.859981048745));
#374 = CARTESIAN_POINT('',(2.475840026159,13.874126083646));
#375 = CARTESIAN_POINT('',(2.519896810502,13.888104558991));
#376 = CARTESIAN_POINT('',(2.600287248027,13.91241974988));
#377 = CARTESIAN_POINT('',(2.636306241289,13.922907074316));
#378 = CARTESIAN_POINT('',(2.672861966301,13.933029276358));
#379 = CARTESIAN_POINT('',(2.709948061633,13.942655295017));
#380 = CARTESIAN_POINT('',(2.7475627863,13.951651630741));
#381 = CARTESIAN_POINT('',(2.842787160889,13.972210327547));
#382 = CARTESIAN_POINT('',(2.901184004433,13.982858082367));
#383 = CARTESIAN_POINT('',(2.960546860028,13.991297731177));
#384 = CARTESIAN_POINT('',(3.020581148178,13.997091317916));
#385 = CARTESIAN_POINT('',(3.081019908903,14.));
#386 = CARTESIAN_POINT('',(3.14159265359,14.));
#387 = ( GEOMETRIC_REPRESENTATION_CONTEXT(2) 
PARAMETRIC_REPRESENTATION_CONTEXT() REPRESENTATION_CONTEXT('2D SPACE',''
  ) );
#388 = ORIENTED_EDGE('',*,*,#389,.T.);
#389 = EDGE_CURVE('',#215,#390,#392,.T.);
#390 = VERTEX_POINT('',#391);
#391 = CARTESIAN_POINT('',(-430.,62.,0.));
#392 = SEAM_CURVE('',#393,(#396,#402),.PCURVE_S1.);
#393 = B_SPLINE_CURVE_WITH_KNOTS('',1,(#394,#395),.UNSPECIFIED.,.F.,.F.,
  (2,2),(0.,1.),.PIECEWISE_BEZIER_KNOTS.);
#394 = CARTESIAN_POINT('',(-520.,62.,0.));
#395 = CARTESIAN_POINT('',(-430.,62.,0.));
#396 = PCURVE('',#177,#397);
#397 = DEFINITIONAL_REPRESENTATION('',(#398),#401);
#398 = B_SPLINE_CURVE_WITH_KNOTS('',1,(#399,#400),.UNSPECIFIED.,.F.,.F.,
  (2,2),(0.,1.),.PIECEWISE_BEZIER_KNOTS.);
#399 = CARTESIAN_POINT('',(0.,0.));
#400 = CARTESIAN_POINT('',(0.,90.));
#401 = ( GEOMETRIC_REPRESENTATION_CONTEXT(2) 
PARAMETRIC_REPRESENTATION_CONTEXT() REPRESENTATION_CONTEXT('2D SPACE',''
  ) );
#402 = PCURVE('',#177,#403);
#403 = DEFINITIONAL_REPRESENTATION('',(#404),#407);
#404 = B_SPLINE_CURVE_WITH_KNOTS('',1,(#405,#406),.UNSPECIFIED.,.F.,.F.,
  (2,2),(0.,1.),.PIECEWISE_BEZIER_KNOTS.);
#405 = CARTESIAN_POINT('',(6.28318530718,0.));
#406 = CARTESIAN_POINT('',(6.28318530718,90.));
#407 = ( GEOMETRIC_REPRESENTATION_CONTEXT(2) 
PARAMETRIC_REPRESENTATION_CONTEXT() REPRESENTATION_CONTEXT('2D SPACE',''
  ) );
#408 = ORIENTED_EDGE('',*,*,#409,.F.);
#409 = EDGE_CURVE('',#390,#390,#410,.T.);
#410 = SURFACE_CURVE('',#411,(#416,#423),.PCURVE_S1.);
#411 = CIRCLE('',#412,62.);
#412 = AXIS2_PLACEMENT_3D('',#413,#414,#415);
#413 = CARTESIAN_POINT('',(-430.,0.,0.));
#414 = DIRECTION('',(1.,0.,0.));
#415 = DIRECTION('',(0.,1.,0.));
#416 = PCURVE('',#177,#417);
#417 = DEFINITIONAL_REPRESENTATION('',(#418),#422);
#418 = LINE('',#419,#420);
#419 = CARTESIAN_POINT('',(0.,90.));
#420 = VECTOR('',#421,1.);
#421 = DIRECTION('',(1.,0.));
#422 = ( GEOMETRIC_REPRESENTATION_CONTEXT(2) 
PARAMETRIC_REPRESENTATION_CONTEXT() REPRESENTATION_CONTEXT('2D SPACE',''
  ) );
#423 = PCURVE('',#424,#429);
#424 = CONICAL_SURFACE('',#425,62.,0.123370258282);
#425 = AXIS2_PLACEMENT_3D('',#426,#427,#428);
#426 = CARTESIAN_POINT('',(-430.,0.,0.));
#427 = DIRECTION('',(-1.,0.,0.));
#428 = DIRECTION('',(0.,1.,0.));
#429 = DEFINITIONAL_REPRESENTATION('',(#430),#434);
#430 = LINE('',#431,#432);
#431 = CARTESIAN_POINT('',(0.,0.));
#432 = VECTOR('',#433,1.);
#433 = DIRECTION('',(-1.,0.));
#434 = ( GEOMETRIC_REPRESENTATION_CONTEXT(2) 
PARAMETRIC_REPRESENTATION_CONTEXT() REPRESENTATION_CONTEXT('2D SPACE',''
  ) );
#435 = ORIENTED_EDGE('',*,*,#389,.F.);
#436 = ORIENTED_EDGE('',*,*,#437,.F.);
#437 = EDGE_CURVE('',#193,#215,#438,.T.);
#438 = SURFACE_CURVE('',#439,(#492,#548),.PCURVE_S1.);
#439 = B_SPLINE_CURVE_WITH_KNOTS('',6,(#440,#441,#442,#443,#444,#445,
    #446,#447,#448,#449,#450,#451,#452,#453,#454,#455,#456,#457,#458,
    #459,#460,#461,#462,#463,#464,#465,#466,#467,#468,#469,#470,#471,
    #472,#473,#474,#475,#476,#477,#478,#479,#480,#481,#482,#483,#484,
    #485,#486,#487,#488,#489,#490,#491),.UNSPECIFIED.,.F.,.F.,(7,5,5,5,5
    ,5,5,5,5,5,7),(0.,9.514553410899E-02,0.158733067562,0.239256956566,
    0.356786395881,0.49999999623,0.64321359658,0.76074304366,
    0.841266932591,0.904854465984,1.),.UNSPECIFIED.);
#440 = CARTESIAN_POINT('',(-476.4,62.,6.069611027591E-15));
#441 = CARTESIAN_POINT('',(-476.4,62.,0.387665566046));
#442 = CARTESIAN_POINT('',(-476.3718215163,61.997091317915,
    0.774473662922));
#443 = CARTESIAN_POINT('',(-476.3156990984,61.991297731178,
    1.156132664537));
#444 = CARTESIAN_POINT('',(-476.2330120563,61.982858082369,
    1.528431505171));
#445 = CARTESIAN_POINT('',(-476.126246853,61.972210327545,1.887470061984
    ));
#446 = CARTESIAN_POINT('',(-475.9139079671,61.951651630741,
    2.458718197537));
#447 = CARTESIAN_POINT('',(-475.8195564883,61.942655295017,
    2.680473971227));
#448 = CARTESIAN_POINT('',(-475.7166786015,61.933029276358,2.8947691339)
  );
#449 = CARTESIAN_POINT('',(-475.6060453948,61.922907074316,
    3.101290397845));
#450 = CARTESIAN_POINT('',(-475.4884360343,61.91241974988,3.299788858726
    ));
#451 = CARTESIAN_POINT('',(-475.2078669793,61.888104558753,
    3.731054468231));
#452 = CARTESIAN_POINT('',(-475.0411162954,61.874126084029,
    3.958952439413));
#453 = CARTESIAN_POINT('',(-474.8656756209,61.859981048746,
    4.173837043638));
#454 = CARTESIAN_POINT('',(-474.6826845211,61.845866980731,
    4.375850650908));
#455 = CARTESIAN_POINT('',(-474.4931522302,61.831953776762,
    4.565190966807));
#456 = CARTESIAN_POINT('',(-474.0131078256,61.798578268973,
    5.000277853868));
#457 = CARTESIAN_POINT('',(-473.7160976711,61.779496004096,
    5.232067832388));
#458 = CARTESIAN_POINT('',(-473.4094574807,61.761564857018,
    5.438366505038));
#459 = CARTESIAN_POINT('',(-473.0951325784,61.745098375374,
    5.620078398251));
#460 = CARTESIAN_POINT('',(-472.7746347422,61.730323505118,
    5.778018740992));
#461 = CARTESIAN_POINT('',(-472.0525889953,61.701670071619,
    6.077099882034));
#462 = CARTESIAN_POINT('',(-471.648635954,61.688692947622,6.207026674567
    ));
#463 = CARTESIAN_POINT('',(-471.2396687545,61.678786465569,6.30370280815
    ));
#464 = CARTESIAN_POINT('',(-470.8275316109,61.672124665452,
    6.367894635657));
#465 = CARTESIAN_POINT('',(-470.4137970506,61.668792756142,6.4));
#466 = CARTESIAN_POINT('',(-469.5862029493,61.668792756142,6.4));
#467 = CARTESIAN_POINT('',(-469.172468389,61.672124665452,6.367894635656
    ));
#468 = CARTESIAN_POINT('',(-468.7603312454,61.678786465568,6.30370280815
    ));
#469 = CARTESIAN_POINT('',(-468.3513640459,61.688692947622,
    6.207026674567));
#470 = CARTESIAN_POINT('',(-467.9474110046,61.701670071619,
    6.077099882034));
#471 = CARTESIAN_POINT('',(-467.2253652362,61.730323505971,
    5.778018732086));
#472 = CARTESIAN_POINT('',(-466.9048674544,61.745098373659,
    5.620078418401));
#473 = CARTESIAN_POINT('',(-466.5905425203,61.761564857239,
    5.438366501139));
#474 = CARTESIAN_POINT('',(-466.2839022963,61.779496005915,
    5.232067810393));
#475 = CARTESIAN_POINT('',(-465.9868921934,61.798578267647,
    5.000277871161));
#476 = CARTESIAN_POINT('',(-465.5068477697,61.831953776762,
    4.565190966808));
#477 = CARTESIAN_POINT('',(-465.3173154788,61.845866980731,
    4.375850650908));
#478 = CARTESIAN_POINT('',(-465.134324379,61.859981048746,4.173837043637
    ));
#479 = CARTESIAN_POINT('',(-464.9588837045,61.874126084029,
    3.958952439413));
#480 = CARTESIAN_POINT('',(-464.7921330206,61.888104558753,
    3.731054468232));
#481 = CARTESIAN_POINT('',(-464.5115639656,61.912419749879,
    3.299788858733));
#482 = CARTESIAN_POINT('',(-464.3939546051,61.922907074316,
    3.101290397844));
#483 = CARTESIAN_POINT('',(-464.2833213984,61.933029276358,
    2.894769133893));
#484 = CARTESIAN_POINT('',(-464.1804435116,61.942655295017,
    2.680473971225));
#485 = CARTESIAN_POINT('',(-464.0860920328,61.951651630741,
    2.458718197544));
#486 = CARTESIAN_POINT('',(-463.8737531469,61.972210327545,
    1.887470061983));
#487 = CARTESIAN_POINT('',(-463.7669879436,61.982858082368,
    1.528431505171));
#488 = CARTESIAN_POINT('',(-463.6843009015,61.991297731178,
    1.156132664537));
#489 = CARTESIAN_POINT('',(-463.6281784836,61.997091317915,
    0.774473662922));
#490 = CARTESIAN_POINT('',(-463.6,62.,0.387665566046));
#491 = CARTESIAN_POINT('',(-463.6,62.,4.403101011732E-15));
#492 = PCURVE('',#177,#493);
#493 = DEFINITIONAL_REPRESENTATION('',(#494),#547);
#494 = B_SPLINE_CURVE_WITH_KNOTS('',6,(#495,#496,#497,#498,#499,#500,
    #501,#502,#503,#504,#505,#506,#507,#508,#509,#510,#511,#512,#513,
    #514,#515,#516,#517,#518,#519,#520,#521,#522,#523,#524,#525,#526,
    #527,#528,#529,#530,#531,#532,#533,#534,#535,#536,#537,#538,#539,
    #540,#541,#542,#543,#544,#545,#546),.UNSPECIFIED.,.F.,.F.,(7,5,5,5,5
    ,5,5,5,5,5,7),(0.,9.514553410899E-02,0.158733067562,0.239256956566,
    0.356786395881,0.49999999623,0.64321359658,0.76074304366,
    0.841266932591,0.904854465984,1.),.UNSPECIFIED.);
#495 = CARTESIAN_POINT('',(0.,43.6));
#496 = CARTESIAN_POINT('',(6.252670420104E-03,43.6));
#497 = CARTESIAN_POINT('',(1.24915109116E-02,43.628178483625));
#498 = CARTESIAN_POINT('',(1.864774016161E-02,43.684300901516));
#499 = CARTESIAN_POINT('',(2.465387372631E-02,43.766987943625));
#500 = CARTESIAN_POINT('',(3.044724848775E-02,43.873753146925));
#501 = CARTESIAN_POINT('',(3.96668930066E-02,44.086092032809));
#502 = CARTESIAN_POINT('',(4.324650361373E-02,44.180443511635));
#503 = CARTESIAN_POINT('',(4.670631592458E-02,44.283321398472));
#504 = CARTESIAN_POINT('',(5.004126464616E-02,44.393954605178));
#505 = CARTESIAN_POINT('',(5.324729802335E-02,44.511563965685));
#506 = CARTESIAN_POINT('',(6.021424194534E-02,44.79213302068));
#507 = CARTESIAN_POINT('',(6.389687880979E-02,44.958883704579));
#508 = CARTESIAN_POINT('',(6.73702125699E-02,45.134324379072));
#509 = CARTESIAN_POINT('',(7.063640608723E-02,45.317315478813));
#510 = CARTESIAN_POINT('',(7.369850018376E-02,45.506847769797));
#511 = CARTESIAN_POINT('',(8.073664738883E-02,45.98689217434));
#512 = CARTESIAN_POINT('',(8.448778573517E-02,46.283902328821));
#513 = CARTESIAN_POINT('',(8.782768527394E-02,46.590542519242));
#514 = CARTESIAN_POINT('',(9.077051387861E-02,46.904867421541));
#515 = CARTESIAN_POINT('',(9.332905341594E-02,47.225365257731));
#516 = CARTESIAN_POINT('',(9.817503043638E-02,47.947411004686));
#517 = CARTESIAN_POINT('',(0.100281033736,48.351364045965));
#518 = CARTESIAN_POINT('',(0.10184849072,48.760331245417));
#519 = CARTESIAN_POINT('',(0.102889403022,49.172468389024));
#520 = CARTESIAN_POINT('',(0.10341001268,49.586202949347));
#521 = CARTESIAN_POINT('',(0.10341001268,50.413797050654));
#522 = CARTESIAN_POINT('',(0.102889403022,50.827531610977));
#523 = CARTESIAN_POINT('',(0.10184849072,51.239668754581));
#524 = CARTESIAN_POINT('',(0.100281033736,51.648635954035));
#525 = CARTESIAN_POINT('',(9.817503043638E-02,52.052588995314));
#526 = CARTESIAN_POINT('',(9.332905327163E-02,52.774634763771));
#527 = CARTESIAN_POINT('',(9.077051420481E-02,53.095132545515));
#528 = CARTESIAN_POINT('',(8.782768521097E-02,53.409457479643));
#529 = CARTESIAN_POINT('',(8.448778537918E-02,53.716097703607));
#530 = CARTESIAN_POINT('',(8.073664766856E-02,54.013107806581));
#531 = CARTESIAN_POINT('',(7.369850018377E-02,54.493152230203));
#532 = CARTESIAN_POINT('',(7.063640608722E-02,54.682684521188));
#533 = CARTESIAN_POINT('',(6.737021256989E-02,54.865675620928));
#534 = CARTESIAN_POINT('',(6.389687880979E-02,55.041116295421));
#535 = CARTESIAN_POINT('',(6.021424194534E-02,55.20786697932));
#536 = CARTESIAN_POINT('',(5.324729802345E-02,55.488436034311));
#537 = CARTESIAN_POINT('',(5.004126464614E-02,55.606045394823));
#538 = CARTESIAN_POINT('',(4.670631592447E-02,55.716678601531));
#539 = CARTESIAN_POINT('',(4.324650361369E-02,55.819556488365));
#540 = CARTESIAN_POINT('',(3.966689300671E-02,55.913907967189));
#541 = CARTESIAN_POINT('',(3.044724848774E-02,56.126246853075));
#542 = CARTESIAN_POINT('',(2.465387372631E-02,56.233012056375));
#543 = CARTESIAN_POINT('',(1.864774016161E-02,56.315699098484));
#544 = CARTESIAN_POINT('',(1.24915109116E-02,56.371821516375));
#545 = CARTESIAN_POINT('',(6.252670420105E-03,56.4));
#546 = CARTESIAN_POINT('',(0.,56.4));
#547 = ( GEOMETRIC_REPRESENTATION_CONTEXT(2) 
PARAMETRIC_REPRESENTATION_CONTEXT() REPRESENTATION_CONTEXT('2D SPACE',''
  ) );
#548 = PCURVE('',#328,#549);
#549 = DEFINITIONAL_REPRESENTATION('',(#550),#603);
#550 = B_SPLINE_CURVE_WITH_KNOTS('',6,(#551,#552,#553,#554,#555,#556,
    #557,#558,#559,#560,#561,#562,#563,#564,#565,#566,#567,#568,#569,
    #570,#571,#572,#573,#574,#575,#576,#577,#578,#579,#580,#581,#582,
    #583,#584,#585,#586,#587,#588,#589,#590,#591,#592,#593,#594,#595,
    #596,#597,#598,#599,#600,#601,#602),.UNSPECIFIED.,.F.,.F.,(7,5,5,5,5
    ,5,5,5,5,5,7),(0.,9.514553410899E-02,0.158733067562,0.239256956566,
    0.356786395881,0.49999999623,0.64321359658,0.76074304366,
    0.841266932591,0.904854465984,1.),.UNSPECIFIED.);
#551 = CARTESIAN_POINT('',(3.14159265359,14.));
#552 = CARTESIAN_POINT('',(3.202165398285,14.));
#553 = CARTESIAN_POINT('',(3.262604159,13.997091317915));
#554 = CARTESIAN_POINT('',(3.322638447144,13.991297731178));
#555 = CARTESIAN_POINT('',(3.382001302744,13.982858082368));
#556 = CARTESIAN_POINT('',(3.440398146299,13.972210327545));
#557 = CARTESIAN_POINT('',(3.53562252088,13.951651630741));
#558 = CARTESIAN_POINT('',(3.573237245547,13.942655295017));
#559 = CARTESIAN_POINT('',(3.610323340879,13.933029276358));
#560 = CARTESIAN_POINT('',(3.646879065891,13.922907074316));
#561 = CARTESIAN_POINT('',(3.682898059152,13.91241974988));
#562 = CARTESIAN_POINT('',(3.763288497466,13.888104558753));
#563 = CARTESIAN_POINT('',(3.807345279806,13.874126084029));
#564 = CARTESIAN_POINT('',(3.850601022439,13.859981048746));
#565 = CARTESIAN_POINT('',(3.893109713239,13.845866980731));
#566 = CARTESIAN_POINT('',(3.934920182354,13.831953776762));
#567 = CARTESIAN_POINT('',(4.036150797496,13.798578268973));
#568 = CARTESIAN_POINT('',(4.094859008016,13.779496004096));
#569 = CARTESIAN_POINT('',(4.15239631427,13.761564857018));
#570 = CARTESIAN_POINT('',(4.208937219976,13.745098375374));
#571 = CARTESIAN_POINT('',(4.264646741732,13.730323505118));
#572 = CARTESIAN_POINT('',(4.386761848726,13.701670071619));
#573 = CARTESIAN_POINT('',(4.452843890045,13.688692947622));
#574 = CARTESIAN_POINT('',(4.518204403268,13.678786465569));
#575 = CARTESIAN_POINT('',(4.583087118436,13.672124665452));
#576 = CARTESIAN_POINT('',(4.64773319122,13.668792756142));
#577 = CARTESIAN_POINT('',(4.777044769549,13.668792756142));
#578 = CARTESIAN_POINT('',(4.841690842333,13.672124665452));
#579 = CARTESIAN_POINT('',(4.906573557501,13.678786465569));
#580 = CARTESIAN_POINT('',(4.971934070724,13.688692947622));
#581 = CARTESIAN_POINT('',(5.038016112044,13.701670071619));
#582 = CARTESIAN_POINT('',(5.160131222674,13.730323505971));
#583 = CARTESIAN_POINT('',(5.215840734684,13.745098373659));
#584 = CARTESIAN_POINT('',(5.272381646681,13.761564857239));
#585 = CARTESIAN_POINT('',(5.32991895895,13.779496005915));
#586 = CARTESIAN_POINT('',(5.38862715925,13.798578267647));
#587 = CARTESIAN_POINT('',(5.489857778416,13.831953776762));
#588 = CARTESIAN_POINT('',(5.531668247531,13.845866980731));
#589 = CARTESIAN_POINT('',(5.57417693833,13.859981048746));
#590 = CARTESIAN_POINT('',(5.617432680963,13.874126084029));
#591 = CARTESIAN_POINT('',(5.661489463303,13.888104558753));
#592 = CARTESIAN_POINT('',(5.741879901616,13.912419749879));
#593 = CARTESIAN_POINT('',(5.777898894879,13.922907074316));
#594 = CARTESIAN_POINT('',(5.814454619892,13.933029276358));
#595 = CARTESIAN_POINT('',(5.851540715223,13.942655295017));
#596 = CARTESIAN_POINT('',(5.889155439888,13.951651630741));
#597 = CARTESIAN_POINT('',(5.984379814471,13.972210327545));
#598 = CARTESIAN_POINT('',(6.042776658025,13.982858082368));
#599 = CARTESIAN_POINT('',(6.102139513625,13.991297731178));
#600 = CARTESIAN_POINT('',(6.16217380177,13.997091317915));
#601 = CARTESIAN_POINT('',(6.222612562485,14.));
#602 = CARTESIAN_POINT('',(6.28318530718,14.));
#603 = ( GEOMETRIC_REPRESENTATION_CONTEXT(2) 
PARAMETRIC_REPRESENTATION_CONTEXT() REPRESENTATION_CONTEXT('2D SPACE',''
  ) );
#604 = ADVANCED_FACE('',(#605),#103,.T.);
#605 = FACE_BOUND('',#606,.T.);
#606 = EDGE_LOOP('',(#607,#608,#609));
#607 = ORIENTED_EDGE('',*,*,#115,.F.);
#608 = ORIENTED_EDGE('',*,*,#86,.F.);
#609 = ORIENTED_EDGE('',*,*,#139,.F.);
#610 = ADVANCED_FACE('',(#611),#328,.F.);
#611 = FACE_BOUND('',#612,.F.);
#612 = EDGE_LOOP('',(#613,#614,#637,#664,#665));
#613 = ORIENTED_EDGE('',*,*,#214,.F.);
#614 = ORIENTED_EDGE('',*,*,#615,.F.);
#615 = EDGE_CURVE('',#616,#215,#618,.T.);
#616 = VERTEX_POINT('',#617);
#617 = CARTESIAN_POINT('',(-463.6,48.,1.567547902909E-15));
#618 = SEAM_CURVE('',#619,(#623,#630),.PCURVE_S1.);
#619 = LINE('',#620,#621);
#620 = CARTESIAN_POINT('',(-463.6,48.,1.567547902909E-15));
#621 = VECTOR('',#622,1.);
#622 = DIRECTION('',(0.,1.,1.110223024625E-16));
#623 = PCURVE('',#328,#624);
#624 = DEFINITIONAL_REPRESENTATION('',(#625),#629);
#625 = LINE('',#626,#627);
#626 = CARTESIAN_POINT('',(6.28318530718,0.));
#627 = VECTOR('',#628,1.);
#628 = DIRECTION('',(0.,1.));
#629 = ( GEOMETRIC_REPRESENTATION_CONTEXT(2) 
PARAMETRIC_REPRESENTATION_CONTEXT() REPRESENTATION_CONTEXT('2D SPACE',''
  ) );
#630 = PCURVE('',#328,#631);
#631 = DEFINITIONAL_REPRESENTATION('',(#632),#636);
#632 = LINE('',#633,#634);
#633 = CARTESIAN_POINT('',(0.,0.));
#634 = VECTOR('',#635,1.);
#635 = DIRECTION('',(0.,1.));
#636 = ( GEOMETRIC_REPRESENTATION_CONTEXT(2) 
PARAMETRIC_REPRESENTATION_CONTEXT() REPRESENTATION_CONTEXT('2D SPACE',''
  ) );
#637 = ORIENTED_EDGE('',*,*,#638,.T.);
#638 = EDGE_CURVE('',#616,#616,#639,.T.);
#639 = SURFACE_CURVE('',#640,(#645,#652),.PCURVE_S1.);
#640 = CIRCLE('',#641,6.4);
#641 = AXIS2_PLACEMENT_3D('',#642,#643,#644);
#642 = CARTESIAN_POINT('',(-470.,48.,0.));
#643 = DIRECTION('',(0.,1.,1.110223024625E-16));
#644 = DIRECTION('',(1.,0.,0.));
#645 = PCURVE('',#328,#646);
#646 = DEFINITIONAL_REPRESENTATION('',(#647),#651);
#647 = LINE('',#648,#649);
#648 = CARTESIAN_POINT('',(0.,0.));
#649 = VECTOR('',#650,1.);
#650 = DIRECTION('',(1.,0.));
#651 = ( GEOMETRIC_REPRESENTATION_CONTEXT(2) 
PARAMETRIC_REPRESENTATION_CONTEXT() REPRESENTATION_CONTEXT('2D SPACE',''
  ) );
#652 = PCURVE('',#653,#658);
#653 = PLANE('',#654);
#654 = AXIS2_PLACEMENT_3D('',#655,#656,#657);
#655 = CARTESIAN_POINT('',(-470.,48.,0.));
#656 = DIRECTION('',(0.,1.,1.110223024625E-16));
#657 = DIRECTION('',(1.,0.,0.));
#658 = DEFINITIONAL_REPRESENTATION('',(#659),#663);
#659 = CIRCLE('',#660,6.4);
#660 = AXIS2_PLACEMENT_2D('',#661,#662);
#661 = CARTESIAN_POINT('',(0.,0.));
#662 = DIRECTION('',(1.,0.));
#663 = ( GEOMETRIC_REPRESENTATION_CONTEXT(2) 
PARAMETRIC_REPRESENTATION_CONTEXT() REPRESENTATION_CONTEXT('2D SPACE',''
  ) );
#664 = ORIENTED_EDGE('',*,*,#615,.T.);
#665 = ORIENTED_EDGE('',*,*,#437,.F.);
#666 = ADVANCED_FACE('',(#667),#424,.T.);
#667 = FACE_BOUND('',#668,.T.);
#668 = EDGE_LOOP('',(#669,#670,#690,#717));
#669 = ORIENTED_EDGE('',*,*,#409,.T.);
#670 = ORIENTED_EDGE('',*,*,#671,.T.);
#671 = EDGE_CURVE('',#390,#672,#674,.T.);
#672 = VERTEX_POINT('',#673);
#673 = CARTESIAN_POINT('',(-420.,60.76,0.));
#674 = SEAM_CURVE('',#675,(#678,#684),.PCURVE_S1.);
#675 = B_SPLINE_CURVE_WITH_KNOTS('',1,(#676,#677),.UNSPECIFIED.,.F.,.F.,
  (2,2),(0.,1.),.PIECEWISE_BEZIER_KNOTS.);
#676 = CARTESIAN_POINT('',(-430.,62.,0.));
#677 = CARTESIAN_POINT('',(-420.,60.76,0.));
#678 = PCURVE('',#424,#679);
#679 = DEFINITIONAL_REPRESENTATION('',(#680),#683);
#680 = B_SPLINE_CURVE_WITH_KNOTS('',1,(#681,#682),.UNSPECIFIED.,.F.,.F.,
  (2,2),(0.,1.),.PIECEWISE_BEZIER_KNOTS.);
#681 = CARTESIAN_POINT('',(-6.28318530718,0.));
#682 = CARTESIAN_POINT('',(-6.28318530718,-10.));
#683 = ( GEOMETRIC_REPRESENTATION_CONTEXT(2) 
PARAMETRIC_REPRESENTATION_CONTEXT() REPRESENTATION_CONTEXT('2D SPACE',''
  ) );
#684 = PCURVE('',#424,#685);
#685 = DEFINITIONAL_REPRESENTATION('',(#686),#689);
#686 = B_SPLINE_CURVE_WITH_KNOTS('',1,(#687,#688),.UNSPECIFIED.,.F.,.F.,
  (2,2),(0.,1.),.PIECEWISE_BEZIER_KNOTS.);
#687 = CARTESIAN_POINT('',(0.,0.));
#688 = CARTESIAN_POINT('',(0.,-10.));
#689 = ( GEOMETRIC_REPRESENTATION_CONTEXT(2) 
PARAMETRIC_REPRESENTATION_CONTEXT() REPRESENTATION_CONTEXT('2D SPACE',''
  ) );
#690 = ORIENTED_EDGE('',*,*,#691,.F.);
#691 = EDGE_CURVE('',#672,#672,#692,.T.);
#692 = SURFACE_CURVE('',#693,(#698,#705),.PCURVE_S1.);
#693 = CIRCLE('',#694,60.76);
#694 = AXIS2_PLACEMENT_3D('',#695,#696,#697);
#695 = CARTESIAN_POINT('',(-420.,0.,0.));
#696 = DIRECTION('',(1.,0.,0.));
#697 = DIRECTION('',(0.,1.,0.));
#698 = PCURVE('',#424,#699);
#699 = DEFINITIONAL_REPRESENTATION('',(#700),#704);
#700 = LINE('',#701,#702);
#701 = CARTESIAN_POINT('',(0.,-10.));
#702 = VECTOR('',#703,1.);
#703 = DIRECTION('',(-1.,0.));
#704 = ( GEOMETRIC_REPRESENTATION_CONTEXT(2) 
PARAMETRIC_REPRESENTATION_CONTEXT() REPRESENTATION_CONTEXT('2D SPACE',''
  ) );
#705 = PCURVE('',#706,#711);
#706 = PLANE('',#707);
#707 = AXIS2_PLACEMENT_3D('',#708,#709,#710);
#708 = CARTESIAN_POINT('',(-420.,0.,0.));
#709 = DIRECTION('',(1.,0.,0.));
#710 = DIRECTION('',(0.,1.,0.));
#711 = DEFINITIONAL_REPRESENTATION('',(#712),#716);
#712 = CIRCLE('',#713,60.76);
#713 = AXIS2_PLACEMENT_2D('',#714,#715);
#714 = CARTESIAN_POINT('',(0.,0.));
#715 = DIRECTION('',(1.,0.));
#716 = ( GEOMETRIC_REPRESENTATION_CONTEXT(2) 
PARAMETRIC_REPRESENTATION_CONTEXT() REPRESENTATION_CONTEXT('2D SPACE',''
  ) );
#717 = ORIENTED_EDGE('',*,*,#671,.F.);
#718 = ADVANCED_FACE('',(#719),#653,.T.);
#719 = FACE_BOUND('',#720,.F.);
#720 = EDGE_LOOP('',(#721));
#721 = ORIENTED_EDGE('',*,*,#638,.F.);
#722 = ADVANCED_FACE('',(#723),#706,.T.);
#723 = FACE_BOUND('',#724,.T.);
#724 = EDGE_LOOP('',(#725));
#725 = ORIENTED_EDGE('',*,*,#691,.T.);
#726 = ( GEOMETRIC_REPRESENTATION_CONTEXT(3) 
GLOBAL_UNCERTAINTY_ASSIGNED_CONTEXT((#730)) GLOBAL_UNIT_ASSIGNED_CONTEXT
((#727,#728,#729)) REPRESENTATION_CONTEXT('Context #1',
  '3D Context with UNIT and UNCERTAINTY') );
#727 = ( LENGTH_UNIT() NAMED_UNIT(*) SI_UNIT(.MILLI.,.METRE.) );
#728 = ( NAMED_UNIT(*) PLANE_ANGLE_UNIT() SI_UNIT($,.RADIAN.) );
#729 = ( NAMED_UNIT(*) SI_UNIT($,.STERADIAN.) SOLID_ANGLE_UNIT() );
#730 = UNCERTAINTY_MEASURE_WITH_UNIT(LENGTH_MEASURE(1.E-07),#727,
  'distance_accuracy_value','confusion accuracy');
#731 = CONTEXT_DEPENDENT_SHAPE_REPRESENTATION(#732,#734);
#732 = ( REPRESENTATION_RELATIONSHIP('','',#52,#10) 
REPRESENTATION_RELATIONSHIP_WITH_TRANSFORMATION(#733) 
SHAPE_REPRESENTATION_RELATIONSHIP() );
#733 = ITEM_DEFINED_TRANSFORMATION('','',#11,#15);
#734 = PRODUCT_DEFINITION_SHAPE('Placement','Placement of an item',#735
  );
#735 = NEXT_ASSEMBLY_USAGE_OCCURRENCE('1','turning_cap','',#5,#47,$);
#736 = PRODUCT_RELATED_PRODUCT_CATEGORY('part',$,(#49));
#737 = SHAPE_DEFINITION_REPRESENTATION(#738,#744);
#738 = PRODUCT_DEFINITION_SHAPE('','',#739);
#739 = PRODUCT_DEFINITION('design','',#740,#743);
#740 = PRODUCT_DEFINITION_FORMATION('','',#741);
#741 = PRODUCT('thruster_0','thruster_0','',(#742));
#742 = PRODUCT_CONTEXT('',#2,'mechanical');
#743 = PRODUCT_DEFINITION_CONTEXT('part definition',#2,'design');
#744 = ADVANCED_BREP_SHAPE_REPRESENTATION('',(#11,#745),#1197);
#745 = MANIFOLD_SOLID_BREP('',#746);
#746 = CLOSED_SHELL('',(#747,#835,#870,#905,#960,#1015,#1050,#1085,#1140
    ,#1190));
#747 = ADVANCED_FACE('',(#748),#761,.T.);
#748 = FACE_BOUND('',#749,.T.);
#749 = EDGE_LOOP('',(#750,#784,#807,#834));
#750 = ORIENTED_EDGE('',*,*,#751,.F.);
#751 = EDGE_CURVE('',#752,#752,#754,.T.);
#752 = VERTEX_POINT('',#753);
#753 = CARTESIAN_POINT('',(12.,-2.939152317954E-15,4.));
#754 = SURFACE_CURVE('',#755,(#760,#772),.PCURVE_S1.);
#755 = CIRCLE('',#756,12.);
#756 = AXIS2_PLACEMENT_3D('',#757,#758,#759);
#757 = CARTESIAN_POINT('',(0.,0.,4.));
#758 = DIRECTION('',(0.,0.,1.));
#759 = DIRECTION('',(1.,0.,0.));
#760 = PCURVE('',#761,#766);
#761 = CYLINDRICAL_SURFACE('',#762,12.);
#762 = AXIS2_PLACEMENT_3D('',#763,#764,#765);
#763 = CARTESIAN_POINT('',(0.,0.,0.));
#764 = DIRECTION('',(0.,0.,1.));
#765 = DIRECTION('',(1.,0.,0.));
#766 = DEFINITIONAL_REPRESENTATION('',(#767),#771);
#767 = LINE('',#768,#769);
#768 = CARTESIAN_POINT('',(0.,4.));
#769 = VECTOR('',#770,1.);
#770 = DIRECTION('',(1.,0.));
#771 = ( GEOMETRIC_REPRESENTATION_CONTEXT(2) 
PARAMETRIC_REPRESENTATION_CONTEXT() REPRESENTATION_CONTEXT('2D SPACE',''
  ) );
#772 = PCURVE('',#773,#778);
#773 = PLANE('',#774);
#774 = AXIS2_PLACEMENT_3D('',#775,#776,#777);
#775 = CARTESIAN_POINT('',(0.,0.,4.));
#776 = DIRECTION('',(0.,0.,1.));
#777 = DIRECTION('',(1.,0.,0.));
#778 = DEFINITIONAL_REPRESENTATION('',(#779),#783);
#779 = CIRCLE('',#780,12.);
#780 = AXIS2_PLACEMENT_2D('',#781,#782);
#781 = CARTESIAN_POINT('',(0.,0.));
#782 = DIRECTION('',(1.,0.));
#783 = ( GEOMETRIC_REPRESENTATION_CONTEXT(2) 
PARAMETRIC_REPRESENTATION_CONTEXT() REPRESENTATION_CONTEXT('2D SPACE',''
  ) );
#784 = ORIENTED_EDGE('',*,*,#785,.T.);
#785 = EDGE_CURVE('',#752,#786,#788,.T.);
#786 = VERTEX_POINT('',#787);
#787 = CARTESIAN_POINT('',(12.,-2.939152317954E-15,0.));
#788 = SEAM_CURVE('',#789,(#793,#800),.PCURVE_S1.);
#789 = LINE('',#790,#791);
#790 = CARTESIAN_POINT('',(12.,-2.939152317954E-15,4.));
#791 = VECTOR('',#792,1.);
#792 = DIRECTION('',(0.,0.,-1.));
#793 = PCURVE('',#761,#794);
#794 = DEFINITIONAL_REPRESENTATION('',(#795),#799);
#795 = LINE('',#796,#797);
#796 = CARTESIAN_POINT('',(0.,4.));
#797 = VECTOR('',#798,1.);
#798 = DIRECTION('',(0.,-1.));
#799 = ( GEOMETRIC_REPRESENTATION_CONTEXT(2) 
PARAMETRIC_REPRESENTATION_CONTEXT() REPRESENTATION_CONTEXT('2D SPACE',''
  ) );
#800 = PCURVE('',#761,#801);
#801 = DEFINITIONAL_REPRESENTATION('',(#802),#806);
#802 = LINE('',#803,#804);
#803 = CARTESIAN_POINT('',(6.28318530718,4.));
#804 = VECTOR('',#805,1.);
#805 = DIRECTION('',(0.,-1.));
#806 = ( GEOMETRIC_REPRESENTATION_CONTEXT(2) 
PARAMETRIC_REPRESENTATION_CONTEXT() REPRESENTATION_CONTEXT('2D SPACE',''
  ) );
#807 = ORIENTED_EDGE('',*,*,#808,.T.);
#808 = EDGE_CURVE('',#786,#786,#809,.T.);
#809 = SURFACE_CURVE('',#810,(#815,#822),.PCURVE_S1.);
#810 = CIRCLE('',#811,12.);
#811 = AXIS2_PLACEMENT_3D('',#812,#813,#814);
#812 = CARTESIAN_POINT('',(0.,0.,0.));
#813 = DIRECTION('',(0.,0.,1.));
#814 = DIRECTION('',(1.,0.,0.));
#815 = PCURVE('',#761,#816);
#816 = DEFINITIONAL_REPRESENTATION('',(#817),#821);
#817 = LINE('',#818,#819);
#818 = CARTESIAN_POINT('',(0.,0.));
#819 = VECTOR('',#820,1.);
#820 = DIRECTION('',(1.,0.));
#821 = ( GEOMETRIC_REPRESENTATION_CONTEXT(2) 
PARAMETRIC_REPRESENTATION_CONTEXT() REPRESENTATION_CONTEXT('2D SPACE',''
  ) );
#822 = PCURVE('',#823,#828);
#823 = PLANE('',#824);
#824 = AXIS2_PLACEMENT_3D('',#825,#826,#827);
#825 = CARTESIAN_POINT('',(0.,0.,0.));
#826 = DIRECTION('',(0.,0.,1.));
#827 = DIRECTION('',(1.,0.,0.));
#828 = DEFINITIONAL_REPRESENTATION('',(#829),#833);
#829 = CIRCLE('',#830,12.);
#830 = AXIS2_PLACEMENT_2D('',#831,#832);
#831 = CARTESIAN_POINT('',(0.,0.));
#832 = DIRECTION('',(1.,0.));
#833 = ( GEOMETRIC_REPRESENTATION_CONTEXT(2) 
PARAMETRIC_REPRESENTATION_CONTEXT() REPRESENTATION_CONTEXT('2D SPACE',''
  ) );
#834 = ORIENTED_EDGE('',*,*,#785,.F.);
#835 = ADVANCED_FACE('',(#836,#839),#773,.T.);
#836 = FACE_BOUND('',#837,.T.);
#837 = EDGE_LOOP('',(#838));
#838 = ORIENTED_EDGE('',*,*,#751,.T.);
#839 = FACE_BOUND('',#840,.T.);
#840 = EDGE_LOOP('',(#841));
#841 = ORIENTED_EDGE('',*,*,#842,.F.);
#842 = EDGE_CURVE('',#843,#843,#845,.T.);
#843 = VERTEX_POINT('',#844);
#844 = CARTESIAN_POINT('',(11.444444444444,-2.803080451382E-15,4.));
#845 = SURFACE_CURVE('',#846,(#851,#858),.PCURVE_S1.);
#846 = CIRCLE('',#847,11.444444444444);
#847 = AXIS2_PLACEMENT_3D('',#848,#849,#850);
#848 = CARTESIAN_POINT('',(0.,0.,4.));
#849 = DIRECTION('',(0.,0.,1.));
#850 = DIRECTION('',(1.,0.,0.));
#851 = PCURVE('',#773,#852);
#852 = DEFINITIONAL_REPRESENTATION('',(#853),#857);
#853 = CIRCLE('',#854,11.444444444444);
#854 = AXIS2_PLACEMENT_2D('',#855,#856);
#855 = CARTESIAN_POINT('',(0.,0.));
#856 = DIRECTION('',(1.,0.));
#857 = ( GEOMETRIC_REPRESENTATION_CONTEXT(2) 
PARAMETRIC_REPRESENTATION_CONTEXT() REPRESENTATION_CONTEXT('2D SPACE',''
  ) );
#858 = PCURVE('',#859,#864);
#859 = CONICAL_SURFACE('',#860,12.,0.507098504392);
#860 = AXIS2_PLACEMENT_3D('',#861,#862,#863);
#861 = CARTESIAN_POINT('',(0.,0.,3.));
#862 = DIRECTION('',(0.,0.,-1.));
#863 = DIRECTION('',(1.,0.,0.));
#864 = DEFINITIONAL_REPRESENTATION('',(#865),#869);
#865 = LINE('',#866,#867);
#866 = CARTESIAN_POINT('',(0.,-1.));
#867 = VECTOR('',#868,1.);
#868 = DIRECTION('',(-1.,0.));
#869 = ( GEOMETRIC_REPRESENTATION_CONTEXT(2) 
PARAMETRIC_REPRESENTATION_CONTEXT() REPRESENTATION_CONTEXT('2D SPACE',''
  ) );
#870 = ADVANCED_FACE('',(#871,#874),#823,.F.);
#871 = FACE_BOUND('',#872,.F.);
#872 = EDGE_LOOP('',(#873));
#873 = ORIENTED_EDGE('',*,*,#808,.T.);
#874 = FACE_BOUND('',#875,.F.);
#875 = EDGE_LOOP('',(#876));
#876 = ORIENTED_EDGE('',*,*,#877,.F.);
#877 = EDGE_CURVE('',#878,#878,#880,.T.);
#878 = VERTEX_POINT('',#879);
#879 = CARTESIAN_POINT('',(5.546666666667,-1.358541515854E-15,0.));
#880 = SURFACE_CURVE('',#881,(#886,#893),.PCURVE_S1.);
#881 = CIRCLE('',#882,5.546666666667);
#882 = AXIS2_PLACEMENT_3D('',#883,#884,#885);
#883 = CARTESIAN_POINT('',(0.,0.,0.));
#884 = DIRECTION('',(0.,0.,1.));
#885 = DIRECTION('',(1.,0.,0.));
#886 = PCURVE('',#823,#887);
#887 = DEFINITIONAL_REPRESENTATION('',(#888),#892);
#888 = CIRCLE('',#889,5.546666666667);
#889 = AXIS2_PLACEMENT_2D('',#890,#891);
#890 = CARTESIAN_POINT('',(0.,0.));
#891 = DIRECTION('',(1.,0.));
#892 = ( GEOMETRIC_REPRESENTATION_CONTEXT(2) 
PARAMETRIC_REPRESENTATION_CONTEXT() REPRESENTATION_CONTEXT('2D SPACE',''
  ) );
#893 = PCURVE('',#894,#899);
#894 = CONICAL_SURFACE('',#895,5.5,0.229231933277);
#895 = AXIS2_PLACEMENT_3D('',#896,#897,#898);
#896 = CARTESIAN_POINT('',(0.,0.,-0.2));
#897 = DIRECTION('',(0.,0.,1.));
#898 = DIRECTION('',(1.,0.,0.));
#899 = DEFINITIONAL_REPRESENTATION('',(#900),#904);
#900 = LINE('',#901,#902);
#901 = CARTESIAN_POINT('',(0.,0.2));
#902 = VECTOR('',#903,1.);
#903 = DIRECTION('',(1.,0.));
#904 = ( GEOMETRIC_REPRESENTATION_CONTEXT(2) 
PARAMETRIC_REPRESENTATION_CONTEXT() REPRESENTATION_CONTEXT('2D SPACE',''
  ) );
#905 = ADVANCED_FACE('',(#906),#859,.T.);
#906 = FACE_BOUND('',#907,.T.);
#907 = EDGE_LOOP('',(#908,#937,#958,#959));
#908 = ORIENTED_EDGE('',*,*,#909,.F.);
#909 = EDGE_CURVE('',#910,#910,#912,.T.);
#910 = VERTEX_POINT('',#911);
#911 = CARTESIAN_POINT('',(9.833333333333,-2.408472038323E-15,6.9));
#912 = SURFACE_CURVE('',#913,(#918,#925),.PCURVE_S1.);
#913 = CIRCLE('',#914,9.833333333333);
#914 = AXIS2_PLACEMENT_3D('',#915,#916,#917);
#915 = CARTESIAN_POINT('',(0.,0.,6.9));
#916 = DIRECTION('',(0.,0.,1.));
#917 = DIRECTION('',(1.,0.,0.));
#918 = PCURVE('',#859,#919);
#919 = DEFINITIONAL_REPRESENTATION('',(#920),#924);
#920 = LINE('',#921,#922);
#921 = CARTESIAN_POINT('',(0.,-3.9));
#922 = VECTOR('',#923,1.);
#923 = DIRECTION('',(-1.,0.));
#924 = ( GEOMETRIC_REPRESENTATION_CONTEXT(2) 
PARAMETRIC_REPRESENTATION_CONTEXT() REPRESENTATION_CONTEXT('2D SPACE',''
  ) );
#925 = PCURVE('',#926,#931);
#926 = PLANE('',#927);
#927 = AXIS2_PLACEMENT_3D('',#928,#929,#930);
#928 = CARTESIAN_POINT('',(0.,0.,6.9));
#929 = DIRECTION('',(0.,0.,1.));
#930 = DIRECTION('',(1.,0.,0.));
#931 = DEFINITIONAL_REPRESENTATION('',(#932),#936);
#932 = CIRCLE('',#933,9.833333333333);
#933 = AXIS2_PLACEMENT_2D('',#934,#935);
#934 = CARTESIAN_POINT('',(0.,0.));
#935 = DIRECTION('',(1.,0.));
#936 = ( GEOMETRIC_REPRESENTATION_CONTEXT(2) 
PARAMETRIC_REPRESENTATION_CONTEXT() REPRESENTATION_CONTEXT('2D SPACE',''
  ) );
#937 = ORIENTED_EDGE('',*,*,#938,.F.);
#938 = EDGE_CURVE('',#843,#910,#939,.T.);
#939 = SEAM_CURVE('',#940,(#944,#951),.PCURVE_S1.);
#940 = LINE('',#941,#942);
#941 = CARTESIAN_POINT('',(12.,-2.939152317954E-15,3.));
#942 = VECTOR('',#943,1.);
#943 = DIRECTION('',(-0.485642931179,1.189482122393E-16,0.874157276122)
  );
#944 = PCURVE('',#859,#945);
#945 = DEFINITIONAL_REPRESENTATION('',(#946),#950);
#946 = LINE('',#947,#948);
#947 = CARTESIAN_POINT('',(-6.28318530718,0.));
#948 = VECTOR('',#949,1.);
#949 = DIRECTION('',(0.,-1.));
#950 = ( GEOMETRIC_REPRESENTATION_CONTEXT(2) 
PARAMETRIC_REPRESENTATION_CONTEXT() REPRESENTATION_CONTEXT('2D SPACE',''
  ) );
#951 = PCURVE('',#859,#952);
#952 = DEFINITIONAL_REPRESENTATION('',(#953),#957);
#953 = LINE('',#954,#955);
#954 = CARTESIAN_POINT('',(0.,0.));
#955 = VECTOR('',#956,1.);
#956 = DIRECTION('',(0.,-1.));
#957 = ( GEOMETRIC_REPRESENTATION_CONTEXT(2) 
PARAMETRIC_REPRESENTATION_CONTEXT() REPRESENTATION_CONTEXT('2D SPACE',''
  ) );
#958 = ORIENTED_EDGE('',*,*,#842,.T.);
#959 = ORIENTED_EDGE('',*,*,#938,.T.);
#960 = ADVANCED_FACE('',(#961),#894,.F.);
#961 = FACE_BOUND('',#962,.F.);
#962 = EDGE_LOOP('',(#963,#992,#1013,#1014));
#963 = ORIENTED_EDGE('',*,*,#964,.F.);
#964 = EDGE_CURVE('',#965,#965,#967,.T.);
#965 = VERTEX_POINT('',#966);
#966 = CARTESIAN_POINT('',(7.086666666667,-1.735732729992E-15,6.6));
#967 = SURFACE_CURVE('',#968,(#973,#980),.PCURVE_S1.);
#968 = CIRCLE('',#969,7.086666666667);
#969 = AXIS2_PLACEMENT_3D('',#970,#971,#972);
#970 = CARTESIAN_POINT('',(0.,0.,6.6));
#971 = DIRECTION('',(0.,0.,1.));
#972 = DIRECTION('',(1.,0.,0.));
#973 = PCURVE('',#894,#974);
#974 = DEFINITIONAL_REPRESENTATION('',(#975),#979);
#975 = LINE('',#976,#977);
#976 = CARTESIAN_POINT('',(0.,6.8));
#977 = VECTOR('',#978,1.);
#978 = DIRECTION('',(1.,0.));
#979 = ( GEOMETRIC_REPRESENTATION_CONTEXT(2) 
PARAMETRIC_REPRESENTATION_CONTEXT() REPRESENTATION_CONTEXT('2D SPACE',''
  ) );
#980 = PCURVE('',#981,#986);
#981 = PLANE('',#982);
#982 = AXIS2_PLACEMENT_3D('',#983,#984,#985);
#983 = CARTESIAN_POINT('',(0.,0.,6.6));
#984 = DIRECTION('',(0.,0.,1.));
#985 = DIRECTION('',(1.,0.,0.));
#986 = DEFINITIONAL_REPRESENTATION('',(#987),#991);
#987 = CIRCLE('',#988,7.086666666667);
#988 = AXIS2_PLACEMENT_2D('',#989,#990);
#989 = CARTESIAN_POINT('',(0.,0.));
#990 = DIRECTION('',(1.,0.));
#991 = ( GEOMETRIC_REPRESENTATION_CONTEXT(2) 
PARAMETRIC_REPRESENTATION_CONTEXT() REPRESENTATION_CONTEXT('2D SPACE',''
  ) );
#992 = ORIENTED_EDGE('',*,*,#993,.F.);
#993 = EDGE_CURVE('',#878,#965,#994,.T.);
#994 = SEAM_CURVE('',#995,(#999,#1006),.PCURVE_S1.);
#995 = LINE('',#996,#997);
#996 = CARTESIAN_POINT('',(5.5,-1.347111479062E-15,-0.2));
#997 = VECTOR('',#998,1.);
#998 = DIRECTION('',(0.227229615606,-5.565520428478E-17,0.973841209742)
  );
#999 = PCURVE('',#894,#1000);
#1000 = DEFINITIONAL_REPRESENTATION('',(#1001),#1005);
#1001 = LINE('',#1002,#1003);
#1002 = CARTESIAN_POINT('',(6.28318530718,0.));
#1003 = VECTOR('',#1004,1.);
#1004 = DIRECTION('',(0.,1.));
#1005 = ( GEOMETRIC_REPRESENTATION_CONTEXT(2) 
PARAMETRIC_REPRESENTATION_CONTEXT() REPRESENTATION_CONTEXT('2D SPACE',''
  ) );
#1006 = PCURVE('',#894,#1007);
#1007 = DEFINITIONAL_REPRESENTATION('',(#1008),#1012);
#1008 = LINE('',#1009,#1010);
#1009 = CARTESIAN_POINT('',(0.,0.));
#1010 = VECTOR('',#1011,1.);
#1011 = DIRECTION('',(0.,1.));
#1012 = ( GEOMETRIC_REPRESENTATION_CONTEXT(2) 
PARAMETRIC_REPRESENTATION_CONTEXT() REPRESENTATION_CONTEXT('2D SPACE',''
  ) );
#1013 = ORIENTED_EDGE('',*,*,#877,.T.);
#1014 = ORIENTED_EDGE('',*,*,#993,.T.);
#1015 = ADVANCED_FACE('',(#1016,#1047),#926,.F.);
#1016 = FACE_BOUND('',#1017,.F.);
#1017 = EDGE_LOOP('',(#1018));
#1018 = ORIENTED_EDGE('',*,*,#1019,.T.);
#1019 = EDGE_CURVE('',#1020,#1020,#1022,.T.);
#1020 = VERTEX_POINT('',#1021);
#1021 = CARTESIAN_POINT('',(10.2,-2.498279470261E-15,6.9));
#1022 = SURFACE_CURVE('',#1023,(#1028,#1035),.PCURVE_S1.);
#1023 = CIRCLE('',#1024,10.2);
#1024 = AXIS2_PLACEMENT_3D('',#1025,#1026,#1027);
#1025 = CARTESIAN_POINT('',(0.,0.,6.9));
#1026 = DIRECTION('',(0.,0.,1.));
#1027 = DIRECTION('',(1.,0.,0.));
#1028 = PCURVE('',#926,#1029);
#1029 = DEFINITIONAL_REPRESENTATION('',(#1030),#1034);
#1030 = CIRCLE('',#1031,10.2);
#1031 = AXIS2_PLACEMENT_2D('',#1032,#1033);
#1032 = CARTESIAN_POINT('',(0.,0.));
#1033 = DIRECTION('',(1.,0.));
#1034 = ( GEOMETRIC_REPRESENTATION_CONTEXT(2) 
PARAMETRIC_REPRESENTATION_CONTEXT() REPRESENTATION_CONTEXT('2D SPACE',''
  ) );
#1035 = PCURVE('',#1036,#1041);
#1036 = CYLINDRICAL_SURFACE('',#1037,10.2);
#1037 = AXIS2_PLACEMENT_3D('',#1038,#1039,#1040);
#1038 = CARTESIAN_POINT('',(0.,0.,6.9));
#1039 = DIRECTION('',(0.,0.,1.));
#1040 = DIRECTION('',(1.,0.,0.));
#1041 = DEFINITIONAL_REPRESENTATION('',(#1042),#1046);
#1042 = LINE('',#1043,#1044);
#1043 = CARTESIAN_POINT('',(0.,0.));
#1044 = VECTOR('',#1045,1.);
#1045 = DIRECTION('',(1.,0.));
#1046 = ( GEOMETRIC_REPRESENTATION_CONTEXT(2) 
PARAMETRIC_REPRESENTATION_CONTEXT() REPRESENTATION_CONTEXT('2D SPACE',''
  ) );
#1047 = FACE_BOUND('',#1048,.F.);
#1048 = EDGE_LOOP('',(#1049));
#1049 = ORIENTED_EDGE('',*,*,#909,.F.);
#1050 = ADVANCED_FACE('',(#1051,#1082),#981,.T.);
#1051 = FACE_BOUND('',#1052,.T.);
#1052 = EDGE_LOOP('',(#1053));
#1053 = ORIENTED_EDGE('',*,*,#1054,.T.);
#1054 = EDGE_CURVE('',#1055,#1055,#1057,.T.);
#1055 = VERTEX_POINT('',#1056);
#1056 = CARTESIAN_POINT('',(8.1,-1.983927814619E-15,6.6));
#1057 = SURFACE_CURVE('',#1058,(#1063,#1070),.PCURVE_S1.);
#1058 = CIRCLE('',#1059,8.1);
#1059 = AXIS2_PLACEMENT_3D('',#1060,#1061,#1062);
#1060 = CARTESIAN_POINT('',(0.,0.,6.6));
#1061 = DIRECTION('',(0.,0.,1.));
#1062 = DIRECTION('',(1.,0.,0.));
#1063 = PCURVE('',#981,#1064);
#1064 = DEFINITIONAL_REPRESENTATION('',(#1065),#1069);
#1065 = CIRCLE('',#1066,8.1);
#1066 = AXIS2_PLACEMENT_2D('',#1067,#1068);
#1067 = CARTESIAN_POINT('',(0.,0.));
#1068 = DIRECTION('',(1.,0.));
#1069 = ( GEOMETRIC_REPRESENTATION_CONTEXT(2) 
PARAMETRIC_REPRESENTATION_CONTEXT() REPRESENTATION_CONTEXT('2D SPACE',''
  ) );
#1070 = PCURVE('',#1071,#1076);
#1071 = CYLINDRICAL_SURFACE('',#1072,8.1);
#1072 = AXIS2_PLACEMENT_3D('',#1073,#1074,#1075);
#1073 = CARTESIAN_POINT('',(0.,0.,6.6));
#1074 = DIRECTION('',(0.,0.,1.));
#1075 = DIRECTION('',(1.,0.,0.));
#1076 = DEFINITIONAL_REPRESENTATION('',(#1077),#1081);
#1077 = LINE('',#1078,#1079);
#1078 = CARTESIAN_POINT('',(0.,0.));
#1079 = VECTOR('',#1080,1.);
#1080 = DIRECTION('',(1.,0.));
#1081 = ( GEOMETRIC_REPRESENTATION_CONTEXT(2) 
PARAMETRIC_REPRESENTATION_CONTEXT() REPRESENTATION_CONTEXT('2D SPACE',''
  ) );
#1082 = FACE_BOUND('',#1083,.T.);
#1083 = EDGE_LOOP('',(#1084));
#1084 = ORIENTED_EDGE('',*,*,#964,.F.);
#1085 = ADVANCED_FACE('',(#1086),#1036,.T.);
#1086 = FACE_BOUND('',#1087,.T.);
#1087 = EDGE_LOOP('',(#1088,#1117,#1138,#1139));
#1088 = ORIENTED_EDGE('',*,*,#1089,.F.);
#1089 = EDGE_CURVE('',#1090,#1090,#1092,.T.);
#1090 = VERTEX_POINT('',#1091);
#1091 = CARTESIAN_POINT('',(10.2,-2.498279470261E-15,8.2));
#1092 = SURFACE_CURVE('',#1093,(#1098,#1105),.PCURVE_S1.);
#1093 = CIRCLE('',#1094,10.2);
#1094 = AXIS2_PLACEMENT_3D('',#1095,#1096,#1097);
#1095 = CARTESIAN_POINT('',(0.,0.,8.2));
#1096 = DIRECTION('',(0.,0.,1.));
#1097 = DIRECTION('',(1.,0.,0.));
#1098 = PCURVE('',#1036,#1099);
#1099 = DEFINITIONAL_REPRESENTATION('',(#1100),#1104);
#1100 = LINE('',#1101,#1102);
#1101 = CARTESIAN_POINT('',(0.,1.3));
#1102 = VECTOR('',#1103,1.);
#1103 = DIRECTION('',(1.,0.));
#1104 = ( GEOMETRIC_REPRESENTATION_CONTEXT(2) 
PARAMETRIC_REPRESENTATION_CONTEXT() REPRESENTATION_CONTEXT('2D SPACE',''
  ) );
#1105 = PCURVE('',#1106,#1111);
#1106 = PLANE('',#1107);
#1107 = AXIS2_PLACEMENT_3D('',#1108,#1109,#1110);
#1108 = CARTESIAN_POINT('',(0.,0.,8.2));
#1109 = DIRECTION('',(0.,0.,1.));
#1110 = DIRECTION('',(1.,0.,0.));
#1111 = DEFINITIONAL_REPRESENTATION('',(#1112),#1116);
#1112 = CIRCLE('',#1113,10.2);
#1113 = AXIS2_PLACEMENT_2D('',#1114,#1115);
#1114 = CARTESIAN_POINT('',(0.,0.));
#1115 = DIRECTION('',(1.,0.));
#1116 = ( GEOMETRIC_REPRESENTATION_CONTEXT(2) 
PARAMETRIC_REPRESENTATION_CONTEXT() REPRESENTATION_CONTEXT('2D SPACE',''
  ) );
#1117 = ORIENTED_EDGE('',*,*,#1118,.F.);
#1118 = EDGE_CURVE('',#1020,#1090,#1119,.T.);
#1119 = SEAM_CURVE('',#1120,(#1124,#1131),.PCURVE_S1.);
#1120 = LINE('',#1121,#1122);
#1121 = CARTESIAN_POINT('',(10.2,-2.498279470261E-15,6.9));
#1122 = VECTOR('',#1123,1.);
#1123 = DIRECTION('',(0.,0.,1.));
#1124 = PCURVE('',#1036,#1125);
#1125 = DEFINITIONAL_REPRESENTATION('',(#1126),#1130);
#1126 = LINE('',#1127,#1128);
#1127 = CARTESIAN_POINT('',(6.28318530718,0.));
#1128 = VECTOR('',#1129,1.);
#1129 = DIRECTION('',(0.,1.));
#1130 = ( GEOMETRIC_REPRESENTATION_CONTEXT(2) 
PARAMETRIC_REPRESENTATION_CONTEXT() REPRESENTATION_CONTEXT('2D SPACE',''
  ) );
#1131 = PCURVE('',#1036,#1132);
#1132 = DEFINITIONAL_REPRESENTATION('',(#1133),#1137);
#1133 = LINE('',#1134,#1135);
#1134 = CARTESIAN_POINT('',(0.,0.));
#1135 = VECTOR('',#1136,1.);
#1136 = DIRECTION('',(0.,1.));
#1137 = ( GEOMETRIC_REPRESENTATION_CONTEXT(2) 
PARAMETRIC_REPRESENTATION_CONTEXT() REPRESENTATION_CONTEXT('2D SPACE',''
  ) );
#1138 = ORIENTED_EDGE('',*,*,#1019,.T.);
#1139 = ORIENTED_EDGE('',*,*,#1118,.T.);
#1140 = ADVANCED_FACE('',(#1141),#1071,.F.);
#1141 = FACE_BOUND('',#1142,.F.);
#1142 = EDGE_LOOP('',(#1143,#1167,#1188,#1189));
#1143 = ORIENTED_EDGE('',*,*,#1144,.F.);
#1144 = EDGE_CURVE('',#1145,#1145,#1147,.T.);
#1145 = VERTEX_POINT('',#1146);
#1146 = CARTESIAN_POINT('',(8.1,-1.983927814619E-15,8.2));
#1147 = SURFACE_CURVE('',#1148,(#1153,#1160),.PCURVE_S1.);
#1148 = CIRCLE('',#1149,8.1);
#1149 = AXIS2_PLACEMENT_3D('',#1150,#1151,#1152);
#1150 = CARTESIAN_POINT('',(0.,0.,8.2));
#1151 = DIRECTION('',(0.,0.,1.));
#1152 = DIRECTION('',(1.,0.,0.));
#1153 = PCURVE('',#1071,#1154);
#1154 = DEFINITIONAL_REPRESENTATION('',(#1155),#1159);
#1155 = LINE('',#1156,#1157);
#1156 = CARTESIAN_POINT('',(0.,1.6));
#1157 = VECTOR('',#1158,1.);
#1158 = DIRECTION('',(1.,0.));
#1159 = ( GEOMETRIC_REPRESENTATION_CONTEXT(2) 
PARAMETRIC_REPRESENTATION_CONTEXT() REPRESENTATION_CONTEXT('2D SPACE',''
  ) );
#1160 = PCURVE('',#1106,#1161);
#1161 = DEFINITIONAL_REPRESENTATION('',(#1162),#1166);
#1162 = CIRCLE('',#1163,8.1);
#1163 = AXIS2_PLACEMENT_2D('',#1164,#1165);
#1164 = CARTESIAN_POINT('',(0.,0.));
#1165 = DIRECTION('',(1.,0.));
#1166 = ( GEOMETRIC_REPRESENTATION_CONTEXT(2) 
PARAMETRIC_REPRESENTATION_CONTEXT() REPRESENTATION_CONTEXT('2D SPACE',''
  ) );
#1167 = ORIENTED_EDGE('',*,*,#1168,.F.);
#1168 = EDGE_CURVE('',#1055,#1145,#1169,.T.);
#1169 = SEAM_CURVE('',#1170,(#1174,#1181),.PCURVE_S1.);
#1170 = LINE('',#1171,#1172);
#1171 = CARTESIAN_POINT('',(8.1,-1.983927814619E-15,6.6));
#1172 = VECTOR('',#1173,1.);
#1173 = DIRECTION('',(0.,0.,1.));
#1174 = PCURVE('',#1071,#1175);
#1175 = DEFINITIONAL_REPRESENTATION('',(#1176),#1180);
#1176 = LINE('',#1177,#1178);
#1177 = CARTESIAN_POINT('',(6.28318530718,0.));
#1178 = VECTOR('',#1179,1.);
#1179 = DIRECTION('',(0.,1.));
#1180 = ( GEOMETRIC_REPRESENTATION_CONTEXT(2) 
PARAMETRIC_REPRESENTATION_CONTEXT() REPRESENTATION_CONTEXT('2D SPACE',''
  ) );
#1181 = PCURVE('',#1071,#1182);
#1182 = DEFINITIONAL_REPRESENTATION('',(#1183),#1187);
#1183 = LINE('',#1184,#1185);
#1184 = CARTESIAN_POINT('',(0.,0.));
#1185 = VECTOR('',#1186,1.);
#1186 = DIRECTION('',(0.,1.));
#1187 = ( GEOMETRIC_REPRESENTATION_CONTEXT(2) 
PARAMETRIC_REPRESENTATION_CONTEXT() REPRESENTATION_CONTEXT('2D SPACE',''
  ) );
#1188 = ORIENTED_EDGE('',*,*,#1054,.T.);
#1189 = ORIENTED_EDGE('',*,*,#1168,.T.);
#1190 = ADVANCED_FACE('',(#1191,#1194),#1106,.T.);
#1191 = FACE_BOUND('',#1192,.T.);
#1192 = EDGE_LOOP('',(#1193));
#1193 = ORIENTED_EDGE('',*,*,#1089,.T.);
#1194 = FACE_BOUND('',#1195,.T.);
#1195 = EDGE_LOOP('',(#1196));
#1196 = ORIENTED_EDGE('',*,*,#1144,.F.);
#1197 = ( GEOMETRIC_REPRESENTATION_CONTEXT(3) 
GLOBAL_UNCERTAINTY_ASSIGNED_CONTEXT((#1201)) 
GLOBAL_UNIT_ASSIGNED_CONTEXT((#1198,#1199,#1200)) REPRESENTATION_CONTEXT
('Context #1','3D Context with UNIT and UNCERTAINTY') );
#1198 = ( LENGTH_UNIT() NAMED_UNIT(*) SI_UNIT(.MILLI.,.METRE.) );
#1199 = ( NAMED_UNIT(*) PLANE_ANGLE_UNIT() SI_UNIT($,.RADIAN.) );
#1200 = ( NAMED_UNIT(*) SI_UNIT($,.STERADIAN.) SOLID_ANGLE_UNIT() );
#1201 = UNCERTAINTY_MEASURE_WITH_UNIT(LENGTH_MEASURE(1.E-07),#1198,
  'distance_accuracy_value','confusion accuracy');
#1202 = CONTEXT_DEPENDENT_SHAPE_REPRESENTATION(#1203,#1205);
#1203 = ( REPRESENTATION_RELATIONSHIP('','',#744,#10) 
REPRESENTATION_RELATIONSHIP_WITH_TRANSFORMATION(#1204) 
SHAPE_REPRESENTATION_RELATIONSHIP() );
#1204 = ITEM_DEFINED_TRANSFORMATION('','',#11,#19);
#1205 = PRODUCT_DEFINITION_SHAPE('Placement','Placement of an item',
  #1206);
#1206 = NEXT_ASSEMBLY_USAGE_OCCURRENCE('2','thruster_0','',#5,#739,$);
#1207 = PRODUCT_RELATED_PRODUCT_CATEGORY('part',$,(#741));
#1208 = SHAPE_DEFINITION_REPRESENTATION(#1209,#1215);
#1209 = PRODUCT_DEFINITION_SHAPE('','',#1210);
#1210 = PRODUCT_DEFINITION('design','',#1211,#1214);
#1211 = PRODUCT_DEFINITION_FORMATION('','',#1212);
#1212 = PRODUCT('thruster_270','thruster_270','',(#1213));
#1213 = PRODUCT_CONTEXT('',#2,'mechanical');
#1214 = PRODUCT_DEFINITION_CONTEXT('part definition',#2,'design');
#1215 = ADVANCED_BREP_SHAPE_REPRESENTATION('',(#11,#1216),#1398);
#1216 = MANIFOLD_SOLID_BREP('',#1217);
#1217 = CLOSED_SHELL('',(#1218,#1306,#1341,#1371));
#1218 = ADVANCED_FACE('',(#1219),#1232,.T.);
#1219 = FACE_BOUND('',#1220,.T.);
#1220 = EDGE_LOOP('',(#1221,#1255,#1278,#1305));
#1221 = ORIENTED_EDGE('',*,*,#1222,.F.);
#1222 = EDGE_CURVE('',#1223,#1223,#1225,.T.);
#1223 = VERTEX_POINT('',#1224);
#1224 = CARTESIAN_POINT('',(10.5,-2.571758278209E-15,9.));
#1225 = SURFACE_CURVE('',#1226,(#1231,#1243),.PCURVE_S1.);
#1226 = CIRCLE('',#1227,10.5);
#1227 = AXIS2_PLACEMENT_3D('',#1228,#1229,#1230);
#1228 = CARTESIAN_POINT('',(0.,0.,9.));
#1229 = DIRECTION('',(0.,0.,1.));
#1230 = DIRECTION('',(1.,0.,0.));
#1231 = PCURVE('',#1232,#1237);
#1232 = CYLINDRICAL_SURFACE('',#1233,10.5);
#1233 = AXIS2_PLACEMENT_3D('',#1234,#1235,#1236);
#1234 = CARTESIAN_POINT('',(0.,0.,-9.));
#1235 = DIRECTION('',(0.,0.,1.));
#1236 = DIRECTION('',(1.,0.,0.));
#1237 = DEFINITIONAL_REPRESENTATION('',(#1238),#1242);
#1238 = LINE('',#1239,#1240);
#1239 = CARTESIAN_POINT('',(0.,18.));
#1240 = VECTOR('',#1241,1.);
#1241 = DIRECTION('',(1.,0.));
#1242 = ( GEOMETRIC_REPRESENTATION_CONTEXT(2) 
PARAMETRIC_REPRESENTATION_CONTEXT() REPRESENTATION_CONTEXT('2D SPACE',''
  ) );
#1243 = PCURVE('',#1244,#1249);
#1244 = PLANE('',#1245);
#1245 = AXIS2_PLACEMENT_3D('',#1246,#1247,#1248);
#1246 = CARTESIAN_POINT('',(0.,0.,9.));
#1247 = DIRECTION('',(0.,0.,1.));
#1248 = DIRECTION('',(1.,0.,0.));
#1249 = DEFINITIONAL_REPRESENTATION('',(#1250),#1254);
#1250 = CIRCLE('',#1251,10.5);
#1251 = AXIS2_PLACEMENT_2D('',#1252,#1253);
#1252 = CARTESIAN_POINT('',(0.,0.));
#1253 = DIRECTION('',(1.,0.));
#1254 = ( GEOMETRIC_REPRESENTATION_CONTEXT(2) 
PARAMETRIC_REPRESENTATION_CONTEXT() REPRESENTATION_CONTEXT('2D SPACE',''
  ) );
#1255 = ORIENTED_EDGE('',*,*,#1256,.F.);
#1256 = EDGE_CURVE('',#1257,#1223,#1259,.T.);
#1257 = VERTEX_POINT('',#1258);
#1258 = CARTESIAN_POINT('',(10.5,-2.571758278209E-15,-9.));
#1259 = SEAM_CURVE('',#1260,(#1264,#1271),.PCURVE_S1.);
#1260 = LINE('',#1261,#1262);
#1261 = CARTESIAN_POINT('',(10.5,-2.571758278209E-15,-9.));
#1262 = VECTOR('',#1263,1.);
#1263 = DIRECTION('',(0.,0.,1.));
#1264 = PCURVE('',#1232,#1265);
#1265 = DEFINITIONAL_REPRESENTATION('',(#1266),#1270);
#1266 = LINE('',#1267,#1268);
#1267 = CARTESIAN_POINT('',(6.28318530718,0.));
#1268 = VECTOR('',#1269,1.);
#1269 = DIRECTION('',(0.,1.));
#1270 = ( GEOMETRIC_REPRESENTATION_CONTEXT(2) 
PARAMETRIC_REPRESENTATION_CONTEXT() REPRESENTATION_CONTEXT('2D SPACE',''
  ) );
#1271 = PCURVE('',#1232,#1272);
#1272 = DEFINITIONAL_REPRESENTATION('',(#1273),#1277);
#1273 = LINE('',#1274,#1275);
#1274 = CARTESIAN_POINT('',(0.,0.));
#1275 = VECTOR('',#1276,1.);
#1276 = DIRECTION('',(0.,1.));
#1277 = ( GEOMETRIC_REPRESENTATION_CONTEXT(2) 
PARAMETRIC_REPRESENTATION_CONTEXT() REPRESENTATION_CONTEXT('2D SPACE',''
  ) );
#1278 = ORIENTED_EDGE('',*,*,#1279,.T.);
#1279 = EDGE_CURVE('',#1257,#1257,#1280,.T.);
#1280 = SURFACE_CURVE('',#1281,(#1286,#1293),.PCURVE_S1.);
#1281 = CIRCLE('',#1282,10.5);
#1282 = AXIS2_PLACEMENT_3D('',#1283,#1284,#1285);
#1283 = CARTESIAN_POINT('',(0.,0.,-9.));
#1284 = DIRECTION('',(0.,0.,1.));
#1285 = DIRECTION('',(1.,0.,0.));
#1286 = PCURVE('',#1232,#1287);
#1287 = DEFINITIONAL_REPRESENTATION('',(#1288),#1292);
#1288 = LINE('',#1289,#1290);
#1289 = CARTESIAN_POINT('',(0.,0.));
#1290 = VECTOR('',#1291,1.);
#1291 = DIRECTION('',(1.,0.));
#1292 = ( GEOMETRIC_REPRESENTATION_CONTEXT(2) 
PARAMETRIC_REPRESENTATION_CONTEXT() REPRESENTATION_CONTEXT('2D SPACE',''
  ) );
#1293 = PCURVE('',#1294,#1299);
#1294 = PLANE('',#1295);
#1295 = AXIS2_PLACEMENT_3D('',#1296,#1297,#1298);
#1296 = CARTESIAN_POINT('',(0.,0.,-9.));
#1297 = DIRECTION('',(0.,0.,1.));
#1298 = DIRECTION('',(1.,0.,0.));
#1299 = DEFINITIONAL_REPRESENTATION('',(#1300),#1304);
#1300 = CIRCLE('',#1301,10.5);
#1301 = AXIS2_PLACEMENT_2D('',#1302,#1303);
#1302 = CARTESIAN_POINT('',(0.,0.));
#1303 = DIRECTION('',(1.,0.));
#1304 = ( GEOMETRIC_REPRESENTATION_CONTEXT(2) 
PARAMETRIC_REPRESENTATION_CONTEXT() REPRESENTATION_CONTEXT('2D SPACE',''
  ) );
#1305 = ORIENTED_EDGE('',*,*,#1256,.T.);
#1306 = ADVANCED_FACE('',(#1307,#1310),#1244,.T.);
#1307 = FACE_BOUND('',#1308,.T.);
#1308 = EDGE_LOOP('',(#1309));
#1309 = ORIENTED_EDGE('',*,*,#1222,.T.);
#1310 = FACE_BOUND('',#1311,.T.);
#1311 = EDGE_LOOP('',(#1312));
#1312 = ORIENTED_EDGE('',*,*,#1313,.F.);
#1313 = EDGE_CURVE('',#1314,#1314,#1316,.T.);
#1314 = VERTEX_POINT('',#1315);
#1315 = CARTESIAN_POINT('',(6.6,-1.616533774875E-15,9.));
#1316 = SURFACE_CURVE('',#1317,(#1322,#1329),.PCURVE_S1.);
#1317 = CIRCLE('',#1318,6.6);
#1318 = AXIS2_PLACEMENT_3D('',#1319,#1320,#1321);
#1319 = CARTESIAN_POINT('',(0.,0.,9.));
#1320 = DIRECTION('',(0.,0.,1.));
#1321 = DIRECTION('',(1.,0.,0.));
#1322 = PCURVE('',#1244,#1323);
#1323 = DEFINITIONAL_REPRESENTATION('',(#1324),#1328);
#1324 = CIRCLE('',#1325,6.6);
#1325 = AXIS2_PLACEMENT_2D('',#1326,#1327);
#1326 = CARTESIAN_POINT('',(0.,0.));
#1327 = DIRECTION('',(1.,0.));
#1328 = ( GEOMETRIC_REPRESENTATION_CONTEXT(2) 
PARAMETRIC_REPRESENTATION_CONTEXT() REPRESENTATION_CONTEXT('2D SPACE',''
  ) );
#1329 = PCURVE('',#1330,#1335);
#1330 = CYLINDRICAL_SURFACE('',#1331,6.6);
#1331 = AXIS2_PLACEMENT_3D('',#1332,#1333,#1334);
#1332 = CARTESIAN_POINT('',(0.,0.,-10.));
#1333 = DIRECTION('',(0.,0.,1.));
#1334 = DIRECTION('',(1.,0.,0.));
#1335 = DEFINITIONAL_REPRESENTATION('',(#1336),#1340);
#1336 = LINE('',#1337,#1338);
#1337 = CARTESIAN_POINT('',(0.,19.));
#1338 = VECTOR('',#1339,1.);
#1339 = DIRECTION('',(1.,0.));
#1340 = ( GEOMETRIC_REPRESENTATION_CONTEXT(2) 
PARAMETRIC_REPRESENTATION_CONTEXT() REPRESENTATION_CONTEXT('2D SPACE',''
  ) );
#1341 = ADVANCED_FACE('',(#1342,#1345),#1294,.F.);
#1342 = FACE_BOUND('',#1343,.F.);
#1343 = EDGE_LOOP('',(#1344));
#1344 = ORIENTED_EDGE('',*,*,#1279,.T.);
#1345 = FACE_BOUND('',#1346,.F.);
#1346 = EDGE_LOOP('',(#1347));
#1347 = ORIENTED_EDGE('',*,*,#1348,.F.);
#1348 = EDGE_CURVE('',#1349,#1349,#1351,.T.);
#1349 = VERTEX_POINT('',#1350);
#1350 = CARTESIAN_POINT('',(6.6,-1.616533774875E-15,-9.));
#1351 = SURFACE_CURVE('',#1352,(#1357,#1364),.PCURVE_S1.);
#1352 = CIRCLE('',#1353,6.6);
#1353 = AXIS2_PLACEMENT_3D('',#1354,#1355,#1356);
#1354 = CARTESIAN_POINT('',(0.,0.,-9.));
#1355 = DIRECTION('',(0.,0.,1.));
#1356 = DIRECTION('',(1.,0.,0.));
#1357 = PCURVE('',#1294,#1358);
#1358 = DEFINITIONAL_REPRESENTATION('',(#1359),#1363);
#1359 = CIRCLE('',#1360,6.6);
#1360 = AXIS2_PLACEMENT_2D('',#1361,#1362);
#1361 = CARTESIAN_POINT('',(0.,0.));
#1362 = DIRECTION('',(1.,0.));
#1363 = ( GEOMETRIC_REPRESENTATION_CONTEXT(2) 
PARAMETRIC_REPRESENTATION_CONTEXT() REPRESENTATION_CONTEXT('2D SPACE',''
  ) );
#1364 = PCURVE('',#1330,#1365);
#1365 = DEFINITIONAL_REPRESENTATION('',(#1366),#1370);
#1366 = LINE('',#1367,#1368);
#1367 = CARTESIAN_POINT('',(0.,1.));
#1368 = VECTOR('',#1369,1.);
#1369 = DIRECTION('',(1.,0.));
#1370 = ( GEOMETRIC_REPRESENTATION_CONTEXT(2) 
PARAMETRIC_REPRESENTATION_CONTEXT() REPRESENTATION_CONTEXT('2D SPACE',''
  ) );
#1371 = ADVANCED_FACE('',(#1372),#1330,.F.);
#1372 = FACE_BOUND('',#1373,.F.);
#1373 = EDGE_LOOP('',(#1374,#1375,#1396,#1397));
#1374 = ORIENTED_EDGE('',*,*,#1313,.F.);
#1375 = ORIENTED_EDGE('',*,*,#1376,.F.);
#1376 = EDGE_CURVE('',#1349,#1314,#1377,.T.);
#1377 = SEAM_CURVE('',#1378,(#1382,#1389),.PCURVE_S1.);
#1378 = LINE('',#1379,#1380);
#1379 = CARTESIAN_POINT('',(6.6,-1.616533774875E-15,-10.));
#1380 = VECTOR('',#1381,1.);
#1381 = DIRECTION('',(0.,0.,1.));
#1382 = PCURVE('',#1330,#1383);
#1383 = DEFINITIONAL_REPRESENTATION('',(#1384),#1388);
#1384 = LINE('',#1385,#1386);
#1385 = CARTESIAN_POINT('',(6.28318530718,0.));
#1386 = VECTOR('',#1387,1.);
#1387 = DIRECTION('',(0.,1.));
#1388 = ( GEOMETRIC_REPRESENTATION_CONTEXT(2) 
PARAMETRIC_REPRESENTATION_CONTEXT() REPRESENTATION_CONTEXT('2D SPACE',''
  ) );
#1389 = PCURVE('',#1330,#1390);
#1390 = DEFINITIONAL_REPRESENTATION('',(#1391),#1395);
#1391 = LINE('',#1392,#1393);
#1392 = CARTESIAN_POINT('',(0.,0.));
#1393 = VECTOR('',#1394,1.);
#1394 = DIRECTION('',(0.,1.));
#1395 = ( GEOMETRIC_REPRESENTATION_CONTEXT(2) 
PARAMETRIC_REPRESENTATION_CONTEXT() REPRESENTATION_CONTEXT('2D SPACE',''
  ) );
#1396 = ORIENTED_EDGE('',*,*,#1348,.T.);
#1397 = ORIENTED_EDGE('',*,*,#1376,.T.);
#1398 = ( GEOMETRIC_REPRESENTATION_CONTEXT(3) 
GLOBAL_UNCERTAINTY_ASSIGNED_CONTEXT((#1402)) 
GLOBAL_UNIT_ASSIGNED_CONTEXT((#1399,#1400,#1401)) REPRESENTATION_CONTEXT
('Context #1','3D Context with UNIT and UNCERTAINTY') );
#1399 = ( LENGTH_UNIT() NAMED_UNIT(*) SI_UNIT(.MILLI.,.METRE.) );
#1400 = ( NAMED_UNIT(*) PLANE_ANGLE_UNIT() SI_UNIT($,.RADIAN.) );
#1401 = ( NAMED_UNIT(*) SI_UNIT($,.STERADIAN.) SOLID_ANGLE_UNIT() );
#1402 = UNCERTAINTY_MEASURE_WITH_UNIT(LENGTH_MEASURE(1.E-07),#1399,
  'distance_accuracy_value','confusion accuracy');
#1403 = CONTEXT_DEPENDENT_SHAPE_REPRESENTATION(#1404,#1406);
#1404 = ( REPRESENTATION_RELATIONSHIP('','',#1215,#10) 
REPRESENTATION_RELATIONSHIP_WITH_TRANSFORMATION(#1405) 
SHAPE_REPRESENTATION_RELATIONSHIP() );
#1405 = ITEM_DEFINED_TRANSFORMATION('','',#11,#23);
#1406 = PRODUCT_DEFINITION_SHAPE('Placement','Placement of an item',
  #1407);
#1407 = NEXT_ASSEMBLY_USAGE_OCCURRENCE('3','thruster_90','',#5,#1210,$);
#1408 = PRODUCT_RELATED_PRODUCT_CATEGORY('part',$,(#1212));
#1409 = CONTEXT_DEPENDENT_SHAPE_REPRESENTATION(#1410,#1412);
#1410 = ( REPRESENTATION_RELATIONSHIP('','',#1215,#10) 
REPRESENTATION_RELATIONSHIP_WITH_TRANSFORMATION(#1411) 
SHAPE_REPRESENTATION_RELATIONSHIP() );
#1411 = ITEM_DEFINED_TRANSFORMATION('','',#11,#27);
#1412 = PRODUCT_DEFINITION_SHAPE('Placement','Placement of an item',
  #1413);
#1413 = NEXT_ASSEMBLY_USAGE_OCCURRENCE('4','thruster_180','',#5,#1210,$
  );
#1414 = CONTEXT_DEPENDENT_SHAPE_REPRESENTATION(#1415,#1417);
#1415 = ( REPRESENTATION_RELATIONSHIP('','',#1215,#10) 
REPRESENTATION_RELATIONSHIP_WITH_TRANSFORMATION(#1416) 
SHAPE_REPRESENTATION_RELATIONSHIP() );
#1416 = ITEM_DEFINED_TRANSFORMATION('','',#11,#31);
#1417 = PRODUCT_DEFINITION_SHAPE('Placement','Placement of an item',
  #1418);
#1418 = NEXT_ASSEMBLY_USAGE_OCCURRENCE('5','thruster_270','',#5,#1210,$
  );
#1419 = SHAPE_DEFINITION_REPRESENTATION(#1420,#1426);
#1420 = PRODUCT_DEFINITION_SHAPE('','',#1421);
#1421 = PRODUCT_DEFINITION('design','',#1422,#1425);
#1422 = PRODUCT_DEFINITION_FORMATION('','',#1423);
#1423 = PRODUCT('thruster_0_throat','thruster_0_throat','',(#1424));
#1424 = PRODUCT_CONTEXT('',#2,'mechanical');
#1425 = PRODUCT_DEFINITION_CONTEXT('part definition',#2,'design');
#1426 = ADVANCED_BREP_SHAPE_REPRESENTATION('',(#11,#1427),#1525);
#1427 = MANIFOLD_SOLID_BREP('',#1428);
#1428 = CLOSED_SHELL('',(#1429,#1517,#1521));
#1429 = ADVANCED_FACE('',(#1430),#1443,.T.);
#1430 = FACE_BOUND('',#1431,.T.);
#1431 = EDGE_LOOP('',(#1432,#1466,#1489,#1516));
#1432 = ORIENTED_EDGE('',*,*,#1433,.F.);
#1433 = EDGE_CURVE('',#1434,#1434,#1436,.T.);
#1434 = VERTEX_POINT('',#1435);
#1435 = CARTESIAN_POINT('',(5.8,-1.420590287011E-15,2.));
#1436 = SURFACE_CURVE('',#1437,(#1442,#1454),.PCURVE_S1.);
#1437 = CIRCLE('',#1438,5.8);
#1438 = AXIS2_PLACEMENT_3D('',#1439,#1440,#1441);
#1439 = CARTESIAN_POINT('',(0.,0.,2.));
#1440 = DIRECTION('',(0.,0.,1.));
#1441 = DIRECTION('',(1.,0.,0.));
#1442 = PCURVE('',#1443,#1448);
#1443 = CYLINDRICAL_SURFACE('',#1444,5.8);
#1444 = AXIS2_PLACEMENT_3D('',#1445,#1446,#1447);
#1445 = CARTESIAN_POINT('',(0.,0.,0.));
#1446 = DIRECTION('',(0.,0.,1.));
#1447 = DIRECTION('',(1.,0.,0.));
#1448 = DEFINITIONAL_REPRESENTATION('',(#1449),#1453);
#1449 = LINE('',#1450,#1451);
#1450 = CARTESIAN_POINT('',(0.,2.));
#1451 = VECTOR('',#1452,1.);
#1452 = DIRECTION('',(1.,0.));
#1453 = ( GEOMETRIC_REPRESENTATION_CONTEXT(2) 
PARAMETRIC_REPRESENTATION_CONTEXT() REPRESENTATION_CONTEXT('2D SPACE',''
  ) );
#1454 = PCURVE('',#1455,#1460);
#1455 = PLANE('',#1456);
#1456 = AXIS2_PLACEMENT_3D('',#1457,#1458,#1459);
#1457 = CARTESIAN_POINT('',(0.,0.,2.));
#1458 = DIRECTION('',(0.,0.,1.));
#1459 = DIRECTION('',(1.,0.,0.));
#1460 = DEFINITIONAL_REPRESENTATION('',(#1461),#1465);
#1461 = CIRCLE('',#1462,5.8);
#1462 = AXIS2_PLACEMENT_2D('',#1463,#1464);
#1463 = CARTESIAN_POINT('',(0.,0.));
#1464 = DIRECTION('',(1.,0.));
#1465 = ( GEOMETRIC_REPRESENTATION_CONTEXT(2) 
PARAMETRIC_REPRESENTATION_CONTEXT() REPRESENTATION_CONTEXT('2D SPACE',''
  ) );
#1466 = ORIENTED_EDGE('',*,*,#1467,.F.);
#1467 = EDGE_CURVE('',#1468,#1434,#1470,.T.);
#1468 = VERTEX_POINT('',#1469);
#1469 = CARTESIAN_POINT('',(5.8,-1.420590287011E-15,0.));
#1470 = SEAM_CURVE('',#1471,(#1475,#1482),.PCURVE_S1.);
#1471 = LINE('',#1472,#1473);
#1472 = CARTESIAN_POINT('',(5.8,-1.420590287011E-15,0.));
#1473 = VECTOR('',#1474,1.);
#1474 = DIRECTION('',(0.,0.,1.));
#1475 = PCURVE('',#1443,#1476);
#1476 = DEFINITIONAL_REPRESENTATION('',(#1477),#1481);
#1477 = LINE('',#1478,#1479);
#1478 = CARTESIAN_POINT('',(6.28318530718,0.));
#1479 = VECTOR('',#1480,1.);
#1480 = DIRECTION('',(0.,1.));
#1481 = ( GEOMETRIC_REPRESENTATION_CONTEXT(2) 
PARAMETRIC_REPRESENTATION_CONTEXT() REPRESENTATION_CONTEXT('2D SPACE',''
  ) );
#1482 = PCURVE('',#1443,#1483);
#1483 = DEFINITIONAL_REPRESENTATION('',(#1484),#1488);
#1484 = LINE('',#1485,#1486);
#1485 = CARTESIAN_POINT('',(0.,0.));
#1486 = VECTOR('',#1487,1.);
#1487 = DIRECTION('',(0.,1.));
#1488 = ( GEOMETRIC_REPRESENTATION_CONTEXT(2) 
PARAMETRIC_REPRESENTATION_CONTEXT() REPRESENTATION_CONTEXT('2D SPACE',''
  ) );
#1489 = ORIENTED_EDGE('',*,*,#1490,.T.);
#1490 = EDGE_CURVE('',#1468,#1468,#1491,.T.);
#1491 = SURFACE_CURVE('',#1492,(#1497,#1504),.PCURVE_S1.);
#1492 = CIRCLE('',#1493,5.8);
#1493 = AXIS2_PLACEMENT_3D('',#1494,#1495,#1496);
#1494 = CARTESIAN_POINT('',(0.,0.,0.));
#1495 = DIRECTION('',(0.,0.,1.));
#1496 = DIRECTION('',(1.,0.,0.));
#1497 = PCURVE('',#1443,#1498);
#1498 = DEFINITIONAL_REPRESENTATION('',(#1499),#1503);
#1499 = LINE('',#1500,#1501);
#1500 = CARTESIAN_POINT('',(0.,0.));
#1501 = VECTOR('',#1502,1.);
#1502 = DIRECTION('',(1.,0.));
#1503 = ( GEOMETRIC_REPRESENTATION_CONTEXT(2) 
PARAMETRIC_REPRESENTATION_CONTEXT() REPRESENTATION_CONTEXT('2D SPACE',''
  ) );
#1504 = PCURVE('',#1505,#1510);
#1505 = PLANE('',#1506);
#1506 = AXIS2_PLACEMENT_3D('',#1507,#1508,#1509);
#1507 = CARTESIAN_POINT('',(0.,0.,0.));
#1508 = DIRECTION('',(0.,0.,1.));
#1509 = DIRECTION('',(1.,0.,0.));
#1510 = DEFINITIONAL_REPRESENTATION('',(#1511),#1515);
#1511 = CIRCLE('',#1512,5.8);
#1512 = AXIS2_PLACEMENT_2D('',#1513,#1514);
#1513 = CARTESIAN_POINT('',(0.,0.));
#1514 = DIRECTION('',(1.,0.));
#1515 = ( GEOMETRIC_REPRESENTATION_CONTEXT(2) 
PARAMETRIC_REPRESENTATION_CONTEXT() REPRESENTATION_CONTEXT('2D SPACE',''
  ) );
#1516 = ORIENTED_EDGE('',*,*,#1467,.T.);
#1517 = ADVANCED_FACE('',(#1518),#1455,.T.);
#1518 = FACE_BOUND('',#1519,.T.);
#1519 = EDGE_LOOP('',(#1520));
#1520 = ORIENTED_EDGE('',*,*,#1433,.T.);
#1521 = ADVANCED_FACE('',(#1522),#1505,.F.);
#1522 = FACE_BOUND('',#1523,.T.);
#1523 = EDGE_LOOP('',(#1524));
#1524 = ORIENTED_EDGE('',*,*,#1490,.F.);
#1525 = ( GEOMETRIC_REPRESENTATION_CONTEXT(3) 
GLOBAL_UNCERTAINTY_ASSIGNED_CONTEXT((#1529)) 
GLOBAL_UNIT_ASSIGNED_CONTEXT((#1526,#1527,#1528)) REPRESENTATION_CONTEXT
('Context #1','3D Context with UNIT and UNCERTAINTY') );
#1526 = ( LENGTH_UNIT() NAMED_UNIT(*) SI_UNIT(.MILLI.,.METRE.) );
#1527 = ( NAMED_UNIT(*) PLANE_ANGLE_UNIT() SI_UNIT($,.RADIAN.) );
#1528 = ( NAMED_UNIT(*) SI_UNIT($,.STERADIAN.) SOLID_ANGLE_UNIT() );
#1529 = UNCERTAINTY_MEASURE_WITH_UNIT(LENGTH_MEASURE(1.E-07),#1526,
  'distance_accuracy_value','confusion accuracy');
#1530 = CONTEXT_DEPENDENT_SHAPE_REPRESENTATION(#1531,#1533);
#1531 = ( REPRESENTATION_RELATIONSHIP('','',#1426,#10) 
REPRESENTATION_RELATIONSHIP_WITH_TRANSFORMATION(#1532) 
SHAPE_REPRESENTATION_RELATIONSHIP() );
#1532 = ITEM_DEFINED_TRANSFORMATION('','',#11,#35);
#1533 = PRODUCT_DEFINITION_SHAPE('Placement','Placement of an item',
  #1534);
#1534 = NEXT_ASSEMBLY_USAGE_OCCURRENCE('6','thruster_0_throat','',#5,
  #1421,$);
#1535 = PRODUCT_RELATED_PRODUCT_CATEGORY('part',$,(#1423));
#1536 = SHAPE_DEFINITION_REPRESENTATION(#734,#1537);
#1537 = SHAPE_REPRESENTATION('',(#15),#726);
#1538 = SHAPE_DEFINITION_REPRESENTATION(#1205,#1539);
#1539 = SHAPE_REPRESENTATION('',(#19),#1197);
#1540 = SHAPE_DEFINITION_REPRESENTATION(#1406,#1541);
#1541 = SHAPE_REPRESENTATION('',(#23),#1398);
#1542 = SHAPE_DEFINITION_REPRESENTATION(#1412,#1543);
#1543 = SHAPE_REPRESENTATION('',(#27),#1398);
#1544 = SHAPE_DEFINITION_REPRESENTATION(#1417,#1545);
#1545 = SHAPE_REPRESENTATION('',(#31),#1398);
#1546 = SHAPE_DEFINITION_REPRESENTATION(#1533,#1547);
#1547 = SHAPE_REPRESENTATION('',(#35),#1525);
#1548 = SHAPE_DEFINITION_REPRESENTATION(#734,#1549);
#1549 = SHAPE_REPRESENTATION('',(#15),#726);
#1550 = SHAPE_DEFINITION_REPRESENTATION(#1205,#1551);
#1551 = SHAPE_REPRESENTATION('',(#19),#1197);
#1552 = SHAPE_DEFINITION_REPRESENTATION(#1406,#1553);
#1553 = SHAPE_REPRESENTATION('',(#23),#1398);
#1554 = SHAPE_DEFINITION_REPRESENTATION(#1412,#1555);
#1555 = SHAPE_REPRESENTATION('',(#27),#1398);
#1556 = SHAPE_DEFINITION_REPRESENTATION(#1417,#1557);
#1557 = SHAPE_REPRESENTATION('',(#31),#1398);
#1558 = SHAPE_DEFINITION_REPRESENTATION(#1533,#1559);
#1559 = SHAPE_REPRESENTATION('',(#35),#1525);
#1560 = MECHANICAL_DESIGN_GEOMETRIC_PRESENTATION_REPRESENTATION('',(
    #1561,#1569),#726);
#1561 = STYLED_ITEM('color',(#1562),#53);
#1562 = PRESENTATION_STYLE_ASSIGNMENT((#1563));
#1563 = SURFACE_STYLE_USAGE(.BOTH.,#1564);
#1564 = SURFACE_SIDE_STYLE('',(#1565));
#1565 = SURFACE_STYLE_FILL_AREA(#1566);
#1566 = FILL_AREA_STYLE('',(#1567));
#1567 = FILL_AREA_STYLE_COLOUR('',#1568);
#1568 = COLOUR_RGB('',0.580392170981,0.619607810787,0.639215690656);
#1569 = OVER_RIDING_STYLED_ITEM('overriding color',(#1570),#53,#1561);
#1570 = PRESENTATION_STYLE_BY_CONTEXT((#1571),#1549);
#1571 = SURFACE_STYLE_USAGE(.BOTH.,#1572);
#1572 = SURFACE_SIDE_STYLE('',(#1573));
#1573 = SURFACE_STYLE_FILL_AREA(#1574);
#1574 = FILL_AREA_STYLE('',(#1575));
#1575 = FILL_AREA_STYLE_COLOUR('',#1576);
#1576 = COLOUR_RGB('',0.580392170981,0.619607810787,0.639215690656);
#1577 = MECHANICAL_DESIGN_GEOMETRIC_PRESENTATION_REPRESENTATION('',(
    #1578,#1586),#1197);
#1578 = STYLED_ITEM('color',(#1579),#745);
#1579 = PRESENTATION_STYLE_ASSIGNMENT((#1580));
#1580 = SURFACE_STYLE_USAGE(.BOTH.,#1581);
#1581 = SURFACE_SIDE_STYLE('',(#1582));
#1582 = SURFACE_STYLE_FILL_AREA(#1583);
#1583 = FILL_AREA_STYLE('',(#1584));
#1584 = FILL_AREA_STYLE_COLOUR('',#1585);
#1585 = COLOUR_RGB('',0.188235174936,0.219607738591,0.231372472571);
#1586 = OVER_RIDING_STYLED_ITEM('overriding color',(#1587),#745,#1578);
#1587 = PRESENTATION_STYLE_BY_CONTEXT((#1588),#1551);
#1588 = SURFACE_STYLE_USAGE(.BOTH.,#1589);
#1589 = SURFACE_SIDE_STYLE('',(#1590));
#1590 = SURFACE_STYLE_FILL_AREA(#1591);
#1591 = FILL_AREA_STYLE('',(#1592));
#1592 = FILL_AREA_STYLE_COLOUR('',#1593);
#1593 = COLOUR_RGB('',0.188235174936,0.219607738591,0.231372472571);
#1594 = MECHANICAL_DESIGN_GEOMETRIC_PRESENTATION_REPRESENTATION('',(
    #1595,#1603,#1610,#1617,#1625,#1632),#1398);
#1595 = STYLED_ITEM('color',(#1596),#1216);
#1596 = PRESENTATION_STYLE_ASSIGNMENT((#1597));
#1597 = SURFACE_STYLE_USAGE(.BOTH.,#1598);
#1598 = SURFACE_SIDE_STYLE('',(#1599));
#1599 = SURFACE_STYLE_FILL_AREA(#1600);
#1600 = FILL_AREA_STYLE('',(#1601));
#1601 = FILL_AREA_STYLE_COLOUR('',#1602);
#1602 = COLOUR_RGB('',0.196078319175,0.227450951338,0.243137191472);
#1603 = OVER_RIDING_STYLED_ITEM('overriding color',(#1604),#1216,#1595);
#1604 = PRESENTATION_STYLE_BY_CONTEXT((#1605),#1543);
#1605 = SURFACE_STYLE_USAGE(.BOTH.,#1606);
#1606 = SURFACE_SIDE_STYLE('',(#1607));
#1607 = SURFACE_STYLE_FILL_AREA(#1608);
#1608 = FILL_AREA_STYLE('',(#1609));
#1609 = FILL_AREA_STYLE_COLOUR('',#1602);
#1610 = OVER_RIDING_STYLED_ITEM('overriding color',(#1611),#1216,#1595);
#1611 = PRESENTATION_STYLE_BY_CONTEXT((#1612),#1545);
#1612 = SURFACE_STYLE_USAGE(.BOTH.,#1613);
#1613 = SURFACE_SIDE_STYLE('',(#1614));
#1614 = SURFACE_STYLE_FILL_AREA(#1615);
#1615 = FILL_AREA_STYLE('',(#1616));
#1616 = FILL_AREA_STYLE_COLOUR('',#1602);
#1617 = OVER_RIDING_STYLED_ITEM('overriding color',(#1618),#1216,#1595);
#1618 = PRESENTATION_STYLE_BY_CONTEXT((#1619),#1553);
#1619 = SURFACE_STYLE_USAGE(.BOTH.,#1620);
#1620 = SURFACE_SIDE_STYLE('',(#1621));
#1621 = SURFACE_STYLE_FILL_AREA(#1622);
#1622 = FILL_AREA_STYLE('',(#1623));
#1623 = FILL_AREA_STYLE_COLOUR('',#1624);
#1624 = COLOUR_RGB('',0.196078319175,0.227450951338,0.243137191472);
#1625 = OVER_RIDING_STYLED_ITEM('overriding color',(#1626),#1216,#1595);
#1626 = PRESENTATION_STYLE_BY_CONTEXT((#1627),#1555);
#1627 = SURFACE_STYLE_USAGE(.BOTH.,#1628);
#1628 = SURFACE_SIDE_STYLE('',(#1629));
#1629 = SURFACE_STYLE_FILL_AREA(#1630);
#1630 = FILL_AREA_STYLE('',(#1631));
#1631 = FILL_AREA_STYLE_COLOUR('',#1624);
#1632 = OVER_RIDING_STYLED_ITEM('overriding color',(#1633),#1216,#1595);
#1633 = PRESENTATION_STYLE_BY_CONTEXT((#1634),#1557);
#1634 = SURFACE_STYLE_USAGE(.BOTH.,#1635);
#1635 = SURFACE_SIDE_STYLE('',(#1636));
#1636 = SURFACE_STYLE_FILL_AREA(#1637);
#1637 = FILL_AREA_STYLE('',(#1638));
#1638 = FILL_AREA_STYLE_COLOUR('',#1624);
#1639 = MECHANICAL_DESIGN_GEOMETRIC_PRESENTATION_REPRESENTATION('',(
    #1640),#1525);
#1640 = STYLED_ITEM('color',(#1641),#1427);
#1641 = PRESENTATION_STYLE_ASSIGNMENT((#1642));
#1642 = SURFACE_STYLE_USAGE(.BOTH.,#1643);
#1643 = SURFACE_SIDE_STYLE('',(#1644));
#1644 = SURFACE_STYLE_FILL_AREA(#1645);
#1645 = FILL_AREA_STYLE('',(#1646));
#1646 = FILL_AREA_STYLE_COLOUR('',#1647);
#1647 = COLOUR_RGB('',6.666674308799E-02,9.019589542666E-02,
  0.105882390936);
ENDSEC;
END-ISO-10303-21;
