# https://github.com/mikedh/trimesh
v -0.00000000 -0.10550000 -0.30870000
v 0.00630934 -0.10531117 -0.30870000
v 0.01259609 -0.10474535 -0.30870000
v 0.01883775 -0.10380457 -0.30870000
v 0.02501198 -0.10249220 -0.30870000
v 0.03109667 -0.10081293 -0.30870000
v 0.03707004 -0.09877278 -0.30870000
v 0.04291072 -0.09637905 -0.30870000
v 0.04859778 -0.09364030 -0.30870000
v 0.05411087 -0.09056635 -0.30870000
v 0.05943027 -0.08716819 -0.30870000
v 0.06453691 -0.08345799 -0.30870000
v 0.06941254 -0.07944904 -0.30870000
v 0.07403968 -0.07515568 -0.30870000
v 0.07840178 -0.07059328 -0.30870000
v 0.08248322 -0.06577817 -0.30870000
v 0.08626940 -0.06072760 -0.30870000
v 0.08974675 -0.05545964 -0.30870000
v 0.09290283 -0.04999314 -0.30870000
v 0.09572634 -0.04434769 -0.30870000
v 0.09820718 -0.03854348 -0.30870000
v 0.10033646 -0.03260129 -0.30870000
v 0.10210657 -0.02654240 -0.30870000
v 0.10351115 -0.02038850 -0.30870000
v 0.10454520 -0.01416161 -0.30870000
v 0.10520500 -0.00788402 -0.30870000
v 0.10548819 -0.00157822 -0.30870000
v 0.10539377 0.00473324 -0.30870000
v 0.10492206 0.01102775 -0.30870000
v 0.10407476 0.01728279 -0.30870000
v 0.10285489 0.02347596 -0.30870000
v 0.10126684 0.02958509 -0.30870000
v 0.09931627 0.03558831 -0.30870000
v 0.09701018 0.04146414 -0.30870000
v 0.09435682 0.04719154 -0.30870000
v 0.09136568 0.05275000 -0.30870000
v 0.08804748 0.05811963 -0.30870000
v 0.08441409 0.06328121 -0.30870000
v 0.08047852 0.06821626 -0.30870000
v 0.07625486 0.07290711 -0.30870000
v 0.07175822 0.07733697 -0.30870000
v 0.06700471 0.08148999 -0.30870000
v 0.06201134 0.08535129 -0.30870000
v 0.05679599 0.08890706 -0.30870000
v 0.05137732 0.09214457 -0.30870000
v 0.04577473 0.09505222 -0.30870000
v 0.04000829 0.09761960 -0.30870000
v 0.03409862 0.09983754 -0.30870000
v 0.02806689 0.10169808 -0.30870000
v 0.02193468 0.10319457 -0.30870000
v 0.01572396 0.10432165 -0.30870000
v 0.00945695 0.10507529 -0.30870000
v 0.00315608 0.10545278 -0.30870000
v -0.00315608 0.10545278 -0.30870000
v -0.00945695 0.10507529 -0.30870000
v -0.01572396 0.10432165 -0.30870000
v -0.02193468 0.10319457 -0.30870000
v -0.02806689 0.10169808 -0.30870000
v -0.03409862 0.09983754 -0.30870000
v -0.04000829 0.09761960 -0.30870000
v -0.04577473 0.09505222 -0.30870000
v -0.05137732 0.09214457 -0.30870000
v -0.05679599 0.08890706 -0.30870000
v -0.06201134 0.08535129 -0.30870000
v -0.06700471 0.08148999 -0.30870000
v -0.07175822 0.07733697 -0.30870000
v -0.07625486 0.07290711 -0.30870000
v -0.08047852 0.06821626 -0.30870000
v -0.08441409 0.06328121 -0.30870000
v -0.08804748 0.05811963 -0.30870000
v -0.09136568 0.05275000 -0.30870000
v -0.09435682 0.04719154 -0.30870000
v -0.09701018 0.04146414 -0.30870000
v -0.09931627 0.03558831 -0.30870000
v -0.10126684 0.02958509 -0.30870000
v -0.10285489 0.02347596 -0.30870000
v -0.10407476 0.01728279 -0.30870000
v -0.10492206 0.01102775 -0.30870000
v -0.10539377 0.00473324 -0.30870000
v -0.10548819 -0.00157822 -0.30870000
v -0.10520500 -0.00788402 -0.30870000
v -0.10454520 -0.01416161 -0.30870000
v -0.10351115 -0.02038850 -0.30870000
v -0.10210657 -0.02654240 -0.30870000
v -0.10033646 -0.03260129 -0.30870000
v -0.09820718 -0.03854348 -0.30870000
v -0.09572634 -0.04434769 -0.30870000
v -0.09290283 -0.04999314 -0.30870000
v -0.08974675 -0.05545964 -0.30870000
v -0.08626940 -0.06072760 -0.30870000
v -0.08248322 -0.06577817 -0.30870000
v -0.07840178 -0.07059328 -0.30870000
v -0.07403968 -0.07515568 -0.30870000
v -0.06941254 -0.07944904 -0.30870000
v -0.06453691 -0.08345799 -0.30870000
v -0.05943027 -0.08716819 -0.30870000
v -0.05411087 -0.09056635 -0.30870000
v -0.04859778 -0.09364030 -0.30870000
v -0.04291072 -0.09637905 -0.30870000
v -0.03707004 -0.09877278 -0.30870000
v -0.03109667 -0.10081293 -0.30870000
v -0.02501198 -0.10249220 -0.30870000
v -0.01883775 -0.10380457 -0.30870000
v -0.01259609 -0.10474535 -0.30870000
v -0.00630934 -0.10531117 -0.30870000
v -0.00000000 -0.10550000 -0.33670000
v 0.00630934 -0.10531117 -0.33670000
v 0.01259609 -0.10474535 -0.33670000
v 0.01883775 -0.10380457 -0.33670000
v 0.02501198 -0.10249220 -0.33670000
v 0.03109667 -0.10081293 -0.33670000
v 0.03707004 -0.09877278 -0.33670000
v 0.04291072 -0.09637905 -0.33670000
v 0.04859778 -0.09364030 -0.33670000
v 0.05411087 -0.09056635 -0.33670000
v 0.05943027 -0.08716819 -0.33670000
v 0.06453691 -0.08345799 -0.33670000
v 0.06941254 -0.07944904 -0.33670000
v 0.07403968 -0.07515568 -0.33670000
v 0.07840178 -0.07059328 -0.33670000
v 0.08248322 -0.06577817 -0.33670000
v 0.08626940 -0.06072760 -0.33670000
v 0.08974675 -0.05545964 -0.33670000
v 0.09290283 -0.04999314 -0.33670000
v 0.09572634 -0.04434769 -0.33670000
v 0.09820718 -0.03854348 -0.33670000
v 0.10033646 -0.03260129 -0.33670000
v 0.10210657 -0.02654240 -0.33670000
v 0.10351115 -0.02038850 -0.33670000
v 0.10454520 -0.01416161 -0.33670000
v 0.10520500 -0.00788402 -0.33670000
v 0.10548819 -0.00157822 -0.33670000
v 0.10539377 0.00473324 -0.33670000
v 0.10492206 0.01102775 -0.33670000
v 0.10407476 0.01728279 -0.33670000
v 0.10285489 0.02347596 -0.33670000
v 0.10126684 0.02958509 -0.33670000
v 0.09931627 0.03558831 -0.33670000
v 0.09701018 0.04146414 -0.33670000
v 0.09435682 0.04719154 -0.33670000
v 0.09136568 0.05275000 -0.33670000
v 0.08804748 0.05811963 -0.33670000
v 0.08441409 0.06328121 -0.33670000
v 0.08047852 0.06821626 -0.33670000
v 0.07625486 0.07290711 -0.33670000
v 0.07175822 0.07733697 -0.33670000
v 0.06700471 0.08148999 -0.33670000
v 0.06201134 0.08535129 -0.33670000
v 0.05679599 0.08890706 -0.33670000
v 0.05137732 0.09214457 -0.33670000
v 0.04577473 0.09505222 -0.33670000
v 0.04000829 0.09761960 -0.33670000
v 0.03409862 0.09983754 -0.33670000
v 0.02806689 0.10169808 -0.33670000
v 0.02193468 0.10319457 -0.33670000
v 0.01572396 0.10432165 -0.33670000
v 0.00945695 0.10507529 -0.33670000
v 0.00315608 0.10545278 -0.33670000
v -0.00315608 0.10545278 -0.33670000
v -0.00945695 0.10507529 -0.33670000
v -0.01572396 0.10432165 -0.33670000
v -0.02193468 0.10319457 -0.33670000
v -0.02806689 0.10169808 -0.33670000
v -0.03409862 0.09983754 -0.33670000
v -0.04000829 0.09761960 -0.33670000
v -0.04577473 0.09505222 -0.33670000
v -0.05137732 0.09214457 -0.33670000
v -0.05679599 0.08890706 -0.33670000
v -0.06201134 0.08535129 -0.33670000
v -0.06700471 0.08148999 -0.33670000
v -0.07175822 0.07733697 -0.33670000
v -0.07625486 0.07290711 -0.33670000
v -0.08047852 0.06821626 -0.33670000
v -0.08441409 0.06328121 -0.33670000
v -0.08804748 0.05811963 -0.33670000
v -0.09136568 0.05275000 -0.33670000
v -0.09435682 0.04719154 -0.33670000
v -0.09701018 0.04146414 -0.33670000
v -0.09931627 0.03558831 -0.33670000
v -0.10126684 0.02958509 -0.33670000
v -0.10285489 0.02347596 -0.33670000
v -0.10407476 0.01728279 -0.33670000
v -0.10492206 0.01102775 -0.33670000
v -0.10539377 0.00473324 -0.33670000
v -0.10548819 -0.00157822 -0.33670000
v -0.10520500 -0.00788402 -0.33670000
v -0.10454520 -0.01416161 -0.33670000
v -0.10351115 -0.02038850 -0.33670000
v -0.10210657 -0.02654240 -0.33670000
v -0.10033646 -0.03260129 -0.33670000
v -0.09820718 -0.03854348 -0.33670000
v -0.09572634 -0.04434769 -0.33670000
v -0.09290283 -0.04999314 -0.33670000
v -0.08974675 -0.05545964 -0.33670000
v -0.08626940 -0.06072760 -0.33670000
v -0.08248322 -0.06577817 -0.33670000
v -0.07840178 -0.07059328 -0.33670000
v -0.07403968 -0.07515568 -0.33670000
v -0.06941254 -0.07944904 -0.33670000
v -0.06453691 -0.08345799 -0.33670000
v -0.05943027 -0.08716819 -0.33670000
v -0.05411087 -0.09056635 -0.33670000
v -0.04859778 -0.09364030 -0.33670000
v -0.04291072 -0.09637905 -0.33670000
v -0.03707004 -0.09877278 -0.33670000
v -0.03109667 -0.10081293 -0.33670000
v -0.02501198 -0.10249220 -0.33670000
v -0.01883775 -0.10380457 -0.33670000
v -0.01259609 -0.10474535 -0.33670000
v -0.00630934 -0.10531117 -0.33670000
v -0.00000000 -0.06600000 -0.30870000
v 0.00394707 -0.06588187 -0.30870000
v 0.00788002 -0.06552790 -0.30870000
v 0.01178476 -0.06493935 -0.30870000
v 0.01564730 -0.06411834 -0.30870000
v 0.01945384 -0.06306781 -0.30870000
v 0.02319074 -0.06179150 -0.30870000
v 0.02684462 -0.06029400 -0.30870000
v 0.03040240 -0.05858066 -0.30870000
v 0.03385135 -0.05665762 -0.30870000
v 0.03717912 -0.05453176 -0.30870000
v 0.04037380 -0.05221069 -0.30870000
v 0.04342396 -0.04970272 -0.30870000
v 0.04631866 -0.04701682 -0.30870000
v 0.04904756 -0.04416262 -0.30870000
v 0.05160088 -0.04115033 -0.30870000
v 0.05396948 -0.03799073 -0.30870000
v 0.05614488 -0.03469513 -0.30870000
v 0.05811931 -0.03127533 -0.30870000
v 0.05988567 -0.02774358 -0.30870000
v 0.06143767 -0.02411251 -0.30870000
v 0.06276973 -0.02039512 -0.30870000
v 0.06387709 -0.01660473 -0.30870000
v 0.06475579 -0.01275489 -0.30870000
v 0.06540268 -0.00885940 -0.30870000
v 0.06581545 -0.00493219 -0.30870000
v 0.06599261 -0.00098732 -0.30870000
v 0.06593354 0.00296108 -0.30870000
v 0.06563845 0.00689888 -0.30870000
v 0.06510838 0.01081198 -0.30870000
v 0.06434524 0.01468638 -0.30870000
v 0.06335177 0.01850821 -0.30870000
v 0.06213151 0.02226378 -0.30870000
v 0.06068883 0.02593965 -0.30870000
v 0.05902891 0.02952267 -0.30870000
v 0.05715768 0.03300000 -0.30870000
v 0.05508183 0.03635920 -0.30870000
v 0.05280881 0.03958825 -0.30870000
v 0.05034675 0.04267557 -0.30870000
v 0.04770446 0.04561013 -0.30870000
v 0.04489140 0.04838142 -0.30870000
v 0.04191764 0.05097952 -0.30870000
v 0.03879383 0.05339512 -0.30870000
v 0.03553114 0.05561958 -0.30870000
v 0.03214126 0.05764494 -0.30870000
v 0.02863633 0.05946395 -0.30870000
v 0.02502888 0.06107008 -0.30870000
v 0.02133184 0.06245761 -0.30870000
v 0.01755843 0.06362155 -0.30870000
v 0.01372217 0.06455774 -0.30870000
v 0.00983679 0.06526283 -0.30870000
v 0.00591619 0.06573430 -0.30870000
v 0.00197442 0.06597046 -0.30870000
v -0.00197442 0.06597046 -0.30870000
v -0.00591619 0.06573430 -0.30870000
v -0.00983679 0.06526283 -0.30870000
v -0.01372217 0.06455774 -0.30870000
v -0.01755843 0.06362155 -0.30870000
v -0.02133184 0.06245761 -0.30870000
v -0.02502888 0.06107008 -0.30870000
v -0.02863633 0.05946395 -0.30870000
v -0.03214126 0.05764494 -0.30870000
v -0.03553114 0.05561958 -0.30870000
v -0.03879383 0.05339512 -0.30870000
v -0.04191764 0.05097952 -0.30870000
v -0.04489140 0.04838142 -0.30870000
v -0.04770446 0.04561013 -0.30870000
v -0.05034675 0.04267557 -0.30870000
v -0.05280881 0.03958825 -0.30870000
v -0.05508183 0.03635920 -0.30870000
v -0.05715768 0.03300000 -0.30870000
v -0.05902891 0.02952267 -0.30870000
v -0.06068883 0.02593965 -0.30870000
v -0.06213151 0.02226378 -0.30870000
v -0.06335177 0.01850821 -0.30870000
v -0.06434524 0.01468638 -0.30870000
v -0.06510838 0.01081198 -0.30870000
v -0.06563845 0.00689888 -0.30870000
v -0.06593354 0.00296108 -0.30870000
v -0.06599261 -0.00098732 -0.30870000
v -0.06581545 -0.00493219 -0.30870000
v -0.06540268 -0.00885940 -0.30870000
v -0.06475579 -0.01275489 -0.30870000
v -0.06387709 -0.01660473 -0.30870000
v -0.06276973 -0.02039512 -0.30870000
v -0.06143767 -0.02411251 -0.30870000
v -0.05988567 -0.02774358 -0.30870000
v -0.05811931 -0.03127533 -0.30870000
v -0.05614488 -0.03469513 -0.30870000
v -0.05396948 -0.03799073 -0.30870000
v -0.05160088 -0.04115033 -0.30870000
v -0.04904756 -0.04416262 -0.30870000
v -0.04631866 -0.04701682 -0.30870000
v -0.04342396 -0.04970272 -0.30870000
v -0.04037380 -0.05221069 -0.30870000
v -0.03717912 -0.05453176 -0.30870000
v -0.03385135 -0.05665762 -0.30870000
v -0.03040240 -0.05858066 -0.30870000
v -0.02684462 -0.06029400 -0.30870000
v -0.02319074 -0.06179150 -0.30870000
v -0.01945384 -0.06306781 -0.30870000
v -0.01564730 -0.06411834 -0.30870000
v -0.01178476 -0.06493935 -0.30870000
v -0.00788002 -0.06552790 -0.30870000
v -0.00394707 -0.06588187 -0.30870000
v -0.00000000 -0.06600000 -0.33670000
v 0.00394707 -0.06588187 -0.33670000
v 0.00788002 -0.06552790 -0.33670000
v 0.01178476 -0.06493935 -0.33670000
v 0.01564730 -0.06411834 -0.33670000
v 0.01945384 -0.06306781 -0.33670000
v 0.02319074 -0.06179150 -0.33670000
v 0.02684462 -0.06029400 -0.33670000
v 0.03040240 -0.05858066 -0.33670000
v 0.03385135 -0.05665762 -0.33670000
v 0.03717912 -0.05453176 -0.33670000
v 0.04037380 -0.05221069 -0.33670000
v 0.04342396 -0.04970272 -0.33670000
v 0.04631866 -0.04701682 -0.33670000
v 0.04904756 -0.04416262 -0.33670000
v 0.05160088 -0.04115033 -0.33670000
v 0.05396948 -0.03799073 -0.33670000
v 0.05614488 -0.03469513 -0.33670000
v 0.05811931 -0.03127533 -0.33670000
v 0.05988567 -0.02774358 -0.33670000
v 0.06143767 -0.02411251 -0.33670000
v 0.06276973 -0.02039512 -0.33670000
v 0.06387709 -0.01660473 -0.33670000
v 0.06475579 -0.01275489 -0.33670000
v 0.06540268 -0.00885940 -0.33670000
v 0.06581545 -0.00493219 -0.33670000
v 0.06599261 -0.00098732 -0.33670000
v 0.06593354 0.00296108 -0.33670000
v 0.06563845 0.00689888 -0.33670000
v 0.06510838 0.01081198 -0.33670000
v 0.06434524 0.01468638 -0.33670000
v 0.06335177 0.01850821 -0.33670000
v 0.06213151 0.02226378 -0.33670000
v 0.06068883 0.02593965 -0.33670000
v 0.05902891 0.02952267 -0.33670000
v 0.05715768 0.03300000 -0.33670000
v 0.05508183 0.03635920 -0.33670000
v 0.05280881 0.03958825 -0.33670000
v 0.05034675 0.04267557 -0.33670000
v 0.04770446 0.04561013 -0.33670000
v 0.04489140 0.04838142 -0.33670000
v 0.04191764 0.05097952 -0.33670000
v 0.03879383 0.05339512 -0.33670000
v 0.03553114 0.05561958 -0.33670000
v 0.03214126 0.05764494 -0.33670000
v 0.02863633 0.05946395 -0.33670000
v 0.02502888 0.06107008 -0.33670000
v 0.02133184 0.06245761 -0.33670000
v 0.01755843 0.06362155 -0.33670000
v 0.01372217 0.06455774 -0.33670000
v 0.00983679 0.06526283 -0.33670000
v 0.00591619 0.06573430 -0.33670000
v 0.00197442 0.06597046 -0.33670000
v -0.00197442 0.06597046 -0.33670000
v -0.00591619 0.06573430 -0.33670000
v -0.00983679 0.06526283 -0.33670000
v -0.01372217 0.06455774 -0.33670000
v -0.01755843 0.06362155 -0.33670000
v -0.02133184 0.06245761 -0.33670000
v -0.02502888 0.06107008 -0.33670000
v -0.02863633 0.05946395 -0.33670000
v -0.03214126 0.05764494 -0.33670000
v -0.03553114 0.05561958 -0.33670000
v -0.03879383 0.05339512 -0.33670000
v -0.04191764 0.05097952 -0.33670000
v -0.04489140 0.04838142 -0.33670000
v -0.04770446 0.04561013 -0.33670000
v -0.05034675 0.04267557 -0.33670000
v -0.05280881 0.03958825 -0.33670000
v -0.05508183 0.03635920 -0.33670000
v -0.05715768 0.03300000 -0.33670000
v -0.05902891 0.02952267 -0.33670000
v -0.06068883 0.02593965 -0.33670000
v -0.06213151 0.02226378 -0.33670000
v -0.06335177 0.01850821 -0.33670000
v -0.06434524 0.01468638 -0.33670000
v -0.06510838 0.01081198 -0.33670000
v -0.06563845 0.00689888 -0.33670000
v -0.06593354 0.00296108 -0.33670000
v -0.06599261 -0.00098732 -0.33670000
v -0.06581545 -0.00493219 -0.33670000
v -0.06540268 -0.00885940 -0.33670000
v -0.06475579 -0.01275489 -0.33670000
v -0.06387709 -0.01660473 -0.33670000
v -0.06276973 -0.02039512 -0.33670000
v -0.06143767 -0.02411251 -0.33670000
v -0.05988567 -0.02774358 -0.33670000
v -0.05811931 -0.03127533 -0.33670000
v -0.05614488 -0.03469513 -0.33670000
v -0.05396948 -0.03799073 -0.33670000
v -0.05160088 -0.04115033 -0.33670000
v -0.04904756 -0.04416262 -0.33670000
v -0.04631866 -0.04701682 -0.33670000
v -0.04342396 -0.04970272 -0.33670000
v -0.04037380 -0.05221069 -0.33670000
v -0.03717912 -0.05453176 -0.33670000
v -0.03385135 -0.05665762 -0.33670000
v -0.03040240 -0.05858066 -0.33670000
v -0.02684462 -0.06029400 -0.33670000
v -0.02319074 -0.06179150 -0.33670000
v -0.01945384 -0.06306781 -0.33670000
v -0.01564730 -0.06411834 -0.33670000
v -0.01178476 -0.06493935 -0.33670000
v -0.00788002 -0.06552790 -0.33670000
v -0.00394707 -0.06588187 -0.33670000
f 1 106 107
f 2 107 108
f 2 1 107
f 3 2 108
f 4 108 109
f 4 3 108
f 5 109 110
f 5 110 111
f 5 4 109
f 6 5 111
f 7 111 112
f 7 112 113
f 7 6 111
f 8 7 113
f 9 113 114
f 9 8 113
f 10 114 115
f 10 9 114
f 11 115 116
f 11 116 117
f 11 10 115
f 12 11 117
f 13 117 118
f 13 118 119
f 13 12 117
f 14 13 119
f 15 119 120
f 15 120 121
f 15 14 119
f 16 15 121
f 17 121 122
f 17 16 121
f 18 122 123
f 18 123 124
f 18 17 122
f 19 18 124
f 20 124 125
f 20 19 124
f 21 125 126
f 21 20 125
f 22 126 127
f 22 127 128
f 22 21 126
f 23 22 128
f 24 23 128
f 24 128 129
f 25 24 129
f 25 129 130
f 25 130 131
f 26 25 131
f 27 26 131
f 27 131 132
f 28 27 132
f 28 132 133
f 29 28 133
f 29 133 134
f 30 29 134
f 30 134 135
f 31 30 135
f 31 135 136
f 32 136 137
f 32 31 136
f 33 137 138
f 33 32 137
f 34 138 139
f 34 33 138
f 35 139 140
f 35 34 139
f 36 140 141
f 36 35 140
f 37 141 142
f 37 142 143
f 37 36 141
f 38 37 143
f 38 143 144
f 39 38 144
f 40 144 145
f 40 145 146
f 40 39 144
f 41 146 147
f 41 40 146
f 42 41 147
f 43 147 148
f 43 42 147
f 44 148 149
f 44 43 148
f 45 149 150
f 45 150 151
f 45 44 149
f 46 151 152
f 46 45 151
f 47 46 152
f 48 152 153
f 48 47 152
f 49 48 153
f 49 153 154
f 50 49 154
f 50 154 155
f 51 50 155
f 51 155 156
f 51 156 157
f 52 51 157
f 53 52 157
f 53 157 158
f 54 53 158
f 54 158 159
f 55 54 159
f 55 159 160
f 56 55 160
f 56 160 161
f 57 56 161
f 57 161 162
f 58 57 162
f 58 162 163
f 59 58 163
f 59 163 164
f 59 164 165
f 60 59 165
f 60 165 166
f 61 60 166
f 62 61 166
f 62 166 167
f 63 62 167
f 63 167 168
f 64 63 168
f 64 168 169
f 65 64 169
f 65 169 170
f 66 170 171
f 66 171 172
f 66 65 170
f 67 66 172
f 68 172 173
f 68 173 174
f 68 67 172
f 69 68 174
f 70 174 175
f 70 69 174
f 71 175 176
f 71 70 175
f 72 176 177
f 72 177 178
f 72 71 176
f 73 72 178
f 74 73 178
f 74 178 179
f 75 74 179
f 75 179 180
f 76 75 180
f 76 180 181
f 76 181 182
f 77 76 182
f 77 182 183
f 78 77 183
f 78 183 184
f 79 78 184
f 80 79 184
f 80 184 185
f 81 80 185
f 81 185 186
f 81 186 187
f 82 81 187
f 83 82 187
f 83 187 188
f 84 83 188
f 84 188 189
f 85 84 189
f 85 189 190
f 86 85 190
f 86 190 191
f 87 86 191
f 87 191 192
f 87 192 193
f 88 87 193
f 89 88 193
f 89 193 194
f 90 89 194
f 90 194 195
f 91 90 195
f 91 195 196
f 91 196 197
f 92 91 197
f 93 92 197
f 93 197 198
f 94 93 198
f 94 198 199
f 95 94 199
f 95 199 200
f 96 95 200
f 96 200 201
f 97 201 202
f 97 96 201
f 98 202 203
f 98 97 202
f 99 98 203
f 99 203 204
f 99 204 205
f 100 99 205
f 101 205 206
f 101 206 207
f 101 100 205
f 102 101 207
f 103 207 208
f 103 208 209
f 103 102 207
f 104 103 209
f 105 209 210
f 105 104 209
f 1 210 106
f 1 105 210
f 277 66 67
f 277 67 68
f 276 66 277
f 278 277 68
f 275 65 66
f 275 66 276
f 279 68 69
f 279 278 68
f 274 63 64
f 274 64 65
f 274 65 275
f 280 69 70
f 280 279 69
f 273 63 274
f 273 62 63
f 281 70 71
f 281 280 70
f 272 62 273
f 282 71 72
f 282 281 71
f 271 62 272
f 271 61 62
f 283 72 73
f 283 282 72
f 270 61 271
f 270 60 61
f 284 283 73
f 284 73 74
f 269 60 270
f 269 59 60
f 285 284 74
f 285 74 75
f 268 59 269
f 268 57 58
f 268 58 59
f 286 285 75
f 286 75 76
f 267 56 57
f 267 57 268
f 287 286 76
f 287 76 77
f 266 56 267
f 288 287 77
f 288 77 78
f 265 55 56
f 265 56 266
f 289 288 78
f 289 78 79
f 289 79 80
f 264 55 265
f 264 53 54
f 264 54 55
f 290 289 80
f 263 53 264
f 291 290 80
f 291 80 81
f 262 53 263
f 262 52 53
f 292 81 82
f 292 291 81
f 261 52 262
f 261 51 52
f 293 292 82
f 293 82 83
f 260 49 50
f 260 50 51
f 260 51 261
f 294 293 83
f 294 83 84
f 259 49 260
f 295 294 84
f 295 84 85
f 258 48 49
f 258 49 259
f 296 295 85
f 296 85 86
f 296 86 87
f 257 47 48
f 257 48 258
f 297 296 87
f 256 46 47
f 256 47 257
f 298 297 87
f 298 87 88
f 255 44 45
f 255 45 46
f 255 46 256
f 299 88 89
f 299 298 88
f 254 44 255
f 300 299 89
f 300 89 90
f 300 90 91
f 253 43 44
f 253 44 254
f 301 300 91
f 252 42 43
f 252 43 253
f 302 91 92
f 302 301 91
f 251 42 252
f 251 41 42
f 303 302 92
f 93 303 92
f 40 41 251
f 40 251 250
f 94 303 93
f 94 304 303
f 305 304 94
f 39 40 250
f 39 250 249
f 95 305 94
f 38 39 249
f 38 249 248
f 96 305 95
f 96 306 305
f 37 248 247
f 37 38 248
f 97 306 96
f 97 307 306
f 36 246 245
f 36 247 246
f 36 37 247
f 98 308 307
f 98 307 97
f 35 36 245
f 99 309 308
f 99 310 309
f 99 308 98
f 34 245 244
f 34 35 245
f 100 310 99
f 33 244 243
f 33 34 244
f 101 311 310
f 101 310 100
f 32 242 241
f 32 243 242
f 32 33 243
f 102 312 311
f 102 311 101
f 31 32 241
f 103 313 312
f 103 312 102
f 30 240 239
f 30 241 240
f 30 31 241
f 104 314 313
f 104 313 103
f 29 30 239
f 29 239 238
f 105 315 314
f 105 211 315
f 105 314 104
f 28 29 238
f 1 211 105
f 27 238 237
f 27 28 238
f 2 212 211
f 2 211 1
f 26 237 236
f 26 27 237
f 3 213 212
f 3 212 2
f 25 235 234
f 25 236 235
f 25 26 236
f 4 214 213
f 4 213 3
f 24 25 234
f 5 215 214
f 5 216 215
f 5 214 4
f 23 233 232
f 23 234 233
f 23 24 234
f 6 216 5
f 22 232 231
f 22 23 232
f 7 217 216
f 7 216 6
f 21 22 231
f 8 218 217
f 8 219 218
f 8 217 7
f 20 21 231
f 20 231 230
f 9 220 219
f 9 219 8
f 19 20 230
f 19 230 229
f 10 220 9
f 18 19 229
f 18 229 228
f 11 220 10
f 11 221 220
f 17 18 228
f 17 228 227
f 12 222 221
f 12 221 11
f 16 17 227
f 16 227 226
f 13 223 222
f 13 222 12
f 15 226 225
f 15 16 226
f 14 15 225
f 14 224 223
f 14 225 224
f 14 223 13
f 382 172 171
f 382 173 172
f 381 382 171
f 383 173 382
f 380 171 170
f 380 381 171
f 384 174 173
f 384 173 383
f 379 169 168
f 379 170 169
f 379 380 170
f 385 175 174
f 385 174 384
f 378 379 168
f 378 168 167
f 386 176 175
f 386 175 385
f 377 378 167
f 387 177 176
f 387 176 386
f 376 377 167
f 376 167 166
f 388 178 177
f 388 177 387
f 375 376 166
f 375 166 165
f 389 178 388
f 389 179 178
f 374 375 165
f 374 165 164
f 390 179 389
f 390 180 179
f 373 374 164
f 373 163 162
f 373 164 163
f 391 180 390
f 391 181 180
f 372 162 161
f 372 373 162
f 392 181 391
f 392 182 181
f 371 372 161
f 393 182 392
f 393 183 182
f 370 161 160
f 370 371 161
f 394 183 393
f 394 184 183
f 394 185 184
f 369 370 160
f 369 159 158
f 369 160 159
f 395 185 394
f 368 369 158
f 396 185 395
f 396 186 185
f 367 368 158
f 367 158 157
f 397 187 186
f 397 186 396
f 366 367 157
f 366 157 156
f 398 187 397
f 398 188 187
f 365 155 154
f 365 156 155
f 365 366 156
f 399 188 398
f 399 189 188
f 364 365 154
f 400 189 399
f 400 190 189
f 363 154 153
f 363 364 154
f 401 190 400
f 401 191 190
f 401 192 191
f 362 153 152
f 362 363 153
f 402 192 401
f 361 152 151
f 361 362 152
f 403 192 402
f 403 193 192
f 360 150 149
f 360 151 150
f 360 361 151
f 404 194 193
f 404 193 403
f 359 360 149
f 405 194 404
f 405 195 194
f 405 196 195
f 358 149 148
f 358 359 149
f 406 196 405
f 357 148 147
f 357 358 148
f 407 197 196
f 407 196 406
f 356 357 147
f 356 147 146
f 408 197 407
f 198 197 408
f 145 356 146
f 145 355 356
f 199 198 408
f 199 408 409
f 410 199 409
f 144 355 145
f 144 354 355
f 200 199 410
f 143 354 144
f 143 353 354
f 201 200 410
f 201 410 411
f 142 352 353
f 142 353 143
f 202 201 411
f 202 411 412
f 141 350 351
f 141 351 352
f 141 352 142
f 203 412 413
f 203 202 412
f 140 350 141
f 204 413 414
f 204 414 415
f 204 203 413
f 139 349 350
f 139 350 140
f 205 204 415
f 138 348 349
f 138 349 139
f 206 415 416
f 206 205 415
f 137 346 347
f 137 347 348
f 137 348 138
f 207 416 417
f 207 206 416
f 136 346 137
f 208 417 418
f 208 207 417
f 135 344 345
f 135 345 346
f 135 346 136
f 209 418 419
f 209 208 418
f 134 344 135
f 134 343 344
f 210 419 420
f 210 420 316
f 210 209 419
f 133 343 134
f 106 210 316
f 132 342 343
f 132 343 133
f 107 316 317
f 107 106 316
f 131 341 342
f 131 342 132
f 108 317 318
f 108 107 317
f 130 339 340
f 130 340 341
f 130 341 131
f 109 318 319
f 109 108 318
f 129 339 130
f 110 319 320
f 110 320 321
f 110 109 319
f 128 337 338
f 128 338 339
f 128 339 129
f 111 110 321
f 127 336 337
f 127 337 128
f 112 321 322
f 112 111 321
f 126 336 127
f 113 322 323
f 113 323 324
f 113 112 322
f 125 336 126
f 125 335 336
f 114 324 325
f 114 113 324
f 124 335 125
f 124 334 335
f 115 114 325
f 123 334 124
f 123 333 334
f 116 115 325
f 116 325 326
f 122 333 123
f 122 332 333
f 117 326 327
f 117 116 326
f 121 332 122
f 121 331 332
f 118 327 328
f 118 117 327
f 120 330 331
f 120 331 121
f 119 330 120
f 119 328 329
f 119 329 330
f 119 118 328
f 211 317 316
f 212 318 317
f 212 317 211
f 213 318 212
f 214 319 318
f 214 318 213
f 215 320 319
f 215 321 320
f 215 319 214
f 216 321 215
f 217 322 321
f 217 323 322
f 217 321 216
f 218 323 217
f 219 324 323
f 219 323 218
f 220 325 324
f 220 324 219
f 221 326 325
f 221 327 326
f 221 325 220
f 222 327 221
f 223 328 327
f 223 329 328
f 223 327 222
f 224 329 223
f 225 330 329
f 225 331 330
f 225 329 224
f 226 331 225
f 227 332 331
f 227 331 226
f 228 333 332
f 228 334 333
f 228 332 227
f 229 334 228
f 230 335 334
f 230 334 229
f 231 336 335
f 231 335 230
f 232 337 336
f 232 338 337
f 232 336 231
f 233 338 232
f 234 338 233
f 234 339 338
f 235 339 234
f 235 340 339
f 235 341 340
f 236 341 235
f 237 341 236
f 237 342 341
f 238 342 237
f 238 343 342
f 239 343 238
f 239 344 343
f 240 344 239
f 240 345 344
f 241 345 240
f 241 346 345
f 242 347 346
f 242 346 241
f 243 348 347
f 243 347 242
f 244 349 348
f 244 348 243
f 245 350 349
f 245 349 244
f 246 351 350
f 246 350 245
f 247 352 351
f 247 353 352
f 247 351 246
f 248 353 247
f 248 354 353
f 249 354 248
f 250 355 354
f 250 356 355
f 250 354 249
f 251 357 356
f 251 356 250
f 252 357 251
f 253 358 357
f 253 357 252
f 254 359 358
f 254 358 253
f 255 360 359
f 255 361 360
f 255 359 254
f 256 362 361
f 256 361 255
f 257 362 256
f 258 363 362
f 258 362 257
f 259 363 258
f 259 364 363
f 260 364 259
f 260 365 364
f 261 365 260
f 261 366 365
f 261 367 366
f 262 367 261
f 263 367 262
f 263 368 367
f 264 368 263
f 264 369 368
f 265 369 264
f 265 370 369
f 266 370 265
f 266 371 370
f 267 371 266
f 267 372 371
f 268 372 267
f 268 373 372
f 269 373 268
f 269 374 373
f 269 375 374
f 270 375 269
f 270 376 375
f 271 376 270
f 272 376 271
f 272 377 376
f 273 377 272
f 273 378 377
f 274 378 273
f 274 379 378
f 275 379 274
f 275 380 379
f 276 381 380
f 276 382 381
f 276 380 275
f 277 382 276
f 278 383 382
f 278 384 383
f 278 382 277
f 279 384 278
f 280 385 384
f 280 384 279
f 281 386 385
f 281 385 280
f 282 387 386
f 282 388 387
f 282 386 281
f 283 388 282
f 284 388 283
f 284 389 388
f 285 389 284
f 285 390 389
f 286 390 285
f 286 391 390
f 286 392 391
f 287 392 286
f 287 393 392
f 288 393 287
f 288 394 393
f 289 394 288
f 290 394 289
f 290 395 394
f 291 395 290
f 291 396 395
f 291 397 396
f 292 397 291
f 293 397 292
f 293 398 397
f 294 398 293
f 294 399 398
f 295 399 294
f 295 400 399
f 296 400 295
f 296 401 400
f 297 401 296
f 297 402 401
f 297 403 402
f 298 403 297
f 299 403 298
f 299 404 403
f 300 404 299
f 300 405 404
f 301 405 300
f 301 406 405
f 301 407 406
f 302 407 301
f 303 407 302
f 303 408 407
f 304 408 303
f 304 409 408
f 305 409 304
f 305 410 409
f 306 410 305
f 306 411 410
f 307 412 411
f 307 411 306
f 308 413 412
f 308 412 307
f 309 413 308
f 309 414 413
f 309 415 414
f 310 415 309
f 311 416 415
f 311 417 416
f 311 415 310
f 312 417 311
f 313 418 417
f 313 419 418
f 313 417 312
f 314 419 313
f 315 420 419
f 315 419 314
f 211 316 420
f 211 420 315

