# https://github.com/mikedh/trimesh
v 0.08530350 0.04925000 0.13000000
v 0.09637357 0.05564130 0.11521739
v 0.08540937 0.04906663 0.12800000
v 0.08519764 0.04943337 0.12800000
v 0.07757145 0.05864230 0.13000000
v 0.08957145 0.03785770 0.13000000
v 0.10515991 0.04685770 0.11200000
v 0.09315991 0.06764230 0.11200000
v 0.07757145 0.05864230 -0.30000000
v 0.08957145 0.03785770 -0.30000000
v 0.09315991 0.06764230 -0.28000000
v 0.10515991 0.04685770 -0.28000000
v 0.10078272 0.05443921 0.06852608
v 0.10040091 0.05510053 0.09001134
v 0.09915991 0.05725000 0.11149660
v 0.09791891 0.05939947 0.09001134
v 0.09753710 0.06006079 0.06852608
v 0.09732316 0.06043134 0.04704082
v 0.09720725 0.06063211 0.02555556
v 0.09715991 0.06071410 0.00407029
v 0.09716447 0.06070619 -0.01741497
v 0.09721000 0.06062734 -0.03890023
v 0.09728871 0.06049101 -0.06038549
v 0.09739481 0.06030725 -0.08187075
v 0.09752394 0.06008358 -0.10335601
v 0.09767284 0.05982568 -0.12484127
v 0.09783915 0.05953763 -0.14632653
v 0.09802127 0.05922218 -0.16781179
v 0.09821833 0.05888087 -0.18929705
v 0.09843007 0.05851411 -0.21078231
v 0.09865687 0.05812129 -0.23226757
v 0.09889965 0.05770078 -0.25375283
v 0.09915991 0.05725000 -0.27523810
v 0.09942017 0.05679922 -0.25375283
v 0.09966295 0.05637871 -0.23226757
v 0.09988975 0.05598589 -0.21078231
v 0.10010149 0.05561913 -0.18929705
v 0.10029855 0.05527782 -0.16781179
v 0.10048067 0.05496237 -0.14632653
v 0.10064698 0.05467432 -0.12484127
v 0.10079588 0.05441642 -0.10335601
v 0.10092501 0.05419275 -0.08187075
v 0.10103111 0.05400899 -0.06038549
v 0.10110981 0.05387266 -0.03890023
v 0.10115534 0.05379381 -0.01741497
v 0.10115991 0.05378590 0.00407029
v 0.10111257 0.05386789 0.02555556
v 0.10099665 0.05406866 0.04704082
v 0.15019737 0.08385053 0.03055556
v 0.15057918 0.08318921 0.01611111
v 0.15079311 0.08281866 0.00166667
v 0.15090903 0.08261789 -0.01277778
v 0.15095637 0.08253590 -0.02722222
v 0.15095180 0.08254381 -0.04166667
v 0.15090627 0.08262266 -0.05611111
v 0.15082757 0.08275899 -0.07055556
v 0.15072147 0.08294275 -0.08500000
v 0.15059234 0.08316642 -0.09944444
v 0.15044344 0.08342432 -0.11388889
v 0.15027713 0.08371237 -0.12833333
v 0.15009501 0.08402782 -0.14277778
v 0.14989795 0.08436913 -0.15722222
v 0.14968621 0.08473589 -0.17166667
v 0.14945941 0.08512871 -0.18611111
v 0.14921663 0.08554922 -0.20055556
v 0.14895637 0.08600000 -0.21500000
v 0.14869611 0.08645078 -0.20055556
v 0.14845333 0.08687129 -0.18611111
v 0.14822653 0.08726411 -0.17166667
v 0.14801479 0.08763087 -0.15722222
v 0.14781773 0.08797218 -0.14277778
v 0.14763561 0.08828763 -0.12833333
v 0.14746930 0.08857568 -0.11388889
v 0.14732040 0.08883358 -0.09944444
v 0.14719127 0.08905725 -0.08500000
v 0.14708517 0.08924101 -0.07055556
v 0.14700646 0.08937734 -0.05611111
v 0.14696094 0.08945619 -0.04166667
v 0.14695637 0.08946410 -0.02722222
v 0.14700371 0.08938211 -0.01277778
v 0.14711962 0.08918134 0.00166667
v 0.14733356 0.08881079 0.01611111
v 0.14771537 0.08814947 0.03055556
v 0.14895637 0.08600000 0.04500000
v 0.00000000 -0.09850000 0.13000000
v 0.00000000 -0.11128261 0.11521739
v -0.00021173 -0.09850000 0.12800000
v 0.00021173 -0.09850000 0.12800000
v 0.01200000 -0.09650000 0.13000000
v -0.01200000 -0.09650000 0.13000000
v -0.01200000 -0.11450000 0.11200000
v 0.01200000 -0.11450000 0.11200000
v 0.01200000 -0.09650000 -0.30000000
v -0.01200000 -0.09650000 -0.30000000
v 0.01200000 -0.11450000 -0.28000000
v -0.01200000 -0.11450000 -0.28000000
v -0.00324562 -0.11450000 0.06852608
v -0.00248199 -0.11450000 0.09001134
v 0.00000000 -0.11450000 0.11149660
v 0.00248199 -0.11450000 0.09001134
v 0.00324562 -0.11450000 0.06852608
v 0.00367349 -0.11450000 0.04704082
v 0.00390532 -0.11450000 0.02555556
v 0.00400000 -0.11450000 0.00407029
v 0.00399087 -0.11450000 -0.01741497
v 0.00389981 -0.11450000 -0.03890023
v 0.00374240 -0.11450000 -0.06038549
v 0.00353020 -0.11450000 -0.08187075
v 0.00327194 -0.11450000 -0.10335601
v 0.00297414 -0.11450000 -0.12484127
v 0.00264153 -0.11450000 -0.14632653
v 0.00227728 -0.11450000 -0.16781179
v 0.00188316 -0.11450000 -0.18929705
v 0.00145967 -0.11450000 -0.21078231
v 0.00100608 -0.11450000 -0.23226757
v 0.00052052 -0.11450000 -0.25375283
v 0.00000000 -0.11450000 -0.27523810
v -0.00052052 -0.11450000 -0.25375283
v -0.00100608 -0.11450000 -0.23226757
v -0.00145967 -0.11450000 -0.21078231
v -0.00188316 -0.11450000 -0.18929705
v -0.00227728 -0.11450000 -0.16781179
v -0.00264153 -0.11450000 -0.14632653
v -0.00297414 -0.11450000 -0.12484127
v -0.00327194 -0.11450000 -0.10335601
v -0.00353020 -0.11450000 -0.08187075
v -0.00374240 -0.11450000 -0.06038549
v -0.00389981 -0.11450000 -0.03890023
v -0.00399087 -0.11450000 -0.01741497
v -0.00400000 -0.11450000 0.00407029
v -0.00390532 -0.11450000 0.02555556
v -0.00367349 -0.11450000 0.04704082
v -0.00248199 -0.17200000 0.03055556
v -0.00324562 -0.17200000 0.01611111
v -0.00367349 -0.17200000 0.00166667
v -0.00390532 -0.17200000 -0.01277778
v -0.00400000 -0.17200000 -0.02722222
v -0.00399087 -0.17200000 -0.04166667
v -0.00389981 -0.17200000 -0.05611111
v -0.00374240 -0.17200000 -0.07055556
v -0.00353020 -0.17200000 -0.08500000
v -0.00327194 -0.17200000 -0.09944444
v -0.00297414 -0.17200000 -0.11388889
v -0.00264153 -0.17200000 -0.12833333
v -0.00227728 -0.17200000 -0.14277778
v -0.00188316 -0.17200000 -0.15722222
v -0.00145967 -0.17200000 -0.17166667
v -0.00100608 -0.17200000 -0.18611111
v -0.00052052 -0.17200000 -0.20055556
v 0.00000000 -0.17200000 -0.21500000
v 0.00052052 -0.17200000 -0.20055556
v 0.00100608 -0.17200000 -0.18611111
v 0.00145967 -0.17200000 -0.17166667
v 0.00188316 -0.17200000 -0.15722222
v 0.00227728 -0.17200000 -0.14277778
v 0.00264153 -0.17200000 -0.12833333
v 0.00297414 -0.17200000 -0.11388889
v 0.00327194 -0.17200000 -0.09944444
v 0.00353020 -0.17200000 -0.08500000
v 0.00374240 -0.17200000 -0.07055556
v 0.00389981 -0.17200000 -0.05611111
v 0.00399087 -0.17200000 -0.04166667
v 0.00400000 -0.17200000 -0.02722222
v 0.00390532 -0.17200000 -0.01277778
v 0.00367349 -0.17200000 0.00166667
v 0.00324562 -0.17200000 0.01611111
v 0.00248199 -0.17200000 0.03055556
v 0.00000000 -0.17200000 0.04500000
v -0.08530350 0.04925000 0.13000000
v -0.09637357 0.05564130 0.11521739
v -0.08519764 0.04943337 0.12800000
v -0.08540937 0.04906663 0.12800000
v -0.08957145 0.03785770 0.13000000
v -0.07757145 0.05864230 0.13000000
v -0.09315991 0.06764230 0.11200000
v -0.10515991 0.04685770 0.11200000
v -0.08957145 0.03785770 -0.30000000
v -0.07757145 0.05864230 -0.30000000
v -0.10515991 0.04685770 -0.28000000
v -0.09315991 0.06764230 -0.28000000
v -0.09753710 0.06006079 0.06852608
v -0.09791891 0.05939947 0.09001134
v -0.09915991 0.05725000 0.11149660
v -0.10040091 0.05510053 0.09001134
v -0.10078272 0.05443921 0.06852608
v -0.10099665 0.05406866 0.04704082
v -0.10111257 0.05386789 0.02555556
v -0.10115991 0.05378590 0.00407029
v -0.10115534 0.05379381 -0.01741497
v -0.10110981 0.05387266 -0.03890023
v -0.10103111 0.05400899 -0.06038549
v -0.10092501 0.05419275 -0.08187075
v -0.10079588 0.05441642 -0.10335601
v -0.10064698 0.05467432 -0.12484127
v -0.10048067 0.05496237 -0.14632653
v -0.10029855 0.05527782 -0.16781179
v -0.10010149 0.05561913 -0.18929705
v -0.09988975 0.05598589 -0.21078231
v -0.09966295 0.05637871 -0.23226757
v -0.09942017 0.05679922 -0.25375283
v -0.09915991 0.05725000 -0.27523810
v -0.09889965 0.05770078 -0.25375283
v -0.09865687 0.05812129 -0.23226757
v -0.09843007 0.05851411 -0.21078231
v -0.09821833 0.05888087 -0.18929705
v -0.09802127 0.05922218 -0.16781179
v -0.09783915 0.05953763 -0.14632653
v -0.09767284 0.05982568 -0.12484127
v -0.09752394 0.06008358 -0.10335601
v -0.09739481 0.06030725 -0.08187075
v -0.09728871 0.06049101 -0.06038549
v -0.09721000 0.06062734 -0.03890023
v -0.09716447 0.06070619 -0.01741497
v -0.09715991 0.06071410 0.00407029
v -0.09720725 0.06063211 0.02555556
v -0.09732316 0.06043134 0.04704082
v -0.14771537 0.08814947 0.03055556
v -0.14733356 0.08881079 0.01611111
v -0.14711962 0.08918134 0.00166667
v -0.14700371 0.08938211 -0.01277778
v -0.14695637 0.08946410 -0.02722222
v -0.14696094 0.08945619 -0.04166667
v -0.14700646 0.08937734 -0.05611111
v -0.14708517 0.08924101 -0.07055556
v -0.14719127 0.08905725 -0.08500000
v -0.14732040 0.08883358 -0.09944444
v -0.14746930 0.08857568 -0.11388889
v -0.14763561 0.08828763 -0.12833333
v -0.14781773 0.08797218 -0.14277778
v -0.14801479 0.08763087 -0.15722222
v -0.14822653 0.08726411 -0.17166667
v -0.14845333 0.08687129 -0.18611111
v -0.14869611 0.08645078 -0.20055556
v -0.14895637 0.08600000 -0.21500000
v -0.14921663 0.08554922 -0.20055556
v -0.14945941 0.08512871 -0.18611111
v -0.14968621 0.08473589 -0.17166667
v -0.14989795 0.08436913 -0.15722222
v -0.15009501 0.08402782 -0.14277778
v -0.15027713 0.08371237 -0.12833333
v -0.15044344 0.08342432 -0.11388889
v -0.15059234 0.08316642 -0.09944444
v -0.15072147 0.08294275 -0.08500000
v -0.15082757 0.08275899 -0.07055556
v -0.15090627 0.08262266 -0.05611111
v -0.15095180 0.08254381 -0.04166667
v -0.15095637 0.08253590 -0.02722222
v -0.15090903 0.08261789 -0.01277778
v -0.15079311 0.08281866 0.00166667
v -0.15057918 0.08318921 0.01611111
v -0.15019737 0.08385053 0.03055556
v -0.14895637 0.08600000 0.04500000
f 2 1 3
f 2 4 1
f 4 6 3
f 5 6 4
f 2 6 7
f 2 3 6
f 2 5 4
f 8 2 7
f 8 5 2
f 3 1 4
f 5 9 10
f 5 10 6
f 5 8 11
f 5 11 9
f 6 12 7
f 6 10 12
f 8 7 15
f 14 15 7
f 16 8 15
f 13 14 7
f 17 8 16
f 48 13 7
f 18 8 17
f 47 48 7
f 46 47 7
f 45 46 7
f 44 45 7
f 43 44 7
f 12 34 35
f 12 35 36
f 12 36 37
f 12 37 38
f 12 38 39
f 12 39 40
f 12 40 41
f 12 41 42
f 12 42 43
f 12 43 7
f 33 34 12
f 11 30 31
f 11 31 32
f 11 32 33
f 11 33 12
f 11 8 20
f 20 8 19
f 19 8 18
f 11 20 21
f 11 21 22
f 11 22 23
f 11 23 24
f 11 24 25
f 11 25 26
f 11 26 27
f 11 27 28
f 11 28 29
f 11 29 30
f 9 11 12
f 9 12 10
f 50 49 14
f 50 14 13
f 51 50 13
f 51 13 48
f 51 48 47
f 52 51 47
f 53 52 47
f 53 47 46
f 54 53 46
f 54 46 45
f 55 54 45
f 55 45 44
f 56 55 44
f 56 44 43
f 57 56 43
f 57 43 42
f 58 57 42
f 58 42 41
f 59 58 41
f 59 41 40
f 60 59 40
f 60 40 39
f 61 60 39
f 61 39 38
f 62 61 38
f 62 38 37
f 63 62 37
f 63 37 36
f 64 63 36
f 64 36 35
f 65 64 35
f 65 35 34
f 65 34 33
f 66 65 33
f 67 66 33
f 67 33 32
f 68 67 32
f 68 32 31
f 69 68 31
f 69 31 30
f 70 69 30
f 70 30 29
f 71 70 29
f 71 29 28
f 72 71 28
f 72 28 27
f 73 72 27
f 73 27 26
f 74 73 26
f 74 26 25
f 75 74 25
f 75 25 24
f 76 75 24
f 76 24 23
f 77 76 23
f 77 23 22
f 78 77 22
f 78 22 21
f 79 78 21
f 79 21 20
f 80 79 20
f 80 20 19
f 81 80 19
f 81 19 18
f 82 81 18
f 82 18 17
f 83 82 17
f 83 17 16
f 84 83 16
f 84 16 15
f 84 15 14
f 49 84 14
f 49 83 84
f 50 82 83
f 50 83 49
f 51 81 82
f 51 82 50
f 80 81 51
f 52 80 51
f 53 79 80
f 53 80 52
f 54 78 79
f 54 79 53
f 77 78 54
f 55 77 54
f 56 76 77
f 56 77 55
f 57 75 76
f 57 76 56
f 74 75 57
f 58 74 57
f 59 73 74
f 59 74 58
f 60 72 73
f 60 73 59
f 61 71 72
f 61 72 60
f 62 70 71
f 62 71 61
f 69 70 62
f 63 69 62
f 64 69 63
f 64 68 69
f 65 68 64
f 65 67 68
f 66 67 65
f 86 85 87
f 86 88 85
f 88 90 87
f 89 90 88
f 86 90 91
f 86 87 90
f 86 89 88
f 92 86 91
f 92 89 86
f 87 85 88
f 89 93 94
f 89 94 90
f 89 92 95
f 89 95 93
f 90 96 91
f 90 94 96
f 92 91 99
f 98 99 91
f 100 92 99
f 97 98 91
f 101 92 100
f 132 97 91
f 102 92 101
f 131 132 91
f 130 131 91
f 129 130 91
f 128 129 91
f 127 128 91
f 96 118 119
f 96 119 120
f 96 120 121
f 96 121 122
f 96 122 123
f 96 123 124
f 96 124 125
f 96 125 126
f 96 126 127
f 96 127 91
f 117 118 96
f 95 114 115
f 95 115 116
f 95 116 117
f 95 117 96
f 95 92 104
f 104 92 103
f 103 92 102
f 95 104 105
f 95 105 106
f 95 106 107
f 95 107 108
f 95 108 109
f 95 109 110
f 95 110 111
f 95 111 112
f 95 112 113
f 95 113 114
f 93 95 96
f 93 96 94
f 134 133 98
f 134 98 97
f 135 134 97
f 135 97 132
f 135 132 131
f 136 135 131
f 137 136 131
f 137 131 130
f 138 137 130
f 138 130 129
f 139 138 129
f 139 129 128
f 140 139 128
f 140 128 127
f 141 140 127
f 141 127 126
f 142 141 126
f 142 126 125
f 143 142 125
f 143 125 124
f 144 143 124
f 144 124 123
f 145 144 123
f 145 123 122
f 146 145 122
f 146 122 121
f 147 146 121
f 147 121 120
f 148 147 120
f 148 120 119
f 149 148 119
f 149 119 118
f 149 118 117
f 150 149 117
f 151 150 117
f 151 117 116
f 152 151 116
f 152 116 115
f 153 152 115
f 153 115 114
f 154 153 114
f 154 114 113
f 155 154 113
f 155 113 112
f 156 155 112
f 156 112 111
f 157 156 111
f 157 111 110
f 158 157 110
f 158 110 109
f 159 158 109
f 159 109 108
f 160 159 108
f 160 108 107
f 161 160 107
f 161 107 106
f 162 161 106
f 162 106 105
f 163 162 105
f 163 105 104
f 164 163 104
f 164 104 103
f 165 164 103
f 165 103 102
f 166 165 102
f 166 102 101
f 167 166 101
f 167 101 100
f 168 167 100
f 168 100 99
f 168 99 98
f 133 168 98
f 133 167 168
f 134 166 167
f 134 167 133
f 135 165 166
f 135 166 134
f 164 165 135
f 136 164 135
f 137 163 164
f 137 164 136
f 138 162 163
f 138 163 137
f 161 162 138
f 139 161 138
f 140 160 161
f 140 161 139
f 141 159 160
f 141 160 140
f 158 159 141
f 142 158 141
f 143 157 158
f 143 158 142
f 144 156 157
f 144 157 143
f 145 155 156
f 145 156 144
f 146 154 155
f 146 155 145
f 153 154 146
f 147 153 146
f 148 153 147
f 148 152 153
f 149 152 148
f 149 151 152
f 150 151 149
f 170 169 171
f 170 172 169
f 172 174 171
f 173 174 172
f 170 174 175
f 170 171 174
f 170 173 172
f 176 170 175
f 176 173 170
f 171 169 172
f 173 177 178
f 173 178 174
f 173 176 179
f 173 179 177
f 174 180 175
f 174 178 180
f 176 175 183
f 182 183 175
f 184 176 183
f 181 182 175
f 185 176 184
f 216 181 175
f 186 176 185
f 215 216 175
f 214 215 175
f 213 214 175
f 212 213 175
f 211 212 175
f 180 202 203
f 180 203 204
f 180 204 205
f 180 205 206
f 180 206 207
f 180 207 208
f 180 208 209
f 180 209 210
f 180 210 211
f 180 211 175
f 201 202 180
f 179 198 199
f 179 199 200
f 179 200 201
f 179 201 180
f 179 176 188
f 188 176 187
f 187 176 186
f 179 188 189
f 179 189 190
f 179 190 191
f 179 191 192
f 179 192 193
f 179 193 194
f 179 194 195
f 179 195 196
f 179 196 197
f 179 197 198
f 177 179 180
f 177 180 178
f 218 217 182
f 218 182 181
f 219 218 181
f 219 181 216
f 219 216 215
f 220 219 215
f 221 220 215
f 221 215 214
f 222 221 214
f 222 214 213
f 223 222 213
f 223 213 212
f 224 223 212
f 224 212 211
f 225 224 211
f 225 211 210
f 226 225 210
f 226 210 209
f 227 226 209
f 227 209 208
f 228 227 208
f 228 208 207
f 229 228 207
f 229 207 206
f 230 229 206
f 230 206 205
f 231 230 205
f 231 205 204
f 232 231 204
f 232 204 203
f 233 232 203
f 233 203 202
f 233 202 201
f 234 233 201
f 235 234 201
f 235 201 200
f 236 235 200
f 236 200 199
f 237 236 199
f 237 199 198
f 238 237 198
f 238 198 197
f 239 238 197
f 239 197 196
f 240 239 196
f 240 196 195
f 241 240 195
f 241 195 194
f 242 241 194
f 242 194 193
f 243 242 193
f 243 193 192
f 244 243 192
f 244 192 191
f 245 244 191
f 245 191 190
f 246 245 190
f 246 190 189
f 247 246 189
f 247 189 188
f 248 247 188
f 248 188 187
f 249 248 187
f 249 187 186
f 250 249 186
f 250 186 185
f 251 250 185
f 251 185 184
f 252 251 184
f 252 184 183
f 252 183 182
f 217 252 182
f 217 251 252
f 218 250 251
f 218 251 217
f 219 249 250
f 219 250 218
f 248 249 219
f 220 248 219
f 221 247 248
f 221 248 220
f 222 246 247
f 222 247 221
f 245 246 222
f 223 245 222
f 224 244 245
f 224 245 223
f 225 243 244
f 225 244 224
f 242 243 225
f 226 242 225
f 227 241 242
f 227 242 226
f 228 240 241
f 228 241 227
f 229 239 240
f 229 240 228
f 230 238 239
f 230 239 229
f 237 238 230
f 231 237 230
f 232 237 231
f 232 236 237
f 233 236 232
f 233 235 236
f 234 235 233

