# https://github.com/mikedh/trimesh
v 0.08530350 0.04925000 -0.61000000
v 0.08716500 0.04602580 -0.66027778
v 0.11011467 0.05927580 -1.05074384
v 0.10825318 0.06250000 -1.02500000
v 0.09770909 0.05426290 -0.83650540
v 0.08773771 0.04503382 -0.71055556
v 0.11068739 0.05828382 -1.07648768
v 0.08805862 0.04447800 -0.76083333
v 0.11100829 0.05772800 -1.10223152
v 0.08823249 0.04417684 -0.81111111
v 0.11118217 0.05742684 -1.12797536
v 0.08830350 0.04405385 -0.86138889
v 0.11125318 0.05730385 -1.15371920
v 0.08829665 0.04406571 -0.91166667
v 0.11124633 0.05731571 -1.17946304
v 0.08822836 0.04418400 -0.96194444
v 0.11117803 0.05743400 -1.20520688
v 0.08811030 0.04438848 -1.01222222
v 0.11105998 0.05763848 -1.23095072
v 0.08795115 0.04466413 -1.06250000
v 0.11090083 0.05791413 -1.25669456
v 0.08775746 0.04499963 -1.11277778
v 0.11070713 0.05824963 -1.28243840
v 0.08753410 0.04538648 -1.16305556
v 0.11048378 0.05863648 -1.30818224
v 0.08728465 0.04581856 -1.21333333
v 0.11023432 0.05906856 -1.33392608
v 0.08701146 0.04629173 -1.26361111
v 0.10996113 0.05954173 -1.35966992
v 0.08671588 0.04680370 -1.31388889
v 0.10966555 0.06005370 -1.38541376
v 0.08639826 0.04735383 -1.36416667
v 0.10934793 0.06060383 -1.41115760
v 0.08605806 0.04794306 -1.41444444
v 0.10900774 0.06119306 -1.43690144
v 0.08569389 0.04857382 -1.46472222
v 0.10864357 0.06182382 -1.46264528
v 0.08530350 0.04925000 -1.51500000
v 0.10825318 0.06250000 -1.48838912
v 0.08491311 0.04992618 -1.46472222
v 0.10786279 0.06317618 -1.46264528
v 0.08454894 0.05055694 -1.41444444
v 0.10749861 0.06380694 -1.43690144
v 0.08420875 0.05114617 -1.36416667
v 0.10715842 0.06439617 -1.41115760
v 0.08389113 0.05169630 -1.31388889
v 0.10684080 0.06494630 -1.38541376
v 0.08359554 0.05220827 -1.26361111
v 0.10654522 0.06545827 -1.35966992
v 0.08332236 0.05268144 -1.21333333
v 0.10627203 0.06593144 -1.33392608
v 0.08307290 0.05311352 -1.16305556
v 0.10602257 0.06636352 -1.30818224
v 0.08284955 0.05350037 -1.11277778
v 0.10579922 0.06675037 -1.28243840
v 0.08265585 0.05383587 -1.06250000
v 0.10560552 0.06708587 -1.25669456
v 0.08249670 0.05411152 -1.01222222
v 0.10544637 0.06736152 -1.23095072
v 0.08237864 0.05431600 -0.96194444
v 0.10532832 0.06756600 -1.20520688
v 0.08231035 0.05443429 -0.91166667
v 0.10526002 0.06768429 -1.17946304
v 0.08230350 0.05444615 -0.86138889
v 0.10525318 0.06769615 -1.15371920
v 0.08237451 0.05432316 -0.81111111
v 0.10532418 0.06757316 -1.12797536
v 0.08254838 0.05402200 -0.76083333
v 0.10549806 0.06727200 -1.10223152
v 0.08286929 0.05346618 -0.71055556
v 0.10581896 0.06671618 -1.07648768
v 0.08344201 0.05247420 -0.66027778
v 0.10639168 0.06572420 -1.05074384
v 0.09463049 0.05959519 -0.87451621
v 0.09584759 0.05748710 -0.83650540
v 0.19065503 0.10577580 -1.15888889
v 0.18879354 0.10900000 -1.14500000
v 0.19122775 0.10478382 -1.17277778
v 0.19154866 0.10422800 -1.18666667
v 0.19172253 0.10392684 -1.20055556
v 0.19179354 0.10380385 -1.21444444
v 0.19178669 0.10381571 -1.22833333
v 0.19171840 0.10393400 -1.24222222
v 0.19160034 0.10413848 -1.25611111
v 0.19144119 0.10441413 -1.27000000
v 0.19124749 0.10474963 -1.28388889
v 0.19102414 0.10513648 -1.29777778
v 0.19077468 0.10556856 -1.31166667
v 0.19050150 0.10604173 -1.32555556
v 0.19020591 0.10655370 -1.33944444
v 0.18988829 0.10710383 -1.35333333
v 0.18954810 0.10769306 -1.36722222
v 0.18918393 0.10832382 -1.38111111
v 0.18879354 0.10900000 -1.39500000
v 0.18840315 0.10967618 -1.38111111
v 0.18803898 0.11030694 -1.36722222
v 0.18769878 0.11089617 -1.35333333
v 0.18738116 0.11144630 -1.33944444
v 0.18708558 0.11195827 -1.32555556
v 0.18681239 0.11243144 -1.31166667
v 0.18656294 0.11286352 -1.29777778
v 0.18633958 0.11325037 -1.28388889
v 0.18614589 0.11358587 -1.27000000
v 0.18598674 0.11386152 -1.25611111
v 0.18586868 0.11406600 -1.24222222
v 0.18580039 0.11418429 -1.22833333
v 0.18579354 0.11419615 -1.21444444
v 0.18586455 0.11407316 -1.20055556
v 0.18603842 0.11377200 -1.18666667
v 0.18635933 0.11321618 -1.17277778
v 0.18693204 0.11222420 -1.15888889
v 0.07793748 0.06000833 -1.51500000
v 0.09093748 0.03749167 -1.51500000
v 0.09093748 0.03749167 -0.61000000
v 0.07793748 0.06000833 -0.61000000
v 0.09570062 0.04024167 -0.70000000
v 0.08270062 0.06275833 -0.70000000
v 0.10003074 0.04274167 -0.85000000
v 0.08703074 0.06525833 -0.85000000
v 0.10003074 0.04274167 -1.35000000
v 0.08703074 0.06525833 -1.35000000
v 0.09570062 0.04024167 -1.47000000
v 0.08270062 0.06275833 -1.47000000
v 0.00000000 -0.09850000 -0.61000000
v -0.00372299 -0.09850000 -0.66027778
v -0.00372299 -0.12500000 -1.05074384
v 0.00000000 -0.12500000 -1.02500000
v -0.00186150 -0.11175000 -0.83650540
v -0.00486842 -0.09850000 -0.71055556
v -0.00486842 -0.12500000 -1.07648768
v -0.00551024 -0.09850000 -0.76083333
v -0.00551024 -0.12500000 -1.10223152
v -0.00585798 -0.09850000 -0.81111111
v -0.00585798 -0.12500000 -1.12797536
v -0.00600000 -0.09850000 -0.86138889
v -0.00600000 -0.12500000 -1.15371920
v -0.00598630 -0.09850000 -0.91166667
v -0.00598630 -0.12500000 -1.17946304
v -0.00584972 -0.09850000 -0.96194444
v -0.00584972 -0.12500000 -1.20520688
v -0.00561360 -0.09850000 -1.01222222
v -0.00561360 -0.12500000 -1.23095072
v -0.00529530 -0.09850000 -1.06250000
v -0.00529530 -0.12500000 -1.25669456
v -0.00490791 -0.09850000 -1.11277778
v -0.00490791 -0.12500000 -1.28243840
v -0.00446120 -0.09850000 -1.16305556
v -0.00446120 -0.12500000 -1.30818224
v -0.00396229 -0.09850000 -1.21333333
v -0.00396229 -0.12500000 -1.33392608
v -0.00341592 -0.09850000 -1.26361111
v -0.00341592 -0.12500000 -1.35966992
v -0.00282475 -0.09850000 -1.31388889
v -0.00282475 -0.12500000 -1.38541376
v -0.00218951 -0.09850000 -1.36416667
v -0.00218951 -0.12500000 -1.41115760
v -0.00150912 -0.09850000 -1.41444444
v -0.00150912 -0.12500000 -1.43690144
v -0.00078078 -0.09850000 -1.46472222
v -0.00078078 -0.12500000 -1.46264528
v 0.00000000 -0.09850000 -1.51500000
v 0.00000000 -0.12500000 -1.48838912
v 0.00078078 -0.09850000 -1.46472222
v 0.00078078 -0.12500000 -1.46264528
v 0.00150912 -0.09850000 -1.41444444
v 0.00150912 -0.12500000 -1.43690144
v 0.00218951 -0.09850000 -1.36416667
v 0.00218951 -0.12500000 -1.41115760
v 0.00282475 -0.09850000 -1.31388889
v 0.00282475 -0.12500000 -1.38541376
v 0.00341592 -0.09850000 -1.26361111
v 0.00341592 -0.12500000 -1.35966992
v 0.00396229 -0.09850000 -1.21333333
v 0.00396229 -0.12500000 -1.33392608
v 0.00446120 -0.09850000 -1.16305556
v 0.00446120 -0.12500000 -1.30818224
v 0.00490791 -0.09850000 -1.11277778
v 0.00490791 -0.12500000 -1.28243840
v 0.00529530 -0.09850000 -1.06250000
v 0.00529530 -0.12500000 -1.25669456
v 0.00561360 -0.09850000 -1.01222222
v 0.00561360 -0.12500000 -1.23095072
v 0.00584972 -0.09850000 -0.96194444
v 0.00584972 -0.12500000 -1.20520688
v 0.00598630 -0.09850000 -0.91166667
v 0.00598630 -0.12500000 -1.17946304
v 0.00600000 -0.09850000 -0.86138889
v 0.00600000 -0.12500000 -1.15371920
v 0.00585798 -0.09850000 -0.81111111
v 0.00585798 -0.12500000 -1.12797536
v 0.00551024 -0.09850000 -0.76083333
v 0.00551024 -0.12500000 -1.10223152
v 0.00486842 -0.09850000 -0.71055556
v 0.00486842 -0.12500000 -1.07648768
v 0.00372299 -0.09850000 -0.66027778
v 0.00372299 -0.12500000 -1.05074384
v 0.00429571 -0.11175000 -0.87451621
v 0.00186150 -0.11175000 -0.83650540
v -0.00372299 -0.21800000 -1.15888889
v 0.00000000 -0.21800000 -1.14500000
v -0.00486842 -0.21800000 -1.17277778
v -0.00551024 -0.21800000 -1.18666667
v -0.00585798 -0.21800000 -1.20055556
v -0.00600000 -0.21800000 -1.21444444
v -0.00598630 -0.21800000 -1.22833333
v -0.00584972 -0.21800000 -1.24222222
v -0.00561360 -0.21800000 -1.25611111
v -0.00529530 -0.21800000 -1.27000000
v -0.00490791 -0.21800000 -1.28388889
v -0.00446120 -0.21800000 -1.29777778
v -0.00396229 -0.21800000 -1.31166667
v -0.00341592 -0.21800000 -1.32555556
v -0.00282475 -0.21800000 -1.33944444
v -0.00218951 -0.21800000 -1.35333333
v -0.00150912 -0.21800000 -1.36722222
v -0.00078078 -0.21800000 -1.38111111
v 0.00000000 -0.21800000 -1.39500000
v 0.00078078 -0.21800000 -1.38111111
v 0.00150912 -0.21800000 -1.36722222
v 0.00218951 -0.21800000 -1.35333333
v 0.00282475 -0.21800000 -1.33944444
v 0.00341592 -0.21800000 -1.32555556
v 0.00396229 -0.21800000 -1.31166667
v 0.00446120 -0.21800000 -1.29777778
v 0.00490791 -0.21800000 -1.28388889
v 0.00529530 -0.21800000 -1.27000000
v 0.00561360 -0.21800000 -1.25611111
v 0.00584972 -0.21800000 -1.24222222
v 0.00598630 -0.21800000 -1.22833333
v 0.00600000 -0.21800000 -1.21444444
v 0.00585798 -0.21800000 -1.20055556
v 0.00551024 -0.21800000 -1.18666667
v 0.00486842 -0.21800000 -1.17277778
v 0.00372299 -0.21800000 -1.15888889
v 0.01300000 -0.09750000 -1.51500000
v -0.01300000 -0.09750000 -1.51500000
v -0.01300000 -0.09750000 -0.61000000
v 0.01300000 -0.09750000 -0.61000000
v -0.01300000 -0.10300000 -0.70000000
v 0.01300000 -0.10300000 -0.70000000
v -0.01300000 -0.10800000 -0.85000000
v 0.01300000 -0.10800000 -0.85000000
v -0.01300000 -0.10800000 -1.35000000
v 0.01300000 -0.10800000 -1.35000000
v -0.01300000 -0.10300000 -1.47000000
v 0.01300000 -0.10300000 -1.47000000
v -0.08530350 0.04925000 -0.61000000
v -0.08344201 0.05247420 -0.66027778
v -0.10639168 0.06572420 -1.05074384
v -0.10825318 0.06250000 -1.02500000
v -0.09584759 0.05748710 -0.83650540
v -0.08286929 0.05346618 -0.71055556
v -0.10581896 0.06671618 -1.07648768
v -0.08254838 0.05402200 -0.76083333
v -0.10549806 0.06727200 -1.10223152
v -0.08237451 0.05432316 -0.81111111
v -0.10532418 0.06757316 -1.12797536
v -0.08230350 0.05444615 -0.86138889
v -0.10525318 0.06769615 -1.15371920
v -0.08231035 0.05443429 -0.91166667
v -0.10526002 0.06768429 -1.17946304
v -0.08237864 0.05431600 -0.96194444
v -0.10532832 0.06756600 -1.20520688
v -0.08249670 0.05411152 -1.01222222
v -0.10544637 0.06736152 -1.23095072
v -0.08265585 0.05383587 -1.06250000
v -0.10560552 0.06708587 -1.25669456
v -0.08284955 0.05350037 -1.11277778
v -0.10579922 0.06675037 -1.28243840
v -0.08307290 0.05311352 -1.16305556
v -0.10602257 0.06636352 -1.30818224
v -0.08332236 0.05268144 -1.21333333
v -0.10627203 0.06593144 -1.33392608
v -0.08359554 0.05220827 -1.26361111
v -0.10654522 0.06545827 -1.35966992
v -0.08389113 0.05169630 -1.31388889
v -0.10684080 0.06494630 -1.38541376
v -0.08420875 0.05114617 -1.36416667
v -0.10715842 0.06439617 -1.41115760
v -0.08454894 0.05055694 -1.41444444
v -0.10749861 0.06380694 -1.43690144
v -0.08491311 0.04992618 -1.46472222
v -0.10786279 0.06317618 -1.46264528
v -0.08530350 0.04925000 -1.51500000
v -0.10825318 0.06250000 -1.48838912
v -0.08569389 0.04857382 -1.46472222
v -0.10864357 0.06182382 -1.46264528
v -0.08605806 0.04794306 -1.41444444
v -0.10900774 0.06119306 -1.43690144
v -0.08639826 0.04735383 -1.36416667
v -0.10934793 0.06060383 -1.41115760
v -0.08671588 0.04680370 -1.31388889
v -0.10966555 0.06005370 -1.38541376
v -0.08701146 0.04629173 -1.26361111
v -0.10996113 0.05954173 -1.35966992
v -0.08728465 0.04581856 -1.21333333
v -0.11023432 0.05906856 -1.33392608
v -0.08753410 0.04538648 -1.16305556
v -0.11048378 0.05863648 -1.30818224
v -0.08775746 0.04499963 -1.11277778
v -0.11070713 0.05824963 -1.28243840
v -0.08795115 0.04466413 -1.06250000
v -0.11090083 0.05791413 -1.25669456
v -0.08811030 0.04438848 -1.01222222
v -0.11105998 0.05763848 -1.23095072
v -0.08822836 0.04418400 -0.96194444
v -0.11117803 0.05743400 -1.20520688
v -0.08829665 0.04406571 -0.91166667
v -0.11124633 0.05731571 -1.17946304
v -0.08830350 0.04405385 -0.86138889
v -0.11125318 0.05730385 -1.15371920
v -0.08823249 0.04417684 -0.81111111
v -0.11118217 0.05742684 -1.12797536
v -0.08805862 0.04447800 -0.76083333
v -0.11100829 0.05772800 -1.10223152
v -0.08773771 0.04503382 -0.71055556
v -0.11068739 0.05828382 -1.07648768
v -0.08716500 0.04602580 -0.66027778
v -0.11011467 0.05927580 -1.05074384
v -0.09892619 0.05215481 -0.87451621
v -0.09770909 0.05426290 -0.83650540
v -0.18693204 0.11222420 -1.15888889
v -0.18879354 0.10900000 -1.14500000
v -0.18635933 0.11321618 -1.17277778
v -0.18603842 0.11377200 -1.18666667
v -0.18586455 0.11407316 -1.20055556
v -0.18579354 0.11419615 -1.21444444
v -0.18580039 0.11418429 -1.22833333
v -0.18586868 0.11406600 -1.24222222
v -0.18598674 0.11386152 -1.25611111
v -0.18614589 0.11358587 -1.27000000
v -0.18633958 0.11325037 -1.28388889
v -0.18656294 0.11286352 -1.29777778
v -0.18681239 0.11243144 -1.31166667
v -0.18708558 0.11195827 -1.32555556
v -0.18738116 0.11144630 -1.33944444
v -0.18769878 0.11089617 -1.35333333
v -0.18803898 0.11030694 -1.36722222
v -0.18840315 0.10967618 -1.38111111
v -0.18879354 0.10900000 -1.39500000
v -0.18918393 0.10832382 -1.38111111
v -0.18954810 0.10769306 -1.36722222
v -0.18988829 0.10710383 -1.35333333
v -0.19020591 0.10655370 -1.33944444
v -0.19050150 0.10604173 -1.32555556
v -0.19077468 0.10556856 -1.31166667
v -0.19102414 0.10513648 -1.29777778
v -0.19124749 0.10474963 -1.28388889
v -0.19144119 0.10441413 -1.27000000
v -0.19160034 0.10413848 -1.25611111
v -0.19171840 0.10393400 -1.24222222
v -0.19178669 0.10381571 -1.22833333
v -0.19179354 0.10380385 -1.21444444
v -0.19172253 0.10392684 -1.20055556
v -0.19154866 0.10422800 -1.18666667
v -0.19122775 0.10478382 -1.17277778
v -0.19065503 0.10577580 -1.15888889
v -0.09093748 0.03749167 -1.51500000
v -0.07793748 0.06000833 -1.51500000
v -0.07793748 0.06000833 -0.61000000
v -0.09093748 0.03749167 -0.61000000
v -0.08270062 0.06275833 -0.70000000
v -0.09570062 0.04024167 -0.70000000
v -0.08703074 0.06525833 -0.85000000
v -0.10003074 0.04274167 -0.85000000
v -0.08703074 0.06525833 -1.35000000
v -0.10003074 0.04274167 -1.35000000
v -0.08270062 0.06275833 -1.47000000
v -0.09570062 0.04024167 -1.47000000
f 5 1 2
f 5 2 3
f 5 3 4
f 5 4 1
f 7 2 6
f 7 3 2
f 9 6 8
f 9 7 6
f 11 8 10
f 11 9 8
f 13 10 12
f 13 11 10
f 15 12 14
f 15 13 12
f 15 14 16
f 17 15 16
f 19 16 18
f 19 17 16
f 21 18 20
f 21 19 18
f 23 20 22
f 23 21 20
f 25 22 24
f 25 23 22
f 27 24 26
f 27 25 24
f 29 26 28
f 29 27 26
f 31 28 30
f 31 29 28
f 33 30 32
f 33 31 30
f 35 32 34
f 35 33 32
f 37 34 36
f 37 35 34
f 38 37 36
f 39 37 38
f 40 39 38
f 41 39 40
f 43 40 42
f 43 41 40
f 45 42 44
f 45 43 42
f 47 44 46
f 47 45 44
f 49 46 48
f 49 47 46
f 51 48 50
f 51 49 48
f 51 50 52
f 53 51 52
f 55 52 54
f 55 53 52
f 57 54 56
f 57 55 54
f 59 56 58
f 59 57 56
f 61 58 60
f 61 59 58
f 61 60 62
f 63 61 62
f 65 62 64
f 65 63 62
f 67 64 66
f 67 65 64
f 69 66 68
f 69 67 66
f 71 68 70
f 71 69 68
f 74 70 72
f 74 72 73
f 74 73 71
f 74 71 70
f 75 72 1
f 75 1 4
f 75 4 73
f 75 73 72
f 76 4 3
f 76 77 4
f 76 3 7
f 78 76 7
f 79 7 9
f 79 78 7
f 80 9 11
f 80 79 9
f 80 11 13
f 81 80 13
f 81 13 15
f 82 81 15
f 83 15 17
f 83 82 15
f 84 17 19
f 84 83 17
f 85 19 21
f 85 84 19
f 86 21 23
f 86 85 21
f 87 23 25
f 87 86 23
f 88 25 27
f 88 87 25
f 89 27 29
f 89 88 27
f 90 29 31
f 90 89 29
f 91 31 33
f 91 90 31
f 92 33 35
f 92 91 33
f 93 35 37
f 93 92 35
f 94 37 39
f 94 93 37
f 95 39 41
f 95 94 39
f 96 41 43
f 96 95 41
f 97 43 45
f 97 96 43
f 98 45 47
f 98 97 45
f 98 47 49
f 99 98 49
f 100 49 51
f 100 99 49
f 101 51 53
f 101 100 51
f 102 53 55
f 102 101 53
f 103 55 57
f 103 102 55
f 104 57 59
f 104 103 57
f 105 59 61
f 105 104 59
f 106 61 63
f 106 105 61
f 106 63 65
f 107 106 65
f 107 65 67
f 108 107 67
f 109 67 69
f 109 108 67
f 110 69 71
f 110 109 69
f 111 71 73
f 111 110 71
f 77 73 4
f 77 111 73
f 2 1 72
f 6 72 70
f 6 2 72
f 8 70 68
f 8 6 70
f 66 8 68
f 10 8 66
f 12 66 64
f 12 10 66
f 14 64 62
f 14 12 64
f 60 14 62
f 16 14 60
f 58 16 60
f 18 16 58
f 20 58 56
f 20 18 58
f 22 56 54
f 22 20 56
f 24 54 52
f 24 22 54
f 26 52 50
f 26 24 52
f 28 50 48
f 28 26 50
f 30 48 46
f 30 28 48
f 32 46 44
f 32 30 46
f 34 44 42
f 34 32 44
f 36 34 42
f 36 42 40
f 38 36 40
f 76 111 77
f 110 111 76
f 78 110 76
f 79 109 110
f 79 110 78
f 108 109 79
f 80 108 79
f 81 107 108
f 81 108 80
f 106 107 81
f 82 106 81
f 83 105 106
f 83 106 82
f 84 104 105
f 84 105 83
f 85 103 104
f 85 104 84
f 86 102 103
f 86 103 85
f 87 101 102
f 87 102 86
f 88 100 101
f 88 101 87
f 89 99 100
f 89 100 88
f 90 98 99
f 90 99 89
f 91 97 98
f 91 98 90
f 92 96 97
f 92 97 91
f 93 96 92
f 93 95 96
f 94 95 93
f 115 112 113
f 115 113 114
f 117 115 114
f 117 114 116
f 119 117 116
f 119 116 118
f 121 119 118
f 121 118 120
f 122 121 120
f 123 121 122
f 113 123 122
f 112 123 113
f 112 115 117
f 112 117 123
f 123 117 119
f 123 119 121
f 113 116 114
f 113 122 116
f 122 118 116
f 122 120 118
f 128 124 125
f 128 125 126
f 128 126 127
f 128 127 124
f 130 125 129
f 130 126 125
f 132 129 131
f 132 130 129
f 134 131 133
f 134 132 131
f 136 133 135
f 136 134 133
f 138 135 137
f 138 136 135
f 138 137 139
f 140 138 139
f 142 139 141
f 142 140 139
f 144 141 143
f 144 142 141
f 146 143 145
f 146 144 143
f 148 145 147
f 148 146 145
f 150 147 149
f 150 148 147
f 152 149 151
f 152 150 149
f 154 151 153
f 154 152 151
f 156 153 155
f 156 154 153
f 158 155 157
f 158 156 155
f 160 157 159
f 160 158 157
f 161 160 159
f 162 160 161
f 163 162 161
f 164 162 163
f 166 163 165
f 166 164 163
f 168 165 167
f 168 166 165
f 170 167 169
f 170 168 167
f 172 169 171
f 172 170 169
f 174 171 173
f 174 172 171
f 174 173 175
f 176 174 175
f 178 175 177
f 178 176 175
f 180 177 179
f 180 178 177
f 182 179 181
f 182 180 179
f 184 181 183
f 184 182 181
f 184 183 185
f 186 184 185
f 188 185 187
f 188 186 185
f 190 187 189
f 190 188 187
f 192 189 191
f 192 190 189
f 194 191 193
f 194 192 191
f 197 193 195
f 197 195 196
f 197 196 194
f 197 194 193
f 198 195 124
f 198 124 127
f 198 127 196
f 198 196 195
f 199 127 126
f 199 200 127
f 199 126 130
f 201 199 130
f 202 130 132
f 202 201 130
f 203 132 134
f 203 202 132
f 203 134 136
f 204 203 136
f 204 136 138
f 205 204 138
f 206 138 140
f 206 205 138
f 207 140 142
f 207 206 140
f 208 142 144
f 208 207 142
f 209 144 146
f 209 208 144
f 210 146 148
f 210 209 146
f 211 148 150
f 211 210 148
f 212 150 152
f 212 211 150
f 213 152 154
f 213 212 152
f 214 154 156
f 214 213 154
f 215 156 158
f 215 214 156
f 216 158 160
f 216 215 158
f 217 160 162
f 217 216 160
f 218 162 164
f 218 217 162
f 219 164 166
f 219 218 164
f 220 166 168
f 220 219 166
f 221 168 170
f 221 220 168
f 221 170 172
f 222 221 172
f 223 172 174
f 223 222 172
f 224 174 176
f 224 223 174
f 225 176 178
f 225 224 176
f 226 178 180
f 226 225 178
f 227 180 182
f 227 226 180
f 228 182 184
f 228 227 182
f 229 184 186
f 229 228 184
f 229 186 188
f 230 229 188
f 230 188 190
f 231 230 190
f 232 190 192
f 232 231 190
f 233 192 194
f 233 232 192
f 234 194 196
f 234 233 194
f 200 196 127
f 200 234 196
f 125 124 195
f 129 195 193
f 129 125 195
f 131 193 191
f 131 129 193
f 189 131 191
f 133 131 189
f 135 189 187
f 135 133 189
f 137 187 185
f 137 135 187
f 183 137 185
f 139 137 183
f 181 139 183
f 141 139 181
f 143 181 179
f 143 141 181
f 145 179 177
f 145 143 179
f 147 177 175
f 147 145 177
f 149 175 173
f 149 147 175
f 151 173 171
f 151 149 173
f 153 171 169
f 153 151 171
f 155 169 167
f 155 153 169
f 157 167 165
f 157 155 167
f 159 157 165
f 159 165 163
f 161 159 163
f 199 234 200
f 233 234 199
f 201 233 199
f 202 232 233
f 202 233 201
f 231 232 202
f 203 231 202
f 204 230 231
f 204 231 203
f 229 230 204
f 205 229 204
f 206 228 229
f 206 229 205
f 207 227 228
f 207 228 206
f 208 226 227
f 208 227 207
f 209 225 226
f 209 226 208
f 210 224 225
f 210 225 209
f 211 223 224
f 211 224 210
f 212 222 223
f 212 223 211
f 213 221 222
f 213 222 212
f 214 220 221
f 214 221 213
f 215 219 220
f 215 220 214
f 216 219 215
f 216 218 219
f 217 218 216
f 238 235 236
f 238 236 237
f 240 238 237
f 240 237 239
f 242 240 239
f 242 239 241
f 244 242 241
f 244 241 243
f 245 244 243
f 246 244 245
f 236 246 245
f 235 246 236
f 235 238 240
f 235 240 246
f 246 240 242
f 246 242 244
f 236 239 237
f 236 245 239
f 245 241 239
f 245 243 241
f 251 247 248
f 251 248 249
f 251 249 250
f 251 250 247
f 253 248 252
f 253 249 248
f 255 252 254
f 255 253 252
f 257 254 256
f 257 255 254
f 259 256 258
f 259 257 256
f 261 258 260
f 261 259 258
f 261 260 262
f 263 261 262
f 265 262 264
f 265 263 262
f 267 264 266
f 267 265 264
f 269 266 268
f 269 267 266
f 271 268 270
f 271 269 268
f 273 270 272
f 273 271 270
f 275 272 274
f 275 273 272
f 277 274 276
f 277 275 274
f 279 276 278
f 279 277 276
f 281 278 280
f 281 279 278
f 283 280 282
f 283 281 280
f 284 283 282
f 285 283 284
f 286 285 284
f 287 285 286
f 289 286 288
f 289 287 286
f 291 288 290
f 291 289 288
f 293 290 292
f 293 291 290
f 295 292 294
f 295 293 292
f 297 294 296
f 297 295 294
f 297 296 298
f 299 297 298
f 301 298 300
f 301 299 298
f 303 300 302
f 303 301 300
f 305 302 304
f 305 303 302
f 307 304 306
f 307 305 304
f 307 306 308
f 309 307 308
f 311 308 310
f 311 309 308
f 313 310 312
f 313 311 310
f 315 312 314
f 315 313 312
f 317 314 316
f 317 315 314
f 320 316 318
f 320 318 319
f 320 319 317
f 320 317 316
f 321 318 247
f 321 247 250
f 321 250 319
f 321 319 318
f 322 250 249
f 322 323 250
f 322 249 253
f 324 322 253
f 325 253 255
f 325 324 253
f 326 255 257
f 326 325 255
f 326 257 259
f 327 326 259
f 327 259 261
f 328 327 261
f 329 261 263
f 329 328 261
f 330 263 265
f 330 329 263
f 331 265 267
f 331 330 265
f 332 267 269
f 332 331 267
f 333 269 271
f 333 332 269
f 334 271 273
f 334 333 271
f 335 273 275
f 335 334 273
f 336 275 277
f 336 335 275
f 337 277 279
f 337 336 277
f 338 279 281
f 338 337 279
f 339 281 283
f 339 338 281
f 340 283 285
f 340 339 283
f 341 285 287
f 341 340 285
f 342 287 289
f 342 341 287
f 343 289 291
f 343 342 289
f 344 291 293
f 344 343 291
f 344 293 295
f 345 344 295
f 346 295 297
f 346 345 295
f 347 297 299
f 347 346 297
f 348 299 301
f 348 347 299
f 349 301 303
f 349 348 301
f 350 303 305
f 350 349 303
f 351 305 307
f 351 350 305
f 352 307 309
f 352 351 307
f 352 309 311
f 353 352 311
f 353 311 313
f 354 353 313
f 355 313 315
f 355 354 313
f 356 315 317
f 356 355 315
f 357 317 319
f 357 356 317
f 323 319 250
f 323 357 319
f 248 247 318
f 252 318 316
f 252 248 318
f 254 316 314
f 254 252 316
f 312 254 314
f 256 254 312
f 258 312 310
f 258 256 312
f 260 310 308
f 260 258 310
f 306 260 308
f 262 260 306
f 304 262 306
f 264 262 304
f 266 304 302
f 266 264 304
f 268 302 300
f 268 266 302
f 270 300 298
f 270 268 300
f 272 298 296
f 272 270 298
f 274 296 294
f 274 272 296
f 276 294 292
f 276 274 294
f 278 292 290
f 278 276 292
f 280 290 288
f 280 278 290
f 282 280 288
f 282 288 286
f 284 282 286
f 322 357 323
f 356 357 322
f 324 356 322
f 325 355 356
f 325 356 324
f 354 355 325
f 326 354 325
f 327 353 354
f 327 354 326
f 352 353 327
f 328 352 327
f 329 351 352
f 329 352 328
f 330 350 351
f 330 351 329
f 331 349 350
f 331 350 330
f 332 348 349
f 332 349 331
f 333 347 348
f 333 348 332
f 334 346 347
f 334 347 333
f 335 345 346
f 335 346 334
f 336 344 345
f 336 345 335
f 337 343 344
f 337 344 336
f 338 342 343
f 338 343 337
f 339 342 338
f 339 341 342
f 340 341 339
f 361 358 359
f 361 359 360
f 363 361 360
f 363 360 362
f 365 363 362
f 365 362 364
f 367 365 364
f 367 364 366
f 368 367 366
f 369 367 368
f 359 369 368
f 358 369 359
f 358 361 363
f 358 363 369
f 369 363 365
f 369 365 367
f 359 362 360
f 359 368 362
f 368 364 362
f 368 366 364

