# https://github.com/mikedh/trimesh
v 0.07306331 0.07105064 0.03000000
v 0.09806331 0.02774936 0.03000000
v 0.09916749 0.02838686 0.13000000
v 0.07416749 0.07168814 0.13000000
v 0.07159107 0.07020064 0.13000000
v 0.09659107 0.02689936 0.13000000
v 0.10358422 0.03093686 0.47000000
v 0.07858422 0.07423814 0.47000000
v 0.08300095 0.07678814 0.59000000
v 0.08888992 0.08018814 0.69000000
v 0.08300095 0.07678814 0.79000000
v 0.07909297 0.07453186 0.78044402
v 0.08042453 0.07530064 0.69000000
v 0.07379943 0.07147564 0.43000000
v 0.07350406 0.07130510 0.43334383
v 0.10800095 0.03348686 0.59000000
v 0.11388992 0.03688686 0.69000000
v 0.10800095 0.03348686 0.79000000
v 0.10409297 0.03123059 0.78044402
v 0.10542453 0.03199936 0.69000000
v 0.09879943 0.02817436 0.43000000
v 0.09850406 0.02800383 0.43334383
v 0.06809107 0.07626281 0.45500000
v 0.07029943 0.07753781 0.43000000
v 0.10009107 0.02083719 0.45500000
v 0.10229943 0.02211219 0.43000000
v 0.07692453 0.08136281 0.69000000
v 0.07545228 0.08051281 0.79000000
v 0.10892453 0.02593719 0.69000000
v 0.10745228 0.02508719 0.79000000
v 0.07177167 0.07838781 0.76600000
v 0.10377167 0.02296219 0.76600000
v 0.07652308 0.07304814 0.77416000
v 0.10152308 0.02974686 0.77416000
v 0.07561606 0.07252447 0.76824561
v 0.10061606 0.02922320 0.76824561
v 0.07563974 0.07253814 0.77200000
v 0.10063974 0.02923686 0.77200000
v 0.07676483 0.08588941 0.77500000
v 0.08244544 0.08455031 0.73500000
v 0.08121832 0.07817574 0.77500000
v 0.08678014 0.07704238 0.73500000
v 0.11536254 0.09893621 0.79000000
v 0.11097357 0.09293814 0.73500000
v 0.10965791 0.08441540 0.73500000
v 0.12793483 0.05275884 0.73500000
v 0.11011073 0.03663262 0.73500000
v 0.11444544 0.02912469 0.73500000
v 0.13597357 0.04963686 0.73500000
v 0.11259219 0.08889217 0.78721356
v 0.14336254 0.05043879 0.79000000
v 0.11276483 0.02353559 0.77500000
v 0.10831134 0.03124926 0.77500000
v 0.13327897 0.05306161 0.78721356
v 0.12663660 0.03818398 0.75875000
v 0.07806331 0.06239038 0.04500000
v 0.07803555 0.06583846 0.18000000
v 0.08042307 0.05830316 0.04500000
v 0.08056187 0.06146275 0.18000000
v 0.09060513 0.06616730 0.04500000
v 0.09402186 0.07044936 0.18000000
v 0.07898004 0.07100256 0.36000000
v 0.08168004 0.06632602 0.36000000
v 0.08906992 0.06076042 0.04500000
v 0.09234126 0.06486025 0.18000000
v 0.09715502 0.04675660 0.04500000
v 0.09070355 0.04049684 0.04500000
v 0.09306331 0.03640962 0.04500000
v 0.10260513 0.04538270 0.04500000
v 0.09841084 0.07644743 0.36000000
v 0.11541084 0.04700257 0.36000000
v 0.10802186 0.04620064 0.18000000
v 0.08200095 0.07852019 0.59000000
v 0.08503616 0.07326305 0.59000000
v 0.09673023 0.07085833 0.36000000
v 0.10234126 0.04753975 0.18000000
v 0.09603555 0.03466154 0.18000000
v 0.09350924 0.03903725 0.18000000
v 0.10745266 0.08628653 0.59000000
v 0.12845266 0.04991347 0.59000000
v 0.10098004 0.03289744 0.36000000
v 0.08572318 0.07887309 0.73500000
v 0.10590399 0.07961891 0.59000000
v 0.10973023 0.04834167 0.36000000
v 0.09828004 0.03757398 0.36000000
v 0.10900095 0.03175481 0.59000000
v 0.10968856 0.08629874 0.73500000
v 0.12958118 0.05184371 0.73500000
v 0.11116769 0.03480191 0.73500000
v 0.12190399 0.05190609 0.59000000
v 0.10596574 0.03701195 0.59000000
v 0.07881331 0.06109134 0.04500000
v 0.07556331 0.06672051 0.04500000
v 0.07553555 0.07016858 0.18000000
v 0.07878555 0.06453942 0.18000000
v 0.08810513 0.07049743 0.04500000
v 0.09152186 0.07477948 0.18000000
v 0.09135513 0.06486827 0.04500000
v 0.09477186 0.06915032 0.18000000
v 0.09916084 0.07514839 0.36000000
v 0.09591084 0.08077756 0.36000000
v 0.07648004 0.07533269 0.36000000
v 0.07973004 0.06970352 0.36000000
v 0.07950095 0.08285031 0.59000000
v 0.08275095 0.07722115 0.59000000
v 0.10495266 0.09061666 0.59000000
v 0.10820266 0.08498750 0.59000000
v 0.07994544 0.08888044 0.73500000
v 0.08319544 0.08325127 0.73500000
v 0.10847357 0.09726826 0.73500000
v 0.11172357 0.09163910 0.73500000
v 0.09231331 0.03770866 0.04500000
v 0.09556331 0.03207949 0.04500000
v 0.09853555 0.03033142 0.18000000
v 0.09528555 0.03596058 0.18000000
v 0.10510513 0.04105257 0.04500000
v 0.11052186 0.04187052 0.18000000
v 0.10185513 0.04668173 0.04500000
v 0.10727186 0.04749968 0.18000000
v 0.11466084 0.04830161 0.36000000
v 0.11791084 0.04267244 0.36000000
v 0.10348004 0.02856731 0.36000000
v 0.10023004 0.03419648 0.36000000
v 0.11150095 0.02742469 0.59000000
v 0.10825095 0.03305385 0.59000000
v 0.13095266 0.04558334 0.59000000
v 0.12770266 0.05121250 0.59000000
v 0.11694544 0.02479456 0.73500000
v 0.11369544 0.03042373 0.73500000
v 0.13847357 0.04530674 0.73500000
v 0.13522357 0.05093590 0.73500000
v 0.02500000 -0.09880000 0.03000000
v -0.02500000 -0.09880000 0.03000000
v -0.02500000 -0.10007500 0.13000000
v 0.02500000 -0.10007500 0.13000000
v 0.02500000 -0.09710000 0.13000000
v -0.02500000 -0.09710000 0.13000000
v -0.02500000 -0.10517500 0.47000000
v 0.02500000 -0.10517500 0.47000000
v 0.02500000 -0.11027500 0.59000000
v 0.02500000 -0.11707500 0.69000000
v 0.02500000 -0.11027500 0.79000000
v 0.02500000 -0.10576245 0.78044402
v 0.02500000 -0.10730000 0.69000000
v 0.02500000 -0.09965000 0.43000000
v 0.02500000 -0.09930893 0.43334383
v -0.02500000 -0.11027500 0.59000000
v -0.02500000 -0.11707500 0.69000000
v -0.02500000 -0.11027500 0.79000000
v -0.02500000 -0.10576245 0.78044402
v -0.02500000 -0.10730000 0.69000000
v -0.02500000 -0.09965000 0.43000000
v -0.02500000 -0.09930893 0.43334383
v 0.03200000 -0.09710000 0.45500000
v 0.03200000 -0.09965000 0.43000000
v -0.03200000 -0.09710000 0.45500000
v -0.03200000 -0.09965000 0.43000000
v 0.03200000 -0.10730000 0.69000000
v 0.03200000 -0.10560000 0.79000000
v -0.03200000 -0.10730000 0.69000000
v -0.03200000 -0.10560000 0.79000000
v 0.03200000 -0.10135000 0.76600000
v -0.03200000 -0.10135000 0.76600000
v 0.02500000 -0.10279500 0.77416000
v -0.02500000 -0.10279500 0.77416000
v 0.02500000 -0.10174766 0.76824561
v -0.02500000 -0.10174766 0.76824561
v 0.02500000 -0.10177500 0.77200000
v -0.02500000 -0.10177500 0.77200000
v 0.03600000 -0.10942500 0.77500000
v 0.03200000 -0.11367500 0.73500000
v 0.02709302 -0.10942500 0.77500000
v 0.02333059 -0.11367500 0.73500000
v 0.02800000 -0.14937500 0.79000000
v 0.02500000 -0.14257500 0.73500000
v 0.01827692 -0.13717423 0.73500000
v -0.01827692 -0.13717423 0.73500000
v -0.02333059 -0.11367500 0.73500000
v -0.03200000 -0.11367500 0.73500000
v -0.02500000 -0.14257500 0.73500000
v 0.02068678 -0.14195378 0.78721356
v -0.02800000 -0.14937500 0.79000000
v -0.03600000 -0.10942500 0.77500000
v -0.02709302 -0.10942500 0.77500000
v -0.02068678 -0.14195378 0.78721356
v -0.03025000 -0.12876250 0.75875000
v 0.01500000 -0.09880000 0.04500000
v 0.01800000 -0.10050000 0.18000000
v 0.01028048 -0.09880000 0.04500000
v 0.01294737 -0.10050000 0.18000000
v 0.01200000 -0.11155000 0.04500000
v 0.01400000 -0.11665000 0.18000000
v 0.02200000 -0.10390000 0.36000000
v 0.01660000 -0.10390000 0.36000000
v 0.00808511 -0.10751702 0.04500000
v 0.01000000 -0.11240000 0.18000000
v -0.00808511 -0.10751702 0.04500000
v -0.01028048 -0.09880000 0.04500000
v -0.01500000 -0.09880000 0.04500000
v -0.01200000 -0.11155000 0.04500000
v 0.01700000 -0.12345000 0.36000000
v -0.01700000 -0.12345000 0.36000000
v -0.01400000 -0.11665000 0.18000000
v 0.02700000 -0.11027500 0.59000000
v 0.02092958 -0.11027500 0.59000000
v 0.01300000 -0.11920000 0.36000000
v -0.01000000 -0.11240000 0.18000000
v -0.01800000 -0.10050000 0.18000000
v -0.01294737 -0.10050000 0.18000000
v 0.02100000 -0.13620000 0.59000000
v -0.02100000 -0.13620000 0.59000000
v -0.02200000 -0.10390000 0.36000000
v 0.02544451 -0.11367500 0.73500000
v 0.01600000 -0.13152500 0.59000000
v -0.01300000 -0.11920000 0.36000000
v -0.01660000 -0.10390000 0.36000000
v -0.02700000 -0.11027500 0.59000000
v 0.01989262 -0.13814245 0.73500000
v -0.01989262 -0.13814245 0.73500000
v -0.02544451 -0.11367500 0.73500000
v -0.01600000 -0.13152500 0.59000000
v -0.02092958 -0.11027500 0.59000000
v 0.01350000 -0.09880000 0.04500000
v 0.02000000 -0.09880000 0.04500000
v 0.02300000 -0.10050000 0.18000000
v 0.01650000 -0.10050000 0.18000000
v 0.01700000 -0.11155000 0.04500000
v 0.01900000 -0.11665000 0.18000000
v 0.01050000 -0.11155000 0.04500000
v 0.01250000 -0.11665000 0.18000000
v 0.01550000 -0.12345000 0.36000000
v 0.02200000 -0.12345000 0.36000000
v 0.02700000 -0.10390000 0.36000000
v 0.02050000 -0.10390000 0.36000000
v 0.03200000 -0.11027500 0.59000000
v 0.02550000 -0.11027500 0.59000000
v 0.02600000 -0.13620000 0.59000000
v 0.01950000 -0.13620000 0.59000000
v 0.03700000 -0.11367500 0.73500000
v 0.03050000 -0.11367500 0.73500000
v 0.03000000 -0.14257500 0.73500000
v 0.02350000 -0.14257500 0.73500000
v -0.01350000 -0.09880000 0.04500000
v -0.02000000 -0.09880000 0.04500000
v -0.02300000 -0.10050000 0.18000000
v -0.01650000 -0.10050000 0.18000000
v -0.01700000 -0.11155000 0.04500000
v -0.01900000 -0.11665000 0.18000000
v -0.01050000 -0.11155000 0.04500000
v -0.01250000 -0.11665000 0.18000000
v -0.01550000 -0.12345000 0.36000000
v -0.02200000 -0.12345000 0.36000000
v -0.02700000 -0.10390000 0.36000000
v -0.02050000 -0.10390000 0.36000000
v -0.03200000 -0.11027500 0.59000000
v -0.02550000 -0.11027500 0.59000000
v -0.02600000 -0.13620000 0.59000000
v -0.01950000 -0.13620000 0.59000000
v -0.03700000 -0.11367500 0.73500000
v -0.03050000 -0.11367500 0.73500000
v -0.03000000 -0.14257500 0.73500000
v -0.02350000 -0.14257500 0.73500000
v -0.09806331 0.02774936 0.03000000
v -0.07306331 0.07105064 0.03000000
v -0.07416749 0.07168814 0.13000000
v -0.09916749 0.02838686 0.13000000
v -0.09659107 0.02689936 0.13000000
v -0.07159107 0.07020064 0.13000000
v -0.07858422 0.07423814 0.47000000
v -0.10358422 0.03093686 0.47000000
v -0.10800095 0.03348686 0.59000000
v -0.11388992 0.03688686 0.69000000
v -0.10800095 0.03348686 0.79000000
v -0.10409297 0.03123059 0.78044402
v -0.10542453 0.03199936 0.69000000
v -0.09879943 0.02817436 0.43000000
v -0.09850406 0.02800383 0.43334383
v -0.08300095 0.07678814 0.59000000
v -0.08888992 0.08018814 0.69000000
v -0.08300095 0.07678814 0.79000000
v -0.07909297 0.07453186 0.78044402
v -0.08042453 0.07530064 0.69000000
v -0.07379943 0.07147564 0.43000000
v -0.07350406 0.07130510 0.43334383
v -0.10009107 0.02083719 0.45500000
v -0.10229943 0.02211219 0.43000000
v -0.06809107 0.07626281 0.45500000
v -0.07029943 0.07753781 0.43000000
v -0.10892453 0.02593719 0.69000000
v -0.10745228 0.02508719 0.79000000
v -0.07692453 0.08136281 0.69000000
v -0.07545228 0.08051281 0.79000000
v -0.10377167 0.02296219 0.76600000
v -0.07177167 0.07838781 0.76600000
v -0.10152308 0.02974686 0.77416000
v -0.07652308 0.07304814 0.77416000
v -0.10061606 0.02922320 0.76824561
v -0.07561606 0.07252447 0.76824561
v -0.10063974 0.02923686 0.77200000
v -0.07563974 0.07253814 0.77200000
v -0.11276483 0.02353559 0.77500000
v -0.11444544 0.02912469 0.73500000
v -0.10831134 0.03124926 0.77500000
v -0.11011073 0.03663262 0.73500000
v -0.14336254 0.05043879 0.79000000
v -0.13597357 0.04963686 0.73500000
v -0.12793483 0.05275884 0.73500000
v -0.10965791 0.08441540 0.73500000
v -0.08678014 0.07704238 0.73500000
v -0.08244544 0.08455031 0.73500000
v -0.11097357 0.09293814 0.73500000
v -0.13327897 0.05306161 0.78721356
v -0.11536254 0.09893621 0.79000000
v -0.07676483 0.08588941 0.77500000
v -0.08121832 0.07817574 0.77500000
v -0.11259219 0.08889217 0.78721356
v -0.09638660 0.09057852 0.75875000
v -0.09306331 0.03640962 0.04500000
v -0.09603555 0.03466154 0.18000000
v -0.09070355 0.04049684 0.04500000
v -0.09350924 0.03903725 0.18000000
v -0.10260513 0.04538270 0.04500000
v -0.10802186 0.04620064 0.18000000
v -0.10098004 0.03289744 0.36000000
v -0.09828004 0.03757398 0.36000000
v -0.09715502 0.04675660 0.04500000
v -0.10234126 0.04753975 0.18000000
v -0.08906992 0.06076042 0.04500000
v -0.08042307 0.05830316 0.04500000
v -0.07806331 0.06239038 0.04500000
v -0.09060513 0.06616730 0.04500000
v -0.11541084 0.04700257 0.36000000
v -0.09841084 0.07644743 0.36000000
v -0.09402186 0.07044936 0.18000000
v -0.10900095 0.03175481 0.59000000
v -0.10596574 0.03701195 0.59000000
v -0.10973023 0.04834167 0.36000000
v -0.09234126 0.06486025 0.18000000
v -0.07803555 0.06583846 0.18000000
v -0.08056187 0.06146275 0.18000000
v -0.12845266 0.04991347 0.59000000
v -0.10745266 0.08628653 0.59000000
v -0.07898004 0.07100256 0.36000000
v -0.11116769 0.03480191 0.73500000
v -0.12190399 0.05190609 0.59000000
v -0.09673023 0.07085833 0.36000000
v -0.08168004 0.06632602 0.36000000
v -0.08200095 0.07852019 0.59000000
v -0.12958118 0.05184371 0.73500000
v -0.10968856 0.08629874 0.73500000
v -0.08572318 0.07887309 0.73500000
v -0.10590399 0.07961891 0.59000000
v -0.08503616 0.07326305 0.59000000
v -0.09231331 0.03770866 0.04500000
v -0.09556331 0.03207949 0.04500000
v -0.09853555 0.03033142 0.18000000
v -0.09528555 0.03596058 0.18000000
v -0.10510513 0.04105257 0.04500000
v -0.11052186 0.04187052 0.18000000
v -0.10185513 0.04668173 0.04500000
v -0.10727186 0.04749968 0.18000000
v -0.11466084 0.04830161 0.36000000
v -0.11791084 0.04267244 0.36000000
v -0.10348004 0.02856731 0.36000000
v -0.10023004 0.03419648 0.36000000
v -0.11150095 0.02742469 0.59000000
v -0.10825095 0.03305385 0.59000000
v -0.13095266 0.04558334 0.59000000
v -0.12770266 0.05121250 0.59000000
v -0.11694544 0.02479456 0.73500000
v -0.11369544 0.03042373 0.73500000
v -0.13847357 0.04530674 0.73500000
v -0.13522357 0.05093590 0.73500000
v -0.07881331 0.06109134 0.04500000
v -0.07556331 0.06672051 0.04500000
v -0.07553555 0.07016858 0.18000000
v -0.07878555 0.06453942 0.18000000
v -0.08810513 0.07049743 0.04500000
v -0.09152186 0.07477948 0.18000000
v -0.09135513 0.06486827 0.04500000
v -0.09477186 0.06915032 0.18000000
v -0.09916084 0.07514839 0.36000000
v -0.09591084 0.08077756 0.36000000
v -0.07648004 0.07533269 0.36000000
v -0.07973004 0.06970352 0.36000000
v -0.07950095 0.08285031 0.59000000
v -0.08275095 0.07722115 0.59000000
v -0.10495266 0.09061666 0.59000000
v -0.10820266 0.08498750 0.59000000
v -0.07994544 0.08888044 0.73500000
v -0.08319544 0.08325127 0.73500000
v -0.10847357 0.09726826 0.73500000
v -0.11172357 0.09163910 0.73500000
f 3 2 1
f 4 3 1
f 1 6 5
f 1 2 6
f 8 3 4
f 8 7 3
f 4 1 5
f 14 4 5
f 10 9 13
f 12 10 13
f 11 10 12
f 4 14 8
f 13 8 14
f 13 9 8
f 15 14 5
f 3 6 2
f 21 6 3
f 17 20 16
f 19 20 17
f 18 19 17
f 3 7 21
f 20 21 7
f 20 7 16
f 22 6 21
f 6 22 15
f 5 6 15
f 9 7 8
f 9 16 7
f 22 26 25
f 21 26 22
f 15 25 23
f 15 22 25
f 24 14 15
f 24 15 23
f 27 14 24
f 27 13 14
f 19 29 20
f 30 29 19
f 12 13 27
f 28 19 12
f 28 30 19
f 28 12 27
f 12 18 11
f 12 19 18
f 18 17 10
f 11 18 10
f 17 16 9
f 10 17 9
f 29 26 21
f 20 29 21
f 28 27 31
f 24 23 27
f 31 27 23
f 30 32 29
f 26 29 25
f 32 25 29
f 25 32 31
f 23 25 31
f 32 30 34
f 36 32 34
f 33 30 28
f 33 34 30
f 31 35 33
f 31 33 28
f 32 35 31
f 32 36 35
f 37 34 33
f 37 38 34
f 36 34 38
f 35 38 37
f 35 36 38
f 35 37 33
f 40 41 39
f 42 41 40
f 40 39 43
f 40 43 44
f 45 40 44
f 45 42 40
f 46 48 47
f 49 46 45
f 49 45 44
f 49 48 46
f 42 45 50
f 42 50 41
f 50 43 39
f 41 50 39
f 51 50 54
f 51 43 50
f 52 54 53
f 52 51 54
f 44 43 51
f 44 51 49
f 55 51 52
f 55 49 51
f 55 48 49
f 55 52 48
f 48 53 47
f 48 52 53
f 47 53 54
f 46 47 54
f 46 54 50
f 45 46 50
f 59 57 56
f 59 56 58
f 57 60 56
f 57 61 60
f 63 62 57
f 63 57 59
f 65 58 64
f 59 58 65
f 64 58 56
f 60 64 56
f 66 68 67
f 69 66 64
f 69 64 60
f 69 68 66
f 62 61 57
f 62 70 61
f 61 69 60
f 61 72 69
f 70 71 72
f 70 72 61
f 74 73 62
f 74 62 63
f 63 65 75
f 63 59 65
f 76 64 66
f 65 64 76
f 72 68 69
f 72 77 68
f 78 67 68
f 77 78 68
f 76 66 67
f 76 67 78
f 73 70 62
f 73 79 70
f 79 71 70
f 79 80 71
f 71 77 72
f 71 81 77
f 82 73 74
f 82 40 73
f 74 75 83
f 74 63 75
f 75 65 76
f 75 76 84
f 85 78 77
f 81 85 77
f 85 76 78
f 84 76 85
f 40 79 73
f 40 44 79
f 44 80 79
f 44 49 80
f 80 81 71
f 80 86 81
f 87 44 40
f 87 40 82
f 88 89 48
f 88 44 87
f 49 88 48
f 49 44 88
f 82 83 87
f 82 74 83
f 83 75 84
f 83 84 90
f 91 85 81
f 86 91 81
f 91 84 85
f 90 84 91
f 49 86 80
f 49 48 86
f 89 91 86
f 48 89 86
f 89 90 91
f 88 90 89
f 87 90 88
f 87 83 90
f 95 93 92
f 94 93 95
f 94 96 93
f 97 96 94
f 99 98 96
f 99 96 97
f 100 97 101
f 100 99 97
f 95 92 98
f 95 98 99
f 103 94 95
f 102 94 103
f 101 97 94
f 101 94 102
f 103 95 99
f 103 99 100
f 105 102 103
f 104 102 105
f 106 101 102
f 106 102 104
f 107 100 101
f 107 101 106
f 105 103 100
f 105 100 107
f 108 104 105
f 108 105 109
f 110 106 104
f 110 104 108
f 111 107 106
f 111 106 110
f 109 105 107
f 109 107 111
f 96 98 92
f 96 92 93
f 110 109 111
f 110 108 109
f 115 112 113
f 114 115 113
f 114 113 116
f 117 114 116
f 119 116 118
f 119 117 116
f 120 121 117
f 120 117 119
f 115 118 112
f 115 119 118
f 123 115 114
f 122 123 114
f 121 114 117
f 121 122 114
f 123 119 115
f 123 120 119
f 125 123 122
f 124 125 122
f 126 122 121
f 126 124 122
f 127 121 120
f 127 126 121
f 125 120 123
f 125 127 120
f 128 125 124
f 128 129 125
f 130 124 126
f 130 128 124
f 131 126 127
f 131 130 126
f 129 127 125
f 129 131 127
f 116 112 118
f 116 113 112
f 130 131 129
f 130 129 128
f 134 133 132
f 135 134 132
f 132 137 136
f 132 133 137
f 139 134 135
f 139 138 134
f 135 132 136
f 145 135 136
f 141 140 144
f 143 141 144
f 142 141 143
f 135 145 139
f 144 139 145
f 144 140 139
f 146 145 136
f 134 137 133
f 152 137 134
f 148 151 147
f 150 151 148
f 149 150 148
f 134 138 152
f 151 152 138
f 151 138 147
f 153 137 152
f 137 153 146
f 136 137 146
f 140 138 139
f 140 147 138
f 153 157 156
f 152 157 153
f 146 156 154
f 146 153 156
f 155 145 146
f 155 146 154
f 158 145 155
f 158 144 145
f 150 160 151
f 161 160 150
f 143 144 158
f 159 150 143
f 159 161 150
f 159 143 158
f 143 149 142
f 143 150 149
f 149 148 141
f 142 149 141
f 148 147 140
f 141 148 140
f 160 157 152
f 151 160 152
f 159 158 162
f 155 154 158
f 162 158 154
f 161 163 160
f 157 160 156
f 163 156 160
f 156 163 162
f 154 156 162
f 163 161 165
f 167 163 165
f 164 161 159
f 164 165 161
f 162 166 164
f 162 164 159
f 163 166 162
f 163 167 166
f 168 165 164
f 168 169 165
f 167 165 169
f 166 169 168
f 166 167 169
f 166 168 164
f 171 172 170
f 173 172 171
f 171 170 174
f 171 174 175
f 176 171 175
f 176 173 171
f 177 179 178
f 180 177 176
f 180 176 175
f 180 179 177
f 173 176 181
f 173 181 172
f 181 174 170
f 172 181 170
f 182 181 185
f 182 174 181
f 183 185 184
f 183 182 185
f 175 174 182
f 175 182 180
f 186 182 183
f 186 180 182
f 186 179 180
f 186 183 179
f 179 184 178
f 179 183 184
f 178 184 185
f 177 178 185
f 177 185 181
f 176 177 181
f 190 188 187
f 190 187 189
f 188 191 187
f 188 192 191
f 194 193 188
f 194 188 190
f 196 189 195
f 190 189 196
f 195 189 187
f 191 195 187
f 197 199 198
f 200 197 195
f 200 195 191
f 200 199 197
f 193 192 188
f 193 201 192
f 192 200 191
f 192 203 200
f 201 202 203
f 201 203 192
f 205 204 193
f 205 193 194
f 194 196 206
f 194 190 196
f 207 195 197
f 196 195 207
f 203 199 200
f 203 208 199
f 209 198 199
f 208 209 199
f 207 197 198
f 207 198 209
f 204 201 193
f 204 210 201
f 210 202 201
f 210 211 202
f 202 208 203
f 202 212 208
f 213 204 205
f 213 171 204
f 205 206 214
f 205 194 206
f 206 196 207
f 206 207 215
f 216 209 208
f 212 216 208
f 216 207 209
f 215 207 216
f 171 210 204
f 171 175 210
f 175 211 210
f 175 180 211
f 211 212 202
f 211 217 212
f 218 175 171
f 218 171 213
f 219 220 179
f 219 175 218
f 180 219 179
f 180 175 219
f 213 214 218
f 213 205 214
f 214 206 215
f 214 215 221
f 222 216 212
f 217 222 212
f 222 215 216
f 221 215 222
f 180 217 211
f 180 179 217
f 220 222 217
f 179 220 217
f 220 221 222
f 219 221 220
f 218 221 219
f 218 214 221
f 226 224 223
f 225 224 226
f 225 227 224
f 228 227 225
f 230 229 227
f 230 227 228
f 231 228 232
f 231 230 228
f 226 223 229
f 226 229 230
f 234 225 226
f 233 225 234
f 232 228 225
f 232 225 233
f 234 226 230
f 234 230 231
f 236 233 234
f 235 233 236
f 237 232 233
f 237 233 235
f 238 231 232
f 238 232 237
f 236 234 231
f 236 231 238
f 239 235 236
f 239 236 240
f 241 237 235
f 241 235 239
f 242 238 237
f 242 237 241
f 240 236 238
f 240 238 242
f 227 229 223
f 227 223 224
f 241 240 242
f 241 239 240
f 246 243 244
f 245 246 244
f 245 244 247
f 248 245 247
f 250 247 249
f 250 248 247
f 251 252 248
f 251 248 250
f 246 249 243
f 246 250 249
f 254 246 245
f 253 254 245
f 252 245 248
f 252 253 245
f 254 250 246
f 254 251 250
f 256 254 253
f 255 256 253
f 257 253 252
f 257 255 253
f 258 252 251
f 258 257 252
f 256 251 254
f 256 258 251
f 259 256 255
f 259 260 256
f 261 255 257
f 261 259 255
f 262 257 258
f 262 261 257
f 260 258 256
f 260 262 258
f 247 243 249
f 247 244 243
f 261 262 260
f 261 260 259
f 265 264 263
f 266 265 263
f 263 268 267
f 263 264 268
f 270 265 266
f 270 269 265
f 266 263 267
f 276 266 267
f 272 271 275
f 274 272 275
f 273 272 274
f 266 276 270
f 275 270 276
f 275 271 270
f 277 276 267
f 265 268 264
f 283 268 265
f 279 282 278
f 281 282 279
f 280 281 279
f 265 269 283
f 282 283 269
f 282 269 278
f 284 268 283
f 268 284 277
f 267 268 277
f 271 269 270
f 271 278 269
f 284 288 287
f 283 288 284
f 277 287 285
f 277 284 287
f 286 276 277
f 286 277 285
f 289 276 286
f 289 275 276
f 281 291 282
f 292 291 281
f 274 275 289
f 290 281 274
f 290 292 281
f 290 274 289
f 274 280 273
f 274 281 280
f 280 279 272
f 273 280 272
f 279 278 271
f 272 279 271
f 291 288 283
f 282 291 283
f 290 289 293
f 286 285 289
f 293 289 285
f 292 294 291
f 288 291 287
f 294 287 291
f 287 294 293
f 285 287 293
f 294 292 296
f 298 294 296
f 295 292 290
f 295 296 292
f 293 297 295
f 293 295 290
f 294 297 293
f 294 298 297
f 299 296 295
f 299 300 296
f 298 296 300
f 297 300 299
f 297 298 300
f 297 299 295
f 302 303 301
f 304 303 302
f 302 301 305
f 302 305 306
f 307 302 306
f 307 304 302
f 308 310 309
f 311 308 307
f 311 307 306
f 311 310 308
f 304 307 312
f 304 312 303
f 312 305 301
f 303 312 301
f 313 312 316
f 313 305 312
f 314 316 315
f 314 313 316
f 306 305 313
f 306 313 311
f 317 313 314
f 317 311 313
f 317 310 311
f 317 314 310
f 310 315 309
f 310 314 315
f 309 315 316
f 308 309 316
f 308 316 312
f 307 308 312
f 321 319 318
f 321 318 320
f 319 322 318
f 319 323 322
f 325 324 319
f 325 319 321
f 327 320 326
f 321 320 327
f 326 320 318
f 322 326 318
f 328 330 329
f 331 328 326
f 331 326 322
f 331 330 328
f 324 323 319
f 324 332 323
f 323 331 322
f 323 334 331
f 332 333 334
f 332 334 323
f 336 335 324
f 336 324 325
f 325 327 337
f 325 321 327
f 338 326 328
f 327 326 338
f 334 330 331
f 334 339 330
f 340 329 330
f 339 340 330
f 338 328 329
f 338 329 340
f 335 332 324
f 335 341 332
f 341 333 332
f 341 342 333
f 333 339 334
f 333 343 339
f 344 335 336
f 344 302 335
f 336 337 345
f 336 325 337
f 337 327 338
f 337 338 346
f 347 340 339
f 343 347 339
f 347 338 340
f 346 338 347
f 302 341 335
f 302 306 341
f 306 342 341
f 306 311 342
f 342 343 333
f 342 348 343
f 349 306 302
f 349 302 344
f 350 351 310
f 311 349 350
f 311 306 349
f 311 350 310
f 344 345 349
f 344 336 345
f 345 337 346
f 345 346 352
f 353 347 343
f 348 353 343
f 353 346 347
f 352 346 353
f 311 348 342
f 311 310 348
f 351 353 348
f 310 351 348
f 351 352 353
f 350 352 351
f 349 352 350
f 349 345 352
f 357 355 354
f 356 355 357
f 356 358 355
f 359 358 356
f 361 360 358
f 361 358 359
f 362 359 363
f 362 361 359
f 357 354 360
f 357 360 361
f 365 356 357
f 364 356 365
f 363 359 356
f 363 356 364
f 365 357 361
f 365 361 362
f 367 364 365
f 366 364 367
f 368 363 364
f 368 364 366
f 369 362 363
f 369 363 368
f 367 365 362
f 367 362 369
f 370 366 367
f 370 367 371
f 372 368 366
f 372 366 370
f 373 369 368
f 373 368 372
f 371 367 369
f 371 369 373
f 358 360 354
f 358 354 355
f 372 371 373
f 372 370 371
f 377 374 375
f 376 377 375
f 376 375 378
f 379 376 378
f 381 378 380
f 381 379 378
f 382 383 379
f 382 379 381
f 377 380 374
f 377 381 380
f 385 377 376
f 384 385 376
f 383 376 379
f 383 384 376
f 385 381 377
f 385 382 381
f 387 385 384
f 386 387 384
f 388 384 383
f 388 386 384
f 389 383 382
f 389 388 383
f 387 382 385
f 387 389 382
f 390 387 386
f 390 391 387
f 392 386 388
f 392 390 386
f 393 388 389
f 393 392 388
f 391 389 387
f 391 393 389
f 378 374 380
f 378 375 374
f 392 393 391
f 392 391 390

