# https://github.com/mikedh/trimesh
v -0.00000000 -0.02200000 -1.58350000
v 0.00131569 -0.02196062 -1.58350000
v 0.00262667 -0.02184263 -1.58350000
v 0.00392825 -0.02164645 -1.58350000
v 0.00521577 -0.02137278 -1.58350000
v 0.00648461 -0.02102260 -1.58350000
v 0.00773025 -0.02059717 -1.58350000
v 0.00894821 -0.02009800 -1.58350000
v 0.01013413 -0.01952689 -1.58350000
v 0.01128378 -0.01888587 -1.58350000
v 0.01239304 -0.01817725 -1.58350000
v 0.01345793 -0.01740356 -1.58350000
v 0.01447465 -0.01656757 -1.58350000
v 0.01543955 -0.01567227 -1.58350000
v 0.01634919 -0.01472087 -1.58350000
v 0.01720029 -0.01371678 -1.58350000
v 0.01798983 -0.01266358 -1.58350000
v 0.01871496 -0.01156504 -1.58350000
v 0.01937310 -0.01042511 -1.58350000
v 0.01996189 -0.00924786 -1.58350000
v 0.02047922 -0.00803750 -1.58350000
v 0.02092324 -0.00679837 -1.58350000
v 0.02129236 -0.00553491 -1.58350000
v 0.02158526 -0.00425163 -1.58350000
v 0.02180089 -0.00295313 -1.58350000
v 0.02193848 -0.00164406 -1.58350000
v 0.02199754 -0.00032911 -1.58350000
v 0.02197785 0.00098703 -1.58350000
v 0.02187948 0.00229963 -1.58350000
v 0.02170279 0.00360399 -1.58350000
v 0.02144841 0.00489546 -1.58350000
v 0.02111726 0.00616940 -1.58350000
v 0.02071050 0.00742126 -1.58350000
v 0.02022961 0.00864655 -1.58350000
v 0.01967630 0.00984089 -1.58350000
v 0.01905256 0.01100000 -1.58350000
v 0.01836061 0.01211973 -1.58350000
v 0.01760294 0.01319608 -1.58350000
v 0.01678225 0.01422519 -1.58350000
v 0.01590149 0.01520338 -1.58350000
v 0.01496380 0.01612714 -1.58350000
v 0.01397255 0.01699317 -1.58350000
v 0.01293128 0.01779837 -1.58350000
v 0.01184371 0.01853986 -1.58350000
v 0.01071375 0.01921498 -1.58350000
v 0.00954544 0.01982132 -1.58350000
v 0.00834296 0.02035669 -1.58350000
v 0.00711061 0.02081920 -1.58350000
v 0.00585281 0.02120718 -1.58350000
v 0.00457406 0.02151925 -1.58350000
v 0.00327893 0.02175428 -1.58350000
v 0.00197206 0.02191143 -1.58350000
v 0.00065814 0.02199015 -1.58350000
v -0.00065814 0.02199015 -1.58350000
v -0.00197206 0.02191143 -1.58350000
v -0.00327893 0.02175428 -1.58350000
v -0.00457406 0.02151925 -1.58350000
v -0.00585281 0.02120718 -1.58350000
v -0.00711061 0.02081920 -1.58350000
v -0.00834296 0.02035669 -1.58350000
v -0.00954544 0.01982132 -1.58350000
v -0.01071375 0.01921498 -1.58350000
v -0.01184371 0.01853986 -1.58350000
v -0.01293128 0.01779837 -1.58350000
v -0.01397255 0.01699317 -1.58350000
v -0.01496380 0.01612714 -1.58350000
v -0.01590149 0.01520338 -1.58350000
v -0.01678225 0.01422519 -1.58350000
v -0.01760294 0.01319608 -1.58350000
v -0.01836061 0.01211973 -1.58350000
v -0.01905256 0.01100000 -1.58350000
v -0.01967630 0.00984089 -1.58350000
v -0.02022961 0.00864655 -1.58350000
v -0.02071050 0.00742126 -1.58350000
v -0.02111726 0.00616940 -1.58350000
v -0.02144841 0.00489546 -1.58350000
v -0.02170279 0.00360399 -1.58350000
v -0.02187948 0.00229963 -1.58350000
v -0.02197785 0.00098703 -1.58350000
v -0.02199754 -0.00032911 -1.58350000
v -0.02193848 -0.00164406 -1.58350000
v -0.02180089 -0.00295313 -1.58350000
v -0.02158526 -0.00425163 -1.58350000
v -0.02129236 -0.00553491 -1.58350000
v -0.02092324 -0.00679837 -1.58350000
v -0.02047922 -0.00803750 -1.58350000
v -0.01996189 -0.00924786 -1.58350000
v -0.01937310 -0.01042511 -1.58350000
v -0.01871496 -0.01156504 -1.58350000
v -0.01798983 -0.01266358 -1.58350000
v -0.01720029 -0.01371678 -1.58350000
v -0.01634919 -0.01472087 -1.58350000
v -0.01543955 -0.01567227 -1.58350000
v -0.01447465 -0.01656757 -1.58350000
v -0.01345793 -0.01740356 -1.58350000
v -0.01239304 -0.01817725 -1.58350000
v -0.01128378 -0.01888587 -1.58350000
v -0.01013413 -0.01952689 -1.58350000
v -0.00894821 -0.02009800 -1.58350000
v -0.00773025 -0.02059717 -1.58350000
v -0.00648461 -0.02102260 -1.58350000
v -0.00521577 -0.02137278 -1.58350000
v -0.00392825 -0.02164645 -1.58350000
v -0.00262667 -0.02184263 -1.58350000
v -0.00131569 -0.02196062 -1.58350000
v -0.00000000 -0.02200000 -1.58650000
v 0.00131569 -0.02196062 -1.58650000
v 0.00262667 -0.02184263 -1.58650000
v 0.00392825 -0.02164645 -1.58650000
v 0.00521577 -0.02137278 -1.58650000
v 0.00648461 -0.02102260 -1.58650000
v 0.00773025 -0.02059717 -1.58650000
v 0.00894821 -0.02009800 -1.58650000
v 0.01013413 -0.01952689 -1.58650000
v 0.01128378 -0.01888587 -1.58650000
v 0.01239304 -0.01817725 -1.58650000
v 0.01345793 -0.01740356 -1.58650000
v 0.01447465 -0.01656757 -1.58650000
v 0.01543955 -0.01567227 -1.58650000
v 0.01634919 -0.01472087 -1.58650000
v 0.01720029 -0.01371678 -1.58650000
v 0.01798983 -0.01266358 -1.58650000
v 0.01871496 -0.01156504 -1.58650000
v 0.01937310 -0.01042511 -1.58650000
v 0.01996189 -0.00924786 -1.58650000
v 0.02047922 -0.00803750 -1.58650000
v 0.02092324 -0.00679837 -1.58650000
v 0.02129236 -0.00553491 -1.58650000
v 0.02158526 -0.00425163 -1.58650000
v 0.02180089 -0.00295313 -1.58650000
v 0.02193848 -0.00164406 -1.58650000
v 0.02199754 -0.00032911 -1.58650000
v 0.02197785 0.00098703 -1.58650000
v 0.02187948 0.00229963 -1.58650000
v 0.02170279 0.00360399 -1.58650000
v 0.02144841 0.00489546 -1.58650000
v 0.02111726 0.00616940 -1.58650000
v 0.02071050 0.00742126 -1.58650000
v 0.02022961 0.00864655 -1.58650000
v 0.01967630 0.00984089 -1.58650000
v 0.01905256 0.01100000 -1.58650000
v 0.01836061 0.01211973 -1.58650000
v 0.01760294 0.01319608 -1.58650000
v 0.01678225 0.01422519 -1.58650000
v 0.01590149 0.01520338 -1.58650000
v 0.01496380 0.01612714 -1.58650000
v 0.01397255 0.01699317 -1.58650000
v 0.01293128 0.01779837 -1.58650000
v 0.01184371 0.01853986 -1.58650000
v 0.01071375 0.01921498 -1.58650000
v 0.00954544 0.01982132 -1.58650000
v 0.00834296 0.02035669 -1.58650000
v 0.00711061 0.02081920 -1.58650000
v 0.00585281 0.02120718 -1.58650000
v 0.00457406 0.02151925 -1.58650000
v 0.00327893 0.02175428 -1.58650000
v 0.00197206 0.02191143 -1.58650000
v 0.00065814 0.02199015 -1.58650000
v -0.00065814 0.02199015 -1.58650000
v -0.00197206 0.02191143 -1.58650000
v -0.00327893 0.02175428 -1.58650000
v -0.00457406 0.02151925 -1.58650000
v -0.00585281 0.02120718 -1.58650000
v -0.00711061 0.02081920 -1.58650000
v -0.00834296 0.02035669 -1.58650000
v -0.00954544 0.01982132 -1.58650000
v -0.01071375 0.01921498 -1.58650000
v -0.01184371 0.01853986 -1.58650000
v -0.01293128 0.01779837 -1.58650000
v -0.01397255 0.01699317 -1.58650000
v -0.01496380 0.01612714 -1.58650000
v -0.01590149 0.01520338 -1.58650000
v -0.01678225 0.01422519 -1.58650000
v -0.01760294 0.01319608 -1.58650000
v -0.01836061 0.01211973 -1.58650000
v -0.01905256 0.01100000 -1.58650000
v -0.01967630 0.00984089 -1.58650000
v -0.02022961 0.00864655 -1.58650000
v -0.02071050 0.00742126 -1.58650000
v -0.02111726 0.00616940 -1.58650000
v -0.02144841 0.00489546 -1.58650000
v -0.02170279 0.00360399 -1.58650000
v -0.02187948 0.00229963 -1.58650000
v -0.02197785 0.00098703 -1.58650000
v -0.02199754 -0.00032911 -1.58650000
v -0.02193848 -0.00164406 -1.58650000
v -0.02180089 -0.00295313 -1.58650000
v -0.02158526 -0.00425163 -1.58650000
v -0.02129236 -0.00553491 -1.58650000
v -0.02092324 -0.00679837 -1.58650000
v -0.02047922 -0.00803750 -1.58650000
v -0.01996189 -0.00924786 -1.58650000
v -0.01937310 -0.01042511 -1.58650000
v -0.01871496 -0.01156504 -1.58650000
v -0.01798983 -0.01266358 -1.58650000
v -0.01720029 -0.01371678 -1.58650000
v -0.01634919 -0.01472087 -1.58650000
v -0.01543955 -0.01567227 -1.58650000
v -0.01447465 -0.01656757 -1.58650000
v -0.01345793 -0.01740356 -1.58650000
v -0.01239304 -0.01817725 -1.58650000
v -0.01128378 -0.01888587 -1.58650000
v -0.01013413 -0.01952689 -1.58650000
v -0.00894821 -0.02009800 -1.58650000
v -0.00773025 -0.02059717 -1.58650000
v -0.00648461 -0.02102260 -1.58650000
v -0.00521577 -0.02137278 -1.58650000
v -0.00392825 -0.02164645 -1.58650000
v -0.00262667 -0.02184263 -1.58650000
v -0.00131569 -0.02196062 -1.58650000
f 2 1 106
f 2 106 107
f 3 107 108
f 3 2 107
f 4 108 109
f 4 3 108
f 5 109 110
f 5 4 109
f 6 110 111
f 6 111 112
f 6 5 110
f 7 6 112
f 8 112 113
f 8 7 112
f 9 113 114
f 9 8 113
f 10 114 115
f 10 9 114
f 11 115 116
f 11 10 115
f 12 116 117
f 12 11 116
f 13 117 118
f 13 12 117
f 14 118 119
f 14 13 118
f 15 119 120
f 15 14 119
f 16 120 121
f 16 15 120
f 17 121 122
f 17 16 121
f 18 122 123
f 18 123 124
f 18 17 122
f 19 18 124
f 20 124 125
f 20 19 124
f 21 125 126
f 21 20 125
f 22 126 127
f 22 127 128
f 22 21 126
f 23 22 128
f 23 128 129
f 24 23 129
f 25 24 129
f 25 129 130
f 26 25 130
f 26 130 131
f 27 26 131
f 27 131 132
f 28 27 132
f 28 132 133
f 28 133 134
f 29 28 134
f 29 134 135
f 30 29 135
f 31 30 135
f 31 135 136
f 31 136 137
f 32 137 138
f 32 31 137
f 33 32 138
f 34 138 139
f 34 33 138
f 35 139 140
f 35 140 141
f 35 34 139
f 36 35 141
f 37 141 142
f 37 36 141
f 38 142 143
f 38 37 142
f 39 143 144
f 39 38 143
f 40 144 145
f 40 39 144
f 41 145 146
f 41 40 145
f 42 146 147
f 42 41 146
f 43 147 148
f 43 42 147
f 44 148 149
f 44 43 148
f 45 149 150
f 45 44 149
f 46 150 151
f 46 45 150
f 47 151 152
f 47 46 151
f 48 152 153
f 48 47 152
f 49 48 153
f 49 153 154
f 49 154 155
f 50 49 155
f 51 50 155
f 51 155 156
f 52 51 156
f 52 156 157
f 53 52 157
f 53 157 158
f 54 53 158
f 54 158 159
f 55 54 159
f 55 159 160
f 56 55 160
f 56 160 161
f 57 56 161
f 57 161 162
f 57 162 163
f 58 57 163
f 59 58 163
f 59 163 164
f 60 59 164
f 60 164 165
f 61 60 165
f 61 165 166
f 62 61 166
f 62 166 167
f 63 62 167
f 63 167 168
f 64 63 168
f 64 168 169
f 65 64 169
f 65 169 170
f 66 170 171
f 66 65 170
f 67 171 172
f 67 172 173
f 67 66 171
f 68 67 173
f 69 173 174
f 69 68 173
f 70 174 175
f 70 175 176
f 70 69 174
f 71 70 176
f 72 176 177
f 72 71 176
f 73 72 177
f 73 177 178
f 74 73 178
f 74 178 179
f 75 74 179
f 75 179 180
f 76 75 180
f 76 180 181
f 77 76 181
f 77 181 182
f 78 77 182
f 78 182 183
f 79 78 183
f 79 183 184
f 80 79 184
f 80 184 185
f 81 80 185
f 81 185 186
f 82 81 186
f 82 186 187
f 83 82 187
f 83 187 188
f 84 83 188
f 84 188 189
f 85 84 189
f 85 189 190
f 86 85 190
f 86 190 191
f 87 86 191
f 87 191 192
f 88 87 192
f 88 192 193
f 89 88 193
f 89 193 194
f 90 89 194
f 90 194 195
f 91 90 195
f 91 195 196
f 92 91 196
f 92 196 197
f 93 92 197
f 93 197 198
f 94 93 198
f 94 198 199
f 95 94 199
f 95 199 200
f 96 95 200
f 96 200 201
f 97 201 202
f 97 96 201
f 98 202 203
f 98 97 202
f 99 98 203
f 99 203 204
f 100 204 205
f 100 99 204
f 101 205 206
f 101 100 205
f 102 206 207
f 102 101 206
f 103 207 208
f 103 102 207
f 104 208 209
f 104 209 210
f 104 103 208
f 105 104 210
f 1 210 106
f 1 105 210
f 69 66 67
f 69 67 68
f 64 66 69
f 64 65 66
f 71 69 70
f 62 63 64
f 61 62 64
f 73 71 72
f 60 64 69
f 60 69 71
f 60 61 64
f 74 71 73
f 74 60 71
f 58 59 60
f 77 74 75
f 77 75 76
f 56 58 60
f 56 57 58
f 79 77 78
f 54 55 56
f 82 77 79
f 82 79 80
f 82 80 81
f 83 77 82
f 50 56 60
f 50 51 52
f 50 52 53
f 50 53 54
f 50 54 56
f 84 77 83
f 48 49 50
f 47 48 50
f 87 74 77
f 87 77 84
f 87 84 85
f 87 85 86
f 44 45 46
f 90 87 88
f 90 74 87
f 90 88 89
f 43 44 46
f 92 90 91
f 92 74 90
f 41 43 46
f 41 47 50
f 41 42 43
f 41 46 47
f 94 92 93
f 96 92 94
f 96 94 95
f 37 38 39
f 36 37 39
f 36 39 40
f 36 40 41
f 35 36 41
f 99 97 98
f 100 92 96
f 100 97 99
f 100 96 97
f 101 92 100
f 32 41 50
f 32 35 41
f 32 33 34
f 32 34 35
f 32 60 74
f 32 50 60
f 103 101 102
f 103 74 92
f 103 92 101
f 104 74 103
f 29 30 31
f 2 105 1
f 26 27 28
f 26 28 29
f 26 29 31
f 4 2 3
f 4 105 2
f 23 24 25
f 23 25 26
f 6 104 105
f 6 4 5
f 6 105 4
f 21 22 23
f 8 6 7
f 8 32 74
f 8 74 104
f 8 104 6
f 20 21 23
f 19 26 31
f 19 23 26
f 19 20 23
f 18 31 32
f 18 19 31
f 11 8 9
f 11 9 10
f 12 8 11
f 15 16 17
f 15 17 18
f 14 18 32
f 14 8 12
f 14 12 13
f 14 32 8
f 14 15 18
f 174 172 171
f 174 173 172
f 169 174 171
f 169 171 170
f 176 175 174
f 167 169 168
f 166 169 167
f 178 177 176
f 165 174 169
f 165 176 174
f 165 169 166
f 179 178 176
f 179 176 165
f 163 165 164
f 182 180 179
f 182 181 180
f 161 165 163
f 161 163 162
f 184 183 182
f 159 161 160
f 187 184 182
f 187 185 184
f 187 186 185
f 188 187 182
f 155 165 161
f 155 157 156
f 155 158 157
f 155 159 158
f 155 161 159
f 189 188 182
f 153 155 154
f 152 155 153
f 192 182 179
f 192 189 182
f 192 190 189
f 192 191 190
f 149 151 150
f 195 193 192
f 195 192 179
f 195 194 193
f 148 151 149
f 197 196 195
f 197 195 179
f 146 151 148
f 146 155 152
f 146 148 147
f 146 152 151
f 199 198 197
f 201 199 197
f 201 200 199
f 142 144 143
f 141 144 142
f 141 145 144
f 141 146 145
f 140 146 141
f 204 203 202
f 205 201 197
f 205 204 202
f 205 202 201
f 206 205 197
f 137 155 146
f 137 146 140
f 137 139 138
f 137 140 139
f 137 179 165
f 137 165 155
f 208 207 206
f 208 197 179
f 208 206 197
f 209 208 179
f 134 136 135
f 107 106 210
f 131 133 132
f 131 134 133
f 131 136 134
f 109 108 107
f 109 107 210
f 128 130 129
f 128 131 130
f 111 210 209
f 111 110 109
f 111 109 210
f 126 128 127
f 113 112 111
f 113 179 137
f 113 209 179
f 113 111 209
f 125 128 126
f 124 136 131
f 124 131 128
f 124 128 125
f 123 137 136
f 123 136 124
f 116 114 113
f 116 115 114
f 117 116 113
f 120 122 121
f 120 123 122
f 119 137 123
f 119 117 113
f 119 118 117
f 119 113 137
f 119 123 120

