# https://github.com/mikedh/trimesh
mtllib material.mtl

o GLTF
usemtl material
v 4.37720537 0.09809290 0.09988887
v 4.56241083 0.09809290 0.09988887
v 4.56241083 0.09839451 0.09959176
v 4.56241083 0.09959181 0.09839446
v 4.56241083 0.09988887 0.09809290
v 4.37720537 0.09988887 0.09809290
v 4.19199991 0.09988887 0.09809290
v 4.19199991 0.09974045 0.09824380
v 4.19199991 0.09914451 0.09884517
v 4.19199991 0.09809693 0.09989297
v 4.56241083 0.09899496 0.09899493
v 4.56241083 0.09929384 0.09869514
v 4.19199991 0.09944294 0.09854493
v 2.81999993 -0.09899495 0.09899495
v 2.81999993 -0.10618105 0.09124465
v 4.69999981 -0.10618104 0.09124465
v 4.69999981 -0.09899495 0.09899495
v 4.56241083 -0.09899495 0.09899495
v 4.19199991 -0.09989297 0.09809692
v 2.81999993 -0.12934314 0.05357568
v 2.81999993 -0.13390984 0.04084304
v 4.69999981 -0.13390984 0.04084307
v 4.69999981 -0.11640575 0.07777983
v 2.81999993 -0.11640575 0.07777983
v 4.69999981 -0.12934314 0.05357568
v 3.75999999 -0.12266210 0.06748340
v 2.81999993 -0.14000000 -0.00000000
v 2.81999993 -0.13902970 -0.01645438
v 4.69999981 -0.13902970 -0.01645436
v 2.81999993 -0.13730994 0.02731265
v 4.69999981 -0.14000000 -0.00000000
v 4.69999981 -0.13730994 0.02731265
v 2.81999993 -0.12934314 -0.05357568
v 2.81999993 -0.12067615 -0.07097369
v 4.69999981 -0.12067617 -0.07097368
v 4.69999981 -0.13730994 -0.02731265
v 2.81999993 -0.13730994 -0.02731265
v 3.75999999 -0.13268334 -0.04466689
v 4.69999981 -0.12934314 -0.05357568
v 4.19199991 -0.09988888 -0.09809286
v 4.37720537 -0.09988888 -0.09809286
v 2.81999993 -0.11640575 -0.07777983
v 2.81999993 -0.09899495 -0.09899495
v 2.81999993 -0.08194801 -0.11351003
v 4.69999981 -0.08194803 -0.11351001
v 4.69999981 -0.11640575 -0.07777983
v 4.56241083 -0.09988888 -0.09809286
v 4.69999981 -0.09899495 -0.09899495
v 4.56241083 -0.09854493 -0.09944294
v 4.56241083 -0.09858251 -0.09940568
v 4.56241083 -0.09862008 -0.09936839
v 4.56241083 -0.09865765 -0.09933111
v 4.56241083 -0.09869519 -0.09929380
v 4.56241083 -0.09846975 -0.09951739
v 4.56241083 -0.09843212 -0.09955461
v 4.56241083 -0.09839448 -0.09959180
v 4.56241083 -0.09831915 -0.09966617
v 4.56241083 -0.09835683 -0.09962900
v 4.56241083 -0.09824379 -0.09974045
v 4.56241083 -0.09816836 -0.09981470
v 4.56241083 -0.09820607 -0.09977759
v 4.56241083 -0.09809286 -0.09988888
v 4.56241083 -0.09826262 -0.09972189
v 4.56241083 -0.09837564 -0.09961041
v 4.56241083 -0.09840387 -0.09958251
v 4.56241083 -0.09848853 -0.09949880
v 4.56241083 -0.09867641 -0.09931248
v 4.56241083 -0.09860129 -0.09938706
v 4.56241083 -0.09862946 -0.09935910
v 4.56241083 -0.09868577 -0.09930316
v 4.56241083 -0.09869985 -0.09928917
v 4.56241083 -0.09871392 -0.09927519
v 4.56241083 -0.09874206 -0.09924719
v 4.56241083 -0.09873269 -0.09925651
v 4.56241083 -0.09877019 -0.09921920
v 4.56241083 -0.09884519 -0.09914450
v 4.56241083 -0.09880770 -0.09918185
v 4.56241083 -0.09882643 -0.09916318
v 4.56241083 -0.09885453 -0.09913517
v 4.56241083 -0.09888263 -0.09910714
v 4.56241083 -0.09893882 -0.09905107
v 4.56241083 -0.09892009 -0.09906974
v 4.56241083 -0.09899495 -0.09899495
v 4.56241083 -0.09873271 -0.09925649
v 4.56241083 -0.09921920 -0.09877019
v 4.56241083 -0.09925653 -0.09873267
v 4.56241083 -0.09929385 -0.09869514
v 4.56241083 -0.09914452 -0.09884516
v 4.56241083 -0.09906976 -0.09892008
v 4.56241083 -0.09910713 -0.09888264
v 4.56241083 -0.09916318 -0.09882643
v 4.56241083 -0.09927518 -0.09871392
v 4.56241083 -0.09930316 -0.09868577
v 4.56241083 -0.09933113 -0.09865762
v 4.56241083 -0.09938706 -0.09860130
v 4.56241083 -0.09936842 -0.09862006
v 4.56241083 -0.09944294 -0.09854493
v 4.56241083 -0.09959182 -0.09839445
v 4.56241083 -0.09951741 -0.09846973
v 4.56241083 -0.09955462 -0.09843211
v 4.56241083 -0.09961041 -0.09837565
v 4.56241083 -0.09966617 -0.09831915
v 4.56241083 -0.09977759 -0.09820608
v 4.56241083 -0.09974046 -0.09824377
v 4.19199991 -0.09933113 -0.09865762
v 4.19199991 -0.09935910 -0.09862946
v 4.19199991 -0.09936842 -0.09862006
v 4.19199991 -0.09938706 -0.09860129
v 4.19199991 -0.09941501 -0.09857310
v 4.19199991 -0.09940569 -0.09858250
v 4.19199991 -0.09944295 -0.09854491
v 4.19199991 -0.09929384 -0.09869515
v 4.19199991 -0.09942431 -0.09856372
v 4.19199991 -0.09937773 -0.09861068
v 4.19199991 -0.09944759 -0.09854023
v 4.19199991 -0.09947086 -0.09851673
v 4.19199991 -0.09951741 -0.09846973
v 4.19199991 -0.09948018 -0.09850732
v 4.19199991 -0.09923786 -0.09875143
v 4.19199991 -0.09926586 -0.09872331
v 4.19199991 -0.09925653 -0.09873268
v 4.19199991 -0.09921920 -0.09877019
v 4.19199991 -0.09928451 -0.09870455
v 4.19199991 -0.09930782 -0.09868108
v 4.19199991 -0.09918186 -0.09880769
v 4.19199991 -0.09919120 -0.09879832
v 4.19199991 -0.09914451 -0.09884518
v 4.19199991 -0.09921453 -0.09877487
v 4.19199991 -0.09966618 -0.09831915
v 4.19199991 -0.09962901 -0.09835681
v 4.19199991 -0.09961041 -0.09837565
v 4.19199991 -0.09959181 -0.09839446
v 4.19199991 -0.09965688 -0.09832858
v 4.19199991 -0.09970332 -0.09828147
v 4.19199991 -0.09955462 -0.09843211
v 4.19199991 -0.09956392 -0.09842270
v 4.19199991 -0.09979615 -0.09818722
v 4.19199991 -0.09977759 -0.09820607
v 4.19199991 -0.09972190 -0.09826262
v 4.19199991 -0.09952672 -0.09846031
v 4.19199991 -0.09949881 -0.09848852
v 4.19199991 -0.09916319 -0.09882643
v 4.19199991 -0.09930317 -0.09868576
v 4.19199991 -0.09927519 -0.09871390
v 4.19199991 -0.09914919 -0.09884047
v 4.19199991 -0.09913518 -0.09885451
v 4.19199991 -0.09910715 -0.09888262
v 4.19199991 -0.09912583 -0.09886389
v 4.19199991 -0.09906977 -0.09892007
v 4.19199991 -0.09809692 -0.09989297
v 4.19199991 -0.09907911 -0.09891073
v 4.19199991 -0.09911182 -0.09887795
v 4.37720537 -0.09809286 -0.09988888
v 2.81999993 -0.05357568 -0.12934314
v 2.81999993 -0.02938399 -0.13688162
v 4.69999981 -0.02938402 -0.13688162
v 2.81999993 -0.07777983 -0.11640575
v 3.75999999 -0.05455123 -0.12893473
v 4.69999981 -0.05357568 -0.12934314
v 4.69999981 -0.07777983 -0.11640575
v 2.81999993 -0.02731265 -0.13730994
v 2.81999993 0.00000000 -0.14000000
v 2.81999993 0.02731265 -0.13730994
v 4.69999981 0.02814110 -0.13714255
v 4.69999981 0.00000000 -0.14000000
v 4.69999981 -0.02731265 -0.13730994
v 3.75999999 0.00042261 -0.13999936
v 3.75999999 0.00000001 -0.14000000
v 2.81999993 0.07777983 -0.11640575
v 2.81999993 0.08091498 -0.11424869
v 4.69999981 0.08091496 -0.11424871
v 4.69999981 0.05357568 -0.12934314
v 2.81999993 0.05357568 -0.12934314
v 3.75999999 0.05396589 -0.12918082
v 4.69999981 0.07777983 -0.11640575
v 3.75999999 0.05571661 -0.12843542
v 4.19199991 0.09809290 -0.09988887
v 4.37720537 0.09809290 -0.09988887
v 2.81999993 0.09899495 -0.09899495
v 2.81999993 0.11640575 -0.07777983
v 2.81999993 0.12002739 -0.07206544
v 4.69999981 0.12002737 -0.07206545
v 4.69999981 0.09899495 -0.09899495
v 4.56241083 0.09809290 -0.09988887
v 4.69999981 0.11640575 -0.07777983
v 4.19199991 0.09989297 -0.09809693
v 4.56241083 0.09831012 -0.09967508
v 4.37720537 0.09988885 -0.09809291
v 4.56241083 0.09845467 -0.09953231
v 4.56241083 0.09988885 -0.09809291
v 4.56241083 0.09859903 -0.09938930
v 4.56241083 0.09888713 -0.09910265
v 2.81999993 0.13730994 -0.02731265
v 2.81999993 0.13887471 -0.01771485
v 4.69999981 0.13887469 -0.01771487
v 4.69999981 0.12934314 -0.05357568
v 2.81999993 0.12934314 -0.05357568
v 3.75999999 0.13227271 -0.04586862
v 4.69999981 0.13730994 -0.02731265
v 2.81999993 0.13730994 0.02731265
v 2.81999993 0.13427483 0.03962666
v 4.69999981 0.13427483 0.03962664
v 4.69999981 0.14000000 -0.00000000
v 2.81999993 0.14000000 -0.00000000
v 4.69999981 0.13730994 0.02731265
v 3.75999999 0.13955171 0.01119471
v 2.81999993 0.11640575 0.07777983
v 2.81999993 0.10700436 0.09027772
v 4.69999981 0.10700438 0.09027770
v 4.69999981 0.12934314 0.05357568
v 2.81999993 0.12934314 0.05357568
v 4.69999981 0.11640575 0.07777983
v 3.75999999 0.12326919 0.06636796
v 2.81999993 0.07777983 0.11640575
v 2.81999993 0.06166760 0.12568654
v 4.69999981 0.06166761 0.12568653
v 4.69999981 0.09899495 0.09899495
v 2.81999993 0.09899495 0.09899495
v 3.75999999 0.08617427 0.11033583
v 4.69999981 0.07777983 0.11640575
v 2.81999993 0.02731265 0.13730994
v 2.81999993 0.00591904 0.13987482
v 4.69999981 0.00591906 0.13987482
v 4.69999981 0.05357568 0.12934314
v 3.75999999 0.03020986 0.13670173
v 2.81999993 0.05357568 0.12934314
v 3.75999999 0.03452993 0.13567492
v 4.69999981 0.03020985 0.13670173
v 4.69999981 0.02731265 0.13730994
v 2.81999993 -0.02731265 0.13730994
v 2.81999993 -0.05082887 0.13044702
v 4.69999981 -0.05082884 0.13044703
v 4.69999981 0.00000000 0.14000000
v 3.75999999 -0.02585937 0.13759103
v 2.81999993 0.00000000 0.14000000
v 4.69999981 -0.02731265 0.13730994
v 3.75999999 -0.02294435 0.13810705
v 4.69999981 -0.05357568 0.12934314
v 2.81999993 -0.07777983 0.11640575
v 4.69999981 -0.07777983 0.11640575
v 3.50600004 -0.07777982 0.11640575
v 2.81999993 -0.05357568 0.12934314
v 4.37720537 -0.09809288 0.09988888
v 4.19199991 -0.09884518 0.09914450
v 3.50600004 -0.07769182 0.11646452
v 4.19199991 -0.09809288 0.09988888
v 3.50600004 -0.07725105 0.11675734
v 4.56241083 0.10124002 -0.09674989
v 4.56241083 0.10258705 -0.09540284
v 4.19199991 0.10258705 -0.09540284
v 4.19199991 0.09989297 -0.09809693
v 4.37720537 0.09989297 -0.09809692
v 4.56241083 0.09989297 -0.09809693
v 4.35921097 0.17442910 -0.16724490
v 4.19199991 0.10258705 -0.09540284
v 4.56241083 0.10258705 -0.09540284
v 4.56241083 0.17442910 -0.16724490
v 4.35921097 0.16904095 -0.17263305
v 4.35921097 0.17442910 -0.16724490
v 4.56241083 0.17442910 -0.16724490
v 4.56241083 0.16904095 -0.17263305
v 4.56241083 0.09809692 -0.09989297
v 4.35921097 0.16904095 -0.17263305
v 4.56241083 0.16904095 -0.17263305
v 4.19199991 0.09719890 -0.10079100
v 4.56241083 0.10124002 -0.09674989
v 4.56241083 0.09989195 -0.09809592
v 4.56241083 0.09899393 -0.09899393
v 4.56241083 0.09764791 -0.10034199
v 4.56241083 0.09719890 -0.10079100
v 4.56241083 0.13311993 -0.13671201
v 4.56241083 0.16904095 -0.17263305
v 4.56241083 0.17442910 -0.16724490
v 4.56241083 0.10258705 -0.09540284
v 4.56241083 0.09809693 -0.09989297
v 4.37720537 0.09809692 -0.09989297
v 4.19199991 0.09809693 -0.09989297
v 4.19199991 0.09764792 -0.10034198
v 4.19199991 0.09719890 -0.10079100
v 4.56241083 0.09809692 -0.09989297
v 4.19199991 0.09989297 -0.09809693
v 4.19199991 0.10258705 -0.09540284
v 4.35921097 0.17442910 -0.16724490
v 4.35921097 0.16904095 -0.17263305
v 4.19199991 0.09719890 -0.10079100
v 4.19199991 0.09809693 -0.09989297
v 4.19199991 0.09899495 -0.09899495
v 4.37720537 -0.09989297 -0.09809692
v 4.19199991 -0.09989297 -0.09809693
v 4.19199991 -0.10034198 -0.09764792
v 4.19199991 -0.10079100 -0.09719890
v 4.56241083 -0.09989195 -0.09809592
v 4.56241083 -0.09989195 -0.09809592
v 4.35921097 -0.17263305 -0.16904095
v 4.56241083 -0.17263305 -0.16904095
v 4.19199991 -0.10079100 -0.09719890
v 4.35921097 -0.17263305 -0.16904095
v 4.35921097 -0.16724490 -0.17442910
v 4.56241083 -0.16724490 -0.17442910
v 4.56241083 -0.17263305 -0.16904095
v 4.35921097 -0.16724490 -0.17442910
v 4.19199991 -0.09540284 -0.10258705
v 4.56241083 -0.09540284 -0.10258705
v 4.56241083 -0.16724490 -0.17442910
v 4.19199991 -0.09809692 -0.09989297
v 4.19199991 -0.09540284 -0.10258705
v 4.35921097 -0.16724490 -0.17442910
v 4.35921097 -0.17263305 -0.16904095
v 4.19199991 -0.10079100 -0.09719890
v 4.19199991 -0.09854595 -0.09944396
v 4.19199991 -0.09989297 -0.09809693
v 4.19199991 -0.09899495 -0.09899495
v 4.56241083 -0.09674989 -0.10124002
v 4.56241083 -0.09540284 -0.10258705
v 4.19199991 -0.09540284 -0.10258705
v 4.19199991 -0.09809692 -0.09989297
v 4.37720537 -0.09809692 -0.09989297
v 4.56241083 -0.09809693 -0.09989297
v 4.56241083 -0.09674989 -0.10124002
v 4.56241083 -0.09809592 -0.09989195
v 4.56241083 -0.09899393 -0.09899393
v 4.56241083 -0.10034199 -0.09764791
v 4.56241083 -0.10079100 -0.09719890
v 4.56241083 -0.13671201 -0.13311993
v 4.56241083 -0.17263305 -0.16904095
v 4.56241083 -0.16724490 -0.17442910
v 4.56241083 -0.09540284 -0.10258705
v 4.56241083 -0.09989297 -0.09809693
v 4.56241083 0.09674989 0.10124002
v 4.56241083 0.09540284 0.10258705
v 4.19199991 0.09540284 0.10258705
v 4.19199991 0.09809693 0.09989297
v 4.37720537 0.09809692 0.09989297
v 4.56241083 0.09809693 0.09989297
v 4.35921097 0.16724490 0.17442910
v 4.19199991 0.09540284 0.10258705
v 4.56241083 0.09540284 0.10258705
v 4.56241083 0.16724490 0.17442910
v 4.35921097 0.17263305 0.16904095
v 4.35921097 0.16724490 0.17442910
v 4.56241083 0.16724490 0.17442910
v 4.56241083 0.17263305 0.16904095
v 4.56241083 0.09989297 0.09809692
v 4.35921097 0.17263305 0.16904095
v 4.56241083 0.17263305 0.16904095
v 4.19199991 0.10079100 0.09719890
v 4.56241083 0.09674989 0.10124002
v 4.56241083 0.09809592 0.09989195
v 4.56241083 0.09899393 0.09899393
v 4.56241083 0.10034199 0.09764791
v 4.56241083 0.10079100 0.09719890
v 4.56241083 0.13671201 0.13311993
v 4.56241083 0.17263305 0.16904095
v 4.56241083 0.16724490 0.17442910
v 4.56241083 0.09540284 0.10258705
v 4.56241083 0.09989297 0.09809693
v 4.37720537 0.09989297 0.09809692
v 4.19199991 0.09989297 0.09809693
v 4.19199991 0.10034198 0.09764792
v 4.19199991 0.10079100 0.09719890
v 4.56241083 0.09989297 0.09809692
v 4.19199991 0.09809693 0.09989297
v 4.19199991 0.09540284 0.10258705
v 4.35921097 0.16724490 0.17442910
v 4.35921097 0.17263305 0.16904095
v 4.19199991 0.10079100 0.09719890
v 4.19199991 0.09854595 0.09944396
v 4.19199991 0.09989297 0.09809693
v 4.19199991 0.09899495 0.09899495
v 4.56241083 -0.09764791 0.10034199
v 4.56241083 -0.09809692 0.09989297
v 4.37720537 -0.09809692 0.09989297
v 4.19199991 -0.09809693 0.09989297
v 4.19199991 -0.09764792 0.10034198
v 4.19199991 -0.09719890 0.10079100
v 4.37720537 -0.09719890 0.10079100
v 4.56241083 -0.09719890 0.10079100
v 4.56241083 -0.13311993 0.13671201
v 4.35921097 -0.16904095 0.17263305
v 4.56241083 -0.16904095 0.17263305
v 4.37720537 -0.09719890 0.10079100
v 4.19199991 -0.09719890 0.10079100
v 4.56241083 -0.09719890 0.10079100
v 4.35921097 -0.16904095 0.17263305
v 4.35921097 -0.17442910 0.16724490
v 4.56241083 -0.17442910 0.16724490
v 4.56241083 -0.16904095 0.17263305
v 4.35921097 -0.17442910 0.16724490
v 4.19199991 -0.10258705 0.09540284
v 4.56241083 -0.10258705 0.09540284
v 4.56241083 -0.17442910 0.16724490
v 2.81999993 -0.05357568 0.12934314
v 2.81999993 -0.12934314 0.05357568
v 2.81999993 -0.07777983 0.11640575
v 2.81999993 -0.09899495 0.09899495
v 2.81999993 -0.10618105 0.09124465
v 2.81999993 -0.11640575 0.07777983
v 2.81999993 -0.12934314 -0.05357568
v 2.81999993 -0.13390984 0.04084304
v 2.81999993 -0.13730994 0.02731265
v 2.81999993 -0.14000000 -0.00000000
v 2.81999993 -0.13902970 -0.01645438
v 2.81999993 -0.13730994 -0.02731265
v 2.81999993 -0.05357568 -0.12934314
v 2.81999993 -0.12067615 -0.07097369
v 2.81999993 -0.11640575 -0.07777983
v 2.81999993 -0.09899495 -0.09899495
v 2.81999993 -0.08194801 -0.11351003
v 2.81999993 -0.07777983 -0.11640575
v 2.81999993 0.05357568 -0.12934314
v 2.81999993 -0.02938399 -0.13688162
v 2.81999993 -0.02731265 -0.13730994
v 2.81999993 0.00000000 -0.14000000
v 2.81999993 0.02731265 -0.13730994
v 2.81999993 0.12934314 -0.05357568
v 2.81999993 0.07777983 -0.11640575
v 2.81999993 0.08091498 -0.11424869
v 2.81999993 0.09899495 -0.09899495
v 2.81999993 0.11640575 -0.07777983
v 2.81999993 0.12002739 -0.07206544
v 2.81999993 0.12934314 0.05357568
v 2.81999993 0.13730994 -0.02731265
v 2.81999993 0.13887471 -0.01771485
v 2.81999993 0.14000000 -0.00000000
v 2.81999993 0.13730994 0.02731265
v 2.81999993 0.13427483 0.03962666
v 2.81999993 0.05357568 0.12934314
v 2.81999993 0.11640575 0.07777983
v 2.81999993 0.10700436 0.09027772
v 2.81999993 0.09899495 0.09899495
v 2.81999993 0.07777983 0.11640575
v 2.81999993 0.06166760 0.12568654
v 2.81999993 0.02731265 0.13730994
v 2.81999993 0.00591904 0.13987482
v 2.81999993 0.00000000 0.14000000
v 2.81999993 -0.02731265 0.13730994
v 2.81999993 -0.05082887 0.13044702
v 4.19199991 -0.09989297 0.09809692
v 4.19199991 -0.10258705 0.09540284
v 4.35921097 -0.17442910 0.16724490
v 4.35921097 -0.16904095 0.17263305
v 4.19199991 -0.09719890 0.10079100
v 4.19199991 -0.09944396 0.09854595
v 4.19199991 -0.09809693 0.09989297
v 4.19199991 -0.09899495 0.09899495
v 4.56241083 -0.09899495 0.09899495
v 4.56241083 -0.10258705 0.09540284
v 4.19199991 -0.10258705 0.09540284
v 4.19199991 -0.09989297 0.09809692
v 4.69999981 -0.08082230 0.08082230
v 4.69999981 -0.07251114 0.08835509
v 4.69999981 -0.09899495 0.09899495
v 4.69999981 -0.06350168 0.09503698
v 4.69999981 -0.05477815 0.10031871
v 4.69999981 -0.04374072 0.10559943
v 4.69999981 -0.10559943 0.04374072
v 4.69999981 -0.10080361 0.05388065
v 4.69999981 -0.09503698 0.06350168
v 4.69999981 -0.08835509 0.07251114
v 4.69999981 -0.10618104 0.09124465
v 4.69999981 -0.14000000 -0.00000000
v 4.69999981 -0.11640575 0.07777983
v 4.69999981 -0.12934314 0.05357568
v 4.69999981 -0.13390984 0.04084307
v 4.69999981 -0.13730994 0.02731265
v 4.69999981 -0.13902970 -0.01645436
v 4.69999981 -0.09899495 -0.09899495
v 4.69999981 -0.13730994 -0.02731265
v 4.69999981 -0.12934314 -0.05357568
v 4.69999981 -0.12067617 -0.07097368
v 4.69999981 -0.11640575 -0.07777983
v 4.69999981 -0.08194803 -0.11351001
v 4.69999981 0.00000000 -0.14000000
v 4.69999981 -0.07777983 -0.11640575
v 4.69999981 -0.05357568 -0.12934314
v 4.69999981 -0.02938402 -0.13688162
v 4.69999981 -0.02731265 -0.13730994
v 4.69999981 0.02814110 -0.13714255
v 4.69999981 0.09899495 -0.09899495
v 4.69999981 0.05357568 -0.12934314
v 4.69999981 0.07777983 -0.11640575
v 4.69999981 0.08091496 -0.11424871
v 4.69999981 0.11640575 -0.07777983
v 4.69999981 0.14000000 -0.00000000
v 4.69999981 0.12002737 -0.07206545
v 4.69999981 0.12934314 -0.05357568
v 4.69999981 0.13730994 -0.02731265
v 4.69999981 0.13887469 -0.01771487
v 4.69999981 0.13730994 0.02731265
v 4.69999981 0.09899495 0.09899495
v 4.69999981 0.13427483 0.03962664
v 4.69999981 0.12934314 0.05357568
v 4.69999981 0.11640575 0.07777983
v 4.69999981 0.10700438 0.09027770
v 4.69999981 0.07777983 0.11640575
v 4.69999981 0.00000000 0.14000000
v 4.69999981 0.06166761 0.12568653
v 4.69999981 0.05357568 0.12934314
v 4.69999981 0.03020985 0.13670173
v 4.69999981 0.02731265 0.13730994
v 4.69999981 0.00591906 0.13987482
v 4.69999981 -0.02731265 0.13730994
v 4.69999981 -0.05082884 0.13044703
v 4.69999981 -0.05357568 0.12934314
v 4.69999981 -0.07777983 0.11640575
v 4.69999981 -0.03317954 0.10937828
v 4.69999981 -0.02429620 0.11168789
v 4.69999981 -0.02229883 0.11210376
v 4.69999981 -0.01120336 0.11374962
v 4.69999981 0.00000000 0.11430000
v 4.69999981 -0.11430000 -0.00000000
v 4.69999981 -0.11374962 0.01120336
v 4.69999981 -0.11210376 0.02229883
v 4.69999981 -0.11168788 0.02429622
v 4.69999981 -0.10937828 0.03317954
v 4.69999981 -0.10559943 -0.04374072
v 4.69999981 -0.10709336 -0.03994375
v 4.69999981 -0.10937828 -0.03317954
v 4.69999981 -0.11210376 -0.02229883
v 4.69999981 -0.11374962 -0.01120336
v 4.69999981 -0.11400878 -0.00815406
v 4.69999981 0.00815408 0.11400878
v 4.69999981 0.01120336 0.11374962
v 4.69999981 0.02229883 0.11210376
v 4.69999981 0.03317954 0.10937828
v 4.69999981 0.03994377 0.10709335
v 4.69999981 0.04374072 0.10559943
v 4.69999981 -0.08082230 -0.08082230
v 4.69999981 -0.08835509 -0.07251114
v 4.69999981 -0.09150187 -0.06849743
v 4.69999981 -0.09503698 -0.06350168
v 4.69999981 -0.10080361 -0.05388065
v 4.69999981 0.05388065 0.10080361
v 4.69999981 0.06350168 0.09503698
v 4.69999981 0.06849745 0.09150185
v 4.69999981 0.07251114 0.08835509
v 4.69999981 0.08082230 0.08082230
v 4.69999981 -0.04374072 -0.10559943
v 4.69999981 -0.05388065 -0.10080361
v 4.69999981 -0.06350168 -0.09503698
v 4.69999981 -0.06849743 -0.09150186
v 4.69999981 -0.07251114 -0.08835509
v 4.69999981 0.08835509 0.07251114
v 4.69999981 0.09150188 0.06849742
v 4.69999981 0.09503698 0.06350168
v 4.69999981 0.10080361 0.05388065
v 4.69999981 0.10559943 0.04374072
v 4.69999981 0.00000000 -0.11430000
v 4.69999981 -0.00815407 -0.11400878
v 4.69999981 -0.01120336 -0.11374962
v 4.69999981 -0.02229883 -0.11210376
v 4.69999981 -0.03317954 -0.10937828
v 4.69999981 -0.03994376 -0.10709336
v 4.69999981 0.10709336 0.03994374
v 4.69999981 0.10937828 0.03317954
v 4.69999981 0.11210376 0.02229883
v 4.69999981 0.11374962 0.01120336
v 4.69999981 0.11400878 0.00815405
v 4.69999981 0.11430000 -0.00000000
v 4.69999981 0.04374072 -0.10559943
v 4.69999981 0.03317954 -0.10937828
v 4.69999981 0.02429621 -0.11168789
v 4.69999981 0.02229883 -0.11210376
v 4.69999981 0.01120336 -0.11374962
v 4.69999981 0.11374962 -0.01120336
v 4.69999981 0.11210376 -0.02229883
v 4.69999981 0.11168788 -0.02429623
v 4.69999981 0.10937828 -0.03317954
v 4.69999981 0.10559943 -0.04374072
v 4.69999981 0.08082230 -0.08082230
v 4.69999981 0.07251114 -0.08835509
v 4.69999981 0.06350168 -0.09503698
v 4.69999981 0.05477815 -0.10031871
v 4.69999981 0.10080361 -0.05388065
v 4.69999981 0.09503698 -0.06350168
v 4.69999981 0.08835509 -0.07251114
v 4.69999981 0.10080361 -0.05388065
v 4.57299995 0.03596422 -0.01963796
v 4.63649988 0.06641378 -0.04021081
v 4.57299995 0.03407073 -0.02276533
v 4.57299995 0.02897477 -0.02897477
v 4.69999981 0.08082230 -0.08082230
v 4.63649988 0.05752616 -0.05213866
v 4.69999981 0.08835509 -0.07251114
v 4.63649988 0.06215263 -0.04652688
v 4.60475016 0.04482153 -0.03883808
v 4.66825008 0.08073436 -0.05188483
v 4.63649988 0.06001519 -0.04925318
v 4.69999981 0.09503698 -0.06350168
v 4.69999981 0.11168788 -0.02429623
v 4.57299995 0.04018916 -0.00799412
v 4.63649988 0.07409108 -0.02319937
v 4.57299995 0.03785736 -0.01568103
v 4.63649988 0.07274315 -0.02713179
v 4.60475016 0.05394790 -0.02463718
v 4.66825008 0.09208170 -0.02703763
v 4.63649988 0.07003532 -0.03350749
v 4.69999981 0.10559943 -0.04374072
v 4.69999981 0.10937828 -0.03317954
v 4.63649988 0.07159510 -0.03003066
v 4.69999981 0.11400878 0.00815405
v 4.57299995 0.04087211 0.00292322
v 4.63649988 0.07758879 0.00277110
v 4.57299995 0.04097652 -0.00000000
v 4.69999981 0.11210376 -0.02229883
v 4.63649988 0.07748679 -0.00484728
v 4.60475016 0.05881146 -0.00765369
v 4.66825008 0.09596817 0.00042827
v 4.63649988 0.07669321 -0.01207685
v 4.69999981 0.11374962 -0.01120336
v 4.63649988 0.07744045 -0.00553865
v 4.60475016 0.05870372 -0.00844032
v 4.66825008 0.09596913 -0.00000000
v 4.63649988 0.07719341 -0.00829914
v 4.69999981 0.11430000 -0.00000000
v 4.60475016 0.05854372 -0.00948678
v 4.69999981 0.10709336 0.03994374
v 4.57299995 0.03785736 0.01568103
v 4.63649988 0.07468561 0.02120752
v 4.57299995 0.04018916 0.00799412
v 4.69999981 0.11374962 0.01120336
v 4.63649988 0.07586398 0.01650320
v 4.60475016 0.05870372 0.00844032
v 4.66825008 0.09208170 0.02703763
v 4.63649988 0.07694357 0.01036278
v 4.69999981 0.11210376 0.02229883
v 4.69999981 0.10937828 0.03317954
v 4.63649988 0.07634240 0.01412574
v 4.60475016 0.05882838 0.00752246
v 4.57299995 0.03407073 0.02276533
v 4.69999981 0.09150188 0.06849742
v 4.57299995 0.03280339 0.02455631
v 4.69999981 0.10559943 0.04374072
v 4.63649988 0.06746648 0.03841839
v 4.63649988 0.07076546 0.03193663
v 4.69999981 0.10080361 0.05388065
v 4.63649988 0.06814147 0.03720806
v 4.60475016 0.05394790 0.02463718
v 4.66825008 0.08073436 0.05188483
v 4.63649988 0.06911317 0.03537046
v 4.69999981 0.09503698 0.06350168
v 4.69999981 0.06849745 0.09150185
v 4.57299995 0.02455631 0.03280339
v 4.63649988 0.05084224 0.05867509
v 4.57299995 0.02897477 0.02897477
v 4.69999981 0.08835509 0.07251114
v 4.63649988 0.05489854 0.05489855
v 4.60475016 0.04482153 0.03883808
v 4.66825008 0.06284641 0.07252863
v 4.63649988 0.05867508 0.05084226
v 4.69999981 0.08082230 0.08082230
v 4.69999981 0.07251114 0.08835509
v 4.63649988 0.05610969 0.05366006
v 4.69999981 0.06350168 0.09503698
v 4.69999981 0.03994377 0.10709335
v 4.57299995 0.01431983 0.03839293
v 4.63649988 0.03537045 0.06911317
v 4.57299995 0.02276533 0.03407073
v 4.63649988 0.04168253 0.06550013
v 4.69999981 0.05388065 0.10080361
v 4.63649988 0.03720805 0.06814148
v 4.60475016 0.03206399 0.04989255
v 4.66825008 0.03986701 0.08729659
v 4.63649988 0.03841838 0.06746649
v 4.69999981 0.04374072 0.10559943
v 4.69999981 0.00815408 0.11400878
v 4.57299995 0.00292324 0.04087211
v 4.63649988 0.01036277 0.07694357
v 4.57299995 0.00799412 0.04018916
v 4.69999981 0.03317954 0.10937828
v 4.63649988 0.01650319 0.07586398
v 4.60475016 0.01670882 0.05690502
v 4.66825008 0.01365782 0.09499230
v 4.63649988 0.02120750 0.07468562
v 4.69999981 0.02229883 0.11210376
v 4.63649988 0.01751731 0.07563625
v 4.66825008 0.01492826 0.09480095
v 4.69999981 0.01120336 0.11374962
v 4.63649988 0.00277108 0.07758879
v 4.69999981 0.00000000 0.11430000
v 4.57299995 -0.00871018 0.04004007
v 4.69999981 -0.02229883 0.11210376
v 4.69999981 -0.02429620 0.11168789
v 4.63649988 -0.00103936 0.07763130
v 4.69999981 -0.01120336 0.11374962
v 4.60475016 -0.00765370 0.05881145
v 4.66825008 -0.01238496 0.09516662
v 4.63649988 -0.00484729 0.07748679
v 4.60475016 0.00026465 0.05930680
v 4.57299995 0.00000000 0.04097652
v 4.69999981 -0.05477815 0.10031871
v 4.57299995 -0.01963795 0.03596423
v 4.63649988 -0.03350751 0.07003532
v 4.57299995 -0.01568103 0.03785736
v 4.63649988 -0.01953596 0.07514018
v 4.69999981 -0.03317954 0.10937828
v 4.63649988 -0.02713180 0.07274314
v 4.60475016 -0.01670883 0.05690502
v 4.66825008 -0.03986702 0.08729658
v 4.63649988 -0.02319939 0.07409108
v 4.69999981 -0.04374072 0.10559943
v 4.66825008 -0.03928180 0.08756149
v 4.66825008 -0.03947707 0.08747362
v 4.63649988 -0.02680691 0.07286349
v 4.60475016 -0.01658182 0.05694216
v 4.69999981 -0.08082230 0.08082230
v 4.57299995 -0.02897477 0.02897477
v 4.63649988 -0.04925320 0.06001518
v 4.57299995 -0.02276533 0.03407073
v 4.63649988 -0.04021082 0.06641378
v 4.69999981 -0.06350168 0.09503698
v 4.63649988 -0.04652688 0.06215263
v 4.60475016 -0.03206399 0.04989254
v 4.66825008 -0.06284642 0.07252862
v 4.63649988 -0.04342115 0.06436072
v 4.69999981 -0.07251114 0.08835509
v 4.69999981 -0.10080361 0.05388065
v 4.57299995 -0.03596422 0.01963796
v 4.63649988 -0.06641378 0.04021080
v 4.57299995 -0.03407073 0.02276533
v 4.69999981 -0.09503698 0.06350168
v 4.63649988 -0.05752616 0.05213866
v 4.69999981 -0.08835509 0.07251114
v 4.63649988 -0.06001519 0.04925318
v 4.69999981 -0.11168788 0.02429622
v 4.57299995 -0.04018916 0.00799412
v 4.63649988 -0.07409108 0.02319936
v 4.57299995 -0.03785736 0.01568103
v 4.63649988 -0.07274315 0.02713178
v 4.60475016 -0.05394790 0.02463717
v 4.66825008 -0.09208170 0.02703762
v 4.63649988 -0.07003533 0.03350749
v 4.69999981 -0.10559943 0.04374072
v 4.69999981 -0.10937828 0.03317954
v 4.63649988 -0.07159510 0.03003065
v 4.69999981 -0.11400878 -0.00815406
v 4.57299995 -0.04087211 -0.00292323
v 4.63649988 -0.07758879 -0.00277110
v 4.57299995 -0.04097652 -0.00000000
v 4.69999981 -0.11210376 0.02229883
v 4.63649988 -0.07748679 0.00484727
v 4.60475016 -0.05881146 0.00765369
v 4.66825008 -0.09596818 -0.00042827
v 4.63649988 -0.07669321 0.01207685
v 4.69999981 -0.11374962 0.01120336
v 4.63649988 -0.07744045 0.00553864
v 4.60475016 -0.05870372 0.00844032
v 4.66825008 -0.09596913 -0.00000001
v 4.63649988 -0.07719341 0.00829914
v 4.69999981 -0.11430000 -0.00000000
v 4.60475016 -0.05854372 0.00948677
v 4.69999981 -0.10709336 -0.03994375
v 4.57299995 -0.03785736 -0.01568103
v 4.63649988 -0.07468561 -0.02120752
v 4.57299995 -0.04018916 -0.00799412
v 4.69999981 -0.11374962 -0.01120336
v 4.63649988 -0.07586397 -0.01650321
v 4.60475016 -0.05870372 -0.00844033
v 4.66825008 -0.09208170 -0.02703764
v 4.63649988 -0.07694357 -0.01036279
v 4.69999981 -0.11210376 -0.02229883
v 4.69999981 -0.10937828 -0.03317954
v 4.63649988 -0.07634240 -0.01412575
v 4.60475016 -0.05882838 -0.00752246
v 4.57299995 -0.03407073 -0.02276533
v 4.69999981 -0.09150187 -0.06849743
v 4.57299995 -0.03280339 -0.02455631
v 4.69999981 -0.10559943 -0.04374072
v 4.63649988 -0.06746648 -0.03841839
v 4.63649988 -0.07076546 -0.03193663
v 4.69999981 -0.10080361 -0.05388065
v 4.63649988 -0.06814145 -0.03720807
v 4.60475016 -0.05394789 -0.02463719
v 4.66825008 -0.08073436 -0.05188483
v 4.63649988 -0.06911316 -0.03537047
v 4.69999981 -0.09503698 -0.06350168
v 4.69999981 -0.06849743 -0.09150186
v 4.57299995 -0.02455631 -0.03280339
v 4.63649988 -0.05084224 -0.05867509
v 4.57299995 -0.02897477 -0.02897477
v 4.69999981 -0.08835509 -0.07251114
v 4.63649988 -0.05489853 -0.05489855
v 4.60475016 -0.04482153 -0.03883808
v 4.66825008 -0.06284641 -0.07252863
v 4.63649988 -0.05867507 -0.05084226
v 4.69999981 -0.08082230 -0.08082230
v 4.69999981 -0.07251114 -0.08835509
v 4.63649988 -0.05610969 -0.05366006
v 4.69999981 -0.06350168 -0.09503698
v 4.69999981 -0.03994376 -0.10709336
v 4.57299995 -0.01431983 -0.03839293
v 4.63649988 -0.03537044 -0.06911317
v 4.57299995 -0.02276533 -0.03407073
v 4.63649988 -0.04168252 -0.06550013
v 4.69999981 -0.05388065 -0.10080361
v 4.63649988 -0.03720805 -0.06814148
v 4.60475016 -0.03206398 -0.04989255
v 4.66825008 -0.03986701 -0.08729659
v 4.63649988 -0.03841838 -0.06746649
v 4.69999981 -0.04374072 -0.10559943
v 4.69999981 -0.00815407 -0.11400878
v 4.57299995 -0.00292323 -0.04087211
v 4.63649988 -0.01036277 -0.07694357
v 4.57299995 -0.00799412 -0.04018916
v 4.69999981 -0.03317954 -0.10937828
v 4.63649988 -0.01650319 -0.07586398
v 4.60475016 -0.01670881 -0.05690502
v 4.66825008 -0.01365782 -0.09499230
v 4.63649988 -0.02120750 -0.07468562
v 4.69999981 -0.02229883 -0.11210376
v 4.63649988 -0.01751730 -0.07563625
v 4.66825008 -0.01492826 -0.09480096
v 4.69999981 -0.01120336 -0.11374962
v 4.63649988 -0.00277108 -0.07758879
v 4.69999981 0.00000000 -0.11430000
v 4.69999981 0.02429621 -0.11168789
v 4.57299995 0.00871018 -0.04004007
v 4.63649988 0.00829916 -0.07719341
v 4.57299995 0.00000000 -0.04097652
v 4.63649988 0.00103936 -0.07763130
v 4.69999981 0.01120336 -0.11374962
v 4.63649988 0.00553866 -0.07744045
v 4.60475016 0.00000001 -0.05930739
v 4.66825008 0.01365785 -0.09499230
v 4.63649988 0.00484729 -0.07748679
v 4.66825008 0.01238496 -0.09516662
v 4.69999981 0.02229883 -0.11210376
v 4.60475016 -0.00026465 -0.05930680
v 4.66825008 0.01280951 -0.09511041
v 4.69999981 0.05477815 -0.10031871
v 4.57299995 0.01963795 -0.03596422
v 4.63649988 0.03350751 -0.07003532
v 4.57299995 0.01568103 -0.03785736
v 4.63649988 0.01953596 -0.07514017
v 4.69999981 0.03317954 -0.10937828
v 4.63649988 0.02713180 -0.07274314
v 4.60475016 0.01670883 -0.05690502
v 4.66825008 0.03986703 -0.08729658
v 4.63649988 0.02319939 -0.07409108
v 4.69999981 0.04374072 -0.10559943
v 4.66825008 0.03928180 -0.08756149
v 4.66825008 0.03947708 -0.08747362
v 4.63649988 0.02680692 -0.07286349
v 4.60475016 0.01658182 -0.05694216
v 4.63649988 0.04925320 -0.06001518
v 4.57299995 0.02276533 -0.03407073
v 4.63649988 0.04021082 -0.06641378
v 4.69999981 0.06350168 -0.09503698
v 4.63649988 0.04652689 -0.06215262
v 4.60475016 0.03206400 -0.04989254
v 4.66825008 0.06284642 -0.07252862
v 4.63649988 0.04342116 -0.06436072
v 4.69999981 0.07251114 -0.08835509
v 4.57299995 0.02694077 0.02694077
v 4.57299995 0.02945170 0.02417038
v 4.57299995 0.02897477 0.02897477
v 4.57299995 0.03167899 0.02116723
v 4.57299995 0.03360120 0.01796022
v 4.57299995 0.03519981 0.01458024
v 4.57299995 0.03645943 0.01105985
v 4.57299995 0.03736792 0.00743294
v 4.57299995 0.03791654 0.00373445
v 4.57299995 0.03810000 -0.00000000
v 4.57299995 0.00000000 0.03810000
v 4.57299995 0.00373445 0.03791654
v 4.57299995 0.00596015 0.03763092
v 4.57299995 0.01105985 0.03645943
v 4.57299995 0.01458024 0.03519981
v 4.57299995 0.01729704 0.03394734
v 4.57299995 0.02116723 0.03167899
v 4.57299995 0.02417038 0.02945170
v 4.57299995 0.02455631 0.03280339
v 4.57299995 0.00000000 0.04097652
v 4.57299995 0.02276533 0.03407073
v 4.57299995 0.01431983 0.03839293
v 4.57299995 0.00799412 0.04018916
v 4.57299995 0.00292324 0.04087211
v 4.57299995 -0.00871018 0.04004007
v 4.57299995 -0.02897477 0.02897477
v 4.57299995 -0.01568103 0.03785736
v 4.57299995 -0.01963795 0.03596423
v 4.57299995 -0.02276533 0.03407073
v 4.57299995 -0.03407073 0.02276533
v 4.57299995 -0.04097652 -0.00000000
v 4.57299995 -0.03596422 0.01963796
v 4.57299995 -0.03785736 0.01568103
v 4.57299995 -0.04018916 0.00799412
v 4.57299995 -0.04087211 -0.00292323
v 4.57299995 -0.02897477 -0.02897477
v 4.57299995 -0.04018916 -0.00799412
v 4.57299995 -0.03785736 -0.01568103
v 4.57299995 -0.03407073 -0.02276533
v 4.57299995 -0.03280339 -0.02455631
v 4.57299995 -0.02455631 -0.03280339
v 4.57299995 0.00000000 -0.04097652
v 4.57299995 -0.02276533 -0.03407073
v 4.57299995 -0.01431983 -0.03839293
v 4.57299995 -0.00799412 -0.04018916
v 4.57299995 -0.00292323 -0.04087211
v 4.57299995 0.00871018 -0.04004007
v 4.57299995 0.02897477 -0.02897477
v 4.57299995 0.01568103 -0.03785736
v 4.57299995 0.01963795 -0.03596422
v 4.57299995 0.02276533 -0.03407073
v 4.57299995 0.03407073 -0.02276533
v 4.57299995 0.04097652 -0.00000000
v 4.57299995 0.03596422 -0.01963796
v 4.57299995 0.03785736 -0.01568103
v 4.57299995 0.04018916 -0.00799412
v 4.57299995 0.04087211 0.00292322
v 4.57299995 0.04018916 0.00799412
v 4.57299995 0.03785736 0.01568103
v 4.57299995 0.03407073 0.02276533
v 4.57299995 0.03280339 0.02455631
v 4.57299995 -0.02694077 0.02694077
v 4.57299995 -0.02417038 0.02945170
v 4.57299995 -0.02116723 0.03167899
v 4.57299995 -0.01796022 0.03360120
v 4.57299995 -0.01458024 0.03519981
v 4.57299995 -0.01105985 0.03645943
v 4.57299995 -0.00743294 0.03736792
v 4.57299995 -0.00373445 0.03791654
v 4.57299995 0.03791654 -0.00373445
v 4.57299995 0.03763092 -0.00596016
v 4.57299995 0.03645943 -0.01105985
v 4.57299995 0.03519981 -0.01458024
v 4.57299995 0.03394734 -0.01729704
v 4.57299995 0.03167899 -0.02116723
v 4.57299995 0.02945170 -0.02417038
v 4.57299995 0.02694077 -0.02694077
v 4.57299995 -0.03810000 -0.00000000
v 4.57299995 -0.03791654 0.00373445
v 4.57299995 -0.03763092 0.00596016
v 4.57299995 -0.03645943 0.01105985
v 4.57299995 -0.03519981 0.01458024
v 4.57299995 -0.03394734 0.01729704
v 4.57299995 -0.03167899 0.02116723
v 4.57299995 -0.02945170 0.02417038
v 4.57299995 0.02417038 -0.02945170
v 4.57299995 0.02116723 -0.03167899
v 4.57299995 0.01796022 -0.03360120
v 4.57299995 0.01458024 -0.03519981
v 4.57299995 0.01105985 -0.03645943
v 4.57299995 0.00743294 -0.03736792
v 4.57299995 0.00373445 -0.03791654
v 4.57299995 0.00000000 -0.03810000
v 4.57299995 -0.02694077 -0.02694077
v 4.57299995 -0.02945170 -0.02417038
v 4.57299995 -0.03167899 -0.02116723
v 4.57299995 -0.03360120 -0.01796022
v 4.57299995 -0.03519981 -0.01458024
v 4.57299995 -0.03645943 -0.01105985
v 4.57299995 -0.03736792 -0.00743294
v 4.57299995 -0.03791654 -0.00373445
v 4.57299995 -0.00373445 -0.03791654
v 4.57299995 -0.00596016 -0.03763092
v 4.57299995 -0.01105985 -0.03645943
v 4.57299995 -0.01458024 -0.03519981
v 4.57299995 -0.01729704 -0.03394735
v 4.57299995 -0.02116723 -0.03167899
v 4.57299995 -0.02417038 -0.02945170
v 4.57299995 -0.02694077 0.02694077
v 4.55801439 -0.02945170 0.02417038
v 4.55801439 -0.02694077 0.02694077
v 4.55801439 -0.03167899 0.02116723
v 4.57299995 -0.03394734 0.01729704
v 4.55801439 -0.03394734 0.01729704
v 4.57299995 -0.03167899 0.02116723
v 4.57299995 -0.02945170 0.02417038
v 4.57299995 -0.03519981 0.01458024
v 4.57299995 -0.03645943 0.01105985
v 4.55801439 -0.03645943 0.01105985
v 4.57299995 -0.03763092 0.00596016
v 4.55801439 -0.03763092 0.00596016
v 4.56550694 -0.03623526 0.01177355
v 4.55801439 -0.03519981 0.01458024
v 4.57299995 -0.03791654 0.00373445
v 4.55801439 -0.03791654 -0.00373445
v 4.57299995 -0.03736792 -0.00743294
v 4.55801439 -0.03736792 -0.00743294
v 4.57299995 -0.03810000 -0.00000000
v 4.55801439 -0.03810000 -0.00000000
v 4.56550694 -0.03810000 -0.00000000
v 4.57299995 -0.03791654 -0.00373445
v 4.55801439 -0.03791654 0.00373445
v 4.55801439 -0.03519981 -0.01458024
v 4.57299995 -0.03360120 -0.01796022
v 4.55801439 -0.03360120 -0.01796022
v 4.57299995 -0.03645943 -0.01105985
v 4.55801439 -0.03645943 -0.01105985
v 4.56550694 -0.03623525 -0.01177355
v 4.57299995 -0.03519981 -0.01458024
v 4.56550694 -0.03599711 -0.01248271
v 4.55801439 -0.02945170 -0.02417038
v 4.57299995 -0.02694077 -0.02694077
v 4.55801439 -0.02694077 -0.02694077
v 4.57299995 -0.03167899 -0.02116723
v 4.55801439 -0.03167899 -0.02116723
v 4.56550694 -0.03082355 -0.02239462
v 4.57299995 -0.02945170 -0.02417038
v 4.56550694 -0.03060221 -0.02269615
v 4.55801439 -0.02116723 -0.03167899
v 4.57299995 -0.01729704 -0.03394735
v 4.55801439 -0.01729704 -0.03394735
v 4.57299995 -0.02116723 -0.03167899
v 4.57299995 -0.02417038 -0.02945170
v 4.55801439 -0.02417038 -0.02945170
v 4.56550694 -0.02239461 -0.03082355
v 4.57299995 -0.01458024 -0.03519981
v 4.57299995 -0.01105985 -0.03645943
v 4.55801439 -0.01105985 -0.03645943
v 4.57299995 -0.00596016 -0.03763092
v 4.55801439 -0.00596016 -0.03763092
v 4.56550694 -0.01177354 -0.03623525
v 4.55801439 -0.01458024 -0.03519981
v 4.57299995 -0.00373445 -0.03791654
v 4.55801439 0.00373445 -0.03791654
v 4.57299995 0.00743294 -0.03736792
v 4.55801439 0.00743294 -0.03736792
v 4.55801439 -0.00373445 -0.03791654
v 4.55801439 0.00000000 -0.03810000
v 4.57299995 0.00373445 -0.03791654
v 4.57299995 0.00000000 -0.03810000
v 4.55801439 0.01458024 -0.03519981
v 4.57299995 0.01796022 -0.03360120
v 4.55801439 0.01796022 -0.03360120
v 4.55801439 0.01105985 -0.03645943
v 4.57299995 0.01458024 -0.03519981
v 4.57299995 0.01105985 -0.03645943
v 4.55801439 0.02417038 -0.02945170
v 4.57299995 0.02694077 -0.02694077
v 4.55801439 0.02694077 -0.02694077
v 4.57299995 0.02116723 -0.03167899
v 4.55801439 0.02116723 -0.03167899
v 4.57299995 0.02417038 -0.02945170
v 4.56550694 0.02269615 -0.03060220
v 4.56550694 0.02239462 -0.03082355
v 4.57299995 0.02945170 -0.02417038
v 4.55801439 0.03167899 -0.02116723
v 4.57299995 0.03394734 -0.01729704
v 4.55801439 0.03394734 -0.01729704
v 4.56550694 0.03060221 -0.02269614
v 4.57299995 0.03167899 -0.02116723
v 4.55801439 0.02945170 -0.02417038
v 4.56550694 0.03082355 -0.02239461
v 4.57299995 0.03519981 -0.01458024
v 4.57299995 0.03645943 -0.01105985
v 4.55801439 0.03645943 -0.01105985
v 4.57299995 0.03763092 -0.00596016
v 4.55801439 0.03763092 -0.00596016
v 4.56550694 0.03623525 -0.01177354
v 4.55801439 0.03519981 -0.01458024
v 4.57299995 0.03791654 -0.00373445
v 4.55801439 0.03791654 0.00373445
v 4.57299995 0.03736792 0.00743294
v 4.55801439 0.03736792 0.00743294
v 4.57299995 0.03810000 -0.00000000
v 4.55801439 0.03810000 -0.00000000
v 4.56550694 0.03810000 0.00000000
v 4.57299995 0.03791654 0.00373445
v 4.55801439 0.03791654 -0.00373445
v 4.55801439 0.03519981 0.01458024
v 4.57299995 0.03360120 0.01796022
v 4.55801439 0.03360120 0.01796022
v 4.55801439 0.03645943 0.01105985
v 4.57299995 0.03519981 0.01458024
v 4.57299995 0.03645943 0.01105985
v 4.55801439 0.02945170 0.02417038
v 4.57299995 0.02694077 0.02694077
v 4.55801439 0.02694077 0.02694077
v 4.55801439 0.03167899 0.02116723
v 4.57299995 0.02945170 0.02417038
v 4.57299995 0.03167899 0.02116723
v 4.55801439 0.02116723 0.03167899
v 4.57299995 0.01729704 0.03394734
v 4.55801439 0.01729704 0.03394734
v 4.57299995 0.02116723 0.03167899
v 4.57299995 0.02417038 0.02945170
v 4.55801439 0.02417038 0.02945170
v 4.56550694 0.02239461 0.03082355
v 4.57299995 0.01458024 0.03519981
v 4.57299995 0.01105985 0.03645943
v 4.55801439 0.01105985 0.03645943
v 4.57299995 0.00596015 0.03763092
v 4.55801439 0.00596015 0.03763092
v 4.56550694 0.01248270 0.03599711
v 4.55801439 0.01458024 0.03519981
v 4.56550694 0.01177354 0.03623526
v 4.57299995 0.00373445 0.03791654
v 4.55801439 -0.00373445 0.03791654
v 4.57299995 -0.00743294 0.03736792
v 4.55801439 -0.00743294 0.03736792
v 4.57299995 0.00000000 0.03810000
v 4.55801439 0.00000000 0.03810000
v 4.57299995 -0.00373445 0.03791654
v 4.55801439 0.00373445 0.03791654
v 4.56550694 -0.00000001 0.03810000
v 4.55801439 -0.01458024 0.03519981
v 4.57299995 -0.01796022 0.03360120
v 4.55801439 -0.01796022 0.03360120
v 4.55801439 -0.01105985 0.03645943
v 4.57299995 -0.01458024 0.03519981
v 4.57299995 -0.01105985 0.03645943
v 4.55801439 -0.02417038 0.02945170
v 4.57299995 -0.02116723 0.03167899
v 4.55801439 -0.02116723 0.03167899
v 4.57299995 -0.02417038 0.02945170
v 4.56550694 -0.02239463 0.03082355
v 4.56550694 -0.02269615 0.03060220
v 4.55801439 0.02694077 0.02694077
v 4.55801439 0.02417038 0.02945170
v 4.55801439 -0.02694077 0.02694077
v 4.55801439 0.02116723 0.03167899
v 4.55801439 0.01729704 0.03394734
v 4.55801439 0.01458024 0.03519981
v 4.55801439 0.01105985 0.03645943
v 4.55801439 0.00596015 0.03763092
v 4.55801439 0.00373445 0.03791654
v 4.55801439 0.00000000 0.03810000
v 4.55801439 -0.00373445 0.03791654
v 4.55801439 -0.00743294 0.03736792
v 4.55801439 -0.01105985 0.03645943
v 4.55801439 -0.01458024 0.03519981
v 4.55801439 -0.01796022 0.03360120
v 4.55801439 -0.02116723 0.03167899
v 4.55801439 -0.02417038 0.02945170
v 4.55801439 -0.02945170 0.02417038
v 4.55801439 -0.02694077 -0.02694077
v 4.55801439 -0.03167899 0.02116723
v 4.55801439 -0.03394734 0.01729704
v 4.55801439 -0.03519981 0.01458024
v 4.55801439 -0.03645943 0.01105985
v 4.55801439 -0.03763092 0.00596016
v 4.55801439 -0.03791654 0.00373445
v 4.55801439 -0.03810000 -0.00000000
v 4.55801439 -0.03791654 -0.00373445
v 4.55801439 -0.03736792 -0.00743294
v 4.55801439 -0.03645943 -0.01105985
v 4.55801439 -0.03519981 -0.01458024
v 4.55801439 -0.03360120 -0.01796022
v 4.55801439 -0.03167899 -0.02116723
v 4.55801439 -0.02945170 -0.02417038
v 4.55801439 -0.02417038 -0.02945170
v 4.55801439 0.02694077 -0.02694077
v 4.55801439 -0.02116723 -0.03167899
v 4.55801439 -0.01729704 -0.03394735
v 4.55801439 -0.01458024 -0.03519981
v 4.55801439 -0.01105985 -0.03645943
v 4.55801439 -0.00596016 -0.03763092
v 4.55801439 -0.00373445 -0.03791654
v 4.55801439 0.00000000 -0.03810000
v 4.55801439 0.00373445 -0.03791654
v 4.55801439 0.00743294 -0.03736792
v 4.55801439 0.01105985 -0.03645943
v 4.55801439 0.01458024 -0.03519981
v 4.55801439 0.01796022 -0.03360120
v 4.55801439 0.02116723 -0.03167899
v 4.55801439 0.02417038 -0.02945170
v 4.55801439 0.02945170 -0.02417038
v 4.55801439 0.03167899 -0.02116723
v 4.55801439 0.03394734 -0.01729704
v 4.55801439 0.03519981 -0.01458024
v 4.55801439 0.03645943 -0.01105985
v 4.55801439 0.03763092 -0.00596016
v 4.55801439 0.03791654 -0.00373445
v 4.55801439 0.03810000 -0.00000000
v 4.55801439 0.03791654 0.00373445
v 4.55801439 0.03736792 0.00743294
v 4.55801439 0.03645943 0.01105985
v 4.55801439 0.03519981 0.01458024
v 4.55801439 0.03360120 0.01796022
v 4.55801439 0.03167899 0.02116723
v 4.55801439 0.02945170 0.02417038
v 4.56241083 -0.09764791 0.10034199
v 4.56241083 -0.09719890 0.10079100
v 4.56241083 -0.13311993 0.13671201
v 4.56241083 -0.16904095 0.17263305
v 4.56241083 -0.17442910 0.16724490
v 4.56241083 -0.10258705 0.09540284
v 4.56241083 -0.10124002 0.09674989
v 4.56241083 -0.09809693 0.09989297
v 4.56241083 -0.09854594 0.09944396
v 4.56241083 -0.09989297 0.09809693
f 1 2 3
f 4 5 6
f 6 7 8
f 9 10 1
f 1 3 11
f 12 4 6
f 6 8 13
f 13 9 1
f 1 11 12
f 12 6 13
f 13 1 12
f 14 15 16
f 16 17 18
f 19 14 16
f 16 18 19
f 20 21 22
f 23 16 15
f 24 20 22
f 25 23 15
f 22 26 24
f 26 15 24
f 15 26 25
f 26 22 25
f 27 28 29
f 22 21 30
f 30 27 29
f 31 32 30
f 32 22 30
f 30 29 31
f 33 34 35
f 36 29 28
f 37 33 35
f 28 38 36
f 35 39 38
f 39 36 38
f 35 38 37
f 38 28 37
f 34 40 41
f 40 34 42
f 43 44 45
f 46 35 34
f 34 41 47
f 40 42 43
f 48 46 34
f 48 34 47
f 49 50 49
f 50 51 49
f 51 52 51
f 51 51 49
f 53 52 52
f 52 51 52
f 49 54 55
f 49 55 54
f 54 56 55
f 54 49 49
f 57 58 57
f 58 56 57
f 57 59 57
f 59 60 61
f 60 62 61
f 61 63 59
f 63 57 59
f 56 58 64
f 58 57 64
f 64 65 56
f 65 55 56
f 55 66 54
f 66 49 54
f 54 55 55
f 55 56 55
f 52 67 52
f 67 53 52
f 52 51 52
f 51 50 68
f 50 49 68
f 68 69 51
f 69 52 51
f 53 67 70
f 67 52 70
f 70 71 53
f 71 72 53
f 72 73 74
f 73 75 74
f 74 72 72
f 72 53 72
f 76 77 78
f 77 75 78
f 78 79 76
f 79 80 76
f 80 81 82
f 81 83 82
f 82 80 80
f 80 76 80
f 75 77 75
f 77 76 75
f 75 84 72
f 75 72 74
f 84 53 72
f 74 75 75
f 85 86 85
f 86 87 85
f 85 88 85
f 88 89 90
f 89 83 90
f 90 91 88
f 91 85 88
f 87 86 92
f 86 85 92
f 92 93 87
f 93 94 87
f 94 95 96
f 95 97 96
f 96 94 94
f 94 87 94
f 98 99 100
f 99 97 100
f 100 101 98
f 101 102 98
f 102 103 104
f 103 47 104
f 104 102 102
f 102 98 102
f 97 99 97
f 99 98 97
f 97 96 94
f 97 94 96
f 96 87 94
f 96 97 97
f 83 89 83
f 89 88 83
f 88 85 88
f 88 88 83
f 87 85 85
f 85 88 85
f 75 78 76
f 78 80 76
f 83 82 80
f 82 76 80
f 76 82 80
f 82 83 80
f 80 78 76
f 78 75 76
f 76 75 75
f 53 84 75
f 84 75 75
f 83 82 80
f 83 80 82
f 82 76 80
f 82 83 83
f 105 106 107
f 106 108 107
f 108 109 110
f 108 110 107
f 109 111 110
f 107 105 105
f 105 112 105
f 111 109 113
f 109 108 113
f 108 106 114
f 108 114 113
f 106 105 114
f 113 115 111
f 115 116 111
f 117 118 116
f 118 111 116
f 119 120 121
f 120 112 121
f 121 119 119
f 119 122 119
f 112 120 123
f 120 119 123
f 123 124 112
f 124 105 112
f 122 125 126
f 125 127 126
f 126 128 122
f 128 119 122
f 129 130 131
f 130 132 131
f 131 133 129
f 133 134 129
f 132 135 136
f 132 136 131
f 135 117 136
f 134 137 138
f 137 40 138
f 138 139 134
f 139 129 134
f 117 135 135
f 135 132 135
f 132 130 131
f 132 131 135
f 130 129 131
f 135 140 117
f 140 141 117
f 111 118 141
f 118 117 141
f 122 125 122
f 125 142 125
f 125 125 122
f 142 127 125
f 122 119 122
f 119 121 122
f 112 121 121
f 121 122 121
f 112 105 105
f 105 107 105
f 105 143 112
f 143 144 112
f 122 121 144
f 121 112 144
f 107 110 108
f 110 111 108
f 108 106 107
f 106 105 107
f 127 142 142
f 142 125 142
f 122 126 125
f 126 142 125
f 142 145 127
f 145 146 127
f 147 148 146
f 148 127 146
f 149 147 150
f 147 149 149
f 149 150 149
f 149 147 147
f 127 148 147
f 148 147 147
f 147 150 151
f 149 150 147
f 151 152 147
f 152 127 147
f 45 48 47
f 150 147 43
f 147 146 43
f 146 145 43
f 145 142 43
f 142 126 43
f 126 122 43
f 122 144 43
f 144 143 43
f 143 105 43
f 105 106 43
f 106 108 43
f 108 111 43
f 111 141 43
f 141 140 43
f 140 135 43
f 135 131 43
f 131 129 43
f 129 139 43
f 139 138 43
f 138 40 43
f 47 103 45
f 103 102 45
f 102 101 45
f 101 100 45
f 100 97 45
f 97 95 45
f 95 94 45
f 94 93 45
f 93 92 45
f 92 85 45
f 85 91 45
f 91 90 45
f 90 83 45
f 83 81 45
f 81 80 45
f 80 79 45
f 79 78 45
f 78 75 45
f 75 73 45
f 73 72 45
f 72 71 45
f 71 70 45
f 70 52 45
f 52 69 45
f 69 68 45
f 68 49 45
f 49 66 45
f 66 55 45
f 55 65 45
f 65 64 45
f 64 57 45
f 57 63 45
f 63 61 45
f 61 62 45
f 150 43 45
f 45 62 153
f 153 150 45
f 154 155 156
f 45 44 157
f 156 158 154
f 158 157 154
f 159 160 157
f 160 45 157
f 157 158 159
f 158 156 159
f 156 155 161
f 162 163 164
f 165 166 161
f 166 156 161
f 164 167 162
f 167 161 162
f 161 168 165
f 168 164 165
f 164 168 167
f 168 161 167
f 169 170 171
f 172 164 163
f 173 169 171
f 163 174 172
f 174 175 172
f 171 176 173
f 176 163 173
f 175 174 176
f 175 176 171
f 174 163 176
f 170 177 178
f 177 170 179
f 180 181 182
f 183 171 170
f 170 178 184
f 177 179 180
f 180 182 185
f 183 170 184
f 186 177 180
f 180 185 183
f 183 184 187
f 188 186 180
f 183 187 189
f 190 188 180
f 183 189 191
f 190 180 183
f 183 191 192
f 190 183 192
f 193 194 195
f 196 182 181
f 197 193 195
f 181 198 196
f 195 199 198
f 199 196 198
f 195 198 197
f 198 181 197
f 200 201 202
f 203 195 194
f 204 200 202
f 205 203 194
f 202 206 204
f 206 194 204
f 194 206 205
f 206 202 205
f 207 208 209
f 210 202 201
f 211 207 209
f 212 210 201
f 209 213 211
f 213 201 211
f 201 213 212
f 213 209 212
f 214 215 216
f 217 209 208
f 218 214 216
f 208 219 217
f 216 220 219
f 220 217 219
f 216 219 218
f 219 208 218
f 221 222 223
f 224 216 215
f 223 225 221
f 225 226 221
f 215 227 228
f 215 228 224
f 223 229 227
f 229 228 227
f 226 225 227
f 226 227 215
f 225 223 227
f 230 231 232
f 233 223 222
f 232 234 230
f 234 235 230
f 236 233 222
f 235 234 237
f 235 237 222
f 234 232 237
f 222 237 236
f 237 232 236
f 238 232 231
f 239 14 19
f 18 17 240
f 240 238 231
f 19 241 239
f 241 242 239
f 243 18 240
f 240 231 242
f 244 245 241
f 244 241 19
f 245 242 241
f 246 243 240
f 246 247 245
f 246 245 244
f 247 242 245
f 242 247 240
f 247 246 240
f 248 249 250
f 250 251 252
f 252 253 248
f 248 250 252
f 254 255 256
f 256 257 254
f 258 259 260
f 260 261 258
f 262 263 264
f 263 262 265
f 266 267 268
f 269 270 271
f 271 272 273
f 273 274 266
f 266 268 275
f 275 269 271
f 271 273 266
f 266 275 271
f 276 277 278
f 278 279 280
f 280 276 278
f 281 282 283
f 283 284 285
f 283 285 286
f 287 281 283
f 283 286 287
f 288 289 290
f 290 291 292
f 292 288 290
f 293 294 295
f 294 293 296
f 297 298 299
f 299 300 297
f 301 302 303
f 303 304 301
f 305 306 307
f 307 308 309
f 310 305 307
f 307 309 311
f 312 310 307
f 307 311 312
f 313 314 315
f 315 316 317
f 317 318 313
f 313 315 317
f 319 320 321
f 322 323 324
f 324 325 326
f 326 327 319
f 319 321 328
f 328 322 324
f 324 326 319
f 319 328 324
f 329 330 331
f 331 332 333
f 333 334 329
f 329 331 333
f 335 336 337
f 337 338 335
f 339 340 341
f 341 342 339
f 343 344 345
f 344 343 346
f 347 348 349
f 350 351 352
f 352 353 354
f 354 355 347
f 347 349 356
f 356 350 352
f 352 354 347
f 347 356 352
f 357 358 359
f 359 360 361
f 361 357 359
f 362 363 364
f 364 365 366
f 367 362 364
f 364 366 368
f 369 367 364
f 364 368 369
f 370 371 372
f 372 373 374
f 374 375 376
f 376 377 370
f 370 372 374
f 374 376 370
f 378 379 380
f 379 381 382
f 381 378 383
f 378 381 379
f 384 385 386
f 386 387 384
f 388 389 390
f 390 391 388
f 392 393 394
f 395 394 396
f 396 394 397
f 397 394 393
f 393 398 399
f 399 398 400
f 401 400 402
f 402 400 403
f 403 400 398
f 398 404 405
f 405 404 406
f 407 406 408
f 408 406 409
f 409 406 404
f 404 410 411
f 411 410 412
f 413 412 414
f 414 412 410
f 410 415 416
f 416 415 417
f 418 417 419
f 419 417 420
f 420 417 415
f 415 421 422
f 422 421 423
f 424 423 425
f 425 423 426
f 426 423 421
f 421 427 428
f 428 427 429
f 430 429 431
f 431 429 432
f 432 429 427
f 427 392 433
f 433 392 434
f 435 434 436
f 436 434 437
f 437 434 392
f 392 398 393
f 398 410 404
f 410 421 415
f 421 392 427
f 392 410 398
f 410 392 421
f 438 439 440
f 440 441 442
f 443 438 440
f 440 442 444
f 445 443 440
f 440 444 445
f 446 447 448
f 448 449 446
f 450 451 452
f 451 453 452
f 453 454 452
f 454 455 452
f 456 457 452
f 457 458 452
f 458 459 452
f 459 450 452
f 452 460 461
f 460 462 461
f 463 464 462
f 464 465 462
f 465 461 462
f 461 466 467
f 466 468 467
f 469 470 468
f 470 471 468
f 471 467 468
f 467 472 473
f 472 474 473
f 475 476 474
f 476 477 474
f 477 473 474
f 473 478 479
f 480 481 478
f 481 482 478
f 482 479 478
f 479 483 484
f 483 485 484
f 486 487 485
f 487 488 485
f 488 484 485
f 484 489 490
f 489 491 490
f 492 493 491
f 493 494 491
f 494 490 491
f 490 495 496
f 495 497 496
f 498 499 497
f 499 500 497
f 500 501 497
f 501 496 497
f 496 502 452
f 502 503 452
f 504 505 503
f 505 452 503
f 455 506 452
f 506 507 452
f 507 508 452
f 508 509 452
f 509 510 452
f 511 512 452
f 512 513 452
f 513 514 452
f 514 515 452
f 515 456 452
f 496 452 510
f 511 452 461
f 490 496 510
f 516 517 461
f 517 518 461
f 518 519 461
f 519 520 461
f 520 521 461
f 521 511 461
f 510 522 490
f 522 523 490
f 523 524 490
f 524 525 490
f 525 526 490
f 526 527 490
f 528 529 461
f 529 530 461
f 530 531 461
f 531 532 461
f 532 516 461
f 527 533 490
f 533 534 490
f 534 535 490
f 535 536 490
f 536 537 490
f 528 461 467
f 484 490 537
f 538 539 467
f 539 540 467
f 540 541 467
f 541 542 467
f 542 528 467
f 537 543 484
f 543 544 484
f 544 545 484
f 545 546 484
f 546 547 484
f 548 549 467
f 549 550 467
f 550 551 467
f 551 552 467
f 552 553 467
f 553 538 467
f 547 554 484
f 554 555 484
f 555 556 484
f 556 557 484
f 557 558 484
f 558 559 484
f 548 467 473
f 479 484 559
f 560 561 473
f 561 562 473
f 562 563 473
f 563 564 473
f 564 548 473
f 559 565 479
f 565 566 479
f 566 567 479
f 567 568 479
f 568 569 479
f 570 571 473
f 571 572 473
f 572 573 473
f 573 560 473
f 569 574 479
f 574 575 479
f 575 576 479
f 576 570 479
f 570 473 479
f 577 578 579
f 579 578 580
f 581 582 583
f 583 582 584
f 580 585 579
f 585 580 586
f 586 580 581
f 577 579 587
f 587 579 585
f 584 588 583
f 584 589 588
f 583 588 581
f 589 585 588
f 585 589 587
f 587 589 577
f 581 588 586
f 586 588 585
f 590 591 592
f 592 591 593
f 593 594 592
f 594 593 595
f 595 593 578
f 590 592 596
f 596 592 594
f 578 577 597
f 597 577 598
f 599 594 600
f 594 599 596
f 596 599 590
f 578 600 595
f 595 600 594
f 598 600 597
f 598 599 600
f 597 600 578
f 601 602 603
f 603 602 604
f 605 591 590
f 604 606 603
f 606 604 607
f 607 604 591
f 601 603 608
f 608 603 606
f 591 605 609
f 609 605 610
f 591 611 607
f 607 611 606
f 611 591 612
f 606 613 608
f 606 611 613
f 608 613 601
f 610 614 609
f 610 615 614
f 591 609 616
f 616 609 614
f 615 611 614
f 611 615 613
f 613 615 601
f 614 612 616
f 616 612 591
f 612 614 611
f 617 618 619
f 619 618 620
f 621 602 601
f 620 622 619
f 622 620 623
f 623 620 602
f 617 619 624
f 624 619 622
f 602 621 625
f 625 621 626
f 627 622 628
f 622 627 624
f 624 627 617
f 628 623 629
f 629 623 602
f 623 628 622
f 626 628 625
f 626 627 628
f 602 625 629
f 629 625 628
f 630 631 632
f 633 618 617
f 631 630 634
f 634 630 618
f 618 633 635
f 635 633 636
f 618 637 634
f 637 618 638
f 631 634 639
f 639 634 637
f 636 640 635
f 636 641 640
f 635 640 618
f 641 637 640
f 637 641 639
f 639 641 631
f 618 640 638
f 638 640 637
f 642 643 644
f 644 643 645
f 646 632 631
f 645 647 644
f 647 645 648
f 648 645 632
f 642 644 649
f 649 644 647
f 632 646 650
f 650 646 651
f 652 647 653
f 647 652 649
f 649 652 642
f 632 653 648
f 648 653 647
f 651 653 650
f 651 652 653
f 650 653 632
f 654 643 642
f 655 656 657
f 657 656 658
f 643 654 659
f 659 654 660
f 658 661 657
f 661 658 662
f 662 658 643
f 655 657 663
f 663 657 661
f 660 664 659
f 660 665 664
f 659 664 643
f 665 661 664
f 661 665 663
f 663 665 655
f 643 664 662
f 662 664 661
f 666 667 668
f 668 667 669
f 670 656 655
f 669 671 668
f 671 669 672
f 672 669 656
f 666 668 673
f 673 668 671
f 656 670 674
f 674 670 675
f 671 676 677
f 677 676 678
f 678 673 677
f 677 673 671
f 673 678 666
f 656 676 672
f 672 676 671
f 675 676 674
f 675 678 676
f 674 676 656
f 667 666 679
f 679 666 680
f 681 682 683
f 680 684 679
f 680 685 684
f 679 684 667
f 682 686 687
f 682 681 686
f 687 686 688
f 681 689 686
f 667 689 690
f 690 689 681
f 686 689 688
f 685 688 684
f 688 685 687
f 687 685 682
f 667 684 689
f 689 684 688
f 691 692 693
f 693 692 694
f 681 683 695
f 695 683 696
f 694 697 693
f 697 694 698
f 698 694 681
f 691 693 699
f 699 693 697
f 696 700 695
f 696 701 700
f 695 700 681
f 697 702 703
f 697 704 702
f 703 702 691
f 691 699 703
f 703 699 697
f 704 698 705
f 704 697 698
f 705 698 681
f 701 704 700
f 704 701 702
f 702 701 691
f 681 700 705
f 705 700 704
f 706 707 708
f 708 707 709
f 692 691 710
f 710 691 711
f 709 712 708
f 712 709 713
f 713 709 692
f 706 708 714
f 714 708 712
f 711 715 710
f 711 716 715
f 710 715 692
f 716 712 715
f 712 716 714
f 714 716 706
f 692 715 713
f 713 715 712
f 717 718 719
f 719 718 720
f 720 721 719
f 719 721 717
f 707 706 722
f 722 706 723
f 721 720 724
f 724 720 707
f 723 724 722
f 723 721 724
f 722 724 707
f 725 726 727
f 727 726 728
f 728 729 727
f 729 728 730
f 730 728 718
f 725 727 731
f 731 727 729
f 718 717 732
f 732 717 733
f 734 729 735
f 729 734 731
f 731 734 725
f 718 735 730
f 730 735 729
f 733 735 732
f 733 734 735
f 732 735 718
f 736 737 738
f 738 737 739
f 740 726 725
f 739 741 738
f 741 739 742
f 742 739 726
f 736 738 743
f 743 738 741
f 726 740 744
f 744 740 745
f 726 746 742
f 742 746 741
f 746 726 747
f 741 748 743
f 741 746 748
f 743 748 736
f 745 749 744
f 745 750 749
f 726 744 751
f 751 744 749
f 750 746 749
f 746 750 748
f 748 750 736
f 749 747 751
f 751 747 726
f 747 749 746
f 752 753 754
f 754 753 755
f 756 737 736
f 755 757 754
f 757 755 758
f 758 755 737
f 752 754 759
f 759 754 757
f 737 756 760
f 760 756 761
f 762 757 763
f 757 762 759
f 759 762 752
f 763 758 764
f 764 758 737
f 758 763 757
f 761 763 760
f 761 762 763
f 737 760 764
f 764 760 763
f 765 766 767
f 768 753 752
f 766 765 769
f 769 765 753
f 753 768 770
f 770 768 771
f 753 772 769
f 772 753 773
f 766 769 774
f 774 769 772
f 771 775 770
f 771 776 775
f 770 775 753
f 776 772 775
f 772 776 774
f 774 776 766
f 753 775 773
f 773 775 772
f 777 778 779
f 779 778 780
f 781 767 766
f 780 782 779
f 782 780 783
f 783 780 767
f 777 779 784
f 784 779 782
f 767 781 785
f 785 781 786
f 787 782 788
f 782 787 784
f 784 787 777
f 767 788 783
f 783 788 782
f 786 788 785
f 786 787 788
f 785 788 767
f 789 778 777
f 790 791 792
f 792 791 793
f 778 789 794
f 794 789 795
f 793 796 792
f 796 793 797
f 797 793 778
f 790 792 798
f 798 792 796
f 795 799 794
f 795 800 799
f 794 799 778
f 800 796 799
f 796 800 798
f 798 800 790
f 778 799 797
f 797 799 796
f 801 802 803
f 803 802 804
f 805 791 790
f 804 806 803
f 806 804 807
f 807 804 791
f 801 803 808
f 808 803 806
f 791 805 809
f 809 805 810
f 806 811 812
f 812 811 813
f 813 808 812
f 812 808 806
f 808 813 801
f 791 811 807
f 807 811 806
f 810 811 809
f 810 813 811
f 809 811 791
f 802 801 814
f 814 801 815
f 816 817 818
f 818 817 819
f 815 820 814
f 815 821 820
f 814 820 802
f 819 822 818
f 822 819 823
f 823 819 802
f 816 818 824
f 824 818 822
f 821 825 820
f 825 821 826
f 826 821 827
f 802 820 828
f 828 820 825
f 822 826 829
f 829 826 827
f 826 822 825
f 827 824 829
f 829 824 822
f 824 827 816
f 825 823 828
f 825 822 823
f 828 823 802
f 830 831 832
f 832 831 833
f 817 816 834
f 834 816 835
f 833 836 832
f 836 833 837
f 837 833 817
f 830 832 838
f 838 832 836
f 835 839 834
f 835 840 839
f 834 839 817
f 836 841 842
f 836 843 841
f 842 841 830
f 830 838 842
f 842 838 836
f 843 837 844
f 843 836 837
f 844 837 817
f 840 843 839
f 843 840 841
f 841 840 830
f 817 839 844
f 844 839 843
f 582 581 845
f 845 581 846
f 831 830 847
f 847 830 848
f 846 849 845
f 849 846 850
f 850 846 831
f 582 845 851
f 851 845 849
f 848 852 847
f 848 853 852
f 847 852 831
f 853 849 852
f 849 853 851
f 851 853 582
f 831 852 850
f 850 852 849
f 854 855 856
f 855 857 856
f 857 858 856
f 858 859 856
f 859 860 856
f 860 861 856
f 861 862 856
f 862 863 856
f 864 865 856
f 865 866 856
f 866 867 856
f 867 868 856
f 868 869 856
f 869 870 856
f 870 871 856
f 871 854 856
f 856 872 873
f 872 874 873
f 875 876 874
f 876 877 874
f 877 873 874
f 873 878 879
f 880 881 878
f 881 882 878
f 882 879 878
f 879 883 884
f 883 885 884
f 886 887 885
f 887 884 885
f 884 888 889
f 888 890 889
f 891 892 890
f 892 893 890
f 893 889 890
f 889 894 895
f 894 896 895
f 897 898 896
f 898 899 896
f 899 895 896
f 895 900 901
f 902 903 900
f 903 904 900
f 904 901 900
f 901 905 906
f 905 907 906
f 908 909 907
f 909 906 907
f 906 910 856
f 910 911 856
f 912 913 911
f 913 914 911
f 914 856 911
f 864 856 873
f 906 856 863
f 915 916 873
f 916 917 873
f 917 918 873
f 918 919 873
f 919 920 873
f 920 921 873
f 921 922 873
f 922 864 873
f 901 906 863
f 915 873 879
f 863 923 901
f 923 924 901
f 924 925 901
f 925 926 901
f 926 927 901
f 927 928 901
f 928 929 901
f 929 930 901
f 931 932 879
f 932 933 879
f 933 934 879
f 934 935 879
f 935 936 879
f 936 937 879
f 937 938 879
f 938 915 879
f 895 901 930
f 931 879 884
f 930 939 895
f 939 940 895
f 940 941 895
f 941 942 895
f 942 943 895
f 943 944 895
f 944 945 895
f 945 946 895
f 947 948 884
f 948 949 884
f 949 950 884
f 950 951 884
f 951 952 884
f 952 953 884
f 953 954 884
f 954 931 884
f 889 895 946
f 947 884 889
f 946 955 889
f 955 956 889
f 956 957 889
f 957 958 889
f 958 959 889
f 959 960 889
f 960 961 889
f 961 947 889
f 962 963 964
f 962 965 963
f 965 966 967
f 968 965 969
f 969 965 962
f 966 965 968
f 970 967 966
f 971 967 970
f 972 973 974
f 967 971 975
f 975 971 973
f 976 973 972
f 973 976 975
f 975 976 967
f 977 974 973
f 978 979 980
f 981 974 977
f 982 979 978
f 974 981 983
f 979 983 984
f 984 983 981
f 985 979 982
f 979 985 983
f 983 985 974
f 986 987 988
f 989 980 979
f 990 987 986
f 980 989 991
f 987 991 992
f 992 991 989
f 987 990 993
f 993 990 980
f 980 991 993
f 993 991 987
f 994 995 996
f 997 988 987
f 998 995 994
f 988 997 999
f 995 999 1000
f 1000 999 997
f 995 998 1001
f 1001 998 988
f 988 999 1001
f 1001 999 995
f 1002 1003 1004
f 1005 996 1006
f 1006 996 995
f 1007 1003 1002
f 996 1005 1008
f 1008 1005 1003
f 1003 1007 1008
f 1008 1007 996
f 1009 1004 1003
f 1010 1004 1009
f 1011 1012 1013
f 1004 1010 1014
f 1014 1010 1012
f 1015 1012 1011
f 1012 1015 1014
f 1014 1015 1004
f 1016 1013 1012
f 1017 1018 1019
f 1016 1020 1013
f 1021 1018 1017
f 1022 1020 1023
f 1023 1020 1016
f 1020 1018 1021
f 1018 1020 1022
f 1024 1025 1026
f 1027 1025 1024
f 1028 1019 1029
f 1029 1019 1018
f 1019 1025 1027
f 1025 1019 1028
f 1030 1031 1032
f 1033 1026 1025
f 1034 1031 1030
f 1035 1026 1033
f 1031 1034 1036
f 1036 1034 1026
f 1026 1035 1037
f 1037 1035 1031
f 1026 1037 1036
f 1036 1037 1031
f 1038 1032 1031
f 1039 1040 1041
f 1032 1038 1042
f 1040 1042 1043
f 1043 1042 1038
f 1044 1040 1039
f 1040 1045 1042
f 1042 1045 1032
f 1040 1044 1045
f 1045 1044 1032
f 1032 1045 1045
f 1045 1045 1040
f 1046 1041 1040
f 1047 1041 1046
f 1048 1049 1050
f 1041 1047 1051
f 1051 1047 1049
f 1052 1049 1048
f 1049 1052 1051
f 1051 1052 1041
f 1053 1050 1049
f 1054 1055 1056
f 1057 1050 1053
f 1058 1055 1054
f 1050 1057 1059
f 1055 1059 1060
f 1060 1059 1057
f 1061 1055 1058
f 1055 1061 1059
f 1059 1061 1050
f 1062 1063 1064
f 1065 1063 1062
f 1066 1056 1067
f 1067 1056 1055
f 1056 1063 1065
f 1063 1056 1066
f 1068 1069 1070
f 1071 1069 1068
f 1072 1064 1073
f 1073 1064 1063
f 1064 1069 1071
f 1069 1064 1072
f 1074 1075 1076
f 1077 1070 1078
f 1078 1070 1069
f 1079 1075 1074
f 1070 1077 1080
f 1080 1077 1075
f 1075 1079 1080
f 1080 1079 1070
f 1081 1076 1075
f 1082 1076 1081
f 1083 1084 1085
f 1076 1082 1086
f 1086 1082 1084
f 1087 1084 1083
f 1084 1088 1086
f 1086 1088 1076
f 1084 1087 1088
f 1088 1087 1076
f 1089 1085 1084
f 1090 1091 1092
f 1093 1085 1089
f 1094 1091 1090
f 1095 1085 1093
f 1096 1091 1094
f 1085 1095 1097
f 1097 1095 1091
f 1091 1096 1097
f 1097 1096 1085
f 1098 1099 1100
f 1101 1099 1098
f 1102 1092 1103
f 1103 1092 1091
f 1092 1099 1101
f 1099 1092 1102
f 1104 962 964
f 1105 1100 1099
f 1106 962 1104
f 1100 1107 1108
f 1100 1105 1107
f 1108 1107 962
f 962 1106 1109
f 1109 1106 1100
f 1100 1108 1109
f 1109 1108 962
f 1110 1111 1112
f 1111 1113 1112
f 1113 1114 1112
f 1114 1115 1112
f 1115 1116 1112
f 1116 1117 1112
f 1117 1118 1112
f 1119 1120 1118
f 1120 1121 1118
f 1121 1122 1118
f 1122 1123 1118
f 1123 1124 1118
f 1124 1125 1118
f 1125 1126 1118
f 1126 1112 1118
f 1112 1127 1128
f 1127 1129 1128
f 1129 1130 1128
f 1130 1131 1128
f 1131 1132 1128
f 1132 1133 1128
f 1133 1134 1128
f 1135 1136 1134
f 1136 1137 1134
f 1137 1138 1134
f 1138 1139 1134
f 1139 1140 1134
f 1140 1141 1134
f 1141 1142 1134
f 1142 1128 1134
f 1128 1143 1144
f 1143 1145 1144
f 1145 1146 1144
f 1146 1147 1144
f 1147 1148 1144
f 1148 1149 1144
f 1149 1150 1144
f 1151 1152 1150
f 1152 1153 1150
f 1153 1154 1150
f 1154 1155 1150
f 1155 1156 1150
f 1156 1157 1150
f 1157 1158 1150
f 1158 1144 1150
f 1144 1159 1110
f 1159 1160 1110
f 1160 1161 1110
f 1161 1162 1110
f 1162 1163 1110
f 1163 1164 1110
f 1164 1165 1110
f 1166 1167 1165
f 1167 1168 1165
f 1168 1169 1165
f 1169 1170 1165
f 1170 1171 1165
f 1171 1172 1165
f 1172 1173 1165
f 1173 1110 1165
f 1110 1112 1128
f 1128 1144 1110
f 1174 1175 1176
f 1176 1177 1178
f 1178 1179 1180
f 1181 1174 1176
f 1176 1178 1180
f 1182 1181 1176
f 1176 1180 1183
f 1183 1182 1176

