# https://github.com/mikedh/trimesh
v -0.00000000 -0.10450000 -0.28470000
v 0.00624953 -0.10431296 -0.28470000
v 0.01247670 -0.10375250 -0.28470000
v 0.01865920 -0.10282064 -0.28470000
v 0.02477490 -0.10152071 -0.28470000
v 0.03080192 -0.09985736 -0.28470000
v 0.03671867 -0.09783654 -0.28470000
v 0.04250398 -0.09546550 -0.28470000
v 0.04813714 -0.09275271 -0.28470000
v 0.05359797 -0.08970790 -0.28470000
v 0.05886695 -0.08634195 -0.28470000
v 0.06392519 -0.08266692 -0.28470000
v 0.06875460 -0.07869597 -0.28470000
v 0.07333788 -0.07444330 -0.28470000
v 0.07765863 -0.06992415 -0.28470000
v 0.08170139 -0.06515468 -0.28470000
v 0.08545168 -0.06015198 -0.28470000
v 0.08889607 -0.05493395 -0.28470000
v 0.09202223 -0.04951928 -0.28470000
v 0.09481898 -0.04392733 -0.28470000
v 0.09727631 -0.03817814 -0.28470000
v 0.09938541 -0.03229228 -0.28470000
v 0.10113873 -0.02629082 -0.28470000
v 0.10253001 -0.02019524 -0.28470000
v 0.10355425 -0.01402738 -0.28470000
v 0.10420780 -0.00780929 -0.28470000
v 0.10448831 -0.00156326 -0.28470000
v 0.10439478 0.00468837 -0.28470000
v 0.10392754 0.01092322 -0.28470000
v 0.10308827 0.01711897 -0.28470000
v 0.10187997 0.02325344 -0.28470000
v 0.10030696 0.02930466 -0.28470000
v 0.09837489 0.03525098 -0.28470000
v 0.09609065 0.04107112 -0.28470000
v 0.09346244 0.04674422 -0.28470000
v 0.09049965 0.05225000 -0.28470000
v 0.08721291 0.05756873 -0.28470000
v 0.08361396 0.06268139 -0.28470000
v 0.07971569 0.06756966 -0.28470000
v 0.07553206 0.07221605 -0.28470000
v 0.07107805 0.07660392 -0.28470000
v 0.06636960 0.08071757 -0.28470000
v 0.06142356 0.08454228 -0.28470000
v 0.05625764 0.08806434 -0.28470000
v 0.05089033 0.09127116 -0.28470000
v 0.04534085 0.09415125 -0.28470000
v 0.03962906 0.09669430 -0.28470000
v 0.03377541 0.09889121 -0.28470000
v 0.02780085 0.10073412 -0.28470000
v 0.02172677 0.10221642 -0.28470000
v 0.01557492 0.10333282 -0.28470000
v 0.00936731 0.10407931 -0.28470000
v 0.00312617 0.10445323 -0.28470000
v -0.00312617 0.10445323 -0.28470000
v -0.00936731 0.10407931 -0.28470000
v -0.01557492 0.10333282 -0.28470000
v -0.02172677 0.10221642 -0.28470000
v -0.02780085 0.10073412 -0.28470000
v -0.03377541 0.09889121 -0.28470000
v -0.03962906 0.09669430 -0.28470000
v -0.04534085 0.09415125 -0.28470000
v -0.05089033 0.09127116 -0.28470000
v -0.05625764 0.08806434 -0.28470000
v -0.06142356 0.08454228 -0.28470000
v -0.06636960 0.08071757 -0.28470000
v -0.07107805 0.07660392 -0.28470000
v -0.07553206 0.07221605 -0.28470000
v -0.07971569 0.06756966 -0.28470000
v -0.08361396 0.06268139 -0.28470000
v -0.08721291 0.05756873 -0.28470000
v -0.09049965 0.05225000 -0.28470000
v -0.09346244 0.04674422 -0.28470000
v -0.09609065 0.04107112 -0.28470000
v -0.09837489 0.03525098 -0.28470000
v -0.10030696 0.02930466 -0.28470000
v -0.10187997 0.02325344 -0.28470000
v -0.10308827 0.01711897 -0.28470000
v -0.10392754 0.01092322 -0.28470000
v -0.10439478 0.00468837 -0.28470000
v -0.10448831 -0.00156326 -0.28470000
v -0.10420780 -0.00780929 -0.28470000
v -0.10355425 -0.01402738 -0.28470000
v -0.10253001 -0.02019524 -0.28470000
v -0.10113873 -0.02629082 -0.28470000
v -0.09938541 -0.03229228 -0.28470000
v -0.09727631 -0.03817814 -0.28470000
v -0.09481898 -0.04392733 -0.28470000
v -0.09202223 -0.04951928 -0.28470000
v -0.08889607 -0.05493395 -0.28470000
v -0.08545168 -0.06015198 -0.28470000
v -0.08170139 -0.06515468 -0.28470000
v -0.07765863 -0.06992415 -0.28470000
v -0.07333788 -0.07444330 -0.28470000
v -0.06875460 -0.07869597 -0.28470000
v -0.06392519 -0.08266692 -0.28470000
v -0.05886695 -0.08634195 -0.28470000
v -0.05359797 -0.08970790 -0.28470000
v -0.04813714 -0.09275271 -0.28470000
v -0.04250398 -0.09546550 -0.28470000
v -0.03671867 -0.09783654 -0.28470000
v -0.03080192 -0.09985736 -0.28470000
v -0.02477490 -0.10152071 -0.28470000
v -0.01865920 -0.10282064 -0.28470000
v -0.01247670 -0.10375250 -0.28470000
v -0.00624953 -0.10431296 -0.28470000
v -0.00000000 -0.10450000 -0.30870000
v 0.00624953 -0.10431296 -0.30870000
v 0.01247670 -0.10375250 -0.30870000
v 0.01865920 -0.10282064 -0.30870000
v 0.02477490 -0.10152071 -0.30870000
v 0.03080192 -0.09985736 -0.30870000
v 0.03671867 -0.09783654 -0.30870000
v 0.04250398 -0.09546550 -0.30870000
v 0.04813714 -0.09275271 -0.30870000
v 0.05359797 -0.08970790 -0.30870000
v 0.05886695 -0.08634195 -0.30870000
v 0.06392519 -0.08266692 -0.30870000
v 0.06875460 -0.07869597 -0.30870000
v 0.07333788 -0.07444330 -0.30870000
v 0.07765863 -0.06992415 -0.30870000
v 0.08170139 -0.06515468 -0.30870000
v 0.08545168 -0.06015198 -0.30870000
v 0.08889607 -0.05493395 -0.30870000
v 0.09202223 -0.04951928 -0.30870000
v 0.09481898 -0.04392733 -0.30870000
v 0.09727631 -0.03817814 -0.30870000
v 0.09938541 -0.03229228 -0.30870000
v 0.10113873 -0.02629082 -0.30870000
v 0.10253001 -0.02019524 -0.30870000
v 0.10355425 -0.01402738 -0.30870000
v 0.10420780 -0.00780929 -0.30870000
v 0.10448831 -0.00156326 -0.30870000
v 0.10439478 0.00468837 -0.30870000
v 0.10392754 0.01092322 -0.30870000
v 0.10308827 0.01711897 -0.30870000
v 0.10187997 0.02325344 -0.30870000
v 0.10030696 0.02930466 -0.30870000
v 0.09837489 0.03525098 -0.30870000
v 0.09609065 0.04107112 -0.30870000
v 0.09346244 0.04674422 -0.30870000
v 0.09049965 0.05225000 -0.30870000
v 0.08721291 0.05756873 -0.30870000
v 0.08361396 0.06268139 -0.30870000
v 0.07971569 0.06756966 -0.30870000
v 0.07553206 0.07221605 -0.30870000
v 0.07107805 0.07660392 -0.30870000
v 0.06636960 0.08071757 -0.30870000
v 0.06142356 0.08454228 -0.30870000
v 0.05625764 0.08806434 -0.30870000
v 0.05089033 0.09127116 -0.30870000
v 0.04534085 0.09415125 -0.30870000
v 0.03962906 0.09669430 -0.30870000
v 0.03377541 0.09889121 -0.30870000
v 0.02780085 0.10073412 -0.30870000
v 0.02172677 0.10221642 -0.30870000
v 0.01557492 0.10333282 -0.30870000
v 0.00936731 0.10407931 -0.30870000
v 0.00312617 0.10445323 -0.30870000
v -0.00312617 0.10445323 -0.30870000
v -0.00936731 0.10407931 -0.30870000
v -0.01557492 0.10333282 -0.30870000
v -0.02172677 0.10221642 -0.30870000
v -0.02780085 0.10073412 -0.30870000
v -0.03377541 0.09889121 -0.30870000
v -0.03962906 0.09669430 -0.30870000
v -0.04534085 0.09415125 -0.30870000
v -0.05089033 0.09127116 -0.30870000
v -0.05625764 0.08806434 -0.30870000
v -0.06142356 0.08454228 -0.30870000
v -0.06636960 0.08071757 -0.30870000
v -0.07107805 0.07660392 -0.30870000
v -0.07553206 0.07221605 -0.30870000
v -0.07971569 0.06756966 -0.30870000
v -0.08361396 0.06268139 -0.30870000
v -0.08721291 0.05756873 -0.30870000
v -0.09049965 0.05225000 -0.30870000
v -0.09346244 0.04674422 -0.30870000
v -0.09609065 0.04107112 -0.30870000
v -0.09837489 0.03525098 -0.30870000
v -0.10030696 0.02930466 -0.30870000
v -0.10187997 0.02325344 -0.30870000
v -0.10308827 0.01711897 -0.30870000
v -0.10392754 0.01092322 -0.30870000
v -0.10439478 0.00468837 -0.30870000
v -0.10448831 -0.00156326 -0.30870000
v -0.10420780 -0.00780929 -0.30870000
v -0.10355425 -0.01402738 -0.30870000
v -0.10253001 -0.02019524 -0.30870000
v -0.10113873 -0.02629082 -0.30870000
v -0.09938541 -0.03229228 -0.30870000
v -0.09727631 -0.03817814 -0.30870000
v -0.09481898 -0.04392733 -0.30870000
v -0.09202223 -0.04951928 -0.30870000
v -0.08889607 -0.05493395 -0.30870000
v -0.08545168 -0.06015198 -0.30870000
v -0.08170139 -0.06515468 -0.30870000
v -0.07765863 -0.06992415 -0.30870000
v -0.07333788 -0.07444330 -0.30870000
v -0.06875460 -0.07869597 -0.30870000
v -0.06392519 -0.08266692 -0.30870000
v -0.05886695 -0.08634195 -0.30870000
v -0.05359797 -0.08970790 -0.30870000
v -0.04813714 -0.09275271 -0.30870000
v -0.04250398 -0.09546550 -0.30870000
v -0.03671867 -0.09783654 -0.30870000
v -0.03080192 -0.09985736 -0.30870000
v -0.02477490 -0.10152071 -0.30870000
v -0.01865920 -0.10282064 -0.30870000
v -0.01247670 -0.10375250 -0.30870000
v -0.00624953 -0.10431296 -0.30870000
v -0.00000000 -0.10350000 0.32200000
v 0.00618973 -0.10331475 0.32200000
v 0.01235730 -0.10275966 0.32200000
v 0.01848064 -0.10183671 0.32200000
v 0.02453782 -0.10054922 0.32200000
v 0.03050716 -0.09890179 0.32200000
v 0.03636729 -0.09690031 0.32200000
v 0.04209724 -0.09455195 0.32200000
v 0.04767649 -0.09186513 0.32200000
v 0.05308508 -0.08884945 0.32200000
v 0.05830363 -0.08551571 0.32200000
v 0.06331346 -0.08187585 0.32200000
v 0.06809666 -0.07794290 0.32200000
v 0.07263608 -0.07373093 0.32200000
v 0.07691549 -0.06925502 0.32200000
v 0.08091956 -0.06453119 0.32200000
v 0.08463396 -0.05957637 0.32200000
v 0.08804539 -0.05440827 0.32200000
v 0.09114164 -0.04904541 0.32200000
v 0.09391162 -0.04350697 0.32200000
v 0.09634543 -0.03781280 0.32200000
v 0.09843435 -0.03198326 0.32200000
v 0.10017090 -0.02603923 0.32200000
v 0.10154886 -0.02000199 0.32200000
v 0.10256330 -0.01389314 0.32200000
v 0.10321059 -0.00773456 0.32200000
v 0.10348842 -0.00154830 0.32200000
v 0.10339578 0.00464351 0.32200000
v 0.10293302 0.01081870 0.32200000
v 0.10210178 0.01695515 0.32200000
v 0.10090504 0.02303092 0.32200000
v 0.09934709 0.02902423 0.32200000
v 0.09743350 0.03491365 0.32200000
v 0.09517112 0.04067809 0.32200000
v 0.09256806 0.04629691 0.32200000
v 0.08963363 0.05175000 0.32200000
v 0.08637833 0.05701784 0.32200000
v 0.08281382 0.06208157 0.32200000
v 0.07895286 0.06692306 0.32200000
v 0.07480927 0.07152498 0.32200000
v 0.07039788 0.07587087 0.32200000
v 0.06573448 0.07994516 0.32200000
v 0.06083577 0.08373326 0.32200000
v 0.05571929 0.08722162 0.32200000
v 0.05040334 0.09039775 0.32200000
v 0.04490697 0.09325028 0.32200000
v 0.03924984 0.09576900 0.32200000
v 0.03345220 0.09794488 0.32200000
v 0.02753481 0.09977016 0.32200000
v 0.02151886 0.10123828 0.32200000
v 0.01542587 0.10234399 0.32200000
v 0.00927767 0.10308334 0.32200000
v 0.00309625 0.10345368 0.32200000
v -0.00309625 0.10345368 0.32200000
v -0.00927767 0.10308334 0.32200000
v -0.01542587 0.10234399 0.32200000
v -0.02151886 0.10123828 0.32200000
v -0.02753481 0.09977016 0.32200000
v -0.03345220 0.09794488 0.32200000
v -0.03924984 0.09576900 0.32200000
v -0.04490697 0.09325028 0.32200000
v -0.05040334 0.09039775 0.32200000
v -0.05571929 0.08722162 0.32200000
v -0.06083577 0.08373326 0.32200000
v -0.06573448 0.07994516 0.32200000
v -0.07039788 0.07587087 0.32200000
v -0.07480927 0.07152498 0.32200000
v -0.07895286 0.06692306 0.32200000
v -0.08281382 0.06208157 0.32200000
v -0.08637833 0.05701784 0.32200000
v -0.08963363 0.05175000 0.32200000
v -0.09256806 0.04629691 0.32200000
v -0.09517112 0.04067809 0.32200000
v -0.09743350 0.03491365 0.32200000
v -0.09934709 0.02902423 0.32200000
v -0.10090504 0.02303092 0.32200000
v -0.10210178 0.01695515 0.32200000
v -0.10293302 0.01081870 0.32200000
v -0.10339578 0.00464351 0.32200000
v -0.10348842 -0.00154830 0.32200000
v -0.10321059 -0.00773456 0.32200000
v -0.10256330 -0.01389314 0.32200000
v -0.10154886 -0.02000199 0.32200000
v -0.10017090 -0.02603923 0.32200000
v -0.09843435 -0.03198326 0.32200000
v -0.09634543 -0.03781280 0.32200000
v -0.09391162 -0.04350697 0.32200000
v -0.09114164 -0.04904541 0.32200000
v -0.08804539 -0.05440827 0.32200000
v -0.08463396 -0.05957637 0.32200000
v -0.08091956 -0.06453119 0.32200000
v -0.07691549 -0.06925502 0.32200000
v -0.07263608 -0.07373093 0.32200000
v -0.06809666 -0.07794290 0.32200000
v -0.06331346 -0.08187585 0.32200000
v -0.05830363 -0.08551571 0.32200000
v -0.05308508 -0.08884945 0.32200000
v -0.04767649 -0.09186513 0.32200000
v -0.04209724 -0.09455195 0.32200000
v -0.03636729 -0.09690031 0.32200000
v -0.03050716 -0.09890179 0.32200000
v -0.02453782 -0.10054922 0.32200000
v -0.01848064 -0.10183671 0.32200000
v -0.01235730 -0.10275966 0.32200000
v -0.00618973 -0.10331475 0.32200000
v -0.00000000 -0.10350000 0.30000000
v 0.00618973 -0.10331475 0.30000000
v 0.01235730 -0.10275966 0.30000000
v 0.01848064 -0.10183671 0.30000000
v 0.02453782 -0.10054922 0.30000000
v 0.03050716 -0.09890179 0.30000000
v 0.03636729 -0.09690031 0.30000000
v 0.04209724 -0.09455195 0.30000000
v 0.04767649 -0.09186513 0.30000000
v 0.05308508 -0.08884945 0.30000000
v 0.05830363 -0.08551571 0.30000000
v 0.06331346 -0.08187585 0.30000000
v 0.06809666 -0.07794290 0.30000000
v 0.07263608 -0.07373093 0.30000000
v 0.07691549 -0.06925502 0.30000000
v 0.08091956 -0.06453119 0.30000000
v 0.08463396 -0.05957637 0.30000000
v 0.08804539 -0.05440827 0.30000000
v 0.09114164 -0.04904541 0.30000000
v 0.09391162 -0.04350697 0.30000000
v 0.09634543 -0.03781280 0.30000000
v 0.09843435 -0.03198326 0.30000000
v 0.10017090 -0.02603923 0.30000000
v 0.10154886 -0.02000199 0.30000000
v 0.10256330 -0.01389314 0.30000000
v 0.10321059 -0.00773456 0.30000000
v 0.10348842 -0.00154830 0.30000000
v 0.10339578 0.00464351 0.30000000
v 0.10293302 0.01081870 0.30000000
v 0.10210178 0.01695515 0.30000000
v 0.10090504 0.02303092 0.30000000
v 0.09934709 0.02902423 0.30000000
v 0.09743350 0.03491365 0.30000000
v 0.09517112 0.04067809 0.30000000
v 0.09256806 0.04629691 0.30000000
v 0.08963363 0.05175000 0.30000000
v 0.08637833 0.05701784 0.30000000
v 0.08281382 0.06208157 0.30000000
v 0.07895286 0.06692306 0.30000000
v 0.07480927 0.07152498 0.30000000
v 0.07039788 0.07587087 0.30000000
v 0.06573448 0.07994516 0.30000000
v 0.06083577 0.08373326 0.30000000
v 0.05571929 0.08722162 0.30000000
v 0.05040334 0.09039775 0.30000000
v 0.04490697 0.09325028 0.30000000
v 0.03924984 0.09576900 0.30000000
v 0.03345220 0.09794488 0.30000000
v 0.02753481 0.09977016 0.30000000
v 0.02151886 0.10123828 0.30000000
v 0.01542587 0.10234399 0.30000000
v 0.00927767 0.10308334 0.30000000
v 0.00309625 0.10345368 0.30000000
v -0.00309625 0.10345368 0.30000000
v -0.00927767 0.10308334 0.30000000
v -0.01542587 0.10234399 0.30000000
v -0.02151886 0.10123828 0.30000000
v -0.02753481 0.09977016 0.30000000
v -0.03345220 0.09794488 0.30000000
v -0.03924984 0.09576900 0.30000000
v -0.04490697 0.09325028 0.30000000
v -0.05040334 0.09039775 0.30000000
v -0.05571929 0.08722162 0.30000000
v -0.06083577 0.08373326 0.30000000
v -0.06573448 0.07994516 0.30000000
v -0.07039788 0.07587087 0.30000000
v -0.07480927 0.07152498 0.30000000
v -0.07895286 0.06692306 0.30000000
v -0.08281382 0.06208157 0.30000000
v -0.08637833 0.05701784 0.30000000
v -0.08963363 0.05175000 0.30000000
v -0.09256806 0.04629691 0.30000000
v -0.09517112 0.04067809 0.30000000
v -0.09743350 0.03491365 0.30000000
v -0.09934709 0.02902423 0.30000000
v -0.10090504 0.02303092 0.30000000
v -0.10210178 0.01695515 0.30000000
v -0.10293302 0.01081870 0.30000000
v -0.10339578 0.00464351 0.30000000
v -0.10348842 -0.00154830 0.30000000
v -0.10321059 -0.00773456 0.30000000
v -0.10256330 -0.01389314 0.30000000
v -0.10154886 -0.02000199 0.30000000
v -0.10017090 -0.02603923 0.30000000
v -0.09843435 -0.03198326 0.30000000
v -0.09634543 -0.03781280 0.30000000
v -0.09391162 -0.04350697 0.30000000
v -0.09114164 -0.04904541 0.30000000
v -0.08804539 -0.05440827 0.30000000
v -0.08463396 -0.05957637 0.30000000
v -0.08091956 -0.06453119 0.30000000
v -0.07691549 -0.06925502 0.30000000
v -0.07263608 -0.07373093 0.30000000
v -0.06809666 -0.07794290 0.30000000
v -0.06331346 -0.08187585 0.30000000
v -0.05830363 -0.08551571 0.30000000
v -0.05308508 -0.08884945 0.30000000
v -0.04767649 -0.09186513 0.30000000
v -0.04209724 -0.09455195 0.30000000
v -0.03636729 -0.09690031 0.30000000
v -0.03050716 -0.09890179 0.30000000
v -0.02453782 -0.10054922 0.30000000
v -0.01848064 -0.10183671 0.30000000
v -0.01235730 -0.10275966 0.30000000
v -0.00618973 -0.10331475 0.30000000
v -0.00000000 -0.10400000 1.06400000
v 0.00621963 -0.10381385 1.06400000
v 0.01241700 -0.10325608 1.06400000
v 0.01856992 -0.10232868 1.06400000
v 0.02465636 -0.10103496 1.06400000
v 0.03065454 -0.09937957 1.06400000
v 0.03654298 -0.09736843 1.06400000
v 0.04230061 -0.09500873 1.06400000
v 0.04790681 -0.09230892 1.06400000
v 0.05334152 -0.08927867 1.06400000
v 0.05858529 -0.08592883 1.06400000
v 0.06361933 -0.08227139 1.06400000
v 0.06842563 -0.07831943 1.06400000
v 0.07298698 -0.07408711 1.06400000
v 0.07728706 -0.06958958 1.06400000
v 0.08131047 -0.06484294 1.06400000
v 0.08504282 -0.05986417 1.06400000
v 0.08847073 -0.05467111 1.06400000
v 0.09158194 -0.04928234 1.06400000
v 0.09436530 -0.04371715 1.06400000
v 0.09681087 -0.03799547 1.06400000
v 0.09890988 -0.03213777 1.06400000
v 0.10065481 -0.02616502 1.06400000
v 0.10203943 -0.02009862 1.06400000
v 0.10305878 -0.01396026 1.06400000
v 0.10370919 -0.00777193 1.06400000
v 0.10398836 -0.00155578 1.06400000
v 0.10389528 0.00466594 1.06400000
v 0.10343028 0.01087096 1.06400000
v 0.10259502 0.01703706 1.06400000
v 0.10139250 0.02314218 1.06400000
v 0.09982703 0.02916445 1.06400000
v 0.09790419 0.03508232 1.06400000
v 0.09563089 0.04087460 1.06400000
v 0.09301525 0.04652057 1.06400000
v 0.09006664 0.05200000 1.06400000
v 0.08679562 0.05729329 1.06400000
v 0.08321389 0.06238148 1.06400000
v 0.07933428 0.06724636 1.06400000
v 0.07517067 0.07187052 1.06400000
v 0.07073796 0.07623739 1.06400000
v 0.06605204 0.08033136 1.06400000
v 0.06112967 0.08413777 1.06400000
v 0.05598846 0.08764298 1.06400000
v 0.05064684 0.09083445 1.06400000
v 0.04512391 0.09370076 1.06400000
v 0.03943945 0.09623165 1.06400000
v 0.03361380 0.09841805 1.06400000
v 0.02766783 0.10025214 1.06400000
v 0.02162282 0.10172735 1.06400000
v 0.01550040 0.10283841 1.06400000
v 0.00932249 0.10358133 1.06400000
v 0.00311121 0.10395345 1.06400000
v -0.00311121 0.10395345 1.06400000
v -0.00932249 0.10358133 1.06400000
v -0.01550040 0.10283841 1.06400000
v -0.02162282 0.10172735 1.06400000
v -0.02766783 0.10025214 1.06400000
v -0.03361380 0.09841805 1.06400000
v -0.03943945 0.09623165 1.06400000
v -0.04512391 0.09370076 1.06400000
v -0.05064684 0.09083445 1.06400000
v -0.05598846 0.08764298 1.06400000
v -0.06112967 0.08413777 1.06400000
v -0.06605204 0.08033136 1.06400000
v -0.07073796 0.07623739 1.06400000
v -0.07517067 0.07187052 1.06400000
v -0.07933428 0.06724636 1.06400000
v -0.08321389 0.06238148 1.06400000
v -0.08679562 0.05729329 1.06400000
v -0.09006664 0.05200000 1.06400000
v -0.09301525 0.04652057 1.06400000
v -0.09563089 0.04087460 1.06400000
v -0.09790419 0.03508232 1.06400000
v -0.09982703 0.02916445 1.06400000
v -0.10139250 0.02314218 1.06400000
v -0.10259502 0.01703706 1.06400000
v -0.10343028 0.01087096 1.06400000
v -0.10389528 0.00466594 1.06400000
v -0.10398836 -0.00155578 1.06400000
v -0.10370919 -0.00777193 1.06400000
v -0.10305878 -0.01396026 1.06400000
v -0.10203943 -0.02009862 1.06400000
v -0.10065481 -0.02616502 1.06400000
v -0.09890988 -0.03213777 1.06400000
v -0.09681087 -0.03799547 1.06400000
v -0.09436530 -0.04371715 1.06400000
v -0.09158194 -0.04928234 1.06400000
v -0.08847073 -0.05467111 1.06400000
v -0.08504282 -0.05986417 1.06400000
v -0.08131047 -0.06484294 1.06400000
v -0.07728706 -0.06958958 1.06400000
v -0.07298698 -0.07408711 1.06400000
v -0.06842563 -0.07831943 1.06400000
v -0.06361933 -0.08227139 1.06400000
v -0.05858529 -0.08592883 1.06400000
v -0.05334152 -0.08927867 1.06400000
v -0.04790681 -0.09230892 1.06400000
v -0.04230061 -0.09500873 1.06400000
v -0.03654298 -0.09736843 1.06400000
v -0.03065454 -0.09937957 1.06400000
v -0.02465636 -0.10103496 1.06400000
v -0.01856992 -0.10232868 1.06400000
v -0.01241700 -0.10325608 1.06400000
v -0.00621963 -0.10381385 1.06400000
v -0.00000000 -0.10400000 1.04000000
v 0.00621963 -0.10381385 1.04000000
v 0.01241700 -0.10325608 1.04000000
v 0.01856992 -0.10232868 1.04000000
v 0.02465636 -0.10103496 1.04000000
v 0.03065454 -0.09937957 1.04000000
v 0.03654298 -0.09736843 1.04000000
v 0.04230061 -0.09500873 1.04000000
v 0.04790681 -0.09230892 1.04000000
v 0.05334152 -0.08927867 1.04000000
v 0.05858529 -0.08592883 1.04000000
v 0.06361933 -0.08227139 1.04000000
v 0.06842563 -0.07831943 1.04000000
v 0.07298698 -0.07408711 1.04000000
v 0.07728706 -0.06958958 1.04000000
v 0.08131047 -0.06484294 1.04000000
v 0.08504282 -0.05986417 1.04000000
v 0.08847073 -0.05467111 1.04000000
v 0.09158194 -0.04928234 1.04000000
v 0.09436530 -0.04371715 1.04000000
v 0.09681087 -0.03799547 1.04000000
v 0.09890988 -0.03213777 1.04000000
v 0.10065481 -0.02616502 1.04000000
v 0.10203943 -0.02009862 1.04000000
v 0.10305878 -0.01396026 1.04000000
v 0.10370919 -0.00777193 1.04000000
v 0.10398836 -0.00155578 1.04000000
v 0.10389528 0.00466594 1.04000000
v 0.10343028 0.01087096 1.04000000
v 0.10259502 0.01703706 1.04000000
v 0.10139250 0.02314218 1.04000000
v 0.09982703 0.02916445 1.04000000
v 0.09790419 0.03508232 1.04000000
v 0.09563089 0.04087460 1.04000000
v 0.09301525 0.04652057 1.04000000
v 0.09006664 0.05200000 1.04000000
v 0.08679562 0.05729329 1.04000000
v 0.08321389 0.06238148 1.04000000
v 0.07933428 0.06724636 1.04000000
v 0.07517067 0.07187052 1.04000000
v 0.07073796 0.07623739 1.04000000
v 0.06605204 0.08033136 1.04000000
v 0.06112967 0.08413777 1.04000000
v 0.05598846 0.08764298 1.04000000
v 0.05064684 0.09083445 1.04000000
v 0.04512391 0.09370076 1.04000000
v 0.03943945 0.09623165 1.04000000
v 0.03361380 0.09841805 1.04000000
v 0.02766783 0.10025214 1.04000000
v 0.02162282 0.10172735 1.04000000
v 0.01550040 0.10283841 1.04000000
v 0.00932249 0.10358133 1.04000000
v 0.00311121 0.10395345 1.04000000
v -0.00311121 0.10395345 1.04000000
v -0.00932249 0.10358133 1.04000000
v -0.01550040 0.10283841 1.04000000
v -0.02162282 0.10172735 1.04000000
v -0.02766783 0.10025214 1.04000000
v -0.03361380 0.09841805 1.04000000
v -0.03943945 0.09623165 1.04000000
v -0.04512391 0.09370076 1.04000000
v -0.05064684 0.09083445 1.04000000
v -0.05598846 0.08764298 1.04000000
v -0.06112967 0.08413777 1.04000000
v -0.06605204 0.08033136 1.04000000
v -0.07073796 0.07623739 1.04000000
v -0.07517067 0.07187052 1.04000000
v -0.07933428 0.06724636 1.04000000
v -0.08321389 0.06238148 1.04000000
v -0.08679562 0.05729329 1.04000000
v -0.09006664 0.05200000 1.04000000
v -0.09301525 0.04652057 1.04000000
v -0.09563089 0.04087460 1.04000000
v -0.09790419 0.03508232 1.04000000
v -0.09982703 0.02916445 1.04000000
v -0.10139250 0.02314218 1.04000000
v -0.10259502 0.01703706 1.04000000
v -0.10343028 0.01087096 1.04000000
v -0.10389528 0.00466594 1.04000000
v -0.10398836 -0.00155578 1.04000000
v -0.10370919 -0.00777193 1.04000000
v -0.10305878 -0.01396026 1.04000000
v -0.10203943 -0.02009862 1.04000000
v -0.10065481 -0.02616502 1.04000000
v -0.09890988 -0.03213777 1.04000000
v -0.09681087 -0.03799547 1.04000000
v -0.09436530 -0.04371715 1.04000000
v -0.09158194 -0.04928234 1.04000000
v -0.08847073 -0.05467111 1.04000000
v -0.08504282 -0.05986417 1.04000000
v -0.08131047 -0.06484294 1.04000000
v -0.07728706 -0.06958958 1.04000000
v -0.07298698 -0.07408711 1.04000000
v -0.06842563 -0.07831943 1.04000000
v -0.06361933 -0.08227139 1.04000000
v -0.05858529 -0.08592883 1.04000000
v -0.05334152 -0.08927867 1.04000000
v -0.04790681 -0.09230892 1.04000000
v -0.04230061 -0.09500873 1.04000000
v -0.03654298 -0.09736843 1.04000000
v -0.03065454 -0.09937957 1.04000000
v -0.02465636 -0.10103496 1.04000000
v -0.01856992 -0.10232868 1.04000000
v -0.01241700 -0.10325608 1.04000000
v -0.00621963 -0.10381385 1.04000000
v -0.00500000 0.09950000 -0.28000000
v 0.00500000 0.09950000 -0.28000000
v 0.00500000 0.10110000 -0.26400000
v -0.00500000 0.10110000 -0.26400000
v 0.00500000 0.10400000 -0.24800000
v -0.00500000 0.10400000 -0.24800000
v 0.00500000 0.10400000 0.60800000
v -0.00500000 0.10400000 0.60800000
v 0.00500000 0.10110000 0.62400000
v -0.00500000 0.10110000 0.62400000
v 0.00500000 0.09950000 0.64000000
v -0.00500000 0.09950000 0.64000000
v -0.00900000 0.09950000 -0.09700000
v 0.00900000 0.09950000 -0.09700000
v 0.00900000 0.10850000 -0.09000000
v -0.00900000 0.10850000 -0.09000000
v 0.00900000 0.10850000 -0.06000000
v -0.00900000 0.10850000 -0.06000000
v 0.00900000 0.09950000 -0.05300000
v -0.00900000 0.09950000 -0.05300000
v -0.00900000 0.09950000 0.38800000
v 0.00900000 0.09950000 0.38800000
v 0.00900000 0.10850000 0.39500000
v -0.00900000 0.10850000 0.39500000
v 0.00900000 0.10850000 0.42500000
v -0.00900000 0.10850000 0.42500000
v 0.00900000 0.09950000 0.43200000
v -0.00900000 0.09950000 0.43200000
v 0.00450000 0.09990000 0.12000000
v 0.00950000 0.09990000 0.12000000
v 0.00950000 0.10250000 0.13200000
v 0.00450000 0.10250000 0.13200000
v 0.00950000 0.10250000 0.62800000
v 0.00450000 0.10250000 0.62800000
v 0.00950000 0.09990000 0.64000000
v 0.00450000 0.09990000 0.64000000
f 2 1 106
f 2 106 107
f 2 107 108
f 3 108 109
f 3 2 108
f 4 3 109
f 5 109 110
f 5 4 109
f 6 110 111
f 6 111 112
f 6 5 110
f 7 6 112
f 8 112 113
f 8 7 112
f 9 113 114
f 9 8 113
f 10 114 115
f 10 9 114
f 11 115 116
f 11 10 115
f 12 116 117
f 12 11 116
f 13 117 118
f 13 12 117
f 14 118 119
f 14 13 118
f 15 119 120
f 15 14 119
f 16 120 121
f 16 15 120
f 17 121 122
f 17 16 121
f 18 122 123
f 18 123 124
f 18 17 122
f 19 18 124
f 20 124 125
f 20 19 124
f 21 125 126
f 21 20 125
f 22 126 127
f 22 127 128
f 22 21 126
f 23 22 128
f 23 128 129
f 24 23 129
f 25 24 129
f 25 129 130
f 26 25 130
f 26 130 131
f 27 26 131
f 27 131 132
f 28 27 132
f 28 132 133
f 28 133 134
f 29 28 134
f 29 134 135
f 30 29 135
f 31 30 135
f 31 135 136
f 31 136 137
f 32 137 138
f 32 31 137
f 33 32 138
f 34 138 139
f 34 33 138
f 35 139 140
f 35 140 141
f 35 34 139
f 36 35 141
f 37 141 142
f 37 36 141
f 38 142 143
f 38 37 142
f 39 143 144
f 39 38 143
f 40 144 145
f 40 39 144
f 41 145 146
f 41 40 145
f 42 146 147
f 42 41 146
f 43 147 148
f 43 42 147
f 44 148 149
f 44 43 148
f 45 149 150
f 45 44 149
f 46 150 151
f 46 45 150
f 47 151 152
f 47 46 151
f 48 152 153
f 48 47 152
f 49 48 153
f 49 153 154
f 49 154 155
f 50 49 155
f 51 50 155
f 51 155 156
f 52 51 156
f 52 156 157
f 53 52 157
f 53 157 158
f 54 53 158
f 54 158 159
f 55 54 159
f 55 159 160
f 56 55 160
f 56 160 161
f 57 56 161
f 57 161 162
f 57 162 163
f 58 57 163
f 59 58 163
f 59 163 164
f 60 59 164
f 60 164 165
f 61 60 165
f 61 165 166
f 62 61 166
f 62 166 167
f 63 62 167
f 63 167 168
f 64 63 168
f 64 168 169
f 65 64 169
f 65 169 170
f 66 170 171
f 66 65 170
f 67 171 172
f 67 172 173
f 67 66 171
f 68 67 173
f 69 173 174
f 69 68 173
f 70 174 175
f 70 175 176
f 70 69 174
f 71 70 176
f 72 176 177
f 72 71 176
f 73 72 177
f 73 177 178
f 74 73 178
f 74 178 179
f 75 74 179
f 75 179 180
f 76 75 180
f 76 180 181
f 77 76 181
f 77 181 182
f 78 77 182
f 78 182 183
f 79 78 183
f 79 183 184
f 80 79 184
f 80 184 185
f 81 80 185
f 81 185 186
f 82 81 186
f 82 186 187
f 83 82 187
f 83 187 188
f 84 83 188
f 84 188 189
f 85 84 189
f 85 189 190
f 86 85 190
f 86 190 191
f 87 86 191
f 87 191 192
f 88 87 192
f 88 192 193
f 89 88 193
f 89 193 194
f 90 89 194
f 90 194 195
f 91 90 195
f 91 195 196
f 92 91 196
f 92 196 197
f 93 92 197
f 93 197 198
f 94 93 198
f 94 198 199
f 95 94 199
f 95 199 200
f 96 95 200
f 96 200 201
f 97 201 202
f 97 96 201
f 98 202 203
f 98 97 202
f 99 98 203
f 99 203 204
f 100 204 205
f 100 99 204
f 101 205 206
f 101 100 205
f 102 206 207
f 102 101 206
f 103 207 208
f 103 102 207
f 104 208 209
f 104 209 210
f 104 103 208
f 105 104 210
f 1 210 106
f 1 105 210
f 64 65 66
f 61 64 66
f 61 62 63
f 61 63 64
f 61 66 67
f 61 67 68
f 73 68 69
f 73 69 70
f 73 70 71
f 73 71 72
f 74 68 73
f 58 59 60
f 58 60 61
f 76 61 68
f 76 68 74
f 76 74 75
f 54 55 56
f 81 76 77
f 81 77 78
f 81 78 79
f 81 79 80
f 52 53 54
f 52 56 57
f 52 54 56
f 52 57 58
f 83 81 82
f 84 76 81
f 84 81 83
f 47 48 49
f 47 49 50
f 88 84 85
f 88 85 86
f 88 86 87
f 45 46 47
f 44 50 51
f 44 47 50
f 44 45 47
f 91 84 88
f 91 76 84
f 91 88 89
f 91 89 90
f 42 43 44
f 42 51 52
f 42 44 51
f 93 61 76
f 93 76 91
f 93 91 92
f 96 93 94
f 96 94 95
f 37 38 39
f 37 39 40
f 98 96 97
f 99 96 98
f 34 35 36
f 34 36 37
f 100 93 96
f 100 96 99
f 100 58 61
f 100 61 93
f 31 32 33
f 103 101 102
f 30 37 40
f 30 33 34
f 30 34 37
f 30 40 41
f 30 31 33
f 104 101 103
f 29 30 41
f 29 41 42
f 1 58 100
f 1 104 105
f 1 42 52
f 1 101 104
f 1 52 58
f 1 100 101
f 26 27 28
f 26 28 29
f 3 1 2
f 3 42 1
f 24 25 26
f 5 3 4
f 22 23 24
f 22 24 26
f 7 5 6
f 7 3 5
f 9 7 8
f 9 3 7
f 19 20 21
f 19 21 22
f 18 19 22
f 11 9 10
f 12 9 11
f 12 3 9
f 13 3 12
f 13 29 42
f 13 42 3
f 15 16 17
f 15 17 18
f 15 22 26
f 15 18 22
f 14 26 29
f 14 15 26
f 14 29 13
f 173 172 171
f 169 171 170
f 176 174 173
f 176 175 174
f 166 173 171
f 166 171 169
f 166 168 167
f 166 169 168
f 179 176 173
f 179 177 176
f 179 178 177
f 163 165 164
f 163 166 165
f 181 173 166
f 181 179 173
f 181 180 179
f 184 181 166
f 184 182 181
f 184 183 182
f 185 184 166
f 186 185 166
f 157 159 158
f 157 160 159
f 157 161 160
f 157 162 161
f 155 157 156
f 155 163 162
f 155 162 157
f 189 186 166
f 189 187 186
f 189 188 187
f 152 154 153
f 152 155 154
f 151 155 152
f 193 189 166
f 193 190 189
f 193 191 190
f 193 192 191
f 150 155 151
f 149 163 155
f 149 155 150
f 198 193 166
f 198 166 163
f 198 194 193
f 198 195 194
f 198 196 195
f 198 197 196
f 145 147 146
f 145 148 147
f 145 149 148
f 201 199 198
f 201 200 199
f 142 144 143
f 203 202 201
f 139 141 140
f 139 142 141
f 205 204 203
f 206 203 201
f 206 205 203
f 207 206 201
f 136 138 137
f 135 149 145
f 135 144 142
f 135 142 139
f 135 139 138
f 135 145 144
f 135 138 136
f 209 208 207
f 209 207 201
f 210 209 201
f 210 201 198
f 210 198 163
f 131 133 132
f 131 134 133
f 131 135 134
f 131 149 135
f 108 107 106
f 108 106 210
f 108 210 163
f 110 109 108
f 128 130 129
f 128 131 130
f 112 111 110
f 126 128 127
f 113 112 110
f 115 114 113
f 123 125 124
f 123 126 125
f 116 113 110
f 116 115 113
f 122 128 126
f 122 126 123
f 117 108 163
f 117 110 108
f 117 163 149
f 117 116 110
f 121 128 122
f 121 131 128
f 118 149 131
f 118 117 149
f 119 131 121
f 119 118 131
f 119 121 120
f 212 211 316
f 212 316 317
f 213 317 318
f 213 318 319
f 213 212 317
f 214 213 319
f 215 319 320
f 215 214 319
f 216 320 321
f 216 215 320
f 217 321 322
f 217 216 321
f 218 322 323
f 218 217 322
f 219 323 324
f 219 324 325
f 219 218 323
f 220 219 325
f 221 325 326
f 221 220 325
f 222 326 327
f 222 221 326
f 223 327 328
f 223 328 329
f 223 222 327
f 224 223 329
f 225 329 330
f 225 330 331
f 225 224 329
f 226 225 331
f 227 331 332
f 227 226 331
f 228 332 333
f 228 227 332
f 229 333 334
f 229 334 335
f 229 228 333
f 230 229 335
f 231 335 336
f 231 336 337
f 231 230 335
f 232 231 337
f 233 232 337
f 233 337 338
f 233 338 339
f 234 233 339
f 234 339 340
f 235 234 340
f 236 235 340
f 236 340 341
f 236 341 342
f 237 236 342
f 237 342 343
f 238 237 343
f 239 238 343
f 239 343 344
f 239 344 345
f 240 239 345
f 241 240 345
f 241 345 346
f 241 346 347
f 242 241 347
f 243 347 348
f 243 242 347
f 244 348 349
f 244 243 348
f 245 349 350
f 245 244 349
f 246 350 351
f 246 245 350
f 247 351 352
f 247 246 351
f 248 352 353
f 248 247 352
f 249 353 354
f 249 248 353
f 250 354 355
f 250 249 354
f 251 355 356
f 251 250 355
f 252 356 357
f 252 251 356
f 253 357 358
f 253 358 359
f 253 252 357
f 254 253 359
f 255 359 360
f 255 254 359
f 256 360 361
f 256 255 360
f 257 361 362
f 257 256 361
f 258 362 363
f 258 257 362
f 259 258 363
f 259 363 364
f 260 259 364
f 260 364 365
f 261 260 365
f 261 365 366
f 262 261 366
f 262 366 367
f 262 367 368
f 263 262 368
f 263 368 369
f 264 263 369
f 265 264 369
f 265 369 370
f 266 265 370
f 266 370 371
f 267 266 371
f 267 371 372
f 267 372 373
f 268 267 373
f 269 268 373
f 269 373 374
f 270 269 374
f 270 374 375
f 271 270 375
f 271 375 376
f 272 271 376
f 272 376 377
f 273 272 377
f 273 377 378
f 274 273 378
f 274 378 379
f 275 274 379
f 275 379 380
f 276 380 381
f 276 275 380
f 277 381 382
f 277 276 381
f 278 382 383
f 278 383 384
f 278 277 382
f 279 278 384
f 280 384 385
f 280 279 384
f 281 385 386
f 281 280 385
f 282 386 387
f 282 281 386
f 283 282 387
f 283 387 388
f 284 283 388
f 284 388 389
f 284 389 390
f 285 284 390
f 286 285 390
f 286 390 391
f 287 286 391
f 287 391 392
f 287 392 393
f 288 287 393
f 289 288 393
f 289 393 394
f 290 289 394
f 290 394 395
f 291 290 395
f 291 395 396
f 292 291 396
f 292 396 397
f 292 397 398
f 293 292 398
f 294 293 398
f 294 398 399
f 295 294 399
f 295 399 400
f 295 400 401
f 296 295 401
f 296 401 402
f 297 296 402
f 298 297 402
f 298 402 403
f 298 403 404
f 299 298 404
f 300 299 404
f 300 404 405
f 300 405 406
f 301 300 406
f 302 301 406
f 302 406 407
f 303 302 407
f 303 407 408
f 303 408 409
f 304 303 409
f 304 409 410
f 305 304 410
f 306 305 410
f 306 410 411
f 307 411 412
f 307 306 411
f 308 412 413
f 308 413 414
f 308 307 412
f 309 308 414
f 310 414 415
f 310 309 414
f 311 415 416
f 311 310 415
f 312 416 417
f 312 311 416
f 313 417 418
f 313 418 419
f 313 312 417
f 314 313 419
f 315 419 420
f 315 314 419
f 211 315 420
f 211 420 316
f 280 278 279
f 281 278 280
f 281 275 276
f 281 276 277
f 281 277 278
f 272 275 281
f 272 273 274
f 272 274 275
f 284 272 281
f 284 281 282
f 284 282 283
f 267 268 269
f 267 269 270
f 287 284 285
f 287 285 286
f 266 267 270
f 266 270 271
f 266 271 272
f 288 284 287
f 264 265 266
f 290 288 289
f 262 263 264
f 260 261 262
f 296 294 295
f 297 291 292
f 297 292 293
f 297 293 294
f 297 294 296
f 256 257 258
f 298 291 297
f 298 290 291
f 255 256 258
f 254 255 258
f 252 253 254
f 302 299 300
f 302 300 301
f 251 252 254
f 303 299 302
f 303 290 298
f 303 288 290
f 303 298 299
f 250 251 254
f 250 258 259
f 250 254 258
f 304 272 284
f 304 284 288
f 304 288 303
f 248 250 259
f 248 249 250
f 307 304 305
f 307 305 306
f 246 247 248
f 310 304 307
f 310 307 308
f 310 308 309
f 243 246 248
f 243 244 245
f 243 245 246
f 311 272 304
f 311 304 310
f 311 266 272
f 311 259 260
f 311 264 266
f 311 262 264
f 311 260 262
f 313 311 312
f 240 241 242
f 315 313 314
f 315 259 311
f 315 311 313
f 237 240 242
f 237 238 239
f 237 239 240
f 212 315 211
f 213 259 315
f 213 315 212
f 235 236 237
f 235 237 242
f 215 213 214
f 216 259 213
f 216 213 215
f 232 233 234
f 232 234 235
f 232 242 243
f 232 243 248
f 232 235 242
f 219 217 218
f 229 230 231
f 229 231 232
f 220 217 219
f 227 228 229
f 222 216 217
f 222 220 221
f 222 259 216
f 222 217 220
f 226 248 259
f 226 232 248
f 226 229 232
f 226 227 229
f 224 259 222
f 224 226 259
f 224 222 223
f 224 225 226
f 385 384 383
f 386 385 383
f 386 381 380
f 386 382 381
f 386 383 382
f 377 386 380
f 377 379 378
f 377 380 379
f 389 386 377
f 389 387 386
f 389 388 387
f 372 374 373
f 372 375 374
f 392 390 389
f 392 391 390
f 371 375 372
f 371 376 375
f 371 377 376
f 393 392 389
f 369 371 370
f 395 394 393
f 367 369 368
f 365 367 366
f 401 400 399
f 402 397 396
f 402 398 397
f 402 399 398
f 402 401 399
f 361 363 362
f 403 402 396
f 403 396 395
f 360 363 361
f 359 363 360
f 357 359 358
f 407 405 404
f 407 406 405
f 356 359 357
f 408 407 404
f 408 403 395
f 408 395 393
f 408 404 403
f 355 359 356
f 355 364 363
f 355 363 359
f 409 389 377
f 409 393 389
f 409 408 393
f 353 364 355
f 353 355 354
f 412 410 409
f 412 411 410
f 351 353 352
f 415 412 409
f 415 413 412
f 415 414 413
f 348 353 351
f 348 350 349
f 348 351 350
f 416 409 377
f 416 415 409
f 416 377 371
f 416 365 364
f 416 371 369
f 416 369 367
f 416 367 365
f 418 417 416
f 345 347 346
f 420 419 418
f 420 416 364
f 420 418 416
f 342 347 345
f 342 344 343
f 342 345 344
f 317 316 420
f 318 420 364
f 318 317 420
f 340 342 341
f 340 347 342
f 320 319 318
f 321 318 364
f 321 320 318
f 337 339 338
f 337 340 339
f 337 348 347
f 337 353 348
f 337 347 340
f 324 323 322
f 334 336 335
f 334 337 336
f 325 324 322
f 332 334 333
f 327 322 321
f 327 326 325
f 327 321 364
f 327 325 322
f 331 364 353
f 331 353 337
f 331 337 334
f 331 334 332
f 329 327 364
f 329 364 331
f 329 328 327
f 329 331 330
f 422 421 526
f 422 526 527
f 422 527 528
f 423 528 529
f 423 422 528
f 424 423 529
f 425 529 530
f 425 424 529
f 426 530 531
f 426 531 532
f 426 425 530
f 427 426 532
f 428 532 533
f 428 427 532
f 429 533 534
f 429 428 533
f 430 534 535
f 430 429 534
f 431 535 536
f 431 430 535
f 432 536 537
f 432 431 536
f 433 537 538
f 433 432 537
f 434 538 539
f 434 433 538
f 435 539 540
f 435 434 539
f 436 540 541
f 436 435 540
f 437 541 542
f 437 436 541
f 438 542 543
f 438 543 544
f 438 437 542
f 439 438 544
f 440 544 545
f 440 439 544
f 441 545 546
f 441 440 545
f 442 546 547
f 442 547 548
f 442 441 546
f 443 442 548
f 443 548 549
f 444 443 549
f 445 444 549
f 445 549 550
f 446 445 550
f 446 550 551
f 447 446 551
f 447 551 552
f 448 447 552
f 448 552 553
f 448 553 554
f 449 448 554
f 449 554 555
f 450 449 555
f 451 450 555
f 451 555 556
f 451 556 557
f 452 557 558
f 452 451 557
f 453 452 558
f 454 558 559
f 454 453 558
f 455 559 560
f 455 560 561
f 455 454 559
f 456 455 561
f 457 561 562
f 457 456 561
f 458 562 563
f 458 457 562
f 459 563 564
f 459 458 563
f 460 564 565
f 460 459 564
f 461 565 566
f 461 460 565
f 462 566 567
f 462 461 566
f 463 567 568
f 463 462 567
f 464 568 569
f 464 463 568
f 465 569 570
f 465 464 569
f 466 570 571
f 466 465 570
f 467 571 572
f 467 466 571
f 468 572 573
f 468 467 572
f 469 468 573
f 469 573 574
f 469 574 575
f 470 469 575
f 471 470 575
f 471 575 576
f 472 471 576
f 472 576 577
f 473 472 577
f 473 577 578
f 474 473 578
f 474 578 579
f 475 474 579
f 475 579 580
f 476 475 580
f 476 580 581
f 477 476 581
f 477 581 582
f 477 582 583
f 478 477 583
f 479 478 583
f 479 583 584
f 480 479 584
f 480 584 585
f 481 480 585
f 481 585 586
f 482 481 586
f 482 586 587
f 483 482 587
f 483 587 588
f 484 483 588
f 484 588 589
f 485 484 589
f 485 589 590
f 486 590 591
f 486 485 590
f 487 591 592
f 487 592 593
f 487 486 591
f 488 487 593
f 489 593 594
f 489 488 593
f 490 594 595
f 490 595 596
f 490 489 594
f 491 490 596
f 492 596 597
f 492 491 596
f 493 492 597
f 493 597 598
f 494 493 598
f 494 598 599
f 495 494 599
f 495 599 600
f 496 495 600
f 496 600 601
f 497 496 601
f 497 601 602
f 498 497 602
f 498 602 603
f 499 498 603
f 499 603 604
f 500 499 604
f 500 604 605
f 501 500 605
f 501 605 606
f 502 501 606
f 502 606 607
f 503 502 607
f 503 607 608
f 504 503 608
f 504 608 609
f 505 504 609
f 505 609 610
f 506 505 610
f 506 610 611
f 507 506 611
f 507 611 612
f 508 507 612
f 508 612 613
f 509 508 613
f 509 613 614
f 510 509 614
f 510 614 615
f 511 510 615
f 511 615 616
f 512 511 616
f 512 616 617
f 513 512 617
f 513 617 618
f 514 513 618
f 514 618 619
f 515 514 619
f 515 619 620
f 516 515 620
f 516 620 621
f 517 621 622
f 517 516 621
f 518 622 623
f 518 517 622
f 519 518 623
f 519 623 624
f 520 624 625
f 520 519 624
f 521 625 626
f 521 520 625
f 522 626 627
f 522 521 626
f 523 627 628
f 523 522 627
f 524 628 629
f 524 629 630
f 524 523 628
f 525 524 630
f 421 630 526
f 421 525 630
f 488 486 487
f 484 485 486
f 492 490 491
f 481 486 488
f 481 484 486
f 481 482 483
f 481 483 484
f 481 488 489
f 494 490 492
f 494 492 493
f 479 480 481
f 478 479 481
f 496 494 495
f 477 478 481
f 477 481 489
f 497 490 494
f 497 494 496
f 474 475 476
f 472 473 474
f 472 476 477
f 472 474 476
f 470 471 472
f 504 490 497
f 504 497 498
f 504 498 499
f 504 499 500
f 504 500 501
f 504 501 502
f 504 502 503
f 506 504 505
f 466 467 468
f 466 468 469
f 466 469 470
f 508 506 507
f 465 477 489
f 465 466 470
f 465 472 477
f 465 470 472
f 465 490 504
f 465 489 490
f 510 504 506
f 510 508 509
f 510 506 508
f 462 463 464
f 460 461 462
f 515 512 513
f 515 513 514
f 458 459 460
f 457 458 460
f 456 460 462
f 456 457 460
f 456 464 465
f 456 462 464
f 518 512 515
f 518 511 512
f 518 515 516
f 518 516 517
f 520 511 518
f 520 510 511
f 520 504 510
f 520 518 519
f 453 454 455
f 453 455 456
f 451 453 456
f 451 452 453
f 523 521 522
f 523 520 521
f 524 456 465
f 524 504 520
f 524 520 523
f 524 465 504
f 525 456 524
f 448 449 450
f 448 450 451
f 446 447 448
f 424 422 423
f 443 444 445
f 443 445 446
f 443 448 451
f 443 446 448
f 441 442 443
f 428 424 425
f 428 425 426
f 428 426 427
f 440 421 422
f 440 525 421
f 440 456 525
f 440 451 456
f 440 443 451
f 440 441 443
f 429 424 428
f 438 439 440
f 438 422 424
f 438 440 422
f 438 424 429
f 432 430 431
f 436 437 438
f 433 430 432
f 433 429 430
f 435 436 438
f 435 438 429
f 434 429 433
f 434 435 429
f 594 593 592
f 588 590 589
f 588 591 590
f 596 594 592
f 596 592 591
f 596 595 594
f 587 591 588
f 598 597 596
f 583 591 587
f 583 585 584
f 583 586 585
f 583 587 586
f 601 600 599
f 602 601 599
f 603 596 591
f 603 598 596
f 603 602 599
f 603 599 598
f 579 581 580
f 606 605 604
f 577 579 578
f 577 582 581
f 577 581 579
f 576 583 582
f 576 582 577
f 609 606 604
f 609 607 606
f 609 608 607
f 611 610 609
f 572 574 573
f 572 575 574
f 572 576 575
f 612 611 609
f 613 609 604
f 613 604 603
f 613 612 609
f 570 572 571
f 570 583 576
f 570 576 572
f 615 613 603
f 615 614 613
f 616 603 591
f 616 615 603
f 567 569 568
f 617 616 591
f 617 591 583
f 566 569 567
f 566 570 569
f 565 570 566
f 565 583 570
f 619 618 617
f 563 565 564
f 621 620 619
f 562 565 563
f 561 565 562
f 623 619 617
f 623 621 619
f 623 622 621
f 624 623 617
f 558 560 559
f 558 561 560
f 627 626 625
f 628 617 583
f 628 583 565
f 628 624 617
f 628 627 625
f 628 625 624
f 554 556 555
f 527 629 628
f 527 630 629
f 527 526 630
f 527 565 561
f 527 557 556
f 527 558 557
f 527 561 558
f 527 628 565
f 550 552 551
f 550 553 552
f 530 528 527
f 530 529 528
f 548 550 549
f 548 554 553
f 548 553 550
f 531 530 527
f 546 548 547
f 533 532 531
f 533 531 527
f 545 548 546
f 545 554 548
f 535 534 533
f 535 533 527
f 543 545 544
f 543 556 554
f 543 554 545
f 538 536 535
f 538 537 536
f 540 535 527
f 540 556 543
f 540 542 541
f 540 543 542
f 540 527 556
f 539 535 540
f 539 538 535
f 634 632 631
f 634 633 632
f 636 633 634
f 636 635 633
f 638 635 636
f 638 637 635
f 640 637 638
f 640 639 637
f 642 639 640
f 642 641 639
f 631 641 642
f 631 632 641
f 642 634 631
f 642 640 634
f 640 636 634
f 640 638 636
f 641 632 633
f 641 633 639
f 639 633 635
f 639 635 637
f 646 644 643
f 646 645 644
f 648 645 646
f 648 647 645
f 650 647 648
f 650 649 647
f 644 649 650
f 643 644 650
f 648 646 643
f 648 643 650
f 647 644 645
f 647 649 644
f 654 652 651
f 654 653 652
f 656 653 654
f 656 655 653
f 658 655 656
f 658 657 655
f 652 657 658
f 651 652 658
f 656 654 651
f 656 651 658
f 655 652 653
f 655 657 652
f 662 660 659
f 662 661 660
f 664 661 662
f 664 663 661
f 665 663 664
f 666 665 664
f 659 665 666
f 659 660 665
f 666 662 659
f 666 664 662
f 665 660 661
f 665 661 663

