# https://github.com/mikedh/trimesh
v 0.00000000 -0.06386154 -1.67600000
v 0.00951807 -0.06314826 -1.67600000
v 0.01882352 -0.06102435 -1.67600000
v 0.02770848 -0.05753726 -1.67600000
v 0.03597449 -0.05276488 -1.67600000
v 0.04343688 -0.04681382 -1.67600000
v 0.04992896 -0.03981702 -1.67600000
v 0.05530571 -0.03193077 -1.67600000
v 0.05944703 -0.02333124 -1.67600000
v 0.06226040 -0.01421053 -1.67600000
v 0.06368297 -0.00477238 -1.67600000
v 0.06368297 0.00477238 -1.67600000
v 0.06226040 0.01421053 -1.67600000
v 0.05944703 0.02333124 -1.67600000
v 0.05530571 0.03193077 -1.67600000
v 0.04992896 0.03981702 -1.67600000
v 0.04343688 0.04681382 -1.67600000
v 0.03597449 0.05276488 -1.67600000
v 0.02770848 0.05753726 -1.67600000
v 0.01882352 0.06102435 -1.67600000
v 0.00951807 0.06314826 -1.67600000
v -0.00000000 0.06386154 -1.67600000
v -0.00951807 0.06314826 -1.67600000
v -0.01882352 0.06102435 -1.67600000
v -0.02770848 0.05753726 -1.67600000
v -0.03597449 0.05276488 -1.67600000
v -0.04343688 0.04681382 -1.67600000
v -0.04992896 0.03981702 -1.67600000
v -0.05530571 0.03193077 -1.67600000
v -0.05944703 0.02333124 -1.67600000
v -0.06226040 0.01421053 -1.67600000
v -0.06368297 0.00477238 -1.67600000
v -0.06368297 -0.00477238 -1.67600000
v -0.06226040 -0.01421053 -1.67600000
v -0.05944703 -0.02333124 -1.67600000
v -0.05530571 -0.03193077 -1.67600000
v -0.04992896 -0.03981702 -1.67600000
v -0.04343688 -0.04681382 -1.67600000
v -0.03597449 -0.05276488 -1.67600000
v -0.02770848 -0.05753726 -1.67600000
v -0.01882352 -0.06102435 -1.67600000
v -0.00951807 -0.06314826 -1.67600000
v 0.00000000 -0.05370769 -1.65766667
v 0.00000000 -0.04355385 -1.63933333
v 0.00000000 -0.03340000 -1.62100000
v 0.00497801 -0.03302695 -1.62100000
v 0.00984482 -0.03191613 -1.62100000
v 0.01449172 -0.03009236 -1.62100000
v 0.01881489 -0.02759638 -1.62100000
v 0.02271777 -0.02448393 -1.62100000
v 0.02611317 -0.02082456 -1.62100000
v 0.02892525 -0.01670000 -1.62100000
v 0.03109118 -0.01220239 -1.62100000
v 0.03256259 -0.00743220 -1.62100000
v 0.03330661 -0.00249599 -1.62100000
v 0.03330661 0.00249599 -1.62100000
v 0.03256259 0.00743220 -1.62100000
v 0.03109118 0.01220239 -1.62100000
v 0.02892525 0.01670000 -1.62100000
v 0.02611317 0.02082456 -1.62100000
v 0.02271777 0.02448393 -1.62100000
v 0.01881489 0.02759638 -1.62100000
v 0.01449172 0.03009236 -1.62100000
v 0.00984482 0.03191613 -1.62100000
v 0.00497801 0.03302695 -1.62100000
v -0.00000000 0.03340000 -1.62100000
v -0.00497801 0.03302695 -1.62100000
v -0.00984482 0.03191613 -1.62100000
v -0.01449172 0.03009236 -1.62100000
v -0.01881489 0.02759638 -1.62100000
v -0.02271777 0.02448393 -1.62100000
v -0.02611317 0.02082456 -1.62100000
v -0.02892525 0.01670000 -1.62100000
v -0.03109118 0.01220239 -1.62100000
v -0.03256259 0.00743220 -1.62100000
v -0.03330661 0.00249599 -1.62100000
v -0.03330661 -0.00249599 -1.62100000
v -0.03256259 -0.00743220 -1.62100000
v -0.03109118 -0.01220239 -1.62100000
v -0.02892525 -0.01670000 -1.62100000
v -0.02611317 -0.02082456 -1.62100000
v -0.02271777 -0.02448393 -1.62100000
v -0.01881489 -0.02759638 -1.62100000
v -0.01449172 -0.03009236 -1.62100000
v -0.00984482 -0.03191613 -1.62100000
v -0.00497801 -0.03302695 -1.62100000
v -0.01283772 -0.04161887 -1.63933333
v -0.02453476 -0.03598588 -1.63933333
v -0.01583062 -0.05132161 -1.65766667
v -0.03405177 -0.02715538 -1.63933333
v -0.03025462 -0.04437538 -1.65766667
v -0.04054313 -0.01591201 -1.63933333
v -0.04199036 -0.03348620 -1.65766667
v -0.04343206 -0.00325478 -1.63933333
v -0.04999508 -0.01962162 -1.65766667
v -0.04246186 0.00969164 -1.63933333
v -0.05355751 -0.00401358 -1.65766667
v -0.03771874 0.02177692 -1.63933333
v -0.05236113 0.01195109 -1.65766667
v -0.02962414 0.03192723 -1.63933333
v -0.04651223 0.02685385 -1.65766667
v -0.01889731 0.03924066 -1.63933333
v -0.03653051 0.03937052 -1.65766667
v -0.00649136 0.04306739 -1.63933333
v -0.02330289 0.04838896 -1.65766667
v 0.00649136 0.04306739 -1.63933333
v -0.00800472 0.05310782 -1.65766667
v 0.01889731 0.03924066 -1.63933333
v 0.00800472 0.05310782 -1.65766667
v 0.02962414 0.03192723 -1.63933333
v 0.02330289 0.04838896 -1.65766667
v 0.03771874 0.02177692 -1.63933333
v 0.03653051 0.03937052 -1.65766667
v 0.04246186 0.00969164 -1.63933333
v 0.04651223 0.02685385 -1.65766667
v 0.04343206 -0.00325478 -1.63933333
v 0.05236113 0.01195109 -1.65766667
v 0.04054313 -0.01591201 -1.63933333
v 0.05355751 -0.00401358 -1.65766667
v 0.03405177 -0.02715538 -1.63933333
v 0.04999508 -0.01962162 -1.65766667
v 0.02453476 -0.03598588 -1.63933333
v 0.04199036 -0.03348620 -1.65766667
v 0.01283772 -0.04161887 -1.63933333
v 0.03025462 -0.04437538 -1.65766667
v 0.01583062 -0.05132161 -1.65766667
v 0.00000000 -0.03340000 -1.61200000
v 0.00497801 -0.03302695 -1.61200000
v 0.00984482 -0.03191613 -1.61200000
v 0.01449172 -0.03009236 -1.61200000
v 0.01881489 -0.02759638 -1.61200000
v 0.02271777 -0.02448393 -1.61200000
v 0.02611317 -0.02082456 -1.61200000
v 0.02892525 -0.01670000 -1.61200000
v 0.03109118 -0.01220239 -1.61200000
v 0.03256259 -0.00743220 -1.61200000
v 0.03330661 -0.00249599 -1.61200000
v 0.03330661 0.00249599 -1.61200000
v 0.03256259 0.00743220 -1.61200000
v 0.03109118 0.01220239 -1.61200000
v 0.02892525 0.01670000 -1.61200000
v 0.02611317 0.02082456 -1.61200000
v 0.02271777 0.02448393 -1.61200000
v 0.01881489 0.02759638 -1.61200000
v 0.01449172 0.03009236 -1.61200000
v 0.00984482 0.03191613 -1.61200000
v 0.00497801 0.03302695 -1.61200000
v -0.00000000 0.03340000 -1.61200000
v -0.00497801 0.03302695 -1.61200000
v -0.00984482 0.03191613 -1.61200000
v -0.01449172 0.03009236 -1.61200000
v -0.01881489 0.02759638 -1.61200000
v -0.02271777 0.02448393 -1.61200000
v -0.02611317 0.02082456 -1.61200000
v -0.02892525 0.01670000 -1.61200000
v -0.03109118 0.01220239 -1.61200000
v -0.03256259 0.00743220 -1.61200000
v -0.03330661 0.00249599 -1.61200000
v -0.03330661 -0.00249599 -1.61200000
v -0.03256259 -0.00743220 -1.61200000
v -0.03109118 -0.01220239 -1.61200000
v -0.02892525 -0.01670000 -1.61200000
v -0.02611317 -0.02082456 -1.61200000
v -0.02271777 -0.02448393 -1.61200000
v -0.01881489 -0.02759638 -1.61200000
v -0.01449172 -0.03009236 -1.61200000
v -0.00984482 -0.03191613 -1.61200000
v -0.00497801 -0.03302695 -1.61200000
v 0.00000000 -0.06386154 -1.67600000
v 0.00951807 -0.06314826 -1.67600000
v 0.01882352 -0.06102435 -1.67600000
v 0.02770848 -0.05753726 -1.67600000
v 0.03597449 -0.05276488 -1.67600000
v 0.04343688 -0.04681382 -1.67600000
v 0.04992896 -0.03981702 -1.67600000
v 0.05530571 -0.03193077 -1.67600000
v 0.05944703 -0.02333124 -1.67600000
v 0.06226040 -0.01421053 -1.67600000
v 0.06368297 -0.00477238 -1.67600000
v 0.06368297 0.00477238 -1.67600000
v 0.06226040 0.01421053 -1.67600000
v 0.05944703 0.02333124 -1.67600000
v 0.05530571 0.03193077 -1.67600000
v 0.04992896 0.03981702 -1.67600000
v 0.04343688 0.04681382 -1.67600000
v 0.03597449 0.05276488 -1.67600000
v 0.02770848 0.05753726 -1.67600000
v 0.01882352 0.06102435 -1.67600000
v 0.00951807 0.06314826 -1.67600000
v -0.00000000 0.06386154 -1.67600000
v -0.00951807 0.06314826 -1.67600000
v -0.01882352 0.06102435 -1.67600000
v -0.02770848 0.05753726 -1.67600000
v -0.03597449 0.05276488 -1.67600000
v -0.04343688 0.04681382 -1.67600000
v -0.04992896 0.03981702 -1.67600000
v -0.05530571 0.03193077 -1.67600000
v -0.05944703 0.02333124 -1.67600000
v -0.06226040 0.01421053 -1.67600000
v -0.06368297 0.00477238 -1.67600000
v -0.06368297 -0.00477238 -1.67600000
v -0.06226040 -0.01421053 -1.67600000
v -0.05944703 -0.02333124 -1.67600000
v -0.05530571 -0.03193077 -1.67600000
v -0.04992896 -0.03981702 -1.67600000
v -0.04343688 -0.04681382 -1.67600000
v -0.03597449 -0.05276488 -1.67600000
v -0.02770848 -0.05753726 -1.67600000
v -0.01882352 -0.06102435 -1.67600000
v -0.00951807 -0.06314826 -1.67600000
v 0.00000000 -0.06191758 -1.67600000
v 0.00922834 -0.06122601 -1.67600000
v 0.01825053 -0.05916676 -1.67600000
v 0.02686503 -0.05578581 -1.67600000
v 0.03487942 -0.05115871 -1.67600000
v 0.04211465 -0.04538880 -1.67600000
v 0.04840912 -0.03860498 -1.67600000
v 0.05362220 -0.03095879 -1.67600000
v 0.05763745 -0.02262103 -1.67600000
v 0.06036518 -0.01377796 -1.67600000
v 0.06174445 -0.00462711 -1.67600000
v 0.06174445 0.00462711 -1.67600000
v 0.06036518 0.01377796 -1.67600000
v 0.05763745 0.02262103 -1.67600000
v 0.05362220 0.03095879 -1.67600000
v 0.04840912 0.03860498 -1.67600000
v 0.04211465 0.04538880 -1.67600000
v 0.03487942 0.05115871 -1.67600000
v 0.02686503 0.05578581 -1.67600000
v 0.01825053 0.05916676 -1.67600000
v 0.00922834 0.06122601 -1.67600000
v -0.00000000 0.06191758 -1.67600000
v -0.00922834 0.06122601 -1.67600000
v -0.01825053 0.05916676 -1.67600000
v -0.02686503 0.05578581 -1.67600000
v -0.03487942 0.05115871 -1.67600000
v -0.04211465 0.04538880 -1.67600000
v -0.04840912 0.03860498 -1.67600000
v -0.05362220 0.03095879 -1.67600000
v -0.05763745 0.02262103 -1.67600000
v -0.06036518 0.01377796 -1.67600000
v -0.06174445 0.00462711 -1.67600000
v -0.06174445 -0.00462711 -1.67600000
v -0.06036518 -0.01377796 -1.67600000
v -0.05763745 -0.02262103 -1.67600000
v -0.05362220 -0.03095879 -1.67600000
v -0.04840912 -0.03860498 -1.67600000
v -0.04211465 -0.04538880 -1.67600000
v -0.03487942 -0.05115871 -1.67600000
v -0.02686503 -0.05578581 -1.67600000
v -0.01825053 -0.05916676 -1.67600000
v -0.00922834 -0.06122601 -1.67600000
v 0.00000000 -0.06191758 -1.67600000
v 0.00922834 -0.06122601 -1.67600000
v 0.01825053 -0.05916676 -1.67600000
v 0.02686503 -0.05578581 -1.67600000
v 0.03487942 -0.05115871 -1.67600000
v 0.04211465 -0.04538880 -1.67600000
v 0.04840912 -0.03860498 -1.67600000
v 0.05362220 -0.03095879 -1.67600000
v 0.05763745 -0.02262103 -1.67600000
v 0.06036518 -0.01377796 -1.67600000
v 0.06174445 -0.00462711 -1.67600000
v 0.06174445 0.00462711 -1.67600000
v 0.06036518 0.01377796 -1.67600000
v 0.05763745 0.02262103 -1.67600000
v 0.05362220 0.03095879 -1.67600000
v 0.04840912 0.03860498 -1.67600000
v 0.04211465 0.04538880 -1.67600000
v 0.03487942 0.05115871 -1.67600000
v 0.02686503 0.05578581 -1.67600000
v 0.01825053 0.05916676 -1.67600000
v 0.00922834 0.06122601 -1.67600000
v -0.00000000 0.06191758 -1.67600000
v -0.00922834 0.06122601 -1.67600000
v -0.01825053 0.05916676 -1.67600000
v -0.02686503 0.05578581 -1.67600000
v -0.03487942 0.05115871 -1.67600000
v -0.04211465 0.04538880 -1.67600000
v -0.04840912 0.03860498 -1.67600000
v -0.05362220 0.03095879 -1.67600000
v -0.05763745 0.02262103 -1.67600000
v -0.06036518 0.01377796 -1.67600000
v -0.06174445 0.00462711 -1.67600000
v -0.06174445 -0.00462711 -1.67600000
v -0.06036518 -0.01377796 -1.67600000
v -0.05763745 -0.02262103 -1.67600000
v -0.05362220 -0.03095879 -1.67600000
v -0.04840912 -0.03860498 -1.67600000
v -0.04211465 -0.04538880 -1.67600000
v -0.03487942 -0.05115871 -1.67600000
v -0.02686503 -0.05578581 -1.67600000
v -0.01825053 -0.05916676 -1.67600000
v -0.00922834 -0.06122601 -1.67600000
v 0.00000000 -0.05194505 -1.65766667
v 0.00000000 -0.04197253 -1.63933333
v 0.00000000 -0.03200000 -1.62100000
v 0.00476935 -0.03164259 -1.62100000
v 0.00943217 -0.03057833 -1.62100000
v 0.01388428 -0.02883100 -1.62100000
v 0.01802624 -0.02643964 -1.62100000
v 0.02176553 -0.02345766 -1.62100000
v 0.02501861 -0.01995167 -1.62100000
v 0.02771281 -0.01600000 -1.62100000
v 0.02978796 -0.01169091 -1.62100000
v 0.03119769 -0.00712067 -1.62100000
v 0.03191052 -0.00239136 -1.62100000
v 0.03191052 0.00239136 -1.62100000
v 0.03119769 0.00712067 -1.62100000
v 0.02978796 0.01169091 -1.62100000
v 0.02771281 0.01600000 -1.62100000
v 0.02501861 0.01995167 -1.62100000
v 0.02176553 0.02345766 -1.62100000
v 0.01802624 0.02643964 -1.62100000
v 0.01388428 0.02883100 -1.62100000
v 0.00943217 0.03057833 -1.62100000
v 0.00476935 0.03164259 -1.62100000
v -0.00000000 0.03200000 -1.62100000
v -0.00476935 0.03164259 -1.62100000
v -0.00943217 0.03057833 -1.62100000
v -0.01388428 0.02883100 -1.62100000
v -0.01802624 0.02643964 -1.62100000
v -0.02176553 0.02345766 -1.62100000
v -0.02501861 0.01995167 -1.62100000
v -0.02771281 0.01600000 -1.62100000
v -0.02978796 0.01169091 -1.62100000
v -0.03119769 0.00712067 -1.62100000
v -0.03191052 0.00239136 -1.62100000
v -0.03191052 -0.00239136 -1.62100000
v -0.03119769 -0.00712067 -1.62100000
v -0.02978796 -0.01169091 -1.62100000
v -0.02771281 -0.01600000 -1.62100000
v -0.02501861 -0.01995167 -1.62100000
v -0.02176553 -0.02345766 -1.62100000
v -0.01802624 -0.02643964 -1.62100000
v -0.01388428 -0.02883100 -1.62100000
v -0.00943217 -0.03057833 -1.62100000
v -0.00476935 -0.03164259 -1.62100000
v -0.01237162 -0.04010781 -1.63933333
v -0.02364397 -0.03467933 -1.63933333
v -0.01531107 -0.04963728 -1.65766667
v -0.03281544 -0.02616944 -1.63933333
v -0.02926169 -0.04291902 -1.65766667
v -0.03907112 -0.01533429 -1.63933333
v -0.04061228 -0.03238721 -1.65766667
v -0.04185516 -0.00313661 -1.63933333
v -0.04835429 -0.01897766 -1.65766667
v -0.04092019 0.00933977 -1.63933333
v -0.05179981 -0.00388186 -1.65766667
v -0.03634928 0.02098626 -1.63933333
v -0.05064268 0.01155886 -1.65766667
v -0.02854857 0.03076804 -1.63933333
v -0.04498574 0.02597253 -1.65766667
v -0.01821120 0.03781594 -1.63933333
v -0.03533161 0.03807842 -1.65766667
v -0.00625568 0.04150373 -1.63933333
v -0.02253811 0.04680088 -1.65766667
v 0.00625568 0.04150373 -1.63933333
v -0.00774201 0.05136487 -1.65766667
v 0.01821120 0.03781594 -1.63933333
v 0.00774201 0.05136487 -1.65766667
v 0.02854857 0.03076804 -1.63933333
v 0.02253811 0.04680088 -1.65766667
v 0.03634928 0.02098626 -1.63933333
v 0.03533161 0.03807842 -1.65766667
v 0.04092019 0.00933977 -1.63933333
v 0.04498574 0.02597253 -1.65766667
v 0.04185516 -0.00313661 -1.63933333
v 0.05064268 0.01155886 -1.65766667
v 0.03907112 -0.01533429 -1.63933333
v 0.05179981 -0.00388186 -1.65766667
v 0.03281544 -0.02616944 -1.63933333
v 0.04835429 -0.01897766 -1.65766667
v 0.02364397 -0.03467933 -1.63933333
v 0.04061228 -0.03238721 -1.65766667
v 0.01237162 -0.04010781 -1.63933333
v 0.02926169 -0.04291902 -1.65766667
v 0.01531107 -0.04963728 -1.65766667
v 0.00000000 -0.03200000 -1.61440000
v 0.00476935 -0.03164259 -1.61440000
v 0.00943217 -0.03057833 -1.61440000
v 0.01388428 -0.02883100 -1.61440000
v 0.01802624 -0.02643964 -1.61440000
v 0.02176553 -0.02345766 -1.61440000
v 0.02501861 -0.01995167 -1.61440000
v 0.02771281 -0.01600000 -1.61440000
v 0.02978796 -0.01169091 -1.61440000
v 0.03119769 -0.00712067 -1.61440000
v 0.03191052 -0.00239136 -1.61440000
v 0.03191052 0.00239136 -1.61440000
v 0.03119769 0.00712067 -1.61440000
v 0.02978796 0.01169091 -1.61440000
v 0.02771281 0.01600000 -1.61440000
v 0.02501861 0.01995167 -1.61440000
v 0.02176553 0.02345766 -1.61440000
v 0.01802624 0.02643964 -1.61440000
v 0.01388428 0.02883100 -1.61440000
v 0.00943217 0.03057833 -1.61440000
v 0.00476935 0.03164259 -1.61440000
v -0.00000000 0.03200000 -1.61440000
v -0.00476935 0.03164259 -1.61440000
v -0.00943217 0.03057833 -1.61440000
v -0.01388428 0.02883100 -1.61440000
v -0.01802624 0.02643964 -1.61440000
v -0.02176553 0.02345766 -1.61440000
v -0.02501861 0.01995167 -1.61440000
v -0.02771281 0.01600000 -1.61440000
v -0.02978796 0.01169091 -1.61440000
v -0.03119769 0.00712067 -1.61440000
v -0.03191052 0.00239136 -1.61440000
v -0.03191052 -0.00239136 -1.61440000
v -0.03119769 -0.00712067 -1.61440000
v -0.02978796 -0.01169091 -1.61440000
v -0.02771281 -0.01600000 -1.61440000
v -0.02501861 -0.01995167 -1.61440000
v -0.02176553 -0.02345766 -1.61440000
v -0.01802624 -0.02643964 -1.61440000
v -0.01388428 -0.02883100 -1.61440000
v -0.00943217 -0.03057833 -1.61440000
v -0.00476935 -0.03164259 -1.61440000
v 0.00000000 -0.03340000 -1.61200000
v 0.00497801 -0.03302695 -1.61200000
v 0.00984482 -0.03191613 -1.61200000
v 0.01449172 -0.03009236 -1.61200000
v 0.01881489 -0.02759638 -1.61200000
v 0.02271777 -0.02448393 -1.61200000
v 0.02611317 -0.02082456 -1.61200000
v 0.02892525 -0.01670000 -1.61200000
v 0.03109118 -0.01220239 -1.61200000
v 0.03256259 -0.00743220 -1.61200000
v 0.03330661 -0.00249599 -1.61200000
v 0.03330661 0.00249599 -1.61200000
v 0.03256259 0.00743220 -1.61200000
v 0.03109118 0.01220239 -1.61200000
v 0.02892525 0.01670000 -1.61200000
v 0.02611317 0.02082456 -1.61200000
v 0.02271777 0.02448393 -1.61200000
v 0.01881489 0.02759638 -1.61200000
v 0.01449172 0.03009236 -1.61200000
v 0.00984482 0.03191613 -1.61200000
v 0.00497801 0.03302695 -1.61200000
v -0.00000000 0.03340000 -1.61200000
v -0.00497801 0.03302695 -1.61200000
v -0.00984482 0.03191613 -1.61200000
v -0.01449172 0.03009236 -1.61200000
v -0.01881489 0.02759638 -1.61200000
v -0.02271777 0.02448393 -1.61200000
v -0.02611317 0.02082456 -1.61200000
v -0.02892525 0.01670000 -1.61200000
v -0.03109118 0.01220239 -1.61200000
v -0.03256259 0.00743220 -1.61200000
v -0.03330661 0.00249599 -1.61200000
v -0.03330661 -0.00249599 -1.61200000
v -0.03256259 -0.00743220 -1.61200000
v -0.03109118 -0.01220239 -1.61200000
v -0.02892525 -0.01670000 -1.61200000
v -0.02611317 -0.02082456 -1.61200000
v -0.02271777 -0.02448393 -1.61200000
v -0.01881489 -0.02759638 -1.61200000
v -0.01449172 -0.03009236 -1.61200000
v -0.00984482 -0.03191613 -1.61200000
v -0.00497801 -0.03302695 -1.61200000
v 0.00000000 -0.03200000 -1.61440000
v 0.00476935 -0.03164259 -1.61440000
v 0.00943217 -0.03057833 -1.61440000
v 0.01388428 -0.02883100 -1.61440000
v 0.01802624 -0.02643964 -1.61440000
v 0.02176553 -0.02345766 -1.61440000
v 0.02501861 -0.01995167 -1.61440000
v 0.02771281 -0.01600000 -1.61440000
v 0.02978796 -0.01169091 -1.61440000
v 0.03119769 -0.00712067 -1.61440000
v 0.03191052 -0.00239136 -1.61440000
v 0.03191052 0.00239136 -1.61440000
v 0.03119769 0.00712067 -1.61440000
v 0.02978796 0.01169091 -1.61440000
v 0.02771281 0.01600000 -1.61440000
v 0.02501861 0.01995167 -1.61440000
v 0.02176553 0.02345766 -1.61440000
v 0.01802624 0.02643964 -1.61440000
v 0.01388428 0.02883100 -1.61440000
v 0.00943217 0.03057833 -1.61440000
v 0.00476935 0.03164259 -1.61440000
v -0.00000000 0.03200000 -1.61440000
v -0.00476935 0.03164259 -1.61440000
v -0.00943217 0.03057833 -1.61440000
v -0.01388428 0.02883100 -1.61440000
v -0.01802624 0.02643964 -1.61440000
v -0.02176553 0.02345766 -1.61440000
v -0.02501861 0.01995167 -1.61440000
v -0.02771281 0.01600000 -1.61440000
v -0.02978796 0.01169091 -1.61440000
v -0.03119769 0.00712067 -1.61440000
v -0.03191052 0.00239136 -1.61440000
v -0.03191052 -0.00239136 -1.61440000
v -0.03119769 -0.00712067 -1.61440000
v -0.02978796 -0.01169091 -1.61440000
v -0.02771281 -0.01600000 -1.61440000
v -0.02501861 -0.01995167 -1.61440000
v -0.02176553 -0.02345766 -1.61440000
v -0.01802624 -0.02643964 -1.61440000
v -0.01388428 -0.02883100 -1.61440000
v -0.00943217 -0.03057833 -1.61440000
v -0.00476935 -0.03164259 -1.61440000
vn -0.00000000 -0.87479136 0.48449983
vn 0.12995930 -0.86222363 0.48957226
vn 0.25784928 -0.83592683 0.48449983
vn 0.37833045 -0.78561127 0.48957226
vn 0.49278752 -0.72278654 0.48449983
vn 0.59308528 -0.63919391 0.48957226
vn 0.68393942 -0.54542349 0.48449983
vn 0.75514188 -0.43598137 0.48957226
vn 0.81432031 -0.31959717 0.48449983
vn 0.85010080 -0.19402996 0.48957226
vn 0.87234526 -0.06537324 0.48449983
vn 0.86952455 0.06516186 0.48957226
vn 0.85285851 0.19465939 0.48449983
vn 0.81168722 0.31856376 0.48957226
vn 0.75759154 0.43739568 0.48449983
vn 0.68172791 0.54365987 0.48957226
vn 0.59500923 0.64126744 0.48449983
vn 0.49119410 0.72044942 0.48957226
vn 0.37955774 0.78815978 0.48449983
vn 0.25701553 0.83322387 0.48957226
vn 0.13038089 0.86502066 0.48449983
vn -0.00000000 0.87196273 0.48957226
vn -0.13038089 0.86502066 0.48449983
vn -0.25701553 0.83322387 0.48957226
vn -0.37955774 0.78815978 0.48449983
vn -0.49119410 0.72044942 0.48957226
vn -0.59500923 0.64126744 0.48449983
vn -0.68172791 0.54365987 0.48957226
vn -0.75759154 0.43739568 0.48449983
vn -0.81168722 0.31856376 0.48957226
vn -0.85285851 0.19465939 0.48449983
vn -0.86952455 0.06516186 0.48957226
vn -0.87234526 -0.06537324 0.48449983
vn -0.85010080 -0.19402996 0.48957226
vn -0.81432031 -0.31959717 0.48449983
vn -0.75514188 -0.43598137 0.48957226
vn -0.68393942 -0.54542349 0.48449983
vn -0.59308528 -0.63919391 0.48957226
vn -0.49278752 -0.72278654 0.48449983
vn -0.37833045 -0.78561127 0.48957226
vn -0.25784928 -0.83592683 0.48449983
vn -0.12995930 -0.86222363 0.48957226
vn 0.00000000 -0.86921274 0.49443829
vn 0.00000000 -0.87787564 0.47888867
vn -0.00000000 -0.96742944 0.25314084
vn 0.14426205 -0.95711614 0.25123128
vn 0.28515483 -0.92444926 0.25314084
vn 0.41996782 -0.87207217 0.25123128
vn 0.54497241 -0.79932771 0.25314084
vn 0.65835762 -0.70954076 0.25123128
vn 0.75636679 -0.60318239 0.25314084
vn 0.83824945 -0.48396354 0.25123128
vn 0.90055467 -0.35344166 0.25314084
vn 0.94365913 -0.21538404 0.25123128
vn 0.96472431 -0.07229609 0.25314084
vn 0.96522057 0.07233328 0.25123128
vn 0.94317396 0.21527330 0.25314084
vn 0.90101791 0.35362347 0.25123128
vn 0.83781847 0.48371472 0.25314084
vn 0.75675587 0.60349267 0.25123128
vn 0.65801913 0.70917596 0.25314084
vn 0.54525274 0.79973889 0.25123128
vn 0.41975190 0.87162380 0.25314084
vn 0.28530152 0.92492480 0.25123128
vn 0.14418788 0.95662405 0.25314084
vn -0.00000000 0.96792709 0.25123128
vn -0.14418788 0.95662405 0.25314084
vn -0.28530152 0.92492480 0.25123128
vn -0.41975190 0.87162380 0.25314084
vn -0.54525274 0.79973889 0.25123128
vn -0.65801913 0.70917596 0.25314084
vn -0.75675587 0.60349267 0.25123128
vn -0.83781847 0.48371472 0.25314084
vn -0.90101791 0.35362347 0.25123128
vn -0.94317396 0.21527330 0.25314084
vn -0.96522057 0.07233328 0.25123128
vn -0.96472431 -0.07229609 0.25314084
vn -0.94365913 -0.21538404 0.25123128
vn -0.90055467 -0.35344166 0.25314084
vn -0.83824945 -0.48396354 0.25123128
vn -0.75636679 -0.60318239 0.25314084
vn -0.65835762 -0.70954076 0.25123128
vn -0.54497241 -0.79932771 0.25314084
vn -0.41996782 -0.87207217 0.25123128
vn -0.28515483 -0.92444926 0.25314084
vn -0.14426205 -0.95711614 0.25123128
vn -0.25875839 -0.83887409 0.47888867
vn -0.49452496 -0.72533490 0.47888867
vn -0.25620495 -0.83059605 0.49443829
vn -0.68635082 -0.54734651 0.47888867
vn -0.48964497 -0.71817727 0.49443829
vn -0.81719139 -0.32072399 0.47888867
vn -0.67957788 -0.54194528 0.49443829
vn -0.87542093 -0.06560373 0.47888867
vn -0.80912732 -0.31755907 0.49443829
vn -0.85586547 0.19534571 0.47888867
vn -0.86678224 -0.06495635 0.49443829
vn -0.76026261 0.43893782 0.47888867
vn -0.84741976 0.19341803 0.49443829
vn -0.59710708 0.64352838 0.47888867
vn -0.75276031 0.43460637 0.49443829
vn -0.38089597 0.79093863 0.47888867
vn -0.59121481 0.63717802 0.49443829
vn -0.13084058 0.86807050 0.47888867
vn -0.37713727 0.78313362 0.49443829
vn 0.13084058 0.86807050 0.47888867
vn -0.12954944 0.85950435 0.49443829
vn 0.38089597 0.79093863 0.47888867
vn 0.12954944 0.85950435 0.49443829
vn 0.59710708 0.64352838 0.47888867
vn 0.37713727 0.78313362 0.49443829
vn 0.76026261 0.43893782 0.47888867
vn 0.59121481 0.63717802 0.49443829
vn 0.85586547 0.19534571 0.47888867
vn 0.75276031 0.43460637 0.49443829
vn 0.87542093 -0.06560373 0.47888867
vn 0.84741976 0.19341803 0.49443829
vn 0.81719139 -0.32072399 0.47888867
vn 0.86678224 -0.06495635 0.49443829
vn 0.68635082 -0.54734651 0.47888867
vn 0.80912732 -0.31755907 0.49443829
vn 0.49452496 -0.72533490 0.47888867
vn 0.67957788 -0.54194528 0.49443829
vn 0.25875839 -0.83887409 0.47888867
vn 0.48964497 -0.71817727 0.49443829
vn 0.25620495 -0.83059605 0.49443829
vn -0.00000000 -1.00000000 0.00000000
vn 0.14904227 -0.98883083 0.00000000
vn 0.29475517 -0.95557281 0.00000000
vn 0.43388374 -0.90096887 0.00000000
vn 0.56332006 -0.82623877 0.00000000
vn 0.68017274 -0.73305187 0.00000000
vn 0.78183148 -0.62348980 0.00000000
vn 0.86602540 -0.50000000 0.00000000
vn 0.93087375 -0.36534102 0.00000000
vn 0.97492791 -0.22252093 0.00000000
vn 0.99720380 -0.07473009 0.00000000
vn 0.99720380 0.07473009 0.00000000
vn 0.97492791 0.22252093 0.00000000
vn 0.93087375 0.36534102 0.00000000
vn 0.86602540 0.50000000 0.00000000
vn 0.78183148 0.62348980 0.00000000
vn 0.68017274 0.73305187 0.00000000
vn 0.56332006 0.82623877 0.00000000
vn 0.43388374 0.90096887 0.00000000
vn 0.29475517 0.95557281 0.00000000
vn 0.14904227 0.98883083 0.00000000
vn -0.00000000 1.00000000 0.00000000
vn -0.14904227 0.98883083 0.00000000
vn -0.29475517 0.95557281 0.00000000
vn -0.43388374 0.90096887 0.00000000
vn -0.56332006 0.82623877 0.00000000
vn -0.68017274 0.73305187 0.00000000
vn -0.78183148 0.62348980 0.00000000
vn -0.86602540 0.50000000 0.00000000
vn -0.93087375 0.36534102 0.00000000
vn -0.97492791 0.22252093 0.00000000
vn -0.99720380 0.07473009 0.00000000
vn -0.99720380 -0.07473009 0.00000000
vn -0.97492791 -0.22252093 0.00000000
vn -0.93087375 -0.36534102 0.00000000
vn -0.86602540 -0.50000000 0.00000000
vn -0.78183148 -0.62348980 0.00000000
vn -0.68017274 -0.73305187 0.00000000
vn -0.56332006 -0.82623877 0.00000000
vn -0.43388374 -0.90096887 0.00000000
vn -0.29475517 -0.95557281 0.00000000
vn -0.14904227 -0.98883083 0.00000000
vn 0.00000000 0.00000000 -1.00000000
vn 0.00000000 0.00000000 -1.00000000
vn 0.00000000 0.00000000 -1.00000000
vn 0.00000000 0.00000000 -1.00000000
vn 0.00000000 0.00000000 -1.00000000
vn 0.00000000 0.00000000 -1.00000000
vn 0.00000000 0.00000000 -1.00000000
vn 0.00000000 0.00000000 -1.00000000
vn 0.00000000 0.00000000 -1.00000000
vn 0.00000000 0.00000000 -1.00000000
vn 0.00000000 0.00000000 -1.00000000
vn 0.00000000 0.00000000 -1.00000000
vn 0.00000000 0.00000000 -1.00000000
vn 0.00000000 0.00000000 -1.00000000
vn 0.00000000 0.00000000 -1.00000000
vn 0.00000000 0.00000000 -1.00000000
vn 0.00000000 0.00000000 -1.00000000
vn 0.00000000 0.00000000 -1.00000000
vn 0.00000000 0.00000000 -1.00000000
vn 0.00000000 0.00000000 -1.00000000
vn 0.00000000 0.00000000 -1.00000000
vn 0.00000000 0.00000000 -1.00000000
vn 0.00000000 0.00000000 -1.00000000
vn 0.00000000 0.00000000 -1.00000000
vn 0.00000000 0.00000000 -1.00000000
vn 0.00000000 0.00000000 -1.00000000
vn 0.00000000 0.00000000 -1.00000000
vn 0.00000000 0.00000000 -1.00000000
vn 0.00000000 0.00000000 -1.00000000
vn 0.00000000 0.00000000 -1.00000000
vn 0.00000000 0.00000000 -1.00000000
vn 0.00000000 0.00000000 -1.00000000
vn 0.00000000 0.00000000 -1.00000000
vn 0.00000000 0.00000000 -1.00000000
vn 0.00000000 0.00000000 -1.00000000
vn 0.00000000 0.00000000 -1.00000000
vn 0.00000000 0.00000000 -1.00000000
vn 0.00000000 0.00000000 -1.00000000
vn 0.00000000 0.00000000 -1.00000000
vn 0.00000000 0.00000000 -1.00000000
vn 0.00000000 0.00000000 -1.00000000
vn 0.00000000 0.00000000 -1.00000000
vn 0.00000000 0.00000000 -1.00000000
vn 0.00000000 0.00000000 -1.00000000
vn 0.00000000 0.00000000 -1.00000000
vn 0.00000000 0.00000000 -1.00000000
vn 0.00000000 0.00000000 -1.00000000
vn 0.00000000 0.00000000 -1.00000000
vn 0.00000000 0.00000000 -1.00000000
vn 0.00000000 0.00000000 -1.00000000
vn 0.00000000 0.00000000 -1.00000000
vn 0.00000000 0.00000000 -1.00000000
vn 0.00000000 0.00000000 -1.00000000
vn 0.00000000 0.00000000 -1.00000000
vn 0.00000000 0.00000000 -1.00000000
vn 0.00000000 0.00000000 -1.00000000
vn 0.00000000 0.00000000 -1.00000000
vn 0.00000000 0.00000000 -1.00000000
vn 0.00000000 0.00000000 -1.00000000
vn 0.00000000 0.00000000 -1.00000000
vn 0.00000000 0.00000000 -1.00000000
vn 0.00000000 0.00000000 -1.00000000
vn 0.00000000 0.00000000 -1.00000000
vn 0.00000000 0.00000000 -1.00000000
vn 0.00000000 0.00000000 -1.00000000
vn 0.00000000 0.00000000 -1.00000000
vn 0.00000000 0.00000000 -1.00000000
vn 0.00000000 0.00000000 -1.00000000
vn 0.00000000 0.00000000 -1.00000000
vn 0.00000000 0.00000000 -1.00000000
vn 0.00000000 0.00000000 -1.00000000
vn 0.00000000 0.00000000 -1.00000000
vn 0.00000000 0.00000000 -1.00000000
vn 0.00000000 0.00000000 -1.00000000
vn 0.00000000 0.00000000 -1.00000000
vn 0.00000000 0.00000000 -1.00000000
vn 0.00000000 0.00000000 -1.00000000
vn 0.00000000 0.00000000 -1.00000000
vn 0.00000000 0.00000000 -1.00000000
vn 0.00000000 0.00000000 -1.00000000
vn 0.00000000 0.00000000 -1.00000000
vn 0.00000000 0.00000000 -1.00000000
vn 0.00000000 0.00000000 -1.00000000
vn 0.00000000 0.00000000 -1.00000000
vn 0.00000000 0.87844836 -0.47783729
vn -0.13053089 0.86601586 -0.48267817
vn -0.25892720 0.83942136 -0.47783729
vn -0.37999442 0.78906655 -0.48267817
vn -0.49484758 0.72580810 -0.47783729
vn -0.59569379 0.64200522 -0.48267817
vn -0.68679858 0.54770359 -0.47783729
vn -0.75846314 0.43789890 -0.48267817
vn -0.81772452 0.32093322 -0.47783729
vn -0.85383972 0.19488334 -0.48267817
vn -0.87599204 0.06564653 -0.47783729
vn -0.87334889 -0.06544845 -0.48267817
vn -0.85642382 -0.19547315 -0.47783729
vn -0.81525718 -0.31996487 -0.48267817
vn -0.76075860 -0.43922418 -0.47783729
vn -0.68472629 -0.54605100 -0.48267817
vn -0.59749663 -0.64394821 -0.47783729
vn -0.49335447 -0.72361810 -0.48267817
vn -0.38114446 -0.79145462 -0.47783729
vn -0.25814593 -0.83688856 -0.48267817
vn -0.13092593 -0.86863682 -0.47783729
vn 0.00000000 -0.87579780 -0.48267817
vn 0.13092593 -0.86863682 -0.47783729
vn 0.25814593 -0.83688856 -0.48267817
vn 0.38114446 -0.79145462 -0.47783729
vn 0.49335447 -0.72361810 -0.48267817
vn 0.59749663 -0.64394821 -0.47783729
vn 0.68472629 -0.54605100 -0.48267817
vn 0.76075860 -0.43922418 -0.47783729
vn 0.81525718 -0.31996487 -0.48267817
vn 0.85642382 -0.19547315 -0.47783729
vn 0.87334889 -0.06544845 -0.48267817
vn 0.87599204 0.06564653 -0.47783729
vn 0.85383972 0.19488334 -0.48267817
vn 0.81772452 0.32093322 -0.47783729
vn 0.75846314 0.43789890 -0.48267817
vn 0.68679858 0.54770359 -0.47783729
vn 0.59569379 0.64200522 -0.48267817
vn 0.49484758 0.72580810 -0.47783729
vn 0.37999442 0.78906655 -0.48267817
vn 0.25892720 0.83942136 -0.47783729
vn 0.13053089 0.86601586 -0.48267817
vn -0.00000000 0.87302386 -0.48767749
vn -0.00000000 0.88140780 -0.47235610
vn 0.00000000 0.96840666 -0.24937631
vn -0.14440231 0.95804675 -0.24757707
vn -0.28544287 0.92538307 -0.24937631
vn -0.42037616 0.87292009 -0.24757707
vn -0.54552289 0.80013513 -0.24937631
vn -0.65899774 0.71023065 -0.24757707
vn -0.75713081 0.60379168 -0.24937631
vn -0.83906448 0.48443410 -0.24757707
vn -0.90146434 0.35379868 -0.24937631
vn -0.94457665 0.21559346 -0.24757707
vn -0.96569880 0.07236912 -0.24937631
vn -0.96615905 -0.07240361 -0.24757707
vn -0.94412668 -0.21549075 -0.24937631
vn -0.90189398 -0.35396730 -0.24757707
vn -0.83866477 -0.48420333 -0.24937631
vn -0.75749166 -0.60407944 -0.24757707
vn -0.65868381 -0.70989231 -0.24937631
vn -0.54578289 -0.80051648 -0.24757707
vn -0.42017590 -0.87250425 -0.24937631
vn -0.28557892 -0.92582411 -0.24757707
vn -0.14433352 -0.95759036 -0.24937631
vn 0.00000000 -0.96886820 -0.24757707
vn 0.14433352 -0.95759036 -0.24937631
vn 0.28557892 -0.92582411 -0.24757707
vn 0.42017590 -0.87250425 -0.24937631
vn 0.54578289 -0.80051648 -0.24757707
vn 0.65868381 -0.70989231 -0.24937631
vn 0.75749166 -0.60407944 -0.24757707
vn 0.83866477 -0.48420333 -0.24937631
vn 0.90189398 -0.35396730 -0.24757707
vn 0.94412668 -0.21549075 -0.24937631
vn 0.96615905 -0.07240361 -0.24757707
vn 0.96569880 0.07236912 -0.24937631
vn 0.94457665 0.21559346 -0.24757707
vn 0.90146434 0.35379868 -0.24937631
vn 0.83906448 0.48443410 -0.24757707
vn 0.75713081 0.60379168 -0.24937631
vn 0.65899774 0.71023065 -0.24757707
vn 0.54552289 0.80013513 -0.24937631
vn 0.42037616 0.87292009 -0.24757707
vn 0.28544287 0.92538307 -0.24937631
vn 0.14440231 0.95804675 -0.24757707
vn 0.25979951 0.84224933 -0.47235610
vn 0.49651469 0.72825330 -0.47235610
vn 0.25732830 0.83423786 -0.48767749
vn 0.68911237 0.54954878 -0.47235610
vn 0.49179185 0.72132617 -0.48767749
vn 0.82047939 0.32201443 -0.47235610
vn 0.68255754 0.54432148 -0.48767749
vn 0.87894321 0.06586769 -0.47235610
vn 0.81267500 0.31895143 -0.48767749
vn 0.85930907 -0.19613169 -0.47235610
vn 0.87058271 0.06524115 -0.48767749
vn 0.76332155 -0.44070390 -0.47235610
vn 0.85113533 -0.19426609 -0.48767749
vn 0.59950956 -0.64611764 -0.47235610
vn 0.75606084 -0.43651193 -0.48767749
vn 0.38242851 -0.79412099 -0.47235610
vn 0.59380703 -0.63997178 -0.48767749
vn 0.13136702 -0.87156321 -0.47235610
vn 0.37879086 -0.78656732 -0.48767749
vn -0.13136702 -0.87156321 -0.47235610
vn 0.13011745 -0.86327291 -0.48767749
vn -0.38242851 -0.79412099 -0.47235610
vn -0.13011745 -0.86327291 -0.48767749
vn -0.59950956 -0.64611764 -0.47235610
vn -0.37879086 -0.78656732 -0.48767749
vn -0.76332155 -0.44070390 -0.47235610
vn -0.59380703 -0.63997178 -0.48767749
vn -0.85930907 -0.19613169 -0.47235610
vn -0.75606084 -0.43651193 -0.48767749
vn -0.87894321 0.06586769 -0.47235610
vn -0.85113533 -0.19426609 -0.48767749
vn -0.82047939 0.32201443 -0.47235610
vn -0.87058271 0.06524115 -0.48767749
vn -0.68911237 0.54954878 -0.47235610
vn -0.81267500 0.31895143 -0.48767749
vn -0.49651469 0.72825330 -0.47235610
vn -0.68255754 0.54432148 -0.48767749
vn -0.25979951 0.84224933 -0.47235610
vn -0.49179185 0.72132617 -0.48767749
vn -0.25732830 0.83423786 -0.48767749
vn 0.00000000 1.00000000 0.00000000
vn -0.14904227 0.98883083 0.00000000
vn -0.29475517 0.95557281 0.00000000
vn -0.43388374 0.90096887 0.00000000
vn -0.56332006 0.82623877 0.00000000
vn -0.68017274 0.73305187 0.00000000
vn -0.78183148 0.62348980 0.00000000
vn -0.86602540 0.50000000 0.00000000
vn -0.93087375 0.36534102 0.00000000
vn -0.97492791 0.22252093 0.00000000
vn -0.99720380 0.07473009 0.00000000
vn -0.99720380 -0.07473009 0.00000000
vn -0.97492791 -0.22252093 0.00000000
vn -0.93087375 -0.36534102 0.00000000
vn -0.86602540 -0.50000000 0.00000000
vn -0.78183148 -0.62348980 0.00000000
vn -0.68017274 -0.73305187 0.00000000
vn -0.56332006 -0.82623877 0.00000000
vn -0.43388374 -0.90096887 0.00000000
vn -0.29475517 -0.95557281 0.00000000
vn -0.14904227 -0.98883083 0.00000000
vn 0.00000000 -1.00000000 0.00000000
vn 0.14904227 -0.98883083 0.00000000
vn 0.29475517 -0.95557281 0.00000000
vn 0.43388374 -0.90096887 0.00000000
vn 0.56332006 -0.82623877 0.00000000
vn 0.68017274 -0.73305187 0.00000000
vn 0.78183148 -0.62348980 0.00000000
vn 0.86602540 -0.50000000 0.00000000
vn 0.93087375 -0.36534102 0.00000000
vn 0.97492791 -0.22252093 0.00000000
vn 0.99720380 -0.07473009 0.00000000
vn 0.99720380 0.07473009 0.00000000
vn 0.97492791 0.22252093 0.00000000
vn 0.93087375 0.36534102 0.00000000
vn 0.86602540 0.50000000 0.00000000
vn 0.78183148 0.62348980 0.00000000
vn 0.68017274 0.73305187 0.00000000
vn 0.56332006 0.82623877 0.00000000
vn 0.43388374 0.90096887 0.00000000
vn 0.29475517 0.95557281 0.00000000
vn 0.14904227 0.98883083 0.00000000
vn 0.00000000 0.00000000 1.00000000
vn 0.00000000 0.00000000 1.00000000
vn 0.00000000 0.00000000 1.00000000
vn 0.00000000 0.00000000 1.00000000
vn 0.00000000 0.00000000 1.00000000
vn 0.00000000 0.00000000 1.00000000
vn 0.00000000 0.00000000 1.00000000
vn 0.00000000 0.00000000 1.00000000
vn 0.00000000 0.00000000 1.00000000
vn 0.00000000 0.00000000 1.00000000
vn 0.00000000 0.00000000 1.00000000
vn 0.00000000 0.00000000 1.00000000
vn 0.00000000 0.00000000 1.00000000
vn 0.00000000 0.00000000 1.00000000
vn 0.00000000 0.00000000 1.00000000
vn 0.00000000 0.00000000 1.00000000
vn 0.00000000 0.00000000 1.00000000
vn 0.00000000 0.00000000 1.00000000
vn 0.00000000 0.00000000 1.00000000
vn 0.00000000 0.00000000 1.00000000
vn 0.00000000 0.00000000 1.00000000
vn 0.00000000 0.00000000 1.00000000
vn 0.00000000 0.00000000 1.00000000
vn 0.00000000 0.00000000 1.00000000
vn 0.00000000 0.00000000 1.00000000
vn 0.00000000 0.00000000 1.00000000
vn 0.00000000 0.00000000 1.00000000
vn 0.00000000 0.00000000 1.00000000
vn 0.00000000 0.00000000 1.00000000
vn 0.00000000 0.00000000 1.00000000
vn 0.00000000 0.00000000 1.00000000
vn 0.00000000 0.00000000 1.00000000
vn 0.00000000 0.00000000 1.00000000
vn 0.00000000 0.00000000 1.00000000
vn 0.00000000 0.00000000 1.00000000
vn 0.00000000 0.00000000 1.00000000
vn 0.00000000 0.00000000 1.00000000
vn 0.00000000 0.00000000 1.00000000
vn 0.00000000 0.00000000 1.00000000
vn 0.00000000 0.00000000 1.00000000
vn 0.00000000 0.00000000 1.00000000
vn 0.00000000 0.00000000 1.00000000
vn 0.00000000 0.00000000 -1.00000000
vn 0.00000000 0.00000000 -1.00000000
vn 0.00000000 0.00000000 -1.00000000
vn 0.00000000 0.00000000 -1.00000000
vn 0.00000000 0.00000000 -1.00000000
vn 0.00000000 0.00000000 -1.00000000
vn 0.00000000 0.00000000 -1.00000000
vn 0.00000000 0.00000000 -1.00000000
vn 0.00000000 0.00000000 -1.00000000
vn 0.00000000 0.00000000 -1.00000000
vn 0.00000000 0.00000000 -1.00000000
vn 0.00000000 0.00000000 -1.00000000
vn 0.00000000 0.00000000 -1.00000000
vn 0.00000000 0.00000000 -1.00000000
vn 0.00000000 0.00000000 -1.00000000
vn 0.00000000 0.00000000 -1.00000000
vn 0.00000000 0.00000000 -1.00000000
vn 0.00000000 0.00000000 -1.00000000
vn 0.00000000 0.00000000 -1.00000000
vn 0.00000000 0.00000000 -1.00000000
vn 0.00000000 0.00000000 -1.00000000
vn 0.00000000 0.00000000 -1.00000000
vn 0.00000000 0.00000000 -1.00000000
vn 0.00000000 0.00000000 -1.00000000
vn 0.00000000 0.00000000 -1.00000000
vn 0.00000000 0.00000000 -1.00000000
vn 0.00000000 0.00000000 -1.00000000
vn 0.00000000 0.00000000 -1.00000000
vn 0.00000000 0.00000000 -1.00000000
vn 0.00000000 0.00000000 -1.00000000
vn 0.00000000 0.00000000 -1.00000000
vn 0.00000000 0.00000000 -1.00000000
vn 0.00000000 0.00000000 -1.00000000
vn 0.00000000 0.00000000 -1.00000000
vn 0.00000000 0.00000000 -1.00000000
vn 0.00000000 0.00000000 -1.00000000
vn 0.00000000 0.00000000 -1.00000000
vn 0.00000000 0.00000000 -1.00000000
vn 0.00000000 0.00000000 -1.00000000
vn 0.00000000 0.00000000 -1.00000000
vn 0.00000000 0.00000000 -1.00000000
vn 0.00000000 0.00000000 -1.00000000
f 97//97 92//92 94//94
f 97//97 95//95 92//92
f 97//97 33//33 34//34
f 97//97 34//34 95//95
f 97//97 32//32 33//33
f 97//97 94//94 96//96
f 96//96 76//76 75//75
f 96//96 75//75 74//74
f 96//96 94//94 76//76
f 95//95 90//90 92//92
f 95//95 35//35 36//36
f 95//95 34//34 35//35
f 95//95 93//93 90//90
f 95//95 36//36 93//93
f 94//94 78//78 77//77
f 94//94 77//77 76//76
f 93//93 91//91 88//88
f 93//93 38//38 91//91
f 92//92 80//80 79//79
f 92//92 79//79 78//78
f 92//92 90//90 80//80
f 91//91 39//39 40//40
f 91//91 38//38 39//39
f 91//91 87//87 88//88
f 91//91 40//40 89//89
f 91//91 89//89 87//87
f 90//90 88//88 82//82
f 90//90 82//82 81//81
f 90//90 81//81 80//80
f 89//89 44//44 87//87
f 89//89 43//43 44//44
f 89//89 41//41 42//42
f 102//102 100//100 70//70
f 101//101 96//96 98//98
f 101//101 30//30 99//99
f 101//101 29//29 30//30
f 101//101 28//28 29//29
f 101//101 99//99 96//96
f 100//100 72//72 71//71
f 100//100 71//71 70//70
f 100//100 98//98 72//72
f 99//99 31//31 32//32
f 99//99 30//30 31//31
f 99//99 97//97 96//96
f 99//99 32//32 97//97
f 98//98 74//74 73//73
f 98//98 73//73 72//72
f 98//98 96//96 74//74
f 106//106 104//104 66//66
f 105//105 103//103 102//102
f 105//105 25//25 26//26
f 105//105 24//24 25//25
f 105//105 26//26 103//103
f 104//104 102//102 68//68
f 104//104 68//68 67//67
f 104//104 67//67 66//66
f 103//103 101//101 98//98
f 103//103 28//28 101//101
f 103//103 98//98 100//100
f 103//103 27//27 28//28
f 103//103 26//26 27//27
f 103//103 100//100 102//102
f 102//102 70//70 69//69
f 102//102 69//69 68//68
f 109//109 22//22 107//107
f 109//109 106//106 108//108
f 109//109 21//21 22//22
f 109//109 107//107 106//106
f 109//109 20//20 21//21
f 108//108 64//64 63//63
f 108//108 63//63 62//62
f 108//108 106//106 64//64
f 107//107 24//24 105//105
f 107//107 105//105 102//102
f 107//107 102//102 104//104
f 107//107 104//104 106//106
f 107//107 23//23 24//24
f 107//107 22//22 23//23
f 106//106 66//66 65//65
f 106//106 65//65 64//64
f 114//114 112//112 58//58
f 113//113 108//108 110//110
f 113//113 111//111 108//108
f 113//113 17//17 18//18
f 113//113 16//16 17//17
f 113//113 18//18 111//111
f 112//112 110//110 60//60
f 112//112 60//60 59//59
f 112//112 59//59 58//58
f 111//111 20//20 109//109
f 111//111 109//109 108//108
f 111//111 19//19 20//20
f 111//111 18//18 19//19
f 110//110 62//62 61//61
f 110//110 61//61 60//60
f 110//110 108//108 62//62
f 118//118 116//116 54//54
f 117//117 14//14 115//115
f 117//117 112//112 114//114
f 117//117 13//13 14//14
f 117//117 12//12 13//13
f 117//117 115//115 112//112
f 116//116 114//114 56//56
f 116//116 56//56 55//55
f 116//116 55//55 54//54
f 115//115 16//16 113//113
f 115//115 113//113 110//110
f 115//115 15//15 16//16
f 115//115 14//14 15//15
f 115//115 110//110 112//112
f 114//114 58//58 57//57
f 114//114 57//57 56//56
f 122//122 49//49 48//48
f 121//121 10//10 119//119
f 121//121 119//119 118//118
f 121//121 9//9 10//10
f 121//121 8//8 9//9
f 120//120 118//118 52//52
f 120//120 52//52 51//51
f 120//120 51//51 50//50
f 119//119 12//12 117//117
f 119//119 116//116 118//118
f 119//119 117//117 114//114
f 119//119 114//114 116//116
f 119//119 11//11 12//12
f 119//119 10//10 11//11
f 118//118 54//54 53//53
f 118//118 53//53 52//52
f 125//125 6//6 123//123
f 125//125 122//122 124//124
f 125//125 120//120 122//122
f 125//125 5//5 6//6
f 125//125 4//4 5//5
f 124//124 48//48 47//47
f 124//124 47//47 46//46
f 124//124 122//122 48//48
f 124//124 46//46 44//44
f 123//123 121//121 118//118
f 123//123 8//8 121//121
f 123//123 118//118 120//120
f 123//123 7//7 8//8
f 123//123 6//6 7//7
f 122//122 120//120 50//50
f 122//122 50//50 49//49
f 94//94 92//92 78//78
f 93//93 37//37 38//38
f 93//93 36//36 37//37
f 93//93 88//88 90//90
f 89//89 40//40 41//41
f 89//89 42//42 43//43
f 88//88 84//84 83//83
f 88//88 83//83 82//82
f 126//126 125//125 124//124
f 126//126 4//4 125//125
f 126//126 44//44 43//43
f 126//126 124//124 44//44
f 126//126 43//43 2//2
f 126//126 3//3 4//4
f 126//126 2//2 3//3
f 125//125 123//123 120//120
f 88//88 87//87 84//84
f 87//87 44//44 86//86
f 87//87 86//86 85//85
f 87//87 85//85 84//84
f 1//1 2//2 43//43
f 44//44 46//46 45//45
f 42//42 1//1 43//43
f 44//44 45//45 86//86
f 159//159 158//158 76//76
f 129//129 128//128 46//46
f 129//129 46//46 47//47
f 128//128 127//127 46//46
f 127//127 45//45 46//46
f 137//137 136//136 54//54
f 137//137 54//54 55//55
f 136//136 135//135 53//53
f 136//136 53//53 54//54
f 135//135 134//134 52//52
f 135//135 52//52 53//53
f 134//134 133//133 51//51
f 134//134 51//51 52//52
f 133//133 132//132 51//51
f 132//132 131//131 49//49
f 132//132 50//50 51//51
f 132//132 49//49 50//50
f 131//131 130//130 48//48
f 131//131 48//48 49//49
f 130//130 129//129 47//47
f 130//130 47//47 48//48
f 145//145 63//63 64//64
f 144//144 143//143 61//61
f 144//144 62//62 63//63
f 144//144 61//61 62//62
f 143//143 142//142 61//61
f 142//142 141//141 59//59
f 142//142 60//60 61//61
f 142//142 59//59 60//60
f 141//141 140//140 59//59
f 140//140 139//139 57//57
f 140//140 58//58 59//59
f 140//140 57//57 58//58
f 139//139 138//138 56//56
f 139//139 56//56 57//57
f 138//138 137//137 55//55
f 138//138 55//55 56//56
f 153//153 71//71 72//72
f 153//153 70//70 71//71
f 152//152 151//151 69//69
f 152//152 69//69 70//70
f 151//151 150//150 68//68
f 151//151 68//68 69//69
f 150//150 149//149 67//67
f 150//150 67//67 68//68
f 149//149 148//148 67//67
f 148//148 147//147 66//66
f 148//148 66//66 67//67
f 147//147 146//146 64//64
f 147//147 65//65 66//66
f 147//147 64//64 65//65
f 146//146 145//145 64//64
f 145//145 144//144 63//63
f 161//161 78//78 79//79
f 161//161 160//160 78//78
f 160//160 159//159 78//78
f 159//159 77//77 78//78
f 159//159 76//76 77//77
f 158//158 157//157 76//76
f 157//157 75//75 76//76
f 157//157 156//156 75//75
f 156//156 74//74 75//75
f 156//156 73//73 74//74
f 156//156 155//155 73//73
f 155//155 154//154 72//72
f 155//155 72//72 73//73
f 154//154 153//153 72//72
f 153//153 152//152 70//70
f 127//127 168//168 86//86
f 127//127 86//86 45//45
f 168//168 167//167 86//86
f 167//167 166//166 84//84
f 167//167 85//85 86//86
f 167//167 84//84 85//85
f 166//166 165//165 84//84
f 165//165 164//164 83//83
f 165//165 83//83 84//84
f 164//164 82//82 83//83
f 164//164 163//163 82//82
f 163//163 81//81 82//82
f 163//163 80//80 81//81
f 163//163 162//162 80//80
f 162//162 161//161 80//80
f 161//161 79//79 80//80
f 235//235 236//236 194//194
f 198//198 197//197 239//239
f 239//239 196//196 238//238
f 239//239 197//197 196//196
f 236//236 237//237 195//195
f 236//236 195//195 194//194
f 238//238 196//196 237//237
f 237//237 196//196 195//195
f 231//231 232//232 190//190
f 231//231 190//190 189//189
f 243//243 201//201 242//242
f 201//201 200//200 242//242
f 232//232 191//191 190//190
f 232//232 233//233 191//191
f 242//242 200//200 199//199
f 242//242 199//199 241//241
f 183//183 225//225 226//226
f 207//207 248//248 249//249
f 207//207 206//206 248//248
f 184//184 227//227 185//185
f 184//184 226//226 227//227
f 206//206 247//247 248//248
f 206//206 205//205 247//247
f 177//177 219//219 220//220
f 177//177 220//220 178//178
f 171//171 170//170 213//213
f 213//213 170//170 212//212
f 178//178 220//220 221//221
f 178//178 221//221 179//179
f 170//170 211//211 212//212
f 170//170 169//169 211//211
f 179//179 221//221 222//222
f 179//179 222//222 180//180
f 169//169 252//252 211//211
f 169//169 210//210 252//252
f 180//180 222//222 223//223
f 180//180 223//223 181//181
f 210//210 209//209 251//251
f 210//210 251//251 252//252
f 233//233 234//234 192//192
f 241//241 199//199 198//198
f 233//233 192//192 191//191
f 241//241 198//198 240//240
f 234//234 235//235 192//192
f 174//174 216//216 217//217
f 174//174 215//215 216//216
f 174//174 217//217 175//175
f 174//174 173//173 215//215
f 175//175 217//217 176//176
f 173//173 172//172 215//215
f 176//176 217//217 218//218
f 176//176 218//218 177//177
f 215//215 172//172 214//214
f 172//172 213//213 214//214
f 172//172 171//171 213//213
f 218//218 219//219 177//177
f 192//192 235//235 193//193
f 240//240 198//198 239//239
f 235//235 194//194 193//193
f 227//227 228//228 186//186
f 227//227 186//186 185//185
f 247//247 204//204 246//246
f 247//247 205//205 204//204
f 228//228 229//229 187//187
f 228//228 187//187 186//186
f 246//246 203//203 245//245
f 246//246 204//204 203//203
f 229//229 230//230 188//188
f 229//229 188//188 187//187
f 245//245 203//203 202//202
f 245//245 202//202 244//244
f 230//230 189//189 188//188
f 230//230 231//231 189//189
f 244//244 202//202 243//243
f 202//202 201//201 243//243
f 181//181 224//224 182//182
f 181//181 223//223 224//224
f 209//209 250//250 251//251
f 209//209 208//208 250//250
f 182//182 225//225 183//183
f 182//182 224//224 225//225
f 208//208 207//207 249//249
f 208//208 249//249 250//250
f 183//183 226//226 184//184
f 296//296 338//338 297//297
f 341//341 294//294 293//293
f 341//341 339//339 295//295
f 342//342 332//332 333//333
f 342//342 333//333 334//334
f 342//342 334//334 340//340
f 343//343 340//340 339//339
f 343//343 291//291 290//290
f 343//343 292//292 291//291
f 343//343 341//341 292//292
f 343//343 339//339 341//341
f 344//344 332//332 342//342
f 344//344 330//330 331//331
f 344//344 331//331 332//332
f 345//345 342//342 340//340
f 345//345 343//343 290//290
f 420//420 338//338 337//337
f 420//420 337//337 419//419
f 379//379 297//297 338//338
f 379//379 338//338 420//420
f 341//341 293//293 292//292
f 341//341 295//295 294//294
f 340//340 335//335 336//336
f 340//340 334//334 335//335
f 340//340 336//336 339//339
f 339//339 338//338 296//296
f 339//339 337//337 338//338
f 339//339 336//336 337//337
f 339//339 296//296 295//295
f 253//253 295//295 254//254
f 296//296 297//297 298//298
f 294//294 295//295 253//253
f 345//345 340//340 343//343
f 345//345 289//289 288//288
f 345//345 290//290 289//289
f 346//346 330//330 344//344
f 346//346 328//328 329//329
f 346//346 329//329 330//330
f 347//347 345//345 288//288
f 347//347 342//342 345//345
f 347//347 287//287 286//286
f 347//347 288//288 287//287
f 347//347 344//344 342//342
f 347//347 346//346 344//344
f 348//348 328//328 346//346
f 348//348 326//326 327//327
f 348//348 327//327 328//328
f 349//349 346//346 347//347
f 349//349 285//285 284//284
f 349//349 286//286 285//285
f 349//349 347//347 286//286
f 350//350 326//326 348//348
f 350//350 324//324 325//325
f 350//350 325//325 326//326
f 351//351 346//346 349//349
f 351//351 283//283 282//282
f 351//351 284//284 283//283
f 351//351 349//349 284//284
f 351//351 348//348 346//346
f 352//352 324//324 350//350
f 352//352 322//322 323//323
f 352//352 323//323 324//324
f 353//353 350//350 348//348
f 353//353 281//281 280//280
f 353//353 282//282 281//281
f 353//353 351//351 282//282
f 353//353 348//348 351//351
f 354//354 320//320 321//321
f 354//354 321//321 322//322
f 354//354 322//322 352//352
f 355//355 353//353 280//280
f 355//355 279//279 278//278
f 355//355 280//280 279//279
f 355//355 352//352 350//350
f 355//355 350//350 353//353
f 356//356 318//318 319//319
f 356//356 319//319 320//320
f 356//356 320//320 354//354
f 357//357 355//355 278//278
f 357//357 277//277 276//276
f 357//357 278//278 277//277
f 357//357 352//352 355//355
f 357//357 356//356 354//354
f 357//357 354//354 352//352
f 358//358 318//318 356//356
f 358//358 316//316 317//317
f 358//358 317//317 318//318
f 359//359 356//356 357//357
f 359//359 275//275 274//274
f 359//359 276//276 275//275
f 359//359 357//357 276//276
f 360//360 316//316 358//358
f 360//360 314//314 315//315
f 360//360 315//315 316//316
f 361//361 360//360 358//358
f 361//361 358//358 356//356
f 361//361 273//273 272//272
f 361//361 274//274 273//273
f 361//361 359//359 274//274
f 361//361 356//356 359//359
f 362//362 312//312 313//313
f 362//362 313//313 314//314
f 362//362 314//314 360//360
f 363//363 271//271 270//270
f 363//363 272//272 271//271
f 363//363 360//360 361//361
f 363//363 361//361 272//272
f 363//363 362//362 360//360
f 364//364 312//312 362//362
f 364//364 310//310 311//311
f 364//364 311//311 312//312
f 365//365 269//269 268//268
f 365//365 270//270 269//269
f 365//365 363//363 270//270
f 365//365 362//362 363//363
f 366//366 310//310 364//364
f 366//366 308//308 309//309
f 366//366 309//309 310//310
f 367//367 267//267 266//266
f 367//367 268//268 267//267
f 367//367 365//365 268//268
f 367//367 364//364 362//362
f 367//367 362//362 365//365
f 368//368 306//306 307//307
f 368//368 307//307 308//308
f 368//368 308//308 366//366
f 369//369 367//367 266//266
f 369//369 265//265 264//264
f 369//369 266//266 265//265
f 369//369 366//366 364//364
f 369//369 364//364 367//367
f 370//370 304//304 305//305
f 370//370 305//305 306//306
f 370//370 306//306 368//368
f 371//371 263//263 262//262
f 371//371 264//264 263//263
f 371//371 368//368 366//366
f 371//371 370//370 368//368
f 371//371 369//369 264//264
f 371//371 366//366 369//369
f 372//372 302//302 303//303
f 372//372 303//303 304//304
f 372//372 304//304 370//370
f 373//373 261//261 260//260
f 373//373 262//262 261//261
f 373//373 371//371 262//262
f 373//373 370//370 371//371
f 374//374 300//300 301//301
f 374//374 301//301 302//302
f 374//374 302//302 372//372
f 375//375 259//259 258//258
f 375//375 260//260 259//259
f 375//375 373//373 260//260
f 375//375 372//372 370//370
f 375//375 370//370 373//373
f 376//376 300//300 374//374
f 376//376 296//296 298//298
f 376//376 298//298 299//299
f 376//376 299//299 300//300
f 376//376 295//295 296//296
f 377//377 257//257 256//256
f 377//377 258//258 257//257
f 377//377 375//375 258//258
f 377//377 376//376 374//374
f 377//377 374//374 372//372
f 377//377 372//372 375//375
f 378//378 255//255 254//254
f 378//378 256//256 255//255
f 378//378 254//254 295//295
f 378//378 295//295 376//376
f 378//378 377//377 256//256
f 378//378 376//376 377//377
f 380//380 298//298 297//297
f 380//380 297//297 379//379
f 381//381 299//299 298//298
f 381//381 298//298 380//380
f 382//382 300//300 299//299
f 382//382 299//299 381//381
f 383//383 301//301 300//300
f 383//383 300//300 382//382
f 383//383 302//302 301//301
f 384//384 302//302 383//383
f 384//384 303//303 302//302
f 385//385 303//303 384//384
f 386//386 304//304 303//303
f 386//386 303//303 385//385
f 387//387 305//305 304//304
f 387//387 306//306 305//305
f 387//387 304//304 386//386
f 388//388 307//307 306//306
f 388//388 306//306 387//387
f 389//389 307//307 388//388
f 390//390 308//308 307//307
f 390//390 309//309 308//308
f 390//390 307//307 389//389
f 391//391 309//309 390//390
f 392//392 310//310 309//309
f 392//392 311//311 310//310
f 392//392 309//309 391//391
f 393//393 311//311 392//392
f 394//394 312//312 311//311
f 394//394 311//311 393//393
f 395//395 313//313 312//312
f 395//395 314//314 313//313
f 395//395 312//312 394//394
f 396//396 314//314 395//395
f 397//397 315//315 314//314
f 397//397 314//314 396//396
f 398//398 316//316 315//315
f 398//398 315//315 397//397
f 399//399 317//317 316//316
f 399//399 316//316 398//398
f 400//400 318//318 317//317
f 400//400 317//317 399//399
f 401//401 319//319 318//318
f 401//401 318//318 400//400
f 402//402 320//320 319//319
f 402//402 319//319 401//401
f 403//403 321//321 320//320
f 403//403 320//320 402//402
f 404//404 322//322 321//321
f 404//404 321//321 403//403
f 405//405 323//323 322//322
f 405//405 322//322 404//404
f 406//406 324//324 323//323
f 406//406 323//323 405//405
f 407//407 325//325 324//324
f 407//407 326//326 325//325
f 407//407 324//324 406//406
f 408//408 326//326 407//407
f 409//409 326//326 408//408
f 409//409 327//327 326//326
f 410//410 327//327 409//409
f 410//410 328//328 327//327
f 410//410 329//329 328//328
f 411//411 329//329 410//410
f 411//411 330//330 329//329
f 412//412 330//330 411//411
f 412//412 331//331 330//330
f 413//413 331//331 412//412
f 414//414 331//331 413//413
f 414//414 332//332 331//331
f 415//415 332//332 414//414
f 415//415 333//333 332//332
f 415//415 334//334 333//333
f 416//416 334//334 415//415
f 416//416 335//335 334//334
f 417//417 335//335 416//416
f 418//418 336//336 335//335
f 418//418 335//335 417//417
f 419//419 337//337 336//336
f 419//419 336//336 418//418
f 435//435 451//451 454//454
f 459//459 454//454 457//457
f 449//449 447//447 448//448
f 442//442 443//443 444//444
f 441//441 444//444 445//445
f 454//454 451//451 452//452
f 441//441 442//442 444//444
f 454//454 452//452 453//453
f 439//439 440//440 441//441
f 457//457 454//454 455//455
f 449//449 446//446 447//447
f 457//457 455//455 456//456
f 437//437 438//438 439//439
f 437//437 445//445 446//446
f 437//437 441//441 445//445
f 437//437 439//439 441//441
f 435//435 436//436 437//437
f 435//435 449//449 450//450
f 435//435 450//450 451//451
f 435//435 446//446 449//449
f 459//459 457//457 458//458
f 435//435 437//437 446//446
f 433//433 434//434 435//435
f 462//462 459//459 460//460
f 462//462 460//460 461//461
f 431//431 432//432 433//433
f 429//429 433//433 435//435
f 429//429 431//431 433//433
f 429//429 430//430 431//431
f 429//429 435//435 454//454
f 424//424 421//421 422//422
f 424//424 422//422 423//423
f 424//424 462//462 421//421
f 427//427 428//428 429//429
f 426//426 459//459 462//462
f 426//426 424//424 425//425
f 426//426 462//462 424//424
f 426//426 429//429 454//454
f 426//426 427//427 429//429
f 426//426 454//454 459//459
f 483//483 495//495 494//494
f 483//483 494//494 485//485
f 496//496 495//495 483//483
f 479//479 481//481 480//480
f 479//479 482//482 481//481
f 479//479 483//483 482//482
f 479//479 497//497 496//496
f 479//479 496//496 483//483
f 500//500 498//498 497//497
f 477//477 479//479 478//478
f 463//463 502//502 501//501
f 463//463 503//503 502//502
f 463//463 504//504 503//503
f 473//473 475//475 474//474
f 500//500 499//499 498//498
f 464//464 463//463 501//501
f 464//464 501//501 500//500
f 464//464 497//497 479//479
f 464//464 500//500 497//497
f 487//487 489//489 488//488
f 471//471 473//473 472//472
f 470//470 473//473 471//471
f 469//469 473//473 470//470
f 469//469 479//479 473//473
f 468//468 466//466 465//465
f 468//468 467//467 466//466
f 468//468 465//465 479//479
f 468//468 479//479 469//469
f 487//487 490//490 489//489
f 483//483 485//485 484//484
f 487//487 491//491 490//490
f 485//485 487//487 486//486
f 494//494 492//492 491//491
f 494//494 493//493 492//492
f 494//494 491//491 487//487
f 494//494 487//487 485//485
f 473//473 476//476 475//475
f 473//473 477//477 476//476
f 473//473 479//479 477//477
f 465//465 464//464 479//479

