# https://github.com/mikedh/trimesh
v 0.00700000 0.10000000 -1.37550000
v 0.00700000 0.10120000 -1.37550000
v 0.00700000 0.10120000 -1.28050000
v 0.00700000 0.10000000 -1.28050000
v 0.00950000 0.10000000 -1.37800000
v 0.00950000 0.10120000 -1.37800000
v 0.00730000 0.10150000 -1.37537574
v 0.00730000 0.10150000 -1.28062426
v 0.00950000 0.10000000 -1.27800000
v 0.02450000 0.10000000 -1.27800000
v 0.02700000 0.10000000 -1.28050000
v 0.02700000 0.10000000 -1.37550000
v 0.02450000 0.10000000 -1.37800000
v 0.00950000 0.10120000 -1.27800000
v 0.02450000 0.10120000 -1.37800000
v 0.00962426 0.10150000 -1.37770000
v 0.00962426 0.10150000 -1.27830000
v 0.02437574 0.10150000 -1.27830000
v 0.02670000 0.10150000 -1.28062426
v 0.02670000 0.10150000 -1.37537574
v 0.02437574 0.10150000 -1.37770000
v 0.01200000 0.10150000 -1.36921765
v 0.01252536 0.10150000 -1.36929683
v 0.01300403 0.10150000 -1.36952735
v 0.01339350 0.10150000 -1.36988872
v 0.01365914 0.10150000 -1.37034883
v 0.01377737 0.10150000 -1.37086680
v 0.01373766 0.10150000 -1.37139661
v 0.01354356 0.10150000 -1.37189117
v 0.01321231 0.10150000 -1.37230655
v 0.01277333 0.10150000 -1.37260584
v 0.01226565 0.10150000 -1.37276244
v 0.01173435 0.10150000 -1.37276244
v 0.01122667 0.10150000 -1.37260584
v 0.01078769 0.10150000 -1.37230655
v 0.01045644 0.10150000 -1.37189117
v 0.01026234 0.10150000 -1.37139661
v 0.01022263 0.10150000 -1.37086680
v 0.01034086 0.10150000 -1.37034883
v 0.01060650 0.10150000 -1.36988872
v 0.01099597 0.10150000 -1.36952735
v 0.01147464 0.10150000 -1.36929683
v 0.01200000 0.10150000 -1.28321765
v 0.01252536 0.10150000 -1.28329683
v 0.01300403 0.10150000 -1.28352735
v 0.01339350 0.10150000 -1.28388872
v 0.01365914 0.10150000 -1.28434883
v 0.01377737 0.10150000 -1.28486680
v 0.01373766 0.10150000 -1.28539661
v 0.01354356 0.10150000 -1.28589117
v 0.01321231 0.10150000 -1.28630655
v 0.01277333 0.10150000 -1.28660584
v 0.01226565 0.10150000 -1.28676244
v 0.01173435 0.10150000 -1.28676244
v 0.01122667 0.10150000 -1.28660584
v 0.01078769 0.10150000 -1.28630655
v 0.01045644 0.10150000 -1.28589117
v 0.01026234 0.10150000 -1.28539661
v 0.01022263 0.10150000 -1.28486680
v 0.01034086 0.10150000 -1.28434883
v 0.01060650 0.10150000 -1.28388872
v 0.01099597 0.10150000 -1.28352735
v 0.01147464 0.10150000 -1.28329683
v 0.02200000 0.10150000 -1.36921765
v 0.02252536 0.10150000 -1.36929683
v 0.02300403 0.10150000 -1.36952735
v 0.02339350 0.10150000 -1.36988872
v 0.02365914 0.10150000 -1.37034883
v 0.02377737 0.10150000 -1.37086680
v 0.02373766 0.10150000 -1.37139661
v 0.02354356 0.10150000 -1.37189117
v 0.02321231 0.10150000 -1.37230655
v 0.02277333 0.10150000 -1.37260584
v 0.02226565 0.10150000 -1.37276244
v 0.02173435 0.10150000 -1.37276244
v 0.02122667 0.10150000 -1.37260584
v 0.02078769 0.10150000 -1.37230655
v 0.02045644 0.10150000 -1.37189117
v 0.02026234 0.10150000 -1.37139661
v 0.02022263 0.10150000 -1.37086680
v 0.02034086 0.10150000 -1.37034883
v 0.02060650 0.10150000 -1.36988872
v 0.02099597 0.10150000 -1.36952735
v 0.02147464 0.10150000 -1.36929683
v 0.02200000 0.10150000 -1.28321765
v 0.02252536 0.10150000 -1.28329683
v 0.02300403 0.10150000 -1.28352735
v 0.02339350 0.10150000 -1.28388872
v 0.02365914 0.10150000 -1.28434883
v 0.02377737 0.10150000 -1.28486680
v 0.02373766 0.10150000 -1.28539661
v 0.02354356 0.10150000 -1.28589117
v 0.02321231 0.10150000 -1.28630655
v 0.02277333 0.10150000 -1.28660584
v 0.02226565 0.10150000 -1.28676244
v 0.02173435 0.10150000 -1.28676244
v 0.02122667 0.10150000 -1.28660584
v 0.02078769 0.10150000 -1.28630655
v 0.02045644 0.10150000 -1.28589117
v 0.02026234 0.10150000 -1.28539661
v 0.02022263 0.10150000 -1.28486680
v 0.02034086 0.10150000 -1.28434883
v 0.02060650 0.10150000 -1.28388872
v 0.02099597 0.10150000 -1.28352735
v 0.02147464 0.10150000 -1.28329683
v 0.02450000 0.10120000 -1.27800000
v 0.02700000 0.10120000 -1.28050000
v 0.02700000 0.10120000 -1.37550000
v 0.01200000 0.10086250 -1.36984400
v 0.01234074 0.10086250 -1.36989536
v 0.01265120 0.10086250 -1.37004487
v 0.01290380 0.10086250 -1.37027925
v 0.01307609 0.10086250 -1.37057767
v 0.01315277 0.10086250 -1.37091361
v 0.01312702 0.10086250 -1.37125723
v 0.01300113 0.10086250 -1.37157800
v 0.01278628 0.10086250 -1.37184741
v 0.01250157 0.10086250 -1.37204152
v 0.01217229 0.10086250 -1.37214309
v 0.01182771 0.10086250 -1.37214309
v 0.01149843 0.10086250 -1.37204152
v 0.01121372 0.10086250 -1.37184741
v 0.01099887 0.10086250 -1.37157800
v 0.01087298 0.10086250 -1.37125723
v 0.01084723 0.10086250 -1.37091361
v 0.01092391 0.10086250 -1.37057767
v 0.01109620 0.10086250 -1.37027925
v 0.01134880 0.10086250 -1.37004487
v 0.01165926 0.10086250 -1.36989536
v 0.01200000 0.10086250 -1.28384400
v 0.01234074 0.10086250 -1.28389536
v 0.01265120 0.10086250 -1.28404487
v 0.01290380 0.10086250 -1.28427925
v 0.01307609 0.10086250 -1.28457767
v 0.01315277 0.10086250 -1.28491361
v 0.01312702 0.10086250 -1.28525723
v 0.01300113 0.10086250 -1.28557800
v 0.01278628 0.10086250 -1.28584741
v 0.01250157 0.10086250 -1.28604152
v 0.01217229 0.10086250 -1.28614309
v 0.01182771 0.10086250 -1.28614309
v 0.01149843 0.10086250 -1.28604152
v 0.01121372 0.10086250 -1.28584741
v 0.01099887 0.10086250 -1.28557800
v 0.01087298 0.10086250 -1.28525723
v 0.01084723 0.10086250 -1.28491361
v 0.01092391 0.10086250 -1.28457767
v 0.01109620 0.10086250 -1.28427925
v 0.01134880 0.10086250 -1.28404487
v 0.01165926 0.10086250 -1.28389536
v 0.02200000 0.10086250 -1.36984400
v 0.02234074 0.10086250 -1.36989536
v 0.02265120 0.10086250 -1.37004487
v 0.02290380 0.10086250 -1.37027925
v 0.02307609 0.10086250 -1.37057767
v 0.02315277 0.10086250 -1.37091361
v 0.02312702 0.10086250 -1.37125723
v 0.02300113 0.10086250 -1.37157800
v 0.02278628 0.10086250 -1.37184741
v 0.02250157 0.10086250 -1.37204152
v 0.02217229 0.10086250 -1.37214309
v 0.02182771 0.10086250 -1.37214309
v 0.02149843 0.10086250 -1.37204152
v 0.02121372 0.10086250 -1.37184741
v 0.02099887 0.10086250 -1.37157800
v 0.02087298 0.10086250 -1.37125723
v 0.02084723 0.10086250 -1.37091361
v 0.02092391 0.10086250 -1.37057767
v 0.02109620 0.10086250 -1.37027925
v 0.02134880 0.10086250 -1.37004487
v 0.02165926 0.10086250 -1.36989536
v 0.02200000 0.10086250 -1.28384400
v 0.02234074 0.10086250 -1.28389536
v 0.02265120 0.10086250 -1.28404487
v 0.02290380 0.10086250 -1.28427925
v 0.02307609 0.10086250 -1.28457767
v 0.02315277 0.10086250 -1.28491361
v 0.02312702 0.10086250 -1.28525723
v 0.02300113 0.10086250 -1.28557800
v 0.02278628 0.10086250 -1.28584741
v 0.02250157 0.10086250 -1.28604152
v 0.02217229 0.10086250 -1.28614309
v 0.02182771 0.10086250 -1.28614309
v 0.02149843 0.10086250 -1.28604152
v 0.02121372 0.10086250 -1.28584741
v 0.02099887 0.10086250 -1.28557800
v 0.02087298 0.10086250 -1.28525723
v 0.02084723 0.10086250 -1.28491361
v 0.02092391 0.10086250 -1.28457767
v 0.02109620 0.10086250 -1.28427925
v 0.02134880 0.10086250 -1.28404487
v 0.02165926 0.10086250 -1.28389536
v 0.01200000 0.10048000 -1.36984400
v 0.01234074 0.10048000 -1.36989536
v 0.01265120 0.10048000 -1.37004487
v 0.01290380 0.10048000 -1.37027925
v 0.01307609 0.10048000 -1.37057767
v 0.01315277 0.10048000 -1.37091361
v 0.01312702 0.10048000 -1.37125723
v 0.01300113 0.10048000 -1.37157800
v 0.01278628 0.10048000 -1.37184741
v 0.01250157 0.10048000 -1.37204152
v 0.01217229 0.10048000 -1.37214309
v 0.01182771 0.10048000 -1.37214309
v 0.01149843 0.10048000 -1.37204152
v 0.01121372 0.10048000 -1.37184741
v 0.01099887 0.10048000 -1.37157800
v 0.01087298 0.10048000 -1.37125723
v 0.01084723 0.10048000 -1.37091361
v 0.01092391 0.10048000 -1.37057767
v 0.01109620 0.10048000 -1.37027925
v 0.01134880 0.10048000 -1.37004487
v 0.01165926 0.10048000 -1.36989536
v 0.01200000 0.10048000 -1.28384400
v 0.01234074 0.10048000 -1.28389536
v 0.01265120 0.10048000 -1.28404487
v 0.01290380 0.10048000 -1.28427925
v 0.01307609 0.10048000 -1.28457767
v 0.01315277 0.10048000 -1.28491361
v 0.01312702 0.10048000 -1.28525723
v 0.01300113 0.10048000 -1.28557800
v 0.01278628 0.10048000 -1.28584741
v 0.01250157 0.10048000 -1.28604152
v 0.01217229 0.10048000 -1.28614309
v 0.01182771 0.10048000 -1.28614309
v 0.01149843 0.10048000 -1.28604152
v 0.01121372 0.10048000 -1.28584741
v 0.01099887 0.10048000 -1.28557800
v 0.01087298 0.10048000 -1.28525723
v 0.01084723 0.10048000 -1.28491361
v 0.01092391 0.10048000 -1.28457767
v 0.01109620 0.10048000 -1.28427925
v 0.01134880 0.10048000 -1.28404487
v 0.01165926 0.10048000 -1.28389536
v 0.02200000 0.10048000 -1.36984400
v 0.02234074 0.10048000 -1.36989536
v 0.02265120 0.10048000 -1.37004487
v 0.02290380 0.10048000 -1.37027925
v 0.02307609 0.10048000 -1.37057767
v 0.02315277 0.10048000 -1.37091361
v 0.02312702 0.10048000 -1.37125723
v 0.02300113 0.10048000 -1.37157800
v 0.02278628 0.10048000 -1.37184741
v 0.02250157 0.10048000 -1.37204152
v 0.02217229 0.10048000 -1.37214309
v 0.02182771 0.10048000 -1.37214309
v 0.02149843 0.10048000 -1.37204152
v 0.02121372 0.10048000 -1.37184741
v 0.02099887 0.10048000 -1.37157800
v 0.02087298 0.10048000 -1.37125723
v 0.02084723 0.10048000 -1.37091361
v 0.02092391 0.10048000 -1.37057767
v 0.02109620 0.10048000 -1.37027925
v 0.02134880 0.10048000 -1.37004487
v 0.02165926 0.10048000 -1.36989536
v 0.02200000 0.10048000 -1.28384400
v 0.02234074 0.10048000 -1.28389536
v 0.02265120 0.10048000 -1.28404487
v 0.02290380 0.10048000 -1.28427925
v 0.02307609 0.10048000 -1.28457767
v 0.02315277 0.10048000 -1.28491361
v 0.02312702 0.10048000 -1.28525723
v 0.02300113 0.10048000 -1.28557800
v 0.02278628 0.10048000 -1.28584741
v 0.02250157 0.10048000 -1.28604152
v 0.02217229 0.10048000 -1.28614309
v 0.02182771 0.10048000 -1.28614309
v 0.02149843 0.10048000 -1.28604152
v 0.02121372 0.10048000 -1.28584741
v 0.02099887 0.10048000 -1.28557800
v 0.02087298 0.10048000 -1.28525723
v 0.02084723 0.10048000 -1.28491361
v 0.02092391 0.10048000 -1.28457767
v 0.02109620 0.10048000 -1.28427925
v 0.02134880 0.10048000 -1.28404487
v 0.02165926 0.10048000 -1.28389536
f 4 2 1
f 4 3 2
f 1 6 5
f 1 2 6
f 7 3 8
f 7 2 3
f 12 5 13
f 12 1 5
f 11 4 1
f 11 9 4
f 11 10 9
f 11 1 12
f 9 3 4
f 9 14 3
f 5 15 13
f 5 6 15
f 6 2 7
f 16 6 7
f 36 35 7
f 34 7 35
f 34 16 7
f 37 36 7
f 33 16 34
f 38 37 7
f 32 16 33
f 39 38 7
f 31 16 32
f 21 16 31
f 78 30 29
f 78 77 30
f 76 31 30
f 76 21 31
f 76 30 77
f 79 28 27
f 79 29 28
f 79 78 29
f 75 21 76
f 80 27 26
f 80 79 27
f 74 21 75
f 81 80 26
f 81 26 25
f 73 21 74
f 82 25 24
f 82 81 25
f 20 73 72
f 20 21 73
f 83 24 23
f 83 82 24
f 71 20 72
f 84 83 23
f 70 20 71
f 64 23 22
f 64 84 23
f 69 20 70
f 68 20 69
f 56 41 40
f 57 39 7
f 57 40 39
f 57 56 40
f 55 41 56
f 55 42 41
f 54 22 42
f 54 42 55
f 53 64 22
f 53 22 54
f 8 58 57
f 8 59 58
f 8 60 59
f 8 57 7
f 61 60 8
f 62 61 8
f 17 62 8
f 17 44 43
f 17 45 44
f 17 63 62
f 17 43 63
f 98 51 50
f 99 98 50
f 97 51 98
f 97 52 51
f 100 99 50
f 100 50 49
f 96 52 97
f 96 53 52
f 96 64 53
f 101 100 49
f 101 48 47
f 101 49 48
f 95 65 64
f 95 64 96
f 102 101 47
f 102 47 46
f 94 65 95
f 94 66 65
f 103 102 46
f 93 67 66
f 93 66 94
f 104 46 45
f 104 103 46
f 104 45 17
f 19 88 87
f 19 89 88
f 19 90 89
f 19 91 90
f 19 92 91
f 18 104 17
f 18 19 87
f 18 86 85
f 18 87 86
f 18 105 104
f 18 85 105
f 19 20 68
f 19 68 67
f 19 67 92
f 92 67 93
f 8 14 17
f 8 3 14
f 10 14 9
f 10 106 14
f 11 106 10
f 11 107 106
f 12 107 11
f 12 108 107
f 13 108 12
f 13 15 108
f 21 6 16
f 21 15 6
f 17 106 18
f 17 14 106
f 20 15 21
f 20 108 15
f 106 107 19
f 18 106 19
f 19 108 20
f 19 107 108
f 23 109 22
f 23 110 109
f 24 111 110
f 24 110 23
f 25 112 111
f 25 111 24
f 26 113 112
f 26 112 25
f 27 114 113
f 27 113 26
f 28 115 114
f 28 114 27
f 29 116 115
f 29 115 28
f 30 117 116
f 30 116 29
f 31 118 117
f 31 117 30
f 32 119 118
f 32 118 31
f 33 120 119
f 33 119 32
f 34 121 120
f 34 120 33
f 35 121 34
f 35 122 121
f 36 122 35
f 36 123 122
f 37 123 36
f 37 124 123
f 38 124 37
f 38 125 124
f 39 125 38
f 39 126 125
f 40 126 39
f 40 127 126
f 41 127 40
f 41 128 127
f 42 128 41
f 42 129 128
f 42 109 129
f 22 109 42
f 44 130 43
f 44 131 130
f 45 132 131
f 45 131 44
f 46 133 132
f 46 132 45
f 47 134 133
f 47 133 46
f 48 135 134
f 48 134 47
f 49 136 135
f 49 135 48
f 50 137 136
f 50 136 49
f 51 138 137
f 51 137 50
f 52 139 138
f 52 138 51
f 53 140 139
f 53 139 52
f 54 141 140
f 54 140 53
f 55 142 141
f 55 141 54
f 56 142 55
f 56 143 142
f 57 143 56
f 57 144 143
f 58 144 57
f 58 145 144
f 59 145 58
f 59 146 145
f 60 146 59
f 60 147 146
f 61 147 60
f 61 148 147
f 62 148 61
f 62 149 148
f 63 149 62
f 63 150 149
f 63 130 150
f 43 130 63
f 65 151 64
f 65 152 151
f 66 153 152
f 66 152 65
f 67 154 153
f 67 153 66
f 68 155 154
f 68 154 67
f 69 156 155
f 69 155 68
f 70 157 156
f 70 156 69
f 71 158 157
f 71 157 70
f 72 159 158
f 72 158 71
f 73 160 159
f 73 159 72
f 74 161 160
f 74 160 73
f 75 162 161
f 75 161 74
f 76 163 162
f 76 162 75
f 77 163 76
f 77 164 163
f 78 164 77
f 78 165 164
f 79 165 78
f 79 166 165
f 80 166 79
f 80 167 166
f 81 167 80
f 81 168 167
f 82 168 81
f 82 169 168
f 83 169 82
f 83 170 169
f 83 171 170
f 84 171 83
f 84 151 171
f 64 151 84
f 86 172 85
f 86 173 172
f 87 174 173
f 87 173 86
f 88 175 174
f 88 174 87
f 89 176 175
f 89 175 88
f 90 177 176
f 90 176 89
f 91 178 177
f 91 177 90
f 92 179 178
f 92 178 91
f 93 180 179
f 93 179 92
f 94 181 180
f 94 180 93
f 95 182 181
f 95 181 94
f 96 183 182
f 96 182 95
f 97 184 183
f 97 183 96
f 98 184 97
f 98 185 184
f 99 185 98
f 99 186 185
f 100 186 99
f 100 187 186
f 101 187 100
f 101 188 187
f 102 188 101
f 102 189 188
f 103 189 102
f 103 190 189
f 104 190 103
f 104 191 190
f 104 192 191
f 105 192 104
f 105 172 192
f 85 172 105
f 109 194 193
f 110 194 109
f 111 195 194
f 111 194 110
f 112 196 195
f 112 195 111
f 113 197 196
f 113 196 112
f 114 198 197
f 114 197 113
f 115 199 198
f 115 198 114
f 116 200 199
f 116 199 115
f 117 201 200
f 117 200 116
f 118 202 201
f 118 201 117
f 119 203 202
f 119 202 118
f 120 204 203
f 120 203 119
f 121 205 204
f 121 204 120
f 122 205 121
f 122 206 205
f 123 206 122
f 123 207 206
f 124 207 123
f 124 208 207
f 125 208 124
f 125 209 208
f 126 209 125
f 126 210 209
f 127 210 126
f 127 211 210
f 128 211 127
f 128 212 211
f 129 212 128
f 129 213 212
f 109 213 129
f 109 193 213
f 130 215 214
f 131 215 130
f 132 216 215
f 132 215 131
f 133 217 216
f 133 216 132
f 134 218 217
f 134 217 133
f 135 219 218
f 135 218 134
f 136 220 219
f 136 219 135
f 137 221 220
f 137 220 136
f 138 222 221
f 138 221 137
f 139 223 222
f 139 222 138
f 140 224 223
f 140 223 139
f 141 225 224
f 141 224 140
f 142 226 225
f 142 225 141
f 143 226 142
f 143 227 226
f 144 227 143
f 144 228 227
f 145 228 144
f 145 229 228
f 146 229 145
f 146 230 229
f 147 230 146
f 147 231 230
f 148 231 147
f 148 232 231
f 149 232 148
f 149 233 232
f 150 233 149
f 150 234 233
f 130 234 150
f 130 214 234
f 151 236 235
f 152 236 151
f 153 237 236
f 153 236 152
f 154 238 237
f 154 237 153
f 155 239 238
f 155 238 154
f 156 240 239
f 156 239 155
f 157 241 240
f 157 240 156
f 158 242 241
f 158 241 157
f 159 243 242
f 159 242 158
f 160 244 243
f 160 243 159
f 161 245 244
f 161 244 160
f 162 246 245
f 162 245 161
f 163 247 246
f 163 246 162
f 164 247 163
f 164 248 247
f 165 248 164
f 165 249 248
f 166 249 165
f 166 250 249
f 167 250 166
f 167 251 250
f 168 251 167
f 168 252 251
f 169 252 168
f 169 253 252
f 170 253 169
f 170 254 253
f 171 254 170
f 171 255 254
f 151 255 171
f 151 235 255
f 172 257 256
f 173 257 172
f 174 258 257
f 174 257 173
f 175 259 258
f 175 258 174
f 176 260 259
f 176 259 175
f 177 261 260
f 177 260 176
f 178 262 261
f 178 261 177
f 179 263 262
f 179 262 178
f 180 264 263
f 180 263 179
f 181 265 264
f 181 264 180
f 182 266 265
f 182 265 181
f 183 267 266
f 183 266 182
f 184 268 267
f 184 267 183
f 185 268 184
f 185 269 268
f 186 269 185
f 186 270 269
f 187 270 186
f 187 271 270
f 188 271 187
f 188 272 271
f 189 272 188
f 189 273 272
f 190 273 189
f 190 274 273
f 191 274 190
f 191 275 274
f 192 275 191
f 192 276 275
f 172 276 192
f 172 256 276
f 211 206 207
f 211 207 208
f 211 208 209
f 211 209 210
f 212 205 206
f 212 206 211
f 213 204 205
f 213 205 212
f 199 200 201
f 193 203 204
f 193 204 213
f 194 202 203
f 194 203 193
f 195 201 202
f 195 202 194
f 196 197 198
f 196 198 199
f 196 199 201
f 196 201 195
f 232 227 228
f 232 228 229
f 232 229 230
f 232 230 231
f 233 226 227
f 233 227 232
f 234 225 226
f 234 226 233
f 220 221 222
f 214 224 225
f 214 225 234
f 215 223 224
f 215 224 214
f 216 222 223
f 216 223 215
f 217 218 219
f 217 219 220
f 217 220 222
f 217 222 216
f 253 248 249
f 253 249 250
f 253 250 251
f 253 251 252
f 254 247 248
f 254 248 253
f 255 246 247
f 255 247 254
f 241 242 243
f 235 245 246
f 235 246 255
f 236 244 245
f 236 245 235
f 237 243 244
f 237 244 236
f 238 239 240
f 238 240 241
f 238 241 243
f 238 243 237
f 274 269 270
f 274 270 271
f 274 271 272
f 274 272 273
f 275 268 269
f 275 269 274
f 276 267 268
f 276 268 275
f 262 263 264
f 256 266 267
f 256 267 276
f 257 265 266
f 257 266 256
f 258 264 265
f 258 265 257
f 259 260 261
f 259 261 262
f 259 262 264
f 259 264 258

