# https://github.com/mikedh/trimesh
v 0.07179688 0.08936144 -0.44497392
v 0.08276335 0.09458926 -0.44497392
v 0.08403770 0.09655244 -0.36497392
v 0.06943238 0.09095775 -0.36497392
v 0.08936144 0.07179688 -0.44497392
v 0.08419197 0.07831139 -0.44497392
v 0.07831139 0.08419197 -0.44497392
v 0.09458926 0.08276335 -0.44497392
v 0.08971450 0.07370558 -0.44497392
v 0.08493485 0.07957985 -0.44497392
v 0.07957985 0.08493485 -0.44497392
v 0.07370558 0.08971450 -0.44497392
v 0.08251586 0.09292756 -0.44497392
v 0.09292756 0.08251586 -0.44497392
v 0.09655244 0.08403770 -0.36497392
v 0.09095775 0.06943238 -0.36497392
v 0.08482016 0.07759738 -0.36497392
v 0.07759738 0.08482016 -0.36497392
v 0.08379021 0.09489074 -0.36497392
v 0.07137905 0.09134879 -0.36497392
v 0.09489074 0.08379021 -0.36497392
v 0.09134879 0.07137905 -0.36497392
v 0.07887216 0.08556528 -0.36497392
v 0.08556528 0.07887216 -0.36497392
v 0.08936144 -0.07179688 -0.44497392
v 0.09458926 -0.08276335 -0.44497392
v 0.09655244 -0.08403770 -0.36497392
v 0.09095775 -0.06943238 -0.36497392
v 0.07179688 -0.08936144 -0.44497392
v 0.07831139 -0.08419197 -0.44497392
v 0.08419197 -0.07831139 -0.44497392
v 0.08276335 -0.09458926 -0.44497392
v 0.07370558 -0.08971450 -0.44497392
v 0.07957985 -0.08493485 -0.44497392
v 0.08493485 -0.07957985 -0.44497392
v 0.08971450 -0.07370558 -0.44497392
v 0.09292756 -0.08251586 -0.44497392
v 0.08251586 -0.09292756 -0.44497392
v 0.08403770 -0.09655244 -0.36497392
v 0.06943238 -0.09095775 -0.36497392
v 0.07759738 -0.08482016 -0.36497392
v 0.08482016 -0.07759738 -0.36497392
v 0.09489074 -0.08379021 -0.36497392
v 0.09134879 -0.07137905 -0.36497392
v 0.08379021 -0.09489074 -0.36497392
v 0.07137905 -0.09134879 -0.36497392
v 0.08556528 -0.07887216 -0.36497392
v 0.07887216 -0.08556528 -0.36497392
v -0.07179688 -0.08936144 -0.44497392
v -0.08276335 -0.09458926 -0.44497392
v -0.08403770 -0.09655244 -0.36497392
v -0.06943238 -0.09095775 -0.36497392
v -0.08936144 -0.07179688 -0.44497392
v -0.08419197 -0.07831139 -0.44497392
v -0.07831139 -0.08419197 -0.44497392
v -0.09458926 -0.08276335 -0.44497392
v -0.08971450 -0.07370558 -0.44497392
v -0.08493485 -0.07957985 -0.44497392
v -0.07957985 -0.08493485 -0.44497392
v -0.07370558 -0.08971450 -0.44497392
v -0.08251586 -0.09292756 -0.44497392
v -0.09292756 -0.08251586 -0.44497392
v -0.09655244 -0.08403770 -0.36497392
v -0.09095775 -0.06943238 -0.36497392
v -0.08482016 -0.07759738 -0.36497392
v -0.07759738 -0.08482016 -0.36497392
v -0.08379021 -0.09489074 -0.36497392
v -0.07137905 -0.09134879 -0.36497392
v -0.09489074 -0.08379021 -0.36497392
v -0.09134879 -0.07137905 -0.36497392
v -0.07887216 -0.08556528 -0.36497392
v -0.08556528 -0.07887216 -0.36497392
v -0.08936144 0.07179688 -0.44497392
v -0.09458926 0.08276335 -0.44497392
v -0.09655244 0.08403770 -0.36497392
v -0.09095775 0.06943238 -0.36497392
v -0.07179688 0.08936144 -0.44497392
v -0.07831139 0.08419197 -0.44497392
v -0.08419197 0.07831139 -0.44497392
v -0.08276335 0.09458926 -0.44497392
v -0.07370558 0.08971450 -0.44497392
v -0.07957985 0.08493485 -0.44497392
v -0.08493485 0.07957985 -0.44497392
v -0.08971450 0.07370558 -0.44497392
v -0.09292756 0.08251586 -0.44497392
v -0.08251586 0.09292756 -0.44497392
v -0.08403770 0.09655244 -0.36497392
v -0.06943238 0.09095775 -0.36497392
v -0.07759738 0.08482016 -0.36497392
v -0.08482016 0.07759738 -0.36497392
v -0.09489074 0.08379021 -0.36497392
v -0.09134879 0.07137905 -0.36497392
v -0.08379021 0.09489074 -0.36497392
v -0.07137905 0.09134879 -0.36497392
v -0.08556528 0.07887216 -0.36497392
v -0.07887216 0.08556528 -0.36497392
f 4 2 1
f 3 2 4
f 8 5 9
f 14 8 9
f 6 9 5
f 10 9 6
f 11 10 6
f 7 11 6
f 13 8 14
f 2 8 13
f 12 11 7
f 12 2 13
f 1 2 12
f 1 12 7
f 3 8 2
f 15 8 3
f 17 16 22
f 24 17 22
f 23 18 17
f 23 17 24
f 15 21 22
f 20 4 18
f 20 18 23
f 3 20 19
f 3 19 21
f 3 21 15
f 3 4 20
f 16 15 22
f 16 6 5
f 17 7 6
f 17 6 16
f 18 1 7
f 18 7 17
f 4 1 18
f 15 5 8
f 16 5 15
f 22 9 10
f 24 10 11
f 24 22 10
f 23 24 11
f 20 11 12
f 20 23 11
f 22 21 14
f 22 14 9
f 21 19 13
f 21 13 14
f 19 20 12
f 19 12 13
f 28 26 25
f 27 26 28
f 32 29 33
f 38 32 33
f 30 33 29
f 34 33 30
f 35 34 30
f 31 35 30
f 37 32 38
f 26 32 37
f 36 35 31
f 36 26 37
f 25 26 36
f 25 36 31
f 27 32 26
f 39 32 27
f 41 40 46
f 48 41 46
f 47 42 41
f 47 41 48
f 39 45 46
f 44 28 42
f 44 42 47
f 27 44 43
f 27 43 45
f 27 45 39
f 27 28 44
f 40 39 46
f 40 30 29
f 41 31 30
f 41 30 40
f 42 25 31
f 42 31 41
f 28 25 42
f 39 29 32
f 40 29 39
f 46 33 34
f 48 34 35
f 48 46 34
f 47 48 35
f 44 35 36
f 44 47 35
f 46 45 38
f 46 38 33
f 45 43 37
f 45 37 38
f 43 44 36
f 43 36 37
f 52 50 49
f 51 50 52
f 56 53 57
f 62 56 57
f 54 57 53
f 58 57 54
f 59 58 54
f 55 59 54
f 61 56 62
f 50 56 61
f 60 59 55
f 60 50 61
f 49 50 60
f 49 60 55
f 51 56 50
f 63 56 51
f 65 64 70
f 72 65 70
f 71 66 65
f 71 65 72
f 63 69 70
f 68 52 66
f 68 66 71
f 51 68 67
f 51 67 69
f 51 69 63
f 51 52 68
f 64 63 70
f 64 54 53
f 65 55 54
f 65 54 64
f 66 49 55
f 66 55 65
f 52 49 66
f 63 53 56
f 64 53 63
f 70 57 58
f 72 58 59
f 72 70 58
f 71 72 59
f 68 59 60
f 68 71 59
f 70 69 62
f 70 62 57
f 69 67 61
f 69 61 62
f 67 68 60
f 67 60 61
f 76 74 73
f 75 74 76
f 80 77 81
f 86 80 81
f 78 81 77
f 82 81 78
f 83 82 78
f 79 83 78
f 85 80 86
f 74 80 85
f 84 83 79
f 84 74 85
f 73 74 84
f 73 84 79
f 75 80 74
f 87 80 75
f 89 88 94
f 96 89 94
f 95 90 89
f 95 89 96
f 87 93 94
f 92 76 90
f 92 90 95
f 75 92 91
f 75 91 93
f 75 93 87
f 75 76 92
f 88 87 94
f 88 78 77
f 89 79 78
f 89 78 88
f 90 73 79
f 90 79 89
f 76 73 90
f 87 77 80
f 88 77 87
f 94 81 82
f 96 82 83
f 96 94 82
f 95 96 83
f 92 83 84
f 92 95 83
f 94 93 86
f 94 86 81
f 93 91 85
f 93 85 86
f 91 92 84
f 91 84 85

