# https://github.com/mikedh/trimesh
v 0.07179688 0.08936144 -0.44497392
v 0.08276335 0.09458926 -0.44497392
v 0.08403770 0.09655244 -0.36497392
v 0.06943238 0.09095775 -0.36497392
v 0.08936144 0.07179688 -0.44497392
v 0.08419197 0.07831139 -0.44497392
v 0.07831139 0.08419197 -0.44497392
v 0.09458926 0.08276335 -0.44497392
v 0.08971450 0.07370558 -0.44497392
v 0.08493485 0.07957985 -0.44497392
v 0.07957985 0.08493485 -0.44497392
v 0.07370558 0.08971450 -0.44497392
v 0.08251586 0.09292756 -0.44497392
v 0.09292756 0.08251586 -0.44497392
v 0.09655244 0.08403770 -0.36497392
v 0.09095775 0.06943238 -0.36497392
v 0.08482016 0.07759738 -0.36497392
v 0.07759738 0.08482016 -0.36497392
v 0.08379021 0.09489074 -0.36497392
v 0.07137905 0.09134879 -0.36497392
v 0.09489074 0.08379021 -0.36497392
v 0.09134879 0.07137905 -0.36497392
v 0.07887216 0.08556528 -0.36497392
v 0.08556528 0.07887216 -0.36497392
v 0.07187528 0.08930616 -0.44767392
v 0.08272034 0.09452300 -0.44767392
v 0.08930616 0.07187528 -0.44767392
v 0.08417068 0.07833526 -0.44767392
v 0.07833526 0.08417068 -0.44767392
v 0.09452300 0.08272034 -0.44767392
v 0.08936144 -0.07179688 -0.44497392
v 0.09458926 -0.08276335 -0.44497392
v 0.09655244 -0.08403770 -0.36497392
v 0.09095775 -0.06943238 -0.36497392
v 0.07179688 -0.08936144 -0.44497392
v 0.07831139 -0.08419197 -0.44497392
v 0.08419197 -0.07831139 -0.44497392
v 0.08276335 -0.09458926 -0.44497392
v 0.07370558 -0.08971450 -0.44497392
v 0.07957985 -0.08493485 -0.44497392
v 0.08493485 -0.07957985 -0.44497392
v 0.08971450 -0.07370558 -0.44497392
v 0.09292756 -0.08251586 -0.44497392
v 0.08251586 -0.09292756 -0.44497392
v 0.08403770 -0.09655244 -0.36497392
v 0.06943238 -0.09095775 -0.36497392
v 0.07759738 -0.08482016 -0.36497392
v 0.08482016 -0.07759738 -0.36497392
v 0.09489074 -0.08379021 -0.36497392
v 0.09134879 -0.07137905 -0.36497392
v 0.08379021 -0.09489074 -0.36497392
v 0.07137905 -0.09134879 -0.36497392
v 0.08556528 -0.07887216 -0.36497392
v 0.07887216 -0.08556528 -0.36497392
v 0.08930616 -0.07187528 -0.44767392
v 0.09452300 -0.08272034 -0.44767392
v 0.07187528 -0.08930616 -0.44767392
v 0.07833526 -0.08417068 -0.44767392
v 0.08417068 -0.07833526 -0.44767392
v 0.08272034 -0.09452300 -0.44767392
v -0.07179688 -0.08936144 -0.44497392
v -0.08276335 -0.09458926 -0.44497392
v -0.08403770 -0.09655244 -0.36497392
v -0.06943238 -0.09095775 -0.36497392
v -0.08936144 -0.07179688 -0.44497392
v -0.08419197 -0.07831139 -0.44497392
v -0.07831139 -0.08419197 -0.44497392
v -0.09458926 -0.08276335 -0.44497392
v -0.08971450 -0.07370558 -0.44497392
v -0.08493485 -0.07957985 -0.44497392
v -0.07957985 -0.08493485 -0.44497392
v -0.07370558 -0.08971450 -0.44497392
v -0.08251586 -0.09292756 -0.44497392
v -0.09292756 -0.08251586 -0.44497392
v -0.09655244 -0.08403770 -0.36497392
v -0.09095775 -0.06943238 -0.36497392
v -0.08482016 -0.07759738 -0.36497392
v -0.07759738 -0.08482016 -0.36497392
v -0.08379021 -0.09489074 -0.36497392
v -0.07137905 -0.09134879 -0.36497392
v -0.09489074 -0.08379021 -0.36497392
v -0.09134879 -0.07137905 -0.36497392
v -0.07887216 -0.08556528 -0.36497392
v -0.08556528 -0.07887216 -0.36497392
v -0.07187528 -0.08930616 -0.44767392
v -0.08272034 -0.09452300 -0.44767392
v -0.08930616 -0.07187528 -0.44767392
v -0.08417068 -0.07833526 -0.44767392
v -0.07833526 -0.08417068 -0.44767392
v -0.09452300 -0.08272034 -0.44767392
v -0.08936144 0.07179688 -0.44497392
v -0.09458926 0.08276335 -0.44497392
v -0.09655244 0.08403770 -0.36497392
v -0.09095775 0.06943238 -0.36497392
v -0.07179688 0.08936144 -0.44497392
v -0.07831139 0.08419197 -0.44497392
v -0.08419197 0.07831139 -0.44497392
v -0.08276335 0.09458926 -0.44497392
v -0.07370558 0.08971450 -0.44497392
v -0.07957985 0.08493485 -0.44497392
v -0.08493485 0.07957985 -0.44497392
v -0.08971450 0.07370558 -0.44497392
v -0.09292756 0.08251586 -0.44497392
v -0.08251586 0.09292756 -0.44497392
v -0.08403770 0.09655244 -0.36497392
v -0.06943238 0.09095775 -0.36497392
v -0.07759738 0.08482016 -0.36497392
v -0.08482016 0.07759738 -0.36497392
v -0.09489074 0.08379021 -0.36497392
v -0.09134879 0.07137905 -0.36497392
v -0.08379021 0.09489074 -0.36497392
v -0.07137905 0.09134879 -0.36497392
v -0.08556528 0.07887216 -0.36497392
v -0.07887216 0.08556528 -0.36497392
v -0.08930616 0.07187528 -0.44767392
v -0.09452300 0.08272034 -0.44767392
v -0.07187528 0.08930616 -0.44767392
v -0.07833526 0.08417068 -0.44767392
v -0.08417068 0.07833526 -0.44767392
v -0.08272034 0.09452300 -0.44767392
f 4 2 1
f 3 2 4
f 8 5 9
f 14 8 9
f 6 9 5
f 10 9 6
f 11 10 6
f 7 11 6
f 13 8 14
f 2 8 13
f 12 11 7
f 12 2 13
f 1 2 12
f 1 12 7
f 3 8 2
f 15 8 3
f 17 16 22
f 24 17 22
f 23 18 17
f 23 17 24
f 15 21 22
f 20 4 18
f 20 18 23
f 3 20 19
f 3 19 21
f 3 21 15
f 3 4 20
f 16 15 22
f 16 6 5
f 17 7 6
f 17 6 16
f 18 1 7
f 18 7 17
f 4 1 18
f 15 5 8
f 16 5 15
f 22 9 10
f 24 10 11
f 24 22 10
f 23 24 11
f 20 11 12
f 20 23 11
f 22 21 14
f 22 14 9
f 21 19 13
f 21 13 14
f 19 20 12
f 19 12 13
f 26 25 1
f 2 26 1
f 30 27 28
f 26 28 29
f 26 29 25
f 26 30 28
f 8 26 2
f 8 30 26
f 6 5 8
f 2 7 6
f 2 6 8
f 1 7 2
f 28 27 5
f 6 28 5
f 29 28 6
f 7 29 6
f 1 25 29
f 1 29 7
f 27 30 8
f 5 27 8
f 34 32 31
f 33 32 34
f 38 35 39
f 44 38 39
f 36 39 35
f 40 39 36
f 41 40 36
f 37 41 36
f 43 38 44
f 32 38 43
f 42 41 37
f 42 32 43
f 31 32 42
f 31 42 37
f 33 38 32
f 45 38 33
f 47 46 52
f 54 47 52
f 53 48 47
f 53 47 54
f 45 51 52
f 50 34 48
f 50 48 53
f 33 50 49
f 33 49 51
f 33 51 45
f 33 34 50
f 46 45 52
f 46 36 35
f 47 37 36
f 47 36 46
f 48 31 37
f 48 37 47
f 34 31 48
f 45 35 38
f 46 35 45
f 52 39 40
f 54 40 41
f 54 52 40
f 53 54 41
f 50 41 42
f 50 53 41
f 52 51 44
f 52 44 39
f 51 49 43
f 51 43 44
f 49 50 42
f 49 42 43
f 56 55 31
f 32 56 31
f 60 57 58
f 56 58 59
f 56 59 55
f 56 60 58
f 38 56 32
f 38 60 56
f 36 35 38
f 32 37 36
f 32 36 38
f 31 37 32
f 58 57 35
f 36 58 35
f 59 58 36
f 37 59 36
f 31 55 59
f 31 59 37
f 57 60 38
f 35 57 38
f 64 62 61
f 63 62 64
f 68 65 69
f 74 68 69
f 66 69 65
f 70 69 66
f 71 70 66
f 67 71 66
f 73 68 74
f 62 68 73
f 72 71 67
f 72 62 73
f 61 62 72
f 61 72 67
f 63 68 62
f 75 68 63
f 77 76 82
f 84 77 82
f 83 78 77
f 83 77 84
f 75 81 82
f 80 64 78
f 80 78 83
f 63 80 79
f 63 79 81
f 63 81 75
f 63 64 80
f 76 75 82
f 76 66 65
f 77 67 66
f 77 66 76
f 78 61 67
f 78 67 77
f 64 61 78
f 75 65 68
f 76 65 75
f 82 69 70
f 84 70 71
f 84 82 70
f 83 84 71
f 80 71 72
f 80 83 71
f 82 81 74
f 82 74 69
f 81 79 73
f 81 73 74
f 79 80 72
f 79 72 73
f 86 85 61
f 62 86 61
f 90 87 88
f 86 88 89
f 86 89 85
f 86 90 88
f 68 86 62
f 68 90 86
f 66 65 68
f 62 67 66
f 62 66 68
f 61 67 62
f 88 87 65
f 66 88 65
f 89 88 66
f 67 89 66
f 61 85 89
f 61 89 67
f 87 90 68
f 65 87 68
f 94 92 91
f 93 92 94
f 98 95 99
f 104 98 99
f 96 99 95
f 100 99 96
f 101 100 96
f 97 101 96
f 103 98 104
f 92 98 103
f 102 101 97
f 102 92 103
f 91 92 102
f 91 102 97
f 93 98 92
f 105 98 93
f 107 106 112
f 114 107 112
f 113 108 107
f 113 107 114
f 105 111 112
f 110 94 108
f 110 108 113
f 93 110 109
f 93 109 111
f 93 111 105
f 93 94 110
f 106 105 112
f 106 96 95
f 107 97 96
f 107 96 106
f 108 91 97
f 108 97 107
f 94 91 108
f 105 95 98
f 106 95 105
f 112 99 100
f 114 100 101
f 114 112 100
f 113 114 101
f 110 101 102
f 110 113 101
f 112 111 104
f 112 104 99
f 111 109 103
f 111 103 104
f 109 110 102
f 109 102 103
f 116 115 91
f 92 116 91
f 120 117 118
f 116 118 119
f 116 119 115
f 116 120 118
f 98 116 92
f 98 120 116
f 96 95 98
f 92 97 96
f 92 96 98
f 91 97 92
f 118 117 95
f 96 118 95
f 119 118 96
f 97 119 96
f 91 115 119
f 91 119 97
f 117 120 98
f 95 117 98

