# https://github.com/mikedh/trimesh
v 0.07187528 0.08930616 -0.44767392
v 0.08272034 0.09452300 -0.44767392
v 0.08276335 0.09458926 -0.44497392
v 0.07179688 0.08936144 -0.44497392
v 0.08930616 0.07187528 -0.44767392
v 0.08417068 0.07833526 -0.44767392
v 0.07833526 0.08417068 -0.44767392
v 0.09452300 0.08272034 -0.44767392
v 0.09458926 0.08276335 -0.44497392
v 0.08936144 0.07179688 -0.44497392
v 0.08419197 0.07831139 -0.44497392
v 0.07831139 0.08419197 -0.44497392
v 0.08930616 -0.07187528 -0.44767392
v 0.09452300 -0.08272034 -0.44767392
v 0.09458926 -0.08276335 -0.44497392
v 0.08936144 -0.07179688 -0.44497392
v 0.07187528 -0.08930616 -0.44767392
v 0.07833526 -0.08417068 -0.44767392
v 0.08417068 -0.07833526 -0.44767392
v 0.08272034 -0.09452300 -0.44767392
v 0.08276335 -0.09458926 -0.44497392
v 0.07179688 -0.08936144 -0.44497392
v 0.07831139 -0.08419197 -0.44497392
v 0.08419197 -0.07831139 -0.44497392
v -0.07187528 -0.08930616 -0.44767392
v -0.08272034 -0.09452300 -0.44767392
v -0.08276335 -0.09458926 -0.44497392
v -0.07179688 -0.08936144 -0.44497392
v -0.08930616 -0.07187528 -0.44767392
v -0.08417068 -0.07833526 -0.44767392
v -0.07833526 -0.08417068 -0.44767392
v -0.09452300 -0.08272034 -0.44767392
v -0.09458926 -0.08276335 -0.44497392
v -0.08936144 -0.07179688 -0.44497392
v -0.08419197 -0.07831139 -0.44497392
v -0.07831139 -0.08419197 -0.44497392
v -0.08930616 0.07187528 -0.44767392
v -0.09452300 0.08272034 -0.44767392
v -0.09458926 0.08276335 -0.44497392
v -0.08936144 0.07179688 -0.44497392
v -0.07187528 0.08930616 -0.44767392
v -0.07833526 0.08417068 -0.44767392
v -0.08417068 0.07833526 -0.44767392
v -0.08272034 0.09452300 -0.44767392
v -0.08276335 0.09458926 -0.44497392
v -0.07179688 0.08936144 -0.44497392
v -0.07831139 0.08419197 -0.44497392
v -0.08419197 0.07831139 -0.44497392
f 2 1 4
f 3 2 4
f 8 5 6
f 2 6 7
f 2 7 1
f 2 8 6
f 9 2 3
f 9 8 2
f 11 10 9
f 3 12 11
f 3 11 9
f 4 12 3
f 6 5 10
f 11 6 10
f 7 6 11
f 12 7 11
f 4 1 7
f 4 7 12
f 5 8 9
f 10 5 9
f 14 13 16
f 15 14 16
f 20 17 18
f 14 18 19
f 14 19 13
f 14 20 18
f 21 14 15
f 21 20 14
f 23 22 21
f 15 24 23
f 15 23 21
f 16 24 15
f 18 17 22
f 23 18 22
f 19 18 23
f 24 19 23
f 16 13 19
f 16 19 24
f 17 20 21
f 22 17 21
f 26 25 28
f 27 26 28
f 32 29 30
f 26 30 31
f 26 31 25
f 26 32 30
f 33 26 27
f 33 32 26
f 35 34 33
f 27 36 35
f 27 35 33
f 28 36 27
f 30 29 34
f 35 30 34
f 31 30 35
f 36 31 35
f 28 25 31
f 28 31 36
f 29 32 33
f 34 29 33
f 38 37 40
f 39 38 40
f 44 41 42
f 38 42 43
f 38 43 37
f 38 44 42
f 45 38 39
f 45 44 38
f 47 46 45
f 39 48 47
f 39 47 45
f 40 48 39
f 42 41 46
f 47 42 46
f 43 42 47
f 48 43 47
f 40 37 43
f 40 43 48
f 41 44 45
f 46 41 45

