# https://github.com/mikedh/trimesh
v 0.00000000 -0.06386154 -1.67600000
v 0.00951807 -0.06314826 -1.67600000
v 0.01882352 -0.06102435 -1.67600000
v 0.02770848 -0.05753726 -1.67600000
v 0.03597449 -0.05276488 -1.67600000
v 0.04343688 -0.04681382 -1.67600000
v 0.04992896 -0.03981702 -1.67600000
v 0.05530571 -0.03193077 -1.67600000
v 0.05944703 -0.02333124 -1.67600000
v 0.06226040 -0.01421053 -1.67600000
v 0.06368297 -0.00477238 -1.67600000
v 0.06368297 0.00477238 -1.67600000
v 0.06226040 0.01421053 -1.67600000
v 0.05944703 0.02333124 -1.67600000
v 0.05530571 0.03193077 -1.67600000
v 0.04992896 0.03981702 -1.67600000
v 0.04343688 0.04681382 -1.67600000
v 0.03597449 0.05276488 -1.67600000
v 0.02770848 0.05753726 -1.67600000
v 0.01882352 0.06102435 -1.67600000
v 0.00951807 0.06314826 -1.67600000
v -0.00000000 0.06386154 -1.67600000
v -0.00951807 0.06314826 -1.67600000
v -0.01882352 0.06102435 -1.67600000
v -0.02770848 0.05753726 -1.67600000
v -0.03597449 0.05276488 -1.67600000
v -0.04343688 0.04681382 -1.67600000
v -0.04992896 0.03981702 -1.67600000
v -0.05530571 0.03193077 -1.67600000
v -0.05944703 0.02333124 -1.67600000
v -0.06226040 0.01421053 -1.67600000
v -0.06368297 0.00477238 -1.67600000
v -0.06368297 -0.00477238 -1.67600000
v -0.06226040 -0.01421053 -1.67600000
v -0.05944703 -0.02333124 -1.67600000
v -0.05530571 -0.03193077 -1.67600000
v -0.04992896 -0.03981702 -1.67600000
v -0.04343688 -0.04681382 -1.67600000
v -0.03597449 -0.05276488 -1.67600000
v -0.02770848 -0.05753726 -1.67600000
v -0.01882352 -0.06102435 -1.67600000
v -0.00951807 -0.06314826 -1.67600000
v 0.00000000 -0.05370769 -1.65766667
v 0.00000000 -0.04355385 -1.63933333
v 0.00000000 -0.03340000 -1.62100000
v 0.00497801 -0.03302695 -1.62100000
v 0.00984482 -0.03191613 -1.62100000
v 0.01449172 -0.03009236 -1.62100000
v 0.01881489 -0.02759638 -1.62100000
v 0.02271777 -0.02448393 -1.62100000
v 0.02611317 -0.02082456 -1.62100000
v 0.02892525 -0.01670000 -1.62100000
v 0.03109118 -0.01220239 -1.62100000
v 0.03256259 -0.00743220 -1.62100000
v 0.03330661 -0.00249599 -1.62100000
v 0.03330661 0.00249599 -1.62100000
v 0.03256259 0.00743220 -1.62100000
v 0.03109118 0.01220239 -1.62100000
v 0.02892525 0.01670000 -1.62100000
v 0.02611317 0.02082456 -1.62100000
v 0.02271777 0.02448393 -1.62100000
v 0.01881489 0.02759638 -1.62100000
v 0.01449172 0.03009236 -1.62100000
v 0.00984482 0.03191613 -1.62100000
v 0.00497801 0.03302695 -1.62100000
v -0.00000000 0.03340000 -1.62100000
v -0.00497801 0.03302695 -1.62100000
v -0.00984482 0.03191613 -1.62100000
v -0.01449172 0.03009236 -1.62100000
v -0.01881489 0.02759638 -1.62100000
v -0.02271777 0.02448393 -1.62100000
v -0.02611317 0.02082456 -1.62100000
v -0.02892525 0.01670000 -1.62100000
v -0.03109118 0.01220239 -1.62100000
v -0.03256259 0.00743220 -1.62100000
v -0.03330661 0.00249599 -1.62100000
v -0.03330661 -0.00249599 -1.62100000
v -0.03256259 -0.00743220 -1.62100000
v -0.03109118 -0.01220239 -1.62100000
v -0.02892525 -0.01670000 -1.62100000
v -0.02611317 -0.02082456 -1.62100000
v -0.02271777 -0.02448393 -1.62100000
v -0.01881489 -0.02759638 -1.62100000
v -0.01449172 -0.03009236 -1.62100000
v -0.00984482 -0.03191613 -1.62100000
v -0.00497801 -0.03302695 -1.62100000
v -0.01283772 -0.04161887 -1.63933333
v -0.02453476 -0.03598588 -1.63933333
v -0.01583062 -0.05132161 -1.65766667
v -0.03405177 -0.02715538 -1.63933333
v -0.03025462 -0.04437538 -1.65766667
v -0.04054313 -0.01591201 -1.63933333
v -0.04199036 -0.03348620 -1.65766667
v -0.04343206 -0.00325478 -1.63933333
v -0.04999508 -0.01962162 -1.65766667
v -0.04246186 0.00969164 -1.63933333
v -0.05355751 -0.00401358 -1.65766667
v -0.03771874 0.02177692 -1.63933333
v -0.05236113 0.01195109 -1.65766667
v -0.02962414 0.03192723 -1.63933333
v -0.04651223 0.02685385 -1.65766667
v -0.01889731 0.03924066 -1.63933333
v -0.03653051 0.03937052 -1.65766667
v -0.00649136 0.04306739 -1.63933333
v -0.02330289 0.04838896 -1.65766667
v 0.00649136 0.04306739 -1.63933333
v -0.00800472 0.05310782 -1.65766667
v 0.01889731 0.03924066 -1.63933333
v 0.00800472 0.05310782 -1.65766667
v 0.02962414 0.03192723 -1.63933333
v 0.02330289 0.04838896 -1.65766667
v 0.03771874 0.02177692 -1.63933333
v 0.03653051 0.03937052 -1.65766667
v 0.04246186 0.00969164 -1.63933333
v 0.04651223 0.02685385 -1.65766667
v 0.04343206 -0.00325478 -1.63933333
v 0.05236113 0.01195109 -1.65766667
v 0.04054313 -0.01591201 -1.63933333
v 0.05355751 -0.00401358 -1.65766667
v 0.03405177 -0.02715538 -1.63933333
v 0.04999508 -0.01962162 -1.65766667
v 0.02453476 -0.03598588 -1.63933333
v 0.04199036 -0.03348620 -1.65766667
v 0.01283772 -0.04161887 -1.63933333
v 0.03025462 -0.04437538 -1.65766667
v 0.01583062 -0.05132161 -1.65766667
v 0.00000000 -0.06191758 -1.67600000
v 0.00922834 -0.06122601 -1.67600000
v 0.01825053 -0.05916676 -1.67600000
v 0.02686503 -0.05578581 -1.67600000
v 0.03487942 -0.05115871 -1.67600000
v 0.04211465 -0.04538880 -1.67600000
v 0.04840912 -0.03860498 -1.67600000
v 0.05362220 -0.03095879 -1.67600000
v 0.05763745 -0.02262103 -1.67600000
v 0.06036518 -0.01377796 -1.67600000
v 0.06174445 -0.00462711 -1.67600000
v 0.06174445 0.00462711 -1.67600000
v 0.06036518 0.01377796 -1.67600000
v 0.05763745 0.02262103 -1.67600000
v 0.05362220 0.03095879 -1.67600000
v 0.04840912 0.03860498 -1.67600000
v 0.04211465 0.04538880 -1.67600000
v 0.03487942 0.05115871 -1.67600000
v 0.02686503 0.05578581 -1.67600000
v 0.01825053 0.05916676 -1.67600000
v 0.00922834 0.06122601 -1.67600000
v -0.00000000 0.06191758 -1.67600000
v -0.00922834 0.06122601 -1.67600000
v -0.01825053 0.05916676 -1.67600000
v -0.02686503 0.05578581 -1.67600000
v -0.03487942 0.05115871 -1.67600000
v -0.04211465 0.04538880 -1.67600000
v -0.04840912 0.03860498 -1.67600000
v -0.05362220 0.03095879 -1.67600000
v -0.05763745 0.02262103 -1.67600000
v -0.06036518 0.01377796 -1.67600000
v -0.06174445 0.00462711 -1.67600000
v -0.06174445 -0.00462711 -1.67600000
v -0.06036518 -0.01377796 -1.67600000
v -0.05763745 -0.02262103 -1.67600000
v -0.05362220 -0.03095879 -1.67600000
v -0.04840912 -0.03860498 -1.67600000
v -0.04211465 -0.04538880 -1.67600000
v -0.03487942 -0.05115871 -1.67600000
v -0.02686503 -0.05578581 -1.67600000
v -0.01825053 -0.05916676 -1.67600000
v -0.00922834 -0.06122601 -1.67600000
v 0.00000000 -0.03340000 -1.61200000
v 0.00497801 -0.03302695 -1.61200000
v 0.00984482 -0.03191613 -1.61200000
v 0.01449172 -0.03009236 -1.61200000
v 0.01881489 -0.02759638 -1.61200000
v 0.02271777 -0.02448393 -1.61200000
v 0.02611317 -0.02082456 -1.61200000
v 0.02892525 -0.01670000 -1.61200000
v 0.03109118 -0.01220239 -1.61200000
v 0.03256259 -0.00743220 -1.61200000
v 0.03330661 -0.00249599 -1.61200000
v 0.03330661 0.00249599 -1.61200000
v 0.03256259 0.00743220 -1.61200000
v 0.03109118 0.01220239 -1.61200000
v 0.02892525 0.01670000 -1.61200000
v 0.02611317 0.02082456 -1.61200000
v 0.02271777 0.02448393 -1.61200000
v 0.01881489 0.02759638 -1.61200000
v 0.01449172 0.03009236 -1.61200000
v 0.00984482 0.03191613 -1.61200000
v 0.00497801 0.03302695 -1.61200000
v -0.00000000 0.03340000 -1.61200000
v -0.00497801 0.03302695 -1.61200000
v -0.00984482 0.03191613 -1.61200000
v -0.01449172 0.03009236 -1.61200000
v -0.01881489 0.02759638 -1.61200000
v -0.02271777 0.02448393 -1.61200000
v -0.02611317 0.02082456 -1.61200000
v -0.02892525 0.01670000 -1.61200000
v -0.03109118 0.01220239 -1.61200000
v -0.03256259 0.00743220 -1.61200000
v -0.03330661 0.00249599 -1.61200000
v -0.03330661 -0.00249599 -1.61200000
v -0.03256259 -0.00743220 -1.61200000
v -0.03109118 -0.01220239 -1.61200000
v -0.02892525 -0.01670000 -1.61200000
v -0.02611317 -0.02082456 -1.61200000
v -0.02271777 -0.02448393 -1.61200000
v -0.01881489 -0.02759638 -1.61200000
v -0.01449172 -0.03009236 -1.61200000
v -0.00984482 -0.03191613 -1.61200000
v -0.00497801 -0.03302695 -1.61200000
v 0.00000000 -0.05194505 -1.65766667
v 0.00000000 -0.04197253 -1.63933333
v 0.00000000 -0.03200000 -1.62100000
v 0.00476935 -0.03164259 -1.62100000
v 0.00943217 -0.03057833 -1.62100000
v 0.01388428 -0.02883100 -1.62100000
v 0.01802624 -0.02643964 -1.62100000
v 0.02176553 -0.02345766 -1.62100000
v 0.02501861 -0.01995167 -1.62100000
v 0.02771281 -0.01600000 -1.62100000
v 0.02978796 -0.01169091 -1.62100000
v 0.03119769 -0.00712067 -1.62100000
v 0.03191052 -0.00239136 -1.62100000
v 0.03191052 0.00239136 -1.62100000
v 0.03119769 0.00712067 -1.62100000
v 0.02978796 0.01169091 -1.62100000
v 0.02771281 0.01600000 -1.62100000
v 0.02501861 0.01995167 -1.62100000
v 0.02176553 0.02345766 -1.62100000
v 0.01802624 0.02643964 -1.62100000
v 0.01388428 0.02883100 -1.62100000
v 0.00943217 0.03057833 -1.62100000
v 0.00476935 0.03164259 -1.62100000
v -0.00000000 0.03200000 -1.62100000
v -0.00476935 0.03164259 -1.62100000
v -0.00943217 0.03057833 -1.62100000
v -0.01388428 0.02883100 -1.62100000
v -0.01802624 0.02643964 -1.62100000
v -0.02176553 0.02345766 -1.62100000
v -0.02501861 0.01995167 -1.62100000
v -0.02771281 0.01600000 -1.62100000
v -0.02978796 0.01169091 -1.62100000
v -0.03119769 0.00712067 -1.62100000
v -0.03191052 0.00239136 -1.62100000
v -0.03191052 -0.00239136 -1.62100000
v -0.03119769 -0.00712067 -1.62100000
v -0.02978796 -0.01169091 -1.62100000
v -0.02771281 -0.01600000 -1.62100000
v -0.02501861 -0.01995167 -1.62100000
v -0.02176553 -0.02345766 -1.62100000
v -0.01802624 -0.02643964 -1.62100000
v -0.01388428 -0.02883100 -1.62100000
v -0.00943217 -0.03057833 -1.62100000
v -0.00476935 -0.03164259 -1.62100000
v -0.01237162 -0.04010781 -1.63933333
v -0.02364397 -0.03467933 -1.63933333
v -0.01531107 -0.04963728 -1.65766667
v -0.03281544 -0.02616944 -1.63933333
v -0.02926169 -0.04291902 -1.65766667
v -0.03907112 -0.01533429 -1.63933333
v -0.04061228 -0.03238721 -1.65766667
v -0.04185516 -0.00313661 -1.63933333
v -0.04835429 -0.01897766 -1.65766667
v -0.04092019 0.00933977 -1.63933333
v -0.05179981 -0.00388186 -1.65766667
v -0.03634928 0.02098626 -1.63933333
v -0.05064268 0.01155886 -1.65766667
v -0.02854857 0.03076804 -1.63933333
v -0.04498574 0.02597253 -1.65766667
v -0.01821120 0.03781594 -1.63933333
v -0.03533161 0.03807842 -1.65766667
v -0.00625568 0.04150373 -1.63933333
v -0.02253811 0.04680088 -1.65766667
v 0.00625568 0.04150373 -1.63933333
v -0.00774201 0.05136487 -1.65766667
v 0.01821120 0.03781594 -1.63933333
v 0.00774201 0.05136487 -1.65766667
v 0.02854857 0.03076804 -1.63933333
v 0.02253811 0.04680088 -1.65766667
v 0.03634928 0.02098626 -1.63933333
v 0.03533161 0.03807842 -1.65766667
v 0.04092019 0.00933977 -1.63933333
v 0.04498574 0.02597253 -1.65766667
v 0.04185516 -0.00313661 -1.63933333
v 0.05064268 0.01155886 -1.65766667
v 0.03907112 -0.01533429 -1.63933333
v 0.05179981 -0.00388186 -1.65766667
v 0.03281544 -0.02616944 -1.63933333
v 0.04835429 -0.01897766 -1.65766667
v 0.02364397 -0.03467933 -1.63933333
v 0.04061228 -0.03238721 -1.65766667
v 0.01237162 -0.04010781 -1.63933333
v 0.02926169 -0.04291902 -1.65766667
v 0.01531107 -0.04963728 -1.65766667
v 0.00000000 -0.03200000 -1.61440000
v 0.00476935 -0.03164259 -1.61440000
v 0.00943217 -0.03057833 -1.61440000
v 0.01388428 -0.02883100 -1.61440000
v 0.01802624 -0.02643964 -1.61440000
v 0.02176553 -0.02345766 -1.61440000
v 0.02501861 -0.01995167 -1.61440000
v 0.02771281 -0.01600000 -1.61440000
v 0.02978796 -0.01169091 -1.61440000
v 0.03119769 -0.00712067 -1.61440000
v 0.03191052 -0.00239136 -1.61440000
v 0.03191052 0.00239136 -1.61440000
v 0.03119769 0.00712067 -1.61440000
v 0.02978796 0.01169091 -1.61440000
v 0.02771281 0.01600000 -1.61440000
v 0.02501861 0.01995167 -1.61440000
v 0.02176553 0.02345766 -1.61440000
v 0.01802624 0.02643964 -1.61440000
v 0.01388428 0.02883100 -1.61440000
v 0.00943217 0.03057833 -1.61440000
v 0.00476935 0.03164259 -1.61440000
v -0.00000000 0.03200000 -1.61440000
v -0.00476935 0.03164259 -1.61440000
v -0.00943217 0.03057833 -1.61440000
v -0.01388428 0.02883100 -1.61440000
v -0.01802624 0.02643964 -1.61440000
v -0.02176553 0.02345766 -1.61440000
v -0.02501861 0.01995167 -1.61440000
v -0.02771281 0.01600000 -1.61440000
v -0.02978796 0.01169091 -1.61440000
v -0.03119769 0.00712067 -1.61440000
v -0.03191052 0.00239136 -1.61440000
v -0.03191052 -0.00239136 -1.61440000
v -0.03119769 -0.00712067 -1.61440000
v -0.02978796 -0.01169091 -1.61440000
v -0.02771281 -0.01600000 -1.61440000
v -0.02501861 -0.01995167 -1.61440000
v -0.02176553 -0.02345766 -1.61440000
v -0.01802624 -0.02643964 -1.61440000
v -0.01388428 -0.02883100 -1.61440000
v -0.00943217 -0.03057833 -1.61440000
v -0.00476935 -0.03164259 -1.61440000
v 0.00000000 -0.03230000 -1.61500000
v 0.00481407 -0.03193924 -1.61500000
v 0.00952059 -0.03086500 -1.61500000
v 0.01401444 -0.02910129 -1.61500000
v 0.01819524 -0.02668751 -1.61500000
v 0.02196958 -0.02367758 -1.61500000
v 0.02525316 -0.02013872 -1.61500000
v 0.02797262 -0.01615000 -1.61500000
v 0.03006722 -0.01180052 -1.61500000
v 0.03149017 -0.00718743 -1.61500000
v 0.03220968 -0.00241378 -1.61500000
v 0.03220968 0.00241378 -1.61500000
v 0.03149017 0.00718743 -1.61500000
v 0.03006722 0.01180052 -1.61500000
v 0.02797262 0.01615000 -1.61500000
v 0.02525316 0.02013872 -1.61500000
v 0.02196958 0.02367758 -1.61500000
v 0.01819524 0.02668751 -1.61500000
v 0.01401444 0.02910129 -1.61500000
v 0.00952059 0.03086500 -1.61500000
v 0.00481407 0.03193924 -1.61500000
v -0.00000000 0.03230000 -1.61500000
v -0.00481407 0.03193924 -1.61500000
v -0.00952059 0.03086500 -1.61500000
v -0.01401444 0.02910129 -1.61500000
v -0.01819524 0.02668751 -1.61500000
v -0.02196958 0.02367758 -1.61500000
v -0.02525316 0.02013872 -1.61500000
v -0.02797262 0.01615000 -1.61500000
v -0.03006722 0.01180052 -1.61500000
v -0.03149017 0.00718743 -1.61500000
v -0.03220968 0.00241378 -1.61500000
v -0.03220968 -0.00241378 -1.61500000
v -0.03149017 -0.00718743 -1.61500000
v -0.03006722 -0.01180052 -1.61500000
v -0.02797262 -0.01615000 -1.61500000
v -0.02525316 -0.02013872 -1.61500000
v -0.02196958 -0.02367758 -1.61500000
v -0.01819524 -0.02668751 -1.61500000
v -0.01401444 -0.02910129 -1.61500000
v -0.00952059 -0.03086500 -1.61500000
v -0.00481407 -0.03193924 -1.61500000
v 0.00000000 -0.03230000 -1.61400000
v 0.00481407 -0.03193924 -1.61400000
v 0.00952059 -0.03086500 -1.61400000
v 0.01401444 -0.02910129 -1.61400000
v 0.01819524 -0.02668751 -1.61400000
v 0.02196958 -0.02367758 -1.61400000
v 0.02525316 -0.02013872 -1.61400000
v 0.02797262 -0.01615000 -1.61400000
v 0.03006722 -0.01180052 -1.61400000
v 0.03149017 -0.00718743 -1.61400000
v 0.03220968 -0.00241378 -1.61400000
v 0.03220968 0.00241378 -1.61400000
v 0.03149017 0.00718743 -1.61400000
v 0.03006722 0.01180052 -1.61400000
v 0.02797262 0.01615000 -1.61400000
v 0.02525316 0.02013872 -1.61400000
v 0.02196958 0.02367758 -1.61400000
v 0.01819524 0.02668751 -1.61400000
v 0.01401444 0.02910129 -1.61400000
v 0.00952059 0.03086500 -1.61400000
v 0.00481407 0.03193924 -1.61400000
v -0.00000000 0.03230000 -1.61400000
v -0.00481407 0.03193924 -1.61400000
v -0.00952059 0.03086500 -1.61400000
v -0.01401444 0.02910129 -1.61400000
v -0.01819524 0.02668751 -1.61400000
v -0.02196958 0.02367758 -1.61400000
v -0.02525316 0.02013872 -1.61400000
v -0.02797262 0.01615000 -1.61400000
v -0.03006722 0.01180052 -1.61400000
v -0.03149017 0.00718743 -1.61400000
v -0.03220968 0.00241378 -1.61400000
v -0.03220968 -0.00241378 -1.61400000
v -0.03149017 -0.00718743 -1.61400000
v -0.03006722 -0.01180052 -1.61400000
v -0.02797262 -0.01615000 -1.61400000
v -0.02525316 -0.02013872 -1.61400000
v -0.02196958 -0.02367758 -1.61400000
v -0.01819524 -0.02668751 -1.61400000
v -0.01401444 -0.02910129 -1.61400000
v -0.00952059 -0.03086500 -1.61400000
v -0.00481407 -0.03193924 -1.61400000
f 44 45 86
f 42 1 43
f 44 46 45
f 1 2 43
f 87 85 84
f 87 86 85
f 87 44 86
f 88 87 84
f 88 83 82
f 88 84 83
f 89 42 43
f 89 40 41
f 89 41 42
f 89 43 44
f 89 44 87
f 90 81 80
f 90 82 81
f 90 88 82
f 91 89 87
f 91 40 89
f 91 87 88
f 91 38 39
f 91 39 40
f 92 90 80
f 92 79 78
f 92 80 79
f 93 38 91
f 93 91 88
f 93 88 90
f 93 36 37
f 93 37 38
f 94 92 78
f 94 77 76
f 94 78 77
f 95 36 93
f 95 93 90
f 95 34 35
f 95 35 36
f 95 90 92
f 96 94 76
f 96 75 74
f 96 76 75
f 97 94 96
f 97 32 33
f 97 34 95
f 97 33 34
f 97 95 92
f 97 92 94
f 98 96 74
f 98 73 72
f 98 74 73
f 99 32 97
f 99 97 96
f 99 30 31
f 99 31 32
f 100 98 72
f 100 71 70
f 100 72 71
f 101 99 96
f 101 28 29
f 101 29 30
f 101 30 99
f 101 96 98
f 102 100 70
f 102 69 68
f 102 70 69
f 103 100 102
f 103 26 27
f 103 27 28
f 103 98 100
f 103 28 101
f 103 101 98
f 104 67 66
f 104 68 67
f 104 102 68
f 105 26 103
f 105 24 25
f 105 25 26
f 105 103 102
f 106 104 66
f 106 65 64
f 106 66 65
f 107 22 23
f 107 23 24
f 107 104 106
f 107 102 104
f 107 105 102
f 107 24 105
f 108 106 64
f 108 63 62
f 108 64 63
f 109 20 21
f 109 107 106
f 109 21 22
f 109 106 108
f 109 22 107
f 110 108 62
f 110 61 60
f 110 62 61
f 111 18 19
f 111 19 20
f 111 109 108
f 111 20 109
f 112 59 58
f 112 60 59
f 112 110 60
f 113 18 111
f 113 16 17
f 113 17 18
f 113 111 108
f 113 108 110
f 114 112 58
f 114 57 56
f 114 58 57
f 115 110 112
f 115 14 15
f 115 15 16
f 115 113 110
f 115 16 113
f 116 55 54
f 116 56 55
f 116 114 56
f 117 115 112
f 117 12 13
f 117 13 14
f 117 112 114
f 117 14 115
f 118 116 54
f 118 53 52
f 118 54 53
f 119 10 11
f 119 11 12
f 119 114 116
f 119 117 114
f 119 116 118
f 119 12 117
f 120 51 50
f 120 52 51
f 120 118 52
f 121 8 9
f 121 9 10
f 121 119 118
f 121 10 119
f 122 49 48
f 122 50 49
f 122 120 50
f 123 6 7
f 123 7 8
f 123 118 120
f 123 8 121
f 123 121 118
f 124 46 44
f 124 122 48
f 124 47 46
f 124 48 47
f 125 4 5
f 125 5 6
f 125 120 122
f 125 122 124
f 125 6 123
f 125 123 120
f 126 2 3
f 126 3 4
f 126 43 2
f 126 124 44
f 126 44 43
f 126 4 125
f 126 125 124
f 153 28 27
f 154 28 153
f 152 27 26
f 152 153 27
f 155 29 28
f 155 28 154
f 30 29 155
f 151 152 26
f 151 26 25
f 156 30 155
f 24 151 25
f 150 151 24
f 157 30 156
f 157 31 30
f 149 150 24
f 149 24 23
f 158 31 157
f 158 32 31
f 148 149 23
f 148 23 22
f 33 32 158
f 159 33 158
f 147 22 21
f 147 148 22
f 34 33 159
f 160 34 159
f 146 147 21
f 146 21 20
f 161 34 160
f 161 35 34
f 145 20 19
f 145 146 20
f 162 36 35
f 162 35 161
f 144 19 18
f 144 145 19
f 163 37 36
f 163 36 162
f 143 18 17
f 143 144 18
f 38 37 163
f 38 163 164
f 16 142 143
f 16 143 17
f 39 38 164
f 39 164 165
f 15 141 142
f 15 142 16
f 40 165 166
f 40 39 165
f 14 140 141
f 14 141 15
f 41 40 166
f 41 166 167
f 13 139 140
f 13 140 14
f 42 167 168
f 42 41 167
f 12 139 13
f 12 138 139
f 1 42 168
f 1 168 127
f 11 138 12
f 11 137 138
f 2 1 127
f 2 127 128
f 10 137 11
f 10 136 137
f 129 2 128
f 3 2 129
f 9 136 10
f 9 135 136
f 134 135 9
f 4 3 129
f 4 129 130
f 131 4 130
f 8 134 9
f 8 133 134
f 5 4 131
f 7 133 8
f 6 5 131
f 6 133 7
f 6 131 132
f 6 132 133
f 169 45 46
f 170 169 46
f 171 46 47
f 171 170 46
f 172 47 48
f 172 171 47
f 173 48 49
f 173 172 48
f 174 49 50
f 174 50 51
f 174 173 49
f 175 174 51
f 176 51 52
f 176 175 51
f 177 52 53
f 177 176 52
f 178 53 54
f 178 177 53
f 179 54 55
f 179 178 54
f 180 55 56
f 180 179 55
f 181 56 57
f 181 180 56
f 182 57 58
f 182 58 59
f 182 181 57
f 183 182 59
f 184 59 60
f 184 60 61
f 184 183 59
f 185 184 61
f 186 61 62
f 186 62 63
f 186 185 61
f 187 63 64
f 187 186 63
f 188 187 64
f 189 64 65
f 189 65 66
f 189 188 64
f 190 66 67
f 190 189 66
f 191 190 67
f 192 67 68
f 192 191 67
f 193 68 69
f 193 192 68
f 194 69 70
f 194 193 69
f 195 70 71
f 195 71 72
f 195 194 70
f 196 195 72
f 197 72 73
f 197 196 72
f 198 197 73
f 198 73 74
f 198 74 75
f 199 198 75
f 199 75 76
f 200 199 76
f 201 200 76
f 201 76 77
f 201 77 78
f 202 201 78
f 203 202 78
f 203 78 79
f 203 79 80
f 204 203 80
f 205 204 80
f 205 80 81
f 205 81 82
f 206 205 82
f 206 82 83
f 207 83 84
f 207 206 83
f 208 207 84
f 209 84 85
f 209 85 86
f 209 208 84
f 210 209 86
f 169 86 45
f 169 210 86
f 212 254 213
f 168 211 127
f 212 213 214
f 127 211 128
f 255 212 211
f 255 252 253
f 255 253 254
f 255 254 212
f 256 252 255
f 256 250 251
f 256 251 252
f 257 211 168
f 257 167 166
f 257 168 167
f 257 255 211
f 258 248 249
f 258 249 250
f 258 250 256
f 259 256 255
f 259 165 164
f 259 166 165
f 259 257 166
f 259 255 257
f 260 248 258
f 260 246 247
f 260 247 248
f 261 258 256
f 261 259 164
f 261 256 259
f 261 163 162
f 261 164 163
f 262 246 260
f 262 244 245
f 262 245 246
f 263 261 162
f 263 258 261
f 263 161 160
f 263 162 161
f 263 260 258
f 263 262 260
f 264 244 262
f 264 242 243
f 264 243 244
f 265 262 263
f 265 159 158
f 265 160 159
f 265 263 160
f 266 242 264
f 266 240 241
f 266 241 242
f 267 262 265
f 267 157 156
f 267 158 157
f 267 265 158
f 267 264 262
f 268 240 266
f 268 238 239
f 268 239 240
f 269 266 264
f 269 155 154
f 269 156 155
f 269 267 156
f 269 264 267
f 270 236 237
f 270 237 238
f 270 238 268
f 271 269 154
f 271 153 152
f 271 154 153
f 271 268 266
f 271 266 269
f 272 234 235
f 272 235 236
f 272 236 270
f 273 271 152
f 273 151 150
f 273 152 151
f 273 268 271
f 273 272 270
f 273 270 268
f 274 234 272
f 274 232 233
f 274 233 234
f 275 272 273
f 275 149 148
f 275 150 149
f 275 273 150
f 276 232 274
f 276 230 231
f 276 231 232
f 277 276 274
f 277 274 272
f 277 147 146
f 277 148 147
f 277 275 148
f 277 272 275
f 278 228 229
f 278 229 230
f 278 230 276
f 279 145 144
f 279 146 145
f 279 276 277
f 279 277 146
f 279 278 276
f 280 228 278
f 280 226 227
f 280 227 228
f 281 143 142
f 281 144 143
f 281 279 144
f 281 278 279
f 282 226 280
f 282 224 225
f 282 225 226
f 283 141 140
f 283 142 141
f 283 281 142
f 283 280 278
f 283 278 281
f 284 222 223
f 284 223 224
f 284 224 282
f 285 283 140
f 285 139 138
f 285 140 139
f 285 282 280
f 285 280 283
f 286 220 221
f 286 221 222
f 286 222 284
f 287 137 136
f 287 138 137
f 287 284 282
f 287 286 284
f 287 285 138
f 287 282 285
f 288 218 219
f 288 219 220
f 288 220 286
f 289 135 134
f 289 136 135
f 289 287 136
f 289 286 287
f 290 216 217
f 290 217 218
f 290 218 288
f 291 133 132
f 291 134 133
f 291 289 134
f 291 288 286
f 291 286 289
f 292 216 290
f 292 212 214
f 292 214 215
f 292 215 216
f 292 211 212
f 293 131 130
f 293 132 131
f 293 291 132
f 293 292 290
f 293 290 288
f 293 288 291
f 294 129 128
f 294 130 129
f 294 128 211
f 294 211 292
f 294 293 130
f 294 292 293
f 197 194 195
f 197 195 196
f 190 191 192
f 189 192 193
f 189 190 192
f 202 199 200
f 202 200 201
f 187 188 189
f 205 202 203
f 205 203 204
f 185 186 187
f 185 193 194
f 185 189 193
f 185 187 189
f 207 205 206
f 207 202 205
f 183 184 185
f 183 197 198
f 183 198 199
f 183 194 197
f 183 199 202
f 183 185 194
f 181 182 183
f 210 207 208
f 210 208 209
f 179 180 181
f 177 181 183
f 177 179 181
f 177 178 179
f 177 183 202
f 172 169 170
f 172 170 171
f 172 210 169
f 175 176 177
f 174 207 210
f 174 172 173
f 174 210 172
f 174 177 202
f 174 175 177
f 174 202 207
f 296 214 213
f 296 213 295
f 297 215 214
f 297 214 296
f 298 216 215
f 298 215 297
f 299 217 216
f 299 216 298
f 299 218 217
f 300 218 299
f 300 219 218
f 301 219 300
f 302 220 219
f 302 219 301
f 303 221 220
f 303 222 221
f 303 220 302
f 304 223 222
f 304 222 303
f 305 223 304
f 306 224 223
f 306 225 224
f 306 223 305
f 307 225 306
f 308 226 225
f 308 227 226
f 308 225 307
f 309 227 308
f 310 228 227
f 310 227 309
f 311 229 228
f 311 230 229
f 311 228 310
f 312 230 311
f 313 231 230
f 313 230 312
f 314 232 231
f 314 231 313
f 315 233 232
f 315 232 314
f 316 234 233
f 316 233 315
f 317 235 234
f 317 234 316
f 318 236 235
f 318 235 317
f 319 237 236
f 319 236 318
f 320 238 237
f 320 237 319
f 321 239 238
f 321 238 320
f 322 240 239
f 322 239 321
f 323 241 240
f 323 242 241
f 323 240 322
f 324 242 323
f 325 242 324
f 325 243 242
f 326 243 325
f 326 244 243
f 326 245 244
f 327 245 326
f 327 246 245
f 328 246 327
f 328 247 246
f 329 247 328
f 330 247 329
f 330 248 247
f 331 248 330
f 331 249 248
f 331 250 249
f 332 250 331
f 332 251 250
f 333 251 332
f 334 252 251
f 334 251 333
f 335 253 252
f 335 252 334
f 336 254 253
f 336 253 335
f 295 213 254
f 295 254 336
f 319 321 320
f 319 322 321
f 319 323 322
f 317 319 318
f 326 324 323
f 326 325 324
f 326 323 319
f 326 319 317
f 315 317 316
f 315 327 326
f 315 326 317
f 328 327 315
f 311 313 312
f 311 314 313
f 311 315 314
f 311 329 328
f 311 328 315
f 332 330 329
f 332 331 330
f 309 311 310
f 295 334 333
f 295 335 334
f 295 336 335
f 305 307 306
f 305 308 307
f 305 309 308
f 305 311 309
f 296 295 333
f 296 333 332
f 296 329 311
f 296 332 329
f 297 296 311
f 303 305 304
f 302 305 303
f 301 305 302
f 301 311 305
f 300 298 297
f 300 299 298
f 300 297 311
f 300 311 301
f 380 337 338
f 380 379 337
f 381 338 339
f 381 380 338
f 382 339 340
f 382 381 339
f 383 340 341
f 383 382 340
f 384 341 342
f 384 383 341
f 385 342 343
f 385 384 342
f 386 343 344
f 386 385 343
f 387 344 345
f 387 345 346
f 387 386 344
f 388 387 346
f 389 346 347
f 389 388 346
f 390 347 348
f 390 389 347
f 391 348 349
f 391 390 348
f 392 349 350
f 392 391 349
f 393 350 351
f 393 392 350
f 394 351 352
f 394 393 351
f 395 352 353
f 395 353 354
f 395 394 352
f 396 395 354
f 397 354 355
f 397 396 354
f 398 355 356
f 398 397 355
f 399 356 357
f 399 398 356
f 400 357 358
f 400 399 357
f 401 358 359
f 401 400 358
f 402 359 360
f 402 401 359
f 403 360 361
f 403 402 360
f 404 361 362
f 404 362 363
f 404 403 361
f 405 404 363
f 406 363 364
f 406 405 363
f 407 364 365
f 407 406 364
f 408 407 365
f 408 365 366
f 409 408 366
f 409 366 367
f 410 409 367
f 410 367 368
f 411 410 368
f 411 368 369
f 412 411 369
f 412 369 370
f 413 412 370
f 413 370 371
f 414 413 371
f 414 371 372
f 414 372 373
f 415 414 373
f 416 415 373
f 416 373 374
f 417 374 375
f 417 416 374
f 418 375 376
f 418 417 375
f 419 376 377
f 419 377 378
f 419 418 376
f 420 419 378
f 379 378 337
f 379 420 378
f 361 363 362
f 361 364 363
f 361 365 364
f 366 365 361
f 360 366 361
f 367 366 360
f 358 360 359
f 369 368 367
f 370 369 367
f 355 357 356
f 355 358 357
f 372 371 370
f 372 370 367
f 353 355 354
f 352 360 358
f 352 358 355
f 352 355 353
f 350 352 351
f 350 367 360
f 350 372 367
f 350 360 352
f 337 375 374
f 337 376 375
f 337 377 376
f 337 378 377
f 347 349 348
f 347 350 349
f 347 373 372
f 347 374 373
f 347 372 350
f 338 337 374
f 345 374 347
f 345 347 346
f 341 340 339
f 342 339 338
f 342 344 343
f 342 345 344
f 342 338 374
f 342 341 339
f 342 374 345
f 403 404 405
f 403 405 406
f 403 406 407
f 408 403 407
f 402 403 408
f 409 402 408
f 400 401 402
f 411 409 410
f 412 409 411
f 397 398 399
f 397 399 400
f 414 412 413
f 414 409 412
f 395 396 397
f 394 400 402
f 394 397 400
f 394 395 397
f 392 393 394
f 392 402 409
f 392 409 414
f 392 394 402
f 379 416 417
f 379 417 418
f 379 418 419
f 379 419 420
f 389 390 391
f 389 391 392
f 389 414 415
f 389 415 416
f 389 392 414
f 380 416 379
f 387 389 416
f 387 388 389
f 383 381 382
f 384 380 381
f 384 385 386
f 384 386 387
f 384 416 380
f 384 381 383
f 384 387 416

