# https://github.com/mikedh/trimesh
v 0.09583158 0.09583158 -1.07500000
v 0.09300315 0.09866000 -0.97600000
v 0.14891669 0.15089659 -1.01650000
v 0.14990664 0.14990664 -1.07500000
v 0.09583158 0.09583158 -0.85500000
v 0.14990664 0.14990664 -0.94500000
v 0.09866000 0.09300315 -0.97600000
v 0.15089659 0.14891669 -1.01650000
v 0.09583158 -0.09583158 -1.07500000
v 0.09866000 -0.09300315 -0.97600000
v 0.15089659 -0.14891669 -1.01650000
v 0.14990664 -0.14990664 -1.07500000
v 0.09583158 -0.09583158 -0.85500000
v 0.14990664 -0.14990664 -0.94500000
v 0.09300315 -0.09866000 -0.97600000
v 0.14891669 -0.15089659 -1.01650000
v -0.09583158 -0.09583158 -1.07500000
v -0.09300315 -0.09866000 -0.97600000
v -0.14891669 -0.15089659 -1.01650000
v -0.14990664 -0.14990664 -1.07500000
v -0.09583158 -0.09583158 -0.85500000
v -0.14990664 -0.14990664 -0.94500000
v -0.09866000 -0.09300315 -0.97600000
v -0.15089659 -0.14891669 -1.01650000
v -0.09583158 0.09583158 -1.07500000
v -0.09866000 0.09300315 -0.97600000
v -0.15089659 0.14891669 -1.01650000
v -0.14990664 0.14990664 -1.07500000
v -0.09583158 0.09583158 -0.85500000
v -0.14990664 0.14990664 -0.94500000
v -0.09300315 0.09866000 -0.97600000
v -0.14891669 0.15089659 -1.01650000
f 3 1 2
f 3 4 1
f 3 2 5
f 6 3 5
f 6 5 7
f 8 6 7
f 4 7 1
f 4 8 7
f 2 1 7
f 5 2 7
f 8 4 3
f 6 8 3
f 11 9 10
f 11 12 9
f 11 10 13
f 14 11 13
f 14 13 15
f 16 14 15
f 12 15 9
f 12 16 15
f 10 9 15
f 13 10 15
f 16 12 11
f 14 16 11
f 19 17 18
f 19 20 17
f 19 18 21
f 22 19 21
f 22 21 23
f 24 22 23
f 20 23 17
f 20 24 23
f 18 17 23
f 21 18 23
f 24 20 19
f 22 24 19
f 27 25 26
f 27 28 25
f 27 26 29
f 30 27 29
f 30 29 31
f 32 30 31
f 28 31 25
f 28 32 31
f 26 25 31
f 29 26 31
f 32 28 27
f 30 32 27

