# https://github.com/mikedh/trimesh
v -0.00000000 -0.09480000 1.08490000
v 0.01412921 -0.09374116 1.08490000
v 0.02794279 -0.09058830 1.08490000
v 0.04113218 -0.08541185 1.08490000
v 0.05340274 -0.07832744 1.08490000
v 0.06448038 -0.06949332 1.08490000
v 0.07411762 -0.05910683 1.08490000
v 0.08209921 -0.04740000 1.08490000
v 0.08824683 -0.03463433 1.08490000
v 0.09242317 -0.02109498 1.08490000
v 0.09453492 -0.00708441 1.08490000
v 0.09453492 0.00708441 1.08490000
v 0.09242317 0.02109498 1.08490000
v 0.08824683 0.03463433 1.08490000
v 0.08209921 0.04740000 1.08490000
v 0.07411762 0.05910683 1.08490000
v 0.06448038 0.06949332 1.08490000
v 0.05340274 0.07832744 1.08490000
v 0.04113218 0.08541185 1.08490000
v 0.02794279 0.09058830 1.08490000
v 0.01412921 0.09374116 1.08490000
v -0.00000000 0.09480000 1.08490000
v -0.01412921 0.09374116 1.08490000
v -0.02794279 0.09058830 1.08490000
v -0.04113218 0.08541185 1.08490000
v -0.05340274 0.07832744 1.08490000
v -0.06448038 0.06949332 1.08490000
v -0.07411762 0.05910683 1.08490000
v -0.08209921 0.04740000 1.08490000
v -0.08824683 0.03463433 1.08490000
v -0.09242317 0.02109498 1.08490000
v -0.09453492 0.00708441 1.08490000
v -0.09453492 -0.00708441 1.08490000
v -0.09242317 -0.02109498 1.08490000
v -0.08824683 -0.03463433 1.08490000
v -0.08209921 -0.04740000 1.08490000
v -0.07411762 -0.05910683 1.08490000
v -0.06448038 -0.06949332 1.08490000
v -0.05340274 -0.07832744 1.08490000
v -0.04113218 -0.08541185 1.08490000
v -0.02794279 -0.09058830 1.08490000
v -0.01412921 -0.09374116 1.08490000
v -0.00000000 -0.09480000 1.08380000
v 0.01412921 -0.09374116 1.08380000
v 0.02794279 -0.09058830 1.08380000
v 0.04113218 -0.08541185 1.08380000
v 0.05340274 -0.07832744 1.08380000
v 0.06448038 -0.06949332 1.08380000
v 0.07411762 -0.05910683 1.08380000
v 0.08209921 -0.04740000 1.08380000
v 0.08824683 -0.03463433 1.08380000
v 0.09242317 -0.02109498 1.08380000
v 0.09453492 -0.00708441 1.08380000
v 0.09453492 0.00708441 1.08380000
v 0.09242317 0.02109498 1.08380000
v 0.08824683 0.03463433 1.08380000
v 0.08209921 0.04740000 1.08380000
v 0.07411762 0.05910683 1.08380000
v 0.06448038 0.06949332 1.08380000
v 0.05340274 0.07832744 1.08380000
v 0.04113218 0.08541185 1.08380000
v 0.02794279 0.09058830 1.08380000
v 0.01412921 0.09374116 1.08380000
v -0.00000000 0.09480000 1.08380000
v -0.01412921 0.09374116 1.08380000
v -0.02794279 0.09058830 1.08380000
v -0.04113218 0.08541185 1.08380000
v -0.05340274 0.07832744 1.08380000
v -0.06448038 0.06949332 1.08380000
v -0.07411762 0.05910683 1.08380000
v -0.08209921 0.04740000 1.08380000
v -0.08824683 0.03463433 1.08380000
v -0.09242317 0.02109498 1.08380000
v -0.09453492 0.00708441 1.08380000
v -0.09453492 -0.00708441 1.08380000
v -0.09242317 -0.02109498 1.08380000
v -0.08824683 -0.03463433 1.08380000
v -0.08209921 -0.04740000 1.08380000
v -0.07411762 -0.05910683 1.08380000
v -0.06448038 -0.06949332 1.08380000
v -0.05340274 -0.07832744 1.08380000
v -0.04113218 -0.08541185 1.08380000
v -0.02794279 -0.09058830 1.08380000
v -0.01412921 -0.09374116 1.08380000
v -0.00000000 -0.09440000 1.08490000
v 0.01406959 -0.09334563 1.08490000
v 0.02782489 -0.09020607 1.08490000
v 0.04095862 -0.08505146 1.08490000
v 0.05317741 -0.07799694 1.08490000
v 0.06420831 -0.06920010 1.08490000
v 0.07380489 -0.05885744 1.08490000
v 0.08175280 -0.04720000 1.08490000
v 0.08787448 -0.03448819 1.08490000
v 0.09203319 -0.02100598 1.08490000
v 0.09413604 -0.00705452 1.08490000
v 0.09413604 0.00705452 1.08490000
v 0.09203319 0.02100598 1.08490000
v 0.08787448 0.03448819 1.08490000
v 0.08175280 0.04720000 1.08490000
v 0.07380489 0.05885744 1.08490000
v 0.06420831 0.06920010 1.08490000
v 0.05317741 0.07799694 1.08490000
v 0.04095862 0.08505146 1.08490000
v 0.02782489 0.09020607 1.08490000
v 0.01406959 0.09334563 1.08490000
v -0.00000000 0.09440000 1.08490000
v -0.01406959 0.09334563 1.08490000
v -0.02782489 0.09020607 1.08490000
v -0.04095862 0.08505146 1.08490000
v -0.05317741 0.07799694 1.08490000
v -0.06420831 0.06920010 1.08490000
v -0.07380489 0.05885744 1.08490000
v -0.08175280 0.04720000 1.08490000
v -0.08787448 0.03448819 1.08490000
v -0.09203319 0.02100598 1.08490000
v -0.09413604 0.00705452 1.08490000
v -0.09413604 -0.00705452 1.08490000
v -0.09203319 -0.02100598 1.08490000
v -0.08787448 -0.03448819 1.08490000
v -0.08175280 -0.04720000 1.08490000
v -0.07380489 -0.05885744 1.08490000
v -0.06420831 -0.06920010 1.08490000
v -0.05317741 -0.07799694 1.08490000
v -0.04095862 -0.08505146 1.08490000
v -0.02782489 -0.09020607 1.08490000
v -0.01406959 -0.09334563 1.08490000
v -0.00000000 -0.09440000 1.08380000
v 0.01406959 -0.09334563 1.08380000
v 0.02782489 -0.09020607 1.08380000
v 0.04095862 -0.08505146 1.08380000
v 0.05317741 -0.07799694 1.08380000
v 0.06420831 -0.06920010 1.08380000
v 0.07380489 -0.05885744 1.08380000
v 0.08175280 -0.04720000 1.08380000
v 0.08787448 -0.03448819 1.08380000
v 0.09203319 -0.02100598 1.08380000
v 0.09413604 -0.00705452 1.08380000
v 0.09413604 0.00705452 1.08380000
v 0.09203319 0.02100598 1.08380000
v 0.08787448 0.03448819 1.08380000
v 0.08175280 0.04720000 1.08380000
v 0.07380489 0.05885744 1.08380000
v 0.06420831 0.06920010 1.08380000
v 0.05317741 0.07799694 1.08380000
v 0.04095862 0.08505146 1.08380000
v 0.02782489 0.09020607 1.08380000
v 0.01406959 0.09334563 1.08380000
v -0.00000000 0.09440000 1.08380000
v -0.01406959 0.09334563 1.08380000
v -0.02782489 0.09020607 1.08380000
v -0.04095862 0.08505146 1.08380000
v -0.05317741 0.07799694 1.08380000
v -0.06420831 0.06920010 1.08380000
v -0.07380489 0.05885744 1.08380000
v -0.08175280 0.04720000 1.08380000
v -0.08787448 0.03448819 1.08380000
v -0.09203319 0.02100598 1.08380000
v -0.09413604 0.00705452 1.08380000
v -0.09413604 -0.00705452 1.08380000
v -0.09203319 -0.02100598 1.08380000
v -0.08787448 -0.03448819 1.08380000
v -0.08175280 -0.04720000 1.08380000
v -0.07380489 -0.05885744 1.08380000
v -0.06420831 -0.06920010 1.08380000
v -0.05317741 -0.07799694 1.08380000
v -0.04095862 -0.08505146 1.08380000
v -0.02782489 -0.09020607 1.08380000
v -0.01406959 -0.09334563 1.08380000
f 2 1 43
f 2 43 44
f 3 44 45
f 3 2 44
f 4 45 46
f 4 3 45
f 5 4 46
f 5 46 47
f 5 47 48
f 6 5 48
f 7 6 48
f 7 48 49
f 8 7 49
f 8 49 50
f 9 8 50
f 9 50 51
f 10 9 51
f 10 51 52
f 10 52 53
f 11 10 53
f 12 11 53
f 12 53 54
f 13 12 54
f 13 54 55
f 14 13 55
f 14 55 56
f 14 56 57
f 15 14 57
f 15 57 58
f 16 15 58
f 17 16 58
f 17 58 59
f 17 59 60
f 18 17 60
f 19 60 61
f 19 61 62
f 19 18 60
f 20 62 63
f 20 19 62
f 21 20 63
f 22 63 64
f 22 21 63
f 23 64 65
f 23 65 66
f 23 22 64
f 24 23 66
f 25 66 67
f 25 24 66
f 26 67 68
f 26 68 69
f 26 25 67
f 27 69 70
f 27 26 69
f 28 27 70
f 29 70 71
f 29 28 70
f 30 29 71
f 30 71 72
f 30 72 73
f 31 30 73
f 32 31 73
f 32 73 74
f 33 32 74
f 33 74 75
f 34 33 75
f 34 75 76
f 34 76 77
f 35 34 77
f 36 35 77
f 36 77 78
f 37 36 78
f 37 78 79
f 37 79 80
f 38 37 80
f 39 38 80
f 39 80 81
f 40 39 81
f 40 81 82
f 40 82 83
f 41 40 83
f 41 83 84
f 42 41 84
f 1 42 84
f 1 84 43
f 112 27 28
f 112 111 27
f 26 27 111
f 110 26 111
f 29 112 28
f 113 112 29
f 109 25 26
f 109 26 110
f 114 29 30
f 114 113 29
f 108 25 109
f 108 24 25
f 115 114 30
f 115 30 31
f 23 24 108
f 107 23 108
f 116 115 31
f 116 31 32
f 106 22 23
f 106 23 107
f 33 116 32
f 117 116 33
f 105 22 106
f 105 21 22
f 118 33 34
f 118 117 33
f 20 21 105
f 104 20 105
f 119 34 35
f 119 118 34
f 103 19 20
f 103 20 104
f 120 35 36
f 120 119 35
f 102 18 19
f 102 19 103
f 121 36 37
f 121 120 36
f 17 18 102
f 101 17 102
f 38 121 37
f 38 122 121
f 100 17 101
f 16 17 100
f 39 122 38
f 39 123 122
f 99 16 100
f 15 16 99
f 40 124 123
f 40 123 39
f 14 99 98
f 14 15 99
f 125 124 40
f 41 125 40
f 13 98 97
f 13 14 98
f 126 125 41
f 42 126 41
f 12 13 97
f 12 97 96
f 1 126 42
f 1 85 126
f 11 12 96
f 11 96 95
f 86 85 1
f 2 86 1
f 10 11 95
f 10 95 94
f 87 86 2
f 3 87 2
f 9 10 94
f 9 94 93
f 4 87 3
f 4 88 87
f 8 9 93
f 8 93 92
f 5 88 4
f 5 89 88
f 7 8 92
f 7 92 91
f 90 7 91
f 6 89 5
f 6 90 89
f 6 7 90
f 154 70 69
f 154 69 153
f 68 153 69
f 152 153 68
f 71 70 154
f 155 71 154
f 151 68 67
f 151 152 68
f 156 72 71
f 156 71 155
f 150 151 67
f 150 67 66
f 157 72 156
f 157 73 72
f 65 150 66
f 149 150 65
f 158 73 157
f 158 74 73
f 148 65 64
f 148 149 65
f 75 74 158
f 159 75 158
f 147 148 64
f 147 64 63
f 160 76 75
f 160 75 159
f 62 147 63
f 146 147 62
f 161 77 76
f 161 76 160
f 145 62 61
f 145 146 62
f 162 78 77
f 162 77 161
f 144 61 60
f 144 145 61
f 163 79 78
f 163 78 162
f 59 144 60
f 143 144 59
f 80 79 163
f 80 163 164
f 142 143 59
f 58 142 59
f 81 80 164
f 81 164 165
f 141 142 58
f 57 141 58
f 82 165 166
f 82 81 165
f 56 140 141
f 56 141 57
f 167 82 166
f 83 82 167
f 55 139 140
f 55 140 56
f 168 83 167
f 84 83 168
f 54 139 55
f 54 138 139
f 43 84 168
f 43 168 127
f 53 138 54
f 53 137 138
f 128 43 127
f 44 43 128
f 52 137 53
f 52 136 137
f 129 44 128
f 45 44 129
f 51 136 52
f 51 135 136
f 46 45 129
f 46 129 130
f 50 135 51
f 50 134 135
f 47 46 130
f 47 130 131
f 49 134 50
f 49 133 134
f 132 133 49
f 48 47 131
f 48 131 132
f 48 132 49
f 86 127 85
f 86 128 127
f 87 129 128
f 87 128 86
f 88 130 129
f 88 129 87
f 89 130 88
f 89 131 130
f 89 132 131
f 90 132 89
f 91 132 90
f 91 133 132
f 92 133 91
f 92 134 133
f 93 134 92
f 93 135 134
f 94 135 93
f 94 136 135
f 94 137 136
f 95 137 94
f 96 137 95
f 96 138 137
f 97 138 96
f 97 139 138
f 98 139 97
f 98 140 139
f 98 141 140
f 99 141 98
f 99 142 141
f 100 142 99
f 101 142 100
f 101 143 142
f 101 144 143
f 102 144 101
f 103 145 144
f 103 146 145
f 103 144 102
f 104 147 146
f 104 146 103
f 105 147 104
f 106 148 147
f 106 147 105
f 107 149 148
f 107 150 149
f 107 148 106
f 108 150 107
f 109 151 150
f 109 150 108
f 110 152 151
f 110 153 152
f 110 151 109
f 111 154 153
f 111 153 110
f 112 154 111
f 113 155 154
f 113 154 112
f 114 155 113
f 114 156 155
f 114 157 156
f 115 157 114
f 116 157 115
f 116 158 157
f 117 158 116
f 117 159 158
f 118 159 117
f 118 160 159
f 118 161 160
f 119 161 118
f 120 161 119
f 120 162 161
f 121 162 120
f 121 163 162
f 121 164 163
f 122 164 121
f 123 164 122
f 123 165 164
f 124 165 123
f 124 166 165
f 124 167 166
f 125 167 124
f 125 168 167
f 126 168 125
f 85 168 126
f 85 127 168

