# https://github.com/mikedh/trimesh
v 0.00000000 -0.03230000 -1.61500000
v 0.00481407 -0.03193924 -1.61500000
v 0.00952059 -0.03086500 -1.61500000
v 0.01401444 -0.02910129 -1.61500000
v 0.01819524 -0.02668751 -1.61500000
v 0.02196958 -0.02367758 -1.61500000
v 0.02525316 -0.02013872 -1.61500000
v 0.02797262 -0.01615000 -1.61500000
v 0.03006722 -0.01180052 -1.61500000
v 0.03149017 -0.00718743 -1.61500000
v 0.03220968 -0.00241378 -1.61500000
v 0.03220968 0.00241378 -1.61500000
v 0.03149017 0.00718743 -1.61500000
v 0.03006722 0.01180052 -1.61500000
v 0.02797262 0.01615000 -1.61500000
v 0.02525316 0.02013872 -1.61500000
v 0.02196958 0.02367758 -1.61500000
v 0.01819524 0.02668751 -1.61500000
v 0.01401444 0.02910129 -1.61500000
v 0.00952059 0.03086500 -1.61500000
v 0.00481407 0.03193924 -1.61500000
v -0.00000000 0.03230000 -1.61500000
v -0.00481407 0.03193924 -1.61500000
v -0.00952059 0.03086500 -1.61500000
v -0.01401444 0.02910129 -1.61500000
v -0.01819524 0.02668751 -1.61500000
v -0.02196958 0.02367758 -1.61500000
v -0.02525316 0.02013872 -1.61500000
v -0.02797262 0.01615000 -1.61500000
v -0.03006722 0.01180052 -1.61500000
v -0.03149017 0.00718743 -1.61500000
v -0.03220968 0.00241378 -1.61500000
v -0.03220968 -0.00241378 -1.61500000
v -0.03149017 -0.00718743 -1.61500000
v -0.03006722 -0.01180052 -1.61500000
v -0.02797262 -0.01615000 -1.61500000
v -0.02525316 -0.02013872 -1.61500000
v -0.02196958 -0.02367758 -1.61500000
v -0.01819524 -0.02668751 -1.61500000
v -0.01401444 -0.02910129 -1.61500000
v -0.00952059 -0.03086500 -1.61500000
v -0.00481407 -0.03193924 -1.61500000
v 0.00000000 -0.03230000 -1.61400000
v 0.00481407 -0.03193924 -1.61400000
v 0.00952059 -0.03086500 -1.61400000
v 0.01401444 -0.02910129 -1.61400000
v 0.01819524 -0.02668751 -1.61400000
v 0.02196958 -0.02367758 -1.61400000
v 0.02525316 -0.02013872 -1.61400000
v 0.02797262 -0.01615000 -1.61400000
v 0.03006722 -0.01180052 -1.61400000
v 0.03149017 -0.00718743 -1.61400000
v 0.03220968 -0.00241378 -1.61400000
v 0.03220968 0.00241378 -1.61400000
v 0.03149017 0.00718743 -1.61400000
v 0.03006722 0.01180052 -1.61400000
v 0.02797262 0.01615000 -1.61400000
v 0.02525316 0.02013872 -1.61400000
v 0.02196958 0.02367758 -1.61400000
v 0.01819524 0.02668751 -1.61400000
v 0.01401444 0.02910129 -1.61400000
v 0.00952059 0.03086500 -1.61400000
v 0.00481407 0.03193924 -1.61400000
v -0.00000000 0.03230000 -1.61400000
v -0.00481407 0.03193924 -1.61400000
v -0.00952059 0.03086500 -1.61400000
v -0.01401444 0.02910129 -1.61400000
v -0.01819524 0.02668751 -1.61400000
v -0.02196958 0.02367758 -1.61400000
v -0.02525316 0.02013872 -1.61400000
v -0.02797262 0.01615000 -1.61400000
v -0.03006722 0.01180052 -1.61400000
v -0.03149017 0.00718743 -1.61400000
v -0.03220968 0.00241378 -1.61400000
v -0.03220968 -0.00241378 -1.61400000
v -0.03149017 -0.00718743 -1.61400000
v -0.03006722 -0.01180052 -1.61400000
v -0.02797262 -0.01615000 -1.61400000
v -0.02525316 -0.02013872 -1.61400000
v -0.02196958 -0.02367758 -1.61400000
v -0.01819524 -0.02668751 -1.61400000
v -0.01401444 -0.02910129 -1.61400000
v -0.00952059 -0.03086500 -1.61400000
v -0.00481407 -0.03193924 -1.61400000
v 0.00000000 -0.03230000 -1.61500000
v 0.00481407 -0.03193924 -1.61500000
v 0.00952059 -0.03086500 -1.61500000
v 0.01401444 -0.02910129 -1.61500000
v 0.01819524 -0.02668751 -1.61500000
v 0.02196958 -0.02367758 -1.61500000
v 0.02525316 -0.02013872 -1.61500000
v 0.02797262 -0.01615000 -1.61500000
v 0.03006722 -0.01180052 -1.61500000
v 0.03149017 -0.00718743 -1.61500000
v 0.03220968 -0.00241378 -1.61500000
v 0.03220968 0.00241378 -1.61500000
v 0.03149017 0.00718743 -1.61500000
v 0.03006722 0.01180052 -1.61500000
v 0.02797262 0.01615000 -1.61500000
v 0.02525316 0.02013872 -1.61500000
v 0.02196958 0.02367758 -1.61500000
v 0.01819524 0.02668751 -1.61500000
v 0.01401444 0.02910129 -1.61500000
v 0.00952059 0.03086500 -1.61500000
v 0.00481407 0.03193924 -1.61500000
v -0.00000000 0.03230000 -1.61500000
v -0.00481407 0.03193924 -1.61500000
v -0.00952059 0.03086500 -1.61500000
v -0.01401444 0.02910129 -1.61500000
v -0.01819524 0.02668751 -1.61500000
v -0.02196958 0.02367758 -1.61500000
v -0.02525316 0.02013872 -1.61500000
v -0.02797262 0.01615000 -1.61500000
v -0.03006722 0.01180052 -1.61500000
v -0.03149017 0.00718743 -1.61500000
v -0.03220968 0.00241378 -1.61500000
v -0.03220968 -0.00241378 -1.61500000
v -0.03149017 -0.00718743 -1.61500000
v -0.03006722 -0.01180052 -1.61500000
v -0.02797262 -0.01615000 -1.61500000
v -0.02525316 -0.02013872 -1.61500000
v -0.02196958 -0.02367758 -1.61500000
v -0.01819524 -0.02668751 -1.61500000
v -0.01401444 -0.02910129 -1.61500000
v -0.00952059 -0.03086500 -1.61500000
v -0.00481407 -0.03193924 -1.61500000
v 0.00000000 -0.03230000 -1.61400000
v 0.00481407 -0.03193924 -1.61400000
v 0.00952059 -0.03086500 -1.61400000
v 0.01401444 -0.02910129 -1.61400000
v 0.01819524 -0.02668751 -1.61400000
v 0.02196958 -0.02367758 -1.61400000
v 0.02525316 -0.02013872 -1.61400000
v 0.02797262 -0.01615000 -1.61400000
v 0.03006722 -0.01180052 -1.61400000
v 0.03149017 -0.00718743 -1.61400000
v 0.03220968 -0.00241378 -1.61400000
v 0.03220968 0.00241378 -1.61400000
v 0.03149017 0.00718743 -1.61400000
v 0.03006722 0.01180052 -1.61400000
v 0.02797262 0.01615000 -1.61400000
v 0.02525316 0.02013872 -1.61400000
v 0.02196958 0.02367758 -1.61400000
v 0.01819524 0.02668751 -1.61400000
v 0.01401444 0.02910129 -1.61400000
v 0.00952059 0.03086500 -1.61400000
v 0.00481407 0.03193924 -1.61400000
v -0.00000000 0.03230000 -1.61400000
v -0.00481407 0.03193924 -1.61400000
v -0.00952059 0.03086500 -1.61400000
v -0.01401444 0.02910129 -1.61400000
v -0.01819524 0.02668751 -1.61400000
v -0.02196958 0.02367758 -1.61400000
v -0.02525316 0.02013872 -1.61400000
v -0.02797262 0.01615000 -1.61400000
v -0.03006722 0.01180052 -1.61400000
v -0.03149017 0.00718743 -1.61400000
v -0.03220968 0.00241378 -1.61400000
v -0.03220968 -0.00241378 -1.61400000
v -0.03149017 -0.00718743 -1.61400000
v -0.03006722 -0.01180052 -1.61400000
v -0.02797262 -0.01615000 -1.61400000
v -0.02525316 -0.02013872 -1.61400000
v -0.02196958 -0.02367758 -1.61400000
v -0.01819524 -0.02668751 -1.61400000
v -0.01401444 -0.02910129 -1.61400000
v -0.00952059 -0.03086500 -1.61400000
v -0.00481407 -0.03193924 -1.61400000
vn -0.00000000 -1.00000000 0.00000000
vn 0.14904227 -0.98883083 0.00000000
vn 0.29475517 -0.95557281 0.00000000
vn 0.43388374 -0.90096887 0.00000000
vn 0.56332006 -0.82623877 0.00000000
vn 0.68017274 -0.73305187 0.00000000
vn 0.78183148 -0.62348980 0.00000000
vn 0.86602540 -0.50000000 0.00000000
vn 0.93087375 -0.36534102 0.00000000
vn 0.97492791 -0.22252093 0.00000000
vn 0.99720380 -0.07473009 0.00000000
vn 0.99720380 0.07473009 0.00000000
vn 0.97492791 0.22252093 0.00000000
vn 0.93087375 0.36534102 0.00000000
vn 0.86602540 0.50000000 0.00000000
vn 0.78183148 0.62348980 0.00000000
vn 0.68017274 0.73305187 0.00000000
vn 0.56332006 0.82623877 0.00000000
vn 0.43388374 0.90096887 0.00000000
vn 0.29475517 0.95557281 0.00000000
vn 0.14904227 0.98883083 0.00000000
vn -0.00000000 1.00000000 0.00000000
vn -0.14904227 0.98883083 0.00000000
vn -0.29475517 0.95557281 0.00000000
vn -0.43388374 0.90096887 0.00000000
vn -0.56332006 0.82623877 0.00000000
vn -0.68017274 0.73305187 0.00000000
vn -0.78183148 0.62348980 0.00000000
vn -0.86602540 0.50000000 0.00000000
vn -0.93087375 0.36534102 0.00000000
vn -0.97492791 0.22252093 0.00000000
vn -0.99720380 0.07473009 0.00000000
vn -0.99720380 -0.07473009 0.00000000
vn -0.97492791 -0.22252093 0.00000000
vn -0.93087375 -0.36534102 0.00000000
vn -0.86602540 -0.50000000 0.00000000
vn -0.78183148 -0.62348980 0.00000000
vn -0.68017274 -0.73305187 0.00000000
vn -0.56332006 -0.82623877 0.00000000
vn -0.43388374 -0.90096887 0.00000000
vn -0.29475517 -0.95557281 0.00000000
vn -0.14904227 -0.98883083 0.00000000
vn -0.00000000 -1.00000000 0.00000000
vn 0.14904227 -0.98883083 0.00000000
vn 0.29475517 -0.95557281 0.00000000
vn 0.43388374 -0.90096887 0.00000000
vn 0.56332006 -0.82623877 0.00000000
vn 0.68017274 -0.73305187 0.00000000
vn 0.78183148 -0.62348980 0.00000000
vn 0.86602540 -0.50000000 0.00000000
vn 0.93087375 -0.36534102 0.00000000
vn 0.97492791 -0.22252093 0.00000000
vn 0.99720380 -0.07473009 0.00000000
vn 0.99720380 0.07473009 0.00000000
vn 0.97492791 0.22252093 0.00000000
vn 0.93087375 0.36534102 0.00000000
vn 0.86602540 0.50000000 0.00000000
vn 0.78183148 0.62348980 0.00000000
vn 0.68017274 0.73305187 0.00000000
vn 0.56332006 0.82623877 0.00000000
vn 0.43388374 0.90096887 0.00000000
vn 0.29475517 0.95557281 0.00000000
vn 0.14904227 0.98883083 0.00000000
vn -0.00000000 1.00000000 0.00000000
vn -0.14904227 0.98883083 0.00000000
vn -0.29475517 0.95557281 0.00000000
vn -0.43388374 0.90096887 0.00000000
vn -0.56332006 0.82623877 0.00000000
vn -0.68017274 0.73305187 0.00000000
vn -0.78183148 0.62348980 0.00000000
vn -0.86602540 0.50000000 0.00000000
vn -0.93087375 0.36534102 0.00000000
vn -0.97492791 0.22252093 0.00000000
vn -0.99720380 0.07473009 0.00000000
vn -0.99720380 -0.07473009 0.00000000
vn -0.97492791 -0.22252093 0.00000000
vn -0.93087375 -0.36534102 0.00000000
vn -0.86602540 -0.50000000 0.00000000
vn -0.78183148 -0.62348980 0.00000000
vn -0.68017274 -0.73305187 0.00000000
vn -0.56332006 -0.82623877 0.00000000
vn -0.43388374 -0.90096887 0.00000000
vn -0.29475517 -0.95557281 0.00000000
vn -0.14904227 -0.98883083 0.00000000
vn 0.00000000 0.00000000 -1.00000000
vn 0.00000000 0.00000000 -1.00000000
vn 0.00000000 0.00000000 -1.00000000
vn 0.00000000 0.00000000 -1.00000000
vn 0.00000000 0.00000000 -1.00000000
vn 0.00000000 0.00000000 -1.00000000
vn 0.00000000 0.00000000 -1.00000000
vn 0.00000000 0.00000000 -1.00000000
vn 0.00000000 0.00000000 -1.00000000
vn 0.00000000 0.00000000 -1.00000000
vn 0.00000000 0.00000000 -1.00000000
vn 0.00000000 0.00000000 -1.00000000
vn 0.00000000 0.00000000 -1.00000000
vn 0.00000000 0.00000000 -1.00000000
vn 0.00000000 0.00000000 -1.00000000
vn 0.00000000 0.00000000 -1.00000000
vn 0.00000000 0.00000000 -1.00000000
vn 0.00000000 0.00000000 -1.00000000
vn 0.00000000 0.00000000 -1.00000000
vn 0.00000000 0.00000000 -1.00000000
vn 0.00000000 0.00000000 -1.00000000
vn 0.00000000 0.00000000 -1.00000000
vn 0.00000000 0.00000000 -1.00000000
vn 0.00000000 0.00000000 -1.00000000
vn 0.00000000 0.00000000 -1.00000000
vn 0.00000000 0.00000000 -1.00000000
vn 0.00000000 0.00000000 -1.00000000
vn 0.00000000 0.00000000 -1.00000000
vn 0.00000000 0.00000000 -1.00000000
vn 0.00000000 0.00000000 -1.00000000
vn 0.00000000 0.00000000 -1.00000000
vn 0.00000000 0.00000000 -1.00000000
vn 0.00000000 0.00000000 -1.00000000
vn 0.00000000 0.00000000 -1.00000000
vn 0.00000000 0.00000000 -1.00000000
vn 0.00000000 0.00000000 -1.00000000
vn 0.00000000 0.00000000 -1.00000000
vn 0.00000000 0.00000000 -1.00000000
vn 0.00000000 0.00000000 -1.00000000
vn 0.00000000 0.00000000 -1.00000000
vn 0.00000000 0.00000000 -1.00000000
vn 0.00000000 0.00000000 -1.00000000
vn 0.00000000 0.00000000 1.00000000
vn 0.00000000 0.00000000 1.00000000
vn 0.00000000 0.00000000 1.00000000
vn 0.00000000 0.00000000 1.00000000
vn 0.00000000 0.00000000 1.00000000
vn 0.00000000 0.00000000 1.00000000
vn 0.00000000 0.00000000 1.00000000
vn 0.00000000 0.00000000 1.00000000
vn 0.00000000 0.00000000 1.00000000
vn 0.00000000 0.00000000 1.00000000
vn 0.00000000 0.00000000 1.00000000
vn 0.00000000 0.00000000 1.00000000
vn 0.00000000 0.00000000 1.00000000
vn 0.00000000 0.00000000 1.00000000
vn 0.00000000 0.00000000 1.00000000
vn 0.00000000 0.00000000 1.00000000
vn 0.00000000 0.00000000 1.00000000
vn 0.00000000 0.00000000 1.00000000
vn 0.00000000 0.00000000 1.00000000
vn 0.00000000 0.00000000 1.00000000
vn 0.00000000 0.00000000 1.00000000
vn 0.00000000 0.00000000 1.00000000
vn 0.00000000 0.00000000 1.00000000
vn 0.00000000 0.00000000 1.00000000
vn 0.00000000 0.00000000 1.00000000
vn 0.00000000 0.00000000 1.00000000
vn 0.00000000 0.00000000 1.00000000
vn 0.00000000 0.00000000 1.00000000
vn 0.00000000 0.00000000 1.00000000
vn 0.00000000 0.00000000 1.00000000
vn 0.00000000 0.00000000 1.00000000
vn 0.00000000 0.00000000 1.00000000
vn 0.00000000 0.00000000 1.00000000
vn 0.00000000 0.00000000 1.00000000
vn 0.00000000 0.00000000 1.00000000
vn 0.00000000 0.00000000 1.00000000
vn 0.00000000 0.00000000 1.00000000
vn 0.00000000 0.00000000 1.00000000
vn 0.00000000 0.00000000 1.00000000
vn 0.00000000 0.00000000 1.00000000
vn 0.00000000 0.00000000 1.00000000
vn 0.00000000 0.00000000 1.00000000
f 44//44 1//1 2//2
f 44//44 43//43 1//1
f 45//45 2//2 3//3
f 45//45 44//44 2//2
f 46//46 3//3 4//4
f 46//46 45//45 3//3
f 47//47 4//4 5//5
f 47//47 46//46 4//4
f 48//48 5//5 6//6
f 48//48 47//47 5//5
f 49//49 6//6 7//7
f 49//49 48//48 6//6
f 50//50 7//7 8//8
f 50//50 49//49 7//7
f 51//51 8//8 9//9
f 51//51 9//9 10//10
f 51//51 50//50 8//8
f 52//52 51//51 10//10
f 53//53 10//10 11//11
f 53//53 52//52 10//10
f 54//54 11//11 12//12
f 54//54 53//53 11//11
f 55//55 12//12 13//13
f 55//55 54//54 12//12
f 56//56 13//13 14//14
f 56//56 55//55 13//13
f 57//57 14//14 15//15
f 57//57 56//56 14//14
f 58//58 15//15 16//16
f 58//58 57//57 15//15
f 59//59 16//16 17//17
f 59//59 17//17 18//18
f 59//59 58//58 16//16
f 60//60 59//59 18//18
f 61//61 18//18 19//19
f 61//61 60//60 18//18
f 62//62 19//19 20//20
f 62//62 61//61 19//19
f 63//63 20//20 21//21
f 63//63 62//62 20//20
f 64//64 21//21 22//22
f 64//64 63//63 21//21
f 65//65 22//22 23//23
f 65//65 64//64 22//22
f 66//66 23//23 24//24
f 66//66 65//65 23//23
f 67//67 24//24 25//25
f 67//67 66//66 24//24
f 68//68 25//25 26//26
f 68//68 26//26 27//27
f 68//68 67//67 25//25
f 69//69 68//68 27//27
f 70//70 27//27 28//28
f 70//70 69//69 27//27
f 71//71 28//28 29//29
f 71//71 70//70 28//28
f 72//72 71//71 29//29
f 72//72 29//29 30//30
f 73//73 72//72 30//30
f 73//73 30//30 31//31
f 74//74 73//73 31//31
f 74//74 31//31 32//32
f 75//75 74//74 32//32
f 75//75 32//32 33//33
f 76//76 75//75 33//33
f 76//76 33//33 34//34
f 77//77 76//76 34//34
f 77//77 34//34 35//35
f 78//78 77//77 35//35
f 78//78 35//35 36//36
f 78//78 36//36 37//37
f 79//79 78//78 37//37
f 80//80 79//79 37//37
f 80//80 37//37 38//38
f 81//81 38//38 39//39
f 81//81 80//80 38//38
f 82//82 39//39 40//40
f 82//82 81//81 39//39
f 83//83 40//40 41//41
f 83//83 41//41 42//42
f 83//83 82//82 40//40
f 84//84 83//83 42//42
f 43//43 42//42 1//1
f 43//43 84//84 42//42
f 109//109 111//111 110//110
f 109//109 112//112 111//111
f 109//109 113//113 112//112
f 114//114 113//113 109//109
f 108//108 114//114 109//109
f 115//115 114//114 108//108
f 106//106 108//108 107//107
f 117//117 116//116 115//115
f 118//118 117//117 115//115
f 103//103 105//105 104//104
f 103//103 106//106 105//105
f 120//120 119//119 118//118
f 120//120 118//118 115//115
f 101//101 103//103 102//102
f 100//100 108//108 106//106
f 100//100 106//106 103//103
f 100//100 103//103 101//101
f 98//98 100//100 99//99
f 98//98 115//115 108//108
f 98//98 120//120 115//115
f 98//98 108//108 100//100
f 85//85 123//123 122//122
f 85//85 124//124 123//123
f 85//85 125//125 124//124
f 85//85 126//126 125//125
f 95//95 97//97 96//96
f 95//95 98//98 97//97
f 95//95 121//121 120//120
f 95//95 122//122 121//121
f 95//95 120//120 98//98
f 86//86 85//85 122//122
f 93//93 122//122 95//95
f 93//93 95//95 94//94
f 89//89 88//88 87//87
f 90//90 87//87 86//86
f 90//90 92//92 91//91
f 90//90 93//93 92//92
f 90//90 86//86 122//122
f 90//90 89//89 87//87
f 90//90 122//122 93//93
f 151//151 152//152 153//153
f 151//151 153//153 154//154
f 151//151 154//154 155//155
f 156//156 151//151 155//155
f 150//150 151//151 156//156
f 157//157 150//150 156//156
f 148//148 149//149 150//150
f 159//159 157//157 158//158
f 160//160 157//157 159//159
f 145//145 146//146 147//147
f 145//145 147//147 148//148
f 162//162 160//160 161//161
f 162//162 157//157 160//160
f 143//143 144//144 145//145
f 142//142 148//148 150//150
f 142//142 145//145 148//148
f 142//142 143//143 145//145
f 140//140 141//141 142//142
f 140//140 150//150 157//157
f 140//140 157//157 162//162
f 140//140 142//142 150//150
f 127//127 164//164 165//165
f 127//127 165//165 166//166
f 127//127 166//166 167//167
f 127//127 167//167 168//168
f 137//137 138//138 139//139
f 137//137 139//139 140//140
f 137//137 162//162 163//163
f 137//137 163//163 164//164
f 137//137 140//140 162//162
f 128//128 164//164 127//127
f 135//135 137//137 164//164
f 135//135 136//136 137//137
f 131//131 129//129 130//130
f 132//132 128//128 129//129
f 132//132 133//133 134//134
f 132//132 134//134 135//135
f 132//132 164//164 128//128
f 132//132 129//129 131//131
f 132//132 135//135 164//164

