# https://github.com/mikedh/trimesh
v 0.00000000 -0.03630000 -1.08333333
v 0.00541023 -0.03589456 -1.08333333
v 0.01069961 -0.03468729 -1.08333333
v 0.01574998 -0.03270517 -1.08333333
v 0.02044852 -0.02999247 -1.08333333
v 0.02469027 -0.02660978 -1.08333333
v 0.02838048 -0.02263268 -1.08333333
v 0.03143672 -0.01815000 -1.08333333
v 0.03379072 -0.01326188 -1.08333333
v 0.03538988 -0.00807751 -1.08333333
v 0.03619850 -0.00271270 -1.08333333
v 0.03619850 0.00271270 -1.08333333
v 0.03538988 0.00807751 -1.08333333
v 0.03379072 0.01326188 -1.08333333
v 0.03143672 0.01815000 -1.08333333
v 0.02838048 0.02263268 -1.08333333
v 0.02469027 0.02660978 -1.08333333
v 0.02044852 0.02999247 -1.08333333
v 0.01574998 0.03270517 -1.08333333
v 0.01069961 0.03468729 -1.08333333
v 0.00541023 0.03589456 -1.08333333
v -0.00000000 0.03630000 -1.08333333
v -0.00541023 0.03589456 -1.08333333
v -0.01069961 0.03468729 -1.08333333
v -0.01574998 0.03270517 -1.08333333
v -0.02044852 0.02999247 -1.08333333
v -0.02469027 0.02660978 -1.08333333
v -0.02838048 0.02263268 -1.08333333
v -0.03143672 0.01815000 -1.08333333
v -0.03379072 0.01326188 -1.08333333
v -0.03538988 0.00807751 -1.08333333
v -0.03619850 0.00271270 -1.08333333
v -0.03619850 -0.00271270 -1.08333333
v -0.03538988 -0.00807751 -1.08333333
v -0.03379072 -0.01326188 -1.08333333
v -0.03143672 -0.01815000 -1.08333333
v -0.02838048 -0.02263268 -1.08333333
v -0.02469027 -0.02660978 -1.08333333
v -0.02044852 -0.02999247 -1.08333333
v -0.01574998 -0.03270517 -1.08333333
v -0.01069961 -0.03468729 -1.08333333
v -0.00541023 -0.03589456 -1.08333333
v 0.00000000 -0.03630000 -1.08233333
v 0.00541023 -0.03589456 -1.08233333
v 0.01069961 -0.03468729 -1.08233333
v 0.01574998 -0.03270517 -1.08233333
v 0.02044852 -0.02999247 -1.08233333
v 0.02469027 -0.02660978 -1.08233333
v 0.02838048 -0.02263268 -1.08233333
v 0.03143672 -0.01815000 -1.08233333
v 0.03379072 -0.01326188 -1.08233333
v 0.03538988 -0.00807751 -1.08233333
v 0.03619850 -0.00271270 -1.08233333
v 0.03619850 0.00271270 -1.08233333
v 0.03538988 0.00807751 -1.08233333
v 0.03379072 0.01326188 -1.08233333
v 0.03143672 0.01815000 -1.08233333
v 0.02838048 0.02263268 -1.08233333
v 0.02469027 0.02660978 -1.08233333
v 0.02044852 0.02999247 -1.08233333
v 0.01574998 0.03270517 -1.08233333
v 0.01069961 0.03468729 -1.08233333
v 0.00541023 0.03589456 -1.08233333
v -0.00000000 0.03630000 -1.08233333
v -0.00541023 0.03589456 -1.08233333
v -0.01069961 0.03468729 -1.08233333
v -0.01574998 0.03270517 -1.08233333
v -0.02044852 0.02999247 -1.08233333
v -0.02469027 0.02660978 -1.08233333
v -0.02838048 0.02263268 -1.08233333
v -0.03143672 0.01815000 -1.08233333
v -0.03379072 0.01326188 -1.08233333
v -0.03538988 0.00807751 -1.08233333
v -0.03619850 0.00271270 -1.08233333
v -0.03619850 -0.00271270 -1.08233333
v -0.03538988 -0.00807751 -1.08233333
v -0.03379072 -0.01326188 -1.08233333
v -0.03143672 -0.01815000 -1.08233333
v -0.02838048 -0.02263268 -1.08233333
v -0.02469027 -0.02660978 -1.08233333
v -0.02044852 -0.02999247 -1.08233333
v -0.01574998 -0.03270517 -1.08233333
v -0.01069961 -0.03468729 -1.08233333
v -0.00541023 -0.03589456 -1.08233333
v 0.00000000 -0.03630000 -1.08333333
v 0.00541023 -0.03589456 -1.08333333
v 0.01069961 -0.03468729 -1.08333333
v 0.01574998 -0.03270517 -1.08333333
v 0.02044852 -0.02999247 -1.08333333
v 0.02469027 -0.02660978 -1.08333333
v 0.02838048 -0.02263268 -1.08333333
v 0.03143672 -0.01815000 -1.08333333
v 0.03379072 -0.01326188 -1.08333333
v 0.03538988 -0.00807751 -1.08333333
v 0.03619850 -0.00271270 -1.08333333
v 0.03619850 0.00271270 -1.08333333
v 0.03538988 0.00807751 -1.08333333
v 0.03379072 0.01326188 -1.08333333
v 0.03143672 0.01815000 -1.08333333
v 0.02838048 0.02263268 -1.08333333
v 0.02469027 0.02660978 -1.08333333
v 0.02044852 0.02999247 -1.08333333
v 0.01574998 0.03270517 -1.08333333
v 0.01069961 0.03468729 -1.08333333
v 0.00541023 0.03589456 -1.08333333
v -0.00000000 0.03630000 -1.08333333
v -0.00541023 0.03589456 -1.08333333
v -0.01069961 0.03468729 -1.08333333
v -0.01574998 0.03270517 -1.08333333
v -0.02044852 0.02999247 -1.08333333
v -0.02469027 0.02660978 -1.08333333
v -0.02838048 0.02263268 -1.08333333
v -0.03143672 0.01815000 -1.08333333
v -0.03379072 0.01326188 -1.08333333
v -0.03538988 0.00807751 -1.08333333
v -0.03619850 0.00271270 -1.08333333
v -0.03619850 -0.00271270 -1.08333333
v -0.03538988 -0.00807751 -1.08333333
v -0.03379072 -0.01326188 -1.08333333
v -0.03143672 -0.01815000 -1.08333333
v -0.02838048 -0.02263268 -1.08333333
v -0.02469027 -0.02660978 -1.08333333
v -0.02044852 -0.02999247 -1.08333333
v -0.01574998 -0.03270517 -1.08333333
v -0.01069961 -0.03468729 -1.08333333
v -0.00541023 -0.03589456 -1.08333333
v 0.00000000 -0.03630000 -1.08233333
v 0.00541023 -0.03589456 -1.08233333
v 0.01069961 -0.03468729 -1.08233333
v 0.01574998 -0.03270517 -1.08233333
v 0.02044852 -0.02999247 -1.08233333
v 0.02469027 -0.02660978 -1.08233333
v 0.02838048 -0.02263268 -1.08233333
v 0.03143672 -0.01815000 -1.08233333
v 0.03379072 -0.01326188 -1.08233333
v 0.03538988 -0.00807751 -1.08233333
v 0.03619850 -0.00271270 -1.08233333
v 0.03619850 0.00271270 -1.08233333
v 0.03538988 0.00807751 -1.08233333
v 0.03379072 0.01326188 -1.08233333
v 0.03143672 0.01815000 -1.08233333
v 0.02838048 0.02263268 -1.08233333
v 0.02469027 0.02660978 -1.08233333
v 0.02044852 0.02999247 -1.08233333
v 0.01574998 0.03270517 -1.08233333
v 0.01069961 0.03468729 -1.08233333
v 0.00541023 0.03589456 -1.08233333
v -0.00000000 0.03630000 -1.08233333
v -0.00541023 0.03589456 -1.08233333
v -0.01069961 0.03468729 -1.08233333
v -0.01574998 0.03270517 -1.08233333
v -0.02044852 0.02999247 -1.08233333
v -0.02469027 0.02660978 -1.08233333
v -0.02838048 0.02263268 -1.08233333
v -0.03143672 0.01815000 -1.08233333
v -0.03379072 0.01326188 -1.08233333
v -0.03538988 0.00807751 -1.08233333
v -0.03619850 0.00271270 -1.08233333
v -0.03619850 -0.00271270 -1.08233333
v -0.03538988 -0.00807751 -1.08233333
v -0.03379072 -0.01326188 -1.08233333
v -0.03143672 -0.01815000 -1.08233333
v -0.02838048 -0.02263268 -1.08233333
v -0.02469027 -0.02660978 -1.08233333
v -0.02044852 -0.02999247 -1.08233333
v -0.01574998 -0.03270517 -1.08233333
v -0.01069961 -0.03468729 -1.08233333
v -0.00541023 -0.03589456 -1.08233333
vn -0.00000000 -1.00000000 0.00000000
vn 0.14904227 -0.98883083 0.00000000
vn 0.29475517 -0.95557281 0.00000000
vn 0.43388374 -0.90096887 0.00000000
vn 0.56332006 -0.82623877 0.00000000
vn 0.68017274 -0.73305187 0.00000000
vn 0.78183148 -0.62348980 0.00000000
vn 0.86602540 -0.50000000 0.00000000
vn 0.93087375 -0.36534102 0.00000000
vn 0.97492791 -0.22252093 0.00000000
vn 0.99720380 -0.07473009 0.00000000
vn 0.99720380 0.07473009 0.00000000
vn 0.97492791 0.22252093 0.00000000
vn 0.93087375 0.36534102 0.00000000
vn 0.86602540 0.50000000 0.00000000
vn 0.78183148 0.62348980 0.00000000
vn 0.68017274 0.73305187 0.00000000
vn 0.56332006 0.82623877 0.00000000
vn 0.43388374 0.90096887 0.00000000
vn 0.29475517 0.95557281 0.00000000
vn 0.14904227 0.98883083 0.00000000
vn -0.00000000 1.00000000 0.00000000
vn -0.14904227 0.98883083 0.00000000
vn -0.29475517 0.95557281 0.00000000
vn -0.43388374 0.90096887 0.00000000
vn -0.56332006 0.82623877 0.00000000
vn -0.68017274 0.73305187 0.00000000
vn -0.78183148 0.62348980 0.00000000
vn -0.86602540 0.50000000 0.00000000
vn -0.93087375 0.36534102 0.00000000
vn -0.97492791 0.22252093 0.00000000
vn -0.99720380 0.07473009 0.00000000
vn -0.99720380 -0.07473009 0.00000000
vn -0.97492791 -0.22252093 0.00000000
vn -0.93087375 -0.36534102 0.00000000
vn -0.86602540 -0.50000000 0.00000000
vn -0.78183148 -0.62348980 0.00000000
vn -0.68017274 -0.73305187 0.00000000
vn -0.56332006 -0.82623877 0.00000000
vn -0.43388374 -0.90096887 0.00000000
vn -0.29475517 -0.95557281 0.00000000
vn -0.14904227 -0.98883083 0.00000000
vn -0.00000000 -1.00000000 0.00000000
vn 0.14904227 -0.98883083 0.00000000
vn 0.29475517 -0.95557281 0.00000000
vn 0.43388374 -0.90096887 0.00000000
vn 0.56332006 -0.82623877 0.00000000
vn 0.68017274 -0.73305187 0.00000000
vn 0.78183148 -0.62348980 0.00000000
vn 0.86602540 -0.50000000 0.00000000
vn 0.93087375 -0.36534102 0.00000000
vn 0.97492791 -0.22252093 0.00000000
vn 0.99720380 -0.07473009 0.00000000
vn 0.99720380 0.07473009 0.00000000
vn 0.97492791 0.22252093 0.00000000
vn 0.93087375 0.36534102 0.00000000
vn 0.86602540 0.50000000 0.00000000
vn 0.78183148 0.62348980 0.00000000
vn 0.68017274 0.73305187 0.00000000
vn 0.56332006 0.82623877 0.00000000
vn 0.43388374 0.90096887 0.00000000
vn 0.29475517 0.95557281 0.00000000
vn 0.14904227 0.98883083 0.00000000
vn -0.00000000 1.00000000 0.00000000
vn -0.14904227 0.98883083 0.00000000
vn -0.29475517 0.95557281 0.00000000
vn -0.43388374 0.90096887 0.00000000
vn -0.56332006 0.82623877 0.00000000
vn -0.68017274 0.73305187 0.00000000
vn -0.78183148 0.62348980 0.00000000
vn -0.86602540 0.50000000 0.00000000
vn -0.93087375 0.36534102 0.00000000
vn -0.97492791 0.22252093 0.00000000
vn -0.99720380 0.07473009 0.00000000
vn -0.99720380 -0.07473009 0.00000000
vn -0.97492791 -0.22252093 0.00000000
vn -0.93087375 -0.36534102 0.00000000
vn -0.86602540 -0.50000000 0.00000000
vn -0.78183148 -0.62348980 0.00000000
vn -0.68017274 -0.73305187 0.00000000
vn -0.56332006 -0.82623877 0.00000000
vn -0.43388374 -0.90096887 0.00000000
vn -0.29475517 -0.95557281 0.00000000
vn -0.14904227 -0.98883083 0.00000000
vn 0.00000000 0.00000000 -1.00000000
vn 0.00000000 0.00000000 -1.00000000
vn 0.00000000 0.00000000 -1.00000000
vn 0.00000000 0.00000000 -1.00000000
vn 0.00000000 0.00000000 -1.00000000
vn 0.00000000 0.00000000 -1.00000000
vn 0.00000000 0.00000000 -1.00000000
vn 0.00000000 0.00000000 -1.00000000
vn 0.00000000 0.00000000 -1.00000000
vn 0.00000000 0.00000000 -1.00000000
vn 0.00000000 0.00000000 -1.00000000
vn 0.00000000 0.00000000 -1.00000000
vn 0.00000000 0.00000000 -1.00000000
vn 0.00000000 0.00000000 -1.00000000
vn 0.00000000 0.00000000 -1.00000000
vn 0.00000000 0.00000000 -1.00000000
vn 0.00000000 0.00000000 -1.00000000
vn 0.00000000 0.00000000 -1.00000000
vn 0.00000000 0.00000000 -1.00000000
vn 0.00000000 0.00000000 -1.00000000
vn 0.00000000 0.00000000 -1.00000000
vn 0.00000000 0.00000000 -1.00000000
vn 0.00000000 0.00000000 -1.00000000
vn 0.00000000 0.00000000 -1.00000000
vn 0.00000000 0.00000000 -1.00000000
vn 0.00000000 0.00000000 -1.00000000
vn 0.00000000 0.00000000 -1.00000000
vn 0.00000000 0.00000000 -1.00000000
vn 0.00000000 0.00000000 -1.00000000
vn 0.00000000 0.00000000 -1.00000000
vn 0.00000000 0.00000000 -1.00000000
vn 0.00000000 0.00000000 -1.00000000
vn 0.00000000 0.00000000 -1.00000000
vn 0.00000000 0.00000000 -1.00000000
vn 0.00000000 0.00000000 -1.00000000
vn 0.00000000 0.00000000 -1.00000000
vn 0.00000000 0.00000000 -1.00000000
vn 0.00000000 0.00000000 -1.00000000
vn 0.00000000 0.00000000 -1.00000000
vn 0.00000000 0.00000000 -1.00000000
vn 0.00000000 0.00000000 -1.00000000
vn 0.00000000 0.00000000 -1.00000000
vn 0.00000000 0.00000000 1.00000000
vn 0.00000000 0.00000000 1.00000000
vn 0.00000000 0.00000000 1.00000000
vn 0.00000000 0.00000000 1.00000000
vn 0.00000000 0.00000000 1.00000000
vn 0.00000000 0.00000000 1.00000000
vn 0.00000000 0.00000000 1.00000000
vn 0.00000000 0.00000000 1.00000000
vn 0.00000000 0.00000000 1.00000000
vn 0.00000000 0.00000000 1.00000000
vn 0.00000000 0.00000000 1.00000000
vn 0.00000000 0.00000000 1.00000000
vn 0.00000000 0.00000000 1.00000000
vn 0.00000000 0.00000000 1.00000000
vn 0.00000000 0.00000000 1.00000000
vn 0.00000000 0.00000000 1.00000000
vn 0.00000000 0.00000000 1.00000000
vn 0.00000000 0.00000000 1.00000000
vn 0.00000000 0.00000000 1.00000000
vn 0.00000000 0.00000000 1.00000000
vn 0.00000000 0.00000000 1.00000000
vn 0.00000000 0.00000000 1.00000000
vn 0.00000000 0.00000000 1.00000000
vn 0.00000000 0.00000000 1.00000000
vn 0.00000000 0.00000000 1.00000000
vn 0.00000000 0.00000000 1.00000000
vn 0.00000000 0.00000000 1.00000000
vn 0.00000000 0.00000000 1.00000000
vn 0.00000000 0.00000000 1.00000000
vn 0.00000000 0.00000000 1.00000000
vn 0.00000000 0.00000000 1.00000000
vn 0.00000000 0.00000000 1.00000000
vn 0.00000000 0.00000000 1.00000000
vn 0.00000000 0.00000000 1.00000000
vn 0.00000000 0.00000000 1.00000000
vn 0.00000000 0.00000000 1.00000000
vn 0.00000000 0.00000000 1.00000000
vn 0.00000000 0.00000000 1.00000000
vn 0.00000000 0.00000000 1.00000000
vn 0.00000000 0.00000000 1.00000000
vn 0.00000000 0.00000000 1.00000000
vn 0.00000000 0.00000000 1.00000000
f 44//44 1//1 2//2
f 44//44 43//43 1//1
f 45//45 2//2 3//3
f 45//45 44//44 2//2
f 46//46 3//3 4//4
f 46//46 45//45 3//3
f 47//47 4//4 5//5
f 47//47 46//46 4//4
f 48//48 5//5 6//6
f 48//48 47//47 5//5
f 49//49 6//6 7//7
f 49//49 48//48 6//6
f 50//50 7//7 8//8
f 50//50 49//49 7//7
f 51//51 8//8 9//9
f 51//51 9//9 10//10
f 51//51 50//50 8//8
f 52//52 51//51 10//10
f 53//53 10//10 11//11
f 53//53 52//52 10//10
f 54//54 11//11 12//12
f 54//54 53//53 11//11
f 55//55 12//12 13//13
f 55//55 54//54 12//12
f 56//56 13//13 14//14
f 56//56 55//55 13//13
f 57//57 14//14 15//15
f 57//57 56//56 14//14
f 58//58 15//15 16//16
f 58//58 57//57 15//15
f 59//59 16//16 17//17
f 59//59 17//17 18//18
f 59//59 58//58 16//16
f 60//60 59//59 18//18
f 61//61 18//18 19//19
f 61//61 60//60 18//18
f 62//62 19//19 20//20
f 62//62 61//61 19//19
f 63//63 20//20 21//21
f 63//63 62//62 20//20
f 64//64 21//21 22//22
f 64//64 63//63 21//21
f 65//65 22//22 23//23
f 65//65 64//64 22//22
f 66//66 23//23 24//24
f 66//66 65//65 23//23
f 67//67 24//24 25//25
f 67//67 66//66 24//24
f 68//68 25//25 26//26
f 68//68 26//26 27//27
f 68//68 67//67 25//25
f 69//69 68//68 27//27
f 70//70 27//27 28//28
f 70//70 69//69 27//27
f 71//71 28//28 29//29
f 71//71 70//70 28//28
f 72//72 71//71 29//29
f 72//72 29//29 30//30
f 73//73 72//72 30//30
f 73//73 30//30 31//31
f 74//74 73//73 31//31
f 74//74 31//31 32//32
f 75//75 74//74 32//32
f 75//75 32//32 33//33
f 76//76 75//75 33//33
f 76//76 33//33 34//34
f 77//77 76//76 34//34
f 77//77 34//34 35//35
f 78//78 77//77 35//35
f 78//78 35//35 36//36
f 78//78 36//36 37//37
f 79//79 78//78 37//37
f 80//80 79//79 37//37
f 80//80 37//37 38//38
f 81//81 38//38 39//39
f 81//81 80//80 38//38
f 82//82 39//39 40//40
f 82//82 81//81 39//39
f 83//83 40//40 41//41
f 83//83 41//41 42//42
f 83//83 82//82 40//40
f 84//84 83//83 42//42
f 43//43 42//42 1//1
f 43//43 84//84 42//42
f 109//109 111//111 110//110
f 114//114 112//112 111//111
f 114//114 113//113 112//112
f 114//114 111//111 109//109
f 107//107 109//109 108//108
f 116//116 115//115 114//114
f 106//106 109//109 107//107
f 119//119 118//118 117//117
f 102//102 104//104 103//103
f 121//121 120//120 119//119
f 101//101 104//104 102//102
f 122//122 105//105 104//104
f 122//122 106//106 105//105
f 122//122 117//117 116//116
f 122//122 114//114 109//109
f 122//122 116//116 114//114
f 122//122 121//121 119//119
f 122//122 109//109 106//106
f 122//122 119//119 117//117
f 99//99 101//101 100//100
f 98//98 101//101 99//99
f 126//126 123//123 122//122
f 126//126 124//124 123//123
f 126//126 125//125 124//124
f 96//96 98//98 97//97
f 96//96 104//104 101//101
f 96//96 101//101 98//98
f 86//86 126//126 122//122
f 86//86 85//85 126//126
f 86//86 122//122 104//104
f 94//94 96//96 95//95
f 88//88 87//87 86//86
f 92//92 94//94 93//93
f 91//91 104//104 96//96
f 91//91 94//94 92//92
f 91//91 96//96 94//94
f 90//90 89//89 88//88
f 90//90 88//88 86//86
f 90//90 104//104 91//91
f 90//90 86//86 104//104
f 151//151 152//152 153//153
f 156//156 153//153 154//154
f 156//156 154//154 155//155
f 156//156 151//151 153//153
f 149//149 150//150 151//151
f 158//158 156//156 157//157
f 148//148 149//149 151//151
f 161//161 159//159 160//160
f 144//144 145//145 146//146
f 163//163 161//161 162//162
f 143//143 144//144 146//146
f 164//164 146//146 147//147
f 164//164 147//147 148//148
f 164//164 158//158 159//159
f 164//164 151//151 156//156
f 164//164 156//156 158//158
f 164//164 161//161 163//163
f 164//164 148//148 151//151
f 164//164 159//159 161//161
f 141//141 142//142 143//143
f 140//140 141//141 143//143
f 168//168 164//164 165//165
f 168//168 165//165 166//166
f 168//168 166//166 167//167
f 138//138 139//139 140//140
f 138//138 143//143 146//146
f 138//138 140//140 143//143
f 128//128 164//164 168//168
f 128//128 168//168 127//127
f 128//128 146//146 164//164
f 136//136 137//137 138//138
f 130//130 128//128 129//129
f 134//134 135//135 136//136
f 133//133 138//138 146//146
f 133//133 134//134 136//136
f 133//133 136//136 138//138
f 132//132 130//130 131//131
f 132//132 128//128 130//130
f 132//132 133//133 146//146
f 132//132 146//146 128//128

