# https://github.com/mikedh/trimesh
v 0.00000000 -0.05783243 -1.11433333
v 0.00861948 -0.05718649 -1.11433333
v 0.01704641 -0.05526310 -1.11433333
v 0.02509255 -0.05210522 -1.11433333
v 0.03257817 -0.04778340 -1.11433333
v 0.03933604 -0.04239417 -1.11433333
v 0.04521522 -0.03605793 -1.11433333
v 0.05008436 -0.02891622 -1.11433333
v 0.05383469 -0.02112856 -1.11433333
v 0.05638245 -0.01286893 -1.11433333
v 0.05767072 -0.00432182 -1.11433333
v 0.05767072 0.00432182 -1.11433333
v 0.05638245 0.01286893 -1.11433333
v 0.05383469 0.02112856 -1.11433333
v 0.05008436 0.02891622 -1.11433333
v 0.04521522 0.03605793 -1.11433333
v 0.03933604 0.04239417 -1.11433333
v 0.03257817 0.04778340 -1.11433333
v 0.02509255 0.05210522 -1.11433333
v 0.01704641 0.05526310 -1.11433333
v 0.00861948 0.05718649 -1.11433333
v -0.00000000 0.05783243 -1.11433333
v -0.00861948 0.05718649 -1.11433333
v -0.01704641 0.05526310 -1.11433333
v -0.02509255 0.05210522 -1.11433333
v -0.03257817 0.04778340 -1.11433333
v -0.03933604 0.04239417 -1.11433333
v -0.04521522 0.03605793 -1.11433333
v -0.05008436 0.02891622 -1.11433333
v -0.05383469 0.02112856 -1.11433333
v -0.05638245 0.01286893 -1.11433333
v -0.05767072 0.00432182 -1.11433333
v -0.05767072 -0.00432182 -1.11433333
v -0.05638245 -0.01286893 -1.11433333
v -0.05383469 -0.02112856 -1.11433333
v -0.05008436 -0.02891622 -1.11433333
v -0.04521522 -0.03605793 -1.11433333
v -0.03933604 -0.04239417 -1.11433333
v -0.03257817 -0.04778340 -1.11433333
v -0.02509255 -0.05210522 -1.11433333
v -0.01704641 -0.05526310 -1.11433333
v -0.00861948 -0.05718649 -1.11433333
v 0.00000000 -0.04761622 -1.10083333
v 0.00000000 -0.03740000 -1.08733333
v 0.00557418 -0.03698227 -1.08733333
v 0.01102384 -0.03573842 -1.08733333
v 0.01622725 -0.03369624 -1.08733333
v 0.02106817 -0.03090133 -1.08733333
v 0.02543846 -0.02741614 -1.08733333
v 0.02924050 -0.02331852 -1.08733333
v 0.03238935 -0.01870000 -1.08733333
v 0.03481468 -0.01366375 -1.08733333
v 0.03646230 -0.00832228 -1.08733333
v 0.03729542 -0.00279491 -1.08733333
v 0.03729542 0.00279491 -1.08733333
v 0.03646230 0.00832228 -1.08733333
v 0.03481468 0.01366375 -1.08733333
v 0.03238935 0.01870000 -1.08733333
v 0.02924050 0.02331852 -1.08733333
v 0.02543846 0.02741614 -1.08733333
v 0.02106817 0.03090133 -1.08733333
v 0.01622725 0.03369624 -1.08733333
v 0.01102384 0.03573842 -1.08733333
v 0.00557418 0.03698227 -1.08733333
v -0.00000000 0.03740000 -1.08733333
v -0.00557418 0.03698227 -1.08733333
v -0.01102384 0.03573842 -1.08733333
v -0.01622725 0.03369624 -1.08733333
v -0.02106817 0.03090133 -1.08733333
v -0.02543846 0.02741614 -1.08733333
v -0.02924050 0.02331852 -1.08733333
v -0.03238935 0.01870000 -1.08733333
v -0.03481468 0.01366375 -1.08733333
v -0.03646230 0.00832228 -1.08733333
v -0.03729542 0.00279491 -1.08733333
v -0.03729542 -0.00279491 -1.08733333
v -0.03646230 -0.00832228 -1.08733333
v -0.03481468 -0.01366375 -1.08733333
v -0.03238935 -0.01870000 -1.08733333
v -0.02924050 -0.02331852 -1.08733333
v -0.02543846 -0.02741614 -1.08733333
v -0.02106817 -0.03090133 -1.08733333
v -0.01622725 -0.03369624 -1.08733333
v -0.01102384 -0.03573842 -1.08733333
v -0.00557418 -0.03698227 -1.08733333
v -0.01403513 -0.04550076 -1.10083333
v -0.02682317 -0.03934236 -1.10083333
v -0.03722786 -0.02968823 -1.10083333
v -0.04432469 -0.01739616 -1.10083333
v -0.04748307 -0.00355836 -1.10083333
v -0.04642238 0.01059560 -1.10083333
v -0.04123685 0.02380811 -1.10083333
v -0.03238725 0.03490516 -1.10083333
v -0.02065990 0.04290073 -1.10083333
v -0.00709683 0.04708438 -1.10083333
v 0.00709683 0.04708438 -1.10083333
v 0.02065990 0.04290073 -1.10083333
v 0.03238725 0.03490516 -1.10083333
v 0.04123685 0.02380811 -1.10083333
v 0.04642238 0.01059560 -1.10083333
v 0.04748307 -0.00355836 -1.10083333
v 0.04432469 -0.01739616 -1.10083333
v 0.03722786 -0.02968823 -1.10083333
v 0.02682317 -0.03934236 -1.10083333
v 0.01403513 -0.04550076 -1.10083333
v 0.00000000 -0.05783243 -1.11433333
v 0.00861948 -0.05718649 -1.11433333
v 0.01704641 -0.05526310 -1.11433333
v 0.02509255 -0.05210522 -1.11433333
v 0.03257817 -0.04778340 -1.11433333
v 0.03933604 -0.04239417 -1.11433333
v 0.04521522 -0.03605793 -1.11433333
v 0.05008436 -0.02891622 -1.11433333
v 0.05383469 -0.02112856 -1.11433333
v 0.05638245 -0.01286893 -1.11433333
v 0.05767072 -0.00432182 -1.11433333
v 0.05767072 0.00432182 -1.11433333
v 0.05638245 0.01286893 -1.11433333
v 0.05383469 0.02112856 -1.11433333
v 0.05008436 0.02891622 -1.11433333
v 0.04521522 0.03605793 -1.11433333
v 0.03933604 0.04239417 -1.11433333
v 0.03257817 0.04778340 -1.11433333
v 0.02509255 0.05210522 -1.11433333
v 0.01704641 0.05526310 -1.11433333
v 0.00861948 0.05718649 -1.11433333
v -0.00000000 0.05783243 -1.11433333
v -0.00861948 0.05718649 -1.11433333
v -0.01704641 0.05526310 -1.11433333
v -0.02509255 0.05210522 -1.11433333
v -0.03257817 0.04778340 -1.11433333
v -0.03933604 0.04239417 -1.11433333
v -0.04521522 0.03605793 -1.11433333
v -0.05008436 0.02891622 -1.11433333
v -0.05383469 0.02112856 -1.11433333
v -0.05638245 0.01286893 -1.11433333
v -0.05767072 0.00432182 -1.11433333
v -0.05767072 -0.00432182 -1.11433333
v -0.05638245 -0.01286893 -1.11433333
v -0.05383469 -0.02112856 -1.11433333
v -0.05008436 -0.02891622 -1.11433333
v -0.04521522 -0.03605793 -1.11433333
v -0.03933604 -0.04239417 -1.11433333
v -0.03257817 -0.04778340 -1.11433333
v -0.02509255 -0.05210522 -1.11433333
v -0.01704641 -0.05526310 -1.11433333
v -0.00861948 -0.05718649 -1.11433333
v 0.00000000 -0.05570270 -1.11433333
v 0.00830206 -0.05508055 -1.11433333
v 0.01641866 -0.05322799 -1.11433333
v 0.02416850 -0.05018640 -1.11433333
v 0.03137845 -0.04602373 -1.11433333
v 0.03788746 -0.04083297 -1.11433333
v 0.04355013 -0.03473007 -1.11433333
v 0.04823996 -0.02785135 -1.11433333
v 0.05185218 -0.02035048 -1.11433333
v 0.05430612 -0.01239502 -1.11433333
v 0.05554695 -0.00416267 -1.11433333
v 0.05554695 0.00416267 -1.11433333
v 0.05430612 0.01239502 -1.11433333
v 0.05185218 0.02035048 -1.11433333
v 0.04823996 0.02785135 -1.11433333
v 0.04355013 0.03473007 -1.11433333
v 0.03788746 0.04083297 -1.11433333
v 0.03137845 0.04602373 -1.11433333
v 0.02416850 0.05018640 -1.11433333
v 0.01641866 0.05322799 -1.11433333
v 0.00830206 0.05508055 -1.11433333
v -0.00000000 0.05570270 -1.11433333
v -0.00830206 0.05508055 -1.11433333
v -0.01641866 0.05322799 -1.11433333
v -0.02416850 0.05018640 -1.11433333
v -0.03137845 0.04602373 -1.11433333
v -0.03788746 0.04083297 -1.11433333
v -0.04355013 0.03473007 -1.11433333
v -0.04823996 0.02785135 -1.11433333
v -0.05185218 0.02035048 -1.11433333
v -0.05430612 0.01239502 -1.11433333
v -0.05554695 0.00416267 -1.11433333
v -0.05554695 -0.00416267 -1.11433333
v -0.05430612 -0.01239502 -1.11433333
v -0.05185218 -0.02035048 -1.11433333
v -0.04823996 -0.02785135 -1.11433333
v -0.04355013 -0.03473007 -1.11433333
v -0.03788746 -0.04083297 -1.11433333
v -0.03137845 -0.04602373 -1.11433333
v -0.02416850 -0.05018640 -1.11433333
v -0.01641866 -0.05322799 -1.11433333
v -0.00830206 -0.05508055 -1.11433333
v 0.00000000 -0.03740000 -1.08733333
v 0.00557418 -0.03698227 -1.08733333
v 0.01102384 -0.03573842 -1.08733333
v 0.01622725 -0.03369624 -1.08733333
v 0.02106817 -0.03090133 -1.08733333
v 0.02543846 -0.02741614 -1.08733333
v 0.02924050 -0.02331852 -1.08733333
v 0.03238935 -0.01870000 -1.08733333
v 0.03481468 -0.01366375 -1.08733333
v 0.03646230 -0.00832228 -1.08733333
v 0.03729542 -0.00279491 -1.08733333
v 0.03729542 0.00279491 -1.08733333
v 0.03646230 0.00832228 -1.08733333
v 0.03481468 0.01366375 -1.08733333
v 0.03238935 0.01870000 -1.08733333
v 0.02924050 0.02331852 -1.08733333
v 0.02543846 0.02741614 -1.08733333
v 0.02106817 0.03090133 -1.08733333
v 0.01622725 0.03369624 -1.08733333
v 0.01102384 0.03573842 -1.08733333
v 0.00557418 0.03698227 -1.08733333
v -0.00000000 0.03740000 -1.08733333
v -0.00557418 0.03698227 -1.08733333
v -0.01102384 0.03573842 -1.08733333
v -0.01622725 0.03369624 -1.08733333
v -0.02106817 0.03090133 -1.08733333
v -0.02543846 0.02741614 -1.08733333
v -0.02924050 0.02331852 -1.08733333
v -0.03238935 0.01870000 -1.08733333
v -0.03481468 0.01366375 -1.08733333
v -0.03646230 0.00832228 -1.08733333
v -0.03729542 0.00279491 -1.08733333
v -0.03729542 -0.00279491 -1.08733333
v -0.03646230 -0.00832228 -1.08733333
v -0.03481468 -0.01366375 -1.08733333
v -0.03238935 -0.01870000 -1.08733333
v -0.02924050 -0.02331852 -1.08733333
v -0.02543846 -0.02741614 -1.08733333
v -0.02106817 -0.03090133 -1.08733333
v -0.01622725 -0.03369624 -1.08733333
v -0.01102384 -0.03573842 -1.08733333
v -0.00557418 -0.03698227 -1.08733333
v 0.00000000 -0.03740000 -1.08033333
v 0.00557418 -0.03698227 -1.08033333
v 0.01102384 -0.03573842 -1.08033333
v 0.01622725 -0.03369624 -1.08033333
v 0.02106817 -0.03090133 -1.08033333
v 0.02543846 -0.02741614 -1.08033333
v 0.02924050 -0.02331852 -1.08033333
v 0.03238935 -0.01870000 -1.08033333
v 0.03481468 -0.01366375 -1.08033333
v 0.03646230 -0.00832228 -1.08033333
v 0.03729542 -0.00279491 -1.08033333
v 0.03729542 0.00279491 -1.08033333
v 0.03646230 0.00832228 -1.08033333
v 0.03481468 0.01366375 -1.08033333
v 0.03238935 0.01870000 -1.08033333
v 0.02924050 0.02331852 -1.08033333
v 0.02543846 0.02741614 -1.08033333
v 0.02106817 0.03090133 -1.08033333
v 0.01622725 0.03369624 -1.08033333
v 0.01102384 0.03573842 -1.08033333
v 0.00557418 0.03698227 -1.08033333
v -0.00000000 0.03740000 -1.08033333
v -0.00557418 0.03698227 -1.08033333
v -0.01102384 0.03573842 -1.08033333
v -0.01622725 0.03369624 -1.08033333
v -0.02106817 0.03090133 -1.08033333
v -0.02543846 0.02741614 -1.08033333
v -0.02924050 0.02331852 -1.08033333
v -0.03238935 0.01870000 -1.08033333
v -0.03481468 0.01366375 -1.08033333
v -0.03646230 0.00832228 -1.08033333
v -0.03729542 0.00279491 -1.08033333
v -0.03729542 -0.00279491 -1.08033333
v -0.03646230 -0.00832228 -1.08033333
v -0.03481468 -0.01366375 -1.08033333
v -0.03238935 -0.01870000 -1.08033333
v -0.02924050 -0.02331852 -1.08033333
v -0.02543846 -0.02741614 -1.08033333
v -0.02106817 -0.03090133 -1.08033333
v -0.01622725 -0.03369624 -1.08033333
v -0.01102384 -0.03573842 -1.08033333
v -0.00557418 -0.03698227 -1.08033333
v 0.00000000 -0.05570270 -1.11433333
v 0.00830206 -0.05508055 -1.11433333
v 0.01641866 -0.05322799 -1.11433333
v 0.02416850 -0.05018640 -1.11433333
v 0.03137845 -0.04602373 -1.11433333
v 0.03788746 -0.04083297 -1.11433333
v 0.04355013 -0.03473007 -1.11433333
v 0.04823996 -0.02785135 -1.11433333
v 0.05185218 -0.02035048 -1.11433333
v 0.05430612 -0.01239502 -1.11433333
v 0.05554695 -0.00416267 -1.11433333
v 0.05554695 0.00416267 -1.11433333
v 0.05430612 0.01239502 -1.11433333
v 0.05185218 0.02035048 -1.11433333
v 0.04823996 0.02785135 -1.11433333
v 0.04355013 0.03473007 -1.11433333
v 0.03788746 0.04083297 -1.11433333
v 0.03137845 0.04602373 -1.11433333
v 0.02416850 0.05018640 -1.11433333
v 0.01641866 0.05322799 -1.11433333
v 0.00830206 0.05508055 -1.11433333
v -0.00000000 0.05570270 -1.11433333
v -0.00830206 0.05508055 -1.11433333
v -0.01641866 0.05322799 -1.11433333
v -0.02416850 0.05018640 -1.11433333
v -0.03137845 0.04602373 -1.11433333
v -0.03788746 0.04083297 -1.11433333
v -0.04355013 0.03473007 -1.11433333
v -0.04823996 0.02785135 -1.11433333
v -0.05185218 0.02035048 -1.11433333
v -0.05430612 0.01239502 -1.11433333
v -0.05554695 0.00416267 -1.11433333
v -0.05554695 -0.00416267 -1.11433333
v -0.05430612 -0.01239502 -1.11433333
v -0.05185218 -0.02035048 -1.11433333
v -0.04823996 -0.02785135 -1.11433333
v -0.04355013 -0.03473007 -1.11433333
v -0.03788746 -0.04083297 -1.11433333
v -0.03137845 -0.04602373 -1.11433333
v -0.02416850 -0.05018640 -1.11433333
v -0.01641866 -0.05322799 -1.11433333
v -0.00830206 -0.05508055 -1.11433333
v 0.00000000 -0.04913514 -1.10533333
v 0.00000000 -0.04256757 -1.09633333
v 0.00000000 -0.03600000 -1.08733333
v 0.00536552 -0.03559791 -1.08733333
v 0.01061119 -0.03440062 -1.08733333
v 0.01561981 -0.03243488 -1.08733333
v 0.02027952 -0.02974460 -1.08733333
v 0.02448622 -0.02638987 -1.08733333
v 0.02814593 -0.02244563 -1.08733333
v 0.03117691 -0.01800000 -1.08733333
v 0.03351145 -0.01315228 -1.08733333
v 0.03509740 -0.00801075 -1.08733333
v 0.03589934 -0.00269028 -1.08733333
v 0.03589934 0.00269028 -1.08733333
v 0.03509740 0.00801075 -1.08733333
v 0.03351145 0.01315228 -1.08733333
v 0.03117691 0.01800000 -1.08733333
v 0.02814593 0.02244563 -1.08733333
v 0.02448622 0.02638987 -1.08733333
v 0.02027952 0.02974460 -1.08733333
v 0.01561981 0.03243488 -1.08733333
v 0.01061119 0.03440062 -1.08733333
v 0.00536552 0.03559791 -1.08733333
v -0.00000000 0.03600000 -1.08733333
v -0.00536552 0.03559791 -1.08733333
v -0.01061119 0.03440062 -1.08733333
v -0.01561981 0.03243488 -1.08733333
v -0.02027952 0.02974460 -1.08733333
v -0.02448622 0.02638987 -1.08733333
v -0.02814593 0.02244563 -1.08733333
v -0.03117691 0.01800000 -1.08733333
v -0.03351145 0.01315228 -1.08733333
v -0.03509740 0.00801075 -1.08733333
v -0.03589934 0.00269028 -1.08733333
v -0.03589934 -0.00269028 -1.08733333
v -0.03509740 -0.00801075 -1.08733333
v -0.03351145 -0.01315228 -1.08733333
v -0.03117691 -0.01800000 -1.08733333
v -0.02814593 -0.02244563 -1.08733333
v -0.02448622 -0.02638987 -1.08733333
v -0.02027952 -0.02974460 -1.08733333
v -0.01561981 -0.03243488 -1.08733333
v -0.01061119 -0.03440062 -1.08733333
v -0.00536552 -0.03559791 -1.08733333
v -0.01254701 -0.04067641 -1.09633333
v -0.01448284 -0.04695220 -1.10533333
v -0.02397916 -0.03517097 -1.09633333
v -0.02767881 -0.04059735 -1.10533333
v -0.03328066 -0.02654044 -1.09633333
v -0.03841540 -0.03063526 -1.10533333
v -0.03962503 -0.01555168 -1.09633333
v -0.04573861 -0.01795108 -1.10533333
v -0.04244854 -0.00318108 -1.09633333
v -0.04899774 -0.00367187 -1.10533333
v -0.04150031 0.00947217 -1.09633333
v -0.04790321 0.01093360 -1.10533333
v -0.03686459 0.02128378 -1.09633333
v -0.04255228 0.02456757 -1.10533333
v -0.02895330 0.03120424 -1.09633333
v -0.03342038 0.03601860 -1.10533333
v -0.01846938 0.03835205 -1.09633333
v -0.02131894 0.04426923 -1.10533333
v -0.00634437 0.04209212 -1.09633333
v -0.00732321 0.04858634 -1.10533333
v 0.00634437 0.04209212 -1.09633333
v 0.00732321 0.04858634 -1.10533333
v 0.01846938 0.03835205 -1.09633333
v 0.02131894 0.04426923 -1.10533333
v 0.02895330 0.03120424 -1.09633333
v 0.03342038 0.03601860 -1.10533333
v 0.03686459 0.02128378 -1.09633333
v 0.04255228 0.02456757 -1.10533333
v 0.04150031 0.00947217 -1.09633333
v 0.04790321 0.01093360 -1.10533333
v 0.04244854 -0.00318108 -1.09633333
v 0.04899774 -0.00367187 -1.10533333
v 0.03962503 -0.01555168 -1.09633333
v 0.04573861 -0.01795108 -1.10533333
v 0.03328066 -0.02654044 -1.09633333
v 0.03841540 -0.03063526 -1.10533333
v 0.02397916 -0.03517097 -1.09633333
v 0.02767881 -0.04059735 -1.10533333
v 0.01254701 -0.04067641 -1.09633333
v 0.01448284 -0.04695220 -1.10533333
v 0.00000000 -0.03600000 -1.08733333
v 0.00536552 -0.03559791 -1.08733333
v 0.01061119 -0.03440062 -1.08733333
v 0.01561981 -0.03243488 -1.08733333
v 0.02027952 -0.02974460 -1.08733333
v 0.02448622 -0.02638987 -1.08733333
v 0.02814593 -0.02244563 -1.08733333
v 0.03117691 -0.01800000 -1.08733333
v 0.03351145 -0.01315228 -1.08733333
v 0.03509740 -0.00801075 -1.08733333
v 0.03589934 -0.00269028 -1.08733333
v 0.03589934 0.00269028 -1.08733333
v 0.03509740 0.00801075 -1.08733333
v 0.03351145 0.01315228 -1.08733333
v 0.03117691 0.01800000 -1.08733333
v 0.02814593 0.02244563 -1.08733333
v 0.02448622 0.02638987 -1.08733333
v 0.02027952 0.02974460 -1.08733333
v 0.01561981 0.03243488 -1.08733333
v 0.01061119 0.03440062 -1.08733333
v 0.00536552 0.03559791 -1.08733333
v -0.00000000 0.03600000 -1.08733333
v -0.00536552 0.03559791 -1.08733333
v -0.01061119 0.03440062 -1.08733333
v -0.01561981 0.03243488 -1.08733333
v -0.02027952 0.02974460 -1.08733333
v -0.02448622 0.02638987 -1.08733333
v -0.02814593 0.02244563 -1.08733333
v -0.03117691 0.01800000 -1.08733333
v -0.03351145 0.01315228 -1.08733333
v -0.03509740 0.00801075 -1.08733333
v -0.03589934 0.00269028 -1.08733333
v -0.03589934 -0.00269028 -1.08733333
v -0.03509740 -0.00801075 -1.08733333
v -0.03351145 -0.01315228 -1.08733333
v -0.03117691 -0.01800000 -1.08733333
v -0.02814593 -0.02244563 -1.08733333
v -0.02448622 -0.02638987 -1.08733333
v -0.02027952 -0.02974460 -1.08733333
v -0.01561981 -0.03243488 -1.08733333
v -0.01061119 -0.03440062 -1.08733333
v -0.00536552 -0.03559791 -1.08733333
v 0.00000000 -0.03600000 -1.08273333
v 0.00536552 -0.03559791 -1.08273333
v 0.01061119 -0.03440062 -1.08273333
v 0.01561981 -0.03243488 -1.08273333
v 0.02027952 -0.02974460 -1.08273333
v 0.02448622 -0.02638987 -1.08273333
v 0.02814593 -0.02244563 -1.08273333
v 0.03117691 -0.01800000 -1.08273333
v 0.03351145 -0.01315228 -1.08273333
v 0.03509740 -0.00801075 -1.08273333
v 0.03589934 -0.00269028 -1.08273333
v 0.03589934 0.00269028 -1.08273333
v 0.03509740 0.00801075 -1.08273333
v 0.03351145 0.01315228 -1.08273333
v 0.03117691 0.01800000 -1.08273333
v 0.02814593 0.02244563 -1.08273333
v 0.02448622 0.02638987 -1.08273333
v 0.02027952 0.02974460 -1.08273333
v 0.01561981 0.03243488 -1.08273333
v 0.01061119 0.03440062 -1.08273333
v 0.00536552 0.03559791 -1.08273333
v -0.00000000 0.03600000 -1.08273333
v -0.00536552 0.03559791 -1.08273333
v -0.01061119 0.03440062 -1.08273333
v -0.01561981 0.03243488 -1.08273333
v -0.02027952 0.02974460 -1.08273333
v -0.02448622 0.02638987 -1.08273333
v -0.02814593 0.02244563 -1.08273333
v -0.03117691 0.01800000 -1.08273333
v -0.03351145 0.01315228 -1.08273333
v -0.03509740 0.00801075 -1.08273333
v -0.03589934 0.00269028 -1.08273333
v -0.03589934 -0.00269028 -1.08273333
v -0.03509740 -0.00801075 -1.08273333
v -0.03351145 -0.01315228 -1.08273333
v -0.03117691 -0.01800000 -1.08273333
v -0.02814593 -0.02244563 -1.08273333
v -0.02448622 -0.02638987 -1.08273333
v -0.02027952 -0.02974460 -1.08273333
v -0.01561981 -0.03243488 -1.08273333
v -0.01061119 -0.03440062 -1.08273333
v -0.00536552 -0.03559791 -1.08273333
v 0.00000000 -0.03740000 -1.08033333
v 0.00557418 -0.03698227 -1.08033333
v 0.01102384 -0.03573842 -1.08033333
v 0.01622725 -0.03369624 -1.08033333
v 0.02106817 -0.03090133 -1.08033333
v 0.02543846 -0.02741614 -1.08033333
v 0.02924050 -0.02331852 -1.08033333
v 0.03238935 -0.01870000 -1.08033333
v 0.03481468 -0.01366375 -1.08033333
v 0.03646230 -0.00832228 -1.08033333
v 0.03729542 -0.00279491 -1.08033333
v 0.03729542 0.00279491 -1.08033333
v 0.03646230 0.00832228 -1.08033333
v 0.03481468 0.01366375 -1.08033333
v 0.03238935 0.01870000 -1.08033333
v 0.02924050 0.02331852 -1.08033333
v 0.02543846 0.02741614 -1.08033333
v 0.02106817 0.03090133 -1.08033333
v 0.01622725 0.03369624 -1.08033333
v 0.01102384 0.03573842 -1.08033333
v 0.00557418 0.03698227 -1.08033333
v -0.00000000 0.03740000 -1.08033333
v -0.00557418 0.03698227 -1.08033333
v -0.01102384 0.03573842 -1.08033333
v -0.01622725 0.03369624 -1.08033333
v -0.02106817 0.03090133 -1.08033333
v -0.02543846 0.02741614 -1.08033333
v -0.02924050 0.02331852 -1.08033333
v -0.03238935 0.01870000 -1.08033333
v -0.03481468 0.01366375 -1.08033333
v -0.03646230 0.00832228 -1.08033333
v -0.03729542 0.00279491 -1.08033333
v -0.03729542 -0.00279491 -1.08033333
v -0.03646230 -0.00832228 -1.08033333
v -0.03481468 -0.01366375 -1.08033333
v -0.03238935 -0.01870000 -1.08033333
v -0.02924050 -0.02331852 -1.08033333
v -0.02543846 -0.02741614 -1.08033333
v -0.02106817 -0.03090133 -1.08033333
v -0.01622725 -0.03369624 -1.08033333
v -0.01102384 -0.03573842 -1.08033333
v -0.00557418 -0.03698227 -1.08033333
v 0.00000000 -0.03600000 -1.08273333
v 0.00536552 -0.03559791 -1.08273333
v 0.01061119 -0.03440062 -1.08273333
v 0.01561981 -0.03243488 -1.08273333
v 0.02027952 -0.02974460 -1.08273333
v 0.02448622 -0.02638987 -1.08273333
v 0.02814593 -0.02244563 -1.08273333
v 0.03117691 -0.01800000 -1.08273333
v 0.03351145 -0.01315228 -1.08273333
v 0.03509740 -0.00801075 -1.08273333
v 0.03589934 -0.00269028 -1.08273333
v 0.03589934 0.00269028 -1.08273333
v 0.03509740 0.00801075 -1.08273333
v 0.03351145 0.01315228 -1.08273333
v 0.03117691 0.01800000 -1.08273333
v 0.02814593 0.02244563 -1.08273333
v 0.02448622 0.02638987 -1.08273333
v 0.02027952 0.02974460 -1.08273333
v 0.01561981 0.03243488 -1.08273333
v 0.01061119 0.03440062 -1.08273333
v 0.00536552 0.03559791 -1.08273333
v -0.00000000 0.03600000 -1.08273333
v -0.00536552 0.03559791 -1.08273333
v -0.01061119 0.03440062 -1.08273333
v -0.01561981 0.03243488 -1.08273333
v -0.02027952 0.02974460 -1.08273333
v -0.02448622 0.02638987 -1.08273333
v -0.02814593 0.02244563 -1.08273333
v -0.03117691 0.01800000 -1.08273333
v -0.03351145 0.01315228 -1.08273333
v -0.03509740 0.00801075 -1.08273333
v -0.03589934 0.00269028 -1.08273333
v -0.03589934 -0.00269028 -1.08273333
v -0.03509740 -0.00801075 -1.08273333
v -0.03351145 -0.01315228 -1.08273333
v -0.03117691 -0.01800000 -1.08273333
v -0.02814593 -0.02244563 -1.08273333
v -0.02448622 -0.02638987 -1.08273333
v -0.02027952 -0.02974460 -1.08273333
v -0.01561981 -0.03243488 -1.08273333
v -0.01061119 -0.03440062 -1.08273333
v -0.00536552 -0.03559791 -1.08273333
vn -0.00000000 -0.79740639 0.60344267
vn 0.11827857 -0.78472702 0.60845188
vn 0.23503966 -0.76197986 0.60344267
vn 0.34432613 -0.71500058 0.60845188
vn 0.44919501 -0.65884807 0.60344267
vn 0.53977881 -0.58174320 0.60845188
vn 0.62343742 -0.49717475 0.60344267
vn 0.68726977 -0.39679538 0.60845188
vn 0.74228467 -0.29132527 0.60344267
vn 0.77369379 -0.17659056 0.60845188
vn 0.79517668 -0.05959025 0.60344267
vn 0.79137173 0.05930511 0.60845188
vn 0.77741374 0.17743961 0.60344267
vn 0.73873281 0.28993126 0.60845188
vn 0.69057419 0.39870319 0.60344267
vn 0.62045425 0.49479575 0.60845188
vn 0.54237408 0.58454024 0.60344267
vn 0.44704560 0.65569546 0.60845188
vn 0.34598166 0.71843833 0.60344267
vn 0.23391499 0.75833376 0.60845188
vn 0.11884725 0.78850002 0.60344267
vn -0.00000000 0.79359077 0.60845188
vn -0.11884725 0.78850002 0.60344267
vn -0.23391499 0.75833376 0.60845188
vn -0.34598166 0.71843833 0.60344267
vn -0.44704560 0.65569546 0.60845188
vn -0.54237408 0.58454024 0.60344267
vn -0.62045425 0.49479575 0.60845188
vn -0.69057419 0.39870319 0.60344267
vn -0.73873281 0.28993126 0.60845188
vn -0.77741374 0.17743961 0.60344267
vn -0.79137173 0.05930511 0.60845188
vn -0.79517668 -0.05959025 0.60344267
vn -0.77369379 -0.17659056 0.60845188
vn -0.74228467 -0.29132527 0.60344267
vn -0.68726977 -0.39679538 0.60845188
vn -0.62343742 -0.49717475 0.60344267
vn -0.53977881 -0.58174320 0.60845188
vn -0.44919501 -0.65884807 0.60344267
vn -0.34432613 -0.71500058 0.60845188
vn -0.23503966 -0.76197986 0.60344267
vn -0.11827857 -0.78472702 0.60845188
vn 0.00000000 -0.79511357 0.60646055
vn -0.00000000 -0.79740639 0.60344267
vn 0.11941942 -0.79229611 0.59833593
vn 0.23503966 -0.76197986 0.60344267
vn 0.34764733 -0.72189712 0.59833593
vn 0.44919501 -0.65884807 0.60344267
vn 0.54498525 -0.58735441 0.59833593
vn 0.62343742 -0.49717475 0.60344267
vn 0.69389883 -0.40062268 0.59833593
vn 0.74228467 -0.29132527 0.60344267
vn 0.78115646 -0.17829386 0.59833593
vn 0.79517668 -0.05959025 0.60344267
vn 0.79900491 0.05987714 0.59833593
vn 0.77741374 0.17743961 0.60344267
vn 0.74585827 0.29272780 0.59833593
vn 0.69057419 0.39870319 0.60344267
vn 0.62643884 0.49956831 0.59833593
vn 0.54237408 0.58454024 0.60344267
vn 0.45135758 0.66201998 0.59833593
vn 0.34598166 0.71843833 0.60344267
vn 0.23617121 0.76564827 0.59833593
vn 0.11884725 0.78850002 0.60344267
vn -0.00000000 0.80124535 0.59833593
vn -0.11884725 0.78850002 0.60344267
vn -0.23617121 0.76564827 0.59833593
vn -0.34598166 0.71843833 0.60344267
vn -0.45135758 0.66201998 0.59833593
vn -0.54237408 0.58454024 0.60344267
vn -0.62643884 0.49956831 0.59833593
vn -0.69057419 0.39870319 0.60344267
vn -0.74585827 0.29272780 0.59833593
vn -0.77741374 0.17743961 0.60344267
vn -0.79900491 0.05987714 0.59833593
vn -0.79517668 -0.05959025 0.60344267
vn -0.78115646 -0.17829386 0.59833593
vn -0.74228467 -0.29132527 0.60344267
vn -0.69389883 -0.40062268 0.59833593
vn -0.62343742 -0.49717475 0.60344267
vn -0.54498525 -0.58735441 0.59833593
vn -0.44919501 -0.65884807 0.60344267
vn -0.34764733 -0.72189712 0.59833593
vn -0.23503966 -0.76197986 0.60344267
vn -0.11941942 -0.79229611 0.59833593
vn -0.23436384 -0.75978891 0.60646055
vn -0.44790342 -0.65695367 0.60646055
vn -0.62164482 -0.49574520 0.60646055
vn -0.74015035 -0.29048761 0.60646055
vn -0.79289028 -0.05941891 0.60646055
vn -0.77517842 0.17692942 0.60646055
vn -0.68858855 0.39755679 0.60646055
vn -0.54081458 0.58285949 0.60646055
vn -0.34498685 0.71637258 0.60646055
vn -0.11850553 0.78623281 0.60646055
vn 0.11850553 0.78623281 0.60646055
vn 0.34498685 0.71637258 0.60646055
vn 0.54081458 0.58285949 0.60646055
vn 0.68858855 0.39755679 0.60646055
vn 0.77517842 0.17692942 0.60646055
vn 0.79289028 -0.05941891 0.60646055
vn 0.74015035 -0.29048761 0.60646055
vn 0.62164482 -0.49574520 0.60646055
vn 0.44790342 -0.65695367 0.60646055
vn 0.23436384 -0.75978891 0.60646055
vn 0.00000000 0.00000000 -1.00000000
vn 0.00000000 0.00000000 -1.00000000
vn 0.00000000 0.00000000 -1.00000000
vn 0.00000000 0.00000000 -1.00000000
vn 0.00000000 0.00000000 -1.00000000
vn 0.00000000 0.00000000 -1.00000000
vn 0.00000000 0.00000000 -1.00000000
vn 0.00000000 0.00000000 -1.00000000
vn 0.00000000 0.00000000 -1.00000000
vn 0.00000000 0.00000000 -1.00000000
vn 0.00000000 0.00000000 -1.00000000
vn 0.00000000 0.00000000 -1.00000000
vn 0.00000000 0.00000000 -1.00000000
vn 0.00000000 0.00000000 -1.00000000
vn 0.00000000 0.00000000 -1.00000000
vn 0.00000000 0.00000000 -1.00000000
vn 0.00000000 0.00000000 -1.00000000
vn 0.00000000 0.00000000 -1.00000000
vn 0.00000000 0.00000000 -1.00000000
vn 0.00000000 0.00000000 -1.00000000
vn 0.00000000 0.00000000 -1.00000000
vn 0.00000000 0.00000000 -1.00000000
vn 0.00000000 0.00000000 -1.00000000
vn 0.00000000 0.00000000 -1.00000000
vn 0.00000000 0.00000000 -1.00000000
vn 0.00000000 0.00000000 -1.00000000
vn 0.00000000 0.00000000 -1.00000000
vn 0.00000000 0.00000000 -1.00000000
vn 0.00000000 0.00000000 -1.00000000
vn 0.00000000 0.00000000 -1.00000000
vn 0.00000000 0.00000000 -1.00000000
vn 0.00000000 0.00000000 -1.00000000
vn 0.00000000 0.00000000 -1.00000000
vn 0.00000000 0.00000000 -1.00000000
vn 0.00000000 0.00000000 -1.00000000
vn 0.00000000 0.00000000 -1.00000000
vn 0.00000000 0.00000000 -1.00000000
vn 0.00000000 0.00000000 -1.00000000
vn 0.00000000 0.00000000 -1.00000000
vn 0.00000000 0.00000000 -1.00000000
vn 0.00000000 0.00000000 -1.00000000
vn 0.00000000 0.00000000 -1.00000000
vn 0.00000000 0.00000000 -1.00000000
vn 0.00000000 0.00000000 -1.00000000
vn 0.00000000 0.00000000 -1.00000000
vn 0.00000000 0.00000000 -1.00000000
vn 0.00000000 0.00000000 -1.00000000
vn 0.00000000 0.00000000 -1.00000000
vn 0.00000000 0.00000000 -1.00000000
vn 0.00000000 0.00000000 -1.00000000
vn 0.00000000 0.00000000 -1.00000000
vn 0.00000000 0.00000000 -1.00000000
vn 0.00000000 0.00000000 -1.00000000
vn 0.00000000 0.00000000 -1.00000000
vn 0.00000000 0.00000000 -1.00000000
vn 0.00000000 0.00000000 -1.00000000
vn 0.00000000 0.00000000 -1.00000000
vn 0.00000000 0.00000000 -1.00000000
vn 0.00000000 0.00000000 -1.00000000
vn 0.00000000 0.00000000 -1.00000000
vn 0.00000000 0.00000000 -1.00000000
vn 0.00000000 0.00000000 -1.00000000
vn 0.00000000 0.00000000 -1.00000000
vn 0.00000000 0.00000000 -1.00000000
vn 0.00000000 0.00000000 -1.00000000
vn 0.00000000 0.00000000 -1.00000000
vn 0.00000000 0.00000000 -1.00000000
vn 0.00000000 0.00000000 -1.00000000
vn 0.00000000 0.00000000 -1.00000000
vn 0.00000000 0.00000000 -1.00000000
vn 0.00000000 0.00000000 -1.00000000
vn 0.00000000 0.00000000 -1.00000000
vn 0.00000000 0.00000000 -1.00000000
vn 0.00000000 0.00000000 -1.00000000
vn 0.00000000 0.00000000 -1.00000000
vn 0.00000000 0.00000000 -1.00000000
vn 0.00000000 0.00000000 -1.00000000
vn 0.00000000 0.00000000 -1.00000000
vn 0.00000000 0.00000000 -1.00000000
vn 0.00000000 0.00000000 -1.00000000
vn 0.00000000 0.00000000 -1.00000000
vn 0.00000000 0.00000000 -1.00000000
vn 0.00000000 0.00000000 -1.00000000
vn 0.00000000 0.00000000 -1.00000000
vn -0.00000000 -1.00000000 0.00000000
vn 0.14904227 -0.98883083 0.00000000
vn 0.29475517 -0.95557281 0.00000000
vn 0.43388374 -0.90096887 0.00000000
vn 0.56332006 -0.82623877 0.00000000
vn 0.68017274 -0.73305187 0.00000000
vn 0.78183148 -0.62348980 0.00000000
vn 0.86602540 -0.50000000 0.00000000
vn 0.93087375 -0.36534102 0.00000000
vn 0.97492791 -0.22252093 0.00000000
vn 0.99720380 -0.07473009 0.00000000
vn 0.99720380 0.07473009 0.00000000
vn 0.97492791 0.22252093 0.00000000
vn 0.93087375 0.36534102 0.00000000
vn 0.86602540 0.50000000 0.00000000
vn 0.78183148 0.62348980 0.00000000
vn 0.68017274 0.73305187 0.00000000
vn 0.56332006 0.82623877 0.00000000
vn 0.43388374 0.90096887 0.00000000
vn 0.29475517 0.95557281 0.00000000
vn 0.14904227 0.98883083 0.00000000
vn -0.00000000 1.00000000 0.00000000
vn -0.14904227 0.98883083 0.00000000
vn -0.29475517 0.95557281 0.00000000
vn -0.43388374 0.90096887 0.00000000
vn -0.56332006 0.82623877 0.00000000
vn -0.68017274 0.73305187 0.00000000
vn -0.78183148 0.62348980 0.00000000
vn -0.86602540 0.50000000 0.00000000
vn -0.93087375 0.36534102 0.00000000
vn -0.97492791 0.22252093 0.00000000
vn -0.99720380 0.07473009 0.00000000
vn -0.99720380 -0.07473009 0.00000000
vn -0.97492791 -0.22252093 0.00000000
vn -0.93087375 -0.36534102 0.00000000
vn -0.86602540 -0.50000000 0.00000000
vn -0.78183148 -0.62348980 0.00000000
vn -0.68017274 -0.73305187 0.00000000
vn -0.56332006 -0.82623877 0.00000000
vn -0.43388374 -0.90096887 0.00000000
vn -0.29475517 -0.95557281 0.00000000
vn -0.14904227 -0.98883083 0.00000000
vn -0.00000000 -1.00000000 0.00000000
vn 0.14904227 -0.98883083 0.00000000
vn 0.29475517 -0.95557281 0.00000000
vn 0.43388374 -0.90096887 0.00000000
vn 0.56332006 -0.82623877 0.00000000
vn 0.68017274 -0.73305187 0.00000000
vn 0.78183148 -0.62348980 0.00000000
vn 0.86602540 -0.50000000 0.00000000
vn 0.93087375 -0.36534102 0.00000000
vn 0.97492791 -0.22252093 0.00000000
vn 0.99720380 -0.07473009 0.00000000
vn 0.99720380 0.07473009 0.00000000
vn 0.97492791 0.22252093 0.00000000
vn 0.93087375 0.36534102 0.00000000
vn 0.86602540 0.50000000 0.00000000
vn 0.78183148 0.62348980 0.00000000
vn 0.68017274 0.73305187 0.00000000
vn 0.56332006 0.82623877 0.00000000
vn 0.43388374 0.90096887 0.00000000
vn 0.29475517 0.95557281 0.00000000
vn 0.14904227 0.98883083 0.00000000
vn -0.00000000 1.00000000 0.00000000
vn -0.14904227 0.98883083 0.00000000
vn -0.29475517 0.95557281 0.00000000
vn -0.43388374 0.90096887 0.00000000
vn -0.56332006 0.82623877 0.00000000
vn -0.68017274 0.73305187 0.00000000
vn -0.78183148 0.62348980 0.00000000
vn -0.86602540 0.50000000 0.00000000
vn -0.93087375 0.36534102 0.00000000
vn -0.97492791 0.22252093 0.00000000
vn -0.99720380 0.07473009 0.00000000
vn -0.99720380 -0.07473009 0.00000000
vn -0.97492791 -0.22252093 0.00000000
vn -0.93087375 -0.36534102 0.00000000
vn -0.86602540 -0.50000000 0.00000000
vn -0.78183148 -0.62348980 0.00000000
vn -0.68017274 -0.73305187 0.00000000
vn -0.56332006 -0.82623877 0.00000000
vn -0.43388374 -0.90096887 0.00000000
vn -0.29475517 -0.95557281 0.00000000
vn -0.14904227 -0.98883083 0.00000000
vn 0.00000000 0.80779095 -0.58946907
vn -0.11911677 0.79028812 -0.60104565
vn -0.23810056 0.77190306 -0.58946907
vn -0.34676626 0.72006756 -0.60104565
vn -0.45504484 0.66742820 -0.58946907
vn -0.54360404 0.58586583 -0.60104565
vn -0.63155639 0.50364942 -0.58946907
vn -0.69214023 0.39960735 -0.60104565
vn -0.75195139 0.29511917 -0.58946907
vn -0.77917671 0.17784200 -0.60104565
vn -0.80553220 0.06036629 -0.58946907
vn -0.79697992 -0.05972539 -0.60104565
vn -0.78753794 -0.17975040 -0.58946907
vn -0.74396798 -0.29198591 -0.60104565
vn -0.69956748 -0.40389547 -0.58946907
vn -0.62485121 -0.49830221 -0.60104565
vn -0.54943738 -0.59215267 -0.58946907
vn -0.45021367 -0.66034217 -0.60104565
vn -0.35048736 -0.72779450 -0.58946907
vn -0.23557267 -0.76370782 -0.60104565
vn -0.12039499 -0.79876859 -0.58946907
vn 0.00000000 -0.79921469 -0.60104565
vn 0.12039499 -0.79876859 -0.58946907
vn 0.23557267 -0.76370782 -0.60104565
vn 0.35048736 -0.72779450 -0.58946907
vn 0.45021367 -0.66034217 -0.60104565
vn 0.54943738 -0.59215267 -0.58946907
vn 0.62485121 -0.49830221 -0.60104565
vn 0.69956748 -0.40389547 -0.58946907
vn 0.74396798 -0.29198591 -0.60104565
vn 0.78753794 -0.17975040 -0.58946907
vn 0.79697992 -0.05972539 -0.60104565
vn 0.80553220 0.06036629 -0.58946907
vn 0.77917671 0.17784200 -0.60104565
vn 0.75195139 0.29511917 -0.58946907
vn 0.69214023 0.39960735 -0.60104565
vn 0.63155639 0.50364942 -0.58946907
vn 0.54360404 0.58586583 -0.60104565
vn 0.45504484 0.66742820 -0.58946907
vn 0.34676626 0.72006756 -0.60104565
vn 0.23810056 0.77190306 -0.58946907
vn 0.11911677 0.79028812 -0.60104565
vn -0.00000000 0.79942174 -0.60077024
vn -0.00000000 0.81363425 -0.58137707
vn 0.00000000 0.80779095 -0.58946907
vn -0.12140486 0.80546860 -0.58007000
vn -0.23810056 0.77190306 -0.58946907
vn -0.35342722 0.73389918 -0.58007000
vn -0.45504484 0.66742820 -0.58946907
vn -0.55404602 0.59711960 -0.58007000
vn -0.63155639 0.50364942 -0.58946907
vn -0.70543540 0.40728332 -0.58007000
vn -0.75195139 0.29511917 -0.58946907
vn -0.79414375 0.18125813 -0.58007000
vn -0.80553220 0.06036629 -0.58946907
vn -0.81228894 -0.06087264 -0.58007000
vn -0.78753794 -0.17975040 -0.58946907
vn -0.75825870 -0.29759461 -0.58007000
vn -0.69956748 -0.40389547 -0.58946907
vn -0.63685384 -0.50787399 -0.58007000
vn -0.54943738 -0.59215267 -0.58946907
vn -0.45886172 -0.67302654 -0.58007000
vn -0.35048736 -0.72779450 -0.58946907
vn -0.24009773 -0.77837772 -0.58007000
vn -0.12039499 -0.79876859 -0.58946907
vn 0.00000000 -0.81456663 -0.58007000
vn 0.12039499 -0.79876859 -0.58946907
vn 0.24009773 -0.77837772 -0.58007000
vn 0.35048736 -0.72779450 -0.58946907
vn 0.45886172 -0.67302654 -0.58007000
vn 0.54943738 -0.59215267 -0.58946907
vn 0.63685384 -0.50787399 -0.58007000
vn 0.69956748 -0.40389547 -0.58946907
vn 0.75825870 -0.29759461 -0.58007000
vn 0.78753794 -0.17975040 -0.58946907
vn 0.81228894 -0.06087264 -0.58007000
vn 0.80553220 0.06036629 -0.58946907
vn 0.79414375 0.18125813 -0.58007000
vn 0.75195139 0.29511917 -0.58946907
vn 0.70543540 0.40728332 -0.58007000
vn 0.63155639 0.50364942 -0.58946907
vn 0.55404602 0.59711960 -0.58007000
vn 0.45504484 0.66742820 -0.58946907
vn 0.35342722 0.73389918 -0.58007000
vn 0.23810056 0.77190306 -0.58946907
vn 0.12140486 0.80546860 -0.58007000
vn 0.23982291 0.77748677 -0.58137707
vn 0.23563369 0.76390567 -0.60077024
vn 0.45833649 0.67225617 -0.58137707
vn 0.45033030 0.66051324 -0.60077024
vn 0.63612487 0.50729266 -0.58137707
vn 0.62501308 0.49843130 -0.60077024
vn 0.75739077 0.29725397 -0.58137707
vn 0.74416071 0.29206156 -0.60077024
vn 0.81135917 0.06080296 -0.58137707
vn 0.79718639 0.05974086 -0.60077024
vn 0.79323474 -0.18105065 -0.58137707
vn 0.77937857 -0.17788807 -0.60077024
vn 0.70462793 -0.40681713 -0.58137707
vn 0.69231953 -0.39971087 -0.60077024
vn 0.55341184 -0.59643611 -0.58137707
vn 0.54374487 -0.58601760 -0.60077024
vn 0.35302267 -0.73305913 -0.58137707
vn 0.34685609 -0.72025410 -0.60077024
vn 0.12126589 -0.80454663 -0.58137707
vn 0.11914763 -0.79049286 -0.60077024
vn -0.12126589 -0.80454663 -0.58137707
vn -0.11914763 -0.79049286 -0.60077024
vn -0.35302267 -0.73305913 -0.58137707
vn -0.34685609 -0.72025410 -0.60077024
vn -0.55341184 -0.59643611 -0.58137707
vn -0.54374487 -0.58601760 -0.60077024
vn -0.70462793 -0.40681713 -0.58137707
vn -0.69231953 -0.39971087 -0.60077024
vn -0.79323474 -0.18105065 -0.58137707
vn -0.77937857 -0.17788807 -0.60077024
vn -0.81135917 0.06080296 -0.58137707
vn -0.79718639 0.05974086 -0.60077024
vn -0.75739077 0.29725397 -0.58137707
vn -0.74416071 0.29206156 -0.60077024
vn -0.63612487 0.50729266 -0.58137707
vn -0.62501308 0.49843130 -0.60077024
vn -0.45833649 0.67225617 -0.58137707
vn -0.45033030 0.66051324 -0.60077024
vn -0.23982291 0.77748677 -0.58137707
vn -0.23563369 0.76390567 -0.60077024
vn 0.00000000 1.00000000 0.00000000
vn -0.14904227 0.98883083 0.00000000
vn -0.29475517 0.95557281 0.00000000
vn -0.43388374 0.90096887 0.00000000
vn -0.56332006 0.82623877 0.00000000
vn -0.68017274 0.73305187 0.00000000
vn -0.78183148 0.62348980 0.00000000
vn -0.86602540 0.50000000 0.00000000
vn -0.93087375 0.36534102 0.00000000
vn -0.97492791 0.22252093 0.00000000
vn -0.99720380 0.07473009 0.00000000
vn -0.99720380 -0.07473009 0.00000000
vn -0.97492791 -0.22252093 0.00000000
vn -0.93087375 -0.36534102 0.00000000
vn -0.86602540 -0.50000000 0.00000000
vn -0.78183148 -0.62348980 0.00000000
vn -0.68017274 -0.73305187 0.00000000
vn -0.56332006 -0.82623877 0.00000000
vn -0.43388374 -0.90096887 0.00000000
vn -0.29475517 -0.95557281 0.00000000
vn -0.14904227 -0.98883083 0.00000000
vn 0.00000000 -1.00000000 0.00000000
vn 0.14904227 -0.98883083 0.00000000
vn 0.29475517 -0.95557281 0.00000000
vn 0.43388374 -0.90096887 0.00000000
vn 0.56332006 -0.82623877 0.00000000
vn 0.68017274 -0.73305187 0.00000000
vn 0.78183148 -0.62348980 0.00000000
vn 0.86602540 -0.50000000 0.00000000
vn 0.93087375 -0.36534102 0.00000000
vn 0.97492791 -0.22252093 0.00000000
vn 0.99720380 -0.07473009 0.00000000
vn 0.99720380 0.07473009 0.00000000
vn 0.97492791 0.22252093 0.00000000
vn 0.93087375 0.36534102 0.00000000
vn 0.86602540 0.50000000 0.00000000
vn 0.78183148 0.62348980 0.00000000
vn 0.68017274 0.73305187 0.00000000
vn 0.56332006 0.82623877 0.00000000
vn 0.43388374 0.90096887 0.00000000
vn 0.29475517 0.95557281 0.00000000
vn 0.14904227 0.98883083 0.00000000
vn 0.00000000 1.00000000 0.00000000
vn -0.14904227 0.98883083 0.00000000
vn -0.29475517 0.95557281 0.00000000
vn -0.43388374 0.90096887 0.00000000
vn -0.56332006 0.82623877 0.00000000
vn -0.68017274 0.73305187 0.00000000
vn -0.78183148 0.62348980 0.00000000
vn -0.86602540 0.50000000 0.00000000
vn -0.93087375 0.36534102 0.00000000
vn -0.97492791 0.22252093 0.00000000
vn -0.99720380 0.07473009 0.00000000
vn -0.99720380 -0.07473009 0.00000000
vn -0.97492791 -0.22252093 0.00000000
vn -0.93087375 -0.36534102 0.00000000
vn -0.86602540 -0.50000000 0.00000000
vn -0.78183148 -0.62348980 0.00000000
vn -0.68017274 -0.73305187 0.00000000
vn -0.56332006 -0.82623877 0.00000000
vn -0.43388374 -0.90096887 0.00000000
vn -0.29475517 -0.95557281 0.00000000
vn -0.14904227 -0.98883083 0.00000000
vn 0.00000000 -1.00000000 0.00000000
vn 0.14904227 -0.98883083 0.00000000
vn 0.29475517 -0.95557281 0.00000000
vn 0.43388374 -0.90096887 0.00000000
vn 0.56332006 -0.82623877 0.00000000
vn 0.68017274 -0.73305187 0.00000000
vn 0.78183148 -0.62348980 0.00000000
vn 0.86602540 -0.50000000 0.00000000
vn 0.93087375 -0.36534102 0.00000000
vn 0.97492791 -0.22252093 0.00000000
vn 0.99720380 -0.07473009 0.00000000
vn 0.99720380 0.07473009 0.00000000
vn 0.97492791 0.22252093 0.00000000
vn 0.93087375 0.36534102 0.00000000
vn 0.86602540 0.50000000 0.00000000
vn 0.78183148 0.62348980 0.00000000
vn 0.68017274 0.73305187 0.00000000
vn 0.56332006 0.82623877 0.00000000
vn 0.43388374 0.90096887 0.00000000
vn 0.29475517 0.95557281 0.00000000
vn 0.14904227 0.98883083 0.00000000
vn 0.00000000 0.00000000 1.00000000
vn 0.00000000 0.00000000 1.00000000
vn 0.00000000 0.00000000 1.00000000
vn 0.00000000 0.00000000 1.00000000
vn 0.00000000 0.00000000 1.00000000
vn 0.00000000 0.00000000 1.00000000
vn 0.00000000 0.00000000 1.00000000
vn 0.00000000 0.00000000 1.00000000
vn 0.00000000 0.00000000 1.00000000
vn 0.00000000 0.00000000 1.00000000
vn 0.00000000 0.00000000 1.00000000
vn 0.00000000 0.00000000 1.00000000
vn 0.00000000 0.00000000 1.00000000
vn 0.00000000 0.00000000 1.00000000
vn 0.00000000 0.00000000 1.00000000
vn 0.00000000 0.00000000 1.00000000
vn 0.00000000 0.00000000 1.00000000
vn 0.00000000 0.00000000 1.00000000
vn 0.00000000 0.00000000 1.00000000
vn 0.00000000 0.00000000 1.00000000
vn 0.00000000 0.00000000 1.00000000
vn 0.00000000 0.00000000 1.00000000
vn 0.00000000 0.00000000 1.00000000
vn 0.00000000 0.00000000 1.00000000
vn 0.00000000 0.00000000 1.00000000
vn 0.00000000 0.00000000 1.00000000
vn 0.00000000 0.00000000 1.00000000
vn 0.00000000 0.00000000 1.00000000
vn 0.00000000 0.00000000 1.00000000
vn 0.00000000 0.00000000 1.00000000
vn 0.00000000 0.00000000 1.00000000
vn 0.00000000 0.00000000 1.00000000
vn 0.00000000 0.00000000 1.00000000
vn 0.00000000 0.00000000 1.00000000
vn 0.00000000 0.00000000 1.00000000
vn 0.00000000 0.00000000 1.00000000
vn 0.00000000 0.00000000 1.00000000
vn 0.00000000 0.00000000 1.00000000
vn 0.00000000 0.00000000 1.00000000
vn 0.00000000 0.00000000 1.00000000
vn 0.00000000 0.00000000 1.00000000
vn 0.00000000 0.00000000 1.00000000
vn 0.00000000 0.00000000 -1.00000000
vn 0.00000000 0.00000000 -1.00000000
vn 0.00000000 0.00000000 -1.00000000
vn 0.00000000 0.00000000 -1.00000000
vn 0.00000000 0.00000000 -1.00000000
vn 0.00000000 0.00000000 -1.00000000
vn 0.00000000 0.00000000 -1.00000000
vn 0.00000000 0.00000000 -1.00000000
vn 0.00000000 0.00000000 -1.00000000
vn 0.00000000 0.00000000 -1.00000000
vn 0.00000000 0.00000000 -1.00000000
vn 0.00000000 0.00000000 -1.00000000
vn 0.00000000 0.00000000 -1.00000000
vn 0.00000000 0.00000000 -1.00000000
vn 0.00000000 0.00000000 -1.00000000
vn 0.00000000 0.00000000 -1.00000000
vn 0.00000000 0.00000000 -1.00000000
vn 0.00000000 0.00000000 -1.00000000
vn 0.00000000 0.00000000 -1.00000000
vn 0.00000000 0.00000000 -1.00000000
vn 0.00000000 0.00000000 -1.00000000
vn 0.00000000 0.00000000 -1.00000000
vn 0.00000000 0.00000000 -1.00000000
vn 0.00000000 0.00000000 -1.00000000
vn 0.00000000 0.00000000 -1.00000000
vn 0.00000000 0.00000000 -1.00000000
vn 0.00000000 0.00000000 -1.00000000
vn 0.00000000 0.00000000 -1.00000000
vn 0.00000000 0.00000000 -1.00000000
vn 0.00000000 0.00000000 -1.00000000
vn 0.00000000 0.00000000 -1.00000000
vn 0.00000000 0.00000000 -1.00000000
vn 0.00000000 0.00000000 -1.00000000
vn 0.00000000 0.00000000 -1.00000000
vn 0.00000000 0.00000000 -1.00000000
vn 0.00000000 0.00000000 -1.00000000
vn 0.00000000 0.00000000 -1.00000000
vn 0.00000000 0.00000000 -1.00000000
vn 0.00000000 0.00000000 -1.00000000
vn 0.00000000 0.00000000 -1.00000000
vn 0.00000000 0.00000000 -1.00000000
vn 0.00000000 0.00000000 -1.00000000
f 43//43 44//44 85//85
f 42//42 1//1 43//43
f 43//43 45//45 44//44
f 1//1 2//2 43//43
f 86//86 42//42 43//43
f 86//86 40//40 41//41
f 86//86 41//41 42//42
f 86//86 84//84 83//83
f 86//86 85//85 84//84
f 86//86 43//43 85//85
f 87//87 86//86 83//83
f 87//87 40//40 86//86
f 87//87 38//38 39//39
f 87//87 39//39 40//40
f 87//87 82//82 81//81
f 87//87 83//83 82//82
f 88//88 87//87 81//81
f 88//88 36//36 37//37
f 88//88 37//37 38//38
f 88//88 80//80 79//79
f 88//88 81//81 80//80
f 88//88 38//38 87//87
f 89//89 34//34 35//35
f 89//89 35//35 36//36
f 89//89 88//88 79//79
f 89//89 78//78 77//77
f 89//89 79//79 78//78
f 89//89 36//36 88//88
f 90//90 32//32 33//33
f 90//90 33//33 34//34
f 90//90 34//34 89//89
f 90//90 76//76 75//75
f 90//90 77//77 76//76
f 90//90 89//89 77//77
f 91//91 32//32 90//90
f 91//91 30//30 31//31
f 91//91 31//31 32//32
f 91//91 90//90 75//75
f 91//91 74//74 73//73
f 91//91 75//75 74//74
f 92//92 91//91 73//73
f 92//92 30//30 91//91
f 92//92 28//28 29//29
f 92//92 29//29 30//30
f 92//92 72//72 71//71
f 92//92 73//73 72//72
f 93//93 26//26 27//27
f 93//93 27//27 28//28
f 93//93 70//70 69//69
f 93//93 71//71 70//70
f 93//93 92//92 71//71
f 93//93 28//28 92//92
f 94//94 24//24 25//25
f 94//94 25//25 26//26
f 94//94 93//93 69//69
f 94//94 26//26 93//93
f 94//94 68//68 67//67
f 94//94 69//69 68//68
f 95//95 24//24 94//94
f 95//95 22//22 23//23
f 95//95 23//23 24//24
f 95//95 66//66 65//65
f 95//95 67//67 66//66
f 95//95 94//94 67//67
f 96//96 95//95 65//65
f 96//96 20//20 21//21
f 96//96 21//21 22//22
f 96//96 22//22 95//95
f 96//96 64//64 63//63
f 96//96 65//65 64//64
f 97//97 96//96 63//63
f 97//97 18//18 19//19
f 97//97 19//19 20//20
f 97//97 62//62 61//61
f 97//97 63//63 62//62
f 97//97 20//20 96//96
f 98//98 16//16 17//17
f 98//98 17//17 18//18
f 98//98 97//97 61//61
f 98//98 18//18 97//97
f 98//98 60//60 59//59
f 98//98 61//61 60//60
f 99//99 14//14 15//15
f 99//99 15//15 16//16
f 99//99 16//16 98//98
f 99//99 98//98 59//59
f 99//99 58//58 57//57
f 99//99 59//59 58//58
f 100//100 12//12 13//13
f 100//100 13//13 14//14
f 100//100 14//14 99//99
f 100//100 56//56 55//55
f 100//100 57//57 56//56
f 100//100 99//99 57//57
f 101//101 10//10 11//11
f 101//101 11//11 12//12
f 101//101 100//100 55//55
f 101//101 12//12 100//100
f 101//101 54//54 53//53
f 101//101 55//55 54//54
f 102//102 8//8 9//9
f 102//102 9//9 10//10
f 102//102 101//101 53//53
f 102//102 52//52 51//51
f 102//102 53//53 52//52
f 102//102 10//10 101//101
f 103//103 6//6 7//7
f 103//103 7//7 8//8
f 103//103 50//50 49//49
f 103//103 51//51 50//50
f 103//103 8//8 102//102
f 103//103 102//102 51//51
f 104//104 4//4 5//5
f 104//104 5//5 6//6
f 104//104 48//48 47//47
f 104//104 49//49 48//48
f 104//104 6//6 103//103
f 104//104 103//103 49//49
f 105//105 2//2 3//3
f 105//105 3//3 4//4
f 105//105 4//4 104//104
f 105//105 46//46 45//45
f 105//105 47//47 46//46
f 105//105 45//45 43//43
f 105//105 43//43 2//2
f 105//105 104//104 47//47
f 174//174 133//133 132//132
f 175//175 134//134 133//133
f 175//175 133//133 174//174
f 173//173 132//132 131//131
f 173//173 174//174 132//132
f 130//130 173//173 131//131
f 176//176 134//134 175//175
f 135//135 134//134 176//176
f 172//172 173//173 130//130
f 129//129 172//172 130//130
f 177//177 135//135 176//176
f 171//171 172//172 129//129
f 178//178 135//135 177//177
f 178//178 136//136 135//135
f 170//170 171//171 129//129
f 170//170 129//129 128//128
f 179//179 136//136 178//178
f 179//179 137//137 136//136
f 127//127 170//170 128//128
f 169//169 170//170 127//127
f 138//138 137//137 179//179
f 180//180 138//138 179//179
f 168//168 127//127 126//126
f 168//168 169//169 127//127
f 181//181 139//139 138//138
f 181//181 138//138 180//180
f 167//167 126//126 125//125
f 167//167 168//168 126//126
f 182//182 139//139 181//181
f 182//182 140//140 139//139
f 166//166 125//125 124//124
f 166//166 167//167 125//125
f 141//141 140//140 182//182
f 183//183 141//141 182//182
f 165//165 124//124 123//123
f 165//165 166//166 124//124
f 184//184 142//142 141//141
f 184//184 141//141 183//183
f 122//122 165//165 123//123
f 164//164 165//165 122//122
f 185//185 142//142 184//184
f 143//143 142//142 185//185
f 121//121 163//163 164//164
f 121//121 164//164 122//122
f 144//144 143//143 185//185
f 144//144 185//185 186//186
f 120//120 162//162 163//163
f 120//120 163//163 121//121
f 187//187 144//144 186//186
f 145//145 144//144 187//187
f 119//119 161//161 162//162
f 119//119 162//162 120//120
f 188//188 145//145 187//187
f 146//146 145//145 188//188
f 118//118 160//160 161//161
f 118//118 161//161 119//119
f 147//147 146//146 188//188
f 147//147 188//188 189//189
f 117//117 160//160 118//118
f 117//117 159//159 160//160
f 148//148 147//147 189//189
f 106//106 147//147 148//148
f 116//116 159//159 117//117
f 116//116 158//158 159//159
f 107//107 106//106 148//148
f 107//107 148//148 149//149
f 115//115 158//158 116//116
f 115//115 157//157 158//158
f 150//150 107//107 149//149
f 156//156 157//157 115//115
f 108//108 107//107 150//150
f 114//114 156//156 115//115
f 109//109 108//108 150//150
f 109//109 150//150 151//151
f 113//113 156//156 114//114
f 113//113 155//155 156//156
f 110//110 109//109 151//151
f 110//110 151//151 152//152
f 112//112 155//155 113//113
f 112//112 154//154 155//155
f 111//111 152//152 153//153
f 111//111 153//153 154//154
f 111//111 110//110 152//152
f 111//111 154//154 112//112
f 233//233 190//190 191//191
f 233//233 232//232 190//190
f 234//234 191//191 192//192
f 234//234 192//192 193//193
f 234//234 233//233 191//191
f 235//235 234//234 193//193
f 236//236 235//235 193//193
f 236//236 193//193 194//194
f 236//236 194//194 195//195
f 237//237 236//236 195//195
f 237//237 195//195 196//196
f 238//238 237//237 196//196
f 239//239 196//196 197//197
f 239//239 197//197 198//198
f 239//239 238//238 196//196
f 240//240 239//239 198//198
f 241//241 198//198 199//199
f 241//241 240//240 198//198
f 242//242 199//199 200//200
f 242//242 200//200 201//201
f 242//242 241//241 199//199
f 243//243 242//242 201//201
f 244//244 201//201 202//202
f 244//244 243//243 201//201
f 245//245 202//202 203//203
f 245//245 244//244 202//202
f 246//246 203//203 204//204
f 246//246 245//245 203//203
f 247//247 204//204 205//205
f 247//247 205//205 206//206
f 247//247 246//246 204//204
f 248//248 247//247 206//206
f 249//249 206//206 207//207
f 249//249 248//248 206//206
f 250//250 207//207 208//208
f 250//250 249//249 207//207
f 251//251 208//208 209//209
f 251//251 250//250 208//208
f 252//252 209//209 210//210
f 252//252 251//251 209//209
f 253//253 210//210 211//211
f 253//253 252//252 210//210
f 254//254 211//211 212//212
f 254//254 253//253 211//211
f 255//255 212//212 213//213
f 255//255 213//213 214//214
f 255//255 254//254 212//212
f 256//256 255//255 214//214
f 257//257 214//214 215//215
f 257//257 215//215 216//216
f 257//257 256//256 214//214
f 258//258 257//257 216//216
f 259//259 216//216 217//217
f 259//259 258//258 216//216
f 260//260 217//217 218//218
f 260//260 218//218 219//219
f 260//260 259//259 217//217
f 261//261 260//260 219//219
f 262//262 261//261 219//219
f 262//262 219//219 220//220
f 263//263 262//262 220//220
f 263//263 220//220 221//221
f 264//264 263//263 221//221
f 264//264 221//221 222//222
f 265//265 264//264 222//222
f 265//265 222//222 223//223
f 265//265 223//223 224//224
f 266//266 265//265 224//224
f 267//267 266//266 224//224
f 267//267 224//224 225//225
f 268//268 267//267 225//225
f 268//268 225//225 226//226
f 269//269 268//268 226//226
f 269//269 226//226 227//227
f 270//270 227//227 228//228
f 270//270 269//269 227//227
f 271//271 228//228 229//229
f 271//271 229//229 230//230
f 271//271 270//270 228//228
f 272//272 230//230 231//231
f 272//272 271//271 230//230
f 273//273 272//272 231//231
f 232//232 231//231 190//190
f 232//232 273//273 231//231
f 317//317 359//359 318//318
f 315//315 316//316 274//274
f 317//317 318//318 319//319
f 274//274 316//316 275//275
f 360//360 317//317 316//316
f 360//360 357//357 358//358
f 360//360 358//358 359//359
f 360//360 359//359 317//317
f 361//361 316//316 315//315
f 361//361 314//314 313//313
f 361//361 315//315 314//314
f 361//361 360//360 316//316
f 362//362 357//357 360//360
f 362//362 355//355 356//356
f 362//362 356//356 357//357
f 363//363 360//360 361//361
f 363//363 361//361 313//313
f 363//363 312//312 311//311
f 363//363 313//313 312//312
f 363//363 362//362 360//360
f 364//364 362//362 363//363
f 364//364 355//355 362//362
f 364//364 353//353 354//354
f 364//364 354//354 355//355
f 365//365 364//364 363//363
f 365//365 310//310 309//309
f 365//365 311//311 310//310
f 365//365 363//363 311//311
f 366//366 353//353 364//364
f 366//366 351//351 352//352
f 366//366 352//352 353//353
f 366//366 364//364 365//365
f 367//367 366//366 365//365
f 367//367 308//308 307//307
f 367//367 309//309 308//308
f 367//367 365//365 309//309
f 368//368 351//351 366//366
f 368//368 349//349 350//350
f 368//368 350//350 351//351
f 369//369 306//306 305//305
f 369//369 307//307 306//306
f 369//369 368//368 366//366
f 369//369 367//367 307//307
f 369//369 366//366 367//367
f 370//370 349//349 368//368
f 370//370 347//347 348//348
f 370//370 348//348 349//349
f 371//371 368//368 369//369
f 371//371 369//369 305//305
f 371//371 304//304 303//303
f 371//371 305//305 304//304
f 371//371 370//370 368//368
f 372//372 347//347 370//370
f 372//372 345//345 346//346
f 372//372 346//346 347//347
f 373//373 371//371 303//303
f 373//373 302//302 301//301
f 373//373 303//303 302//302
f 373//373 372//372 370//370
f 373//373 370//370 371//371
f 374//374 345//345 372//372
f 374//374 343//343 344//344
f 374//374 344//344 345//345
f 375//375 374//374 372//372
f 375//375 300//300 299//299
f 375//375 301//301 300//300
f 375//375 372//372 373//373
f 375//375 373//373 301//301
f 376//376 343//343 374//374
f 376//376 374//374 375//375
f 376//376 341//341 342//342
f 376//376 342//342 343//343
f 377//377 376//376 375//375
f 377//377 298//298 297//297
f 377//377 299//299 298//298
f 377//377 375//375 299//299
f 378//378 341//341 376//376
f 378//378 339//339 340//340
f 378//378 340//340 341//341
f 379//379 296//296 295//295
f 379//379 297//297 296//296
f 379//379 376//376 377//377
f 379//379 377//377 297//297
f 379//379 378//378 376//376
f 380//380 339//339 378//378
f 380//380 337//337 338//338
f 380//380 338//338 339//339
f 381//381 294//294 293//293
f 381//381 295//295 294//294
f 381//381 380//380 378//378
f 381//381 378//378 379//379
f 381//381 379//379 295//295
f 382//382 380//380 381//381
f 382//382 335//335 336//336
f 382//382 336//336 337//337
f 382//382 337//337 380//380
f 383//383 382//382 381//381
f 383//383 292//292 291//291
f 383//383 293//293 292//292
f 383//383 381//381 293//293
f 384//384 335//335 382//382
f 384//384 333//333 334//334
f 384//384 334//334 335//335
f 385//385 290//290 289//289
f 385//385 291//291 290//290
f 385//385 384//384 382//382
f 385//385 383//383 291//291
f 385//385 382//382 383//383
f 386//386 333//333 384//384
f 386//386 384//384 385//385
f 386//386 331//331 332//332
f 386//386 332//332 333//333
f 387//387 288//288 287//287
f 387//387 289//289 288//288
f 387//387 385//385 289//289
f 387//387 386//386 385//385
f 388//388 331//331 386//386
f 388//388 329//329 330//330
f 388//388 330//330 331//331
f 389//389 387//387 287//287
f 389//389 286//286 285//285
f 389//389 287//287 286//286
f 389//389 388//388 386//386
f 389//389 386//386 387//387
f 390//390 329//329 388//388
f 390//390 327//327 328//328
f 390//390 328//328 329//329
f 391//391 284//284 283//283
f 391//391 285//285 284//284
f 391//391 388//388 389//389
f 391//391 390//390 388//388
f 391//391 389//389 285//285
f 392//392 327//327 390//390
f 392//392 390//390 391//391
f 392//392 325//325 326//326
f 392//392 326//326 327//327
f 393//393 282//282 281//281
f 393//393 283//283 282//282
f 393//393 391//391 283//283
f 393//393 392//392 391//391
f 394//394 323//323 324//324
f 394//394 324//324 325//325
f 394//394 325//325 392//392
f 395//395 280//280 279//279
f 395//395 281//281 280//280
f 395//395 393//393 281//281
f 395//395 392//392 393//393
f 395//395 394//394 392//392
f 396//396 321//321 322//322
f 396//396 322//322 323//323
f 396//396 323//323 394//394
f 397//397 278//278 277//277
f 397//397 279//279 278//278
f 397//397 395//395 279//279
f 397//397 394//394 395//395
f 397//397 396//396 394//394
f 398//398 319//319 320//320
f 398//398 320//320 321//321
f 398//398 317//317 319//319
f 398//398 321//321 396//396
f 398//398 396//396 397//397
f 398//398 316//316 317//317
f 399//399 276//276 275//275
f 399//399 277//277 276//276
f 399//399 397//397 277//277
f 399//399 275//275 316//316
f 399//399 398//398 397//397
f 399//399 316//316 398//398
f 443//443 401//401 400//400
f 443//443 400//400 442//442
f 444//444 402//402 401//401
f 444//444 403//403 402//402
f 444//444 401//401 443//443
f 445//445 403//403 444//444
f 446//446 403//403 445//445
f 446//446 404//404 403//403
f 447//447 405//405 404//404
f 447//447 406//406 405//405
f 447//447 404//404 446//446
f 448//448 406//406 447//447
f 449//449 407//407 406//406
f 449//449 406//406 448//448
f 450//450 408//408 407//407
f 450//450 409//409 408//408
f 450//450 407//407 449//449
f 451//451 409//409 450//450
f 452//452 410//410 409//409
f 452//452 409//409 451//451
f 453//453 411//411 410//410
f 453//453 410//410 452//452
f 454//454 412//412 411//411
f 454//454 411//411 453//453
f 455//455 413//413 412//412
f 455//455 414//414 413//413
f 455//455 412//412 454//454
f 456//456 414//414 455//455
f 457//457 415//415 414//414
f 457//457 414//414 456//456
f 458//458 416//416 415//415
f 458//458 415//415 457//457
f 459//459 417//417 416//416
f 459//459 416//416 458//458
f 460//460 418//418 417//417
f 460//460 417//417 459//459
f 461//461 419//419 418//418
f 461//461 418//418 460//460
f 462//462 420//420 419//419
f 462//462 419//419 461//461
f 463//463 421//421 420//420
f 463//463 420//420 462//462
f 464//464 422//422 421//421
f 464//464 421//421 463//463
f 465//465 423//423 422//422
f 465//465 424//424 423//423
f 465//465 422//422 464//464
f 466//466 425//425 424//424
f 466//466 424//424 465//465
f 467//467 425//425 466//466
f 468//468 426//426 425//425
f 468//468 427//427 426//426
f 468//468 425//425 467//467
f 469//469 427//427 468//468
f 470//470 428//428 427//427
f 470//470 427//427 469//469
f 471//471 428//428 470//470
f 471//471 429//429 428//428
f 471//471 430//430 429//429
f 472//472 430//430 471//471
f 473//473 430//430 472//472
f 473//473 431//431 430//430
f 473//473 432//432 431//431
f 474//474 432//432 473//473
f 475//475 432//432 474//474
f 475//475 433//433 432//432
f 476//476 433//433 475//475
f 476//476 434//434 433//433
f 476//476 435//435 434//434
f 477//477 435//435 476//476
f 478//478 435//435 477//477
f 478//478 436//436 435//435
f 479//479 436//436 478//478
f 479//479 437//437 436//436
f 480//480 438//438 437//437
f 480//480 437//437 479//479
f 481//481 439//439 438//438
f 481//481 438//438 480//480
f 482//482 440//440 439//439
f 482//482 439//439 481//481
f 483//483 441//441 440//440
f 483//483 440//440 482//482
f 442//442 441//441 483//483
f 442//442 400//400 441//441
f 505//505 506//506 507//507
f 505//505 507//507 508//508
f 505//505 510//510 511//511
f 505//505 508//508 510//510
f 504//504 505//505 511//511
f 517//517 515//515 516//516
f 502//502 503//503 504//504
f 519//519 517//517 518//518
f 501//501 511//511 515//515
f 501//501 504//504 511//511
f 501//501 502//502 504//504
f 521//521 519//519 520//520
f 521//521 515//515 517//517
f 521//521 517//517 519//519
f 523//523 521//521 522//522
f 497//497 498//498 499//499
f 497//497 499//499 500//500
f 496//496 500//500 501//501
f 496//496 501//501 515//515
f 496//496 497//497 500//500
f 495//495 496//496 515//515
f 495//495 515//515 521//521
f 484//484 523//523 524//524
f 484//484 524//524 525//525
f 484//484 521//521 523//523
f 485//485 521//521 484//484
f 493//493 494//494 495//495
f 491//491 492//492 493//493
f 491//491 493//493 495//495
f 488//488 486//486 487//487
f 490//490 491//491 495//495
f 489//489 521//521 485//485
f 489//489 490//490 495//495
f 489//489 486//486 488//488
f 489//489 495//495 521//521
f 489//489 485//485 486//486
f 515//515 512//512 514//514
f 515//515 511//511 512//512
f 514//514 512//512 513//513
f 508//508 509//509 510//510
f 538//538 547//547 541//541
f 567//567 566//566 561//561
f 537//537 561//561 560//560
f 537//537 560//560 538//538
f 531//531 526//526 567//567
f 531//531 536//536 533//533
f 531//531 530//530 526//526
f 531//531 533//533 532//532
f 531//531 567//567 561//561
f 531//531 561//561 536//536
f 530//530 529//529 528//528
f 530//530 528//528 527//527
f 530//530 527//527 526//526
f 533//533 536//536 534//534
f 534//534 536//536 535//535
f 536//536 561//561 537//537
f 551//551 553//553 552//552
f 550//550 553//553 551//551
f 548//548 550//550 549//549
f 557//557 555//555 554//554
f 538//538 554//554 547//547
f 538//538 557//557 554//554
f 538//538 560//560 559//559
f 538//538 559//559 558//558
f 538//538 558//558 557//557
f 538//538 541//541 540//540
f 538//538 540//540 539//539
f 566//566 563//563 561//561
f 566//566 565//565 564//564
f 566//566 564//564 563//563
f 541//541 547//547 544//544
f 541//541 544//544 543//543
f 557//557 556//556 555//555
f 547//547 554//554 553//553
f 547//547 553//553 550//550
f 547//547 550//550 548//548
f 544//544 546//546 545//545
f 544//544 547//547 546//546
f 563//563 562//562 561//561
f 541//541 543//543 542//542

