# https://github.com/mikedh/trimesh
v 0.00000000 -0.09500000 1.08500000
v 0.01311614 -0.09409021 1.08500000
v 0.02598106 -0.09137825 1.08500000
v 0.03834835 -0.08691607 1.08500000
v 0.04998113 -0.08078915 1.08500000
v 0.06065660 -0.07311482 1.08500000
v 0.07017028 -0.06404008 1.08500000
v 0.07833994 -0.05373875 1.08500000
v 0.08500912 -0.04240813 1.08500000
v 0.09005007 -0.03026524 1.08500000
v 0.09336624 -0.01754267 1.08500000
v 0.09489411 -0.00448409 1.08500000
v 0.09460443 0.00866038 1.08500000
v 0.09250273 0.02163896 1.08500000
v 0.08862928 0.03420309 1.08500000
v 0.08305826 0.04611210 1.08500000
v 0.07589638 0.05713791 1.08500000
v 0.06728081 0.06706931 1.08500000
v 0.05737657 0.07571611 1.08500000
v 0.04637337 0.08291267 1.08500000
v 0.03448196 0.08852115 1.08500000
v 0.02193009 0.09243414 1.08500000
v 0.00895818 0.09457669 1.08500000
v -0.00418530 0.09490776 1.08500000
v -0.01724863 0.09342101 1.08500000
v -0.02998158 0.09014491 1.08500000
v -0.04214028 0.08514222 1.08500000
v -0.05349184 0.07850875 1.08500000
v -0.06381884 0.07037155 1.08500000
v -0.07292349 0.06088649 1.08500000
v -0.08063139 0.05023524 1.08500000
v -0.08679491 0.03862181 1.08500000
v -0.09129600 0.02626863 1.08500000
v -0.09404844 0.01341231 1.08500000
v -0.09499953 0.00029910 1.08500000
v -0.09413103 -0.01281984 1.08500000
v -0.09145959 -0.02569324 1.08500000
v -0.08703638 -0.03807452 1.08500000
v -0.08094611 -0.04972653 1.08500000
v -0.07330543 -0.06042611 1.08500000
v -0.06426069 -0.06996831 1.08500000
v -0.05398513 -0.07817036 1.08500000
v -0.04267556 -0.08487518 1.08500000
v -0.03054861 -0.08995434 1.08500000
v -0.01783653 -0.09331055 1.08500000
v -0.00895818 -0.09457669 1.08500000
v 0.00000000 -0.08432981 1.28830818
v -0.00000000 -0.05249892 1.48908896
v 0.00000000 -0.00035000 1.68500000
v 0.00004917 -0.00034653 1.68500000
v 0.00009737 -0.00033618 1.68500000
v 0.00014363 -0.00031917 1.68500000
v 0.00018705 -0.00029583 1.68500000
v 0.00022675 -0.00026661 1.68500000
v 0.00026196 -0.00023211 1.68500000
v 0.00029197 -0.00019301 1.68500000
v 0.00031619 -0.00015008 1.68500000
v 0.00033414 -0.00010417 1.68500000
v 0.00034546 -0.00005619 1.68500000
v 0.00034993 -0.00000710 1.68500000
v 0.00034745 0.00004213 1.68500000
v 0.00033809 0.00009053 1.68500000
v 0.00032202 0.00013713 1.68500000
v 0.00029956 0.00018101 1.68500000
v 0.00027116 0.00022130 1.68500000
v 0.00023738 0.00025720 1.68500000
v 0.00019889 0.00028800 1.68500000
v 0.00015646 0.00031308 1.68500000
v 0.00011092 0.00033196 1.68500000
v 0.00006318 0.00034425 1.68500000
v 0.00001419 0.00034971 1.68500000
v -0.00003508 0.00034824 1.68500000
v -0.00008365 0.00033986 1.68500000
v -0.00013057 0.00032473 1.68500000
v -0.00017490 0.00030317 1.68500000
v -0.00021575 0.00027559 1.68500000
v -0.00025233 0.00024255 1.68500000
v -0.00028390 0.00020469 1.68500000
v -0.00030985 0.00016277 1.68500000
v -0.00032964 0.00011763 1.68500000
v -0.00034290 0.00007015 1.68500000
v -0.00034935 0.00002128 1.68500000
v -0.00034888 -0.00002801 1.68500000
v -0.00034148 -0.00007674 1.68500000
v -0.00032731 -0.00012396 1.68500000
v -0.00030665 -0.00016871 1.68500000
v -0.00027991 -0.00021012 1.68500000
v -0.00024761 -0.00024736 1.68500000
v -0.00021041 -0.00027969 1.68500000
v -0.00016903 -0.00030648 1.68500000
v -0.00012429 -0.00032719 1.68500000
v -0.00007709 -0.00034140 1.68500000
v -0.00003879 -0.00034784 1.68500000
v 0.03621637 -0.08743406 1.12250000
v 0.06691913 -0.06691913 1.12250000
v 0.03580057 -0.08643021 1.16000000
v 0.08743406 -0.03621637 1.12250000
v 0.06615082 -0.06615082 1.16000000
v 0.09463795 0.00000000 1.12250000
v 0.03510703 -0.08475588 1.19750000
v 0.08643021 -0.03580057 1.16000000
v 0.08743406 0.03621637 1.12250000
v 0.06486934 -0.06486934 1.19750000
v 0.09355139 0.00000000 1.16000000
v 0.06691913 0.06691913 1.12250000
v 0.03413500 -0.08240917 1.23500000
v 0.08475588 -0.03510703 1.19750000
v 0.08643021 0.03580057 1.16000000
v 0.03621637 0.08743406 1.12250000
v 0.06307325 -0.06307325 1.23500000
v 0.09173910 0.00000000 1.19750000
v 0.06615082 0.06615082 1.16000000
v 0.03288336 -0.07938745 1.27250000
v 0.00000000 0.09463795 1.12250000
v 0.08240917 -0.03413500 1.23500000
v 0.08475588 0.03510703 1.19750000
v 0.03580057 0.08643021 1.16000000
v 0.06076053 -0.06076053 1.27250000
v -0.03621637 0.08743406 1.12250000
v 0.08919905 0.00000000 1.23500000
v 0.06486934 0.06486934 1.19750000
v 0.03135070 -0.07568728 1.31000000
v 0.00000000 0.09355139 1.16000000
v 0.07938745 -0.03288336 1.27250000
v -0.06691913 0.06691913 1.12250000
v 0.08240917 0.03413500 1.23500000
v 0.03510703 0.08475588 1.19750000
v 0.05792854 -0.05792854 1.31000000
v -0.03580057 0.08643021 1.16000000
v 0.08592836 0.00000000 1.27250000
v -0.08743406 0.03621637 1.12250000
v 0.06307325 0.06307325 1.23500000
v 0.02953526 -0.07130443 1.34750000
v 0.00000000 0.09173910 1.19750000
v 0.07568728 -0.03135070 1.31000000
v -0.06615082 0.06615082 1.16000000
v 0.07938745 0.03288336 1.27250000
v -0.09463795 0.00000000 1.12250000
v 0.03413500 0.08240917 1.23500000
v 0.05457405 -0.05457405 1.34750000
v -0.03510703 0.08475588 1.19750000
v 0.08192333 0.00000000 1.31000000
v -0.08643021 0.03580057 1.16000000
v 0.06076053 0.06076053 1.27250000
v -0.08743406 -0.03621637 1.12250000
v 0.02743495 -0.06623382 1.38500000
v 0.00000000 0.08919905 1.23500000
v 0.07130443 -0.02953526 1.34750000
v -0.06486934 0.06486934 1.19750000
v 0.07568728 0.03135070 1.31000000
v -0.09355139 0.00000000 1.16000000
v 0.03288336 0.07938745 1.27250000
v -0.06691913 -0.06691913 1.12250000
v 0.05069317 -0.05069317 1.38500000
v -0.03413500 0.08240917 1.23500000
v 0.07717936 0.00000000 1.34750000
v -0.08475588 0.03510703 1.19750000
v 0.05792854 0.05792854 1.31000000
v -0.08643021 -0.03580057 1.16000000
v 0.02504731 -0.06046954 1.42250000
v 0.00000000 0.08592836 1.27250000
v -0.03621637 -0.08743406 1.12250000
v 0.06623382 -0.02743495 1.38500000
v -0.06307325 0.06307325 1.23500000
v 0.07130443 0.02953526 1.34750000
v -0.09173910 0.00000000 1.19750000
v 0.03135070 0.07568728 1.31000000
v -0.06615082 -0.06615082 1.16000000
v 0.04628139 -0.04628139 1.42250000
v -0.03288336 0.07938745 1.27250000
v 0.07169097 0.00000000 1.38500000
v -0.08240917 0.03413500 1.23500000
v 0.05457405 0.05457405 1.34750000
v -0.08475588 -0.03510703 1.19750000
v 0.02236951 -0.05400479 1.46000000
v 0.00000000 0.08192333 1.31000000
v -0.03580057 -0.08643021 1.16000000
v 0.06046954 -0.02504731 1.42250000
v -0.06076053 0.06076053 1.27250000
v 0.06623382 0.02743495 1.38500000
v -0.08919905 0.00000000 1.23500000
v 0.02953526 0.07130443 1.34750000
v -0.06486934 -0.06486934 1.19750000
v 0.04133347 -0.04133347 1.46000000
v -0.03135070 0.07568728 1.31000000
v 0.06545176 0.00000000 1.42250000
v -0.07938745 0.03288336 1.27250000
v 0.05069317 0.05069317 1.38500000
v -0.08240917 -0.03413500 1.23500000
v 0.00000000 0.07717936 1.34750000
v 0.01939836 -0.04683179 1.49750000
v -0.03510703 -0.08475588 1.19750000
v 0.05400479 -0.02236951 1.46000000
v -0.05792854 0.05792854 1.31000000
v 0.06046954 0.02504731 1.42250000
v -0.08592836 0.00000000 1.27250000
v 0.02743495 0.06623382 1.38500000
v -0.06307325 -0.06307325 1.23500000
v -0.02953526 0.07130443 1.34750000
v 0.03584350 -0.03584350 1.49750000
v 0.05845436 0.00000000 1.46000000
v -0.07568728 0.03135070 1.31000000
v 0.04628139 0.04628139 1.42250000
v -0.07938745 -0.03288336 1.27250000
v 0.00000000 0.07169097 1.38500000
v -0.03413500 -0.08240917 1.23500000
v 0.01613024 -0.03894184 1.53500000
v -0.05457405 0.05457405 1.34750000
v 0.04683179 -0.01939836 1.49750000
v 0.05400479 0.02236951 1.46000000
v -0.08192333 0.00000000 1.31000000
v 0.02504731 0.06046954 1.42250000
v -0.06076053 -0.06076053 1.27250000
v -0.02743495 0.06623382 1.38500000
v 0.02980480 -0.02980480 1.53500000
v -0.07130443 0.02953526 1.34750000
v 0.05069037 0.00000000 1.49750000
v 0.04133347 0.04133347 1.46000000
v -0.07568728 -0.03135070 1.31000000
v 0.00000000 0.06545176 1.42250000
v -0.03288336 -0.07938745 1.27250000
v 0.01256109 -0.03032516 1.57250000
v -0.05069317 0.05069317 1.38500000
v 0.03894184 -0.01613024 1.53500000
v -0.07717936 0.00000000 1.34750000
v 0.04683179 0.01939836 1.49750000
v 0.02236951 0.05400479 1.46000000
v -0.05792854 -0.05792854 1.31000000
v -0.02504731 0.06046954 1.42250000
v 0.02320987 -0.02320987 1.57250000
v -0.06623382 0.02743495 1.38500000
v 0.04215035 0.00000000 1.53500000
v -0.07130443 -0.02953526 1.34750000
v 0.03584350 0.03584350 1.49750000
v 0.00000000 0.05845436 1.46000000
v -0.03135070 -0.07568728 1.31000000
v 0.00868642 -0.02097087 1.61000000
v -0.04628139 0.04628139 1.42250000
v 0.03032516 -0.01256109 1.57250000
v -0.07169097 0.00000000 1.38500000
v 0.03894184 0.01613024 1.53500000
v -0.05457405 -0.05457405 1.34750000
v 0.01939836 0.04683179 1.49750000
v -0.02236951 0.05400479 1.46000000
v 0.01605041 -0.01605041 1.61000000
v -0.06046954 0.02504731 1.42250000
v 0.03282372 0.00000000 1.57250000
v -0.06623382 -0.02743495 1.38500000
v 0.02980480 0.02980480 1.53500000
v -0.02953526 -0.07130443 1.34750000
v 0.00000000 0.05069037 1.49750000
v 0.00450123 -0.01086692 1.64750000
v -0.04133347 0.04133347 1.46000000
v 0.02097087 -0.00868642 1.61000000
v -0.06545176 0.00000000 1.42250000
v 0.03032516 0.01256109 1.57250000
v -0.05069317 -0.05069317 1.38500000
v 0.01613024 0.03894184 1.53500000
v -0.01939836 0.04683179 1.49750000
v 0.00831718 -0.00831718 1.64750000
v -0.05400479 0.02236951 1.46000000
v 0.02269871 0.00000000 1.61000000
v -0.06046954 -0.02504731 1.42250000
v 0.02320987 0.02320987 1.57250000
v -0.02743495 -0.06623382 1.38500000
v 0.00000000 0.04215035 1.53500000
v -0.03584350 0.03584350 1.49750000
v 0.01086692 -0.00450123 1.64750000
v -0.05845436 0.00000000 1.46000000
v 0.02097087 0.00868642 1.61000000
v -0.04628139 -0.04628139 1.42250000
v 0.01256109 0.03032516 1.57250000
v -0.01613024 0.03894184 1.53500000
v -0.04683179 0.01939836 1.49750000
v 0.01176227 0.00000000 1.64750000
v -0.05400479 -0.02236951 1.46000000
v 0.01605041 0.01605041 1.61000000
v -0.02504731 -0.06046954 1.42250000
v 0.00000000 0.03282372 1.57250000
v -0.02980480 0.02980480 1.53500000
v -0.05069037 0.00000000 1.49750000
v 0.01086692 0.00450123 1.64750000
v -0.04133347 -0.04133347 1.46000000
v 0.00868642 0.02097087 1.61000000
v -0.01256109 0.03032516 1.57250000
v -0.03894184 0.01613024 1.53500000
v -0.04683179 -0.01939836 1.49750000
v 0.00831718 0.00831718 1.64750000
v -0.02236951 -0.05400479 1.46000000
v 0.00000000 0.02269871 1.61000000
v -0.02320987 0.02320987 1.57250000
v -0.04215035 0.00000000 1.53500000
v -0.03584350 -0.03584350 1.49750000
v 0.00450123 0.01086692 1.64750000
v -0.00868642 0.02097087 1.61000000
v -0.03032516 0.01256109 1.57250000
v -0.03894184 -0.01613024 1.53500000
v -0.01939836 -0.04683179 1.49750000
v 0.00000000 0.01176227 1.64750000
v -0.01605041 0.01605041 1.61000000
v -0.03282372 0.00000000 1.57250000
v -0.02980480 -0.02980480 1.53500000
v -0.00450123 0.01086692 1.64750000
v -0.02097087 0.00868642 1.61000000
v -0.03032516 -0.01256109 1.57250000
v -0.01613024 -0.03894184 1.53500000
v -0.00831718 0.00831718 1.64750000
v -0.02269871 0.00000000 1.61000000
v -0.02320987 -0.02320987 1.57250000
v -0.01086692 0.00450123 1.64750000
v -0.02097087 -0.00868642 1.61000000
v -0.01256109 -0.03032516 1.57250000
v -0.01176227 0.00000000 1.64750000
v -0.01605041 -0.01605041 1.61000000
v -0.01086692 -0.00450123 1.64750000
v -0.00868642 -0.02097087 1.61000000
v -0.00831718 -0.00831718 1.64750000
v -0.00450123 -0.01086692 1.64750000
f 94 1 2
f 94 2 3
f 94 3 4
f 94 4 5
f 95 5 6
f 95 6 7
f 95 7 8
f 95 94 5
f 96 1 94
f 97 8 9
f 97 9 10
f 97 10 11
f 97 95 8
f 98 94 95
f 98 96 94
f 99 11 12
f 99 12 13
f 99 13 14
f 99 97 11
f 100 1 96
f 100 47 1
f 101 95 97
f 101 98 95
f 101 97 99
f 102 14 15
f 102 15 16
f 102 16 17
f 102 99 14
f 103 98 101
f 103 96 98
f 103 100 96
f 104 101 99
f 105 102 17
f 105 17 18
f 105 18 19
f 106 47 100
f 107 103 101
f 108 99 102
f 108 104 99
f 109 19 20
f 109 20 21
f 109 21 22
f 109 105 19
f 110 106 100
f 110 100 103
f 111 104 108
f 111 107 101
f 111 101 104
f 112 105 109
f 112 108 102
f 112 102 105
f 113 47 106
f 113 106 110
f 114 22 23
f 114 23 24
f 114 24 25
f 114 109 22
f 115 110 103
f 115 103 107
f 116 111 108
f 117 112 109
f 118 113 110
f 118 110 115
f 119 25 26
f 119 26 27
f 119 27 28
f 119 114 25
f 120 107 111
f 120 115 107
f 121 112 117
f 121 116 108
f 121 108 112
f 122 47 113
f 123 117 109
f 123 109 114
f 124 118 115
f 125 119 28
f 125 28 29
f 125 29 30
f 125 30 31
f 126 111 116
f 126 120 111
f 127 121 117
f 128 118 124
f 128 122 113
f 128 113 118
f 129 114 119
f 129 123 114
f 130 124 115
f 130 115 120
f 130 120 126
f 131 125 31
f 131 31 32
f 131 32 33
f 131 33 34
f 132 121 127
f 132 116 121
f 132 126 116
f 133 47 122
f 134 127 117
f 134 117 123
f 135 128 124
f 136 119 125
f 136 129 119
f 137 130 126
f 138 34 35
f 138 35 36
f 138 131 34
f 139 132 127
f 139 127 134
f 140 133 122
f 140 122 128
f 141 134 123
f 141 129 136
f 141 123 129
f 142 124 130
f 142 135 124
f 143 136 125
f 143 125 131
f 144 137 126
f 144 126 132
f 145 36 37
f 145 37 38
f 145 38 39
f 145 138 36
f 146 47 133
f 146 48 47
f 147 139 134
f 148 128 135
f 148 140 128
f 149 141 136
f 150 130 137
f 150 142 130
f 151 131 138
f 151 143 131
f 152 132 139
f 152 139 147
f 152 144 132
f 153 39 40
f 153 40 41
f 153 41 42
f 153 145 39
f 154 133 140
f 154 146 133
f 154 140 148
f 155 134 141
f 155 147 134
f 156 148 135
f 156 135 142
f 157 149 136
f 157 136 143
f 158 137 144
f 158 150 137
f 159 151 138
f 159 138 145
f 160 48 146
f 161 152 147
f 162 153 42
f 162 42 43
f 162 43 44
f 162 44 45
f 162 45 46
f 162 46 1
f 163 154 148
f 164 141 149
f 164 155 141
f 165 142 150
f 165 156 142
f 166 151 159
f 166 143 151
f 166 157 143
f 167 158 144
f 167 144 152
f 167 152 161
f 168 159 145
f 168 145 153
f 169 146 154
f 169 160 146
f 170 147 155
f 170 161 147
f 170 155 164
f 171 148 156
f 171 163 148
f 172 157 166
f 172 164 149
f 172 149 157
f 173 150 158
f 173 165 150
f 174 166 159
f 175 48 160
f 176 167 161
f 177 168 153
f 177 153 162
f 177 162 1
f 178 163 171
f 178 169 154
f 178 154 163
f 179 164 172
f 179 170 164
f 180 156 165
f 180 171 156
f 180 165 173
f 181 172 166
f 182 173 158
f 182 158 167
f 183 174 159
f 183 159 168
f 184 175 160
f 184 160 169
f 185 176 161
f 185 170 179
f 185 161 170
f 186 178 171
f 187 179 172
f 188 180 173
f 189 181 166
f 189 166 174
f 190 182 167
f 190 176 185
f 190 167 176
f 191 48 175
f 192 168 177
f 192 183 168
f 192 177 1
f 192 1 47
f 193 169 178
f 193 184 169
f 194 185 179
f 195 171 180
f 195 186 171
f 196 172 181
f 196 187 172
f 197 173 182
f 197 188 173
f 198 174 183
f 198 189 174
f 199 190 185
f 200 175 184
f 200 184 193
f 200 191 175
f 201 178 186
f 201 193 178
f 202 179 187
f 202 194 179
f 203 195 180
f 203 180 188
f 203 188 197
f 204 189 198
f 204 181 189
f 204 196 181
f 205 190 199
f 205 182 190
f 205 197 182
f 206 183 192
f 206 198 183
f 206 192 47
f 207 48 191
f 208 199 185
f 208 185 194
f 209 200 193
f 210 186 195
f 210 201 186
f 211 202 187
f 211 196 204
f 211 187 196
f 212 197 205
f 212 203 197
f 213 198 206
f 213 204 198
f 214 205 199
f 215 207 191
f 215 191 200
f 216 202 211
f 216 208 194
f 216 194 202
f 217 193 201
f 217 209 193
f 218 210 195
f 218 195 203
f 219 211 204
f 220 212 205
f 221 206 47
f 221 213 206
f 222 207 215
f 222 48 207
f 222 49 48
f 223 199 208
f 223 214 199
f 223 208 216
f 224 215 200
f 224 200 209
f 225 216 211
f 225 211 219
f 226 217 201
f 226 210 218
f 226 201 210
f 227 203 212
f 227 218 203
f 228 204 213
f 228 219 204
f 229 214 223
f 229 220 205
f 229 205 214
f 230 222 215
f 230 215 224
f 231 223 216
f 232 209 217
f 232 224 209
f 233 225 219
f 233 219 228
f 234 226 218
f 234 218 227
f 235 227 212
f 235 212 220
f 236 228 213
f 236 221 47
f 236 213 221
f 237 49 222
f 238 229 223
f 239 230 224
f 239 224 232
f 240 225 233
f 240 216 225
f 240 231 216
f 241 217 226
f 241 232 217
f 242 233 228
f 243 234 227
f 243 227 235
f 244 235 220
f 244 220 229
f 245 237 222
f 245 222 230
f 246 231 240
f 246 238 223
f 246 223 231
f 247 232 241
f 247 239 232
f 248 240 233
f 249 241 226
f 249 226 234
f 250 228 236
f 250 242 228
f 250 236 47
f 251 243 235
f 252 49 237
f 252 50 49
f 252 51 50
f 252 52 51
f 252 53 52
f 253 244 229
f 253 229 238
f 254 245 230
f 254 230 239
f 255 246 240
f 256 247 241
f 257 248 233
f 257 233 242
f 258 234 243
f 258 249 234
f 259 251 235
f 259 235 244
f 260 245 254
f 260 53 252
f 260 252 237
f 260 54 53
f 260 55 54
f 260 56 55
f 260 237 245
f 261 238 246
f 261 253 238
f 261 246 255
f 262 254 239
f 262 239 247
f 263 248 257
f 263 240 248
f 263 255 240
f 264 241 249
f 264 256 241
f 265 250 47
f 265 47 48
f 265 242 250
f 265 257 242
f 266 243 251
f 266 258 243
f 267 244 253
f 267 259 244
f 267 253 261
f 268 260 254
f 268 57 56
f 268 58 57
f 268 59 58
f 268 56 260
f 269 261 255
f 269 255 263
f 270 247 256
f 270 262 247
f 271 263 257
f 272 264 249
f 272 249 258
f 273 251 259
f 273 266 251
f 274 261 269
f 274 267 261
f 275 262 270
f 275 60 59
f 275 61 60
f 275 62 61
f 275 268 254
f 275 254 262
f 275 59 268
f 276 269 263
f 277 270 256
f 277 256 264
f 278 271 257
f 278 257 265
f 278 265 48
f 279 258 266
f 279 266 273
f 279 272 258
f 280 259 267
f 280 273 259
f 281 269 276
f 281 274 269
f 282 62 275
f 282 63 62
f 282 64 63
f 282 270 277
f 282 275 270
f 283 263 271
f 283 276 263
f 284 277 264
f 284 264 272
f 285 279 273
f 286 280 267
f 286 267 274
f 287 281 276
f 288 282 277
f 288 65 64
f 288 66 65
f 288 67 66
f 288 64 282
f 289 283 271
f 289 278 48
f 289 271 278
f 290 272 279
f 290 284 272
f 291 285 273
f 291 273 280
f 291 280 286
f 292 274 281
f 292 286 274
f 293 276 283
f 293 287 276
f 294 284 290
f 294 288 277
f 294 68 67
f 294 69 68
f 294 70 69
f 294 277 284
f 294 67 288
f 295 279 285
f 295 290 279
f 296 291 286
f 297 292 281
f 297 281 287
f 298 283 289
f 298 293 283
f 298 289 48
f 299 294 290
f 299 70 294
f 299 71 70
f 299 72 71
f 299 73 72
f 300 285 291
f 300 295 285
f 301 296 286
f 301 286 292
f 301 292 297
f 302 287 293
f 302 297 287
f 303 299 290
f 303 74 73
f 303 75 74
f 303 295 300
f 303 73 299
f 303 290 295
f 304 300 291
f 304 291 296
f 304 296 301
f 305 301 297
f 306 298 48
f 306 293 298
f 306 302 293
f 307 75 303
f 307 76 75
f 307 77 76
f 307 303 300
f 307 78 77
f 308 304 301
f 309 297 302
f 309 305 297
f 309 302 306
f 310 307 300
f 310 79 78
f 310 80 79
f 310 81 80
f 310 300 304
f 310 78 307
f 311 301 305
f 311 305 309
f 311 308 301
f 312 309 306
f 312 306 48
f 312 48 49
f 313 308 311
f 313 81 310
f 313 310 304
f 313 82 81
f 313 83 82
f 313 84 83
f 313 304 308
f 314 311 309
f 315 84 313
f 315 313 311
f 315 85 84
f 315 86 85
f 315 87 86
f 316 309 312
f 316 314 309
f 316 312 49
f 317 311 314
f 317 87 315
f 317 314 316
f 317 315 311
f 317 88 87
f 317 89 88
f 318 316 49
f 318 89 317
f 318 317 316
f 318 90 89
f 318 91 90
f 318 92 91
f 318 93 92
f 318 49 93
f 44 43 42
f 45 42 41
f 45 44 42
f 37 39 38
f 36 40 39
f 36 39 37
f 35 41 40
f 35 40 36
f 2 46 45
f 2 1 46
f 2 45 41
f 5 4 3
f 31 33 32
f 31 34 33
f 6 3 2
f 6 2 41
f 6 5 3
f 30 35 34
f 30 34 31
f 7 6 41
f 29 35 30
f 10 9 8
f 26 28 27
f 11 8 7
f 11 10 8
f 25 28 26
f 25 29 28
f 12 11 7
f 12 41 35
f 12 7 41
f 23 25 24
f 22 25 23
f 16 15 14
f 17 16 14
f 17 14 13
f 19 21 20
f 19 22 21
f 18 13 12
f 18 29 25
f 18 12 35
f 18 25 22
f 18 22 19
f 18 17 13
f 18 35 29
f 87 88 89
f 90 87 89
f 86 87 90
f 91 86 90
f 85 86 91
f 84 91 92
f 84 85 91
f 50 92 93
f 50 93 49
f 51 92 50
f 51 84 92
f 79 80 81
f 78 81 82
f 78 79 81
f 55 53 54
f 77 82 83
f 77 78 82
f 56 52 53
f 56 53 55
f 76 77 83
f 57 52 56
f 75 83 84
f 75 76 83
f 58 52 57
f 58 51 52
f 58 84 51
f 74 75 84
f 59 84 58
f 70 71 72
f 70 72 73
f 69 70 73
f 69 73 74
f 64 61 62
f 64 62 63
f 68 84 59
f 68 74 84
f 68 69 74
f 65 60 61
f 65 61 64
f 67 59 60
f 67 68 59
f 66 60 65
f 66 67 60

