# https://github.com/mikedh/trimesh
v -0.03446158 -0.03729959 1.28121200
v 0.03446158 -0.03729959 1.28121200
v 0.03446158 -0.03811045 1.28521200
v -0.03446158 -0.03811045 1.28521200
v 0.04986793 -0.02189324 1.28121200
v 0.05067879 -0.02189324 1.28521200
v 0.04986793 0.02189324 1.28121200
v 0.05067879 0.02189324 1.28521200
v 0.03446158 0.03729959 1.28121200
v 0.03446158 0.03811045 1.28521200
v -0.03446158 0.03729959 1.28121200
v -0.03446158 0.03811045 1.28521200
v -0.04986793 0.02189324 1.28121200
v -0.05067879 0.02189324 1.28521200
v -0.04986793 -0.02189324 1.28121200
v -0.05067879 -0.02189324 1.28521200
f 3 1 2
f 3 4 1
f 6 2 5
f 6 3 2
f 8 5 7
f 8 6 5
f 9 8 7
f 10 8 9
f 12 9 11
f 12 10 9
f 14 11 13
f 14 12 11
f 16 13 15
f 16 14 13
f 1 16 15
f 4 16 1
f 13 1 15
f 11 1 13
f 9 2 1
f 9 5 2
f 9 7 5
f 9 1 11
f 12 4 3
f 12 14 16
f 12 16 4
f 10 3 6
f 10 6 8
f 10 12 3

