# https://github.com/mikedh/trimesh
v -0.09162725 -0.02027152 -0.60994570
v -0.09162725 -0.02027152 -0.72500000
v -0.09162725 -0.01732582 -0.60700000
v -0.09162725 0.01732582 -0.60700000
v -0.09162725 0.02027152 -0.60994570
v -0.09162725 0.02027152 -0.72500000
v -0.09405983 -0.02027152 -0.72500000
v -0.10083255 -0.02027152 -0.60291310
v -0.10514159 -0.02027152 -0.60100000
v -0.12081823 -0.02027152 -0.60100000
v -0.11919651 -0.02027152 -0.61400000
v -0.10784446 -0.02027152 -0.64400000
v -0.09649241 -0.02027152 -0.68400000
v -0.09405983 0.02027152 -0.72500000
v -0.10083255 0.02027152 -0.60291310
v -0.10514159 0.02027152 -0.60100000
v -0.12081823 0.02027152 -0.60100000
v -0.11919651 0.02027152 -0.61400000
v -0.10784446 0.02027152 -0.64400000
v -0.09649241 0.02027152 -0.68400000
v -0.09243811 -0.01054119 -0.72800000
v -0.09243811 -0.00891947 -0.72800000
v -0.12325081 -0.01054119 -0.72800000
v -0.12325081 -0.00891947 -0.72800000
v -0.09243811 -0.01054119 -0.60800000
v -0.09243811 -0.00891947 -0.60800000
v -0.12325081 -0.01054119 -0.60800000
v -0.12325081 -0.00891947 -0.60800000
v -0.09243811 0.00891947 -0.72800000
v -0.09243811 0.01054119 -0.72800000
v -0.12325081 0.00891947 -0.72800000
v -0.12325081 0.01054119 -0.72800000
v -0.09243811 0.00891947 -0.60800000
v -0.09243811 0.01054119 -0.60800000
v -0.12325081 0.00891947 -0.60800000
v -0.12325081 0.01054119 -0.60800000
v 0.09162725 -0.02027152 -0.60994570
v 0.09162725 -0.02027152 -0.72500000
v 0.09162725 -0.01732582 -0.60700000
v 0.09162725 0.01732582 -0.60700000
v 0.09162725 0.02027152 -0.60994570
v 0.09162725 0.02027152 -0.72500000
v 0.09405983 -0.02027152 -0.72500000
v 0.10083255 -0.02027152 -0.60291310
v 0.10514159 -0.02027152 -0.60100000
v 0.12081823 -0.02027152 -0.60100000
v 0.11919651 -0.02027152 -0.61400000
v 0.10784446 -0.02027152 -0.64400000
v 0.09649241 -0.02027152 -0.68400000
v 0.09405983 0.02027152 -0.72500000
v 0.10083255 0.02027152 -0.60291310
v 0.10514159 0.02027152 -0.60100000
v 0.12081823 0.02027152 -0.60100000
v 0.11919651 0.02027152 -0.61400000
v 0.10784446 0.02027152 -0.64400000
v 0.09649241 0.02027152 -0.68400000
v 0.09243811 -0.01054119 -0.72800000
v 0.09243811 -0.00891947 -0.72800000
v 0.12325081 -0.01054119 -0.72800000
v 0.12325081 -0.00891947 -0.72800000
v 0.09243811 -0.01054119 -0.60800000
v 0.09243811 -0.00891947 -0.60800000
v 0.12325081 -0.01054119 -0.60800000
v 0.12325081 -0.00891947 -0.60800000
v 0.09243811 0.00891947 -0.72800000
v 0.09243811 0.01054119 -0.72800000
v 0.12325081 0.00891947 -0.72800000
v 0.12325081 0.01054119 -0.72800000
v 0.09243811 0.00891947 -0.60800000
v 0.09243811 0.01054119 -0.60800000
v 0.12325081 0.00891947 -0.60800000
v 0.12325081 0.01054119 -0.60800000
f 4 3 1
f 5 1 2
f 5 2 6
f 5 4 1
f 13 7 2
f 1 12 13
f 1 13 2
f 11 1 8
f 11 8 9
f 11 12 1
f 10 11 9
f 2 7 14
f 2 14 6
f 20 6 14
f 5 20 19
f 5 6 20
f 18 15 5
f 18 16 15
f 18 5 19
f 17 16 18
f 15 4 5
f 15 8 3
f 15 3 4
f 15 9 8
f 16 9 15
f 8 1 3
f 7 13 20
f 7 20 14
f 13 12 19
f 13 19 20
f 12 11 18
f 12 18 19
f 11 10 17
f 11 17 18
f 10 9 16
f 10 16 17
f 21 23 24
f 22 21 24
f 25 28 27
f 26 28 25
f 26 25 21
f 26 21 22
f 28 23 27
f 28 24 23
f 27 23 21
f 27 21 25
f 28 22 24
f 28 26 22
f 29 31 32
f 30 29 32
f 33 36 35
f 34 36 33
f 34 33 29
f 34 29 30
f 36 31 35
f 36 32 31
f 35 31 29
f 35 29 33
f 36 30 32
f 36 34 30
f 40 37 39
f 41 38 37
f 41 42 38
f 41 37 40
f 49 38 43
f 37 49 48
f 37 38 49
f 47 44 37
f 47 45 44
f 47 37 48
f 46 45 47
f 38 50 43
f 38 42 50
f 56 50 42
f 41 55 56
f 41 56 42
f 54 41 51
f 54 51 52
f 54 55 41
f 53 54 52
f 51 41 40
f 51 39 44
f 51 40 39
f 51 44 45
f 52 51 45
f 44 39 37
f 43 56 49
f 43 50 56
f 49 55 48
f 49 56 55
f 48 54 47
f 48 55 54
f 47 53 46
f 47 54 53
f 46 52 45
f 46 53 52
f 58 59 57
f 58 60 59
f 62 61 63
f 62 63 64
f 62 57 61
f 62 58 57
f 64 63 59
f 64 59 60
f 63 57 59
f 63 61 57
f 64 60 58
f 64 58 62
f 66 67 65
f 66 68 67
f 70 69 71
f 70 71 72
f 70 65 69
f 70 66 65
f 72 71 67
f 72 67 68
f 71 65 67
f 71 69 65
f 72 68 66
f 72 66 70

