# https://github.com/mikedh/trimesh
v -0.01986609 0.11940000 0.37873033
v -0.01986609 0.11940000 0.49726967
v -0.01986609 0.12164344 0.49726967
v -0.01986609 0.12164344 0.37873033
v -0.01013576 0.11940000 0.50700000
v -0.01013576 0.12164344 0.50700000
v 0.01013576 0.11940000 0.50700000
v 0.01013576 0.12164344 0.50700000
v 0.01986609 0.11940000 0.49726967
v 0.01986609 0.12164344 0.49726967
v 0.01986609 0.11940000 0.37873033
v 0.01986609 0.12164344 0.37873033
v 0.01013576 0.11940000 0.36900000
v 0.01013576 0.12164344 0.36900000
v -0.01013576 0.11940000 0.36900000
v -0.01013576 0.12164344 0.36900000
v -0.01886609 0.12264344 0.49626967
v -0.01886609 0.12264344 0.37973033
v -0.00913576 0.12264344 0.50600000
v 0.00913576 0.12264344 0.50600000
v 0.01886609 0.12264344 0.49626967
v 0.01886609 0.12264344 0.37973033
v 0.00913576 0.12264344 0.37000000
v -0.00913576 0.12264344 0.37000000
f 3 1 2
f 3 4 1
f 6 2 5
f 6 3 2
f 8 5 7
f 8 6 5
f 10 7 9
f 10 8 7
f 12 9 11
f 12 10 9
f 14 11 13
f 14 12 11
f 16 13 15
f 16 14 13
f 4 15 1
f 4 16 15
f 17 4 3
f 17 18 4
f 19 3 6
f 19 17 3
f 20 6 8
f 20 19 6
f 21 8 10
f 21 20 8
f 22 10 12
f 22 21 10
f 14 22 12
f 23 22 14
f 24 14 16
f 24 23 14
f 4 24 16
f 18 24 4
f 11 15 13
f 11 1 15
f 7 5 2
f 9 2 1
f 9 1 11
f 9 7 2
f 22 23 24
f 22 24 18
f 21 18 17
f 21 17 19
f 21 19 20
f 21 22 18

