# https://github.com/mikedh/trimesh
v -0.01540635 0.12567602 0.13548688
v -0.01540635 0.12567602 0.17451312
v -0.01540635 0.13764979 0.17451312
v -0.01540635 0.13764979 0.13548688
v -0.01540635 0.12851404 0.17000000
v -0.01540635 0.12851404 0.14000000
v -0.01540635 0.13256834 0.14000000
v -0.01540635 0.13256834 0.17000000
v -0.00891947 0.12567602 0.18100000
v 0.00891947 0.12567602 0.18100000
v 0.01540635 0.12567602 0.17451312
v 0.01540635 0.12567602 0.13548688
v 0.00891947 0.12567602 0.12900000
v -0.00891947 0.12567602 0.12900000
v -0.00891947 0.13764979 0.12900000
v -0.00891947 0.13764979 0.18100000
v -0.01440635 0.13864979 0.17351312
v -0.01440635 0.13864979 0.13648688
v 0.01540635 0.12851404 0.14000000
v 0.01540635 0.12851404 0.17000000
v 0.01540635 0.13256834 0.17000000
v 0.01540635 0.13256834 0.14000000
v 0.00891947 0.13764979 0.18100000
v 0.01540635 0.13764979 0.17451312
v 0.01540635 0.13764979 0.13548688
v 0.00891947 0.13764979 0.12900000
v -0.00791947 0.13864979 0.13000000
v -0.00791947 0.13864979 0.18000000
v 0.00791947 0.13864979 0.18000000
v 0.01440635 0.13864979 0.17351312
v 0.01440635 0.13864979 0.13648688
v 0.00791947 0.13864979 0.13000000
v -0.01540635 0.12567602 -0.34951312
v -0.01540635 0.12567602 -0.31048688
v -0.01540635 0.13764979 -0.31048688
v -0.01540635 0.13764979 -0.34951312
v -0.01540635 0.12851404 -0.31500000
v -0.01540635 0.12851404 -0.34500000
v -0.01540635 0.13256834 -0.34500000
v -0.01540635 0.13256834 -0.31500000
v -0.00891947 0.12567602 -0.30400000
v 0.00891947 0.12567602 -0.30400000
v 0.01540635 0.12567602 -0.31048688
v 0.01540635 0.12567602 -0.34951312
v 0.00891947 0.12567602 -0.35600000
v -0.00891947 0.12567602 -0.35600000
v -0.00891947 0.13764979 -0.35600000
v -0.00891947 0.13764979 -0.30400000
v -0.01440635 0.13864979 -0.31148688
v -0.01440635 0.13864979 -0.34851312
v 0.01540635 0.12851404 -0.34500000
v 0.01540635 0.12851404 -0.31500000
v 0.01540635 0.13256834 -0.31500000
v 0.01540635 0.13256834 -0.34500000
v 0.00891947 0.13764979 -0.30400000
v 0.01540635 0.13764979 -0.31048688
v 0.01540635 0.13764979 -0.34951312
v 0.00891947 0.13764979 -0.35600000
v -0.00791947 0.13864979 -0.35500000
v -0.00791947 0.13864979 -0.30500000
v 0.00791947 0.13864979 -0.30500000
v 0.01440635 0.13864979 -0.31148688
v 0.01440635 0.13864979 -0.34851312
v 0.00791947 0.13864979 -0.35500000
f 7 1 6
f 4 1 7
f 2 5 6
f 2 6 1
f 8 5 2
f 3 7 8
f 3 4 7
f 3 8 2
f 13 1 14
f 12 2 1
f 12 1 13
f 11 9 2
f 11 10 9
f 11 2 12
f 15 14 1
f 4 15 1
f 16 2 9
f 16 3 2
f 17 4 3
f 17 18 4
f 19 6 5
f 20 19 5
f 8 20 5
f 8 21 20
f 22 8 7
f 21 8 22
f 7 6 19
f 7 19 22
f 23 9 10
f 23 16 9
f 24 10 11
f 24 23 10
f 21 11 20
f 24 11 21
f 12 19 20
f 12 20 11
f 22 24 21
f 22 19 12
f 25 24 22
f 25 22 12
f 25 12 13
f 26 25 13
f 15 13 14
f 15 26 13
f 18 15 4
f 18 27 15
f 16 17 3
f 28 17 16
f 31 18 17
f 31 32 27
f 31 27 18
f 30 17 28
f 30 28 29
f 30 31 17
f 29 16 23
f 29 28 16
f 30 23 24
f 30 29 23
f 31 24 25
f 31 30 24
f 26 31 25
f 32 31 26
f 27 26 15
f 27 32 26
f 39 33 38
f 36 33 39
f 34 37 38
f 34 38 33
f 40 37 34
f 35 39 40
f 35 36 39
f 35 40 34
f 44 34 33
f 44 46 45
f 44 33 46
f 43 41 34
f 43 42 41
f 43 34 44
f 36 46 33
f 36 47 46
f 48 34 41
f 48 35 34
f 49 36 35
f 49 50 36
f 51 38 37
f 52 51 37
f 40 52 37
f 40 53 52
f 54 40 39
f 53 40 54
f 39 38 51
f 39 51 54
f 55 41 42
f 55 48 41
f 56 42 43
f 56 55 42
f 53 43 52
f 56 43 53
f 44 51 52
f 44 52 43
f 54 56 53
f 54 51 44
f 57 56 54
f 57 54 44
f 58 44 45
f 58 57 44
f 47 45 46
f 47 58 45
f 36 59 47
f 50 59 36
f 48 49 35
f 60 49 48
f 63 50 49
f 63 64 59
f 63 59 50
f 61 49 60
f 62 63 49
f 62 49 61
f 61 48 55
f 61 60 48
f 56 61 55
f 62 61 56
f 63 56 57
f 63 62 56
f 58 63 57
f 64 63 58
f 59 58 47
f 59 64 58

