# https://github.com/mikedh/trimesh
v -0.01376076 -0.00445973 0.01376076
v -0.01291318 -0.00445973 0.01455908
v -0.01201937 -0.00445973 0.01530528
v -0.01108254 -0.00445973 0.01599670
v -0.01010604 -0.00445973 0.01663085
v -0.00909335 -0.00445973 0.01720546
v -0.00804812 -0.00445973 0.01771849
v -0.00697407 -0.00445973 0.01816809
v -0.00587507 -0.00445973 0.01855265
v -0.00475502 -0.00445973 0.01887079
v -0.00361796 -0.00445973 0.01912139
v -0.00246795 -0.00445973 0.01930353
v -0.00130910 -0.00445973 0.01941657
v -0.00014556 -0.00445973 0.01946011
v 0.00101849 -0.00445973 0.01943398
v 0.00217890 -0.00445973 0.01933829
v 0.00333151 -0.00445973 0.01917337
v 0.00447220 -0.00445973 0.01893981
v 0.00559687 -0.00445973 0.01863846
v 0.00670151 -0.00445973 0.01827038
v 0.00778216 -0.00445973 0.01783690
v 0.00883495 -0.00445973 0.01733957
v 0.00985612 -0.00445973 0.01678017
v 0.01084200 -0.00445973 0.01616070
v 0.01178907 -0.00445973 0.01548337
v 0.01269394 -0.00445973 0.01475063
v 0.01355337 -0.00445973 0.01396507
v 0.01436428 -0.00445973 0.01312953
v 0.01512377 -0.00445973 0.01224699
v 0.01582912 -0.00445973 0.01132060
v 0.01647781 -0.00445973 0.01035369
v 0.01706751 -0.00445973 0.00934972
v 0.01759611 -0.00445973 0.00831228
v 0.01806173 -0.00445973 0.00724508
v 0.01846268 -0.00445973 0.00615194
v 0.01879755 -0.00445973 0.00503679
v 0.01906512 -0.00445973 0.00390360
v 0.01926445 -0.00445973 0.00275644
v 0.01939482 -0.00445973 0.00159941
v 0.01945576 -0.00445973 0.00043666
v 0.01944705 -0.00445973 -0.00072766
v 0.01936872 -0.00445973 -0.00188937
v 0.01922106 -0.00445973 -0.00304432
v 0.01900460 -0.00445973 -0.00418837
v 0.01872010 -0.00445973 -0.00531742
v 0.01836859 -0.00445973 -0.00642745
v 0.01795132 -0.00445973 -0.00751446
v 0.01746980 -0.00445973 -0.00857457
v 0.01692573 -0.00445973 -0.00960399
v 0.01632108 -0.00445973 -0.01059903
v 0.01565800 -0.00445973 -0.01155613
v 0.01493887 -0.00445973 -0.01247186
v 0.01416626 -0.00445973 -0.01334294
v 0.01334294 -0.00445973 -0.01416626
v 0.01247186 -0.00445973 -0.01493887
v 0.01155613 -0.00445973 -0.01565800
v 0.01059903 -0.00445973 -0.01632108
v 0.00960399 -0.00445973 -0.01692573
v 0.00857457 -0.00445973 -0.01746980
v 0.00751446 -0.00445973 -0.01795132
v 0.00642745 -0.00445973 -0.01836859
v 0.00531742 -0.00445973 -0.01872010
v 0.00418837 -0.00445973 -0.01900460
v 0.00304432 -0.00445973 -0.01922106
v 0.00188937 -0.00445973 -0.01936872
v 0.00072766 -0.00445973 -0.01944705
v -0.00043666 -0.00445973 -0.01945576
v -0.00159941 -0.00445973 -0.01939482
v -0.00275644 -0.00445973 -0.01926445
v -0.00390360 -0.00445973 -0.01906512
v -0.00503679 -0.00445973 -0.01879755
v -0.00615194 -0.00445973 -0.01846268
v -0.00724508 -0.00445973 -0.01806173
v -0.00831228 -0.00445973 -0.01759611
v -0.00934972 -0.00445973 -0.01706751
v -0.01035369 -0.00445973 -0.01647781
v -0.01132060 -0.00445973 -0.01582912
v -0.01224699 -0.00445973 -0.01512377
v -0.01312953 -0.00445973 -0.01436428
v -0.01396507 -0.00445973 -0.01355337
v -0.01475063 -0.00445973 -0.01269394
v -0.01548337 -0.00445973 -0.01178907
v -0.01616070 -0.00445973 -0.01084200
v -0.01678017 -0.00445973 -0.00985612
v -0.01733957 -0.00445973 -0.00883495
v -0.01783690 -0.00445973 -0.00778216
v -0.01827038 -0.00445973 -0.00670151
v -0.01863846 -0.00445973 -0.00559687
v -0.01893981 -0.00445973 -0.00447220
v -0.01917337 -0.00445973 -0.00333151
v -0.01933829 -0.00445973 -0.00217890
v -0.01943398 -0.00445973 -0.00101849
v -0.01946011 -0.00445973 0.00014556
v -0.01941657 -0.00445973 0.00130910
v -0.01930353 -0.00445973 0.00246795
v -0.01912139 -0.00445973 0.00361796
v -0.01887079 -0.00445973 0.00475502
v -0.01855265 -0.00445973 0.00587507
v -0.01816809 -0.00445973 0.00697407
v -0.01771849 -0.00445973 0.00804812
v -0.01720546 -0.00445973 0.00909335
v -0.01663085 -0.00445973 0.01010604
v -0.01599670 -0.00445973 0.01108254
v -0.01530528 -0.00445973 0.01201937
v -0.01455908 -0.00445973 0.01291318
v -0.01376076 -0.00851404 0.01376076
v -0.01291318 -0.00851404 0.01455908
v -0.01201937 -0.00851404 0.01530528
v -0.01108254 -0.00851404 0.01599670
v -0.01010604 -0.00851404 0.01663085
v -0.00909335 -0.00851404 0.01720546
v -0.00804812 -0.00851404 0.01771849
v -0.00697407 -0.00851404 0.01816809
v -0.00587507 -0.00851404 0.01855265
v -0.00475502 -0.00851404 0.01887079
v -0.00361796 -0.00851404 0.01912139
v -0.00246795 -0.00851404 0.01930353
v -0.00130910 -0.00851404 0.01941657
v -0.00014556 -0.00851404 0.01946011
v 0.00101849 -0.00851404 0.01943398
v 0.00217890 -0.00851404 0.01933829
v 0.00333151 -0.00851404 0.01917337
v 0.00447220 -0.00851404 0.01893981
v 0.00559687 -0.00851404 0.01863846
v 0.00670151 -0.00851404 0.01827038
v 0.00778216 -0.00851404 0.01783690
v 0.00883495 -0.00851404 0.01733957
v 0.00985612 -0.00851404 0.01678017
v 0.01084200 -0.00851404 0.01616070
v 0.01178907 -0.00851404 0.01548337
v 0.01269394 -0.00851404 0.01475063
v 0.01355337 -0.00851404 0.01396507
v 0.01436428 -0.00851404 0.01312953
v 0.01512377 -0.00851404 0.01224699
v 0.01582912 -0.00851404 0.01132060
v 0.01647781 -0.00851404 0.01035369
v 0.01706751 -0.00851404 0.00934972
v 0.01759611 -0.00851404 0.00831228
v 0.01806173 -0.00851404 0.00724508
v 0.01846268 -0.00851404 0.00615194
v 0.01879755 -0.00851404 0.00503679
v 0.01906512 -0.00851404 0.00390360
v 0.01926445 -0.00851404 0.00275644
v 0.01939482 -0.00851404 0.00159941
v 0.01945576 -0.00851404 0.00043666
v 0.01944705 -0.00851404 -0.00072766
v 0.01936872 -0.00851404 -0.00188937
v 0.01922106 -0.00851404 -0.00304432
v 0.01900460 -0.00851404 -0.00418837
v 0.01872010 -0.00851404 -0.00531742
v 0.01836859 -0.00851404 -0.00642745
v 0.01795132 -0.00851404 -0.00751446
v 0.01746980 -0.00851404 -0.00857457
v 0.01692573 -0.00851404 -0.00960399
v 0.01632108 -0.00851404 -0.01059903
v 0.01565800 -0.00851404 -0.01155613
v 0.01493887 -0.00851404 -0.01247186
v 0.01416626 -0.00851404 -0.01334294
v 0.01334294 -0.00851404 -0.01416626
v 0.01247186 -0.00851404 -0.01493887
v 0.01155613 -0.00851404 -0.01565800
v 0.01059903 -0.00851404 -0.01632108
v 0.00960399 -0.00851404 -0.01692573
v 0.00857457 -0.00851404 -0.01746980
v 0.00751446 -0.00851404 -0.01795132
v 0.00642745 -0.00851404 -0.01836859
v 0.00531742 -0.00851404 -0.01872010
v 0.00418837 -0.00851404 -0.01900460
v 0.00304432 -0.00851404 -0.01922106
v 0.00188937 -0.00851404 -0.01936872
v 0.00072766 -0.00851404 -0.01944705
v -0.00043666 -0.00851404 -0.01945576
v -0.00159941 -0.00851404 -0.01939482
v -0.00275644 -0.00851404 -0.01926445
v -0.00390360 -0.00851404 -0.01906512
v -0.00503679 -0.00851404 -0.01879755
v -0.00615194 -0.00851404 -0.01846268
v -0.00724508 -0.00851404 -0.01806173
v -0.00831228 -0.00851404 -0.01759611
v -0.00934972 -0.00851404 -0.01706751
v -0.01035369 -0.00851404 -0.01647781
v -0.01132060 -0.00851404 -0.01582912
v -0.01224699 -0.00851404 -0.01512377
v -0.01312953 -0.00851404 -0.01436428
v -0.01396507 -0.00851404 -0.01355337
v -0.01475063 -0.00851404 -0.01269394
v -0.01548337 -0.00851404 -0.01178907
v -0.01616070 -0.00851404 -0.01084200
v -0.01678017 -0.00851404 -0.00985612
v -0.01733957 -0.00851404 -0.00883495
v -0.01783690 -0.00851404 -0.00778216
v -0.01827038 -0.00851404 -0.00670151
v -0.01863846 -0.00851404 -0.00559687
v -0.01893981 -0.00851404 -0.00447220
v -0.01917337 -0.00851404 -0.00333151
v -0.01933829 -0.00851404 -0.00217890
v -0.01943398 -0.00851404 -0.00101849
v -0.01946011 -0.00851404 0.00014556
v -0.01941657 -0.00851404 0.00130910
v -0.01930353 -0.00851404 0.00246795
v -0.01912139 -0.00851404 0.00361796
v -0.01887079 -0.00851404 0.00475502
v -0.01855265 -0.00851404 0.00587507
v -0.01816809 -0.00851404 0.00697407
v -0.01771849 -0.00851404 0.00804812
v -0.01720546 -0.00851404 0.00909335
v -0.01663085 -0.00851404 0.01010604
v -0.01599670 -0.00851404 0.01108254
v -0.01530528 -0.00851404 0.01201937
v -0.01455908 -0.00851404 0.01291318
f 2 1 106
f 2 106 107
f 3 107 108
f 3 2 107
f 4 108 109
f 4 3 108
f 5 109 110
f 5 4 109
f 6 110 111
f 6 5 110
f 7 111 112
f 7 6 111
f 8 112 113
f 8 7 112
f 9 113 114
f 9 8 113
f 10 114 115
f 10 9 114
f 11 115 116
f 11 10 115
f 12 116 117
f 12 117 118
f 12 11 116
f 13 12 118
f 13 118 119
f 14 13 119
f 15 119 120
f 15 120 121
f 15 14 119
f 16 15 121
f 17 121 122
f 17 16 121
f 18 122 123
f 18 123 124
f 18 17 122
f 19 18 124
f 20 124 125
f 20 125 126
f 20 19 124
f 21 20 126
f 22 126 127
f 22 127 128
f 22 21 126
f 23 22 128
f 24 23 128
f 24 128 129
f 24 129 130
f 25 24 130
f 26 25 130
f 26 130 131
f 26 131 132
f 27 26 132
f 28 27 132
f 28 132 133
f 28 133 134
f 29 28 134
f 30 29 134
f 30 134 135
f 30 135 136
f 31 30 136
f 32 136 137
f 32 31 136
f 33 137 138
f 33 138 139
f 33 32 137
f 34 33 139
f 35 139 140
f 35 140 141
f 35 34 139
f 36 35 141
f 37 141 142
f 37 142 143
f 37 36 141
f 38 37 143
f 39 143 144
f 39 38 143
f 40 144 145
f 40 39 144
f 41 145 146
f 41 40 145
f 42 146 147
f 42 41 146
f 43 147 148
f 43 148 149
f 43 42 147
f 44 149 150
f 44 43 149
f 45 44 150
f 46 150 151
f 46 151 152
f 46 45 150
f 47 46 152
f 48 152 153
f 48 153 154
f 48 47 152
f 49 48 154
f 49 154 155
f 50 49 155
f 51 50 155
f 51 155 156
f 52 51 156
f 52 156 157
f 53 52 157
f 53 157 158
f 54 53 158
f 54 158 159
f 55 54 159
f 55 159 160
f 56 55 160
f 56 160 161
f 57 56 161
f 57 161 162
f 57 162 163
f 58 57 163
f 59 58 163
f 59 163 164
f 60 59 164
f 60 164 165
f 60 165 166
f 61 60 166
f 62 61 166
f 62 166 167
f 63 62 167
f 63 167 168
f 64 63 168
f 64 168 169
f 65 64 169
f 65 169 170
f 65 170 171
f 66 171 172
f 66 65 171
f 67 66 172
f 68 172 173
f 68 67 172
f 69 173 174
f 69 174 175
f 69 68 173
f 70 69 175
f 71 175 176
f 71 176 177
f 71 70 175
f 72 71 177
f 73 72 177
f 73 177 178
f 73 178 179
f 74 73 179
f 75 74 179
f 75 179 180
f 76 75 180
f 76 180 181
f 77 76 181
f 77 181 182
f 77 182 183
f 78 77 183
f 79 78 183
f 79 183 184
f 79 184 185
f 80 79 185
f 80 185 186
f 81 80 186
f 81 186 187
f 82 81 187
f 82 187 188
f 83 82 188
f 84 83 188
f 84 188 189
f 85 84 189
f 85 189 190
f 85 190 191
f 86 85 191
f 86 191 192
f 87 86 192
f 87 192 193
f 88 87 193
f 88 193 194
f 89 88 194
f 89 194 195
f 90 89 195
f 91 90 195
f 91 195 196
f 91 196 197
f 92 91 197
f 93 92 197
f 93 197 198
f 93 198 199
f 94 93 199
f 94 199 200
f 95 94 200
f 95 200 201
f 96 95 201
f 97 201 202
f 97 202 203
f 97 96 201
f 98 97 203
f 99 203 204
f 99 98 203
f 99 204 205
f 100 205 206
f 100 99 205
f 101 100 206
f 102 206 207
f 102 207 208
f 102 101 206
f 103 102 208
f 104 208 209
f 104 209 210
f 104 103 208
f 105 104 210
f 1 210 106
f 1 105 210
f 65 66 67
f 63 64 65
f 62 65 67
f 62 63 65
f 62 67 68
f 62 68 69
f 74 71 72
f 74 72 73
f 58 59 60
f 58 60 61
f 76 74 75
f 56 62 69
f 56 58 61
f 56 57 58
f 56 61 62
f 56 69 70
f 56 70 71
f 79 71 74
f 79 74 76
f 79 76 77
f 79 77 78
f 53 54 55
f 81 79 80
f 83 81 82
f 50 51 52
f 84 81 83
f 49 56 71
f 49 52 53
f 49 55 56
f 49 53 55
f 49 50 52
f 85 81 84
f 86 81 85
f 45 46 47
f 44 47 48
f 44 45 47
f 90 71 79
f 90 49 71
f 90 79 81
f 90 81 86
f 90 86 87
f 90 87 88
f 90 88 89
f 43 48 49
f 43 44 48
f 40 41 42
f 95 90 91
f 95 91 92
f 95 92 93
f 95 93 94
f 37 38 39
f 37 39 40
f 98 90 95
f 98 95 96
f 98 96 97
f 35 40 42
f 35 37 40
f 35 36 37
f 35 42 43
f 35 43 49
f 100 98 99
f 31 32 33
f 31 33 34
f 30 34 35
f 30 31 34
f 104 102 103
f 105 101 102
f 105 102 104
f 105 100 101
f 28 29 30
f 1 98 100
f 1 100 105
f 26 27 28
f 3 1 2
f 4 90 98
f 4 98 1
f 4 1 3
f 23 24 25
f 23 25 26
f 23 28 30
f 23 26 28
f 7 4 5
f 7 5 6
f 8 4 7
f 9 4 8
f 10 30 35
f 10 35 49
f 10 90 4
f 10 49 90
f 10 23 30
f 10 4 9
f 18 19 20
f 18 20 21
f 18 21 22
f 18 22 23
f 16 17 18
f 16 18 23
f 13 11 12
f 14 16 23
f 14 10 11
f 14 11 13
f 14 15 16
f 14 23 10
f 170 172 171
f 168 170 169
f 167 172 170
f 167 170 168
f 167 173 172
f 167 174 173
f 179 177 176
f 179 178 177
f 163 165 164
f 163 166 165
f 181 180 179
f 161 174 167
f 161 166 163
f 161 163 162
f 161 167 166
f 161 175 174
f 161 176 175
f 184 179 176
f 184 181 179
f 184 182 181
f 184 183 182
f 158 160 159
f 186 185 184
f 188 187 186
f 155 157 156
f 189 188 186
f 154 176 161
f 154 158 157
f 154 161 160
f 154 160 158
f 154 157 155
f 190 189 186
f 191 190 186
f 150 152 151
f 149 153 152
f 149 152 150
f 195 184 176
f 195 176 154
f 195 186 184
f 195 191 186
f 195 192 191
f 195 193 192
f 195 194 193
f 148 154 153
f 148 153 149
f 145 147 146
f 200 196 195
f 200 197 196
f 200 198 197
f 200 199 198
f 142 144 143
f 142 145 144
f 203 200 195
f 203 201 200
f 203 202 201
f 140 147 145
f 140 145 142
f 140 142 141
f 140 148 147
f 140 154 148
f 205 204 203
f 136 138 137
f 136 139 138
f 135 140 139
f 135 139 136
f 209 208 207
f 210 207 206
f 210 209 207
f 210 206 205
f 133 135 134
f 106 205 203
f 106 210 205
f 131 133 132
f 108 107 106
f 109 203 195
f 109 106 203
f 109 108 106
f 128 130 129
f 128 131 130
f 128 135 133
f 128 133 131
f 112 110 109
f 112 111 110
f 113 112 109
f 114 113 109
f 115 140 135
f 115 154 140
f 115 109 195
f 115 195 154
f 115 135 128
f 115 114 109
f 123 125 124
f 123 126 125
f 123 127 126
f 123 128 127
f 121 123 122
f 121 128 123
f 118 117 116
f 119 128 121
f 119 116 115
f 119 118 116
f 119 121 120
f 119 115 128

