# https://github.com/mikedh/trimesh
v 0.06892315 0.00000000 -1.29721200
v 0.06879979 0.00412189 -1.29721200
v 0.06843014 0.00822903 -1.29721200
v 0.06781553 0.01230670 -1.29721200
v 0.06695816 0.01634033 -1.29721200
v 0.06586109 0.02031546 -1.29721200
v 0.06452826 0.02421786 -1.29721200
v 0.06296443 0.02803357 -1.29721200
v 0.06117521 0.03174893 -1.29721200
v 0.05916700 0.03535064 -1.29721200
v 0.05694698 0.03882579 -1.29721200
v 0.05452311 0.04216197 -1.29721200
v 0.05190406 0.04534721 -1.29721200
v 0.04909921 0.04837012 -1.29721200
v 0.04611859 0.05121988 -1.29721200
v 0.04297288 0.05388629 -1.29721200
v 0.03967334 0.05635980 -1.29721200
v 0.03623178 0.05863155 -1.29721200
v 0.03266052 0.06069342 -1.29721200
v 0.02897235 0.06253802 -1.29721200
v 0.02518046 0.06415875 -1.29721200
v 0.02129843 0.06554981 -1.29721200
v 0.01734015 0.06670622 -1.29721200
v 0.01331981 0.06762384 -1.29721200
v 0.00925178 0.06829938 -1.29721200
v 0.00515063 0.06873043 -1.29721200
v 0.00103105 0.06891544 -1.29721200
v -0.00309223 0.06885375 -1.29721200
v -0.00720443 0.06854558 -1.29721200
v -0.01129085 0.06799204 -1.29721200
v -0.01533684 0.06719511 -1.29721200
v -0.01932794 0.06615763 -1.29721200
v -0.02324985 0.06488332 -1.29721200
v -0.02708852 0.06337675 -1.29721200
v -0.03083023 0.06164331 -1.29721200
v -0.03446158 0.05968920 -1.29721200
v -0.03796956 0.05752142 -1.29721200
v -0.04134162 0.05514773 -1.29721200
v -0.04456568 0.05257662 -1.29721200
v -0.04763022 0.04981730 -1.29721200
v -0.05052425 0.04687965 -1.29721200
v -0.05323741 0.04377418 -1.29721200
v -0.05576000 0.04051201 -1.29721200
v -0.05808299 0.03710482 -1.29721200
v -0.06019805 0.03356480 -1.29721200
v -0.06209761 0.02990464 -1.29721200
v -0.06377489 0.02613741 -1.29721200
v -0.06522387 0.02227663 -1.29721200
v -0.06643936 0.01833610 -1.29721200
v -0.06741702 0.01432993 -1.29721200
v -0.06815334 0.01027246 -1.29721200
v -0.06864569 0.00617822 -1.29721200
v -0.06889230 0.00206187 -1.29721200
v -0.06889230 -0.00206187 -1.29721200
v -0.06864569 -0.00617822 -1.29721200
v -0.06815334 -0.01027246 -1.29721200
v -0.06741702 -0.01432993 -1.29721200
v -0.06643936 -0.01833610 -1.29721200
v -0.06522387 -0.02227663 -1.29721200
v -0.06377489 -0.02613741 -1.29721200
v -0.06209761 -0.02990464 -1.29721200
v -0.06019805 -0.03356480 -1.29721200
v -0.05808299 -0.03710482 -1.29721200
v -0.05576000 -0.04051201 -1.29721200
v -0.05323741 -0.04377418 -1.29721200
v -0.05052425 -0.04687965 -1.29721200
v -0.04763022 -0.04981730 -1.29721200
v -0.04456568 -0.05257662 -1.29721200
v -0.04134162 -0.05514773 -1.29721200
v -0.03796956 -0.05752142 -1.29721200
v -0.03446158 -0.05968920 -1.29721200
v -0.03083023 -0.06164331 -1.29721200
v -0.02708852 -0.06337675 -1.29721200
v -0.02324985 -0.06488332 -1.29721200
v -0.01932794 -0.06615763 -1.29721200
v -0.01533684 -0.06719511 -1.29721200
v -0.01129085 -0.06799204 -1.29721200
v -0.00720443 -0.06854558 -1.29721200
v -0.00309223 -0.06885375 -1.29721200
v 0.00103105 -0.06891544 -1.29721200
v 0.00515063 -0.06873043 -1.29721200
v 0.00925178 -0.06829938 -1.29721200
v 0.01331981 -0.06762384 -1.29721200
v 0.01734015 -0.06670622 -1.29721200
v 0.02129843 -0.06554981 -1.29721200
v 0.02518046 -0.06415875 -1.29721200
v 0.02897235 -0.06253802 -1.29721200
v 0.03266052 -0.06069342 -1.29721200
v 0.03623178 -0.05863155 -1.29721200
v 0.03967334 -0.05635980 -1.29721200
v 0.04297288 -0.05388629 -1.29721200
v 0.04611859 -0.05121988 -1.29721200
v 0.04909921 -0.04837012 -1.29721200
v 0.05190406 -0.04534721 -1.29721200
v 0.05452311 -0.04216197 -1.29721200
v 0.05694698 -0.03882579 -1.29721200
v 0.05916700 -0.03535064 -1.29721200
v 0.06117521 -0.03174893 -1.29721200
v 0.06296443 -0.02803357 -1.29721200
v 0.06452826 -0.02421786 -1.29721200
v 0.06586109 -0.02031546 -1.29721200
v 0.06695816 -0.01634033 -1.29721200
v 0.06781553 -0.01230670 -1.29721200
v 0.06843014 -0.00822903 -1.29721200
v 0.06879979 -0.00412189 -1.29721200
v 0.06892315 0.00000000 -1.28721200
v 0.06879979 0.00412189 -1.28721200
v 0.06843014 0.00822903 -1.28721200
v 0.06781553 0.01230670 -1.28721200
v 0.06695816 0.01634033 -1.28721200
v 0.06586109 0.02031546 -1.28721200
v 0.06452826 0.02421786 -1.28721200
v 0.06296443 0.02803357 -1.28721200
v 0.06117521 0.03174893 -1.28721200
v 0.05916700 0.03535064 -1.28721200
v 0.05694698 0.03882579 -1.28721200
v 0.05452311 0.04216197 -1.28721200
v 0.05190406 0.04534721 -1.28721200
v 0.04909921 0.04837012 -1.28721200
v 0.04611859 0.05121988 -1.28721200
v 0.04297288 0.05388629 -1.28721200
v 0.03967334 0.05635980 -1.28721200
v 0.03623178 0.05863155 -1.28721200
v 0.03266052 0.06069342 -1.28721200
v 0.02897235 0.06253802 -1.28721200
v 0.02518046 0.06415875 -1.28721200
v 0.02129843 0.06554981 -1.28721200
v 0.01734015 0.06670622 -1.28721200
v 0.01331981 0.06762384 -1.28721200
v 0.00925178 0.06829938 -1.28721200
v 0.00515063 0.06873043 -1.28721200
v 0.00103105 0.06891544 -1.28721200
v -0.00309223 0.06885375 -1.28721200
v -0.00720443 0.06854558 -1.28721200
v -0.01129085 0.06799204 -1.28721200
v -0.01533684 0.06719511 -1.28721200
v -0.01932794 0.06615763 -1.28721200
v -0.02324985 0.06488332 -1.28721200
v -0.02708852 0.06337675 -1.28721200
v -0.03083023 0.06164331 -1.28721200
v -0.03446158 0.05968920 -1.28721200
v -0.03796956 0.05752142 -1.28721200
v -0.04134162 0.05514773 -1.28721200
v -0.04456568 0.05257662 -1.28721200
v -0.04763022 0.04981730 -1.28721200
v -0.05052425 0.04687965 -1.28721200
v -0.05323741 0.04377418 -1.28721200
v -0.05576000 0.04051201 -1.28721200
v -0.05808299 0.03710482 -1.28721200
v -0.06019805 0.03356480 -1.28721200
v -0.06209761 0.02990464 -1.28721200
v -0.06377489 0.02613741 -1.28721200
v -0.06522387 0.02227663 -1.28721200
v -0.06643936 0.01833610 -1.28721200
v -0.06741702 0.01432993 -1.28721200
v -0.06815334 0.01027246 -1.28721200
v -0.06864569 0.00617822 -1.28721200
v -0.06889230 0.00206187 -1.28721200
v -0.06889230 -0.00206187 -1.28721200
v -0.06864569 -0.00617822 -1.28721200
v -0.06815334 -0.01027246 -1.28721200
v -0.06741702 -0.01432993 -1.28721200
v -0.06643936 -0.01833610 -1.28721200
v -0.06522387 -0.02227663 -1.28721200
v -0.06377489 -0.02613741 -1.28721200
v -0.06209761 -0.02990464 -1.28721200
v -0.06019805 -0.03356480 -1.28721200
v -0.05808299 -0.03710482 -1.28721200
v -0.05576000 -0.04051201 -1.28721200
v -0.05323741 -0.04377418 -1.28721200
v -0.05052425 -0.04687965 -1.28721200
v -0.04763022 -0.04981730 -1.28721200
v -0.04456568 -0.05257662 -1.28721200
v -0.04134162 -0.05514773 -1.28721200
v -0.03796956 -0.05752142 -1.28721200
v -0.03446158 -0.05968920 -1.28721200
v -0.03083023 -0.06164331 -1.28721200
v -0.02708852 -0.06337675 -1.28721200
v -0.02324985 -0.06488332 -1.28721200
v -0.01932794 -0.06615763 -1.28721200
v -0.01533684 -0.06719511 -1.28721200
v -0.01129085 -0.06799204 -1.28721200
v -0.00720443 -0.06854558 -1.28721200
v -0.00309223 -0.06885375 -1.28721200
v 0.00103105 -0.06891544 -1.28721200
v 0.00515063 -0.06873043 -1.28721200
v 0.00925178 -0.06829938 -1.28721200
v 0.01331981 -0.06762384 -1.28721200
v 0.01734015 -0.06670622 -1.28721200
v 0.02129843 -0.06554981 -1.28721200
v 0.02518046 -0.06415875 -1.28721200
v 0.02897235 -0.06253802 -1.28721200
v 0.03266052 -0.06069342 -1.28721200
v 0.03623178 -0.05863155 -1.28721200
v 0.03967334 -0.05635980 -1.28721200
v 0.04297288 -0.05388629 -1.28721200
v 0.04611859 -0.05121988 -1.28721200
v 0.04909921 -0.04837012 -1.28721200
v 0.05190406 -0.04534721 -1.28721200
v 0.05452311 -0.04216197 -1.28721200
v 0.05694698 -0.03882579 -1.28721200
v 0.05916700 -0.03535064 -1.28721200
v 0.06117521 -0.03174893 -1.28721200
v 0.06296443 -0.02803357 -1.28721200
v 0.06452826 -0.02421786 -1.28721200
v 0.06586109 -0.02031546 -1.28721200
v 0.06695816 -0.01634033 -1.28721200
v 0.06781553 -0.01230670 -1.28721200
v 0.06843014 -0.00822903 -1.28721200
v 0.06879979 -0.00412189 -1.28721200
v 0.05378709 0.00000000 -1.29721200
v 0.05369082 0.00321669 -1.29721200
v 0.05340234 0.00642187 -1.29721200
v 0.05292271 0.00960406 -1.29721200
v 0.05225362 0.01275186 -1.29721200
v 0.05139748 0.01585402 -1.29721200
v 0.05035735 0.01889943 -1.29721200
v 0.04913695 0.02187718 -1.29721200
v 0.04774065 0.02477662 -1.29721200
v 0.04617346 0.02758736 -1.29721200
v 0.04444098 0.03029935 -1.29721200
v 0.04254941 0.03290287 -1.29721200
v 0.04050552 0.03538861 -1.29721200
v 0.03831664 0.03774767 -1.29721200
v 0.03599059 0.03997160 -1.29721200
v 0.03353570 0.04205244 -1.29721200
v 0.03096077 0.04398274 -1.29721200
v 0.02827500 0.04575560 -1.29721200
v 0.02548802 0.04736467 -1.29721200
v 0.02260979 0.04880418 -1.29721200
v 0.01965063 0.05006899 -1.29721200
v 0.01662112 0.05115456 -1.29721200
v 0.01353212 0.05205701 -1.29721200
v 0.01039467 0.05277311 -1.29721200
v 0.00722002 0.05330030 -1.29721200
v 0.00401951 0.05363669 -1.29721200
v 0.00080462 0.05378107 -1.29721200
v -0.00241315 0.05373293 -1.29721200
v -0.00562228 0.05349244 -1.29721200
v -0.00881129 0.05306046 -1.29721200
v -0.01196875 0.05243853 -1.29721200
v -0.01508337 0.05162889 -1.29721200
v -0.01814400 0.05063444 -1.29721200
v -0.02113967 0.04945872 -1.29721200
v -0.02405967 0.04810596 -1.29721200
v -0.02689354 0.04658098 -1.29721200
v -0.02963114 0.04488926 -1.29721200
v -0.03226267 0.04303685 -1.29721200
v -0.03477871 0.04103038 -1.29721200
v -0.03717025 0.03887703 -1.29721200
v -0.03942873 0.03658451 -1.29721200
v -0.04154606 0.03416103 -1.29721200
v -0.04351467 0.03161526 -1.29721200
v -0.04532751 0.02895631 -1.29721200
v -0.04697808 0.02619371 -1.29721200
v -0.04846049 0.02333734 -1.29721200
v -0.04976942 0.02039743 -1.29721200
v -0.05090019 0.01738451 -1.29721200
v -0.05184875 0.01430935 -1.29721200
v -0.05261171 0.01118296 -1.29721200
v -0.05318633 0.00801655 -1.29721200
v -0.05357056 0.00482144 -1.29721200
v -0.05376301 0.00160907 -1.29721200
v -0.05376301 -0.00160907 -1.29721200
v -0.05357056 -0.00482144 -1.29721200
v -0.05318633 -0.00801655 -1.29721200
v -0.05261171 -0.01118296 -1.29721200
v -0.05184875 -0.01430935 -1.29721200
v -0.05090019 -0.01738451 -1.29721200
v -0.04976942 -0.02039743 -1.29721200
v -0.04846049 -0.02333734 -1.29721200
v -0.04697808 -0.02619371 -1.29721200
v -0.04532751 -0.02895631 -1.29721200
v -0.04351467 -0.03161526 -1.29721200
v -0.04154606 -0.03416103 -1.29721200
v -0.03942873 -0.03658451 -1.29721200
v -0.03717025 -0.03887703 -1.29721200
v -0.03477871 -0.04103038 -1.29721200
v -0.03226267 -0.04303685 -1.29721200
v -0.02963114 -0.04488926 -1.29721200
v -0.02689354 -0.04658098 -1.29721200
v -0.02405967 -0.04810596 -1.29721200
v -0.02113967 -0.04945872 -1.29721200
v -0.01814400 -0.05063444 -1.29721200
v -0.01508337 -0.05162889 -1.29721200
v -0.01196875 -0.05243853 -1.29721200
v -0.00881129 -0.05306046 -1.29721200
v -0.00562228 -0.05349244 -1.29721200
v -0.00241315 -0.05373293 -1.29721200
v 0.00080462 -0.05378107 -1.29721200
v 0.00401951 -0.05363669 -1.29721200
v 0.00722002 -0.05330030 -1.29721200
v 0.01039467 -0.05277311 -1.29721200
v 0.01353212 -0.05205701 -1.29721200
v 0.01662112 -0.05115456 -1.29721200
v 0.01965063 -0.05006899 -1.29721200
v 0.02260979 -0.04880418 -1.29721200
v 0.02548802 -0.04736467 -1.29721200
v 0.02827500 -0.04575560 -1.29721200
v 0.03096077 -0.04398274 -1.29721200
v 0.03353570 -0.04205244 -1.29721200
v 0.03599059 -0.03997160 -1.29721200
v 0.03831664 -0.03774767 -1.29721200
v 0.04050552 -0.03538861 -1.29721200
v 0.04254941 -0.03290287 -1.29721200
v 0.04444098 -0.03029935 -1.29721200
v 0.04617346 -0.02758736 -1.29721200
v 0.04774065 -0.02477662 -1.29721200
v 0.04913695 -0.02187718 -1.29721200
v 0.05035735 -0.01889943 -1.29721200
v 0.05139748 -0.01585402 -1.29721200
v 0.05225362 -0.01275186 -1.29721200
v 0.05292271 -0.00960406 -1.29721200
v 0.05340234 -0.00642187 -1.29721200
v 0.05369082 -0.00321669 -1.29721200
v 0.06689600 0.00000000 -1.27971200
v 0.06486885 0.00000000 -1.27221200
v 0.06475274 0.00387943 -1.27221200
v 0.06440484 0.00774497 -1.27221200
v 0.06382638 0.01158278 -1.27221200
v 0.06301944 0.01537913 -1.27221200
v 0.06198691 0.01912043 -1.27221200
v 0.06073248 0.02279328 -1.27221200
v 0.05926064 0.02638454 -1.27221200
v 0.05757667 0.02988135 -1.27221200
v 0.05568659 0.03327119 -1.27221200
v 0.05359716 0.03654192 -1.27221200
v 0.05131587 0.03968185 -1.27221200
v 0.04885088 0.04267973 -1.27221200
v 0.04621102 0.04552482 -1.27221200
v 0.04340573 0.04820695 -1.27221200
v 0.04044507 0.05071651 -1.27221200
v 0.03733962 0.05304452 -1.27221200
v 0.03410050 0.05518264 -1.27221200
v 0.03073931 0.05712322 -1.27221200
v 0.02726809 0.05885931 -1.27221200
v 0.02369925 0.06038471 -1.27221200
v 0.02004558 0.06169394 -1.27221200
v 0.01632014 0.06278233 -1.27221200
v 0.01253629 0.06364597 -1.27221200
v 0.00870756 0.06428177 -1.27221200
v 0.00484766 0.06468746 -1.27221200
v 0.00097040 0.06486159 -1.27221200
v -0.00291033 0.06480353 -1.27221200
v -0.00678064 0.06451349 -1.27221200
v -0.01062668 0.06399251 -1.27221200
v -0.01443468 0.06324245 -1.27221200
v -0.01819100 0.06226600 -1.27221200
v -0.02188221 0.06106666 -1.27221200
v -0.02549508 0.05964871 -1.27221200
v -0.02901669 0.05801723 -1.27221200
v -0.03243442 0.05617807 -1.27221200
v -0.03573605 0.05413781 -1.27221200
v -0.03890976 0.05190374 -1.27221200
v -0.04194417 0.04948388 -1.27221200
v -0.04482844 0.04688687 -1.27221200
v -0.04755223 0.04412202 -1.27221200
v -0.05010580 0.04119923 -1.27221200
v -0.05248000 0.03812895 -1.27221200
v -0.05466634 0.03492219 -1.27221200
v -0.05665698 0.03159040 -1.27221200
v -0.05844481 0.02814554 -1.27221200
v -0.06002343 0.02459992 -1.27221200
v -0.06138717 0.02096624 -1.27221200
v -0.06253116 0.01725750 -1.27221200
v -0.06345131 0.01348699 -1.27221200
v -0.06414432 0.00966820 -1.27221200
v -0.06460771 0.00581480 -1.27221200
v -0.06483982 0.00194058 -1.27221200
v -0.06483982 -0.00194058 -1.27221200
v -0.06460771 -0.00581480 -1.27221200
v -0.06414432 -0.00966820 -1.27221200
v -0.06345131 -0.01348699 -1.27221200
v -0.06253116 -0.01725750 -1.27221200
v -0.06138717 -0.02096624 -1.27221200
v -0.06002343 -0.02459992 -1.27221200
v -0.05844481 -0.02814554 -1.27221200
v -0.05665698 -0.03159040 -1.27221200
v -0.05466634 -0.03492219 -1.27221200
v -0.05248000 -0.03812895 -1.27221200
v -0.05010580 -0.04119923 -1.27221200
v -0.04755223 -0.04412202 -1.27221200
v -0.04482844 -0.04688687 -1.27221200
v -0.04194417 -0.04948388 -1.27221200
v -0.03890976 -0.05190374 -1.27221200
v -0.03573605 -0.05413781 -1.27221200
v -0.03243442 -0.05617807 -1.27221200
v -0.02901669 -0.05801723 -1.27221200
v -0.02549508 -0.05964871 -1.27221200
v -0.02188221 -0.06106666 -1.27221200
v -0.01819100 -0.06226600 -1.27221200
v -0.01443468 -0.06324245 -1.27221200
v -0.01062668 -0.06399251 -1.27221200
v -0.00678064 -0.06451349 -1.27221200
v -0.00291033 -0.06480353 -1.27221200
v 0.00097040 -0.06486159 -1.27221200
v 0.00484766 -0.06468746 -1.27221200
v 0.00870756 -0.06428177 -1.27221200
v 0.01253629 -0.06364597 -1.27221200
v 0.01632014 -0.06278233 -1.27221200
v 0.02004558 -0.06169394 -1.27221200
v 0.02369925 -0.06038471 -1.27221200
v 0.02726809 -0.05885931 -1.27221200
v 0.03073931 -0.05712322 -1.27221200
v 0.03410050 -0.05518264 -1.27221200
v 0.03733962 -0.05304452 -1.27221200
v 0.04044507 -0.05071651 -1.27221200
v 0.04340573 -0.04820695 -1.27221200
v 0.04621102 -0.04552482 -1.27221200
v 0.04885088 -0.04267973 -1.27221200
v 0.05131587 -0.03968185 -1.27221200
v 0.05359716 -0.03654192 -1.27221200
v 0.05568659 -0.03327119 -1.27221200
v 0.05757667 -0.02988135 -1.27221200
v 0.05926064 -0.02638454 -1.27221200
v 0.06073248 -0.02279328 -1.27221200
v 0.06198691 -0.01912043 -1.27221200
v 0.06301944 -0.01537913 -1.27221200
v 0.06382638 -0.01158278 -1.27221200
v 0.06440484 -0.00774497 -1.27221200
v 0.06475274 -0.00387943 -1.27221200
v 0.06642646 0.00791200 -1.27971200
v 0.06502445 0.01571294 -1.27971200
v 0.06270963 0.02329330 -1.27971200
v 0.05951450 0.03054667 -1.27971200
v 0.05548392 0.03737123 -1.27971200
v 0.05067447 0.04367119 -1.27971200
v 0.04515366 0.04935810 -1.27971200
v 0.03899900 0.05435212 -1.27971200
v 0.03229687 0.05858317 -1.27971200
v 0.02514136 0.06199183 -1.27971200
v 0.01763293 0.06453026 -1.27971200
v 0.00987696 0.06616283 -1.27971200
v 0.00198235 0.06686662 -1.27971200
v -0.00594009 0.06663175 -1.27971200
v -0.01377915 0.06546152 -1.27971200
v -0.02142477 0.06337234 -1.27971200
v -0.02876964 0.06039356 -1.27971200
v -0.03571065 0.05656699 -1.27971200
v -0.04215036 0.05194634 -1.27971200
v -0.04799837 0.04659648 -1.27971200
v -0.05317258 0.04059250 -1.27971200
v -0.05760037 0.03401870 -1.27971200
v -0.06121958 0.02696735 -1.27971200
v -0.06397940 0.01953743 -1.27971200
v -0.06584109 0.01183325 -1.27971200
v -0.06677851 0.00396296 -1.27971200
v -0.06677851 -0.00396296 -1.27971200
v -0.06584109 -0.01183325 -1.27971200
v -0.06397940 -0.01953743 -1.27971200
v -0.06121958 -0.02696735 -1.27971200
v -0.05760037 -0.03401870 -1.27971200
v -0.05317258 -0.04059250 -1.27971200
v -0.04799837 -0.04659648 -1.27971200
v -0.04215036 -0.05194634 -1.27971200
v -0.03571065 -0.05656699 -1.27971200
v -0.02876964 -0.06039356 -1.27971200
v -0.02142477 -0.06337234 -1.27971200
v -0.01377915 -0.06546152 -1.27971200
v -0.00594009 -0.06663175 -1.27971200
v 0.00198235 -0.06686662 -1.27971200
v 0.00987696 -0.06616283 -1.27971200
v 0.01763293 -0.06453026 -1.27971200
v 0.02514136 -0.06199183 -1.27971200
v 0.03229687 -0.05858317 -1.27971200
v 0.03899900 -0.05435212 -1.27971200
v 0.04515366 -0.04935810 -1.27971200
v 0.05067447 -0.04367119 -1.27971200
v 0.05548392 -0.03737123 -1.27971200
v 0.05951450 -0.03054667 -1.27971200
v 0.06270963 -0.02329330 -1.27971200
v 0.06502445 -0.01571294 -1.27971200
v 0.06642646 -0.00791200 -1.27971200
v 0.05351680 0.00000000 -1.29621200
v 0.05342101 0.00320053 -1.29621200
v 0.05313399 0.00638960 -1.29621200
v 0.05265676 0.00955579 -1.29621200
v 0.05199104 0.01268778 -1.29621200
v 0.05113920 0.01577435 -1.29621200
v 0.05010429 0.01880446 -1.29621200
v 0.04889003 0.02176724 -1.29621200
v 0.04750075 0.02465211 -1.29621200
v 0.04594143 0.02744873 -1.29621200
v 0.04421766 0.03014709 -1.29621200
v 0.04233559 0.03273753 -1.29621200
v 0.04030198 0.03521078 -1.29621200
v 0.03812409 0.03755798 -1.29621200
v 0.03580973 0.03977073 -1.29621200
v 0.03336718 0.04184112 -1.29621200
v 0.03080518 0.04376173 -1.29621200
v 0.02813291 0.04552568 -1.29621200
v 0.02535993 0.04712666 -1.29621200
v 0.02249617 0.04855893 -1.29621200
v 0.01955188 0.04981738 -1.29621200
v 0.01653760 0.05089750 -1.29621200
v 0.01346412 0.05179542 -1.29621200
v 0.01034244 0.05250792 -1.29621200
v 0.00718373 0.05303246 -1.29621200
v 0.00399932 0.05336716 -1.29621200
v 0.00080058 0.05351081 -1.29621200
v -0.00240102 0.05346291 -1.29621200
v -0.00559403 0.05322363 -1.29621200
v -0.00876701 0.05279382 -1.29621200
v -0.01190861 0.05217502 -1.29621200
v -0.01500758 0.05136945 -1.29621200
v -0.01805282 0.05037999 -1.29621200
v -0.02103344 0.04921018 -1.29621200
v -0.02393877 0.04786422 -1.29621200
v -0.02675840 0.04634691 -1.29621200
v -0.02948224 0.04466369 -1.29621200
v -0.03210055 0.04282059 -1.29621200
v -0.03460394 0.04082420 -1.29621200
v -0.03698346 0.03868167 -1.29621200
v -0.03923059 0.03640067 -1.29621200
v -0.04133728 0.03398936 -1.29621200
v -0.04329600 0.03145639 -1.29621200
v -0.04509973 0.02881080 -1.29621200
v -0.04674201 0.02606208 -1.29621200
v -0.04821697 0.02322007 -1.29621200
v -0.04951933 0.02029493 -1.29621200
v -0.05064441 0.01729715 -1.29621200
v -0.05158821 0.01423744 -1.29621200
v -0.05234733 0.01112677 -1.29621200
v -0.05291906 0.00797627 -1.29621200
v -0.05330136 0.00479721 -1.29621200
v -0.05349285 0.00160098 -1.29621200
v -0.05349285 -0.00160098 -1.29621200
v -0.05330136 -0.00479721 -1.29621200
v -0.05291906 -0.00797627 -1.29621200
v -0.05234733 -0.01112677 -1.29621200
v -0.05158821 -0.01423744 -1.29621200
v -0.05064441 -0.01729715 -1.29621200
v -0.04951933 -0.02029493 -1.29621200
v -0.04821697 -0.02322007 -1.29621200
v -0.04674201 -0.02606208 -1.29621200
v -0.04509973 -0.02881080 -1.29621200
v -0.04329600 -0.03145639 -1.29621200
v -0.04133728 -0.03398936 -1.29621200
v -0.03923059 -0.03640067 -1.29621200
v -0.03698346 -0.03868167 -1.29621200
v -0.03460394 -0.04082420 -1.29621200
v -0.03210055 -0.04282059 -1.29621200
v -0.02948224 -0.04466369 -1.29621200
v -0.02675840 -0.04634691 -1.29621200
v -0.02393877 -0.04786422 -1.29621200
v -0.02103344 -0.04921018 -1.29621200
v -0.01805282 -0.05037999 -1.29621200
v -0.01500758 -0.05136945 -1.29621200
v -0.01190861 -0.05217502 -1.29621200
v -0.00876701 -0.05279382 -1.29621200
v -0.00559403 -0.05322363 -1.29621200
v -0.00240102 -0.05346291 -1.29621200
v 0.00080058 -0.05351081 -1.29621200
v 0.00399932 -0.05336716 -1.29621200
v 0.00718373 -0.05303246 -1.29621200
v 0.01034244 -0.05250792 -1.29621200
v 0.01346412 -0.05179542 -1.29621200
v 0.01653760 -0.05089750 -1.29621200
v 0.01955188 -0.04981738 -1.29621200
v 0.02249617 -0.04855893 -1.29621200
v 0.02535993 -0.04712666 -1.29621200
v 0.02813291 -0.04552568 -1.29621200
v 0.03080518 -0.04376173 -1.29621200
v 0.03336718 -0.04184112 -1.29621200
v 0.03580973 -0.03977073 -1.29621200
v 0.03812409 -0.03755798 -1.29621200
v 0.04030198 -0.03521078 -1.29621200
v 0.04233559 -0.03273753 -1.29621200
v 0.04421766 -0.03014709 -1.29621200
v 0.04594143 -0.02744873 -1.29621200
v 0.04750075 -0.02465211 -1.29621200
v 0.04889003 -0.02176724 -1.29621200
v 0.05010429 -0.01880446 -1.29621200
v 0.05113920 -0.01577435 -1.29621200
v 0.05199104 -0.01268778 -1.29621200
v 0.05265676 -0.00955579 -1.29621200
v 0.05313399 -0.00638960 -1.29621200
v 0.05342101 -0.00320053 -1.29621200
v 0.06097672 0.00000000 -1.26021200
v 0.05708459 0.00000000 -1.24821200
v 0.05319246 0.00000000 -1.23621200
v 0.04930033 0.00000000 -1.22421200
v 0.04540819 0.00000000 -1.21221200
v 0.04532692 0.00271560 -1.21221200
v 0.04508339 0.00542148 -1.21221200
v 0.04467847 0.00810795 -1.21221200
v 0.04411361 0.01076539 -1.21221200
v 0.04339084 0.01338430 -1.21221200
v 0.04251274 0.01595530 -1.21221200
v 0.04148245 0.01846918 -1.21221200
v 0.04030367 0.02091694 -1.21221200
v 0.03898061 0.02328983 -1.21221200
v 0.03751801 0.02557935 -1.21221200
v 0.03592111 0.02777730 -1.21221200
v 0.03419562 0.02987581 -1.21221200
v 0.03234771 0.03186738 -1.21221200
v 0.03038401 0.03374486 -1.21221200
v 0.02831155 0.03550156 -1.21221200
v 0.02613773 0.03713116 -1.21221200
v 0.02387035 0.03862785 -1.21221200
v 0.02151752 0.03998625 -1.21221200
v 0.01908766 0.04120152 -1.21221200
v 0.01658948 0.04226930 -1.21221200
v 0.01403190 0.04318576 -1.21221200
v 0.01142410 0.04394763 -1.21221200
v 0.00877540 0.04455218 -1.21221200
v 0.00609529 0.04499724 -1.21221200
v 0.00339336 0.04528122 -1.21221200
v 0.00067928 0.04540311 -1.21221200
v -0.00203723 0.04536247 -1.21221200
v -0.00474645 0.04515944 -1.21221200
v -0.00743868 0.04479476 -1.21221200
v -0.01010427 0.04426972 -1.21221200
v -0.01273370 0.04358620 -1.21221200
v -0.01531755 0.04274666 -1.21221200
v -0.01784656 0.04175410 -1.21221200
v -0.02031168 0.04061206 -1.21221200
v -0.02270410 0.03932465 -1.21221200
v -0.02501524 0.03789646 -1.21221200
v -0.02723683 0.03633262 -1.21221200
v -0.02936092 0.03463871 -1.21221200
v -0.03137991 0.03282081 -1.21221200
v -0.03328656 0.03088542 -1.21221200
v -0.03507406 0.02883946 -1.21221200
v -0.03673600 0.02669027 -1.21221200
v -0.03826644 0.02444553 -1.21221200
v -0.03965989 0.02211328 -1.21221200
v -0.04091137 0.01970188 -1.21221200
v -0.04201640 0.01721994 -1.21221200
v -0.04297102 0.01467637 -1.21221200
v -0.04377181 0.01208025 -1.21221200
v -0.04441592 0.00944089 -1.21221200
v -0.04490102 0.00676774 -1.21221200
v -0.04522539 0.00407036 -1.21221200
v -0.04538787 0.00135841 -1.21221200
v -0.04538787 -0.00135841 -1.21221200
v -0.04522539 -0.00407036 -1.21221200
v -0.04490102 -0.00676774 -1.21221200
v -0.04441592 -0.00944089 -1.21221200
v -0.04377181 -0.01208025 -1.21221200
v -0.04297102 -0.01467637 -1.21221200
v -0.04201640 -0.01721994 -1.21221200
v -0.04091137 -0.01970188 -1.21221200
v -0.03965989 -0.02211328 -1.21221200
v -0.03826644 -0.02444553 -1.21221200
v -0.03673600 -0.02669027 -1.21221200
v -0.03507406 -0.02883946 -1.21221200
v -0.03328656 -0.03088542 -1.21221200
v -0.03137991 -0.03282081 -1.21221200
v -0.02936092 -0.03463871 -1.21221200
v -0.02723683 -0.03633262 -1.21221200
v -0.02501524 -0.03789646 -1.21221200
v -0.02270410 -0.03932465 -1.21221200
v -0.02031168 -0.04061206 -1.21221200
v -0.01784656 -0.04175410 -1.21221200
v -0.01531755 -0.04274666 -1.21221200
v -0.01273370 -0.04358620 -1.21221200
v -0.01010427 -0.04426972 -1.21221200
v -0.00743868 -0.04479476 -1.21221200
v -0.00474645 -0.04515944 -1.21221200
v -0.00203723 -0.04536247 -1.21221200
v 0.00067928 -0.04540311 -1.21221200
v 0.00339336 -0.04528122 -1.21221200
v 0.00609529 -0.04499724 -1.21221200
v 0.00877540 -0.04455218 -1.21221200
v 0.01142410 -0.04394763 -1.21221200
v 0.01403190 -0.04318576 -1.21221200
v 0.01658948 -0.04226930 -1.21221200
v 0.01908766 -0.04120152 -1.21221200
v 0.02151752 -0.03998625 -1.21221200
v 0.02387035 -0.03862785 -1.21221200
v 0.02613773 -0.03713116 -1.21221200
v 0.02831155 -0.03550156 -1.21221200
v 0.03038401 -0.03374486 -1.21221200
v 0.03234771 -0.03186738 -1.21221200
v 0.03419562 -0.02987581 -1.21221200
v 0.03592111 -0.02777730 -1.21221200
v 0.03751801 -0.02557935 -1.21221200
v 0.03898061 -0.02328983 -1.21221200
v 0.04030367 -0.02091694 -1.21221200
v 0.04148245 -0.01846918 -1.21221200
v 0.04251274 -0.01595530 -1.21221200
v 0.04339084 -0.01338430 -1.21221200
v 0.04411361 -0.01076539 -1.21221200
v 0.04467847 -0.00810795 -1.21221200
v 0.04508339 -0.00542148 -1.21221200
v 0.04532692 -0.00271560 -1.21221200
v 0.00169161 0.05705952 -1.24821200
v 0.00900300 0.06030842 -1.26021200
v 0.00180694 0.06094994 -1.26021200
v -0.01255990 0.05966916 -1.26021200
v -0.00541448 0.06073585 -1.26021200
v 0.01852842 0.04568610 -1.22421200
v 0.02380181 0.04317402 -1.22421200
v 0.02568090 0.04658249 -1.23621200
v 0.01999119 0.04929290 -1.23621200
v 0.01402085 0.05131134 -1.23621200
v 0.00785368 0.05260948 -1.23621200
v 0.01504676 0.05506582 -1.24821200
v 0.00842834 0.05645895 -1.24821200
v -0.00506888 0.05685909 -1.24821200
v -0.01952900 0.05776485 -1.26021200
v 0.01299493 0.04755685 -1.22421200
v 0.00157627 0.05316910 -1.23621200
v -0.01175820 0.05586049 -1.24821200
v -0.02622396 0.05504965 -1.26021200
v 0.00727902 0.04876000 -1.22421200
v -0.00472327 0.05298234 -1.23621200
v -0.01828247 0.05407773 -1.24821200
v -0.03255080 0.05156167 -1.26021200
v 0.00146093 0.04927867 -1.22421200
v -0.01095651 0.05205182 -1.23621200
v -0.02455009 0.05153584 -1.24821200
v -0.03842069 0.04734988 -1.26021200
v -0.00437767 0.04910558 -1.22421200
v -0.01703594 0.05039062 -1.23621200
v -0.03047309 0.04827050 -1.24821200
v -0.04375124 0.04247340 -1.26021200
v -0.01015481 0.04824315 -1.22421200
v -0.02287622 0.04802203 -1.23621200
v -0.03596830 0.04432754 -1.24821200
v -0.04846762 0.03700068 -1.26021200
v -0.01578941 0.04670350 -1.22421200
v -0.02839538 0.04497933 -1.23621200
v -0.04095861 0.03976233 -1.24821200
v -0.05250361 0.03100856 -1.26021200
v -0.02120235 0.04450823 -1.22421200
v -0.03351592 0.04130521 -1.23621200
v -0.04537394 0.03463894 -1.24821200
v -0.05580258 0.02458114 -1.26021200
v -0.02631767 0.04168816 -1.22421200
v -0.03816597 0.03705126 -1.23621200
v -0.04915232 0.02902929 -1.24821200
v -0.05831819 0.01780866 -1.26021200
v -0.03106354 0.03828288 -1.22421200
v -0.04228026 0.03227719 -1.23621200
v -0.05224071 0.02301213 -1.24821200
v -0.06001515 0.01078619 -1.26021200
v -0.03537334 0.03434019 -1.22421200
v -0.04580102 0.02705002 -1.23621200
v -0.05459576 0.01667194 -1.24821200
v -0.06086963 0.00361230 -1.26021200
v -0.03918658 0.02991544 -1.22421200
v -0.04867884 0.02144313 -1.23621200
v -0.05618440 0.01009771 -1.24821200
v -0.06086963 -0.00361230 -1.26021200
v -0.04244973 0.02507075 -1.22421200
v -0.05087332 0.01553522 -1.23621200
v -0.05698433 0.00338173 -1.24821200
v -0.06001515 -0.01078619 -1.26021200
v -0.04511698 0.01987412 -1.22421200
v -0.05235364 0.00940923 -1.23621200
v -0.05698433 -0.00338173 -1.24821200
v -0.05831819 -0.01780866 -1.26021200
v -0.04715088 0.01439849 -1.22421200
v -0.05309904 0.00315115 -1.23621200
v -0.05618440 -0.01009771 -1.24821200
v -0.05580258 -0.02458114 -1.26021200
v -0.04852289 0.00872075 -1.22421200
v -0.05309904 -0.00315115 -1.23621200
v -0.05459576 -0.01667194 -1.24821200
v -0.05250361 -0.03100856 -1.26021200
v -0.04921374 0.00292058 -1.22421200
v -0.05235364 -0.00940923 -1.23621200
v -0.05224071 -0.02301213 -1.24821200
v -0.04846762 -0.03700068 -1.26021200
v -0.04921374 -0.00292058 -1.22421200
v -0.05087332 -0.01553522 -1.23621200
v -0.04915232 -0.02902929 -1.24821200
v -0.04375124 -0.04247340 -1.26021200
v -0.04852289 -0.00872075 -1.22421200
v -0.04867884 -0.02144313 -1.23621200
v -0.04537394 -0.03463894 -1.24821200
v -0.03842069 -0.04734988 -1.26021200
v -0.04715088 -0.01439849 -1.22421200
v -0.04580102 -0.02705002 -1.23621200
v -0.04095861 -0.03976233 -1.24821200
v -0.03255080 -0.05156167 -1.26021200
v -0.04511698 -0.01987412 -1.22421200
v -0.04228026 -0.03227719 -1.23621200
v -0.03596830 -0.04432754 -1.24821200
v -0.02622396 -0.05504965 -1.26021200
v -0.04244973 -0.02507075 -1.22421200
v -0.03816597 -0.03705126 -1.23621200
v -0.03047309 -0.04827050 -1.24821200
v -0.01952900 -0.05776485 -1.26021200
v -0.03918658 -0.02991544 -1.22421200
v -0.03351592 -0.04130521 -1.23621200
v -0.02455009 -0.05153584 -1.24821200
v -0.01255990 -0.05966916 -1.26021200
v -0.03537334 -0.03434019 -1.22421200
v -0.02839538 -0.04497933 -1.23621200
v -0.01828247 -0.05407773 -1.24821200
v -0.00541448 -0.06073585 -1.26021200
v -0.03106354 -0.03828288 -1.22421200
v -0.02287622 -0.04802203 -1.23621200
v -0.01175820 -0.05586049 -1.24821200
v 0.00180694 -0.06094994 -1.26021200
v -0.02631767 -0.04168816 -1.22421200
v -0.01703594 -0.05039062 -1.23621200
v -0.00506888 -0.05685909 -1.24821200
v 0.00900300 -0.06030842 -1.26021200
v -0.02120235 -0.04450823 -1.22421200
v -0.01095651 -0.05205182 -1.23621200
v 0.00169161 -0.05705952 -1.24821200
v 0.01607268 -0.05882031 -1.26021200
v -0.01578941 -0.04670350 -1.22421200
v -0.00472327 -0.05298234 -1.23621200
v 0.00842834 -0.05645895 -1.24821200
v 0.02291673 -0.05650649 -1.26021200
v -0.01015481 -0.04824315 -1.22421200
v 0.00157627 -0.05316910 -1.23621200
v 0.01504676 -0.05506582 -1.24821200
v 0.02943908 -0.05339944 -1.26021200
v -0.00437767 -0.04910558 -1.22421200
v 0.00785368 -0.05260948 -1.23621200
v 0.02145396 -0.05289969 -1.24821200
v 0.03554818 -0.04954278 -1.26021200
v 0.00146093 -0.04927867 -1.22421200
v 0.01402085 -0.05131134 -1.23621200
v 0.02755999 -0.04999097 -1.24821200
v 0.04115825 -0.04499065 -1.26021200
v 0.00727902 -0.04876000 -1.22421200
v 0.01999119 -0.04929290 -1.23621200
v 0.03327914 -0.04638048 -1.24821200
v 0.04619055 -0.03980695 -1.26021200
v 0.01299493 -0.04755685 -1.22421200
v 0.02568090 -0.04658249 -1.23621200
v 0.03853113 -0.04211891 -1.24821200
v 0.05057444 -0.03406445 -1.26021200
v 0.01852842 -0.04568610 -1.22421200
v 0.03101011 -0.04321817 -1.23621200
v 0.04324222 -0.03726608 -1.24821200
v 0.05424837 -0.02784375 -1.26021200
v 0.02380181 -0.04317402 -1.22421200
v 0.03590400 -0.03924716 -1.23621200
v 0.04734628 -0.03189012 -1.24821200
v 0.05716077 -0.02123219 -1.26021200
v 0.02874108 -0.04005587 -1.22421200
v 0.04029388 -0.03472521 -1.23621200
v 0.05078571 -0.02606649 -1.24821200
v 0.05927077 -0.01432258 -1.26021200
v 0.03327688 -0.03637542 -1.22421200
v 0.04411813 -0.02971579 -1.23621200
v 0.05351221 -0.01987695 -1.24821200
v 0.06054873 -0.00721191 -1.26021200
v 0.03734555 -0.03218434 -1.22421200
v 0.04732305 -0.02428923 -1.23621200
v 0.05548753 -0.01340837 -1.24821200
v 0.04088997 -0.02754147 -1.22421200
v 0.04986365 -0.01852170 -1.23621200
v 0.05668392 -0.00675158 -1.24821200
v 0.04386038 -0.02251197 -1.22421200
v 0.05170429 -0.01249417 -1.23621200
v 0.04621509 -0.01716645 -1.22421200
v 0.05281910 -0.00629124 -1.23621200
v 0.04792105 -0.01157996 -1.22421200
v 0.04895429 -0.00583091 -1.22421200
v 0.06054873 0.00721191 -1.26021200
v 0.05927077 0.01432258 -1.26021200
v 0.05668392 0.00675158 -1.24821200
v 0.05716077 0.02123219 -1.26021200
v 0.05548753 0.01340837 -1.24821200
v 0.05424837 0.02784375 -1.26021200
v 0.05281910 0.00629124 -1.23621200
v 0.05351221 0.01987695 -1.24821200
v 0.05057444 0.03406445 -1.26021200
v 0.05170429 0.01249417 -1.23621200
v 0.05078571 0.02606649 -1.24821200
v 0.04619055 0.03980695 -1.26021200
v 0.04895429 0.00583091 -1.22421200
v 0.04986365 0.01852170 -1.23621200
v 0.04734628 0.03189012 -1.24821200
v 0.04115825 0.04499065 -1.26021200
v 0.04792105 0.01157996 -1.22421200
v 0.04732305 0.02428923 -1.23621200
v 0.04324222 0.03726608 -1.24821200
v 0.03554818 0.04954278 -1.26021200
v 0.04621509 0.01716645 -1.22421200
v 0.04411813 0.02971579 -1.23621200
v 0.03853113 0.04211891 -1.24821200
v 0.02943908 0.05339944 -1.26021200
v 0.04386038 0.02251197 -1.22421200
v 0.04029388 0.03472521 -1.23621200
v 0.03327914 0.04638048 -1.24821200
v 0.02291673 0.05650649 -1.26021200
v 0.04088997 0.02754147 -1.22421200
v 0.03590400 0.03924716 -1.23621200
v 0.02755999 0.04999097 -1.24821200
v 0.01607268 0.05882031 -1.26021200
v 0.03734555 0.03218434 -1.22421200
v 0.03101011 0.04321817 -1.23621200
v 0.02145396 0.05289969 -1.24821200
v 0.03327688 0.03637542 -1.22421200
v 0.02874108 0.04005587 -1.22421200
v 0.04946250 0.00000000 -1.28471200
v 0.04540819 0.00000000 -1.27321200
v 0.04135389 0.00000000 -1.26171200
v 0.03729959 0.00000000 -1.25021200
v 0.03324529 0.00000000 -1.23871200
v 0.02919098 0.00000000 -1.22721200
v 0.02913873 0.00174574 -1.22721200
v 0.02898218 0.00348523 -1.22721200
v 0.02872187 0.00521225 -1.22721200
v 0.02835875 0.00692061 -1.22721200
v 0.02789411 0.00860419 -1.22721200
v 0.02732962 0.01025698 -1.22721200
v 0.02666729 0.01187304 -1.22721200
v 0.02590950 0.01344661 -1.22721200
v 0.02505896 0.01497203 -1.22721200
v 0.02411872 0.01644387 -1.22721200
v 0.02309214 0.01785683 -1.22721200
v 0.02198290 0.01920588 -1.22721200
v 0.02079496 0.02048617 -1.22721200
v 0.01953258 0.02169313 -1.22721200
v 0.01820028 0.02282243 -1.22721200
v 0.01680283 0.02387003 -1.22721200
v 0.01534523 0.02483219 -1.22721200
v 0.01383269 0.02570545 -1.22721200
v 0.01227064 0.02648669 -1.22721200
v 0.01066466 0.02717312 -1.22721200
v 0.00902051 0.02776227 -1.22721200
v 0.00734406 0.02825205 -1.22721200
v 0.00564133 0.02864069 -1.22721200
v 0.00391840 0.02892680 -1.22721200
v 0.00218144 0.02910936 -1.22721200
v 0.00043668 0.02918772 -1.22721200
v -0.00130965 0.02916159 -1.22721200
v -0.00305129 0.02903107 -1.22721200
v -0.00478201 0.02879663 -1.22721200
v -0.00649560 0.02845910 -1.22721200
v -0.00818595 0.02801970 -1.22721200
v -0.00984699 0.02748000 -1.22721200
v -0.01147279 0.02684192 -1.22721200
v -0.01305751 0.02610775 -1.22721200
v -0.01459549 0.02528013 -1.22721200
v -0.01608122 0.02436201 -1.22721200
v -0.01750939 0.02335668 -1.22721200
v -0.01887488 0.02226774 -1.22721200
v -0.02017280 0.02109909 -1.22721200
v -0.02139850 0.01985491 -1.22721200
v -0.02254761 0.01853965 -1.22721200
v -0.02361600 0.01715803 -1.22721200
v -0.02459985 0.01571498 -1.22721200
v -0.02549564 0.01421568 -1.22721200
v -0.02630017 0.01266549 -1.22721200
v -0.02701054 0.01106996 -1.22721200
v -0.02762423 0.00943481 -1.22721200
v -0.02813902 0.00776588 -1.22721200
v -0.02855309 0.00606915 -1.22721200
v -0.02886494 0.00435069 -1.22721200
v -0.02907347 0.00261666 -1.22721200
v -0.02917792 0.00087326 -1.22721200
v -0.02917792 -0.00087326 -1.22721200
v -0.02907347 -0.00261666 -1.22721200
v -0.02886494 -0.00435069 -1.22721200
v -0.02855309 -0.00606915 -1.22721200
v -0.02813902 -0.00776588 -1.22721200
v -0.02762423 -0.00943481 -1.22721200
v -0.02701054 -0.01106996 -1.22721200
v -0.02630017 -0.01266549 -1.22721200
v -0.02549564 -0.01421568 -1.22721200
v -0.02459985 -0.01571498 -1.22721200
v -0.02361600 -0.01715803 -1.22721200
v -0.02254761 -0.01853965 -1.22721200
v -0.02139850 -0.01985491 -1.22721200
v -0.02017280 -0.02109909 -1.22721200
v -0.01887488 -0.02226774 -1.22721200
v -0.01750939 -0.02335668 -1.22721200
v -0.01608122 -0.02436201 -1.22721200
v -0.01459549 -0.02528013 -1.22721200
v -0.01305751 -0.02610775 -1.22721200
v -0.01147279 -0.02684192 -1.22721200
v -0.00984699 -0.02748000 -1.22721200
v -0.00818595 -0.02801970 -1.22721200
v -0.00649560 -0.02845910 -1.22721200
v -0.00478201 -0.02879663 -1.22721200
v -0.00305129 -0.02903107 -1.22721200
v -0.00130965 -0.02916159 -1.22721200
v 0.00043668 -0.02918772 -1.22721200
v 0.00218144 -0.02910936 -1.22721200
v 0.00391840 -0.02892680 -1.22721200
v 0.00564133 -0.02864069 -1.22721200
v 0.00734406 -0.02825205 -1.22721200
v 0.00902051 -0.02776227 -1.22721200
v 0.01066466 -0.02717312 -1.22721200
v 0.01227064 -0.02648669 -1.22721200
v 0.01383269 -0.02570545 -1.22721200
v 0.01534523 -0.02483219 -1.22721200
v 0.01680283 -0.02387003 -1.22721200
v 0.01820028 -0.02282243 -1.22721200
v 0.01953258 -0.02169313 -1.22721200
v 0.02079496 -0.02048617 -1.22721200
v 0.02198290 -0.01920588 -1.22721200
v 0.02309214 -0.01785683 -1.22721200
v 0.02411872 -0.01644387 -1.22721200
v 0.02505896 -0.01497203 -1.22721200
v 0.02590950 -0.01344661 -1.22721200
v 0.02666729 -0.01187304 -1.22721200
v 0.02732962 -0.01025698 -1.22721200
v 0.02789411 -0.00860419 -1.22721200
v 0.02835875 -0.00692061 -1.22721200
v 0.02872187 -0.00521225 -1.22721200
v 0.02898218 -0.00348523 -1.22721200
v 0.02913873 -0.00174574 -1.22721200
v 0.04911533 0.00585009 -1.28471200
v 0.04807868 0.01161805 -1.28471200
v 0.04636712 0.01722292 -1.28471200
v 0.04508948 0.00537057 -1.27321200
v 0.04400466 0.02258602 -1.28471200
v 0.04413781 0.01066575 -1.27321200
v 0.04102448 0.02763206 -1.28471200
v 0.04256653 0.01581121 -1.27321200
v 0.04106363 0.00489106 -1.26171200
v 0.03746840 0.03229021 -1.28471200
v 0.04039772 0.02073471 -1.27321200
v 0.04019693 0.00971345 -1.26171200
v 0.03338635 0.03649508 -1.28471200
v 0.03766181 0.02536714 -1.27321200
v 0.03876595 0.01439949 -1.26171200
v 0.02883562 0.04018763 -1.28471200
v 0.03703779 0.00441154 -1.25021200
v 0.03439722 0.02964347 -1.27321200
v 0.03679078 0.01888340 -1.26171200
v 0.02388011 0.04331604 -1.28471200
v 0.03625605 0.00876115 -1.25021200
v 0.03064976 0.03350368 -1.27321200
v 0.03429915 0.02310222 -1.26171200
v 0.01858937 0.04583638 -1.28471200
v 0.03496537 0.01298778 -1.25021200
v 0.02647205 0.03689356 -1.27321200
v 0.03301194 0.00393203 -1.23871200
v 0.03132604 0.02699674 -1.26171200
v 0.01303768 0.04771329 -1.28471200
v 0.03318384 0.01703208 -1.25021200
v 0.02192272 0.03976554 -1.27321200
v 0.03231518 0.00780885 -1.23871200
v 0.02791317 0.03051228 -1.26171200
v 0.00730297 0.04892040 -1.28471200
v 0.03093649 0.02083729 -1.25021200
v 0.01706565 0.04207930 -1.27321200
v 0.03116478 0.01157606 -1.23871200
v 0.02410847 0.03359949 -1.26171200
v 0.00146574 0.04944078 -1.28471200
v 0.02825486 0.02435000 -1.25021200
v 0.01196902 0.04380236 -1.27321200
v 0.02957690 0.01518077 -1.23871200
v 0.01996534 0.03621505 -1.26171200
v -0.00439207 0.04926711 -1.28471200
v 0.02517659 0.02752088 -1.25021200
v 0.00670436 0.04491053 -1.27321200
v 0.02757383 0.01857237 -1.23871200
v 0.01554193 0.03832222 -1.26171200
v -0.01018822 0.04840185 -1.28471200
v 0.02174489 0.03030543 -1.25021200
v 0.00134560 0.04538825 -1.27321200
v 0.02518368 0.02170326 -1.23871200
v 0.01090036 0.03989144 -1.26171200
v -0.01584135 0.04685713 -1.28471200
v 0.01800795 0.03266455 -1.25021200
v -0.00403206 0.04522883 -1.27321200
v 0.02244000 0.02452948 -1.23871200
v 0.00610576 0.04090066 -1.26171200
v -0.02127210 0.04465464 -1.28471200
v 0.01401821 0.03456514 -1.25021200
v -0.00935312 0.04443448 -1.27321200
v 0.01938132 0.02701136 -1.23871200
v 0.00122545 0.04133573 -1.26171200
v -0.02640424 0.04182529 -1.28471200
v 0.00983169 0.03598051 -1.25021200
v -0.01454288 0.04301638 -1.27321200
v 0.01605056 0.02911406 -1.23871200
v -0.00367206 0.04119054 -1.26171200
v -0.03116572 0.03840881 -1.28471200
v 0.00550716 0.03689079 -1.25021200
v -0.01952848 0.04099442 -1.27321200
v 0.01249450 0.03080806 -1.23871200
v -0.00851802 0.04046712 -1.26171200
v -0.03548970 0.03445315 -1.28471200
v 0.00110531 0.03728321 -1.25021200
v -0.02423996 0.03839699 -1.27321200
v 0.00876303 0.03206959 -1.23871200
v -0.01324440 0.03917563 -1.26171200
v -0.03931549 0.03001385 -1.28471200
v -0.00331205 0.03715225 -1.25021200
v -0.02861115 0.03526055 -1.27321200
v 0.00490855 0.03288092 -1.23871200
v -0.01778487 0.03733420 -1.26171200
v -0.04258937 0.02515322 -1.28471200
v -0.00768292 0.03649975 -1.25021200
v -0.03258071 0.03162912 -1.27321200
v 0.00098517 0.03323069 -1.23871200
v -0.02207567 0.03496869 -1.26171200
v -0.04526539 0.01993949 -1.28471200
v -0.01194593 0.03533488 -1.25021200
v -0.03609291 0.02755370 -1.27321200
v -0.00295204 0.03311396 -1.23871200
v -0.02605658 0.03211228 -1.26171200
v -0.04730598 0.01444586 -1.28471200
v -0.01604126 0.03367399 -1.25021200
v -0.03909844 0.02309148 -1.27321200
v -0.00684782 0.03253239 -1.23871200
v -0.02967172 0.02880510 -1.26171200
v -0.04868250 0.00874943 -1.28471200
v -0.01991139 0.03154038 -1.25021200
v -0.04155511 0.01830511 -1.27321200
v -0.01064746 0.03149413 -1.23871200
v -0.03287032 0.02509355 -1.26171200
v -0.04937563 0.00293019 -1.28471200
v -0.02350202 0.02896402 -1.25021200
v -0.04342844 0.01326177 -1.27321200
v -0.01429764 0.03001377 -1.23871200
v -0.03560750 0.02102974 -1.26171200
v -0.04937563 -0.00293019 -1.28471200
v -0.02676273 0.02598107 -1.25021200
v -0.04469213 0.00803227 -1.27321200
v -0.01774711 0.02811208 -1.23871200
v -0.03784483 0.01667072 -1.26171200
v -0.04868250 -0.00874943 -1.28471200
v -0.02964774 0.02263340 -1.25021200
v -0.04532845 0.00269001 -1.27321200
v -0.02094745 0.02581576 -1.23871200
v -0.03955090 0.01207768 -1.26171200
v -0.04730598 -0.01444586 -1.28471200
v -0.03211657 0.01896800 -1.25021200
v -0.04532845 -0.00269001 -1.27321200
v -0.02385373 0.02315704 -1.23871200
v -0.04070176 0.00731510 -1.26171200
v -0.04526539 -0.01993949 -1.28471200
v -0.03413455 0.01503634 -1.25021200
v -0.04469213 -0.00803227 -1.27321200
v -0.02642516 0.02017324 -1.23871200
v -0.04128126 0.00244983 -1.26171200
v -0.04258937 -0.02515322 -1.28471200
v -0.03567336 0.01089360 -1.25021200
v -0.04342844 -0.01326177 -1.27321200
v -0.02862564 0.01690626 -1.23871200
v -0.04128126 -0.00244983 -1.26171200
v -0.03931549 -0.03001385 -1.28471200
v -0.03671140 0.00659793 -1.25021200
v -0.04155511 -0.01830511 -1.27321200
v -0.03042428 0.01340195 -1.23871200
v -0.04070176 -0.00731510 -1.26171200
v -0.03548970 -0.03445315 -1.28471200
v -0.03723408 0.00220965 -1.25021200
v -0.03909844 -0.02309148 -1.27321200
v -0.03179582 0.00970951 -1.23871200
v -0.03955090 -0.01207768 -1.26171200
v -0.03116572 -0.03840881 -1.28471200
v -0.03723408 -0.00220965 -1.25021200
v -0.03609291 -0.02755370 -1.27321200
v -0.03272103 0.00588077 -1.23871200
v -0.03784483 -0.01667072 -1.26171200
v -0.02640424 -0.04182529 -1.28471200
v -0.03671140 -0.00659793 -1.25021200
v -0.03258071 -0.03162912 -1.27321200
v -0.03318690 0.00196947 -1.23871200
v -0.03560750 -0.02102974 -1.26171200
v -0.02127210 -0.04465464 -1.28471200
v -0.03567336 -0.01089360 -1.25021200
v -0.02861115 -0.03526055 -1.27321200
v -0.03318690 -0.00196947 -1.23871200
v -0.03287032 -0.02509355 -1.26171200
v -0.01584135 -0.04685713 -1.28471200
v -0.03413455 -0.01503634 -1.25021200
v -0.02423996 -0.03839699 -1.27321200
v -0.03272103 -0.00588077 -1.23871200
v -0.02967172 -0.02880510 -1.26171200
v -0.01018822 -0.04840185 -1.28471200
v -0.03211657 -0.01896800 -1.25021200
v -0.01952848 -0.04099442 -1.27321200
v -0.03179582 -0.00970951 -1.23871200
v -0.02605658 -0.03211228 -1.26171200
v -0.00439207 -0.04926711 -1.28471200
v -0.02964774 -0.02263340 -1.25021200
v -0.01454288 -0.04301638 -1.27321200
v -0.03042428 -0.01340195 -1.23871200
v -0.02207567 -0.03496869 -1.26171200
v 0.00146574 -0.04944078 -1.28471200
v -0.02676273 -0.02598107 -1.25021200
v -0.00935312 -0.04443448 -1.27321200
v -0.02862564 -0.01690626 -1.23871200
v -0.01778487 -0.03733420 -1.26171200
v 0.00730297 -0.04892040 -1.28471200
v -0.02350202 -0.02896402 -1.25021200
v -0.00403206 -0.04522883 -1.27321200
v -0.02642516 -0.02017324 -1.23871200
v -0.01324440 -0.03917563 -1.26171200
v 0.01303768 -0.04771329 -1.28471200
v -0.01991139 -0.03154038 -1.25021200
v 0.00134560 -0.04538825 -1.27321200
v -0.02385373 -0.02315704 -1.23871200
v -0.00851802 -0.04046712 -1.26171200
v 0.01858937 -0.04583638 -1.28471200
v -0.01604126 -0.03367399 -1.25021200
v 0.00670436 -0.04491053 -1.27321200
v -0.02094745 -0.02581576 -1.23871200
v -0.00367206 -0.04119054 -1.26171200
v 0.02388011 -0.04331604 -1.28471200
v -0.01194593 -0.03533488 -1.25021200
v 0.01196902 -0.04380236 -1.27321200
v -0.01774711 -0.02811208 -1.23871200
v 0.00122545 -0.04133573 -1.26171200
v 0.02883562 -0.04018763 -1.28471200
v -0.00768292 -0.03649975 -1.25021200
v 0.01706565 -0.04207930 -1.27321200
v -0.01429764 -0.03001377 -1.23871200
v 0.00610576 -0.04090066 -1.26171200
v 0.03338635 -0.03649508 -1.28471200
v -0.00331205 -0.03715225 -1.25021200
v 0.02192272 -0.03976554 -1.27321200
v -0.01064746 -0.03149413 -1.23871200
v 0.01090036 -0.03989144 -1.26171200
v 0.03746840 -0.03229021 -1.28471200
v 0.00110531 -0.03728321 -1.25021200
v 0.02647205 -0.03689356 -1.27321200
v -0.00684782 -0.03253239 -1.23871200
v 0.01554193 -0.03832222 -1.26171200
v 0.04102448 -0.02763206 -1.28471200
v 0.00550716 -0.03689079 -1.25021200
v 0.03064976 -0.03350368 -1.27321200
v -0.00295204 -0.03311396 -1.23871200
v 0.01996534 -0.03621505 -1.26171200
v 0.04400466 -0.02258602 -1.28471200
v 0.00983169 -0.03598051 -1.25021200
v 0.03439722 -0.02964347 -1.27321200
v 0.00098517 -0.03323069 -1.23871200
v 0.02410847 -0.03359949 -1.26171200
v 0.04636712 -0.01722292 -1.28471200
v 0.01401821 -0.03456514 -1.25021200
v 0.03766181 -0.02536714 -1.27321200
v 0.00490855 -0.03288092 -1.23871200
v 0.02791317 -0.03051228 -1.26171200
v 0.04807868 -0.01161805 -1.28471200
v 0.01800795 -0.03266455 -1.25021200
v 0.04039772 -0.02073471 -1.27321200
v 0.00876303 -0.03206959 -1.23871200
v 0.03132604 -0.02699674 -1.26171200
v 0.04911533 -0.00585009 -1.28471200
v 0.02174489 -0.03030543 -1.25021200
v 0.04256653 -0.01581121 -1.27321200
v 0.01249450 -0.03080806 -1.23871200
v 0.03429915 -0.02310222 -1.26171200
v 0.02517659 -0.02752088 -1.25021200
v 0.04413781 -0.01066575 -1.27321200
v 0.01605056 -0.02911406 -1.23871200
v 0.03679078 -0.01888340 -1.26171200
v 0.02825486 -0.02435000 -1.25021200
v 0.04508948 -0.00537057 -1.27321200
v 0.01938132 -0.02701136 -1.23871200
v 0.03876595 -0.01439949 -1.26171200
v 0.03093649 -0.02083729 -1.25021200
v 0.02244000 -0.02452948 -1.23871200
v 0.04019693 -0.00971345 -1.26171200
v 0.03318384 -0.01703208 -1.25021200
v 0.02518368 -0.02170326 -1.23871200
v 0.04106363 -0.00489106 -1.26171200
v 0.03496537 -0.01298778 -1.25021200
v 0.02757383 -0.01857237 -1.23871200
v 0.03625605 -0.00876115 -1.25021200
v 0.02957690 -0.01518077 -1.23871200
v 0.03703779 -0.00441154 -1.25021200
v 0.03116478 -0.01157606 -1.23871200
v 0.03231518 -0.00780885 -1.23871200
v 0.03301194 -0.00393203 -1.23871200
v 0.04540819 0.00000000 -1.16521200
v 0.04532692 0.00271560 -1.16521200
v 0.04508339 0.00542148 -1.16521200
v 0.04467847 0.00810795 -1.16521200
v 0.04411361 0.01076539 -1.16521200
v 0.04339084 0.01338430 -1.16521200
v 0.04251274 0.01595530 -1.16521200
v 0.04148245 0.01846918 -1.16521200
v 0.04030367 0.02091694 -1.16521200
v 0.03898061 0.02328983 -1.16521200
v 0.03751801 0.02557935 -1.16521200
v 0.03592111 0.02777730 -1.16521200
v 0.03419562 0.02987581 -1.16521200
v 0.03234771 0.03186738 -1.16521200
v 0.03038401 0.03374486 -1.16521200
v 0.02831155 0.03550156 -1.16521200
v 0.02613773 0.03713116 -1.16521200
v 0.02387035 0.03862785 -1.16521200
v 0.02151752 0.03998625 -1.16521200
v 0.01908766 0.04120152 -1.16521200
v 0.01658948 0.04226930 -1.16521200
v 0.01403190 0.04318576 -1.16521200
v 0.01142410 0.04394763 -1.16521200
v 0.00877540 0.04455218 -1.16521200
v 0.00609529 0.04499724 -1.16521200
v 0.00339336 0.04528122 -1.16521200
v 0.00067928 0.04540311 -1.16521200
v -0.00203723 0.04536247 -1.16521200
v -0.00474645 0.04515944 -1.16521200
v -0.00743868 0.04479476 -1.16521200
v -0.01010427 0.04426972 -1.16521200
v -0.01273370 0.04358620 -1.16521200
v -0.01531755 0.04274666 -1.16521200
v -0.01784656 0.04175410 -1.16521200
v -0.02031168 0.04061206 -1.16521200
v -0.02270410 0.03932465 -1.16521200
v -0.02501524 0.03789646 -1.16521200
v -0.02723683 0.03633262 -1.16521200
v -0.02936092 0.03463871 -1.16521200
v -0.03137991 0.03282081 -1.16521200
v -0.03328656 0.03088542 -1.16521200
v -0.03507406 0.02883946 -1.16521200
v -0.03673600 0.02669027 -1.16521200
v -0.03826644 0.02444553 -1.16521200
v -0.03965989 0.02211328 -1.16521200
v -0.04091137 0.01970188 -1.16521200
v -0.04201640 0.01721994 -1.16521200
v -0.04297102 0.01467637 -1.16521200
v -0.04377181 0.01208025 -1.16521200
v -0.04441592 0.00944089 -1.16521200
v -0.04490102 0.00676774 -1.16521200
v -0.04522539 0.00407036 -1.16521200
v -0.04538787 0.00135841 -1.16521200
v -0.04538787 -0.00135841 -1.16521200
v -0.04522539 -0.00407036 -1.16521200
v -0.04490102 -0.00676774 -1.16521200
v -0.04441592 -0.00944089 -1.16521200
v -0.04377181 -0.01208025 -1.16521200
v -0.04297102 -0.01467637 -1.16521200
v -0.04201640 -0.01721994 -1.16521200
v -0.04091137 -0.01970188 -1.16521200
v -0.03965989 -0.02211328 -1.16521200
v -0.03826644 -0.02444553 -1.16521200
v -0.03673600 -0.02669027 -1.16521200
v -0.03507406 -0.02883946 -1.16521200
v -0.03328656 -0.03088542 -1.16521200
v -0.03137991 -0.03282081 -1.16521200
v -0.02936092 -0.03463871 -1.16521200
v -0.02723683 -0.03633262 -1.16521200
v -0.02501524 -0.03789646 -1.16521200
v -0.02270410 -0.03932465 -1.16521200
v -0.02031168 -0.04061206 -1.16521200
v -0.01784656 -0.04175410 -1.16521200
v -0.01531755 -0.04274666 -1.16521200
v -0.01273370 -0.04358620 -1.16521200
v -0.01010427 -0.04426972 -1.16521200
v -0.00743868 -0.04479476 -1.16521200
v -0.00474645 -0.04515944 -1.16521200
v -0.00203723 -0.04536247 -1.16521200
v 0.00067928 -0.04540311 -1.16521200
v 0.00339336 -0.04528122 -1.16521200
v 0.00609529 -0.04499724 -1.16521200
v 0.00877540 -0.04455218 -1.16521200
v 0.01142410 -0.04394763 -1.16521200
v 0.01403190 -0.04318576 -1.16521200
v 0.01658948 -0.04226930 -1.16521200
v 0.01908766 -0.04120152 -1.16521200
v 0.02151752 -0.03998625 -1.16521200
v 0.02387035 -0.03862785 -1.16521200
v 0.02613773 -0.03713116 -1.16521200
v 0.02831155 -0.03550156 -1.16521200
v 0.03038401 -0.03374486 -1.16521200
v 0.03234771 -0.03186738 -1.16521200
v 0.03419562 -0.02987581 -1.16521200
v 0.03592111 -0.02777730 -1.16521200
v 0.03751801 -0.02557935 -1.16521200
v 0.03898061 -0.02328983 -1.16521200
v 0.04030367 -0.02091694 -1.16521200
v 0.04148245 -0.01846918 -1.16521200
v 0.04251274 -0.01595530 -1.16521200
v 0.04339084 -0.01338430 -1.16521200
v 0.04411361 -0.01076539 -1.16521200
v 0.04467847 -0.00810795 -1.16521200
v 0.04508339 -0.00542148 -1.16521200
v 0.04532692 -0.00271560 -1.16521200
v 0.02919098 0.00000000 -1.16521200
v 0.02913873 0.00174574 -1.16521200
v 0.02898218 0.00348523 -1.16521200
v 0.02872187 0.00521225 -1.16521200
v 0.02835875 0.00692061 -1.16521200
v 0.02789411 0.00860419 -1.16521200
v 0.02732962 0.01025698 -1.16521200
v 0.02666729 0.01187304 -1.16521200
v 0.02590950 0.01344661 -1.16521200
v 0.02505896 0.01497203 -1.16521200
v 0.02411872 0.01644387 -1.16521200
v 0.02309214 0.01785683 -1.16521200
v 0.02198290 0.01920588 -1.16521200
v 0.02079496 0.02048617 -1.16521200
v 0.01953258 0.02169313 -1.16521200
v 0.01820028 0.02282243 -1.16521200
v 0.01680283 0.02387003 -1.16521200
v 0.01534523 0.02483219 -1.16521200
v 0.01383269 0.02570545 -1.16521200
v 0.01227064 0.02648669 -1.16521200
v 0.01066466 0.02717312 -1.16521200
v 0.00902051 0.02776227 -1.16521200
v 0.00734406 0.02825205 -1.16521200
v 0.00564133 0.02864069 -1.16521200
v 0.00391840 0.02892680 -1.16521200
v 0.00218144 0.02910936 -1.16521200
v 0.00043668 0.02918772 -1.16521200
v -0.00130965 0.02916159 -1.16521200
v -0.00305129 0.02903107 -1.16521200
v -0.00478201 0.02879663 -1.16521200
v -0.00649560 0.02845910 -1.16521200
v -0.00818595 0.02801970 -1.16521200
v -0.00984699 0.02748000 -1.16521200
v -0.01147279 0.02684192 -1.16521200
v -0.01305751 0.02610775 -1.16521200
v -0.01459549 0.02528013 -1.16521200
v -0.01608122 0.02436201 -1.16521200
v -0.01750939 0.02335668 -1.16521200
v -0.01887488 0.02226774 -1.16521200
v -0.02017280 0.02109909 -1.16521200
v -0.02139850 0.01985491 -1.16521200
v -0.02254761 0.01853965 -1.16521200
v -0.02361600 0.01715803 -1.16521200
v -0.02459985 0.01571498 -1.16521200
v -0.02549564 0.01421568 -1.16521200
v -0.02630017 0.01266549 -1.16521200
v -0.02701054 0.01106996 -1.16521200
v -0.02762423 0.00943481 -1.16521200
v -0.02813902 0.00776588 -1.16521200
v -0.02855309 0.00606915 -1.16521200
v -0.02886494 0.00435069 -1.16521200
v -0.02907347 0.00261666 -1.16521200
v -0.02917792 0.00087326 -1.16521200
v -0.02917792 -0.00087326 -1.16521200
v -0.02907347 -0.00261666 -1.16521200
v -0.02886494 -0.00435069 -1.16521200
v -0.02855309 -0.00606915 -1.16521200
v -0.02813902 -0.00776588 -1.16521200
v -0.02762423 -0.00943481 -1.16521200
v -0.02701054 -0.01106996 -1.16521200
v -0.02630017 -0.01266549 -1.16521200
v -0.02549564 -0.01421568 -1.16521200
v -0.02459985 -0.01571498 -1.16521200
v -0.02361600 -0.01715803 -1.16521200
v -0.02254761 -0.01853965 -1.16521200
v -0.02139850 -0.01985491 -1.16521200
v -0.02017280 -0.02109909 -1.16521200
v -0.01887488 -0.02226774 -1.16521200
v -0.01750939 -0.02335668 -1.16521200
v -0.01608122 -0.02436201 -1.16521200
v -0.01459549 -0.02528013 -1.16521200
v -0.01305751 -0.02610775 -1.16521200
v -0.01147279 -0.02684192 -1.16521200
v -0.00984699 -0.02748000 -1.16521200
v -0.00818595 -0.02801970 -1.16521200
v -0.00649560 -0.02845910 -1.16521200
v -0.00478201 -0.02879663 -1.16521200
v -0.00305129 -0.02903107 -1.16521200
v -0.00130965 -0.02916159 -1.16521200
v 0.00043668 -0.02918772 -1.16521200
v 0.00218144 -0.02910936 -1.16521200
v 0.00391840 -0.02892680 -1.16521200
v 0.00564133 -0.02864069 -1.16521200
v 0.00734406 -0.02825205 -1.16521200
v 0.00902051 -0.02776227 -1.16521200
v 0.01066466 -0.02717312 -1.16521200
v 0.01227064 -0.02648669 -1.16521200
v 0.01383269 -0.02570545 -1.16521200
v 0.01534523 -0.02483219 -1.16521200
v 0.01680283 -0.02387003 -1.16521200
v 0.01820028 -0.02282243 -1.16521200
v 0.01953258 -0.02169313 -1.16521200
v 0.02079496 -0.02048617 -1.16521200
v 0.02198290 -0.01920588 -1.16521200
v 0.02309214 -0.01785683 -1.16521200
v 0.02411872 -0.01644387 -1.16521200
v 0.02505896 -0.01497203 -1.16521200
v 0.02590950 -0.01344661 -1.16521200
v 0.02666729 -0.01187304 -1.16521200
v 0.02732962 -0.01025698 -1.16521200
v 0.02789411 -0.00860419 -1.16521200
v 0.02835875 -0.00692061 -1.16521200
v 0.02872187 -0.00521225 -1.16521200
v 0.02898218 -0.00348523 -1.16521200
v 0.02913873 -0.00174574 -1.16521200
f 107 1 2
f 107 106 1
f 108 2 3
f 108 107 2
f 109 3 4
f 109 108 3
f 110 4 5
f 110 5 6
f 110 109 4
f 111 110 6
f 112 6 7
f 112 111 6
f 113 7 8
f 113 112 7
f 114 8 9
f 114 9 10
f 114 113 8
f 115 10 11
f 115 114 10
f 116 115 11
f 117 11 12
f 117 116 11
f 118 12 13
f 118 13 14
f 118 117 12
f 119 14 15
f 119 118 14
f 120 119 15
f 121 15 16
f 121 120 15
f 122 16 17
f 122 121 16
f 123 17 18
f 123 18 19
f 123 122 17
f 124 123 19
f 125 19 20
f 125 124 19
f 126 20 21
f 126 21 22
f 126 125 20
f 127 126 22
f 128 127 22
f 128 22 23
f 129 128 23
f 129 23 24
f 130 129 24
f 130 24 25
f 131 130 25
f 131 25 26
f 132 131 26
f 132 26 27
f 133 132 27
f 133 27 28
f 134 28 29
f 134 133 28
f 134 29 30
f 135 134 30
f 136 30 31
f 136 135 30
f 137 31 32
f 137 136 31
f 138 32 33
f 138 137 32
f 139 33 34
f 139 138 33
f 140 34 35
f 140 139 34
f 141 35 36
f 141 140 35
f 142 36 37
f 142 141 36
f 143 37 38
f 143 38 39
f 143 142 37
f 144 143 39
f 145 39 40
f 145 40 41
f 145 144 39
f 146 145 41
f 147 41 42
f 147 146 41
f 148 42 43
f 148 43 44
f 148 147 42
f 149 148 44
f 150 44 45
f 150 149 44
f 151 45 46
f 151 46 47
f 151 150 45
f 152 151 47
f 153 47 48
f 153 48 49
f 153 152 47
f 154 153 49
f 155 154 49
f 155 49 50
f 155 50 51
f 156 155 51
f 157 156 51
f 157 51 52
f 158 157 52
f 158 52 53
f 158 53 54
f 159 158 54
f 160 159 54
f 160 54 55
f 160 55 56
f 161 160 56
f 162 161 56
f 162 56 57
f 163 162 57
f 163 57 58
f 163 58 59
f 164 163 59
f 165 164 59
f 165 59 60
f 166 165 60
f 166 60 61
f 166 61 62
f 167 166 62
f 167 62 63
f 168 63 64
f 168 167 63
f 169 168 64
f 170 64 65
f 170 65 66
f 170 169 64
f 171 66 67
f 171 170 66
f 172 171 67
f 173 67 68
f 173 68 69
f 173 172 67
f 174 173 69
f 175 69 70
f 175 70 71
f 175 174 69
f 176 71 72
f 176 175 71
f 177 72 73
f 177 176 72
f 178 177 73
f 179 178 73
f 179 73 74
f 179 74 75
f 180 179 75
f 181 180 75
f 181 75 76
f 181 76 77
f 182 181 77
f 182 77 78
f 183 182 78
f 184 183 78
f 184 78 79
f 185 184 79
f 185 79 80
f 185 80 81
f 186 185 81
f 187 186 81
f 187 81 82
f 188 187 82
f 188 82 83
f 189 188 83
f 189 83 84
f 190 189 84
f 190 84 85
f 191 190 85
f 191 85 86
f 192 191 86
f 192 86 87
f 193 192 87
f 193 87 88
f 194 193 88
f 194 88 89
f 194 89 90
f 195 194 90
f 196 195 90
f 196 90 91
f 196 91 92
f 197 196 92
f 198 197 92
f 198 92 93
f 199 198 93
f 199 93 94
f 200 199 94
f 200 94 95
f 201 200 95
f 201 95 96
f 202 96 97
f 202 201 96
f 203 97 98
f 203 202 97
f 204 203 98
f 204 98 99
f 205 204 99
f 205 99 100
f 206 205 100
f 206 100 101
f 207 101 102
f 207 206 101
f 208 102 103
f 208 207 102
f 209 103 104
f 209 208 103
f 210 104 105
f 210 209 104
f 106 105 1
f 106 210 105
f 277 67 66
f 276 277 66
f 278 67 277
f 278 68 67
f 275 276 66
f 275 66 65
f 279 68 278
f 279 69 68
f 274 65 64
f 274 275 65
f 280 69 279
f 280 70 69
f 280 71 70
f 273 64 63
f 273 274 64
f 281 71 280
f 272 273 63
f 272 63 62
f 282 71 281
f 282 72 71
f 282 73 72
f 271 272 62
f 271 62 61
f 283 73 282
f 270 271 61
f 270 61 60
f 284 74 73
f 284 73 283
f 269 59 58
f 269 60 59
f 269 270 60
f 285 75 74
f 285 76 75
f 285 74 284
f 268 58 57
f 268 269 58
f 286 77 76
f 286 76 285
f 267 57 56
f 267 268 57
f 287 77 286
f 287 78 77
f 266 267 56
f 288 78 287
f 265 266 56
f 265 56 55
f 289 78 288
f 289 79 78
f 289 80 79
f 264 265 55
f 264 55 54
f 290 80 289
f 263 264 54
f 263 53 52
f 263 54 53
f 291 81 80
f 291 80 290
f 262 263 52
f 292 81 291
f 292 82 81
f 261 262 52
f 261 52 51
f 293 82 292
f 293 83 82
f 260 261 51
f 260 51 50
f 294 83 293
f 294 84 83
f 259 50 49
f 259 260 50
f 295 84 294
f 295 85 84
f 258 259 49
f 258 49 48
f 296 85 295
f 296 86 85
f 257 48 47
f 257 258 48
f 297 86 296
f 297 87 86
f 256 257 47
f 256 46 45
f 256 47 46
f 298 87 297
f 298 88 87
f 255 256 45
f 299 89 88
f 299 88 298
f 254 45 44
f 254 255 45
f 300 89 299
f 300 90 89
f 253 44 43
f 253 254 44
f 42 253 43
f 301 90 300
f 301 91 90
f 252 253 42
f 302 91 301
f 302 92 91
f 251 252 42
f 251 42 41
f 93 92 302
f 93 302 303
f 40 251 41
f 40 250 251
f 94 93 303
f 94 303 304
f 39 250 40
f 39 249 250
f 95 94 304
f 95 304 305
f 38 249 39
f 38 248 249
f 96 95 305
f 96 305 306
f 37 248 38
f 37 247 248
f 97 307 308
f 97 96 306
f 97 306 307
f 36 246 247
f 36 247 37
f 98 308 309
f 98 97 308
f 35 245 246
f 35 246 36
f 99 98 309
f 34 244 245
f 34 245 35
f 100 309 310
f 100 310 311
f 100 99 309
f 33 242 243
f 33 243 244
f 33 244 34
f 101 100 311
f 32 241 242
f 32 242 33
f 102 311 312
f 102 312 313
f 102 101 311
f 31 241 32
f 103 313 314
f 103 102 313
f 30 241 31
f 30 240 241
f 104 103 314
f 29 240 30
f 29 238 239
f 29 239 240
f 105 314 315
f 105 104 314
f 28 238 29
f 1 315 211
f 1 105 315
f 27 238 28
f 27 237 238
f 2 211 212
f 2 212 213
f 2 1 211
f 26 236 237
f 26 237 27
f 3 2 213
f 25 234 235
f 25 235 236
f 25 236 26
f 4 213 214
f 4 214 215
f 4 3 213
f 24 234 25
f 5 4 215
f 23 233 234
f 23 234 24
f 6 215 216
f 6 5 215
f 22 232 233
f 22 233 23
f 7 216 217
f 7 6 216
f 21 231 232
f 21 232 22
f 8 217 218
f 8 7 217
f 20 230 231
f 20 231 21
f 9 218 219
f 9 219 220
f 9 8 218
f 19 230 20
f 19 229 230
f 10 9 220
f 18 229 19
f 18 227 228
f 18 228 229
f 11 220 221
f 11 221 222
f 11 10 220
f 17 227 18
f 12 11 222
f 16 227 17
f 16 226 227
f 13 12 222
f 13 222 223
f 15 225 226
f 15 226 16
f 14 223 224
f 14 224 225
f 14 225 15
f 14 13 223
f 316 106 107
f 318 317 316
f 316 210 106
f 317 421 316
f 422 107 108
f 422 108 109
f 422 319 318
f 422 320 319
f 422 316 107
f 422 318 316
f 423 109 110
f 423 110 111
f 423 321 320
f 423 322 321
f 423 422 109
f 423 320 422
f 424 111 112
f 424 112 113
f 424 323 322
f 424 324 323
f 424 423 111
f 424 322 423
f 425 113 114
f 425 114 115
f 425 324 424
f 425 325 324
f 425 326 325
f 425 424 113
f 426 115 116
f 426 116 117
f 426 327 326
f 426 328 327
f 426 425 115
f 426 326 425
f 427 117 118
f 427 118 119
f 427 329 328
f 427 330 329
f 427 426 117
f 427 328 426
f 428 427 119
f 428 119 120
f 428 120 121
f 428 330 427
f 428 331 330
f 428 332 331
f 429 121 122
f 429 122 123
f 429 333 332
f 429 334 333
f 429 428 121
f 429 332 428
f 430 123 124
f 430 124 125
f 430 335 334
f 430 336 335
f 430 429 123
f 430 334 429
f 431 125 126
f 431 126 127
f 431 430 125
f 431 337 336
f 431 338 337
f 431 336 430
f 432 127 128
f 432 128 129
f 432 339 338
f 432 340 339
f 432 431 127
f 432 338 431
f 433 340 432
f 433 129 130
f 433 130 131
f 433 341 340
f 433 342 341
f 433 432 129
f 434 131 132
f 434 132 133
f 434 433 131
f 434 343 342
f 434 344 343
f 434 342 433
f 435 133 134
f 435 134 135
f 435 345 344
f 435 346 345
f 435 434 133
f 435 344 434
f 436 135 136
f 436 136 137
f 436 347 346
f 436 348 347
f 436 435 135
f 436 346 435
f 437 436 137
f 437 137 138
f 437 138 139
f 437 349 348
f 437 350 349
f 437 348 436
f 438 139 140
f 438 140 141
f 438 351 350
f 438 352 351
f 438 437 139
f 438 350 437
f 439 352 438
f 439 141 142
f 439 142 143
f 439 353 352
f 439 354 353
f 439 438 141
f 440 439 143
f 440 143 144
f 440 144 145
f 440 354 439
f 440 355 354
f 440 356 355
f 441 145 146
f 441 146 147
f 441 357 356
f 441 358 357
f 441 440 145
f 441 356 440
f 442 358 441
f 442 147 148
f 442 148 149
f 442 359 358
f 442 360 359
f 442 441 147
f 443 149 150
f 443 150 151
f 443 361 360
f 443 362 361
f 443 442 149
f 443 360 442
f 444 151 152
f 444 152 153
f 444 363 362
f 444 364 363
f 444 443 151
f 444 362 443
f 445 444 153
f 445 364 444
f 445 153 154
f 445 154 155
f 445 365 364
f 445 366 365
f 446 445 155
f 446 366 445
f 446 155 156
f 446 156 157
f 446 367 366
f 446 368 367
f 447 446 157
f 447 368 446
f 447 157 158
f 447 369 368
f 448 447 158
f 448 158 159
f 448 159 160
f 448 370 369
f 448 371 370
f 448 369 447
f 449 371 448
f 449 160 161
f 449 161 162
f 449 372 371
f 449 373 372
f 449 448 160
f 450 162 163
f 450 163 164
f 450 374 373
f 450 375 374
f 450 449 162
f 450 373 449
f 451 164 165
f 451 165 166
f 451 376 375
f 451 377 376
f 451 450 164
f 451 375 450
f 452 451 166
f 452 166 167
f 452 167 168
f 452 378 377
f 452 379 378
f 452 377 451
f 453 452 168
f 453 379 452
f 453 168 169
f 453 169 170
f 453 380 379
f 453 381 380
f 454 381 453
f 454 453 170
f 454 170 171
f 454 171 172
f 454 382 381
f 454 383 382
f 455 454 172
f 455 383 454
f 455 172 173
f 455 173 174
f 455 384 383
f 455 385 384
f 456 385 455
f 456 455 174
f 456 174 175
f 456 175 176
f 456 386 385
f 456 387 386
f 457 456 176
f 457 176 177
f 457 177 178
f 457 388 387
f 457 389 388
f 457 387 456
f 458 457 178
f 458 389 457
f 458 178 179
f 458 179 180
f 458 390 389
f 458 391 390
f 459 180 181
f 459 181 182
f 459 458 180
f 459 392 391
f 459 393 392
f 459 391 458
f 460 182 183
f 460 183 184
f 460 459 182
f 460 394 393
f 460 395 394
f 460 393 459
f 461 460 184
f 461 395 460
f 461 184 185
f 461 185 186
f 461 396 395
f 461 397 396
f 462 397 461
f 462 186 187
f 462 187 188
f 462 398 397
f 462 399 398
f 462 461 186
f 463 462 188
f 463 399 462
f 463 188 189
f 463 189 190
f 463 400 399
f 463 401 400
f 464 401 463
f 464 463 190
f 464 190 191
f 464 191 192
f 464 402 401
f 464 403 402
f 465 403 464
f 465 464 192
f 465 192 193
f 465 193 194
f 465 404 403
f 465 405 404
f 466 405 465
f 466 465 194
f 466 194 195
f 466 195 196
f 466 406 405
f 466 407 406
f 467 407 466
f 467 196 197
f 467 197 198
f 467 466 196
f 467 408 407
f 467 409 408
f 468 409 467
f 468 467 198
f 468 198 199
f 468 199 200
f 468 410 409
f 468 411 410
f 469 412 411
f 469 413 412
f 469 468 200
f 469 411 468
f 469 200 201
f 469 201 202
f 470 414 413
f 470 415 414
f 470 413 469
f 470 469 202
f 470 202 203
f 470 203 204
f 471 416 415
f 471 417 416
f 471 415 470
f 471 470 204
f 471 204 205
f 471 205 206
f 472 206 207
f 472 207 208
f 472 418 417
f 472 419 418
f 472 471 206
f 472 417 471
f 473 208 209
f 473 209 210
f 473 420 419
f 473 421 420
f 473 210 316
f 473 472 208
f 473 316 421
f 473 419 472
f 475 212 211
f 475 211 474
f 476 213 212
f 476 212 475
f 477 214 213
f 477 213 476
f 478 215 214
f 478 214 477
f 479 216 215
f 479 215 478
f 217 216 479
f 480 217 479
f 481 218 217
f 481 217 480
f 482 219 218
f 482 218 481
f 483 220 219
f 483 219 482
f 484 221 220
f 484 220 483
f 222 221 484
f 485 222 484
f 486 223 222
f 486 222 485
f 487 224 223
f 487 223 486
f 488 225 224
f 488 224 487
f 489 226 225
f 489 225 488
f 227 226 489
f 490 227 489
f 491 228 227
f 491 227 490
f 492 229 228
f 492 228 491
f 493 230 229
f 493 229 492
f 494 231 230
f 494 230 493
f 495 232 231
f 495 231 494
f 496 232 495
f 496 233 232
f 497 234 233
f 497 233 496
f 498 234 497
f 498 235 234
f 499 235 498
f 499 236 235
f 500 236 499
f 500 237 236
f 501 237 500
f 501 238 237
f 502 238 501
f 502 239 238
f 503 239 502
f 503 240 239
f 504 241 240
f 504 240 503
f 505 242 241
f 505 241 504
f 506 243 242
f 506 242 505
f 507 244 243
f 507 243 506
f 508 245 244
f 508 244 507
f 509 246 245
f 509 245 508
f 510 247 246
f 510 246 509
f 511 248 247
f 511 247 510
f 512 249 248
f 512 248 511
f 513 250 249
f 513 249 512
f 514 251 250
f 514 250 513
f 515 252 251
f 515 251 514
f 516 253 252
f 516 252 515
f 517 254 253
f 517 253 516
f 518 255 254
f 518 254 517
f 519 256 255
f 519 255 518
f 520 257 256
f 520 256 519
f 521 258 257
f 521 257 520
f 522 258 521
f 522 259 258
f 523 259 522
f 523 260 259
f 524 260 523
f 524 261 260
f 525 261 524
f 525 262 261
f 526 262 525
f 526 263 262
f 527 263 526
f 527 264 263
f 528 264 527
f 528 265 264
f 529 265 528
f 529 266 265
f 530 266 529
f 530 267 266
f 531 267 530
f 531 268 267
f 532 268 531
f 532 269 268
f 270 269 532
f 533 270 532
f 271 270 533
f 534 271 533
f 535 271 534
f 535 272 271
f 536 272 535
f 536 273 272
f 537 274 273
f 537 273 536
f 538 275 274
f 538 274 537
f 539 276 275
f 539 275 538
f 540 277 276
f 540 276 539
f 278 277 540
f 541 278 540
f 542 279 278
f 542 278 541
f 543 280 279
f 543 279 542
f 544 281 280
f 544 280 543
f 282 281 544
f 545 282 544
f 546 283 282
f 546 282 545
f 284 283 546
f 547 284 546
f 548 284 547
f 548 285 284
f 286 285 548
f 549 286 548
f 550 286 549
f 550 287 286
f 288 287 550
f 551 288 550
f 289 288 551
f 552 289 551
f 290 289 552
f 553 290 552
f 554 290 553
f 554 291 290
f 555 291 554
f 555 292 291
f 293 292 555
f 556 293 555
f 294 293 556
f 557 294 556
f 558 294 557
f 558 295 294
f 559 295 558
f 559 296 295
f 297 296 559
f 560 297 559
f 298 297 560
f 561 298 560
f 562 298 561
f 562 299 298
f 300 299 562
f 563 300 562
f 301 300 563
f 564 301 563
f 302 301 564
f 565 302 564
f 566 302 565
f 566 303 302
f 304 303 566
f 567 304 566
f 568 304 567
f 568 305 304
f 306 305 568
f 569 306 568
f 307 306 569
f 570 307 569
f 571 308 307
f 571 307 570
f 309 308 571
f 572 309 571
f 573 309 572
f 573 310 309
f 311 310 573
f 574 311 573
f 575 312 311
f 575 311 574
f 576 313 312
f 576 312 575
f 314 313 576
f 577 314 576
f 315 314 577
f 578 315 577
f 474 211 315
f 474 315 578
f 688 689 690
f 691 346 347
f 691 347 348
f 691 692 346
f 693 602 694
f 693 603 602
f 693 604 603
f 693 694 695
f 693 696 697
f 693 695 696
f 698 697 699
f 579 317 318
f 698 699 700
f 701 688 690
f 701 690 692
f 702 348 349
f 702 349 350
f 702 691 348
f 703 604 693
f 703 605 604
f 703 606 605
f 703 693 697
f 704 698 700
f 704 700 688
f 705 692 691
f 705 701 692
f 706 350 351
f 706 351 352
f 706 702 350
f 707 697 698
f 707 607 606
f 707 608 607
f 707 606 703
f 707 703 697
f 708 688 701
f 708 704 688
f 709 705 691
f 709 702 706
f 709 691 702
f 710 706 352
f 584 583 582
f 710 352 353
f 710 353 354
f 711 698 704
f 711 707 698
f 711 609 608
f 711 610 609
f 711 608 707
f 712 705 709
f 712 701 705
f 712 708 701
f 713 709 706
f 714 354 355
f 714 710 354
f 714 355 356
f 715 704 708
f 715 611 610
f 715 612 611
f 715 610 711
f 715 711 704
f 716 712 709
f 717 713 706
f 717 706 710
f 718 356 357
f 718 357 358
f 718 714 356
f 719 708 712
f 719 613 612
f 719 614 613
f 719 612 715
f 719 712 716
f 719 715 708
f 720 709 713
f 720 713 717
f 720 716 709
f 721 717 710
f 721 714 718
f 721 710 714
f 722 718 358
f 722 358 359
f 722 359 360
f 723 716 720
f 723 614 719
f 723 719 716
f 723 615 614
f 723 616 615
f 724 720 717
f 724 717 721
f 725 721 718
f 726 722 360
f 726 360 361
f 726 361 362
f 727 723 720
f 727 617 616
f 727 618 617
f 727 616 723
f 728 724 721
f 728 721 725
f 729 725 718
f 729 718 722
f 730 726 362
f 730 362 363
f 730 363 364
f 731 727 720
f 731 720 724
f 731 619 618
f 731 620 619
f 731 724 728
f 731 618 727
f 732 728 725
f 733 729 722
f 733 722 726
f 733 726 730
f 734 730 364
f 734 364 365
f 734 365 366
f 735 621 620
f 735 622 621
f 735 731 728
f 735 620 731
f 736 725 729
f 736 732 725
f 737 733 730
f 738 366 367
f 738 367 368
f 738 734 366
f 739 622 735
f 739 623 622
f 739 624 623
f 739 728 732
f 739 735 728
f 740 729 733
f 740 736 729
f 740 733 737
f 741 730 734
f 741 737 730
f 742 368 369
f 742 738 368
f 743 736 740
f 743 625 624
f 743 626 625
f 743 624 739
f 743 732 736
f 743 739 732
f 744 737 741
f 744 740 737
f 745 741 734
f 745 738 742
f 745 734 738
f 746 369 370
f 746 370 371
f 746 742 369
f 747 627 626
f 747 628 627
f 747 743 740
f 747 626 743
f 748 744 741
f 749 745 742
f 750 371 372
f 750 372 373
f 750 746 371
f 751 747 740
f 751 740 744
f 751 744 748
f 751 629 628
f 751 630 629
f 751 628 747
f 752 748 741
f 752 741 745
f 753 742 746
f 753 746 750
f 753 749 742
f 754 750 373
f 754 373 374
f 754 374 375
f 755 631 630
f 755 632 631
f 755 751 748
f 755 630 751
f 756 752 745
f 756 745 749
f 757 753 750
f 758 754 375
f 758 375 376
f 758 376 377
f 759 748 752
f 759 755 748
f 759 752 756
f 759 632 755
f 759 633 632
f 759 634 633
f 760 749 753
f 760 756 749
f 761 754 758
f 761 750 754
f 761 757 750
f 762 758 377
f 762 377 378
f 762 378 379
f 763 759 756
f 763 634 759
f 763 635 634
f 764 753 757
f 764 760 753
f 764 757 761
f 765 761 758
f 766 762 379
f 766 379 380
f 766 380 381
f 767 760 764
f 767 763 756
f 767 756 760
f 767 635 763
f 767 636 635
f 767 637 636
f 768 764 761
f 769 765 758
f 769 758 762
f 770 766 381
f 770 381 382
f 770 382 383
f 771 637 767
f 771 638 637
f 771 639 638
f 771 767 764
f 772 768 761
f 772 765 769
f 772 761 765
f 773 762 766
f 773 769 762
f 774 770 383
f 774 383 384
f 774 384 385
f 775 764 768
f 775 640 639
f 775 641 640
f 775 639 771
f 775 771 764
f 776 772 769
f 777 773 766
f 777 766 770
f 778 774 385
f 778 385 386
f 778 386 387
f 779 775 768
f 779 642 641
f 779 643 642
f 779 768 772
f 779 641 775
f 780 776 769
f 780 769 773
f 781 774 778
f 781 777 770
f 781 770 774
f 782 778 387
f 782 387 388
f 782 388 389
f 783 776 780
f 783 772 776
f 783 644 643
f 783 645 644
f 783 643 779
f 783 779 772
f 784 777 781
f 784 780 773
f 784 773 777
f 785 781 778
f 786 782 389
f 786 389 390
f 786 390 391
f 787 645 783
f 787 783 780
f 787 646 645
f 787 647 646
f 788 784 781
f 789 778 782
f 789 785 778
f 790 786 391
f 790 391 392
f 790 392 393
f 791 647 787
f 791 780 784
f 791 787 780
f 791 648 647
f 791 649 648
f 792 788 781
f 792 781 785
f 793 782 786
f 793 789 782
f 794 393 394
f 794 394 395
f 794 790 393
f 795 784 788
f 795 649 791
f 795 791 784
f 795 650 649
f 795 651 650
f 796 792 785
f 796 785 789
f 797 793 786
f 797 790 794
f 797 786 790
f 798 794 395
f 798 395 396
f 798 396 397
f 799 788 792
f 799 651 795
f 799 795 788
f 799 792 796
f 799 652 651
f 799 653 652
f 800 789 793
f 800 796 789
f 800 793 797
f 801 797 794
f 802 397 398
f 802 398 399
f 802 798 397
f 803 799 796
f 803 653 799
f 803 654 653
f 803 655 654
f 804 800 797
f 805 801 794
f 805 794 798
f 806 399 400
f 806 400 401
f 806 802 399
f 807 796 800
f 807 803 796
f 807 656 655
f 807 657 656
f 807 655 803
f 808 804 797
f 808 797 801
f 809 798 802
f 809 805 798
f 809 802 806
f 810 806 401
f 810 401 402
f 810 402 403
f 811 804 808
f 811 800 804
f 811 807 800
f 811 658 657
f 811 659 658
f 811 657 807
f 812 801 805
f 812 808 801
f 813 809 806
f 814 810 403
f 814 403 404
f 814 404 405
f 815 659 811
f 815 660 659
f 815 661 660
f 815 811 808
f 816 812 805
f 816 805 809
f 817 813 806
f 817 806 810
f 818 814 405
f 818 405 406
f 818 406 407
f 819 815 808
f 819 661 815
f 819 812 816
f 819 808 812
f 819 662 661
f 819 663 662
f 820 816 809
f 820 809 813
f 821 814 818
f 821 817 810
f 821 810 814
f 822 818 407
f 822 407 408
f 822 408 409
f 823 663 819
f 823 664 663
f 823 665 664
f 823 819 816
f 824 820 813
f 824 813 817
f 825 818 822
f 825 821 818
f 826 822 409
f 826 409 410
f 826 410 411
f 827 823 816
f 827 665 823
f 827 816 820
f 827 666 665
f 827 667 666
f 828 817 821
f 828 824 817
f 829 825 822
f 830 826 411
f 830 411 412
f 830 412 413
f 831 820 824
f 831 827 820
f 831 667 827
f 831 668 667
f 831 669 668
f 832 828 821
f 832 821 825
f 833 826 830
f 833 822 826
f 833 829 822
f 834 830 413
f 834 413 414
f 834 414 415
f 835 824 828
f 835 831 824
f 835 828 832
f 835 669 831
f 835 670 669
f 835 671 670
f 836 825 829
f 836 832 825
f 837 833 830
f 838 834 415
f 838 415 416
f 838 416 417
f 839 835 832
f 839 671 835
f 839 832 836
f 839 672 671
f 839 673 672
f 840 829 833
f 840 836 829
f 841 830 834
f 841 837 830
f 841 834 838
f 842 417 418
f 842 418 419
f 842 838 417
f 843 675 674
f 843 839 836
f 843 673 839
f 843 836 840
f 843 674 673
f 844 833 837
f 844 840 833
f 845 841 838
f 845 838 842
f 846 419 420
f 846 842 419
f 846 420 421
f 846 579 580
f 846 421 579
f 847 676 675
f 847 677 676
f 847 840 844
f 847 843 840
f 847 675 843
f 848 844 837
f 848 837 841
f 849 845 842
f 850 678 677
f 850 679 678
f 850 847 844
f 850 677 847
f 851 841 845
f 851 848 841
f 852 842 846
f 852 849 842
f 852 846 580
f 853 680 679
f 853 681 680
f 853 844 848
f 853 850 844
f 853 848 851
f 853 679 850
f 854 845 849
f 854 851 845
f 855 682 681
f 855 683 682
f 855 681 853
f 855 853 851
f 855 851 854
f 856 580 581
f 856 581 582
f 856 852 580
f 856 849 852
f 856 854 849
f 857 684 683
f 857 685 684
f 857 855 854
f 857 683 855
f 858 686 685
f 858 687 686
f 858 856 582
f 858 854 856
f 858 857 854
f 858 685 857
f 858 582 687
f 579 421 317
f 583 687 582
f 859 318 319
f 859 319 320
f 859 579 318
f 860 320 321
f 860 321 322
f 860 859 320
f 861 580 579
f 861 859 860
f 861 579 859
f 862 322 323
f 862 323 324
f 862 860 322
f 863 860 862
f 863 861 860
f 864 324 325
f 864 325 326
f 864 862 324
f 865 581 580
f 865 580 861
f 866 862 864
f 866 863 862
f 867 326 327
f 867 327 328
f 867 864 326
f 868 863 866
f 868 861 863
f 868 865 861
f 869 866 864
f 870 867 328
f 870 328 329
f 870 329 330
f 871 865 868
f 871 585 584
f 871 586 585
f 871 582 581
f 871 584 582
f 871 581 865
f 872 868 866
f 873 864 867
f 873 867 870
f 873 869 864
f 874 330 331
f 874 331 332
f 874 870 330
f 875 868 872
f 875 587 586
f 875 588 587
f 875 871 868
f 875 586 871
f 876 872 866
f 876 866 869
f 877 873 870
f 878 332 333
f 878 333 334
f 878 874 332
f 879 589 588
f 879 590 589
f 879 872 876
f 879 875 872
f 879 588 875
f 880 869 873
f 880 876 869
f 881 877 870
f 881 870 874
f 881 874 878
f 882 334 335
f 882 335 336
f 882 878 334
f 883 591 590
f 883 592 591
f 883 590 879
f 883 879 876
f 884 873 877
f 884 880 873
f 885 881 878
f 886 336 337
f 886 337 338
f 886 882 336
f 887 592 883
f 887 593 592
f 887 594 593
f 887 880 884
f 887 876 880
f 887 883 876
f 888 877 881
f 888 884 877
f 889 878 882
f 889 885 878
f 890 338 339
f 890 339 340
f 890 886 338
f 891 595 594
f 891 596 595
f 891 594 887
f 891 887 884
f 892 888 881
f 892 881 885
f 893 886 890
f 893 882 886
f 893 889 882
f 689 890 340
f 689 340 341
f 689 341 342
f 894 597 596
f 894 598 597
f 894 596 891
f 894 891 884
f 894 884 888
f 695 889 893
f 695 892 885
f 695 885 889
f 699 893 890
f 690 689 342
f 690 342 343
f 690 343 344
f 895 599 598
f 895 600 599
f 895 892 695
f 895 888 892
f 895 598 894
f 895 894 888
f 696 695 893
f 700 890 689
f 700 699 890
f 692 344 345
f 692 345 346
f 692 690 344
f 694 600 895
f 694 601 600
f 694 602 601
f 694 895 695
f 697 696 893
f 697 893 699
f 688 700 689
f 896 475 474
f 902 900 901
f 896 474 578
f 901 900 1005
f 1006 476 475
f 1006 477 476
f 1006 475 896
f 1007 478 477
f 1007 479 478
f 1007 477 1006
f 1008 480 479
f 1008 481 480
f 1008 479 1007
f 1009 896 897
f 1009 1006 896
f 1010 482 481
f 1010 483 482
f 1010 481 1008
f 1011 1006 1009
f 1011 1008 1007
f 1011 1007 1006
f 1012 484 483
f 1012 485 484
f 1012 483 1010
f 1013 1008 1011
f 1014 1011 1009
f 1014 897 898
f 1014 1009 897
f 1015 486 485
f 1015 487 486
f 1015 485 1012
f 1016 1012 1010
f 1016 1010 1008
f 1016 1008 1013
f 1017 1011 1014
f 1018 488 487
f 1018 489 488
f 1018 487 1015
f 1019 1012 1016
f 1020 1016 1013
f 1020 1011 1017
f 1020 1013 1011
f 1021 490 489
f 1021 491 490
f 1021 489 1018
f 1022 898 899
f 1022 1014 898
f 1023 1015 1012
f 1023 1012 1019
f 1024 1016 1020
f 1025 492 491
f 1025 493 492
f 1025 491 1021
f 1026 1017 1014
f 1026 1014 1022
f 1027 1018 1015
f 1027 1015 1023
f 1028 1023 1019
f 1028 1019 1016
f 1028 1016 1024
f 1029 494 493
f 1029 495 494
f 1029 493 1025
f 1030 1017 1026
f 1030 1020 1017
f 1031 1018 1027
f 1031 1021 1018
f 1032 902 903
f 1032 903 904
f 1032 899 900
f 1032 1022 899
f 1032 900 902
f 1033 1023 1028
f 1034 495 1029
f 1034 496 495
f 1034 497 496
f 1035 1024 1020
f 1035 1020 1030
f 1036 1021 1031
f 1036 1025 1021
f 1037 1026 1022
f 1037 904 905
f 1037 905 906
f 1037 1032 904
f 1037 1022 1032
f 1038 1031 1027
f 1038 1027 1023
f 1038 1023 1033
f 1039 498 497
f 1039 499 498
f 1039 497 1034
f 1040 1028 1024
f 1040 1024 1035
f 1041 1029 1025
f 1041 1025 1036
f 1041 1034 1029
f 1042 1030 1026
f 1042 906 907
f 1042 907 908
f 1042 1037 906
f 1042 1026 1037
f 1043 1036 1031
f 1043 1031 1038
f 1044 500 499
f 1044 501 500
f 1044 499 1039
f 1045 1028 1040
f 1045 1033 1028
f 1046 1034 1041
f 1046 1039 1034
f 1047 908 909
f 1047 909 910
f 1047 1030 1042
f 1047 1042 908
f 1047 1035 1030
f 1048 1036 1043
f 1049 502 501
f 1049 503 502
f 1049 501 1044
f 1050 1033 1045
f 1050 1038 1033
f 1051 1039 1046
f 1051 1044 1039
f 1052 910 911
f 1052 911 912
f 1052 1035 1047
f 1052 1047 910
f 1052 1045 1040
f 1052 1040 1035
f 1053 1036 1048
f 1053 1041 1036
f 1054 503 1049
f 1054 504 503
f 1054 505 504
f 1055 1043 1038
f 1055 1038 1050
f 1056 1044 1051
f 1057 912 913
f 1057 913 914
f 1057 1045 1052
f 1057 1052 912
f 1058 1046 1041
f 1058 1041 1053
f 1059 506 505
f 1059 507 506
f 1059 505 1054
f 1060 1048 1043
f 1060 1043 1055
f 1061 1049 1044
f 1061 1044 1056
f 1061 1054 1049
f 1062 1045 1057
f 1062 914 915
f 1062 915 916
f 1062 1055 1050
f 1062 1057 914
f 1062 1050 1045
f 1063 1051 1046
f 1063 1046 1058
f 1064 507 1059
f 1064 508 507
f 1064 509 508
f 1065 1058 1053
f 1065 1048 1060
f 1065 1053 1048
f 1066 1054 1061
f 1067 1062 916
f 1067 1055 1062
f 1067 916 917
f 1067 917 918
f 1068 1056 1051
f 1068 1051 1063
f 1068 1061 1056
f 1069 509 1064
f 1069 510 509
f 1069 511 510
f 1070 1058 1065
f 1071 1064 1059
f 1071 1059 1054
f 1071 1054 1066
f 1072 918 919
f 1072 919 920
f 1072 1055 1067
f 1072 1060 1055
f 1072 1067 918
f 1073 1061 1068
f 1074 512 511
f 1074 513 512
f 1074 511 1069
f 1075 1068 1063
f 1075 1058 1070
f 1075 1063 1058
f 1076 1069 1064
f 1076 1064 1071
f 1077 1072 920
f 1077 920 921
f 1077 921 922
f 1077 1060 1072
f 1077 1065 1060
f 1077 1070 1065
f 1078 1061 1073
f 1078 1066 1061
f 1079 514 513
f 1079 515 514
f 1079 513 1074
f 1080 1068 1075
f 1081 1069 1076
f 1082 922 923
f 1082 923 924
f 1082 1070 1077
f 1082 1075 1070
f 1082 1077 922
f 1083 1066 1078
f 1083 1071 1066
f 1083 1076 1071
f 1084 516 515
f 1084 517 516
f 1084 515 1079
f 1085 1068 1080
f 1085 1073 1068
f 1086 1074 1069
f 1086 1069 1081
f 1087 1080 1075
f 1087 1082 924
f 1087 924 925
f 1087 925 926
f 1087 1075 1082
f 1088 1076 1083
f 1089 517 1084
f 1089 518 517
f 1089 519 518
f 1090 1073 1085
f 1090 1078 1073
f 1091 1079 1074
f 1091 1074 1086
f 1092 926 927
f 1092 927 928
f 1092 1080 1087
f 1092 1087 926
f 1093 1081 1076
f 1093 1076 1088
f 1094 520 519
f 1094 521 520
f 1094 519 1089
f 1095 1083 1078
f 1095 1088 1083
f 1095 1078 1090
f 1096 1089 1084
f 1096 1084 1079
f 1096 1079 1091
f 1097 1085 1080
f 1097 928 929
f 1097 929 930
f 1097 1092 928
f 1097 1090 1085
f 1097 1080 1092
f 1098 1086 1081
f 1098 1081 1093
f 1098 1091 1086
f 1099 522 521
f 1099 523 522
f 1099 521 1094
f 1100 1088 1095
f 1101 1089 1096
f 1102 1090 1097
f 1102 930 931
f 1102 931 932
f 1102 1097 930
f 1103 1091 1098
f 1103 1096 1091
f 1104 523 1099
f 1104 524 523
f 1104 525 524
f 1105 1088 1100
f 1105 1093 1088
f 1106 1094 1089
f 1106 1089 1101
f 1107 1095 1090
f 1107 932 933
f 1107 933 934
f 1107 1102 932
f 1107 1090 1102
f 1108 1096 1103
f 1109 526 525
f 1109 527 526
f 1109 525 1104
f 1110 1093 1105
f 1110 1098 1093
f 1111 1099 1094
f 1111 1094 1106
f 1112 1100 1095
f 1112 1105 1100
f 1112 934 935
f 1112 935 936
f 1112 1095 1107
f 1112 1107 934
f 1113 1096 1108
f 1113 1101 1096
f 1114 527 1109
f 1114 528 527
f 1115 1103 1098
f 1115 1098 1110
f 1116 1104 1099
f 1116 1099 1111
f 1117 1112 936
f 1117 1105 1112
f 1117 936 937
f 1117 937 938
f 1118 1111 1106
f 1118 1106 1101
f 1118 1101 1113
f 1119 528 1114
f 1119 529 528
f 1119 530 529
f 1120 1108 1103
f 1120 1103 1115
f 1121 1109 1104
f 1121 1104 1116
f 1122 1110 1105
f 1122 1117 938
f 1122 938 939
f 1122 939 940
f 1122 1105 1117
f 1123 1111 1118
f 1123 1116 1111
f 1124 530 1119
f 1124 531 530
f 1124 532 531
f 1125 1108 1120
f 1125 1113 1108
f 1126 1114 1109
f 1126 1109 1121
f 1127 1115 1110
f 1127 940 941
f 1127 941 942
f 1127 1110 1122
f 1127 1122 940
f 1128 1116 1123
f 1129 533 532
f 1129 534 533
f 1129 532 1124
f 1130 1113 1125
f 1130 1118 1113
f 1131 1119 1114
f 1131 1114 1126
f 1132 1127 942
f 1132 1125 1120
f 1132 1120 1115
f 1132 1115 1127
f 1132 942 943
f 1132 943 944
f 1133 1116 1128
f 1133 1121 1116
f 1134 535 534
f 1134 536 535
f 1134 534 1129
f 1135 1123 1118
f 1135 1118 1130
f 1136 1124 1119
f 1136 1119 1131
f 1137 944 945
f 1137 945 946
f 1137 1125 1132
f 1137 1132 944
f 1138 1126 1121
f 1138 1121 1133
f 1139 537 536
f 1139 536 1134
f 1139 538 537
f 1140 1128 1123
f 1140 1123 1135
f 1141 1124 1136
f 1141 1129 1124
f 1142 1135 1130
f 1142 1125 1137
f 1142 946 947
f 1142 947 948
f 1142 1130 1125
f 1142 1137 946
f 1143 1136 1131
f 1143 1126 1138
f 1143 1131 1126
f 1144 538 1139
f 1144 539 538
f 1144 540 539
f 1145 1133 1128
f 1145 1128 1140
f 1146 1134 1129
f 1146 1129 1141
f 1147 1140 1135
f 1147 1142 948
f 1147 1135 1142
f 1147 948 949
f 1147 949 950
f 1148 1136 1143
f 1149 541 540
f 1149 542 541
f 1149 540 1144
f 1150 1138 1133
f 1150 1133 1145
f 1151 1139 1134
f 1151 1134 1146
f 1152 1140 1147
f 1152 1147 950
f 1152 950 951
f 1152 951 952
f 1153 1146 1141
f 1153 1141 1136
f 1153 1136 1148
f 1154 543 542
f 1154 544 543
f 1154 542 1149
f 1155 1143 1138
f 1155 1138 1150
f 1156 1144 1139
f 1156 1139 1151
f 1157 1140 1152
f 1157 1150 1145
f 1157 1152 952
f 1157 1145 1140
f 1157 952 953
f 1158 1146 1153
f 1159 544 1154
f 1159 545 544
f 1159 546 545
f 1160 1143 1155
f 1160 1148 1143
f 1161 1149 1144
f 1161 1144 1156
f 1162 1150 1157
f 1162 953 954
f 1162 954 955
f 1162 1157 953
f 1163 1151 1146
f 1163 1146 1158
f 1163 1156 1151
f 1164 547 546
f 1164 548 547
f 1164 546 1159
f 1165 1153 1148
f 1165 1148 1160
f 1166 1149 1161
f 1166 1154 1149
f 1167 1162 955
f 1167 955 956
f 1167 956 957
f 1167 1155 1150
f 1167 1160 1155
f 1167 1150 1162
f 1168 1161 1156
f 1168 1156 1163
f 1169 549 548
f 1169 550 549
f 1169 548 1164
f 1170 1158 1153
f 1170 1153 1165
f 1171 1154 1166
f 1171 1159 1154
f 1172 1160 1167
f 1172 957 958
f 1172 958 959
f 1172 1167 957
f 1173 1161 1168
f 1174 550 1169
f 1174 551 550
f 1174 552 551
f 1175 1158 1170
f 1175 1163 1158
f 1176 1164 1159
f 1176 1159 1171
f 1177 1160 1172
f 1177 959 960
f 1177 960 961
f 1177 1172 959
f 1177 1165 1160
f 1178 1171 1166
f 1178 1161 1173
f 1178 1166 1161
f 1179 553 552
f 1179 554 553
f 1179 552 1174
f 1180 1168 1163
f 1180 1163 1175
f 1181 1169 1164
f 1181 1164 1176
f 1182 1170 1165
f 1182 1165 1177
f 1182 961 962
f 1182 962 963
f 1182 1177 961
f 1183 1176 1171
f 1183 1171 1178
f 1184 554 1179
f 1184 555 554
f 1184 556 555
f 1185 1173 1168
f 1185 1168 1180
f 1186 1174 1169
f 1186 1169 1181
f 1187 1182 963
f 1187 1175 1170
f 1187 1170 1182
f 1187 963 964
f 1187 964 965
f 1188 1176 1183
f 1188 1181 1176
f 1189 556 1184
f 1189 557 556
f 1189 558 557
f 1190 1173 1185
f 1190 1178 1173
f 1191 1179 1174
f 1191 1174 1186
f 1192 1180 1175
f 1192 1187 965
f 1192 1175 1187
f 1192 965 966
f 1192 966 967
f 1193 1181 1188
f 1194 559 558
f 1194 560 559
f 1194 558 1189
f 1195 1183 1178
f 1195 1178 1190
f 1196 1184 1179
f 1196 1189 1184
f 1196 1179 1191
f 1197 1180 1192
f 1197 1185 1180
f 1197 1192 967
f 1197 967 968
f 1197 968 969
f 1198 1181 1193
f 1198 1186 1181
f 1199 560 1194
f 1199 561 560
f 1199 562 561
f 1200 1188 1183
f 1200 1183 1195
f 1201 1189 1196
f 1202 1197 969
f 1202 1190 1185
f 1202 969 970
f 1202 970 971
f 1202 1185 1197
f 1202 1195 1190
f 1203 1191 1186
f 1203 1196 1191
f 1203 1186 1198
f 1204 562 1199
f 1204 563 562
f 1204 564 563
f 1205 1193 1188
f 1205 1188 1200
f 1206 1194 1189
f 1206 1189 1201
f 1207 1195 1202
f 1207 1202 971
f 1207 971 972
f 1207 972 973
f 1208 1196 1203
f 1209 564 1204
f 1209 565 564
f 1209 566 565
f 1210 1193 1205
f 1210 1198 1193
f 1211 1204 1199
f 1211 1194 1206
f 1211 1199 1194
f 1212 1195 1207
f 1212 1200 1195
f 1212 973 974
f 1212 974 975
f 1212 1207 973
f 1213 1201 1196
f 1213 1206 1201
f 1213 1196 1208
f 1214 566 1209
f 1214 567 566
f 1214 568 567
f 1215 1203 1198
f 1215 1208 1203
f 1215 1198 1210
f 1216 1204 1211
f 1217 1212 975
f 1217 1200 1212
f 1217 1205 1200
f 1217 975 976
f 1217 976 977
f 1218 1206 1213
f 1219 568 1214
f 1219 569 568
f 1219 570 569
f 1220 1213 1208
f 1220 1208 1215
f 1221 1209 1204
f 1221 1204 1216
f 1222 1217 977
f 1222 1210 1205
f 1222 1205 1217
f 1222 977 978
f 1222 978 979
f 1223 1211 1206
f 1223 1206 1218
f 1223 1216 1211
f 1224 570 1219
f 1224 571 570
f 1224 572 571
f 1225 1218 1213
f 1225 1213 1220
f 1226 1214 1209
f 1226 1209 1221
f 1227 1215 1210
f 1227 1210 1222
f 1227 1222 979
f 1227 979 980
f 1227 980 981
f 1228 1216 1223
f 1229 572 1224
f 1229 573 572
f 1229 574 573
f 1230 1218 1225
f 1231 1214 1226
f 1231 1219 1214
f 1232 1215 1227
f 1232 1227 981
f 1232 1220 1215
f 1232 981 982
f 1232 982 983
f 1233 1221 1216
f 1233 1216 1228
f 1234 575 574
f 1234 576 575
f 1234 574 1229
f 1235 1228 1223
f 1235 1223 1218
f 1235 1218 1230
f 1236 1219 1231
f 1236 1224 1219
f 1237 1230 1225
f 1237 1225 1220
f 1237 1232 983
f 1237 983 984
f 1237 984 985
f 1237 1220 1232
f 1238 1221 1233
f 1238 1231 1226
f 1238 1226 1221
f 1239 577 576
f 1239 578 577
f 1239 897 896
f 1239 896 578
f 1239 576 1234
f 1240 1233 1228
f 1240 1228 1235
f 1241 1229 1224
f 1241 1224 1236
f 1241 1234 1229
f 1242 1230 1237
f 1242 1237 985
f 1242 985 986
f 1242 986 987
f 1243 1231 1238
f 1244 1233 1240
f 1245 1234 1241
f 1246 1235 1230
f 1246 1242 987
f 1246 1230 1242
f 1246 987 988
f 1246 988 989
f 1247 1231 1243
f 1247 1236 1231
f 1247 1241 1236
f 1248 1233 1244
f 1248 1243 1238
f 1248 1238 1233
f 1249 897 1239
f 1249 1239 1234
f 1249 1234 1245
f 1250 1240 1235
f 1250 1235 1246
f 1250 1246 989
f 1250 989 990
f 1250 990 991
f 1251 1245 1241
f 1251 1241 1247
f 1252 1243 1248
f 1253 991 992
f 1253 992 993
f 1253 1240 1250
f 1253 1250 991
f 1253 1244 1240
f 1254 1249 1245
f 1254 1245 1251
f 1255 1247 1243
f 1255 1243 1252
f 1256 993 994
f 1256 994 995
f 1256 1248 1244
f 1256 1244 1253
f 1256 1253 993
f 1257 898 897
f 1257 897 1249
f 1257 1249 1254
f 1258 1247 1255
f 1258 1251 1247
f 1258 1254 1251
f 1259 995 996
f 1259 996 997
f 1259 1248 1256
f 1259 1252 1248
f 1259 1256 995
f 1260 1257 1254
f 1260 1254 1258
f 1261 997 998
f 1261 998 999
f 1261 1258 1255
f 1261 1255 1252
f 1261 1252 1259
f 1261 1259 997
f 1262 899 898
f 1262 898 1257
f 1262 1257 1260
f 1263 999 1000
f 1263 1000 1001
f 1263 1261 999
f 1263 1258 1261
f 1263 1260 1258
f 1264 1262 1260
f 1264 1001 1002
f 1264 1002 1003
f 1264 1263 1001
f 1264 1260 1263
f 1265 900 899
f 1265 1003 1004
f 1265 1004 1005
f 1265 1262 1264
f 1265 1264 1003
f 1265 1005 900
f 1265 899 1262
f 1267 583 584
f 1267 1266 583
f 1268 584 585
f 1268 585 586
f 1268 1267 584
f 1269 1268 586
f 1270 586 587
f 1270 1269 586
f 1271 587 588
f 1271 588 589
f 1271 1270 587
f 1272 589 590
f 1272 1271 589
f 1273 1272 590
f 1274 590 591
f 1274 591 592
f 1274 1273 590
f 1275 1274 592
f 1276 592 593
f 1276 1275 592
f 1277 593 594
f 1277 1276 593
f 1278 594 595
f 1278 1277 594
f 1279 595 596
f 1279 596 597
f 1279 1278 595
f 1280 1279 597
f 1281 597 598
f 1281 598 599
f 1281 1280 597
f 1282 599 600
f 1282 1281 599
f 1283 1282 600
f 1284 600 601
f 1284 1283 600
f 1285 601 602
f 1285 602 603
f 1285 1284 601
f 1286 1285 603
f 1287 603 604
f 1287 1286 603
f 1288 1287 604
f 1288 604 605
f 1288 605 606
f 1289 1288 606
f 1289 606 607
f 1290 1289 607
f 1291 1290 607
f 1291 607 608
f 1292 1291 608
f 1292 608 609
f 1293 1292 609
f 1293 609 610
f 1293 610 611
f 1294 1293 611
f 1295 1294 611
f 1295 611 612
f 1295 612 613
f 1296 1295 613
f 1297 613 614
f 1297 614 615
f 1297 1296 613
f 1298 615 616
f 1298 1297 615
f 1299 1298 616
f 1300 616 617
f 1300 1299 616
f 1301 617 618
f 1301 618 619
f 1301 1300 617
f 1302 1301 619
f 1303 619 620
f 1303 1302 619
f 1304 620 621
f 1304 1303 620
f 1305 621 622
f 1305 1304 621
f 1306 622 623
f 1306 1305 622
f 1307 623 624
f 1307 1306 623
f 1308 624 625
f 1308 1307 624
f 1309 625 626
f 1309 626 627
f 1309 1308 625
f 1310 1309 627
f 1311 627 628
f 1311 1310 627
f 1312 628 629
f 1312 1311 628
f 1313 629 630
f 1313 1312 629
f 1314 1313 630
f 1314 630 631
f 1314 631 632
f 1315 1314 632
f 1316 1315 632
f 1316 632 633
f 1317 1316 633
f 1317 633 634
f 1318 1317 634
f 1318 634 635
f 1318 635 636
f 1319 1318 636
f 1319 636 637
f 1320 1319 637
f 1320 637 638
f 1321 1320 638
f 1322 1321 638
f 1322 638 639
f 1323 1322 639
f 1323 639 640
f 1323 640 641
f 1324 1323 641
f 1325 1324 641
f 1325 641 642
f 1325 642 643
f 1326 1325 643
f 1327 1326 643
f 1327 643 644
f 1327 644 645
f 1328 1327 645
f 1329 645 646
f 1329 1328 645
f 1329 646 647
f 1330 1329 647
f 1331 647 648
f 1331 1330 647
f 1332 648 649
f 1332 1331 648
f 1333 649 650
f 1333 650 651
f 1333 1332 649
f 1334 1333 651
f 1335 651 652
f 1335 1334 651
f 1336 652 653
f 1336 1335 652
f 1337 653 654
f 1337 1336 653
f 1338 1337 654
f 1338 654 655
f 1339 1338 655
f 1339 655 656
f 1340 1339 656
f 1340 656 657
f 1341 1340 657
f 1341 657 658
f 1341 658 659
f 1342 1341 659
f 1343 1342 659
f 1343 659 660
f 1344 1343 660
f 1344 660 661
f 1344 661 662
f 1345 1344 662
f 1346 1345 662
f 1346 662 663
f 1346 663 664
f 1347 1346 664
f 1348 1347 664
f 1348 664 665
f 1349 1348 665
f 1349 665 666
f 1349 666 667
f 1350 1349 667
f 1351 1350 667
f 1351 667 668
f 1351 668 669
f 1352 1351 669
f 1353 1352 669
f 1353 669 670
f 1353 670 671
f 1354 1353 671
f 1355 1354 671
f 1355 671 672
f 1355 672 673
f 1356 1355 673
f 1357 1356 673
f 1357 673 674
f 1358 1357 674
f 1358 674 675
f 1359 1358 675
f 1359 675 676
f 1359 676 677
f 1360 1359 677
f 1360 677 678
f 1361 1360 678
f 1362 678 679
f 1362 679 680
f 1362 1361 678
f 1363 1362 680
f 1364 1363 680
f 1364 680 681
f 1365 1364 681
f 1365 681 682
f 1365 682 683
f 1366 1365 683
f 1367 683 684
f 1367 684 685
f 1367 1366 683
f 1368 1367 685
f 1369 685 686
f 1369 1368 685
f 1370 686 687
f 1370 1369 686
f 1266 687 583
f 1266 1370 687
f 1371 902 901
f 1372 902 1371
f 1373 903 902
f 1373 904 903
f 1373 902 1372
f 1374 905 904
f 1374 904 1373
f 1375 905 1374
f 1376 906 905
f 1376 907 906
f 1376 905 1375
f 1377 907 1376
f 1378 908 907
f 1378 907 1377
f 1379 909 908
f 1379 908 1378
f 1380 910 909
f 1380 909 1379
f 1381 911 910
f 1381 910 1380
f 1382 912 911
f 1382 911 1381
f 1383 913 912
f 1383 914 913
f 1383 912 1382
f 1384 914 1383
f 1385 915 914
f 1385 914 1384
f 1386 916 915
f 1386 915 1385
f 1387 917 916
f 1387 916 1386
f 1388 918 917
f 1388 919 918
f 1388 917 1387
f 1389 920 919
f 1389 919 1388
f 1390 920 1389
f 1391 921 920
f 1391 920 1390
f 1392 922 921
f 1392 923 922
f 1392 921 1391
f 1393 923 1392
f 1393 924 923
f 1394 924 1393
f 1395 924 1394
f 1395 925 924
f 1396 925 1395
f 1396 926 925
f 1396 927 926
f 1397 927 1396
f 1398 927 1397
f 1398 928 927
f 1399 928 1398
f 1399 929 928
f 1399 930 929
f 1400 931 930
f 1400 930 1399
f 1401 931 1400
f 1402 932 931
f 1402 933 932
f 1402 931 1401
f 1403 934 933
f 1403 933 1402
f 1404 934 1403
f 1405 935 934
f 1405 934 1404
f 1406 936 935
f 1406 935 1405
f 1407 937 936
f 1407 938 937
f 1407 936 1406
f 1408 938 1407
f 1409 939 938
f 1409 938 1408
f 1410 940 939
f 1410 939 1409
f 1411 941 940
f 1411 942 941
f 1411 940 1410
f 1412 943 942
f 1412 942 1411
f 1413 944 943
f 1413 943 1412
f 1414 945 944
f 1414 944 1413
f 1415 945 1414
f 1416 946 945
f 1416 945 1415
f 1417 947 946
f 1417 948 947
f 1417 946 1416
f 1418 948 1417
f 1419 948 1418
f 1419 949 948
f 1419 950 949
f 1420 950 1419
f 1420 951 950
f 1421 951 1420
f 1421 952 951
f 1422 952 1421
f 1423 952 1422
f 1423 953 952
f 1424 953 1423
f 1424 954 953
f 1424 955 954
f 1425 955 1424
f 1426 955 1425
f 1426 956 955
f 1426 957 956
f 1427 957 1426
f 1428 957 1427
f 1428 958 957
f 1428 959 958
f 1429 959 1428
f 1430 959 1429
f 1430 960 959
f 1431 960 1430
f 1431 961 960
f 1431 962 961
f 1432 962 1431
f 1433 962 1432
f 1433 963 962
f 1433 964 963
f 1434 964 1433
f 1435 965 964
f 1435 966 965
f 1435 964 1434
f 1436 966 1435
f 1437 967 966
f 1437 966 1436
f 1438 968 967
f 1438 969 968
f 1438 967 1437
f 1439 969 1438
f 1440 970 969
f 1440 971 970
f 1440 969 1439
f 1441 972 971
f 1441 971 1440
f 1442 973 972
f 1442 972 1441
f 1443 973 1442
f 1444 973 1443
f 1444 974 973
f 1445 974 1444
f 1445 975 974
f 1446 975 1445
f 1446 976 975
f 1447 976 1446
f 1447 977 976
f 1447 978 977
f 1448 978 1447
f 1449 978 1448
f 1449 979 978
f 1449 980 979
f 1450 980 1449
f 1451 980 1450
f 1451 981 980
f 1451 982 981
f 1452 982 1451
f 1453 982 1452
f 1453 983 982
f 1454 983 1453
f 1454 984 983
f 1454 985 984
f 1455 985 1454
f 1455 986 985
f 1456 986 1455
f 1457 986 1456
f 1457 987 986
f 1458 987 1457
f 1458 988 987
f 1459 988 1458
f 1459 989 988
f 1459 990 989
f 1460 990 1459
f 1461 990 1460
f 1461 991 990
f 1461 992 991
f 1462 992 1461
f 1462 993 992
f 1463 993 1462
f 1463 994 993
f 1464 994 1463
f 1464 995 994
f 1465 995 1464
f 1466 995 1465
f 1466 996 995
f 1466 997 996
f 1467 997 1466
f 1468 997 1467
f 1468 998 997
f 1469 998 1468
f 1469 999 998
f 1469 1000 999
f 1470 1001 1000
f 1470 1000 1469
f 1471 1001 1470
f 1472 1002 1001
f 1472 1003 1002
f 1472 1001 1471
f 1473 1003 1472
f 1474 1004 1003
f 1474 1003 1473
f 1475 1005 1004
f 1475 1004 1474
f 1371 901 1005
f 1371 1005 1475
f 1436 1332 1437
f 1436 1331 1332
f 1438 1437 1332
f 1438 1332 1333
f 1438 1333 1334
f 1435 1330 1331
f 1435 1331 1436
f 1439 1334 1335
f 1439 1438 1334
f 1434 1329 1330
f 1434 1330 1435
f 1440 1335 1336
f 1440 1439 1335
f 1433 1329 1434
f 1433 1328 1329
f 1441 1440 1336
f 1432 1326 1327
f 1432 1327 1328
f 1432 1328 1433
f 1442 1441 1336
f 1442 1336 1337
f 1431 1326 1432
f 1443 1442 1337
f 1443 1337 1338
f 1430 1324 1325
f 1430 1325 1326
f 1430 1326 1431
f 1444 1338 1339
f 1444 1443 1338
f 1429 1324 1430
f 1429 1323 1324
f 1445 1339 1340
f 1445 1444 1339
f 1428 1323 1429
f 1446 1445 1340
f 1446 1340 1341
f 1427 1322 1323
f 1427 1323 1428
f 1447 1446 1341
f 1447 1341 1342
f 1426 1322 1427
f 1426 1321 1322
f 1448 1342 1343
f 1448 1447 1342
f 1425 1321 1426
f 1425 1320 1321
f 1449 1448 1343
f 1449 1343 1344
f 1449 1344 1345
f 1424 1320 1425
f 1424 1318 1319
f 1424 1319 1320
f 1450 1449 1345
f 1423 1318 1424
f 1423 1317 1318
f 1451 1450 1345
f 1451 1345 1346
f 1451 1346 1347
f 1422 1317 1423
f 1452 1451 1347
f 1421 1317 1422
f 1421 1316 1317
f 1453 1347 1348
f 1453 1452 1347
f 1420 1315 1316
f 1420 1316 1421
f 1454 1453 1348
f 1454 1348 1349
f 1454 1349 1350
f 1419 1314 1315
f 1419 1315 1420
f 1455 1454 1350
f 1418 1313 1314
f 1418 1314 1419
f 1456 1455 1350
f 1456 1350 1351
f 1417 1313 1418
f 1417 1312 1313
f 1457 1456 1351
f 1457 1351 1352
f 1416 1310 1311
f 1416 1311 1312
f 1416 1312 1417
f 1458 1457 1352
f 1458 1352 1353
f 1415 1310 1416
f 1459 1353 1354
f 1459 1354 1355
f 1459 1458 1353
f 1414 1308 1309
f 1414 1309 1310
f 1414 1310 1415
f 1460 1459 1355
f 1413 1308 1414
f 1461 1460 1355
f 1461 1355 1356
f 1412 1308 1413
f 1412 1307 1308
f 1462 1356 1357
f 1462 1461 1356
f 1411 1307 1412
f 1411 1306 1307
f 1358 1462 1357
f 1358 1463 1462
f 1410 1306 1411
f 1305 1306 1410
f 1359 1463 1358
f 1359 1464 1463
f 1465 1464 1359
f 1304 1305 1410
f 1304 1410 1409
f 1360 1465 1359
f 1303 1304 1409
f 1303 1409 1408
f 1361 1465 1360
f 1361 1466 1465
f 1302 1408 1407
f 1302 1303 1408
f 1362 1468 1467
f 1362 1466 1361
f 1362 1467 1466
f 1301 1406 1405
f 1301 1407 1406
f 1301 1302 1407
f 1363 1468 1362
f 1300 1301 1405
f 1364 1469 1468
f 1364 1468 1363
f 1299 1405 1404
f 1299 1300 1405
f 1365 1470 1469
f 1365 1469 1364
f 1298 1403 1402
f 1298 1404 1403
f 1298 1299 1404
f 1366 1471 1470
f 1366 1470 1365
f 1297 1298 1402
f 1367 1472 1471
f 1367 1471 1366
f 1296 1297 1402
f 1296 1402 1401
f 1368 1473 1472
f 1368 1474 1473
f 1368 1472 1367
f 1295 1296 1401
f 1295 1401 1400
f 1369 1474 1368
f 1294 1399 1398
f 1294 1400 1399
f 1294 1295 1400
f 1370 1475 1474
f 1370 1474 1369
f 1293 1294 1398
f 1266 1372 1371
f 1266 1371 1475
f 1266 1475 1370
f 1292 1398 1397
f 1292 1293 1398
f 1267 1372 1266
f 1291 1396 1395
f 1291 1397 1396
f 1291 1292 1397
f 1268 1373 1372
f 1268 1374 1373
f 1268 1372 1267
f 1290 1291 1395
f 1269 1374 1268
f 1289 1290 1395
f 1289 1394 1393
f 1289 1395 1394
f 1270 1375 1374
f 1270 1374 1269
f 1288 1393 1392
f 1288 1289 1393
f 1271 1376 1375
f 1271 1377 1376
f 1271 1375 1270
f 1287 1288 1392
f 1272 1377 1271
f 1286 1392 1391
f 1286 1287 1392
f 1273 1378 1377
f 1273 1377 1272
f 1285 1391 1390
f 1285 1286 1391
f 1274 1379 1378
f 1274 1380 1379
f 1274 1378 1273
f 1284 1285 1390
f 1284 1390 1389
f 1275 1381 1380
f 1275 1380 1274
f 1283 1284 1389
f 1283 1389 1388
f 1276 1382 1381
f 1276 1381 1275
f 1282 1283 1388
f 1282 1388 1387
f 1277 1382 1276
f 1281 1282 1387
f 1281 1387 1386
f 1278 1382 1277
f 1278 1383 1382
f 1280 1281 1386
f 1280 1386 1385
f 1279 1384 1383
f 1279 1385 1384
f 1279 1280 1385
f 1279 1383 1278

