# https://github.com/mikedh/trimesh
v -0.04185434 -0.00048652 0.00057206
v -0.03607483 -0.00364887 0.00635158
v -0.03160749 -0.00456109 -0.02453642
v -0.04252436 -0.00048652 -0.03545329
v -0.02575425 -0.00486516 0.01667215
v -0.01211307 -0.00608145 -0.00504201
v -0.00552594 -0.00165416 0.03690047
v 0.02609597 -0.00206769 0.03316704
v -0.00057206 -0.00040543 0.04185434
v 0.03545329 -0.00040543 0.04252436
v -0.00057206 0.00040543 0.04185434
v 0.03545329 0.00040543 0.04252436
v -0.00552594 0.00165416 0.03690047
v 0.02609597 0.00206769 0.03316704
v -0.02575425 0.00486516 0.01667215
v -0.01211307 0.00608145 -0.00504201
v -0.03607483 0.00364887 0.00635158
v -0.03160749 0.00456109 -0.02453642
v -0.04185434 0.00048652 0.00057206
v -0.04252436 0.00048652 -0.03545329
v 0.03556766 -0.00456109 -0.09171156
v 0.02465079 -0.00048652 -0.10262843
v 0.05506207 -0.00608145 -0.07221715
v 0.09327112 -0.00206769 -0.03400811
v 0.10262843 -0.00040543 -0.02465079
v 0.10262843 0.00040543 -0.02465079
v 0.65770726 0.00040543 -0.57972961
v 0.72346819 0.00040543 -0.64549054
v 0.72346819 -0.00040543 -0.64549054
v 0.65770726 -0.00040543 -0.57972961
v 0.09327112 0.00206769 -0.03400811
v 0.05506207 0.00608145 -0.07221715
v 0.03556766 0.00456109 -0.09171156
v 0.02465079 0.00048652 -0.10262843
v 0.57972961 -0.00048652 -0.65770726
v 0.64549054 -0.00048652 -0.72346819
v 0.64549054 0.00048652 -0.72346819
v 0.57972961 0.00048652 -0.65770726
v 0.59064648 -0.00243258 -0.64679039
v 0.61014089 -0.00324344 -0.62729597
v 0.64834994 -0.00110277 -0.58908693
v 0.64834994 0.00110277 -0.58908693
v 0.61014089 0.00324344 -0.62729597
v 0.59064648 0.00243258 -0.64679039
v 0.65640741 -0.00182444 -0.71255132
v 0.67590182 -0.00243258 -0.69305691
v 0.71411087 -0.00082708 -0.65484786
v 0.71411087 0.00082708 -0.65484786
v 0.67590182 0.00243258 -0.69305691
v 0.65640741 0.00182444 -0.71255132
v 0.66424692 -0.00152036 -0.71461130
v 0.65445384 -0.00048652 -0.72440438
v 0.68173455 -0.00202715 -0.69712367
v 0.71601031 -0.00068923 -0.66284791
v 0.72440438 -0.00040543 -0.65445384
v 0.72440438 0.00040543 -0.65445384
v 0.71601031 0.00068923 -0.66284791
v 0.68173455 0.00202715 -0.69712367
v 0.66424692 0.00152036 -0.71461130
v 0.65445384 0.00048652 -0.72440438
f 3 2 1
f 3 1 4
f 6 5 2
f 6 2 3
f 8 7 5
f 8 5 6
f 10 9 7
f 10 7 8
f 12 11 9
f 12 9 10
f 14 13 11
f 14 11 12
f 16 15 13
f 16 13 14
f 18 17 15
f 18 15 16
f 20 19 17
f 20 17 18
f 4 1 19
f 4 19 20
f 21 3 4
f 21 4 22
f 23 6 3
f 23 3 21
f 24 8 6
f 24 6 23
f 25 10 8
f 25 8 24
f 26 12 10
f 26 10 25
f 27 25 30
f 27 26 25
f 28 30 29
f 28 27 30
f 31 14 12
f 31 12 26
f 32 16 14
f 32 14 31
f 33 18 16
f 33 16 32
f 34 20 18
f 34 18 33
f 22 4 20
f 22 20 34
f 35 34 38
f 35 22 34
f 36 38 37
f 36 35 38
f 35 21 22
f 39 21 35
f 40 23 21
f 40 21 39
f 41 24 23
f 41 23 40
f 41 25 24
f 30 25 41
f 42 31 26
f 42 26 27
f 43 32 31
f 43 31 42
f 44 33 32
f 44 32 43
f 44 34 33
f 38 34 44
f 45 39 35
f 45 35 36
f 46 40 39
f 46 39 45
f 47 41 40
f 47 40 46
f 29 30 41
f 29 41 47
f 48 42 27
f 48 27 28
f 48 43 42
f 49 43 48
f 49 44 43
f 50 44 49
f 37 38 44
f 37 44 50
f 51 45 36
f 51 36 52
f 53 46 45
f 53 45 51
f 54 47 46
f 54 46 53
f 55 29 47
f 55 47 54
f 56 28 29
f 56 29 55
f 57 48 28
f 57 28 56
f 49 48 57
f 58 49 57
f 59 50 49
f 59 49 58
f 60 37 50
f 60 50 59
f 52 36 37
f 52 37 60
f 17 1 2
f 17 19 1
f 15 2 5
f 15 17 2
f 13 5 7
f 13 15 5
f 11 7 9
f 11 13 7
f 51 52 60
f 59 51 60
f 58 53 51
f 58 51 59
f 57 54 53
f 57 53 58
f 56 55 54
f 56 54 57

