# https://github.com/mikedh/trimesh
v -0.00000000 -0.00445973 0.01946065
v 0.00116383 -0.00445973 0.01942582
v 0.00232349 -0.00445973 0.01932145
v 0.00347483 -0.00445973 0.01914791
v 0.00461374 -0.00445973 0.01890583
v 0.00573613 -0.00445973 0.01859607
v 0.00683798 -0.00445973 0.01821974
v 0.00791536 -0.00445973 0.01777819
v 0.00896440 -0.00445973 0.01727300
v 0.00998136 -0.00445973 0.01670598
v 0.01096258 -0.00445973 0.01607915
v 0.01190456 -0.00445973 0.01539476
v 0.01280392 -0.00445973 0.01465526
v 0.01365745 -0.00445973 0.01386331
v 0.01446208 -0.00445973 0.01302172
v 0.01521495 -0.00445973 0.01213352
v 0.01591335 -0.00445973 0.01120189
v 0.01655479 -0.00445973 0.01023015
v 0.01713697 -0.00445973 0.00922179
v 0.01765779 -0.00445973 0.00818043
v 0.01811541 -0.00445973 0.00710978
v 0.01850818 -0.00445973 0.00601367
v 0.01883470 -0.00445973 0.00489604
v 0.01909379 -0.00445973 0.00376089
v 0.01928453 -0.00445973 0.00261227
v 0.01940624 -0.00445973 0.00145430
v 0.01945848 -0.00445973 0.00029112
v 0.01944106 -0.00445973 -0.00087310
v 0.01935405 -0.00445973 -0.00203419
v 0.01919775 -0.00445973 -0.00318800
v 0.01897274 -0.00445973 -0.00433040
v 0.01867980 -0.00445973 -0.00545730
v 0.01832000 -0.00445973 -0.00656466
v 0.01789461 -0.00445973 -0.00764852
v 0.01740517 -0.00445973 -0.00870501
v 0.01685342 -0.00445973 -0.00973033
v 0.01624134 -0.00445973 -0.01072082
v 0.01557112 -0.00445973 -0.01167293
v 0.01484516 -0.00445973 -0.01258325
v 0.01406606 -0.00445973 -0.01344853
v 0.01323661 -0.00445973 -0.01426567
v 0.01235977 -0.00445973 -0.01503174
v 0.01143869 -0.00445973 -0.01574400
v 0.01047666 -0.00445973 -0.01639990
v 0.00947712 -0.00445973 -0.01699710
v 0.00844366 -0.00445973 -0.01753344
v 0.00737998 -0.00445973 -0.01800703
v 0.00628987 -0.00445973 -0.01841615
v 0.00517725 -0.00445973 -0.01875935
v 0.00404610 -0.00445973 -0.01903539
v 0.00290046 -0.00445973 -0.01924330
v 0.00174444 -0.00445973 -0.01938231
v 0.00058217 -0.00445973 -0.01945194
v -0.00058217 -0.00445973 -0.01945194
v -0.00174444 -0.00445973 -0.01938231
v -0.00290046 -0.00445973 -0.01924330
v -0.00404610 -0.00445973 -0.01903539
v -0.00517725 -0.00445973 -0.01875935
v -0.00628987 -0.00445973 -0.01841615
v -0.00737998 -0.00445973 -0.01800703
v -0.00844366 -0.00445973 -0.01753344
v -0.00947712 -0.00445973 -0.01699710
v -0.01047666 -0.00445973 -0.01639990
v -0.01143869 -0.00445973 -0.01574400
v -0.01235977 -0.00445973 -0.01503174
v -0.01323661 -0.00445973 -0.01426567
v -0.01406606 -0.00445973 -0.01344853
v -0.01484516 -0.00445973 -0.01258325
v -0.01557112 -0.00445973 -0.01167293
v -0.01624134 -0.00445973 -0.01072082
v -0.01685342 -0.00445973 -0.00973033
v -0.01740517 -0.00445973 -0.00870501
v -0.01789461 -0.00445973 -0.00764852
v -0.01832000 -0.00445973 -0.00656466
v -0.01867980 -0.00445973 -0.00545730
v -0.01897274 -0.00445973 -0.00433040
v -0.01919775 -0.00445973 -0.00318800
v -0.01935405 -0.00445973 -0.00203419
v -0.01944106 -0.00445973 -0.00087310
v -0.01945848 -0.00445973 0.00029112
v -0.01940624 -0.00445973 0.00145430
v -0.01928453 -0.00445973 0.00261227
v -0.01909379 -0.00445973 0.00376089
v -0.01883470 -0.00445973 0.00489604
v -0.01850818 -0.00445973 0.00601367
v -0.01811541 -0.00445973 0.00710978
v -0.01765779 -0.00445973 0.00818043
v -0.01713697 -0.00445973 0.00922179
v -0.01655479 -0.00445973 0.01023015
v -0.01591335 -0.00445973 0.01120189
v -0.01521495 -0.00445973 0.01213352
v -0.01446208 -0.00445973 0.01302172
v -0.01365745 -0.00445973 0.01386331
v -0.01280392 -0.00445973 0.01465526
v -0.01190456 -0.00445973 0.01539476
v -0.01096258 -0.00445973 0.01607915
v -0.00998136 -0.00445973 0.01670598
v -0.00896440 -0.00445973 0.01727300
v -0.00791536 -0.00445973 0.01777819
v -0.00683798 -0.00445973 0.01821974
v -0.00573613 -0.00445973 0.01859607
v -0.00461374 -0.00445973 0.01890583
v -0.00347483 -0.00445973 0.01914791
v -0.00232349 -0.00445973 0.01932145
v -0.00116383 -0.00445973 0.01942582
v -0.00000000 -0.00851404 0.01946065
v 0.00116383 -0.00851404 0.01942582
v 0.00232349 -0.00851404 0.01932145
v 0.00347483 -0.00851404 0.01914791
v 0.00461374 -0.00851404 0.01890583
v 0.00573613 -0.00851404 0.01859607
v 0.00683798 -0.00851404 0.01821974
v 0.00791536 -0.00851404 0.01777819
v 0.00896440 -0.00851404 0.01727300
v 0.00998136 -0.00851404 0.01670598
v 0.01096258 -0.00851404 0.01607915
v 0.01190456 -0.00851404 0.01539476
v 0.01280392 -0.00851404 0.01465526
v 0.01365745 -0.00851404 0.01386331
v 0.01446208 -0.00851404 0.01302172
v 0.01521495 -0.00851404 0.01213352
v 0.01591335 -0.00851404 0.01120189
v 0.01655479 -0.00851404 0.01023015
v 0.01713697 -0.00851404 0.00922179
v 0.01765779 -0.00851404 0.00818043
v 0.01811541 -0.00851404 0.00710978
v 0.01850818 -0.00851404 0.00601367
v 0.01883470 -0.00851404 0.00489604
v 0.01909379 -0.00851404 0.00376089
v 0.01928453 -0.00851404 0.00261227
v 0.01940624 -0.00851404 0.00145430
v 0.01945848 -0.00851404 0.00029112
v 0.01944106 -0.00851404 -0.00087310
v 0.01935405 -0.00851404 -0.00203419
v 0.01919775 -0.00851404 -0.00318800
v 0.01897274 -0.00851404 -0.00433040
v 0.01867980 -0.00851404 -0.00545730
v 0.01832000 -0.00851404 -0.00656466
v 0.01789461 -0.00851404 -0.00764852
v 0.01740517 -0.00851404 -0.00870501
v 0.01685342 -0.00851404 -0.00973033
v 0.01624134 -0.00851404 -0.01072082
v 0.01557112 -0.00851404 -0.01167293
v 0.01484516 -0.00851404 -0.01258325
v 0.01406606 -0.00851404 -0.01344853
v 0.01323661 -0.00851404 -0.01426567
v 0.01235977 -0.00851404 -0.01503174
v 0.01143869 -0.00851404 -0.01574400
v 0.01047666 -0.00851404 -0.01639990
v 0.00947712 -0.00851404 -0.01699710
v 0.00844366 -0.00851404 -0.01753344
v 0.00737998 -0.00851404 -0.01800703
v 0.00628987 -0.00851404 -0.01841615
v 0.00517725 -0.00851404 -0.01875935
v 0.00404610 -0.00851404 -0.01903539
v 0.00290046 -0.00851404 -0.01924330
v 0.00174444 -0.00851404 -0.01938231
v 0.00058217 -0.00851404 -0.01945194
v -0.00058217 -0.00851404 -0.01945194
v -0.00174444 -0.00851404 -0.01938231
v -0.00290046 -0.00851404 -0.01924330
v -0.00404610 -0.00851404 -0.01903539
v -0.00517725 -0.00851404 -0.01875935
v -0.00628987 -0.00851404 -0.01841615
v -0.00737998 -0.00851404 -0.01800703
v -0.00844366 -0.00851404 -0.01753344
v -0.00947712 -0.00851404 -0.01699710
v -0.01047666 -0.00851404 -0.01639990
v -0.01143869 -0.00851404 -0.01574400
v -0.01235977 -0.00851404 -0.01503174
v -0.01323661 -0.00851404 -0.01426567
v -0.01406606 -0.00851404 -0.01344853
v -0.01484516 -0.00851404 -0.01258325
v -0.01557112 -0.00851404 -0.01167293
v -0.01624134 -0.00851404 -0.01072082
v -0.01685342 -0.00851404 -0.00973033
v -0.01740517 -0.00851404 -0.00870501
v -0.01789461 -0.00851404 -0.00764852
v -0.01832000 -0.00851404 -0.00656466
v -0.01867980 -0.00851404 -0.00545730
v -0.01897274 -0.00851404 -0.00433040
v -0.01919775 -0.00851404 -0.00318800
v -0.01935405 -0.00851404 -0.00203419
v -0.01944106 -0.00851404 -0.00087310
v -0.01945848 -0.00851404 0.00029112
v -0.01940624 -0.00851404 0.00145430
v -0.01928453 -0.00851404 0.00261227
v -0.01909379 -0.00851404 0.00376089
v -0.01883470 -0.00851404 0.00489604
v -0.01850818 -0.00851404 0.00601367
v -0.01811541 -0.00851404 0.00710978
v -0.01765779 -0.00851404 0.00818043
v -0.01713697 -0.00851404 0.00922179
v -0.01655479 -0.00851404 0.01023015
v -0.01591335 -0.00851404 0.01120189
v -0.01521495 -0.00851404 0.01213352
v -0.01446208 -0.00851404 0.01302172
v -0.01365745 -0.00851404 0.01386331
v -0.01280392 -0.00851404 0.01465526
v -0.01190456 -0.00851404 0.01539476
v -0.01096258 -0.00851404 0.01607915
v -0.00998136 -0.00851404 0.01670598
v -0.00896440 -0.00851404 0.01727300
v -0.00791536 -0.00851404 0.01777819
v -0.00683798 -0.00851404 0.01821974
v -0.00573613 -0.00851404 0.01859607
v -0.00461374 -0.00851404 0.01890583
v -0.00347483 -0.00851404 0.01914791
v -0.00232349 -0.00851404 0.01932145
v -0.00116383 -0.00851404 0.01942582
f 2 1 106
f 2 106 107
f 3 107 108
f 3 2 107
f 4 108 109
f 4 3 108
f 5 109 110
f 5 4 109
f 6 110 111
f 6 5 110
f 7 111 112
f 7 6 111
f 8 112 113
f 8 7 112
f 9 113 114
f 9 8 113
f 10 114 115
f 10 9 114
f 11 115 116
f 11 10 115
f 12 116 117
f 12 117 118
f 12 11 116
f 13 12 118
f 13 118 119
f 14 13 119
f 15 119 120
f 15 120 121
f 15 14 119
f 16 15 121
f 17 121 122
f 17 16 121
f 18 122 123
f 18 123 124
f 18 17 122
f 19 18 124
f 20 124 125
f 20 125 126
f 20 19 124
f 21 20 126
f 22 126 127
f 22 127 128
f 22 21 126
f 23 22 128
f 24 23 128
f 24 128 129
f 24 129 130
f 25 24 130
f 26 25 130
f 26 130 131
f 26 131 132
f 27 26 132
f 28 27 132
f 28 132 133
f 28 133 134
f 29 28 134
f 30 29 134
f 30 134 135
f 30 135 136
f 31 30 136
f 32 136 137
f 32 31 136
f 33 137 138
f 33 138 139
f 33 32 137
f 34 33 139
f 35 139 140
f 35 140 141
f 35 34 139
f 36 35 141
f 37 141 142
f 37 142 143
f 37 36 141
f 38 37 143
f 39 143 144
f 39 38 143
f 40 144 145
f 40 39 144
f 41 145 146
f 41 40 145
f 42 146 147
f 42 41 146
f 43 147 148
f 43 148 149
f 43 42 147
f 44 149 150
f 44 43 149
f 45 44 150
f 46 150 151
f 46 151 152
f 46 45 150
f 47 46 152
f 48 152 153
f 48 153 154
f 48 47 152
f 49 48 154
f 49 154 155
f 50 49 155
f 51 50 155
f 51 155 156
f 52 51 156
f 52 156 157
f 53 52 157
f 53 157 158
f 54 53 158
f 54 158 159
f 55 54 159
f 55 159 160
f 56 55 160
f 56 160 161
f 57 56 161
f 57 161 162
f 57 162 163
f 58 57 163
f 59 58 163
f 59 163 164
f 60 59 164
f 60 164 165
f 60 165 166
f 61 60 166
f 62 61 166
f 62 166 167
f 63 62 167
f 63 167 168
f 64 63 168
f 64 168 169
f 65 64 169
f 65 169 170
f 65 170 171
f 66 171 172
f 66 65 171
f 67 66 172
f 68 172 173
f 68 67 172
f 69 173 174
f 69 174 175
f 69 68 173
f 70 69 175
f 71 175 176
f 71 176 177
f 71 70 175
f 72 71 177
f 73 72 177
f 73 177 178
f 73 178 179
f 74 73 179
f 75 74 179
f 75 179 180
f 76 75 180
f 76 180 181
f 77 76 181
f 77 181 182
f 77 182 183
f 78 77 183
f 79 78 183
f 79 183 184
f 79 184 185
f 80 79 185
f 80 185 186
f 81 80 186
f 81 186 187
f 82 81 187
f 82 187 188
f 83 82 188
f 84 83 188
f 84 188 189
f 85 84 189
f 85 189 190
f 85 190 191
f 86 85 191
f 86 191 192
f 87 86 192
f 87 192 193
f 88 87 193
f 88 193 194
f 89 88 194
f 89 194 195
f 90 89 195
f 91 90 195
f 91 195 196
f 91 196 197
f 92 91 197
f 93 92 197
f 93 197 198
f 93 198 199
f 94 93 199
f 94 199 200
f 95 94 200
f 95 200 201
f 96 95 201
f 97 201 202
f 97 202 203
f 97 96 201
f 98 97 203
f 99 203 204
f 99 98 203
f 99 204 205
f 100 205 206
f 100 99 205
f 101 100 206
f 102 206 207
f 102 207 208
f 102 101 206
f 103 102 208
f 104 208 209
f 104 209 210
f 104 103 208
f 105 104 210
f 1 210 106
f 1 105 210
f 63 64 65
f 63 65 66
f 63 66 67
f 63 67 68
f 63 68 69
f 63 69 70
f 58 59 60
f 58 60 61
f 58 61 62
f 58 62 63
f 76 74 75
f 78 74 76
f 78 72 73
f 78 73 74
f 78 76 77
f 55 56 57
f 55 57 58
f 53 63 70
f 53 55 58
f 53 58 63
f 53 54 55
f 53 70 71
f 81 79 80
f 83 81 82
f 50 51 52
f 50 52 53
f 84 79 81
f 84 81 83
f 84 78 79
f 49 53 71
f 49 50 53
f 86 78 84
f 86 84 85
f 87 72 78
f 87 78 86
f 46 47 48
f 46 48 49
f 88 71 72
f 88 72 87
f 44 45 46
f 90 88 89
f 90 71 88
f 42 43 44
f 42 44 46
f 92 90 91
f 41 42 46
f 40 41 46
f 40 46 49
f 95 93 94
f 96 93 95
f 96 92 93
f 37 38 39
f 36 37 39
f 98 92 96
f 98 96 97
f 34 35 36
f 100 98 99
f 101 98 100
f 32 36 39
f 32 34 36
f 32 33 34
f 32 39 40
f 102 98 101
f 30 40 49
f 30 31 32
f 30 32 40
f 30 49 71
f 30 71 90
f 104 102 103
f 1 104 105
f 1 90 92
f 1 92 98
f 1 98 102
f 1 102 104
f 27 28 29
f 25 26 27
f 25 29 30
f 25 27 29
f 5 2 3
f 5 3 4
f 23 24 25
f 22 25 30
f 22 23 25
f 7 1 2
f 7 5 6
f 7 90 1
f 7 2 5
f 9 7 8
f 19 20 21
f 18 21 22
f 18 30 90
f 18 22 30
f 18 19 21
f 11 9 10
f 11 7 9
f 13 7 11
f 13 11 12
f 15 16 17
f 14 18 90
f 14 7 13
f 14 15 17
f 14 17 18
f 14 90 7
f 168 170 169
f 168 171 170
f 168 172 171
f 168 173 172
f 168 174 173
f 168 175 174
f 163 165 164
f 163 166 165
f 163 167 166
f 163 168 167
f 181 180 179
f 183 181 179
f 183 178 177
f 183 179 178
f 183 182 181
f 160 162 161
f 160 163 162
f 158 175 168
f 158 163 160
f 158 168 163
f 158 160 159
f 158 176 175
f 186 185 184
f 188 187 186
f 155 157 156
f 155 158 157
f 189 186 184
f 189 188 186
f 189 184 183
f 154 176 158
f 154 158 155
f 191 189 183
f 191 190 189
f 192 183 177
f 192 191 183
f 151 153 152
f 151 154 153
f 193 177 176
f 193 192 177
f 149 151 150
f 195 194 193
f 195 193 176
f 147 149 148
f 147 151 149
f 197 196 195
f 146 151 147
f 145 151 146
f 145 154 151
f 200 199 198
f 201 200 198
f 201 198 197
f 142 144 143
f 141 144 142
f 203 201 197
f 203 202 201
f 139 141 140
f 205 204 203
f 206 205 203
f 137 144 141
f 137 141 139
f 137 139 138
f 137 145 144
f 207 206 203
f 135 154 145
f 135 137 136
f 135 145 137
f 135 176 154
f 135 195 176
f 209 208 207
f 106 210 209
f 106 197 195
f 106 203 197
f 106 207 203
f 106 209 207
f 132 134 133
f 130 132 131
f 130 135 134
f 130 134 132
f 110 108 107
f 110 109 108
f 128 130 129
f 127 135 130
f 127 130 128
f 112 107 106
f 112 111 110
f 112 106 195
f 112 110 107
f 114 113 112
f 124 126 125
f 123 127 126
f 123 195 135
f 123 135 127
f 123 126 124
f 116 115 114
f 116 114 112
f 118 116 112
f 118 117 116
f 120 122 121
f 119 195 123
f 119 118 112
f 119 122 120
f 119 123 122
f 119 112 195

