# https://github.com/mikedh/trimesh
v -0.09203268 -0.09730327 -0.41378279
v -0.09203268 -0.09730327 0.45378279
v -0.09203268 -0.10522274 0.45378279
v -0.09203268 -0.10522274 -0.41378279
v -0.07581547 -0.09730327 0.47000000
v -0.05148965 -0.09730327 0.47000000
v -0.03527244 -0.09730327 0.45378279
v -0.03527244 -0.09730327 -0.41378279
v -0.05148965 -0.09730327 -0.43000000
v -0.07581547 -0.09730327 -0.43000000
v -0.07581547 -0.10522274 0.47000000
v -0.09103268 -0.10622274 0.45278279
v -0.09103268 -0.10622274 -0.41278279
v -0.07581547 -0.10522274 -0.43000000
v -0.05148965 -0.10522274 0.47000000
v -0.03527244 -0.10522274 0.45378279
v -0.03527244 -0.10522274 -0.41378279
v -0.05148965 -0.10522274 -0.43000000
v -0.07481547 -0.10622274 0.46900000
v -0.05248965 -0.10622274 0.46900000
v -0.03627244 -0.10622274 0.45278279
v -0.03627244 -0.10622274 -0.41278279
v -0.05248965 -0.10622274 -0.42900000
v -0.07481547 -0.10622274 -0.42900000
v -0.06365256 -0.10622274 0.42094754
v -0.06210079 -0.10622274 0.42090110
v -0.06055457 -0.10622274 0.42076194
v -0.05901945 -0.10622274 0.42053055
v -0.05750091 -0.10622274 0.42020778
v -0.05600439 -0.10622274 0.41979476
v -0.05453525 -0.10622274 0.41929299
v -0.05309874 -0.10622274 0.41870426
v -0.05170002 -0.10622274 0.41803067
v -0.05034408 -0.10622274 0.41727463
v -0.04903579 -0.10622274 0.41643886
v -0.04777982 -0.10622274 0.41552635
v -0.04658067 -0.10622274 0.41454035
v -0.04544263 -0.10622274 0.41348441
v -0.04436978 -0.10622274 0.41236229
v -0.04336595 -0.10622274 0.41117803
v -0.04243475 -0.10622274 0.40993585
v -0.04157950 -0.10622274 0.40864020
v -0.04080327 -0.10622274 0.40729573
v -0.04010883 -0.10622274 0.40590724
v -0.03949867 -0.10622274 0.40447970
v -0.03897498 -0.10622274 0.40301823
v -0.03853963 -0.10622274 0.40152806
v -0.03819417 -0.10622274 0.40001452
v -0.03793985 -0.10622274 0.39848302
v -0.03777757 -0.10622274 0.39693906
v -0.03770792 -0.10622274 0.39538816
v -0.03773115 -0.10622274 0.39383587
v -0.03784716 -0.10622274 0.39228774
v -0.03805555 -0.10622274 0.39074933
v -0.03835558 -0.10622274 0.38922613
v -0.03874616 -0.10622274 0.38772360
v -0.03922590 -0.10622274 0.38624712
v -0.03979308 -0.10622274 0.38480197
v -0.04044567 -0.10622274 0.38339332
v -0.04118133 -0.10622274 0.38202623
v -0.04199744 -0.10622274 0.38070558
v -0.04289106 -0.10622274 0.37943610
v -0.04385901 -0.10622274 0.37822233
v -0.04489781 -0.10622274 0.37706862
v -0.04600375 -0.10622274 0.37597911
v -0.04717287 -0.10622274 0.37495768
v -0.04840098 -0.10622274 0.37400800
v -0.04968368 -0.10622274 0.37313346
v -0.05101640 -0.10622274 0.37233721
v -0.05239434 -0.10622274 0.37162207
v -0.05381259 -0.10622274 0.37099063
v -0.05526606 -0.10622274 0.37044513
v -0.05674956 -0.10622274 0.36998754
v -0.05825776 -0.10622274 0.36961948
v -0.05978528 -0.10622274 0.36934227
v -0.06132664 -0.10622274 0.36915692
v -0.06287633 -0.10622274 0.36906407
v -0.06442879 -0.10622274 0.36906407
v -0.06597848 -0.10622274 0.36915692
v -0.06751984 -0.10622274 0.36934227
v -0.06904736 -0.10622274 0.36961948
v -0.07055556 -0.10622274 0.36998754
v -0.07203905 -0.10622274 0.37044513
v -0.07349253 -0.10622274 0.37099063
v -0.07491077 -0.10622274 0.37162207
v -0.07628872 -0.10622274 0.37233721
v -0.07762143 -0.10622274 0.37313346
v -0.07890414 -0.10622274 0.37400800
v -0.08013225 -0.10622274 0.37495768
v -0.08130137 -0.10622274 0.37597911
v -0.08240731 -0.10622274 0.37706862
v -0.08344611 -0.10622274 0.37822233
v -0.08441406 -0.10622274 0.37943610
v -0.08530768 -0.10622274 0.38070558
v -0.08612379 -0.10622274 0.38202623
v -0.08685945 -0.10622274 0.38339332
v -0.08751204 -0.10622274 0.38480197
v -0.08807922 -0.10622274 0.38624712
v -0.08855896 -0.10622274 0.38772360
v -0.08894954 -0.10622274 0.38922613
v -0.08924956 -0.10622274 0.39074933
v -0.08945795 -0.10622274 0.39228774
v -0.08957397 -0.10622274 0.39383587
v -0.08959719 -0.10622274 0.39538816
v -0.08952754 -0.10622274 0.39693906
v -0.08936527 -0.10622274 0.39848302
v -0.08911095 -0.10622274 0.40001452
v -0.08876549 -0.10622274 0.40152806
v -0.08833014 -0.10622274 0.40301823
v -0.08780644 -0.10622274 0.40447970
v -0.08719628 -0.10622274 0.40590724
v -0.08650185 -0.10622274 0.40729573
v -0.08572561 -0.10622274 0.40864020
v -0.08487036 -0.10622274 0.40993585
v -0.08393916 -0.10622274 0.41117803
v -0.08293534 -0.10622274 0.41236229
v -0.08186249 -0.10622274 0.41348441
v -0.08072445 -0.10622274 0.41454035
v -0.07952530 -0.10622274 0.41552635
v -0.07826933 -0.10622274 0.41643886
v -0.07696103 -0.10622274 0.41727463
v -0.07560510 -0.10622274 0.41803067
v -0.07420637 -0.10622274 0.41870426
v -0.07276987 -0.10622274 0.41929299
v -0.07130073 -0.10622274 0.41979476
v -0.06980421 -0.10622274 0.42020778
v -0.06828567 -0.10622274 0.42053055
v -0.06675054 -0.10622274 0.42076194
v -0.06520433 -0.10622274 0.42090110
v -0.06365256 -0.11149333 0.42094754
v -0.06210079 -0.11149333 0.42090110
v -0.06055457 -0.11149333 0.42076194
v -0.05901945 -0.11149333 0.42053055
v -0.05750091 -0.11149333 0.42020778
v -0.05600439 -0.11149333 0.41979476
v -0.05453525 -0.11149333 0.41929299
v -0.05309874 -0.11149333 0.41870426
v -0.05170002 -0.11149333 0.41803067
v -0.05034408 -0.11149333 0.41727463
v -0.04903579 -0.11149333 0.41643886
v -0.04777982 -0.11149333 0.41552635
v -0.04658067 -0.11149333 0.41454035
v -0.04544263 -0.11149333 0.41348441
v -0.04436978 -0.11149333 0.41236229
v -0.04336595 -0.11149333 0.41117803
v -0.04243475 -0.11149333 0.40993585
v -0.04157950 -0.11149333 0.40864020
v -0.04080327 -0.11149333 0.40729573
v -0.04010883 -0.11149333 0.40590724
v -0.03949867 -0.11149333 0.40447970
v -0.03897498 -0.11149333 0.40301823
v -0.03853963 -0.11149333 0.40152806
v -0.03819417 -0.11149333 0.40001452
v -0.03793985 -0.11149333 0.39848302
v -0.03777757 -0.11149333 0.39693906
v -0.03770792 -0.11149333 0.39538816
v -0.03773115 -0.11149333 0.39383587
v -0.03784716 -0.11149333 0.39228774
v -0.03805555 -0.11149333 0.39074933
v -0.03835558 -0.11149333 0.38922613
v -0.03874616 -0.11149333 0.38772360
v -0.03922590 -0.11149333 0.38624712
v -0.03979308 -0.11149333 0.38480197
v -0.04044567 -0.11149333 0.38339332
v -0.04118133 -0.11149333 0.38202623
v -0.04199744 -0.11149333 0.38070558
v -0.04289106 -0.11149333 0.37943610
v -0.04385901 -0.11149333 0.37822233
v -0.04489781 -0.11149333 0.37706862
v -0.04600375 -0.11149333 0.37597911
v -0.04717287 -0.11149333 0.37495768
v -0.04840098 -0.11149333 0.37400800
v -0.04968368 -0.11149333 0.37313346
v -0.05101640 -0.11149333 0.37233721
v -0.05239434 -0.11149333 0.37162207
v -0.05381259 -0.11149333 0.37099063
v -0.05526606 -0.11149333 0.37044513
v -0.05674956 -0.11149333 0.36998754
v -0.05825776 -0.11149333 0.36961948
v -0.05978528 -0.11149333 0.36934227
v -0.06132664 -0.11149333 0.36915692
v -0.06287633 -0.11149333 0.36906407
v -0.06442879 -0.11149333 0.36906407
v -0.06597848 -0.11149333 0.36915692
v -0.06751984 -0.11149333 0.36934227
v -0.06904736 -0.11149333 0.36961948
v -0.07055556 -0.11149333 0.36998754
v -0.07203905 -0.11149333 0.37044513
v -0.07349253 -0.11149333 0.37099063
v -0.07491077 -0.11149333 0.37162207
v -0.07628872 -0.11149333 0.37233721
v -0.07762143 -0.11149333 0.37313346
v -0.07890414 -0.11149333 0.37400800
v -0.08013225 -0.11149333 0.37495768
v -0.08130137 -0.11149333 0.37597911
v -0.08240731 -0.11149333 0.37706862
v -0.08344611 -0.11149333 0.37822233
v -0.08441406 -0.11149333 0.37943610
v -0.08530768 -0.11149333 0.38070558
v -0.08612379 -0.11149333 0.38202623
v -0.08685945 -0.11149333 0.38339332
v -0.08751204 -0.11149333 0.38480197
v -0.08807922 -0.11149333 0.38624712
v -0.08855896 -0.11149333 0.38772360
v -0.08894954 -0.11149333 0.38922613
v -0.08924956 -0.11149333 0.39074933
v -0.08945795 -0.11149333 0.39228774
v -0.08957397 -0.11149333 0.39383587
v -0.08959719 -0.11149333 0.39538816
v -0.08952754 -0.11149333 0.39693906
v -0.08936527 -0.11149333 0.39848302
v -0.08911095 -0.11149333 0.40001452
v -0.08876549 -0.11149333 0.40152806
v -0.08833014 -0.11149333 0.40301823
v -0.08780644 -0.11149333 0.40447970
v -0.08719628 -0.11149333 0.40590724
v -0.08650185 -0.11149333 0.40729573
v -0.08572561 -0.11149333 0.40864020
v -0.08487036 -0.11149333 0.40993585
v -0.08393916 -0.11149333 0.41117803
v -0.08293534 -0.11149333 0.41236229
v -0.08186249 -0.11149333 0.41348441
v -0.08072445 -0.11149333 0.41454035
v -0.07952530 -0.11149333 0.41552635
v -0.07826933 -0.11149333 0.41643886
v -0.07696103 -0.11149333 0.41727463
v -0.07560510 -0.11149333 0.41803067
v -0.07420637 -0.11149333 0.41870426
v -0.07276987 -0.11149333 0.41929299
v -0.07130073 -0.11149333 0.41979476
v -0.06980421 -0.11149333 0.42020778
v -0.06828567 -0.11149333 0.42053055
v -0.06675054 -0.11149333 0.42076194
v -0.06520433 -0.11149333 0.42090110
v -0.06365256 -0.11149333 0.40473033
v -0.06307064 -0.11149333 0.40471291
v -0.06249081 -0.11149333 0.40466073
v -0.06191514 -0.11149333 0.40457396
v -0.06134569 -0.11149333 0.40445292
v -0.06078449 -0.11149333 0.40429804
v -0.06023357 -0.11149333 0.40410987
v -0.05969488 -0.11149333 0.40388910
v -0.05917036 -0.11149333 0.40363650
v -0.05866188 -0.11149333 0.40335299
v -0.05817127 -0.11149333 0.40303957
v -0.05770028 -0.11149333 0.40269738
v -0.05725060 -0.11149333 0.40232763
v -0.05682384 -0.11149333 0.40193165
v -0.05642152 -0.11149333 0.40151086
v -0.05604508 -0.11149333 0.40106676
v -0.05569588 -0.11149333 0.40060094
v -0.05537516 -0.11149333 0.40011508
v -0.05508408 -0.11149333 0.39961090
v -0.05482366 -0.11149333 0.39909021
v -0.05459485 -0.11149333 0.39855489
v -0.05439847 -0.11149333 0.39800684
v -0.05423521 -0.11149333 0.39744802
v -0.05410566 -0.11149333 0.39688044
v -0.05401029 -0.11149333 0.39630613
v -0.05394944 -0.11149333 0.39572715
v -0.05392332 -0.11149333 0.39514556
v -0.05393203 -0.11149333 0.39456345
v -0.05397553 -0.11149333 0.39398290
v -0.05405368 -0.11149333 0.39340600
v -0.05416619 -0.11149333 0.39283480
v -0.05431266 -0.11149333 0.39227135
v -0.05449256 -0.11149333 0.39171767
v -0.05470525 -0.11149333 0.39117574
v -0.05494997 -0.11149333 0.39064750
v -0.05522585 -0.11149333 0.39013484
v -0.05553189 -0.11149333 0.38963959
v -0.05586700 -0.11149333 0.38916354
v -0.05622998 -0.11149333 0.38870837
v -0.05661953 -0.11149333 0.38827573
v -0.05703425 -0.11149333 0.38786717
v -0.05747267 -0.11149333 0.38748413
v -0.05793322 -0.11149333 0.38712800
v -0.05841423 -0.11149333 0.38680005
v -0.05891400 -0.11149333 0.38650145
v -0.05943073 -0.11149333 0.38623328
v -0.05996257 -0.11149333 0.38599649
v -0.06050762 -0.11149333 0.38579192
v -0.06106393 -0.11149333 0.38562033
v -0.06162951 -0.11149333 0.38548230
v -0.06220233 -0.11149333 0.38537835
v -0.06278034 -0.11149333 0.38530884
v -0.06336147 -0.11149333 0.38527403
v -0.06394365 -0.11149333 0.38527403
v -0.06452478 -0.11149333 0.38530884
v -0.06510279 -0.11149333 0.38537835
v -0.06567561 -0.11149333 0.38548230
v -0.06624118 -0.11149333 0.38562033
v -0.06679749 -0.11149333 0.38579192
v -0.06734255 -0.11149333 0.38599649
v -0.06787439 -0.11149333 0.38623328
v -0.06839112 -0.11149333 0.38650145
v -0.06889089 -0.11149333 0.38680005
v -0.06937190 -0.11149333 0.38712800
v -0.06983244 -0.11149333 0.38748413
v -0.07027086 -0.11149333 0.38786717
v -0.07068559 -0.11149333 0.38827573
v -0.07107514 -0.11149333 0.38870837
v -0.07143812 -0.11149333 0.38916354
v -0.07177323 -0.11149333 0.38963959
v -0.07207927 -0.11149333 0.39013484
v -0.07235514 -0.11149333 0.39064750
v -0.07259986 -0.11149333 0.39117574
v -0.07281256 -0.11149333 0.39171767
v -0.07299246 -0.11149333 0.39227135
v -0.07313893 -0.11149333 0.39283480
v -0.07325143 -0.11149333 0.39340600
v -0.07332958 -0.11149333 0.39398290
v -0.07337309 -0.11149333 0.39456345
v -0.07338180 -0.11149333 0.39514556
v -0.07335568 -0.11149333 0.39572715
v -0.07329482 -0.11149333 0.39630613
v -0.07319945 -0.11149333 0.39688044
v -0.07306991 -0.11149333 0.39744802
v -0.07290665 -0.11149333 0.39800684
v -0.07271026 -0.11149333 0.39855489
v -0.07248146 -0.11149333 0.39909021
v -0.07222104 -0.11149333 0.39961090
v -0.07192995 -0.11149333 0.40011508
v -0.07160924 -0.11149333 0.40060094
v -0.07126003 -0.11149333 0.40106676
v -0.07088360 -0.11149333 0.40151086
v -0.07048128 -0.11149333 0.40193165
v -0.07005452 -0.11149333 0.40232763
v -0.06960484 -0.11149333 0.40269738
v -0.06913385 -0.11149333 0.40303957
v -0.06864324 -0.11149333 0.40335299
v -0.06813476 -0.11149333 0.40363650
v -0.06761024 -0.11149333 0.40388910
v -0.06707155 -0.11149333 0.40410987
v -0.06652062 -0.11149333 0.40429804
v -0.06595943 -0.11149333 0.40445292
v -0.06538998 -0.11149333 0.40457396
v -0.06481430 -0.11149333 0.40466073
v -0.06423447 -0.11149333 0.40471291
v -0.06365256 -0.12041280 0.40473033
v -0.06307064 -0.12041280 0.40471291
v -0.06249081 -0.12041280 0.40466073
v -0.06191514 -0.12041280 0.40457396
v -0.06134569 -0.12041280 0.40445292
v -0.06078449 -0.12041280 0.40429804
v -0.06023357 -0.12041280 0.40410987
v -0.05969488 -0.12041280 0.40388910
v -0.05917036 -0.12041280 0.40363650
v -0.05866188 -0.12041280 0.40335299
v -0.05817127 -0.12041280 0.40303957
v -0.05770028 -0.12041280 0.40269738
v -0.05725060 -0.12041280 0.40232763
v -0.05682384 -0.12041280 0.40193165
v -0.05642152 -0.12041280 0.40151086
v -0.05604508 -0.12041280 0.40106676
v -0.05569588 -0.12041280 0.40060094
v -0.05537516 -0.12041280 0.40011508
v -0.05508408 -0.12041280 0.39961090
v -0.05482366 -0.12041280 0.39909021
v -0.05459485 -0.12041280 0.39855489
v -0.05439847 -0.12041280 0.39800684
v -0.05423521 -0.12041280 0.39744802
v -0.05410566 -0.12041280 0.39688044
v -0.05401029 -0.12041280 0.39630613
v -0.05394944 -0.12041280 0.39572715
v -0.05392332 -0.12041280 0.39514556
v -0.05393203 -0.12041280 0.39456345
v -0.05397553 -0.12041280 0.39398290
v -0.05405368 -0.12041280 0.39340600
v -0.05416619 -0.12041280 0.39283480
v -0.05431266 -0.12041280 0.39227135
v -0.05449256 -0.12041280 0.39171767
v -0.05470525 -0.12041280 0.39117574
v -0.05494997 -0.12041280 0.39064750
v -0.05522585 -0.12041280 0.39013484
v -0.05553189 -0.12041280 0.38963959
v -0.05586700 -0.12041280 0.38916354
v -0.05622998 -0.12041280 0.38870837
v -0.05661953 -0.12041280 0.38827573
v -0.05703425 -0.12041280 0.38786717
v -0.05747267 -0.12041280 0.38748413
v -0.05793322 -0.12041280 0.38712800
v -0.05841423 -0.12041280 0.38680005
v -0.05891400 -0.12041280 0.38650145
v -0.05943073 -0.12041280 0.38623328
v -0.05996257 -0.12041280 0.38599649
v -0.06050762 -0.12041280 0.38579192
v -0.06106393 -0.12041280 0.38562033
v -0.06162951 -0.12041280 0.38548230
v -0.06220233 -0.12041280 0.38537835
v -0.06278034 -0.12041280 0.38530884
v -0.06336147 -0.12041280 0.38527403
v -0.06394365 -0.12041280 0.38527403
v -0.06452478 -0.12041280 0.38530884
v -0.06510279 -0.12041280 0.38537835
v -0.06567561 -0.12041280 0.38548230
v -0.06624118 -0.12041280 0.38562033
v -0.06679749 -0.12041280 0.38579192
v -0.06734255 -0.12041280 0.38599649
v -0.06787439 -0.12041280 0.38623328
v -0.06839112 -0.12041280 0.38650145
v -0.06889089 -0.12041280 0.38680005
v -0.06937190 -0.12041280 0.38712800
v -0.06983244 -0.12041280 0.38748413
v -0.07027086 -0.12041280 0.38786717
v -0.07068559 -0.12041280 0.38827573
v -0.07107514 -0.12041280 0.38870837
v -0.07143812 -0.12041280 0.38916354
v -0.07177323 -0.12041280 0.38963959
v -0.07207927 -0.12041280 0.39013484
v -0.07235514 -0.12041280 0.39064750
v -0.07259986 -0.12041280 0.39117574
v -0.07281256 -0.12041280 0.39171767
v -0.07299246 -0.12041280 0.39227135
v -0.07313893 -0.12041280 0.39283480
v -0.07325143 -0.12041280 0.39340600
v -0.07332958 -0.12041280 0.39398290
v -0.07337309 -0.12041280 0.39456345
v -0.07338180 -0.12041280 0.39514556
v -0.07335568 -0.12041280 0.39572715
v -0.07329482 -0.12041280 0.39630613
v -0.07319945 -0.12041280 0.39688044
v -0.07306991 -0.12041280 0.39744802
v -0.07290665 -0.12041280 0.39800684
v -0.07271026 -0.12041280 0.39855489
v -0.07248146 -0.12041280 0.39909021
v -0.07222104 -0.12041280 0.39961090
v -0.07192995 -0.12041280 0.40011508
v -0.07160924 -0.12041280 0.40060094
v -0.07126003 -0.12041280 0.40106676
v -0.07088360 -0.12041280 0.40151086
v -0.07048128 -0.12041280 0.40193165
v -0.07005452 -0.12041280 0.40232763
v -0.06960484 -0.12041280 0.40269738
v -0.06913385 -0.12041280 0.40303957
v -0.06864324 -0.12041280 0.40335299
v -0.06813476 -0.12041280 0.40363650
v -0.06761024 -0.12041280 0.40388910
v -0.06707155 -0.12041280 0.40410987
v -0.06652062 -0.12041280 0.40429804
v -0.06595943 -0.12041280 0.40445292
v -0.06538998 -0.12041280 0.40457396
v -0.06481430 -0.12041280 0.40466073
v -0.06423447 -0.12041280 0.40471291
v 0.03527244 -0.09730327 -0.41378279
v 0.03527244 -0.09730327 0.45378279
v 0.03527244 -0.10522274 0.45378279
v 0.03527244 -0.10522274 -0.41378279
v 0.05148965 -0.09730327 0.47000000
v 0.07581547 -0.09730327 0.47000000
v 0.09203268 -0.09730327 0.45378279
v 0.09203268 -0.09730327 -0.41378279
v 0.07581547 -0.09730327 -0.43000000
v 0.05148965 -0.09730327 -0.43000000
v 0.05148965 -0.10522274 0.47000000
v 0.03627244 -0.10622274 0.45278279
v 0.03627244 -0.10622274 -0.41278279
v 0.05148965 -0.10522274 -0.43000000
v 0.07581547 -0.10522274 0.47000000
v 0.09203268 -0.10522274 0.45378279
v 0.09203268 -0.10522274 -0.41378279
v 0.07581547 -0.10522274 -0.43000000
v 0.05248965 -0.10622274 0.46900000
v 0.07481547 -0.10622274 0.46900000
v 0.09103268 -0.10622274 0.45278279
v 0.09103268 -0.10622274 -0.41278279
v 0.07481547 -0.10622274 -0.42900000
v 0.05248965 -0.10622274 -0.42900000
v 0.06365256 -0.10622274 0.42094754
v 0.06520433 -0.10622274 0.42090110
v 0.06675054 -0.10622274 0.42076194
v 0.06828567 -0.10622274 0.42053055
v 0.06980421 -0.10622274 0.42020778
v 0.07130073 -0.10622274 0.41979476
v 0.07276987 -0.10622274 0.41929299
v 0.07420637 -0.10622274 0.41870426
v 0.07560510 -0.10622274 0.41803067
v 0.07696103 -0.10622274 0.41727463
v 0.07826933 -0.10622274 0.41643886
v 0.07952530 -0.10622274 0.41552635
v 0.08072445 -0.10622274 0.41454035
v 0.08186249 -0.10622274 0.41348441
v 0.08293534 -0.10622274 0.41236229
v 0.08393916 -0.10622274 0.41117803
v 0.08487036 -0.10622274 0.40993585
v 0.08572561 -0.10622274 0.40864020
v 0.08650185 -0.10622274 0.40729573
v 0.08719628 -0.10622274 0.40590724
v 0.08780644 -0.10622274 0.40447970
v 0.08833014 -0.10622274 0.40301823
v 0.08876549 -0.10622274 0.40152806
v 0.08911095 -0.10622274 0.40001452
v 0.08936527 -0.10622274 0.39848302
v 0.08952754 -0.10622274 0.39693906
v 0.08959719 -0.10622274 0.39538816
v 0.08957397 -0.10622274 0.39383587
v 0.08945795 -0.10622274 0.39228774
v 0.08924956 -0.10622274 0.39074933
v 0.08894954 -0.10622274 0.38922613
v 0.08855896 -0.10622274 0.38772360
v 0.08807922 -0.10622274 0.38624712
v 0.08751204 -0.10622274 0.38480197
v 0.08685945 -0.10622274 0.38339332
v 0.08612379 -0.10622274 0.38202623
v 0.08530768 -0.10622274 0.38070558
v 0.08441406 -0.10622274 0.37943610
v 0.08344611 -0.10622274 0.37822233
v 0.08240731 -0.10622274 0.37706862
v 0.08130137 -0.10622274 0.37597911
v 0.08013225 -0.10622274 0.37495768
v 0.07890414 -0.10622274 0.37400800
v 0.07762143 -0.10622274 0.37313346
v 0.07628872 -0.10622274 0.37233721
v 0.07491077 -0.10622274 0.37162207
v 0.07349253 -0.10622274 0.37099063
v 0.07203905 -0.10622274 0.37044513
v 0.07055556 -0.10622274 0.36998754
v 0.06904736 -0.10622274 0.36961948
v 0.06751984 -0.10622274 0.36934227
v 0.06597848 -0.10622274 0.36915692
v 0.06442879 -0.10622274 0.36906407
v 0.06287633 -0.10622274 0.36906407
v 0.06132664 -0.10622274 0.36915692
v 0.05978528 -0.10622274 0.36934227
v 0.05825776 -0.10622274 0.36961948
v 0.05674956 -0.10622274 0.36998754
v 0.05526606 -0.10622274 0.37044513
v 0.05381259 -0.10622274 0.37099063
v 0.05239434 -0.10622274 0.37162207
v 0.05101640 -0.10622274 0.37233721
v 0.04968368 -0.10622274 0.37313346
v 0.04840098 -0.10622274 0.37400800
v 0.04717287 -0.10622274 0.37495768
v 0.04600375 -0.10622274 0.37597911
v 0.04489781 -0.10622274 0.37706862
v 0.04385901 -0.10622274 0.37822233
v 0.04289106 -0.10622274 0.37943610
v 0.04199744 -0.10622274 0.38070558
v 0.04118133 -0.10622274 0.38202623
v 0.04044567 -0.10622274 0.38339332
v 0.03979308 -0.10622274 0.38480197
v 0.03922590 -0.10622274 0.38624712
v 0.03874616 -0.10622274 0.38772360
v 0.03835558 -0.10622274 0.38922613
v 0.03805555 -0.10622274 0.39074933
v 0.03784716 -0.10622274 0.39228774
v 0.03773115 -0.10622274 0.39383587
v 0.03770792 -0.10622274 0.39538816
v 0.03777757 -0.10622274 0.39693906
v 0.03793985 -0.10622274 0.39848302
v 0.03819417 -0.10622274 0.40001452
v 0.03853963 -0.10622274 0.40152806
v 0.03897498 -0.10622274 0.40301823
v 0.03949867 -0.10622274 0.40447970
v 0.04010883 -0.10622274 0.40590724
v 0.04080327 -0.10622274 0.40729573
v 0.04157950 -0.10622274 0.40864020
v 0.04243475 -0.10622274 0.40993585
v 0.04336595 -0.10622274 0.41117803
v 0.04436978 -0.10622274 0.41236229
v 0.04544263 -0.10622274 0.41348441
v 0.04658067 -0.10622274 0.41454035
v 0.04777982 -0.10622274 0.41552635
v 0.04903579 -0.10622274 0.41643886
v 0.05034408 -0.10622274 0.41727463
v 0.05170002 -0.10622274 0.41803067
v 0.05309874 -0.10622274 0.41870426
v 0.05453525 -0.10622274 0.41929299
v 0.05600439 -0.10622274 0.41979476
v 0.05750091 -0.10622274 0.42020778
v 0.05901945 -0.10622274 0.42053055
v 0.06055457 -0.10622274 0.42076194
v 0.06210079 -0.10622274 0.42090110
v 0.06365256 -0.11149333 0.42094754
v 0.06520433 -0.11149333 0.42090110
v 0.06675054 -0.11149333 0.42076194
v 0.06828567 -0.11149333 0.42053055
v 0.06980421 -0.11149333 0.42020778
v 0.07130073 -0.11149333 0.41979476
v 0.07276987 -0.11149333 0.41929299
v 0.07420637 -0.11149333 0.41870426
v 0.07560510 -0.11149333 0.41803067
v 0.07696103 -0.11149333 0.41727463
v 0.07826933 -0.11149333 0.41643886
v 0.07952530 -0.11149333 0.41552635
v 0.08072445 -0.11149333 0.41454035
v 0.08186249 -0.11149333 0.41348441
v 0.08293534 -0.11149333 0.41236229
v 0.08393916 -0.11149333 0.41117803
v 0.08487036 -0.11149333 0.40993585
v 0.08572561 -0.11149333 0.40864020
v 0.08650185 -0.11149333 0.40729573
v 0.08719628 -0.11149333 0.40590724
v 0.08780644 -0.11149333 0.40447970
v 0.08833014 -0.11149333 0.40301823
v 0.08876549 -0.11149333 0.40152806
v 0.08911095 -0.11149333 0.40001452
v 0.08936527 -0.11149333 0.39848302
v 0.08952754 -0.11149333 0.39693906
v 0.08959719 -0.11149333 0.39538816
v 0.08957397 -0.11149333 0.39383587
v 0.08945795 -0.11149333 0.39228774
v 0.08924956 -0.11149333 0.39074933
v 0.08894954 -0.11149333 0.38922613
v 0.08855896 -0.11149333 0.38772360
v 0.08807922 -0.11149333 0.38624712
v 0.08751204 -0.11149333 0.38480197
v 0.08685945 -0.11149333 0.38339332
v 0.08612379 -0.11149333 0.38202623
v 0.08530768 -0.11149333 0.38070558
v 0.08441406 -0.11149333 0.37943610
v 0.08344611 -0.11149333 0.37822233
v 0.08240731 -0.11149333 0.37706862
v 0.08130137 -0.11149333 0.37597911
v 0.08013225 -0.11149333 0.37495768
v 0.07890414 -0.11149333 0.37400800
v 0.07762143 -0.11149333 0.37313346
v 0.07628872 -0.11149333 0.37233721
v 0.07491077 -0.11149333 0.37162207
v 0.07349253 -0.11149333 0.37099063
v 0.07203905 -0.11149333 0.37044513
v 0.07055556 -0.11149333 0.36998754
v 0.06904736 -0.11149333 0.36961948
v 0.06751984 -0.11149333 0.36934227
v 0.06597848 -0.11149333 0.36915692
v 0.06442879 -0.11149333 0.36906407
v 0.06287633 -0.11149333 0.36906407
v 0.06132664 -0.11149333 0.36915692
v 0.05978528 -0.11149333 0.36934227
v 0.05825776 -0.11149333 0.36961948
v 0.05674956 -0.11149333 0.36998754
v 0.05526606 -0.11149333 0.37044513
v 0.05381259 -0.11149333 0.37099063
v 0.05239434 -0.11149333 0.37162207
v 0.05101640 -0.11149333 0.37233721
v 0.04968368 -0.11149333 0.37313346
v 0.04840098 -0.11149333 0.37400800
v 0.04717287 -0.11149333 0.37495768
v 0.04600375 -0.11149333 0.37597911
v 0.04489781 -0.11149333 0.37706862
v 0.04385901 -0.11149333 0.37822233
v 0.04289106 -0.11149333 0.37943610
v 0.04199744 -0.11149333 0.38070558
v 0.04118133 -0.11149333 0.38202623
v 0.04044567 -0.11149333 0.38339332
v 0.03979308 -0.11149333 0.38480197
v 0.03922590 -0.11149333 0.38624712
v 0.03874616 -0.11149333 0.38772360
v 0.03835558 -0.11149333 0.38922613
v 0.03805555 -0.11149333 0.39074933
v 0.03784716 -0.11149333 0.39228774
v 0.03773115 -0.11149333 0.39383587
v 0.03770792 -0.11149333 0.39538816
v 0.03777757 -0.11149333 0.39693906
v 0.03793985 -0.11149333 0.39848302
v 0.03819417 -0.11149333 0.40001452
v 0.03853963 -0.11149333 0.40152806
v 0.03897498 -0.11149333 0.40301823
v 0.03949867 -0.11149333 0.40447970
v 0.04010883 -0.11149333 0.40590724
v 0.04080327 -0.11149333 0.40729573
v 0.04157950 -0.11149333 0.40864020
v 0.04243475 -0.11149333 0.40993585
v 0.04336595 -0.11149333 0.41117803
v 0.04436978 -0.11149333 0.41236229
v 0.04544263 -0.11149333 0.41348441
v 0.04658067 -0.11149333 0.41454035
v 0.04777982 -0.11149333 0.41552635
v 0.04903579 -0.11149333 0.41643886
v 0.05034408 -0.11149333 0.41727463
v 0.05170002 -0.11149333 0.41803067
v 0.05309874 -0.11149333 0.41870426
v 0.05453525 -0.11149333 0.41929299
v 0.05600439 -0.11149333 0.41979476
v 0.05750091 -0.11149333 0.42020778
v 0.05901945 -0.11149333 0.42053055
v 0.06055457 -0.11149333 0.42076194
v 0.06210079 -0.11149333 0.42090110
v 0.06365256 -0.11149333 0.40473033
v 0.06423447 -0.11149333 0.40471291
v 0.06481430 -0.11149333 0.40466073
v 0.06538998 -0.11149333 0.40457396
v 0.06595943 -0.11149333 0.40445292
v 0.06652062 -0.11149333 0.40429804
v 0.06707155 -0.11149333 0.40410987
v 0.06761024 -0.11149333 0.40388910
v 0.06813476 -0.11149333 0.40363650
v 0.06864324 -0.11149333 0.40335299
v 0.06913385 -0.11149333 0.40303957
v 0.06960484 -0.11149333 0.40269738
v 0.07005452 -0.11149333 0.40232763
v 0.07048128 -0.11149333 0.40193165
v 0.07088360 -0.11149333 0.40151086
v 0.07126003 -0.11149333 0.40106676
v 0.07160924 -0.11149333 0.40060094
v 0.07192995 -0.11149333 0.40011508
v 0.07222104 -0.11149333 0.39961090
v 0.07248146 -0.11149333 0.39909021
v 0.07271026 -0.11149333 0.39855489
v 0.07290665 -0.11149333 0.39800684
v 0.07306991 -0.11149333 0.39744802
v 0.07319945 -0.11149333 0.39688044
v 0.07329482 -0.11149333 0.39630613
v 0.07335568 -0.11149333 0.39572715
v 0.07338180 -0.11149333 0.39514556
v 0.07337309 -0.11149333 0.39456345
v 0.07332958 -0.11149333 0.39398290
v 0.07325143 -0.11149333 0.39340600
v 0.07313893 -0.11149333 0.39283480
v 0.07299246 -0.11149333 0.39227135
v 0.07281256 -0.11149333 0.39171767
v 0.07259986 -0.11149333 0.39117574
v 0.07235514 -0.11149333 0.39064750
v 0.07207927 -0.11149333 0.39013484
v 0.07177323 -0.11149333 0.38963959
v 0.07143812 -0.11149333 0.38916354
v 0.07107514 -0.11149333 0.38870837
v 0.07068559 -0.11149333 0.38827573
v 0.07027086 -0.11149333 0.38786717
v 0.06983244 -0.11149333 0.38748413
v 0.06937190 -0.11149333 0.38712800
v 0.06889089 -0.11149333 0.38680005
v 0.06839112 -0.11149333 0.38650145
v 0.06787439 -0.11149333 0.38623328
v 0.06734255 -0.11149333 0.38599649
v 0.06679749 -0.11149333 0.38579192
v 0.06624118 -0.11149333 0.38562033
v 0.06567561 -0.11149333 0.38548230
v 0.06510279 -0.11149333 0.38537835
v 0.06452478 -0.11149333 0.38530884
v 0.06394365 -0.11149333 0.38527403
v 0.06336147 -0.11149333 0.38527403
v 0.06278034 -0.11149333 0.38530884
v 0.06220233 -0.11149333 0.38537835
v 0.06162951 -0.11149333 0.38548230
v 0.06106393 -0.11149333 0.38562033
v 0.06050762 -0.11149333 0.38579192
v 0.05996257 -0.11149333 0.38599649
v 0.05943073 -0.11149333 0.38623328
v 0.05891400 -0.11149333 0.38650145
v 0.05841423 -0.11149333 0.38680005
v 0.05793322 -0.11149333 0.38712800
v 0.05747267 -0.11149333 0.38748413
v 0.05703425 -0.11149333 0.38786717
v 0.05661953 -0.11149333 0.38827573
v 0.05622998 -0.11149333 0.38870837
v 0.05586700 -0.11149333 0.38916354
v 0.05553189 -0.11149333 0.38963959
v 0.05522585 -0.11149333 0.39013484
v 0.05494997 -0.11149333 0.39064750
v 0.05470525 -0.11149333 0.39117574
v 0.05449256 -0.11149333 0.39171767
v 0.05431266 -0.11149333 0.39227135
v 0.05416619 -0.11149333 0.39283480
v 0.05405368 -0.11149333 0.39340600
v 0.05397553 -0.11149333 0.39398290
v 0.05393203 -0.11149333 0.39456345
v 0.05392332 -0.11149333 0.39514556
v 0.05394944 -0.11149333 0.39572715
v 0.05401029 -0.11149333 0.39630613
v 0.05410566 -0.11149333 0.39688044
v 0.05423521 -0.11149333 0.39744802
v 0.05439847 -0.11149333 0.39800684
v 0.05459485 -0.11149333 0.39855489
v 0.05482366 -0.11149333 0.39909021
v 0.05508408 -0.11149333 0.39961090
v 0.05537516 -0.11149333 0.40011508
v 0.05569588 -0.11149333 0.40060094
v 0.05604508 -0.11149333 0.40106676
v 0.05642152 -0.11149333 0.40151086
v 0.05682384 -0.11149333 0.40193165
v 0.05725060 -0.11149333 0.40232763
v 0.05770028 -0.11149333 0.40269738
v 0.05817127 -0.11149333 0.40303957
v 0.05866188 -0.11149333 0.40335299
v 0.05917036 -0.11149333 0.40363650
v 0.05969488 -0.11149333 0.40388910
v 0.06023357 -0.11149333 0.40410987
v 0.06078449 -0.11149333 0.40429804
v 0.06134569 -0.11149333 0.40445292
v 0.06191514 -0.11149333 0.40457396
v 0.06249081 -0.11149333 0.40466073
v 0.06307064 -0.11149333 0.40471291
v 0.06365256 -0.12041280 0.40473033
v 0.06423447 -0.12041280 0.40471291
v 0.06481430 -0.12041280 0.40466073
v 0.06538998 -0.12041280 0.40457396
v 0.06595943 -0.12041280 0.40445292
v 0.06652062 -0.12041280 0.40429804
v 0.06707155 -0.12041280 0.40410987
v 0.06761024 -0.12041280 0.40388910
v 0.06813476 -0.12041280 0.40363650
v 0.06864324 -0.12041280 0.40335299
v 0.06913385 -0.12041280 0.40303957
v 0.06960484 -0.12041280 0.40269738
v 0.07005452 -0.12041280 0.40232763
v 0.07048128 -0.12041280 0.40193165
v 0.07088360 -0.12041280 0.40151086
v 0.07126003 -0.12041280 0.40106676
v 0.07160924 -0.12041280 0.40060094
v 0.07192995 -0.12041280 0.40011508
v 0.07222104 -0.12041280 0.39961090
v 0.07248146 -0.12041280 0.39909021
v 0.07271026 -0.12041280 0.39855489
v 0.07290665 -0.12041280 0.39800684
v 0.07306991 -0.12041280 0.39744802
v 0.07319945 -0.12041280 0.39688044
v 0.07329482 -0.12041280 0.39630613
v 0.07335568 -0.12041280 0.39572715
v 0.07338180 -0.12041280 0.39514556
v 0.07337309 -0.12041280 0.39456345
v 0.07332958 -0.12041280 0.39398290
v 0.07325143 -0.12041280 0.39340600
v 0.07313893 -0.12041280 0.39283480
v 0.07299246 -0.12041280 0.39227135
v 0.07281256 -0.12041280 0.39171767
v 0.07259986 -0.12041280 0.39117574
v 0.07235514 -0.12041280 0.39064750
v 0.07207927 -0.12041280 0.39013484
v 0.07177323 -0.12041280 0.38963959
v 0.07143812 -0.12041280 0.38916354
v 0.07107514 -0.12041280 0.38870837
v 0.07068559 -0.12041280 0.38827573
v 0.07027086 -0.12041280 0.38786717
v 0.06983244 -0.12041280 0.38748413
v 0.06937190 -0.12041280 0.38712800
v 0.06889089 -0.12041280 0.38680005
v 0.06839112 -0.12041280 0.38650145
v 0.06787439 -0.12041280 0.38623328
v 0.06734255 -0.12041280 0.38599649
v 0.06679749 -0.12041280 0.38579192
v 0.06624118 -0.12041280 0.38562033
v 0.06567561 -0.12041280 0.38548230
v 0.06510279 -0.12041280 0.38537835
v 0.06452478 -0.12041280 0.38530884
v 0.06394365 -0.12041280 0.38527403
v 0.06336147 -0.12041280 0.38527403
v 0.06278034 -0.12041280 0.38530884
v 0.06220233 -0.12041280 0.38537835
v 0.06162951 -0.12041280 0.38548230
v 0.06106393 -0.12041280 0.38562033
v 0.06050762 -0.12041280 0.38579192
v 0.05996257 -0.12041280 0.38599649
v 0.05943073 -0.12041280 0.38623328
v 0.05891400 -0.12041280 0.38650145
v 0.05841423 -0.12041280 0.38680005
v 0.05793322 -0.12041280 0.38712800
v 0.05747267 -0.12041280 0.38748413
v 0.05703425 -0.12041280 0.38786717
v 0.05661953 -0.12041280 0.38827573
v 0.05622998 -0.12041280 0.38870837
v 0.05586700 -0.12041280 0.38916354
v 0.05553189 -0.12041280 0.38963959
v 0.05522585 -0.12041280 0.39013484
v 0.05494997 -0.12041280 0.39064750
v 0.05470525 -0.12041280 0.39117574
v 0.05449256 -0.12041280 0.39171767
v 0.05431266 -0.12041280 0.39227135
v 0.05416619 -0.12041280 0.39283480
v 0.05405368 -0.12041280 0.39340600
v 0.05397553 -0.12041280 0.39398290
v 0.05393203 -0.12041280 0.39456345
v 0.05392332 -0.12041280 0.39514556
v 0.05394944 -0.12041280 0.39572715
v 0.05401029 -0.12041280 0.39630613
v 0.05410566 -0.12041280 0.39688044
v 0.05423521 -0.12041280 0.39744802
v 0.05439847 -0.12041280 0.39800684
v 0.05459485 -0.12041280 0.39855489
v 0.05482366 -0.12041280 0.39909021
v 0.05508408 -0.12041280 0.39961090
v 0.05537516 -0.12041280 0.40011508
v 0.05569588 -0.12041280 0.40060094
v 0.05604508 -0.12041280 0.40106676
v 0.05642152 -0.12041280 0.40151086
v 0.05682384 -0.12041280 0.40193165
v 0.05725060 -0.12041280 0.40232763
v 0.05770028 -0.12041280 0.40269738
v 0.05817127 -0.12041280 0.40303957
v 0.05866188 -0.12041280 0.40335299
v 0.05917036 -0.12041280 0.40363650
v 0.05969488 -0.12041280 0.40388910
v 0.06023357 -0.12041280 0.40410987
v 0.06078449 -0.12041280 0.40429804
v 0.06134569 -0.12041280 0.40445292
v 0.06191514 -0.12041280 0.40457396
v 0.06249081 -0.12041280 0.40466073
v 0.06307064 -0.12041280 0.40471291
v -0.11930000 0.04257018 -0.75800000
v -0.11930000 0.04257018 -0.57800000
v -0.12150000 0.04257018 -0.57800000
v -0.12150000 0.04257018 -0.75800000
v -0.11930000 0.03457018 -0.57000000
v -0.11930000 -0.03457018 -0.57000000
v -0.11930000 -0.04257018 -0.57800000
v -0.11930000 -0.04257018 -0.75800000
v -0.11930000 -0.03457018 -0.76600000
v -0.11930000 0.03457018 -0.76600000
v -0.11930000 -0.03405615 -0.60100000
v -0.11930000 -0.03405615 -0.73500000
v -0.11930000 -0.02705615 -0.59400000
v -0.11930000 0.02705615 -0.59400000
v -0.11930000 0.03405615 -0.60100000
v -0.11930000 0.03405615 -0.73500000
v -0.11930000 0.02705615 -0.74200000
v -0.11930000 -0.02705615 -0.74200000
v -0.12150000 0.03457018 -0.57000000
v -0.12250000 0.04157018 -0.57900000
v -0.12250000 0.04157018 -0.75700000
v -0.12150000 0.03457018 -0.76600000
v -0.12150000 -0.03457018 -0.76600000
v -0.12150000 -0.03457018 -0.57000000
v -0.12150000 -0.04257018 -0.75800000
v -0.12150000 -0.04257018 -0.57800000
v -0.12250000 -0.03405615 -0.73500000
v -0.12250000 -0.03405615 -0.60100000
v -0.12250000 -0.02705615 -0.74200000
v -0.12250000 0.02705615 -0.74200000
v -0.12250000 0.03405615 -0.73500000
v -0.12250000 0.03405615 -0.60100000
v -0.12250000 0.02705615 -0.59400000
v -0.12250000 -0.02705615 -0.59400000
v -0.12250000 0.03357018 -0.57100000
v -0.12250000 -0.03357018 -0.57100000
v -0.12250000 -0.04157018 -0.57900000
v -0.12250000 -0.04157018 -0.75700000
v -0.12250000 -0.03357018 -0.76500000
v -0.12250000 0.03357018 -0.76500000
v -0.11930000 0.04013760 0.36600000
v -0.11930000 0.04013760 0.59400000
v -0.12150000 0.04013760 0.59400000
v -0.12150000 0.04013760 0.36600000
v -0.11930000 0.03213760 0.60200000
v -0.12150000 0.03213760 0.60200000
v -0.11930000 -0.03213760 0.60200000
v -0.12150000 -0.03213760 0.60200000
v -0.11930000 -0.04013760 0.59400000
v -0.12150000 -0.04013760 0.59400000
v -0.11930000 -0.04013760 0.36600000
v -0.12150000 -0.04013760 0.36600000
v -0.11930000 -0.03213760 0.35800000
v -0.12150000 -0.03213760 0.35800000
v -0.11930000 0.03213760 0.35800000
v -0.12150000 0.03213760 0.35800000
v -0.12250000 0.03913760 0.59300000
v -0.12250000 0.03913760 0.36700000
v -0.12250000 0.03113760 0.60100000
v -0.12250000 -0.03113760 0.60100000
v -0.12250000 -0.03913760 0.59300000
v -0.12250000 -0.03913760 0.36700000
v -0.12250000 -0.03113760 0.35900000
v -0.12250000 0.03113760 0.35900000
v -0.11930000 -0.04500276 -0.56950000
v -0.11930000 -0.04500276 0.18950000
v -0.12150000 -0.04500276 0.18950000
v -0.12150000 -0.04500276 -0.56950000
v -0.11930000 -0.05300276 0.19750000
v -0.12150000 -0.05300276 0.19750000
v -0.11930000 -0.07186977 0.19750000
v -0.12150000 -0.07186977 0.19750000
v -0.11930000 -0.07986977 0.18950000
v -0.12150000 -0.07986977 0.18950000
v -0.11930000 -0.07986977 -0.56950000
v -0.12150000 -0.07986977 -0.56950000
v -0.11930000 -0.07186977 -0.57750000
v -0.12150000 -0.07186977 -0.57750000
v -0.11930000 -0.05300276 -0.57750000
v -0.12150000 -0.05300276 -0.57750000
v -0.12250000 -0.04600276 0.18850000
v -0.12250000 -0.04600276 -0.56850000
v -0.12250000 -0.05400276 0.19650000
v -0.12250000 -0.07086977 0.19650000
v -0.12250000 -0.07886977 0.18850000
v -0.12250000 -0.07886977 -0.56850000
v -0.12250000 -0.07086977 -0.57650000
v -0.12250000 -0.05400276 -0.57650000
v 0.11930000 0.04257018 -0.75800000
v 0.11930000 0.04257018 -0.57800000
v 0.12150000 0.04257018 -0.57800000
v 0.12150000 0.04257018 -0.75800000
v 0.11930000 0.03457018 -0.57000000
v 0.11930000 -0.03457018 -0.57000000
v 0.11930000 -0.04257018 -0.57800000
v 0.11930000 -0.04257018 -0.75800000
v 0.11930000 -0.03457018 -0.76600000
v 0.11930000 0.03457018 -0.76600000
v 0.11930000 -0.02705615 -0.74200000
v 0.11930000 -0.03405615 -0.73500000
v 0.11930000 -0.03405615 -0.60100000
v 0.11930000 -0.02705615 -0.59400000
v 0.11930000 0.02705615 -0.59400000
v 0.11930000 0.03405615 -0.60100000
v 0.11930000 0.03405615 -0.73500000
v 0.11930000 0.02705615 -0.74200000
v 0.12150000 0.03457018 -0.57000000
v 0.12250000 0.04157018 -0.57900000
v 0.12250000 0.04157018 -0.75700000
v 0.12150000 0.03457018 -0.76600000
v 0.12150000 -0.03457018 -0.76600000
v 0.12150000 -0.03457018 -0.57000000
v 0.12150000 -0.04257018 -0.75800000
v 0.12150000 -0.04257018 -0.57800000
v 0.12250000 -0.02705615 -0.74200000
v 0.12250000 -0.03405615 -0.73500000
v 0.12250000 0.02705615 -0.74200000
v 0.12250000 0.03405615 -0.73500000
v 0.12250000 0.03405615 -0.60100000
v 0.12250000 0.02705615 -0.59400000
v 0.12250000 -0.02705615 -0.59400000
v 0.12250000 -0.03405615 -0.60100000
v 0.12250000 0.03357018 -0.57100000
v 0.12250000 -0.03357018 -0.57100000
v 0.12250000 -0.04157018 -0.57900000
v 0.12250000 -0.04157018 -0.75700000
v 0.12250000 -0.03357018 -0.76500000
v 0.12250000 0.03357018 -0.76500000
v 0.11930000 0.04013760 0.36600000
v 0.11930000 0.04013760 0.59400000
v 0.12150000 0.04013760 0.59400000
v 0.12150000 0.04013760 0.36600000
v 0.11930000 0.03213760 0.60200000
v 0.12150000 0.03213760 0.60200000
v 0.11930000 -0.03213760 0.60200000
v 0.12150000 -0.03213760 0.60200000
v 0.11930000 -0.04013760 0.59400000
v 0.12150000 -0.04013760 0.59400000
v 0.11930000 -0.04013760 0.36600000
v 0.12150000 -0.04013760 0.36600000
v 0.11930000 -0.03213760 0.35800000
v 0.12150000 -0.03213760 0.35800000
v 0.11930000 0.03213760 0.35800000
v 0.12150000 0.03213760 0.35800000
v 0.12250000 0.03913760 0.59300000
v 0.12250000 0.03913760 0.36700000
v 0.12250000 0.03113760 0.60100000
v 0.12250000 -0.03113760 0.60100000
v 0.12250000 -0.03913760 0.59300000
v 0.12250000 -0.03913760 0.36700000
v 0.12250000 -0.03113760 0.35900000
v 0.12250000 0.03113760 0.35900000
v 0.11930000 -0.04500276 -0.56950000
v 0.11930000 -0.04500276 0.18950000
v 0.12150000 -0.04500276 0.18950000
v 0.12150000 -0.04500276 -0.56950000
v 0.11930000 -0.05300276 0.19750000
v 0.12150000 -0.05300276 0.19750000
v 0.11930000 -0.07186977 0.19750000
v 0.12150000 -0.07186977 0.19750000
v 0.11930000 -0.07986977 0.18950000
v 0.12150000 -0.07986977 0.18950000
v 0.11930000 -0.07986977 -0.56950000
v 0.12150000 -0.07986977 -0.56950000
v 0.11930000 -0.07186977 -0.57750000
v 0.12150000 -0.07186977 -0.57750000
v 0.11930000 -0.05300276 -0.57750000
v 0.12150000 -0.05300276 -0.57750000
v 0.12250000 -0.04600276 0.18850000
v 0.12250000 -0.04600276 -0.56850000
v 0.12250000 -0.05400276 0.19650000
v 0.12250000 -0.07086977 0.19650000
v 0.12250000 -0.07886977 0.18850000
v 0.12250000 -0.07886977 -0.56850000
v 0.12250000 -0.07086977 -0.57650000
v 0.12250000 -0.05400276 -0.57650000
v -0.05189508 -0.11950000 0.63947377
v -0.05189508 -0.11950000 0.79052623
v -0.05189508 -0.12133801 0.79052623
v -0.05189508 -0.12133801 0.63947377
v -0.03892131 -0.11950000 0.80350000
v -0.03892131 -0.12133801 0.80350000
v 0.03892131 -0.11950000 0.80350000
v 0.03892131 -0.12133801 0.80350000
v 0.05189508 -0.11950000 0.79052623
v 0.05189508 -0.12133801 0.79052623
v 0.05189508 -0.11950000 0.63947377
v 0.05189508 -0.12133801 0.63947377
v 0.03892131 -0.11950000 0.62650000
v 0.03892131 -0.12133801 0.62650000
v -0.03892131 -0.11950000 0.62650000
v -0.03892131 -0.12133801 0.62650000
v -0.05089508 -0.12233801 0.78952623
v -0.05089508 -0.12233801 0.64047377
v -0.03792131 -0.12233801 0.80250000
v 0.03792131 -0.12233801 0.80250000
v 0.05089508 -0.12233801 0.78952623
v 0.05089508 -0.12233801 0.64047377
v 0.03792131 -0.12233801 0.62750000
v -0.03792131 -0.12233801 0.62750000
f 3 2 1
f 3 1 4
f 8 9 10
f 8 10 1
f 7 1 2
f 7 2 5
f 7 5 6
f 7 8 1
f 11 5 2
f 11 2 3
f 12 3 4
f 12 4 13
f 4 1 10
f 4 10 14
f 15 6 5
f 15 5 11
f 7 6 15
f 16 7 15
f 17 8 7
f 17 7 16
f 18 9 8
f 18 8 17
f 14 10 9
f 14 9 18
f 19 11 3
f 19 3 12
f 22 24 23
f 22 13 24
f 92 13 91
f 90 91 13
f 93 13 92
f 89 90 13
f 94 13 93
f 88 89 13
f 95 13 94
f 87 88 13
f 96 13 95
f 86 87 13
f 97 13 96
f 85 86 13
f 98 13 97
f 84 85 13
f 99 13 98
f 83 84 13
f 100 13 99
f 82 83 13
f 101 13 100
f 81 82 13
f 102 13 101
f 80 81 13
f 103 13 102
f 79 80 13
f 78 79 13
f 77 13 22
f 77 78 13
f 76 77 22
f 75 76 22
f 74 75 22
f 73 74 22
f 72 73 22
f 71 72 22
f 70 71 22
f 69 70 22
f 68 69 22
f 67 68 22
f 66 67 22
f 65 66 22
f 12 117 118
f 12 118 119
f 12 119 120
f 12 120 121
f 12 121 122
f 12 122 123
f 12 123 124
f 12 124 125
f 12 125 126
f 12 126 127
f 12 127 128
f 12 128 129
f 12 103 104
f 12 104 105
f 12 105 106
f 12 106 107
f 12 107 108
f 12 108 109
f 12 109 110
f 12 110 111
f 12 111 112
f 12 112 113
f 12 113 114
f 12 114 115
f 12 115 116
f 12 116 117
f 19 129 25
f 19 12 129
f 20 25 26
f 20 19 25
f 21 26 27
f 21 27 28
f 21 28 29
f 21 29 30
f 21 30 31
f 21 31 32
f 21 32 33
f 21 33 34
f 21 34 35
f 21 35 36
f 21 36 37
f 21 37 38
f 21 38 39
f 21 39 40
f 21 40 41
f 21 41 42
f 21 42 43
f 21 43 44
f 21 44 45
f 21 45 46
f 21 46 47
f 21 47 48
f 21 48 49
f 21 49 50
f 21 50 51
f 21 20 26
f 13 103 12
f 21 51 22
f 51 52 22
f 52 53 22
f 53 54 22
f 54 55 22
f 55 56 22
f 56 57 22
f 57 58 22
f 58 59 22
f 59 60 22
f 60 61 22
f 61 62 22
f 62 63 22
f 63 64 22
f 64 65 22
f 13 4 14
f 13 14 24
f 20 15 11
f 20 11 19
f 21 16 15
f 21 15 20
f 17 16 21
f 22 17 21
f 18 17 22
f 23 18 22
f 24 14 18
f 24 18 23
f 26 25 130
f 26 130 131
f 27 131 132
f 27 26 131
f 28 132 133
f 28 27 132
f 29 133 134
f 29 28 133
f 30 134 135
f 30 29 134
f 31 135 136
f 31 136 137
f 31 30 135
f 32 31 137
f 33 137 138
f 33 32 137
f 34 138 139
f 34 33 138
f 35 139 140
f 35 140 141
f 35 34 139
f 36 35 141
f 37 141 142
f 37 36 141
f 38 142 143
f 38 37 142
f 39 143 144
f 39 38 143
f 40 144 145
f 40 145 146
f 40 39 144
f 41 40 146
f 42 146 147
f 42 41 146
f 43 147 148
f 43 42 147
f 44 148 149
f 44 43 148
f 45 149 150
f 45 150 151
f 45 44 149
f 46 45 151
f 47 46 151
f 47 151 152
f 48 47 152
f 48 152 153
f 48 153 154
f 49 48 154
f 49 154 155
f 50 49 155
f 51 50 155
f 51 155 156
f 51 156 157
f 52 51 157
f 53 52 157
f 53 157 158
f 53 158 159
f 54 53 159
f 54 159 160
f 55 54 160
f 56 160 161
f 56 55 160
f 57 161 162
f 57 56 161
f 58 162 163
f 58 57 162
f 59 163 164
f 59 58 163
f 60 164 165
f 60 59 164
f 61 165 166
f 61 60 165
f 62 166 167
f 62 167 168
f 62 61 166
f 63 62 168
f 64 168 169
f 64 63 168
f 65 169 170
f 65 64 169
f 66 170 171
f 66 65 170
f 67 171 172
f 67 66 171
f 68 172 173
f 68 67 172
f 69 173 174
f 69 174 175
f 69 68 173
f 70 69 175
f 71 175 176
f 71 70 175
f 72 176 177
f 72 177 178
f 72 71 176
f 73 72 178
f 73 178 179
f 74 73 179
f 75 74 179
f 75 179 180
f 76 75 180
f 76 180 181
f 77 76 181
f 77 181 182
f 78 77 182
f 78 182 183
f 79 78 183
f 79 183 184
f 79 184 185
f 80 79 185
f 81 80 185
f 81 185 186
f 82 81 186
f 82 186 187
f 83 82 187
f 83 187 188
f 84 83 188
f 84 188 189
f 85 84 189
f 85 189 190
f 86 85 190
f 86 190 191
f 87 86 191
f 87 191 192
f 87 192 193
f 88 87 193
f 89 88 193
f 89 193 194
f 90 194 195
f 90 89 194
f 91 195 196
f 91 90 195
f 92 196 197
f 92 197 198
f 92 91 196
f 93 92 198
f 94 198 199
f 94 93 198
f 95 199 200
f 95 94 199
f 96 200 201
f 96 201 202
f 96 95 200
f 97 96 202
f 98 97 202
f 98 202 203
f 99 98 203
f 99 203 204
f 100 99 204
f 100 204 205
f 101 100 205
f 101 205 206
f 102 101 206
f 102 206 207
f 103 102 207
f 103 207 208
f 104 103 208
f 104 208 209
f 105 104 209
f 105 209 210
f 105 210 211
f 106 105 211
f 106 211 212
f 107 106 212
f 108 107 212
f 108 212 213
f 109 108 213
f 109 213 214
f 110 109 214
f 110 214 215
f 111 110 215
f 111 215 216
f 111 216 217
f 112 111 217
f 113 112 217
f 113 217 218
f 114 113 218
f 114 218 219
f 115 114 219
f 115 219 220
f 116 115 220
f 116 220 221
f 116 221 222
f 117 116 222
f 117 222 223
f 118 117 223
f 118 223 224
f 119 118 224
f 120 225 226
f 120 119 224
f 120 224 225
f 121 226 227
f 121 120 226
f 122 121 227
f 123 227 228
f 123 122 227
f 124 228 229
f 124 229 230
f 124 123 228
f 125 124 230
f 126 230 231
f 126 231 232
f 126 125 230
f 127 126 232
f 128 232 233
f 128 233 234
f 128 127 232
f 129 128 234
f 25 234 130
f 25 129 234
f 301 196 195
f 300 301 195
f 302 196 301
f 302 197 196
f 299 194 193
f 299 195 194
f 299 300 195
f 303 198 197
f 303 197 302
f 298 299 193
f 304 198 303
f 304 199 198
f 297 192 191
f 297 193 192
f 297 298 193
f 305 200 199
f 305 199 304
f 296 297 191
f 306 200 305
f 306 201 200
f 306 202 201
f 295 191 190
f 295 296 191
f 307 202 306
f 307 203 202
f 294 295 190
f 294 190 189
f 308 203 307
f 293 294 189
f 293 188 187
f 293 189 188
f 309 203 308
f 309 204 203
f 309 205 204
f 292 293 187
f 310 205 309
f 291 292 187
f 291 187 186
f 311 205 310
f 311 206 205
f 290 291 186
f 290 185 184
f 290 186 185
f 312 206 311
f 312 207 206
f 289 290 184
f 313 207 312
f 313 208 207
f 313 209 208
f 288 183 182
f 288 184 183
f 288 289 184
f 314 209 313
f 314 210 209
f 287 288 182
f 315 210 314
f 286 182 181
f 286 287 182
f 316 210 315
f 316 211 210
f 285 181 180
f 285 286 181
f 317 211 316
f 317 212 211
f 284 180 179
f 284 285 180
f 318 212 317
f 318 213 212
f 283 179 178
f 283 284 179
f 319 213 318
f 319 214 213
f 282 177 176
f 282 178 177
f 282 283 178
f 320 214 319
f 320 215 214
f 281 282 176
f 321 215 320
f 321 216 215
f 280 281 176
f 280 175 174
f 280 176 175
f 322 216 321
f 322 217 216
f 279 280 174
f 323 218 217
f 323 217 322
f 278 174 173
f 278 279 174
f 324 219 218
f 324 218 323
f 277 278 173
f 277 172 171
f 277 173 172
f 325 220 219
f 325 219 324
f 276 277 171
f 326 220 325
f 326 221 220
f 275 276 171
f 275 171 170
f 222 221 326
f 222 326 327
f 169 275 170
f 169 274 275
f 328 222 327
f 223 222 328
f 168 274 169
f 168 272 273
f 168 273 274
f 224 223 328
f 224 328 329
f 167 272 168
f 225 224 329
f 225 329 330
f 225 330 331
f 166 271 272
f 166 272 167
f 226 331 332
f 226 225 331
f 165 270 271
f 165 271 166
f 227 332 333
f 227 226 332
f 164 270 165
f 164 269 270
f 228 227 333
f 163 269 164
f 163 268 269
f 229 333 334
f 229 228 333
f 162 266 267
f 162 267 268
f 162 268 163
f 230 334 335
f 230 335 336
f 230 229 334
f 161 265 266
f 161 266 162
f 231 230 336
f 160 265 161
f 232 336 337
f 232 231 336
f 159 264 265
f 159 265 160
f 233 337 338
f 233 338 339
f 233 232 337
f 158 263 264
f 158 264 159
f 234 233 339
f 157 262 263
f 157 263 158
f 130 235 236
f 130 339 235
f 130 234 339
f 156 260 261
f 156 261 262
f 156 262 157
f 131 130 236
f 155 260 156
f 132 236 237
f 132 131 236
f 154 258 259
f 154 259 260
f 154 260 155
f 133 237 238
f 133 238 239
f 133 132 237
f 153 258 154
f 134 133 239
f 152 257 258
f 152 258 153
f 135 239 240
f 135 240 241
f 135 134 239
f 151 255 256
f 151 256 257
f 151 257 152
f 136 135 241
f 150 255 151
f 137 241 242
f 137 136 241
f 149 255 150
f 149 253 254
f 149 254 255
f 138 242 243
f 138 137 242
f 148 253 149
f 148 252 253
f 139 138 243
f 139 243 244
f 147 252 148
f 140 244 245
f 140 139 244
f 146 251 252
f 146 252 147
f 141 140 245
f 141 245 246
f 145 251 146
f 145 250 251
f 142 246 247
f 142 247 248
f 142 141 246
f 144 249 250
f 144 250 145
f 143 248 249
f 143 249 144
f 143 142 248
f 236 235 340
f 236 340 341
f 237 341 342
f 237 236 341
f 238 342 343
f 238 237 342
f 239 343 344
f 239 238 343
f 240 344 345
f 240 345 346
f 240 239 344
f 241 240 346
f 242 346 347
f 242 241 346
f 243 347 348
f 243 242 347
f 244 348 349
f 244 243 348
f 245 349 350
f 245 350 351
f 245 244 349
f 246 245 351
f 247 351 352
f 247 246 351
f 248 352 353
f 248 247 352
f 249 353 354
f 249 354 355
f 249 248 353
f 250 249 355
f 251 355 356
f 251 250 355
f 252 356 357
f 252 251 356
f 253 357 358
f 253 252 357
f 254 358 359
f 254 253 358
f 255 359 360
f 255 254 359
f 256 360 361
f 256 255 360
f 257 256 361
f 257 361 362
f 258 257 362
f 258 362 363
f 259 258 363
f 259 363 364
f 260 259 364
f 260 364 365
f 261 260 365
f 261 365 366
f 262 261 366
f 262 366 367
f 263 262 367
f 263 367 368
f 264 263 368
f 264 368 369
f 264 369 370
f 265 264 370
f 266 370 371
f 266 265 370
f 267 371 372
f 267 266 371
f 268 372 373
f 268 373 374
f 268 267 372
f 269 374 375
f 269 268 374
f 270 269 375
f 271 375 376
f 271 376 377
f 271 270 375
f 272 271 377
f 273 377 378
f 273 272 377
f 274 378 379
f 274 273 378
f 275 379 380
f 275 380 381
f 275 274 379
f 276 381 382
f 276 275 381
f 277 276 382
f 278 382 383
f 278 383 384
f 278 277 382
f 279 278 384
f 280 384 385
f 280 385 386
f 280 279 384
f 281 280 386
f 282 386 387
f 282 281 386
f 283 282 387
f 283 387 388
f 284 283 388
f 284 388 389
f 284 389 390
f 285 284 390
f 286 285 390
f 286 390 391
f 287 286 391
f 287 391 392
f 287 392 393
f 288 287 393
f 289 288 393
f 289 393 394
f 289 394 395
f 290 289 395
f 291 290 395
f 291 395 396
f 291 396 397
f 292 291 397
f 293 292 397
f 293 397 398
f 294 293 398
f 294 398 399
f 295 294 399
f 295 399 400
f 296 295 400
f 296 400 401
f 297 296 401
f 297 401 402
f 298 297 402
f 298 402 403
f 299 298 403
f 299 403 404
f 299 404 405
f 300 299 405
f 301 405 406
f 301 300 405
f 302 406 407
f 302 407 408
f 302 301 406
f 303 302 408
f 304 408 409
f 304 303 408
f 305 409 410
f 305 304 409
f 306 410 411
f 306 305 410
f 307 306 411
f 307 411 412
f 308 307 412
f 308 412 413
f 309 308 413
f 309 413 414
f 310 309 414
f 310 414 415
f 311 310 415
f 311 415 416
f 312 311 416
f 312 416 417
f 313 312 417
f 313 417 418
f 314 313 418
f 314 418 419
f 315 314 419
f 315 419 420
f 316 315 420
f 316 420 421
f 317 316 421
f 317 421 422
f 318 317 422
f 318 422 423
f 318 423 424
f 319 318 424
f 320 319 424
f 320 424 425
f 321 320 425
f 321 425 426
f 322 321 426
f 322 426 427
f 323 322 427
f 323 427 428
f 324 323 428
f 324 428 429
f 324 429 430
f 325 324 430
f 326 325 430
f 326 430 431
f 327 326 431
f 327 431 432
f 328 327 432
f 328 432 433
f 328 433 434
f 329 328 434
f 330 329 434
f 330 434 435
f 331 435 436
f 331 330 435
f 332 436 437
f 332 331 436
f 333 332 437
f 333 437 438
f 333 438 439
f 334 333 439
f 335 439 440
f 335 334 439
f 336 440 441
f 336 335 440
f 337 441 442
f 337 442 443
f 337 336 441
f 338 443 444
f 338 337 443
f 339 444 340
f 339 338 444
f 235 339 340
f 408 405 404
f 408 406 405
f 408 407 406
f 400 408 404
f 400 402 401
f 400 403 402
f 400 404 403
f 400 409 408
f 412 411 410
f 397 399 398
f 396 399 397
f 396 400 399
f 395 400 396
f 417 414 413
f 417 415 414
f 417 416 415
f 418 417 413
f 392 394 393
f 392 395 394
f 420 419 418
f 388 390 389
f 424 420 418
f 424 421 420
f 424 422 421
f 424 423 422
f 425 412 410
f 425 418 413
f 425 410 409
f 425 413 412
f 425 424 418
f 386 388 387
f 385 388 386
f 384 388 385
f 428 427 426
f 383 391 390
f 383 390 388
f 383 392 391
f 383 388 384
f 430 429 428
f 430 428 426
f 381 383 382
f 431 430 426
f 431 409 400
f 431 425 409
f 431 426 425
f 379 383 381
f 379 381 380
f 435 432 431
f 435 433 432
f 435 434 433
f 436 435 431
f 375 377 376
f 375 378 377
f 437 436 431
f 437 431 400
f 439 438 437
f 372 378 375
f 372 374 373
f 372 375 374
f 372 379 378
f 441 439 437
f 441 440 439
f 369 371 370
f 369 372 371
f 369 379 372
f 367 369 368
f 340 442 441
f 340 443 442
f 340 444 443
f 340 437 400
f 340 441 437
f 340 400 395
f 340 395 392
f 365 367 366
f 342 341 340
f 362 364 363
f 362 365 364
f 362 367 365
f 361 369 367
f 361 367 362
f 346 343 342
f 346 344 343
f 346 345 344
f 346 383 379
f 346 340 392
f 346 342 340
f 346 392 383
f 359 361 360
f 349 347 346
f 349 348 347
f 357 359 358
f 357 369 361
f 357 361 359
f 350 349 346
f 355 357 356
f 352 350 346
f 352 351 350
f 352 379 369
f 352 346 379
f 354 357 355
f 353 352 369
f 353 357 354
f 353 369 357
f 447 446 445
f 447 445 448
f 452 453 454
f 452 454 445
f 451 445 446
f 451 446 449
f 451 449 450
f 451 452 445
f 449 446 447
f 455 449 447
f 447 448 457
f 456 447 457
f 448 445 454
f 448 454 458
f 459 450 449
f 459 449 455
f 460 451 450
f 460 450 459
f 461 452 451
f 461 451 460
f 462 453 452
f 462 452 461
f 458 454 453
f 458 453 462
f 455 447 456
f 463 455 456
f 466 468 467
f 466 457 468
f 536 457 535
f 534 535 457
f 537 457 536
f 533 534 457
f 538 457 537
f 532 533 457
f 539 457 538
f 531 532 457
f 540 457 539
f 530 531 457
f 541 457 540
f 529 530 457
f 542 457 541
f 528 529 457
f 543 457 542
f 527 528 457
f 544 457 543
f 526 527 457
f 545 457 544
f 525 526 457
f 546 457 545
f 524 525 457
f 547 457 546
f 523 524 457
f 522 523 457
f 521 457 466
f 521 522 457
f 520 521 466
f 519 520 466
f 518 519 466
f 517 518 466
f 516 517 466
f 515 516 466
f 514 515 466
f 513 514 466
f 512 513 466
f 511 512 466
f 510 511 466
f 509 510 466
f 456 561 562
f 456 562 563
f 456 563 564
f 456 564 565
f 456 565 566
f 456 566 567
f 456 567 568
f 456 568 569
f 456 569 570
f 456 570 571
f 456 571 572
f 456 572 573
f 456 547 548
f 456 548 549
f 456 549 550
f 456 550 551
f 456 551 552
f 456 552 553
f 456 553 554
f 456 554 555
f 456 555 556
f 456 556 557
f 456 557 558
f 456 558 559
f 456 559 560
f 456 560 561
f 463 573 469
f 463 456 573
f 464 469 470
f 464 463 469
f 465 470 471
f 465 471 472
f 465 472 473
f 465 473 474
f 465 474 475
f 465 475 476
f 465 476 477
f 465 477 478
f 465 478 479
f 465 479 480
f 465 480 481
f 465 481 482
f 465 482 483
f 465 483 484
f 465 484 485
f 465 485 486
f 465 486 487
f 465 487 488
f 465 488 489
f 465 489 490
f 465 490 491
f 465 491 492
f 465 492 493
f 465 493 494
f 465 494 495
f 465 464 470
f 457 547 456
f 465 495 466
f 495 496 466
f 496 497 466
f 497 498 466
f 498 499 466
f 499 500 466
f 500 501 466
f 501 502 466
f 502 503 466
f 503 504 466
f 504 505 466
f 505 506 466
f 506 507 466
f 507 508 466
f 508 509 466
f 457 448 458
f 457 458 468
f 464 459 455
f 464 455 463
f 465 460 459
f 465 459 464
f 466 461 460
f 466 460 465
f 462 461 466
f 467 462 466
f 468 458 462
f 468 462 467
f 470 469 574
f 470 574 575
f 471 575 576
f 471 470 575
f 472 576 577
f 472 471 576
f 473 577 578
f 473 472 577
f 474 578 579
f 474 473 578
f 475 579 580
f 475 580 581
f 475 474 579
f 476 475 581
f 477 581 582
f 477 476 581
f 478 582 583
f 478 477 582
f 479 583 584
f 479 584 585
f 479 478 583
f 480 479 585
f 481 585 586
f 481 480 585
f 482 586 587
f 482 481 586
f 483 587 588
f 483 482 587
f 484 588 589
f 484 589 590
f 484 483 588
f 485 484 590
f 486 590 591
f 486 485 590
f 487 591 592
f 487 486 591
f 488 592 593
f 488 487 592
f 489 593 594
f 489 594 595
f 489 488 593
f 490 489 595
f 491 490 595
f 491 595 596
f 492 491 596
f 492 596 597
f 492 597 598
f 493 492 598
f 493 598 599
f 494 493 599
f 495 494 599
f 495 599 600
f 495 600 601
f 496 495 601
f 497 496 601
f 497 601 602
f 497 602 603
f 498 497 603
f 498 603 604
f 499 498 604
f 500 604 605
f 500 499 604
f 501 605 606
f 501 500 605
f 502 606 607
f 502 501 606
f 503 607 608
f 503 502 607
f 504 608 609
f 504 503 608
f 505 609 610
f 505 504 609
f 506 610 611
f 506 611 612
f 506 505 610
f 507 506 612
f 508 612 613
f 508 507 612
f 509 613 614
f 509 508 613
f 510 614 615
f 510 509 614
f 511 615 616
f 511 510 615
f 512 616 617
f 512 511 616
f 513 617 618
f 513 618 619
f 513 512 617
f 514 513 619
f 515 619 620
f 515 514 619
f 516 620 621
f 516 621 622
f 516 515 620
f 517 516 622
f 517 622 623
f 518 517 623
f 519 518 623
f 519 623 624
f 520 519 624
f 520 624 625
f 521 520 625
f 521 625 626
f 522 521 626
f 522 626 627
f 523 522 627
f 523 627 628
f 523 628 629
f 524 523 629
f 525 524 629
f 525 629 630
f 526 525 630
f 526 630 631
f 527 526 631
f 527 631 632
f 528 527 632
f 528 632 633
f 529 528 633
f 529 633 634
f 530 529 634
f 530 634 635
f 531 530 635
f 531 635 636
f 531 636 637
f 532 531 637
f 533 532 637
f 533 637 638
f 534 638 639
f 534 533 638
f 535 639 640
f 535 534 639
f 536 640 641
f 536 641 642
f 536 535 640
f 537 536 642
f 538 642 643
f 538 537 642
f 539 643 644
f 539 538 643
f 540 644 645
f 540 645 646
f 540 539 644
f 541 540 646
f 542 541 646
f 542 646 647
f 543 542 647
f 543 647 648
f 544 543 648
f 544 648 649
f 545 544 649
f 545 649 650
f 546 545 650
f 546 650 651
f 547 546 651
f 547 651 652
f 548 547 652
f 548 652 653
f 549 548 653
f 549 653 654
f 549 654 655
f 550 549 655
f 550 655 656
f 551 550 656
f 552 551 656
f 552 656 657
f 553 552 657
f 553 657 658
f 554 553 658
f 554 658 659
f 555 554 659
f 555 659 660
f 555 660 661
f 556 555 661
f 557 556 661
f 557 661 662
f 558 557 662
f 558 662 663
f 559 558 663
f 559 663 664
f 560 559 664
f 560 664 665
f 560 665 666
f 561 560 666
f 561 666 667
f 562 561 667
f 562 667 668
f 563 562 668
f 564 669 670
f 564 563 668
f 564 668 669
f 565 670 671
f 565 564 670
f 566 565 671
f 567 671 672
f 567 566 671
f 568 672 673
f 568 673 674
f 568 567 672
f 569 568 674
f 570 674 675
f 570 675 676
f 570 569 674
f 571 570 676
f 572 676 677
f 572 677 678
f 572 571 676
f 573 572 678
f 469 678 574
f 469 573 678
f 745 640 639
f 744 745 639
f 746 640 745
f 746 641 640
f 743 638 637
f 743 639 638
f 743 744 639
f 747 642 641
f 747 641 746
f 742 743 637
f 748 642 747
f 748 643 642
f 741 636 635
f 741 637 636
f 741 742 637
f 749 644 643
f 749 643 748
f 740 741 635
f 750 644 749
f 750 645 644
f 750 646 645
f 739 635 634
f 739 740 635
f 751 646 750
f 751 647 646
f 738 739 634
f 738 634 633
f 752 647 751
f 737 738 633
f 737 632 631
f 737 633 632
f 753 647 752
f 753 648 647
f 753 649 648
f 736 737 631
f 754 649 753
f 735 736 631
f 735 631 630
f 755 649 754
f 755 650 649
f 734 735 630
f 734 629 628
f 734 630 629
f 756 650 755
f 756 651 650
f 733 734 628
f 757 651 756
f 757 652 651
f 757 653 652
f 732 627 626
f 732 628 627
f 732 733 628
f 758 653 757
f 758 654 653
f 731 732 626
f 759 654 758
f 730 626 625
f 730 731 626
f 760 654 759
f 760 655 654
f 729 625 624
f 729 730 625
f 761 655 760
f 761 656 655
f 728 624 623
f 728 729 624
f 762 656 761
f 762 657 656
f 727 623 622
f 727 728 623
f 763 657 762
f 763 658 657
f 726 621 620
f 726 622 621
f 726 727 622
f 764 658 763
f 764 659 658
f 725 726 620
f 765 659 764
f 765 660 659
f 724 725 620
f 724 619 618
f 724 620 619
f 766 660 765
f 766 661 660
f 723 724 618
f 767 662 661
f 767 661 766
f 722 618 617
f 722 723 618
f 768 663 662
f 768 662 767
f 721 722 617
f 721 616 615
f 721 617 616
f 769 664 663
f 769 663 768
f 720 721 615
f 770 664 769
f 770 665 664
f 719 720 615
f 719 615 614
f 666 665 770
f 666 770 771
f 613 719 614
f 613 718 719
f 772 666 771
f 667 666 772
f 612 718 613
f 612 716 717
f 612 717 718
f 668 667 772
f 668 772 773
f 611 716 612
f 669 668 773
f 669 773 774
f 669 774 775
f 610 715 716
f 610 716 611
f 670 775 776
f 670 669 775
f 609 714 715
f 609 715 610
f 671 776 777
f 671 670 776
f 608 714 609
f 608 713 714
f 672 671 777
f 607 713 608
f 607 712 713
f 673 777 778
f 673 672 777
f 606 710 711
f 606 711 712
f 606 712 607
f 674 778 779
f 674 779 780
f 674 673 778
f 605 709 710
f 605 710 606
f 675 674 780
f 604 709 605
f 676 780 781
f 676 675 780
f 603 708 709
f 603 709 604
f 677 781 782
f 677 782 783
f 677 676 781
f 602 707 708
f 602 708 603
f 678 677 783
f 601 706 707
f 601 707 602
f 574 679 680
f 574 783 679
f 574 678 783
f 600 704 705
f 600 705 706
f 600 706 601
f 575 574 680
f 599 704 600
f 576 680 681
f 576 575 680
f 598 702 703
f 598 703 704
f 598 704 599
f 577 681 682
f 577 682 683
f 577 576 681
f 597 702 598
f 578 577 683
f 596 701 702
f 596 702 597
f 579 683 684
f 579 684 685
f 579 578 683
f 595 699 700
f 595 700 701
f 595 701 596
f 580 579 685
f 594 699 595
f 581 685 686
f 581 580 685
f 593 699 594
f 593 697 698
f 593 698 699
f 582 686 687
f 582 581 686
f 592 697 593
f 592 696 697
f 583 582 687
f 583 687 688
f 591 696 592
f 584 688 689
f 584 583 688
f 590 695 696
f 590 696 591
f 585 584 689
f 585 689 690
f 589 695 590
f 589 694 695
f 586 690 691
f 586 691 692
f 586 585 690
f 588 693 694
f 588 694 589
f 587 692 693
f 587 693 588
f 587 586 692
f 680 679 784
f 680 784 785
f 681 785 786
f 681 680 785
f 682 786 787
f 682 681 786
f 683 787 788
f 683 682 787
f 684 788 789
f 684 789 790
f 684 683 788
f 685 684 790
f 686 790 791
f 686 685 790
f 687 791 792
f 687 686 791
f 688 792 793
f 688 687 792
f 689 793 794
f 689 794 795
f 689 688 793
f 690 689 795
f 691 795 796
f 691 690 795
f 692 796 797
f 692 691 796
f 693 797 798
f 693 798 799
f 693 692 797
f 694 693 799
f 695 799 800
f 695 694 799
f 696 800 801
f 696 695 800
f 697 801 802
f 697 696 801
f 698 802 803
f 698 697 802
f 699 803 804
f 699 698 803
f 700 804 805
f 700 699 804
f 701 700 805
f 701 805 806
f 702 701 806
f 702 806 807
f 703 702 807
f 703 807 808
f 704 703 808
f 704 808 809
f 705 704 809
f 705 809 810
f 706 705 810
f 706 810 811
f 707 706 811
f 707 811 812
f 708 707 812
f 708 812 813
f 708 813 814
f 709 708 814
f 710 814 815
f 710 709 814
f 711 815 816
f 711 710 815
f 712 816 817
f 712 817 818
f 712 711 816
f 713 818 819
f 713 712 818
f 714 713 819
f 715 819 820
f 715 820 821
f 715 714 819
f 716 715 821
f 717 821 822
f 717 716 821
f 718 822 823
f 718 717 822
f 719 823 824
f 719 824 825
f 719 718 823
f 720 825 826
f 720 719 825
f 721 720 826
f 722 826 827
f 722 827 828
f 722 721 826
f 723 722 828
f 724 828 829
f 724 829 830
f 724 723 828
f 725 724 830
f 726 830 831
f 726 725 830
f 727 726 831
f 727 831 832
f 728 727 832
f 728 832 833
f 728 833 834
f 729 728 834
f 730 729 834
f 730 834 835
f 731 730 835
f 731 835 836
f 731 836 837
f 732 731 837
f 733 732 837
f 733 837 838
f 733 838 839
f 734 733 839
f 735 734 839
f 735 839 840
f 735 840 841
f 736 735 841
f 737 736 841
f 737 841 842
f 738 737 842
f 738 842 843
f 739 738 843
f 739 843 844
f 740 739 844
f 740 844 845
f 741 740 845
f 741 845 846
f 742 741 846
f 742 846 847
f 743 742 847
f 743 847 848
f 743 848 849
f 744 743 849
f 745 849 850
f 745 744 849
f 746 850 851
f 746 851 852
f 746 745 850
f 747 746 852
f 748 852 853
f 748 747 852
f 749 853 854
f 749 748 853
f 750 854 855
f 750 749 854
f 751 750 855
f 751 855 856
f 752 751 856
f 752 856 857
f 753 752 857
f 753 857 858
f 754 753 858
f 754 858 859
f 755 754 859
f 755 859 860
f 756 755 860
f 756 860 861
f 757 756 861
f 757 861 862
f 758 757 862
f 758 862 863
f 759 758 863
f 759 863 864
f 760 759 864
f 760 864 865
f 761 760 865
f 761 865 866
f 762 761 866
f 762 866 867
f 762 867 868
f 763 762 868
f 764 763 868
f 764 868 869
f 765 764 869
f 765 869 870
f 766 765 870
f 766 870 871
f 767 766 871
f 767 871 872
f 768 767 872
f 768 872 873
f 768 873 874
f 769 768 874
f 770 769 874
f 770 874 875
f 771 770 875
f 771 875 876
f 772 771 876
f 772 876 877
f 772 877 878
f 773 772 878
f 774 773 878
f 774 878 879
f 775 879 880
f 775 774 879
f 776 880 881
f 776 775 880
f 777 776 881
f 777 881 882
f 777 882 883
f 778 777 883
f 779 883 884
f 779 778 883
f 780 884 885
f 780 779 884
f 781 885 886
f 781 886 887
f 781 780 885
f 782 887 888
f 782 781 887
f 783 888 784
f 783 782 888
f 679 783 784
f 846 848 847
f 854 853 852
f 845 848 846
f 844 848 845
f 844 849 848
f 844 850 849
f 856 855 854
f 842 844 843
f 858 857 856
f 860 859 858
f 839 844 842
f 839 841 840
f 839 842 841
f 861 860 858
f 862 858 856
f 862 861 858
f 836 838 837
f 864 863 862
f 866 865 864
f 833 835 834
f 833 836 835
f 832 836 833
f 869 864 862
f 869 856 854
f 869 862 856
f 869 866 864
f 869 867 866
f 869 868 867
f 870 854 852
f 870 851 850
f 870 852 851
f 870 869 854
f 829 831 830
f 829 832 831
f 871 870 850
f 827 829 828
f 827 832 829
f 873 872 871
f 875 873 871
f 875 850 844
f 875 871 850
f 875 874 873
f 824 826 825
f 824 827 826
f 822 827 824
f 822 824 823
f 879 876 875
f 879 877 876
f 879 878 877
f 881 879 875
f 881 880 879
f 818 820 819
f 818 821 820
f 818 822 821
f 815 822 818
f 815 817 816
f 815 818 817
f 885 881 875
f 885 844 839
f 885 875 844
f 885 882 881
f 885 883 882
f 885 884 883
f 813 827 822
f 813 815 814
f 813 822 815
f 887 886 885
f 784 888 887
f 784 885 839
f 784 887 885
f 784 839 838
f 784 838 836
f 810 812 811
f 786 785 784
f 808 810 809
f 788 787 786
f 806 808 807
f 806 813 812
f 806 812 810
f 806 810 808
f 790 789 788
f 790 784 836
f 790 786 784
f 790 788 786
f 790 836 832
f 790 832 827
f 802 804 803
f 793 791 790
f 793 792 791
f 801 805 804
f 801 806 805
f 801 827 813
f 801 813 806
f 801 790 827
f 801 804 802
f 794 793 790
f 800 790 801
f 795 794 790
f 797 790 800
f 797 795 790
f 797 796 795
f 797 799 798
f 797 800 799
f 891 890 889
f 891 889 892
f 905 898 889
f 905 889 904
f 897 898 905
f 890 903 904
f 890 904 889
f 906 897 905
f 902 903 890
f 896 897 906
f 900 896 906
f 893 902 890
f 894 901 902
f 894 902 893
f 895 899 901
f 895 901 894
f 895 896 900
f 895 900 899
f 893 890 891
f 907 893 891
f 908 891 892
f 908 892 909
f 892 889 898
f 892 898 910
f 910 898 897
f 910 897 911
f 912 894 893
f 912 893 907
f 911 897 896
f 911 896 913
f 914 895 894
f 914 894 912
f 913 896 895
f 913 895 914
f 916 900 915
f 916 899 900
f 900 906 917
f 915 900 917
f 906 905 918
f 917 906 918
f 905 904 919
f 918 905 919
f 919 903 920
f 919 904 903
f 903 902 921
f 920 903 921
f 921 901 922
f 921 902 901
f 901 899 916
f 922 901 916
f 907 891 908
f 923 907 908
f 918 909 928
f 918 919 909
f 927 918 928
f 917 918 927
f 908 919 920
f 908 909 919
f 926 917 927
f 921 908 920
f 915 917 926
f 923 908 921
f 924 921 922
f 924 923 921
f 925 922 916
f 925 924 922
f 925 915 926
f 925 916 915
f 909 892 910
f 909 910 928
f 928 910 911
f 928 911 927
f 924 912 907
f 924 907 923
f 927 911 913
f 927 913 926
f 925 914 912
f 925 912 924
f 926 913 914
f 926 914 925
f 930 929 932
f 931 930 932
f 933 930 931
f 934 933 931
f 936 935 933
f 936 933 934
f 937 935 936
f 938 937 936
f 939 937 938
f 940 939 938
f 941 939 940
f 942 941 940
f 944 943 941
f 944 941 942
f 932 929 943
f 932 943 944
f 945 931 932
f 945 932 946
f 934 931 945
f 947 934 945
f 948 936 934
f 948 934 947
f 938 936 948
f 949 938 948
f 950 940 938
f 950 938 949
f 942 940 950
f 951 942 950
f 952 944 942
f 952 942 951
f 946 932 944
f 946 944 952
f 941 943 929
f 939 941 929
f 935 930 933
f 937 929 930
f 937 939 929
f 937 930 935
f 951 946 952
f 950 946 951
f 949 945 946
f 949 947 945
f 949 948 947
f 949 946 950
f 955 954 953
f 955 953 956
f 958 957 954
f 958 954 955
f 960 959 957
f 960 957 958
f 962 961 959
f 962 959 960
f 964 963 961
f 964 961 962
f 966 965 963
f 966 963 964
f 968 967 965
f 968 965 966
f 953 967 968
f 956 953 968
f 969 955 956
f 969 956 970
f 958 955 969
f 971 958 969
f 972 960 958
f 972 958 971
f 962 960 972
f 973 962 972
f 974 964 962
f 974 962 973
f 966 964 974
f 975 966 974
f 976 968 966
f 976 966 975
f 956 968 976
f 970 956 976
f 963 965 967
f 963 967 953
f 961 953 954
f 961 954 957
f 961 957 959
f 961 963 953
f 975 970 976
f 974 970 975
f 969 970 974
f 972 971 969
f 973 969 974
f 973 972 969
f 979 977 978
f 979 980 977
f 994 977 986
f 994 993 977
f 985 994 986
f 978 993 992
f 978 977 993
f 987 994 985
f 991 978 992
f 984 987 985
f 988 987 984
f 981 978 991
f 982 991 990
f 982 981 991
f 983 990 989
f 983 982 990
f 983 989 984
f 989 988 984
f 981 979 978
f 995 979 981
f 996 980 979
f 996 997 980
f 980 986 977
f 980 998 986
f 998 985 986
f 998 999 985
f 1000 981 982
f 1000 995 981
f 999 984 985
f 999 1001 984
f 983 1000 982
f 1002 1000 983
f 1001 983 984
f 1001 1002 983
f 988 1003 987
f 1004 1003 988
f 987 1005 994
f 1003 1005 987
f 994 1006 993
f 1005 1006 994
f 1006 1007 992
f 1006 992 993
f 992 1008 991
f 1007 1008 992
f 1008 1009 990
f 1008 990 991
f 990 1010 989
f 1009 1010 990
f 1010 1004 988
f 1010 988 989
f 995 996 979
f 1011 996 995
f 1005 1016 997
f 1005 997 1006
f 1015 1016 1005
f 1003 1015 1005
f 996 1007 1006
f 996 1006 997
f 1014 1015 1003
f 1008 1007 996
f 1004 1014 1003
f 1011 1008 996
f 1012 1009 1008
f 1012 1008 1011
f 1013 1010 1009
f 1013 1009 1012
f 1013 1014 1010
f 1010 1014 1004
f 997 998 980
f 997 1016 998
f 1016 999 998
f 1016 1015 999
f 1012 995 1000
f 1012 1011 995
f 1015 1001 999
f 1015 1014 1001
f 1002 1012 1000
f 1013 1012 1002
f 1014 1002 1001
f 1014 1013 1002
f 1018 1020 1017
f 1019 1020 1018
f 1022 1018 1021
f 1022 1019 1018
f 1024 1021 1023
f 1024 1022 1021
f 1026 1023 1025
f 1026 1024 1023
f 1027 1026 1025
f 1028 1026 1027
f 1030 1027 1029
f 1030 1028 1027
f 1032 1029 1031
f 1032 1030 1029
f 1020 1031 1017
f 1020 1032 1031
f 1033 1020 1019
f 1033 1034 1020
f 1035 1019 1022
f 1035 1033 1019
f 1036 1022 1024
f 1036 1035 1022
f 1037 1024 1026
f 1037 1036 1024
f 1038 1026 1028
f 1038 1037 1026
f 1030 1038 1028
f 1039 1038 1030
f 1040 1030 1032
f 1040 1039 1030
f 1034 1032 1020
f 1034 1040 1032
f 1029 1017 1031
f 1027 1017 1029
f 1023 1021 1018
f 1025 1018 1017
f 1025 1017 1027
f 1025 1023 1018
f 1039 1040 1034
f 1038 1039 1034
f 1037 1034 1033
f 1037 1033 1035
f 1037 1035 1036
f 1037 1038 1034
f 1043 1041 1042
f 1043 1044 1041
f 1046 1042 1045
f 1046 1043 1042
f 1048 1045 1047
f 1048 1046 1045
f 1050 1047 1049
f 1050 1048 1047
f 1052 1049 1051
f 1052 1050 1049
f 1053 1052 1051
f 1054 1052 1053
f 1056 1053 1055
f 1056 1054 1053
f 1044 1055 1041
f 1044 1056 1055
f 1057 1044 1043
f 1057 1058 1044
f 1059 1043 1046
f 1059 1057 1043
f 1060 1046 1048
f 1060 1059 1046
f 1050 1060 1048
f 1061 1060 1050
f 1062 1050 1052
f 1062 1061 1050
f 1054 1062 1052
f 1063 1062 1054
f 1064 1054 1056
f 1064 1063 1054
f 1058 1056 1044
f 1058 1064 1056
f 1051 1055 1053
f 1051 1041 1055
f 1049 1042 1041
f 1049 1045 1042
f 1049 1047 1045
f 1049 1041 1051
f 1063 1064 1058
f 1062 1063 1058
f 1057 1062 1058
f 1060 1057 1059
f 1061 1062 1057
f 1061 1057 1060
f 1067 1066 1065
f 1067 1065 1068
f 1070 1069 1066
f 1070 1066 1067
f 1071 1069 1070
f 1072 1071 1070
f 1074 1073 1071
f 1074 1071 1072
f 1076 1075 1073
f 1076 1073 1074
f 1077 1075 1076
f 1078 1077 1076
f 1079 1077 1078
f 1080 1079 1078
f 1065 1079 1080
f 1068 1065 1080
f 1081 1067 1068
f 1081 1068 1082
f 1083 1070 1067
f 1083 1067 1081
f 1084 1072 1070
f 1084 1070 1083
f 1085 1074 1072
f 1085 1072 1084
f 1086 1076 1074
f 1086 1074 1085
f 1078 1076 1086
f 1087 1078 1086
f 1088 1080 1078
f 1088 1078 1087
f 1068 1080 1088
f 1082 1068 1088
f 1075 1065 1066
f 1075 1077 1079
f 1075 1079 1065
f 1073 1066 1069
f 1073 1069 1071
f 1073 1075 1066
f 1087 1082 1088
f 1086 1081 1082
f 1086 1082 1087
f 1084 1083 1081
f 1085 1081 1086
f 1085 1084 1081

