# https://github.com/mikedh/trimesh
v 0.00000000 -0.00445973 0.01946065
v -0.00116383 -0.00445973 0.01942582
v -0.00232349 -0.00445973 0.01932145
v -0.00347483 -0.00445973 0.01914791
v -0.00461374 -0.00445973 0.01890583
v -0.00573613 -0.00445973 0.01859607
v -0.00683798 -0.00445973 0.01821974
v -0.00791536 -0.00445973 0.01777819
v -0.00896440 -0.00445973 0.01727300
v -0.00998136 -0.00445973 0.01670598
v -0.01096258 -0.00445973 0.01607915
v -0.01190456 -0.00445973 0.01539476
v -0.01280392 -0.00445973 0.01465526
v -0.01365745 -0.00445973 0.01386331
v -0.01446208 -0.00445973 0.01302172
v -0.01521495 -0.00445973 0.01213352
v -0.01591335 -0.00445973 0.01120189
v -0.01655479 -0.00445973 0.01023015
v -0.01713697 -0.00445973 0.00922179
v -0.01765779 -0.00445973 0.00818043
v -0.01811541 -0.00445973 0.00710978
v -0.01850818 -0.00445973 0.00601367
v -0.01883470 -0.00445973 0.00489604
v -0.01909379 -0.00445973 0.00376089
v -0.01928453 -0.00445973 0.00261227
v -0.01940624 -0.00445973 0.00145430
v -0.01945848 -0.00445973 0.00029112
v -0.01944106 -0.00445973 -0.00087310
v -0.01935405 -0.00445973 -0.00203419
v -0.01919775 -0.00445973 -0.00318800
v -0.01897274 -0.00445973 -0.00433040
v -0.01867980 -0.00445973 -0.00545730
v -0.01832000 -0.00445973 -0.00656466
v -0.01789461 -0.00445973 -0.00764852
v -0.01740517 -0.00445973 -0.00870501
v -0.01685342 -0.00445973 -0.00973033
v -0.01624134 -0.00445973 -0.01072082
v -0.01557112 -0.00445973 -0.01167293
v -0.01484516 -0.00445973 -0.01258325
v -0.01406606 -0.00445973 -0.01344853
v -0.01323661 -0.00445973 -0.01426567
v -0.01235977 -0.00445973 -0.01503174
v -0.01143869 -0.00445973 -0.01574400
v -0.01047666 -0.00445973 -0.01639990
v -0.00947712 -0.00445973 -0.01699710
v -0.00844366 -0.00445973 -0.01753344
v -0.00737998 -0.00445973 -0.01800703
v -0.00628987 -0.00445973 -0.01841615
v -0.00517725 -0.00445973 -0.01875935
v -0.00404610 -0.00445973 -0.01903539
v -0.00290046 -0.00445973 -0.01924330
v -0.00174444 -0.00445973 -0.01938231
v -0.00058217 -0.00445973 -0.01945194
v 0.00058217 -0.00445973 -0.01945194
v 0.00174444 -0.00445973 -0.01938231
v 0.00290046 -0.00445973 -0.01924330
v 0.00404610 -0.00445973 -0.01903539
v 0.00517725 -0.00445973 -0.01875935
v 0.00628987 -0.00445973 -0.01841615
v 0.00737998 -0.00445973 -0.01800703
v 0.00844366 -0.00445973 -0.01753344
v 0.00947712 -0.00445973 -0.01699710
v 0.01047666 -0.00445973 -0.01639990
v 0.01143869 -0.00445973 -0.01574400
v 0.01235977 -0.00445973 -0.01503174
v 0.01323661 -0.00445973 -0.01426567
v 0.01406606 -0.00445973 -0.01344853
v 0.01484516 -0.00445973 -0.01258325
v 0.01557112 -0.00445973 -0.01167293
v 0.01624134 -0.00445973 -0.01072082
v 0.01685342 -0.00445973 -0.00973033
v 0.01740517 -0.00445973 -0.00870501
v 0.01789461 -0.00445973 -0.00764852
v 0.01832000 -0.00445973 -0.00656466
v 0.01867980 -0.00445973 -0.00545730
v 0.01897274 -0.00445973 -0.00433040
v 0.01919775 -0.00445973 -0.00318800
v 0.01935405 -0.00445973 -0.00203419
v 0.01944106 -0.00445973 -0.00087310
v 0.01945848 -0.00445973 0.00029112
v 0.01940624 -0.00445973 0.00145430
v 0.01928453 -0.00445973 0.00261227
v 0.01909379 -0.00445973 0.00376089
v 0.01883470 -0.00445973 0.00489604
v 0.01850818 -0.00445973 0.00601367
v 0.01811541 -0.00445973 0.00710978
v 0.01765779 -0.00445973 0.00818043
v 0.01713697 -0.00445973 0.00922179
v 0.01655479 -0.00445973 0.01023015
v 0.01591335 -0.00445973 0.01120189
v 0.01521495 -0.00445973 0.01213352
v 0.01446208 -0.00445973 0.01302172
v 0.01365745 -0.00445973 0.01386331
v 0.01280392 -0.00445973 0.01465526
v 0.01190456 -0.00445973 0.01539476
v 0.01096258 -0.00445973 0.01607915
v 0.00998136 -0.00445973 0.01670598
v 0.00896440 -0.00445973 0.01727300
v 0.00791536 -0.00445973 0.01777819
v 0.00683798 -0.00445973 0.01821974
v 0.00573613 -0.00445973 0.01859607
v 0.00461374 -0.00445973 0.01890583
v 0.00347483 -0.00445973 0.01914791
v 0.00232349 -0.00445973 0.01932145
v 0.00116383 -0.00445973 0.01942582
v 0.00000000 -0.00851404 0.01946065
v -0.00116383 -0.00851404 0.01942582
v -0.00232349 -0.00851404 0.01932145
v -0.00347483 -0.00851404 0.01914791
v -0.00461374 -0.00851404 0.01890583
v -0.00573613 -0.00851404 0.01859607
v -0.00683798 -0.00851404 0.01821974
v -0.00791536 -0.00851404 0.01777819
v -0.00896440 -0.00851404 0.01727300
v -0.00998136 -0.00851404 0.01670598
v -0.01096258 -0.00851404 0.01607915
v -0.01190456 -0.00851404 0.01539476
v -0.01280392 -0.00851404 0.01465526
v -0.01365745 -0.00851404 0.01386331
v -0.01446208 -0.00851404 0.01302172
v -0.01521495 -0.00851404 0.01213352
v -0.01591335 -0.00851404 0.01120189
v -0.01655479 -0.00851404 0.01023015
v -0.01713697 -0.00851404 0.00922179
v -0.01765779 -0.00851404 0.00818043
v -0.01811541 -0.00851404 0.00710978
v -0.01850818 -0.00851404 0.00601367
v -0.01883470 -0.00851404 0.00489604
v -0.01909379 -0.00851404 0.00376089
v -0.01928453 -0.00851404 0.00261227
v -0.01940624 -0.00851404 0.00145430
v -0.01945848 -0.00851404 0.00029112
v -0.01944106 -0.00851404 -0.00087310
v -0.01935405 -0.00851404 -0.00203419
v -0.01919775 -0.00851404 -0.00318800
v -0.01897274 -0.00851404 -0.00433040
v -0.01867980 -0.00851404 -0.00545730
v -0.01832000 -0.00851404 -0.00656466
v -0.01789461 -0.00851404 -0.00764852
v -0.01740517 -0.00851404 -0.00870501
v -0.01685342 -0.00851404 -0.00973033
v -0.01624134 -0.00851404 -0.01072082
v -0.01557112 -0.00851404 -0.01167293
v -0.01484516 -0.00851404 -0.01258325
v -0.01406606 -0.00851404 -0.01344853
v -0.01323661 -0.00851404 -0.01426567
v -0.01235977 -0.00851404 -0.01503174
v -0.01143869 -0.00851404 -0.01574400
v -0.01047666 -0.00851404 -0.01639990
v -0.00947712 -0.00851404 -0.01699710
v -0.00844366 -0.00851404 -0.01753344
v -0.00737998 -0.00851404 -0.01800703
v -0.00628987 -0.00851404 -0.01841615
v -0.00517725 -0.00851404 -0.01875935
v -0.00404610 -0.00851404 -0.01903539
v -0.00290046 -0.00851404 -0.01924330
v -0.00174444 -0.00851404 -0.01938231
v -0.00058217 -0.00851404 -0.01945194
v 0.00058217 -0.00851404 -0.01945194
v 0.00174444 -0.00851404 -0.01938231
v 0.00290046 -0.00851404 -0.01924330
v 0.00404610 -0.00851404 -0.01903539
v 0.00517725 -0.00851404 -0.01875935
v 0.00628987 -0.00851404 -0.01841615
v 0.00737998 -0.00851404 -0.01800703
v 0.00844366 -0.00851404 -0.01753344
v 0.00947712 -0.00851404 -0.01699710
v 0.01047666 -0.00851404 -0.01639990
v 0.01143869 -0.00851404 -0.01574400
v 0.01235977 -0.00851404 -0.01503174
v 0.01323661 -0.00851404 -0.01426567
v 0.01406606 -0.00851404 -0.01344853
v 0.01484516 -0.00851404 -0.01258325
v 0.01557112 -0.00851404 -0.01167293
v 0.01624134 -0.00851404 -0.01072082
v 0.01685342 -0.00851404 -0.00973033
v 0.01740517 -0.00851404 -0.00870501
v 0.01789461 -0.00851404 -0.00764852
v 0.01832000 -0.00851404 -0.00656466
v 0.01867980 -0.00851404 -0.00545730
v 0.01897274 -0.00851404 -0.00433040
v 0.01919775 -0.00851404 -0.00318800
v 0.01935405 -0.00851404 -0.00203419
v 0.01944106 -0.00851404 -0.00087310
v 0.01945848 -0.00851404 0.00029112
v 0.01940624 -0.00851404 0.00145430
v 0.01928453 -0.00851404 0.00261227
v 0.01909379 -0.00851404 0.00376089
v 0.01883470 -0.00851404 0.00489604
v 0.01850818 -0.00851404 0.00601367
v 0.01811541 -0.00851404 0.00710978
v 0.01765779 -0.00851404 0.00818043
v 0.01713697 -0.00851404 0.00922179
v 0.01655479 -0.00851404 0.01023015
v 0.01591335 -0.00851404 0.01120189
v 0.01521495 -0.00851404 0.01213352
v 0.01446208 -0.00851404 0.01302172
v 0.01365745 -0.00851404 0.01386331
v 0.01280392 -0.00851404 0.01465526
v 0.01190456 -0.00851404 0.01539476
v 0.01096258 -0.00851404 0.01607915
v 0.00998136 -0.00851404 0.01670598
v 0.00896440 -0.00851404 0.01727300
v 0.00791536 -0.00851404 0.01777819
v 0.00683798 -0.00851404 0.01821974
v 0.00573613 -0.00851404 0.01859607
v 0.00461374 -0.00851404 0.01890583
v 0.00347483 -0.00851404 0.01914791
v 0.00232349 -0.00851404 0.01932145
v 0.00116383 -0.00851404 0.01942582
f 2 106 1
f 2 107 106
f 3 108 107
f 3 107 2
f 4 109 108
f 4 108 3
f 5 110 109
f 5 109 4
f 6 111 110
f 6 110 5
f 7 112 111
f 7 111 6
f 8 113 112
f 8 112 7
f 9 114 113
f 9 113 8
f 10 115 114
f 10 114 9
f 11 116 115
f 11 115 10
f 12 117 116
f 12 118 117
f 12 116 11
f 13 118 12
f 13 119 118
f 14 119 13
f 15 120 119
f 15 121 120
f 15 119 14
f 16 121 15
f 17 122 121
f 17 121 16
f 18 123 122
f 18 124 123
f 18 122 17
f 19 124 18
f 20 125 124
f 20 126 125
f 20 124 19
f 21 126 20
f 22 127 126
f 22 128 127
f 22 126 21
f 23 128 22
f 24 128 23
f 24 129 128
f 24 130 129
f 25 130 24
f 26 130 25
f 26 131 130
f 26 132 131
f 27 132 26
f 28 132 27
f 28 133 132
f 28 134 133
f 29 134 28
f 30 134 29
f 30 135 134
f 30 136 135
f 31 136 30
f 32 137 136
f 32 136 31
f 33 138 137
f 33 139 138
f 33 137 32
f 34 139 33
f 35 140 139
f 35 141 140
f 35 139 34
f 36 141 35
f 37 142 141
f 37 143 142
f 37 141 36
f 38 143 37
f 39 144 143
f 39 143 38
f 40 145 144
f 40 144 39
f 41 146 145
f 41 145 40
f 42 147 146
f 42 146 41
f 43 148 147
f 43 149 148
f 43 147 42
f 44 150 149
f 44 149 43
f 45 150 44
f 46 151 150
f 46 152 151
f 46 150 45
f 47 152 46
f 48 153 152
f 48 154 153
f 48 152 47
f 49 154 48
f 49 155 154
f 50 155 49
f 51 155 50
f 51 156 155
f 52 156 51
f 52 157 156
f 53 157 52
f 53 158 157
f 54 158 53
f 54 159 158
f 55 159 54
f 55 160 159
f 56 160 55
f 56 161 160
f 57 161 56
f 57 162 161
f 57 163 162
f 58 163 57
f 59 163 58
f 59 164 163
f 60 164 59
f 60 165 164
f 60 166 165
f 61 166 60
f 62 166 61
f 62 167 166
f 63 167 62
f 63 168 167
f 64 168 63
f 64 169 168
f 65 169 64
f 65 170 169
f 65 171 170
f 66 172 171
f 66 171 65
f 67 172 66
f 68 173 172
f 68 172 67
f 69 174 173
f 69 175 174
f 69 173 68
f 70 175 69
f 71 176 175
f 71 177 176
f 71 175 70
f 72 177 71
f 73 177 72
f 73 178 177
f 73 179 178
f 74 179 73
f 75 179 74
f 75 180 179
f 76 180 75
f 76 181 180
f 77 181 76
f 77 182 181
f 77 183 182
f 78 183 77
f 79 183 78
f 79 184 183
f 79 185 184
f 80 185 79
f 80 186 185
f 81 186 80
f 81 187 186
f 82 187 81
f 82 188 187
f 83 188 82
f 84 188 83
f 84 189 188
f 85 189 84
f 85 190 189
f 85 191 190
f 86 191 85
f 86 192 191
f 87 192 86
f 87 193 192
f 88 193 87
f 88 194 193
f 89 194 88
f 89 195 194
f 90 195 89
f 91 195 90
f 91 196 195
f 91 197 196
f 92 197 91
f 93 197 92
f 93 198 197
f 93 199 198
f 94 199 93
f 94 200 199
f 95 200 94
f 95 201 200
f 96 201 95
f 97 202 201
f 97 203 202
f 97 201 96
f 98 203 97
f 99 204 203
f 99 203 98
f 99 205 204
f 100 206 205
f 100 205 99
f 101 206 100
f 102 207 206
f 102 208 207
f 102 206 101
f 103 208 102
f 104 209 208
f 104 210 209
f 104 208 103
f 105 210 104
f 1 106 210
f 1 210 105
f 63 65 64
f 63 66 65
f 63 67 66
f 63 68 67
f 63 69 68
f 63 70 69
f 58 60 59
f 58 61 60
f 58 62 61
f 58 63 62
f 76 75 74
f 78 76 74
f 78 73 72
f 78 74 73
f 78 77 76
f 55 57 56
f 55 58 57
f 53 70 63
f 53 58 55
f 53 63 58
f 53 55 54
f 53 71 70
f 81 80 79
f 83 82 81
f 50 52 51
f 50 53 52
f 84 81 79
f 84 83 81
f 84 79 78
f 49 71 53
f 49 53 50
f 86 84 78
f 86 85 84
f 87 78 72
f 87 86 78
f 46 48 47
f 46 49 48
f 88 72 71
f 88 87 72
f 44 46 45
f 90 89 88
f 90 88 71
f 42 44 43
f 42 46 44
f 92 91 90
f 41 46 42
f 40 46 41
f 40 49 46
f 95 94 93
f 96 95 93
f 96 93 92
f 37 39 38
f 36 39 37
f 98 96 92
f 98 97 96
f 34 36 35
f 100 99 98
f 101 100 98
f 32 39 36
f 32 36 34
f 32 34 33
f 32 40 39
f 102 101 98
f 30 49 40
f 30 32 31
f 30 40 32
f 30 71 49
f 30 90 71
f 104 103 102
f 1 105 104
f 1 92 90
f 1 98 92
f 1 102 98
f 1 104 102
f 27 29 28
f 25 27 26
f 25 30 29
f 25 29 27
f 5 3 2
f 5 4 3
f 23 25 24
f 22 30 25
f 22 25 23
f 7 2 1
f 7 6 5
f 7 1 90
f 7 5 2
f 9 8 7
f 19 21 20
f 18 22 21
f 18 90 30
f 18 30 22
f 18 21 19
f 11 10 9
f 11 9 7
f 13 11 7
f 13 12 11
f 15 17 16
f 14 90 18
f 14 13 7
f 14 17 15
f 14 18 17
f 14 7 90
f 168 169 170
f 168 170 171
f 168 171 172
f 168 172 173
f 168 173 174
f 168 174 175
f 163 164 165
f 163 165 166
f 163 166 167
f 163 167 168
f 181 179 180
f 183 179 181
f 183 177 178
f 183 178 179
f 183 181 182
f 160 161 162
f 160 162 163
f 158 168 175
f 158 160 163
f 158 163 168
f 158 159 160
f 158 175 176
f 186 184 185
f 188 186 187
f 155 156 157
f 155 157 158
f 189 184 186
f 189 186 188
f 189 183 184
f 154 158 176
f 154 155 158
f 191 183 189
f 191 189 190
f 192 177 183
f 192 183 191
f 151 152 153
f 151 153 154
f 193 176 177
f 193 177 192
f 149 150 151
f 195 193 194
f 195 176 193
f 147 148 149
f 147 149 151
f 197 195 196
f 146 147 151
f 145 146 151
f 145 151 154
f 200 198 199
f 201 198 200
f 201 197 198
f 142 143 144
f 141 142 144
f 203 197 201
f 203 201 202
f 139 140 141
f 205 203 204
f 206 203 205
f 137 141 144
f 137 139 141
f 137 138 139
f 137 144 145
f 207 203 206
f 135 145 154
f 135 136 137
f 135 137 145
f 135 154 176
f 135 176 195
f 209 207 208
f 106 209 210
f 106 195 197
f 106 197 203
f 106 203 207
f 106 207 209
f 132 133 134
f 130 131 132
f 130 134 135
f 130 132 134
f 110 107 108
f 110 108 109
f 128 129 130
f 127 130 135
f 127 128 130
f 112 106 107
f 112 110 111
f 112 195 106
f 112 107 110
f 114 112 113
f 124 125 126
f 123 126 127
f 123 135 195
f 123 127 135
f 123 124 126
f 116 114 115
f 116 112 114
f 118 112 116
f 118 116 117
f 120 121 122
f 119 123 195
f 119 112 118
f 119 120 122
f 119 122 123
f 119 195 112

