# https://github.com/mikedh/trimesh
v -0.00973033 0.11920000 -0.46416180
v -0.00973033 0.11920000 0.32416180
v -0.00973033 0.12549775 0.32416180
v -0.00973033 0.12549775 -0.46416180
v -0.00389213 0.11920000 0.33000000
v 0.00389213 0.11920000 0.33000000
v 0.00973033 0.11920000 0.32416180
v 0.00973033 0.11920000 -0.46416180
v 0.00389213 0.11920000 -0.47000000
v -0.00389213 0.11920000 -0.47000000
v -0.00389213 0.12549775 0.33000000
v -0.00873033 0.12649775 0.32376180
v -0.00873033 0.12649775 -0.46376180
v -0.00389213 0.12549775 -0.47000000
v 0.00389213 0.12549775 0.33000000
v 0.00973033 0.12549775 0.32416180
v 0.00973033 0.12549775 -0.46416180
v 0.00389213 0.12549775 -0.47000000
v -0.00349213 0.12649775 0.32900000
v 0.00349213 0.12649775 0.32900000
v 0.00873033 0.12649775 0.32376180
v 0.00873033 0.12649775 -0.46376180
v 0.00349213 0.12649775 -0.46900000
v -0.00349213 0.12649775 -0.46900000
v -0.00364887 0.12649775 0.28000000
v -0.00364887 0.12649775 -0.42000000
v 0.00364887 0.12649775 -0.42000000
v 0.00364887 0.12649775 0.28000000
v -0.00364887 0.13094662 0.28000000
v -0.00364887 0.13094662 -0.42000000
v 0.00364887 0.13094662 0.28000000
v 0.00364887 0.13094662 -0.42000000
f 3 1 2
f 3 4 1
f 8 10 9
f 8 1 10
f 7 2 1
f 7 5 2
f 7 6 5
f 7 1 8
f 11 2 5
f 11 3 2
f 12 4 3
f 12 13 4
f 4 10 1
f 4 14 10
f 15 5 6
f 15 11 5
f 16 6 7
f 16 15 6
f 17 7 8
f 17 16 7
f 18 8 9
f 18 17 8
f 14 9 10
f 14 18 9
f 19 3 11
f 19 12 3
f 22 23 24
f 22 24 13
f 27 22 13
f 27 13 26
f 12 25 26
f 12 28 25
f 12 26 13
f 21 12 19
f 21 19 20
f 21 28 12
f 21 22 28
f 28 22 27
f 13 14 4
f 13 24 14
f 20 11 15
f 20 19 11
f 21 15 16
f 21 20 15
f 22 16 17
f 22 21 16
f 23 17 18
f 23 22 17
f 24 18 14
f 24 23 18
f 29 26 25
f 29 30 26
f 29 25 28
f 29 28 31
f 31 28 27
f 31 27 32
f 30 27 26
f 30 32 27
f 31 32 30
f 31 30 29

