# https://github.com/mikedh/trimesh
v -0.00000000 -0.08027520 -1.27921200
v 0.00480079 -0.08013152 -1.27921200
v 0.00958440 -0.07970099 -1.27921200
v 0.01433369 -0.07898515 -1.27921200
v 0.01903167 -0.07798656 -1.27921200
v 0.02366153 -0.07670880 -1.27921200
v 0.02820668 -0.07515644 -1.27921200
v 0.03265087 -0.07333505 -1.27921200
v 0.03697817 -0.07125113 -1.27921200
v 0.04117309 -0.06891215 -1.27921200
v 0.04522063 -0.06632648 -1.27921200
v 0.04910629 -0.06350339 -1.27921200
v 0.05281616 -0.06045296 -1.27921200
v 0.05633697 -0.05718613 -1.27921200
v 0.05965610 -0.05371459 -1.27921200
v 0.06276168 -0.05005077 -1.27921200
v 0.06564259 -0.04620778 -1.27921200
v 0.06828851 -0.04219937 -1.27921200
v 0.07068998 -0.03803990 -1.27921200
v 0.07283840 -0.03374426 -1.27921200
v 0.07472608 -0.02932782 -1.27921200
v 0.07634625 -0.02480640 -1.27921200
v 0.07769313 -0.02019618 -1.27921200
v 0.07876188 -0.01551366 -1.27921200
v 0.07954869 -0.01077560 -1.27921200
v 0.08005074 -0.00599897 -1.27921200
v 0.08026622 -0.00120087 -1.27921200
v 0.08019437 0.00360153 -1.27921200
v 0.07983545 0.00839104 -1.27921200
v 0.07919073 0.01315052 -1.27921200
v 0.07826253 0.01786291 -1.27921200
v 0.07705418 0.02251137 -1.27921200
v 0.07556999 0.02707923 -1.27921200
v 0.07381528 0.03155016 -1.27921200
v 0.07179633 0.03590815 -1.27921200
v 0.06952036 0.04013760 -1.27921200
v 0.06699554 0.04422337 -1.27921200
v 0.06423088 0.04815082 -1.27921200
v 0.06123630 0.05190591 -1.27921200
v 0.05802250 0.05547519 -1.27921200
v 0.05460100 0.05884589 -1.27921200
v 0.05098405 0.06200593 -1.27921200
v 0.04718458 0.06494400 -1.27921200
v 0.04321620 0.06764959 -1.27921200
v 0.03909313 0.07011302 -1.27921200
v 0.03483010 0.07232546 -1.27921200
v 0.03044240 0.07427899 -1.27921200
v 0.02594572 0.07596662 -1.27921200
v 0.02135616 0.07738231 -1.27921200
v 0.01669015 0.07852100 -1.27921200
v 0.01196440 0.07937859 -1.27921200
v 0.00719581 0.07995204 -1.27921200
v 0.00240147 0.08023927 -1.27921200
v -0.00240147 0.08023927 -1.27921200
v -0.00719581 0.07995204 -1.27921200
v -0.01196440 0.07937859 -1.27921200
v -0.01669015 0.07852100 -1.27921200
v -0.02135616 0.07738231 -1.27921200
v -0.02594572 0.07596662 -1.27921200
v -0.03044240 0.07427899 -1.27921200
v -0.03483010 0.07232546 -1.27921200
v -0.03909313 0.07011302 -1.27921200
v -0.04321620 0.06764959 -1.27921200
v -0.04718458 0.06494400 -1.27921200
v -0.05098405 0.06200593 -1.27921200
v -0.05460100 0.05884589 -1.27921200
v -0.05802250 0.05547519 -1.27921200
v -0.06123630 0.05190591 -1.27921200
v -0.06423088 0.04815082 -1.27921200
v -0.06699554 0.04422337 -1.27921200
v -0.06952036 0.04013760 -1.27921200
v -0.07179633 0.03590815 -1.27921200
v -0.07381528 0.03155016 -1.27921200
v -0.07556999 0.02707923 -1.27921200
v -0.07705418 0.02251137 -1.27921200
v -0.07826253 0.01786291 -1.27921200
v -0.07919073 0.01315052 -1.27921200
v -0.07983545 0.00839104 -1.27921200
v -0.08019437 0.00360153 -1.27921200
v -0.08026622 -0.00120087 -1.27921200
v -0.08005074 -0.00599897 -1.27921200
v -0.07954869 -0.01077560 -1.27921200
v -0.07876188 -0.01551366 -1.27921200
v -0.07769313 -0.02019618 -1.27921200
v -0.07634625 -0.02480640 -1.27921200
v -0.07472608 -0.02932782 -1.27921200
v -0.07283840 -0.03374426 -1.27921200
v -0.07068998 -0.03803990 -1.27921200
v -0.06828851 -0.04219937 -1.27921200
v -0.06564259 -0.04620778 -1.27921200
v -0.06276168 -0.05005077 -1.27921200
v -0.05965610 -0.05371459 -1.27921200
v -0.05633697 -0.05718613 -1.27921200
v -0.05281616 -0.06045296 -1.27921200
v -0.04910629 -0.06350339 -1.27921200
v -0.04522063 -0.06632648 -1.27921200
v -0.04117309 -0.06891215 -1.27921200
v -0.03697817 -0.07125113 -1.27921200
v -0.03265087 -0.07333505 -1.27921200
v -0.02820668 -0.07515644 -1.27921200
v -0.02366153 -0.07670880 -1.27921200
v -0.01903167 -0.07798656 -1.27921200
v -0.01433369 -0.07898515 -1.27921200
v -0.00958440 -0.07970099 -1.27921200
v -0.00480079 -0.08013152 -1.27921200
v -0.00000000 -0.08027520 -1.28521200
v 0.00480079 -0.08013152 -1.28521200
v 0.00958440 -0.07970099 -1.28521200
v 0.01433369 -0.07898515 -1.28521200
v 0.01903167 -0.07798656 -1.28521200
v 0.02366153 -0.07670880 -1.28521200
v 0.02820668 -0.07515644 -1.28521200
v 0.03265087 -0.07333505 -1.28521200
v 0.03697817 -0.07125113 -1.28521200
v 0.04117309 -0.06891215 -1.28521200
v 0.04522063 -0.06632648 -1.28521200
v 0.04910629 -0.06350339 -1.28521200
v 0.05281616 -0.06045296 -1.28521200
v 0.05633697 -0.05718613 -1.28521200
v 0.05965610 -0.05371459 -1.28521200
v 0.06276168 -0.05005077 -1.28521200
v 0.06564259 -0.04620778 -1.28521200
v 0.06828851 -0.04219937 -1.28521200
v 0.07068998 -0.03803990 -1.28521200
v 0.07283840 -0.03374426 -1.28521200
v 0.07472608 -0.02932782 -1.28521200
v 0.07634625 -0.02480640 -1.28521200
v 0.07769313 -0.02019618 -1.28521200
v 0.07876188 -0.01551366 -1.28521200
v 0.07954869 -0.01077560 -1.28521200
v 0.08005074 -0.00599897 -1.28521200
v 0.08026622 -0.00120087 -1.28521200
v 0.08019437 0.00360153 -1.28521200
v 0.07983545 0.00839104 -1.28521200
v 0.07919073 0.01315052 -1.28521200
v 0.07826253 0.01786291 -1.28521200
v 0.07705418 0.02251137 -1.28521200
v 0.07556999 0.02707923 -1.28521200
v 0.07381528 0.03155016 -1.28521200
v 0.07179633 0.03590815 -1.28521200
v 0.06952036 0.04013760 -1.28521200
v 0.06699554 0.04422337 -1.28521200
v 0.06423088 0.04815082 -1.28521200
v 0.06123630 0.05190591 -1.28521200
v 0.05802250 0.05547519 -1.28521200
v 0.05460100 0.05884589 -1.28521200
v 0.05098405 0.06200593 -1.28521200
v 0.04718458 0.06494400 -1.28521200
v 0.04321620 0.06764959 -1.28521200
v 0.03909313 0.07011302 -1.28521200
v 0.03483010 0.07232546 -1.28521200
v 0.03044240 0.07427899 -1.28521200
v 0.02594572 0.07596662 -1.28521200
v 0.02135616 0.07738231 -1.28521200
v 0.01669015 0.07852100 -1.28521200
v 0.01196440 0.07937859 -1.28521200
v 0.00719581 0.07995204 -1.28521200
v 0.00240147 0.08023927 -1.28521200
v -0.00240147 0.08023927 -1.28521200
v -0.00719581 0.07995204 -1.28521200
v -0.01196440 0.07937859 -1.28521200
v -0.01669015 0.07852100 -1.28521200
v -0.02135616 0.07738231 -1.28521200
v -0.02594572 0.07596662 -1.28521200
v -0.03044240 0.07427899 -1.28521200
v -0.03483010 0.07232546 -1.28521200
v -0.03909313 0.07011302 -1.28521200
v -0.04321620 0.06764959 -1.28521200
v -0.04718458 0.06494400 -1.28521200
v -0.05098405 0.06200593 -1.28521200
v -0.05460100 0.05884589 -1.28521200
v -0.05802250 0.05547519 -1.28521200
v -0.06123630 0.05190591 -1.28521200
v -0.06423088 0.04815082 -1.28521200
v -0.06699554 0.04422337 -1.28521200
v -0.06952036 0.04013760 -1.28521200
v -0.07179633 0.03590815 -1.28521200
v -0.07381528 0.03155016 -1.28521200
v -0.07556999 0.02707923 -1.28521200
v -0.07705418 0.02251137 -1.28521200
v -0.07826253 0.01786291 -1.28521200
v -0.07919073 0.01315052 -1.28521200
v -0.07983545 0.00839104 -1.28521200
v -0.08019437 0.00360153 -1.28521200
v -0.08026622 -0.00120087 -1.28521200
v -0.08005074 -0.00599897 -1.28521200
v -0.07954869 -0.01077560 -1.28521200
v -0.07876188 -0.01551366 -1.28521200
v -0.07769313 -0.02019618 -1.28521200
v -0.07634625 -0.02480640 -1.28521200
v -0.07472608 -0.02932782 -1.28521200
v -0.07283840 -0.03374426 -1.28521200
v -0.07068998 -0.03803990 -1.28521200
v -0.06828851 -0.04219937 -1.28521200
v -0.06564259 -0.04620778 -1.28521200
v -0.06276168 -0.05005077 -1.28521200
v -0.05965610 -0.05371459 -1.28521200
v -0.05633697 -0.05718613 -1.28521200
v -0.05281616 -0.06045296 -1.28521200
v -0.04910629 -0.06350339 -1.28521200
v -0.04522063 -0.06632648 -1.28521200
v -0.04117309 -0.06891215 -1.28521200
v -0.03697817 -0.07125113 -1.28521200
v -0.03265087 -0.07333505 -1.28521200
v -0.02820668 -0.07515644 -1.28521200
v -0.02366153 -0.07670880 -1.28521200
v -0.01903167 -0.07798656 -1.28521200
v -0.01433369 -0.07898515 -1.28521200
v -0.00958440 -0.07970099 -1.28521200
v -0.00480079 -0.08013152 -1.28521200
v -0.00000000 -0.07176116 -1.27921200
v 0.00429162 -0.07163272 -1.27921200
v 0.00856787 -0.07124785 -1.27921200
v 0.01281345 -0.07060793 -1.27921200
v 0.01701316 -0.06971526 -1.27921200
v 0.02115197 -0.06857302 -1.27921200
v 0.02521507 -0.06718530 -1.27921200
v 0.02918790 -0.06555709 -1.27921200
v 0.03305624 -0.06369419 -1.27921200
v 0.03680625 -0.06160329 -1.27921200
v 0.04042450 -0.05929186 -1.27921200
v 0.04389805 -0.05676818 -1.27921200
v 0.04721445 -0.05404129 -1.27921200
v 0.05036183 -0.05112094 -1.27921200
v 0.05332894 -0.04801759 -1.27921200
v 0.05610514 -0.04474235 -1.27921200
v 0.05868050 -0.04130695 -1.27921200
v 0.06104579 -0.03772368 -1.27921200
v 0.06319256 -0.03400537 -1.27921200
v 0.06511312 -0.03016532 -1.27921200
v 0.06680058 -0.02621730 -1.27921200
v 0.06824892 -0.02217542 -1.27921200
v 0.06945295 -0.01805416 -1.27921200
v 0.07040835 -0.01386827 -1.27921200
v 0.07111171 -0.00963274 -1.27921200
v 0.07156051 -0.00536272 -1.27921200
v 0.07175313 -0.00107350 -1.27921200
v 0.07168891 0.00321955 -1.27921200
v 0.07136805 0.00750108 -1.27921200
v 0.07079171 0.01175576 -1.27921200
v 0.06996196 0.01596836 -1.27921200
v 0.06888177 0.02012380 -1.27921200
v 0.06755499 0.02420719 -1.27921200
v 0.06598638 0.02820393 -1.27921200
v 0.06418156 0.03209971 -1.27921200
v 0.06214699 0.03588058 -1.27921200
v 0.05988995 0.03953301 -1.27921200
v 0.05741852 0.04304392 -1.27921200
v 0.05474154 0.04640074 -1.27921200
v 0.05186860 0.04959146 -1.27921200
v 0.04880999 0.05260466 -1.27921200
v 0.04557665 0.05542954 -1.27921200
v 0.04218015 0.05805600 -1.27921200
v 0.03863267 0.06047464 -1.27921200
v 0.03494689 0.06267679 -1.27921200
v 0.03113600 0.06465458 -1.27921200
v 0.02721366 0.06640091 -1.27921200
v 0.02319390 0.06790956 -1.27921200
v 0.01909111 0.06917510 -1.27921200
v 0.01491999 0.07019301 -1.27921200
v 0.01069545 0.07095965 -1.27921200
v 0.00643262 0.07147228 -1.27921200
v 0.00214677 0.07172905 -1.27921200
v -0.00214677 0.07172905 -1.27921200
v -0.00643262 0.07147228 -1.27921200
v -0.01069545 0.07095965 -1.27921200
v -0.01491999 0.07019301 -1.27921200
v -0.01909111 0.06917510 -1.27921200
v -0.02319390 0.06790956 -1.27921200
v -0.02721366 0.06640091 -1.27921200
v -0.03113600 0.06465458 -1.27921200
v -0.03494689 0.06267679 -1.27921200
v -0.03863267 0.06047464 -1.27921200
v -0.04218015 0.05805600 -1.27921200
v -0.04557665 0.05542954 -1.27921200
v -0.04880999 0.05260466 -1.27921200
v -0.05186860 0.04959146 -1.27921200
v -0.05474154 0.04640074 -1.27921200
v -0.05741852 0.04304392 -1.27921200
v -0.05988995 0.03953301 -1.27921200
v -0.06214699 0.03588058 -1.27921200
v -0.06418156 0.03209971 -1.27921200
v -0.06598638 0.02820393 -1.27921200
v -0.06755499 0.02420719 -1.27921200
v -0.06888177 0.02012380 -1.27921200
v -0.06996196 0.01596836 -1.27921200
v -0.07079171 0.01175576 -1.27921200
v -0.07136805 0.00750108 -1.27921200
v -0.07168891 0.00321955 -1.27921200
v -0.07175313 -0.00107350 -1.27921200
v -0.07156051 -0.00536272 -1.27921200
v -0.07111171 -0.00963274 -1.27921200
v -0.07040835 -0.01386827 -1.27921200
v -0.06945295 -0.01805416 -1.27921200
v -0.06824892 -0.02217542 -1.27921200
v -0.06680058 -0.02621730 -1.27921200
v -0.06511312 -0.03016532 -1.27921200
v -0.06319256 -0.03400537 -1.27921200
v -0.06104579 -0.03772368 -1.27921200
v -0.05868050 -0.04130695 -1.27921200
v -0.05610514 -0.04474235 -1.27921200
v -0.05332894 -0.04801759 -1.27921200
v -0.05036183 -0.05112094 -1.27921200
v -0.04721445 -0.05404129 -1.27921200
v -0.04389805 -0.05676818 -1.27921200
v -0.04042450 -0.05929186 -1.27921200
v -0.03680625 -0.06160329 -1.27921200
v -0.03305624 -0.06369419 -1.27921200
v -0.02918790 -0.06555709 -1.27921200
v -0.02521507 -0.06718530 -1.27921200
v -0.02115197 -0.06857302 -1.27921200
v -0.01701316 -0.06971526 -1.27921200
v -0.01281345 -0.07060793 -1.27921200
v -0.00856787 -0.07124785 -1.27921200
v -0.00429162 -0.07163272 -1.27921200
v -0.00000000 -0.07176116 -1.28521200
v 0.00429162 -0.07163272 -1.28521200
v 0.00856787 -0.07124785 -1.28521200
v 0.01281345 -0.07060793 -1.28521200
v 0.01701316 -0.06971526 -1.28521200
v 0.02115197 -0.06857302 -1.28521200
v 0.02521507 -0.06718530 -1.28521200
v 0.02918790 -0.06555709 -1.28521200
v 0.03305624 -0.06369419 -1.28521200
v 0.03680625 -0.06160329 -1.28521200
v 0.04042450 -0.05929186 -1.28521200
v 0.04389805 -0.05676818 -1.28521200
v 0.04721445 -0.05404129 -1.28521200
v 0.05036183 -0.05112094 -1.28521200
v 0.05332894 -0.04801759 -1.28521200
v 0.05610514 -0.04474235 -1.28521200
v 0.05868050 -0.04130695 -1.28521200
v 0.06104579 -0.03772368 -1.28521200
v 0.06319256 -0.03400537 -1.28521200
v 0.06511312 -0.03016532 -1.28521200
v 0.06680058 -0.02621730 -1.28521200
v 0.06824892 -0.02217542 -1.28521200
v 0.06945295 -0.01805416 -1.28521200
v 0.07040835 -0.01386827 -1.28521200
v 0.07111171 -0.00963274 -1.28521200
v 0.07156051 -0.00536272 -1.28521200
v 0.07175313 -0.00107350 -1.28521200
v 0.07168891 0.00321955 -1.28521200
v 0.07136805 0.00750108 -1.28521200
v 0.07079171 0.01175576 -1.28521200
v 0.06996196 0.01596836 -1.28521200
v 0.06888177 0.02012380 -1.28521200
v 0.06755499 0.02420719 -1.28521200
v 0.06598638 0.02820393 -1.28521200
v 0.06418156 0.03209971 -1.28521200
v 0.06214699 0.03588058 -1.28521200
v 0.05988995 0.03953301 -1.28521200
v 0.05741852 0.04304392 -1.28521200
v 0.05474154 0.04640074 -1.28521200
v 0.05186860 0.04959146 -1.28521200
v 0.04880999 0.05260466 -1.28521200
v 0.04557665 0.05542954 -1.28521200
v 0.04218015 0.05805600 -1.28521200
v 0.03863267 0.06047464 -1.28521200
v 0.03494689 0.06267679 -1.28521200
v 0.03113600 0.06465458 -1.28521200
v 0.02721366 0.06640091 -1.28521200
v 0.02319390 0.06790956 -1.28521200
v 0.01909111 0.06917510 -1.28521200
v 0.01491999 0.07019301 -1.28521200
v 0.01069545 0.07095965 -1.28521200
v 0.00643262 0.07147228 -1.28521200
v 0.00214677 0.07172905 -1.28521200
v -0.00214677 0.07172905 -1.28521200
v -0.00643262 0.07147228 -1.28521200
v -0.01069545 0.07095965 -1.28521200
v -0.01491999 0.07019301 -1.28521200
v -0.01909111 0.06917510 -1.28521200
v -0.02319390 0.06790956 -1.28521200
v -0.02721366 0.06640091 -1.28521200
v -0.03113600 0.06465458 -1.28521200
v -0.03494689 0.06267679 -1.28521200
v -0.03863267 0.06047464 -1.28521200
v -0.04218015 0.05805600 -1.28521200
v -0.04557665 0.05542954 -1.28521200
v -0.04880999 0.05260466 -1.28521200
v -0.05186860 0.04959146 -1.28521200
v -0.05474154 0.04640074 -1.28521200
v -0.05741852 0.04304392 -1.28521200
v -0.05988995 0.03953301 -1.28521200
v -0.06214699 0.03588058 -1.28521200
v -0.06418156 0.03209971 -1.28521200
v -0.06598638 0.02820393 -1.28521200
v -0.06755499 0.02420719 -1.28521200
v -0.06888177 0.02012380 -1.28521200
v -0.06996196 0.01596836 -1.28521200
v -0.07079171 0.01175576 -1.28521200
v -0.07136805 0.00750108 -1.28521200
v -0.07168891 0.00321955 -1.28521200
v -0.07175313 -0.00107350 -1.28521200
v -0.07156051 -0.00536272 -1.28521200
v -0.07111171 -0.00963274 -1.28521200
v -0.07040835 -0.01386827 -1.28521200
v -0.06945295 -0.01805416 -1.28521200
v -0.06824892 -0.02217542 -1.28521200
v -0.06680058 -0.02621730 -1.28521200
v -0.06511312 -0.03016532 -1.28521200
v -0.06319256 -0.03400537 -1.28521200
v -0.06104579 -0.03772368 -1.28521200
v -0.05868050 -0.04130695 -1.28521200
v -0.05610514 -0.04474235 -1.28521200
v -0.05332894 -0.04801759 -1.28521200
v -0.05036183 -0.05112094 -1.28521200
v -0.04721445 -0.05404129 -1.28521200
v -0.04389805 -0.05676818 -1.28521200
v -0.04042450 -0.05929186 -1.28521200
v -0.03680625 -0.06160329 -1.28521200
v -0.03305624 -0.06369419 -1.28521200
v -0.02918790 -0.06555709 -1.28521200
v -0.02521507 -0.06718530 -1.28521200
v -0.02115197 -0.06857302 -1.28521200
v -0.01701316 -0.06971526 -1.28521200
v -0.01281345 -0.07060793 -1.28521200
v -0.00856787 -0.07124785 -1.28521200
v -0.00429162 -0.07163272 -1.28521200
f 2 1 106
f 2 106 107
f 3 107 108
f 3 2 107
f 4 108 109
f 4 3 108
f 5 109 110
f 5 4 109
f 6 110 111
f 6 111 112
f 6 5 110
f 7 6 112
f 8 112 113
f 8 7 112
f 9 113 114
f 9 8 113
f 10 114 115
f 10 9 114
f 11 115 116
f 11 10 115
f 12 116 117
f 12 11 116
f 13 117 118
f 13 12 117
f 14 118 119
f 14 13 118
f 15 119 120
f 15 14 119
f 16 120 121
f 16 15 120
f 17 121 122
f 17 16 121
f 18 122 123
f 18 123 124
f 18 17 122
f 19 18 124
f 20 124 125
f 20 19 124
f 21 125 126
f 21 20 125
f 22 126 127
f 22 127 128
f 22 21 126
f 23 22 128
f 23 128 129
f 24 23 129
f 25 24 129
f 25 129 130
f 26 25 130
f 26 130 131
f 27 26 131
f 27 131 132
f 28 27 132
f 28 132 133
f 28 133 134
f 29 28 134
f 29 134 135
f 30 29 135
f 31 30 135
f 31 135 136
f 31 136 137
f 32 137 138
f 32 31 137
f 33 32 138
f 34 138 139
f 34 33 138
f 35 139 140
f 35 140 141
f 35 34 139
f 36 35 141
f 37 141 142
f 37 36 141
f 38 142 143
f 38 37 142
f 39 143 144
f 39 38 143
f 40 144 145
f 40 39 144
f 41 145 146
f 41 40 145
f 42 146 147
f 42 41 146
f 43 147 148
f 43 42 147
f 44 148 149
f 44 43 148
f 45 149 150
f 45 44 149
f 46 150 151
f 46 45 150
f 47 151 152
f 47 46 151
f 48 152 153
f 48 47 152
f 49 48 153
f 49 153 154
f 49 154 155
f 50 49 155
f 51 50 155
f 51 155 156
f 52 51 156
f 52 156 157
f 53 52 157
f 53 157 158
f 54 53 158
f 54 158 159
f 55 54 159
f 55 159 160
f 56 55 160
f 56 160 161
f 57 56 161
f 57 161 162
f 57 162 163
f 58 57 163
f 59 58 163
f 59 163 164
f 60 59 164
f 60 164 165
f 61 60 165
f 61 165 166
f 62 61 166
f 62 166 167
f 63 62 167
f 63 167 168
f 64 63 168
f 64 168 169
f 65 64 169
f 65 169 170
f 66 170 171
f 66 65 170
f 67 171 172
f 67 172 173
f 67 66 171
f 68 67 173
f 69 173 174
f 69 68 173
f 70 174 175
f 70 175 176
f 70 69 174
f 71 70 176
f 72 176 177
f 72 71 176
f 73 72 177
f 73 177 178
f 74 73 178
f 74 178 179
f 75 74 179
f 75 179 180
f 76 75 180
f 76 180 181
f 77 76 181
f 77 181 182
f 78 77 182
f 78 182 183
f 79 78 183
f 79 183 184
f 80 79 184
f 80 184 185
f 81 80 185
f 81 185 186
f 82 81 186
f 82 186 187
f 83 82 187
f 83 187 188
f 84 83 188
f 84 188 189
f 85 84 189
f 85 189 190
f 86 85 190
f 86 190 191
f 87 86 191
f 87 191 192
f 88 87 192
f 88 192 193
f 89 88 193
f 89 193 194
f 90 89 194
f 90 194 195
f 91 90 195
f 91 195 196
f 92 91 196
f 92 196 197
f 93 92 197
f 93 197 198
f 94 93 198
f 94 198 199
f 95 94 199
f 95 199 200
f 96 95 200
f 96 200 201
f 97 201 202
f 97 96 201
f 98 202 203
f 98 97 202
f 99 98 203
f 99 203 204
f 100 204 205
f 100 99 204
f 101 205 206
f 101 100 205
f 102 206 207
f 102 101 206
f 103 207 208
f 103 102 207
f 104 208 209
f 104 209 210
f 104 103 208
f 105 104 210
f 1 210 106
f 1 105 210
f 276 67 277
f 276 65 66
f 276 66 67
f 278 277 67
f 278 67 68
f 275 65 276
f 279 278 68
f 279 68 69
f 279 69 70
f 274 65 275
f 274 64 65
f 280 279 70
f 280 70 71
f 273 64 274
f 273 62 63
f 273 63 64
f 281 280 71
f 281 71 72
f 272 62 273
f 282 281 72
f 271 61 62
f 271 62 272
f 283 282 72
f 283 72 73
f 283 73 74
f 270 59 60
f 270 60 61
f 270 61 271
f 284 283 74
f 269 59 270
f 269 58 59
f 285 284 74
f 285 74 75
f 285 75 76
f 268 57 58
f 268 58 269
f 286 76 77
f 286 285 76
f 267 57 268
f 287 286 77
f 266 56 57
f 266 57 267
f 288 77 78
f 288 78 79
f 288 287 77
f 265 56 266
f 265 55 56
f 289 288 79
f 264 55 265
f 264 54 55
f 290 289 79
f 290 79 80
f 263 54 264
f 263 52 53
f 263 53 54
f 291 290 80
f 291 80 81
f 262 52 263
f 292 291 81
f 292 81 82
f 261 52 262
f 261 50 51
f 261 51 52
f 293 292 82
f 293 82 83
f 260 50 261
f 294 293 83
f 294 83 84
f 259 49 50
f 259 50 260
f 295 294 84
f 295 84 85
f 258 48 49
f 258 49 259
f 296 295 85
f 296 85 86
f 257 47 48
f 257 48 258
f 297 296 86
f 297 86 87
f 256 46 47
f 256 47 257
f 45 46 256
f 298 297 87
f 298 87 88
f 255 45 256
f 299 298 88
f 299 88 89
f 254 44 45
f 254 45 255
f 43 44 254
f 300 299 89
f 300 89 90
f 253 43 254
f 301 90 91
f 301 300 90
f 252 43 253
f 252 42 43
f 92 301 91
f 302 301 92
f 41 42 252
f 251 41 252
f 93 302 92
f 93 303 302
f 40 41 251
f 40 251 250
f 304 303 93
f 94 304 93
f 39 40 250
f 39 250 249
f 95 304 94
f 95 305 304
f 38 39 249
f 38 249 248
f 247 38 248
f 96 305 95
f 96 306 305
f 37 38 247
f 97 306 96
f 97 307 306
f 36 247 246
f 36 37 247
f 98 308 307
f 98 307 97
f 35 246 245
f 35 36 246
f 309 308 98
f 99 309 98
f 34 245 244
f 34 35 245
f 100 310 309
f 100 309 99
f 33 244 243
f 33 34 244
f 101 311 310
f 101 312 311
f 101 310 100
f 32 243 242
f 32 33 243
f 102 313 312
f 102 312 101
f 31 241 240
f 31 242 241
f 31 32 242
f 103 313 102
f 30 240 239
f 30 31 240
f 104 313 103
f 104 314 313
f 104 315 314
f 29 30 239
f 105 315 104
f 28 29 239
f 28 239 238
f 1 211 315
f 1 315 105
f 27 28 238
f 27 238 237
f 2 212 211
f 2 213 212
f 2 211 1
f 26 237 236
f 26 27 237
f 3 213 2
f 25 236 235
f 25 26 236
f 4 214 213
f 4 213 3
f 24 235 234
f 24 25 235
f 5 215 214
f 5 214 4
f 23 234 233
f 23 24 234
f 6 216 215
f 6 215 5
f 22 233 232
f 22 23 233
f 7 217 216
f 7 218 217
f 7 216 6
f 21 22 232
f 21 232 231
f 8 218 7
f 20 21 231
f 20 231 230
f 9 219 218
f 9 220 219
f 9 218 8
f 19 20 230
f 19 229 228
f 19 230 229
f 10 220 9
f 18 19 228
f 11 221 220
f 11 220 10
f 17 228 227
f 17 18 228
f 12 221 11
f 12 222 221
f 16 17 227
f 16 226 225
f 16 227 226
f 13 223 222
f 13 222 12
f 15 16 225
f 14 224 223
f 14 225 224
f 14 223 13
f 14 15 225
f 381 382 172
f 381 171 170
f 381 172 171
f 383 172 382
f 383 173 172
f 380 381 170
f 384 173 383
f 384 174 173
f 384 175 174
f 379 380 170
f 379 170 169
f 385 175 384
f 385 176 175
f 378 379 169
f 378 168 167
f 378 169 168
f 386 176 385
f 386 177 176
f 377 378 167
f 387 177 386
f 376 167 166
f 376 377 167
f 388 177 387
f 388 178 177
f 388 179 178
f 375 165 164
f 375 166 165
f 375 376 166
f 389 179 388
f 374 375 164
f 374 164 163
f 390 179 389
f 390 180 179
f 390 181 180
f 373 163 162
f 373 374 163
f 391 182 181
f 391 181 390
f 372 373 162
f 392 182 391
f 371 162 161
f 371 372 162
f 393 183 182
f 393 184 183
f 393 182 392
f 370 371 161
f 370 161 160
f 394 184 393
f 369 370 160
f 369 160 159
f 395 184 394
f 395 185 184
f 368 369 159
f 368 158 157
f 368 159 158
f 396 185 395
f 396 186 185
f 367 368 157
f 397 186 396
f 397 187 186
f 366 367 157
f 366 156 155
f 366 157 156
f 398 187 397
f 398 188 187
f 365 366 155
f 399 188 398
f 399 189 188
f 364 155 154
f 364 365 155
f 400 189 399
f 400 190 189
f 363 154 153
f 363 364 154
f 401 190 400
f 401 191 190
f 362 153 152
f 362 363 153
f 402 191 401
f 402 192 191
f 361 152 151
f 361 362 152
f 150 361 151
f 403 192 402
f 403 193 192
f 360 361 150
f 404 193 403
f 404 194 193
f 359 150 149
f 359 360 150
f 148 359 149
f 405 194 404
f 405 195 194
f 358 359 148
f 406 196 195
f 406 195 405
f 357 358 148
f 357 148 147
f 197 196 406
f 407 197 406
f 146 357 147
f 356 357 146
f 198 197 407
f 198 407 408
f 145 356 146
f 145 355 356
f 409 198 408
f 199 198 409
f 144 355 145
f 144 354 355
f 200 199 409
f 200 409 410
f 143 354 144
f 143 353 354
f 352 353 143
f 201 200 410
f 201 410 411
f 142 352 143
f 202 201 411
f 202 411 412
f 141 351 352
f 141 352 142
f 203 412 413
f 203 202 412
f 140 350 351
f 140 351 141
f 414 203 413
f 204 203 414
f 139 349 350
f 139 350 140
f 205 414 415
f 205 204 414
f 138 348 349
f 138 349 139
f 206 415 416
f 206 416 417
f 206 205 415
f 137 347 348
f 137 348 138
f 207 417 418
f 207 206 417
f 136 345 346
f 136 346 347
f 136 347 137
f 208 207 418
f 135 344 345
f 135 345 136
f 209 208 418
f 209 418 419
f 209 419 420
f 134 344 135
f 210 209 420
f 133 344 134
f 133 343 344
f 106 420 316
f 106 210 420
f 132 343 133
f 132 342 343
f 107 316 317
f 107 317 318
f 107 106 316
f 131 341 342
f 131 342 132
f 108 107 318
f 130 340 341
f 130 341 131
f 109 318 319
f 109 108 318
f 129 339 340
f 129 340 130
f 110 319 320
f 110 109 319
f 128 338 339
f 128 339 129
f 111 320 321
f 111 110 320
f 127 337 338
f 127 338 128
f 112 321 322
f 112 322 323
f 112 111 321
f 126 337 127
f 126 336 337
f 113 112 323
f 125 336 126
f 125 335 336
f 114 323 324
f 114 324 325
f 114 113 323
f 124 335 125
f 124 333 334
f 124 334 335
f 115 114 325
f 123 333 124
f 116 325 326
f 116 115 325
f 122 332 333
f 122 333 123
f 117 116 326
f 117 326 327
f 121 332 122
f 121 330 331
f 121 331 332
f 118 327 328
f 118 117 327
f 120 330 121
f 119 328 329
f 119 329 330
f 119 118 328
f 119 330 120
f 212 316 211
f 212 317 316
f 213 318 317
f 213 317 212
f 214 319 318
f 214 318 213
f 215 320 319
f 215 319 214
f 216 321 320
f 216 322 321
f 216 320 215
f 217 322 216
f 218 323 322
f 218 322 217
f 219 324 323
f 219 323 218
f 220 325 324
f 220 324 219
f 221 326 325
f 221 325 220
f 222 327 326
f 222 326 221
f 223 328 327
f 223 327 222
f 224 329 328
f 224 328 223
f 225 330 329
f 225 329 224
f 226 331 330
f 226 330 225
f 227 332 331
f 227 331 226
f 228 333 332
f 228 334 333
f 228 332 227
f 229 334 228
f 230 335 334
f 230 334 229
f 231 336 335
f 231 335 230
f 232 337 336
f 232 338 337
f 232 336 231
f 233 338 232
f 233 339 338
f 234 339 233
f 235 339 234
f 235 340 339
f 236 340 235
f 236 341 340
f 237 341 236
f 237 342 341
f 238 342 237
f 238 343 342
f 238 344 343
f 239 344 238
f 239 345 344
f 240 345 239
f 241 345 240
f 241 346 345
f 241 347 346
f 242 348 347
f 242 347 241
f 243 348 242
f 244 349 348
f 244 348 243
f 245 350 349
f 245 351 350
f 245 349 244
f 246 351 245
f 247 352 351
f 247 351 246
f 248 353 352
f 248 352 247
f 249 354 353
f 249 353 248
f 250 355 354
f 250 354 249
f 251 356 355
f 251 355 250
f 252 357 356
f 252 356 251
f 253 358 357
f 253 357 252
f 254 359 358
f 254 358 253
f 255 360 359
f 255 359 254
f 256 361 360
f 256 360 255
f 257 362 361
f 257 361 256
f 258 363 362
f 258 362 257
f 259 363 258
f 259 364 363
f 259 365 364
f 260 365 259
f 261 365 260
f 261 366 365
f 262 366 261
f 262 367 366
f 263 367 262
f 263 368 367
f 264 368 263
f 264 369 368
f 265 369 264
f 265 370 369
f 266 370 265
f 266 371 370
f 267 371 266
f 267 372 371
f 267 373 372
f 268 373 267
f 269 373 268
f 269 374 373
f 270 374 269
f 270 375 374
f 271 375 270
f 271 376 375
f 272 376 271
f 272 377 376
f 273 377 272
f 273 378 377
f 274 378 273
f 274 379 378
f 275 379 274
f 275 380 379
f 276 381 380
f 276 380 275
f 277 382 381
f 277 383 382
f 277 381 276
f 278 383 277
f 279 384 383
f 279 383 278
f 280 385 384
f 280 386 385
f 280 384 279
f 281 386 280
f 282 387 386
f 282 386 281
f 283 387 282
f 283 388 387
f 284 388 283
f 284 389 388
f 285 389 284
f 285 390 389
f 286 390 285
f 286 391 390
f 287 391 286
f 287 392 391
f 288 392 287
f 288 393 392
f 289 393 288
f 289 394 393
f 290 394 289
f 290 395 394
f 291 395 290
f 291 396 395
f 292 396 291
f 292 397 396
f 293 397 292
f 293 398 397
f 294 398 293
f 294 399 398
f 295 399 294
f 295 400 399
f 296 400 295
f 296 401 400
f 297 401 296
f 297 402 401
f 298 402 297
f 298 403 402
f 299 403 298
f 299 404 403
f 300 404 299
f 300 405 404
f 301 405 300
f 301 406 405
f 302 406 301
f 302 407 406
f 303 407 302
f 303 408 407
f 304 408 303
f 304 409 408
f 305 409 304
f 305 410 409
f 306 410 305
f 306 411 410
f 307 412 411
f 307 411 306
f 308 413 412
f 308 412 307
f 309 413 308
f 309 414 413
f 310 415 414
f 310 414 309
f 311 416 415
f 311 415 310
f 312 417 416
f 312 416 311
f 313 418 417
f 313 417 312
f 314 419 418
f 314 420 419
f 314 418 313
f 315 420 314
f 211 316 420
f 211 420 315

