# https://github.com/mikedh/trimesh
v -0.09747206 0.09403187 -1.16150000
v -0.09403187 0.09747206 -1.16150000
v -0.08715149 0.10779263 -1.14000000
v -0.10779263 0.08715149 -1.14000000
v -0.09661201 0.09661201 -1.15075000
v -0.09689869 0.10033888 -1.16150000
v -0.09632533 0.11696647 -1.14000000
v -0.09991459 0.10190990 -1.16150000
v -0.10295343 0.11492529 -1.14000000
v -0.09812731 0.10283714 -1.15881250
v -0.09726045 0.10255727 -1.15881250
v -0.09969456 0.10499676 -1.15612500
v -0.09773509 0.10466277 -1.15612500
v -0.09986102 0.10339689 -1.15881250
v -0.10115467 0.11013034 -1.14806250
v -0.09719953 0.11064530 -1.14806250
v -0.09902301 0.10853514 -1.15075000
v -0.09750964 0.10761170 -1.15209375
v -0.10060518 0.10594957 -1.15478125
v -0.09697856 0.10556264 -1.15478125
v -0.09722999 0.10660128 -1.15343750
v -0.10050785 0.10676362 -1.15343750
v -0.10038229 0.10760588 -1.15209375
v -0.09692099 0.10296840 -1.15814062
v -0.10027753 0.10391210 -1.15814062
v -0.10174050 0.11047623 -1.14739063
v -0.09669075 0.11122575 -1.14739063
v -0.09677620 0.10580084 -1.15444531
v -0.09680587 0.10709708 -1.15276563
v -0.10084607 0.10617455 -1.15444531
v -0.10100901 0.10719417 -1.15276563
v -0.09683282 0.10307449 -1.15797266
v -0.10038496 0.10403760 -1.15797266
v -0.10189027 0.11055940 -1.14722266
v -0.09656024 0.11137417 -1.14722266
v -0.09672478 0.10586121 -1.15436133
v -0.09669653 0.10722433 -1.15259766
v -0.10090711 0.10622997 -1.15436133
v -0.10113761 0.10729850 -1.15259766
v -0.09681057 0.10310122 -1.15793066
v -0.10041202 0.10406876 -1.15793066
v -0.10192791 0.11057998 -1.14718066
v -0.09652741 0.11141148 -1.14718066
v -0.09671188 0.10587636 -1.15434033
v -0.09666899 0.10725635 -1.15255566
v -0.10092243 0.10624377 -1.15434033
v -0.10116997 0.10732437 -1.15255566
v -0.09680499 0.10310791 -1.15792017
v -0.10041880 0.10407654 -1.15792017
v -0.09651919 0.11142082 -1.14717017
v -0.10193734 0.11058512 -1.14717017
v -0.10190990 0.09991459 -1.16150000
v -0.11492529 0.10295343 -1.14000000
v -0.10033888 0.09689869 -1.16150000
v -0.11696647 0.09632533 -1.14000000
v -0.10311701 0.09899416 -1.15881250
v -0.10339689 0.09986102 -1.15881250
v -0.10466277 0.09773509 -1.15612500
v -0.10499676 0.09969456 -1.15612500
v -0.10255727 0.09726045 -1.15881250
v -0.11064530 0.09719953 -1.14806250
v -0.11013034 0.10115467 -1.14806250
v -0.10853514 0.09902301 -1.15075000
v -0.10760588 0.10038229 -1.15209375
v -0.10556264 0.09697856 -1.15478125
v -0.10594957 0.10060518 -1.15478125
v -0.10660128 0.09722999 -1.15343750
v -0.10676362 0.10050785 -1.15343750
v -0.10761170 0.09750964 -1.15209375
v -0.10391210 0.10027753 -1.15814062
v -0.10296840 0.09692099 -1.15814062
v -0.11122575 0.09669075 -1.14739063
v -0.11047623 0.10174050 -1.14739063
v -0.10617455 0.10084607 -1.15444531
v -0.10719417 0.10100901 -1.15276563
v -0.10580084 0.09677620 -1.15444531
v -0.10709708 0.09680587 -1.15276563
v -0.10403760 0.10038496 -1.15797266
v -0.10307449 0.09683282 -1.15797266
v -0.11055940 0.10189027 -1.14722266
v -0.11137417 0.09656024 -1.14722266
v -0.10622997 0.10090711 -1.15436133
v -0.10729850 0.10113761 -1.15259766
v -0.10586121 0.09672478 -1.15436133
v -0.10722433 0.09669653 -1.15259766
v -0.10406876 0.10041202 -1.15793066
v -0.10310122 0.09681057 -1.15793066
v -0.11141148 0.09652741 -1.14718066
v -0.11057998 0.10192791 -1.14718066
v -0.10624377 0.10092243 -1.15434033
v -0.10732437 0.10116997 -1.15255566
v -0.10587636 0.09671188 -1.15434033
v -0.10725635 0.09666899 -1.15255566
v -0.10407654 0.10041880 -1.15792017
v -0.10310791 0.09680499 -1.15792017
v -0.11058512 0.10193734 -1.14717017
v -0.11142082 0.09651919 -1.14717017
v -0.09345850 0.11409964 -1.05000000
v -0.11409964 0.09345850 -1.05000000
v -0.09804542 0.11868656 -1.05000000
v -0.10467352 0.11664538 -1.05000000
v -0.11664538 0.10467352 -1.05000000
v -0.11868656 0.09804542 -1.05000000
v -0.09575196 0.11295291 -0.84000000
v -0.11295291 0.09575196 -0.84000000
v -0.09976552 0.11696647 -0.84000000
v -0.10567118 0.11564773 -0.84000000
v -0.11564773 0.10567118 -0.84000000
v -0.11696647 0.09976552 -0.84000000
v -0.10320571 0.10549917 -0.81850000
v -0.10549917 0.10320571 -0.81850000
v -0.10435244 0.10435244 -0.82925000
v -0.10377907 0.10607253 -0.81850000
v -0.10655416 0.10788437 -0.81850000
v -0.10461117 0.11384091 -0.83462500
v -0.10204966 0.11410896 -0.83462500
v -0.10541083 0.11275456 -0.83193750
v -0.10186206 0.11286315 -0.83193750
v -0.10394248 0.11164277 -0.82925000
v -0.10285739 0.11158114 -0.82925000
v -0.10502757 0.11170441 -0.82925000
v -0.10446478 0.10796697 -0.82118750
v -0.10366512 0.10905331 -0.82387500
v -0.10544398 0.10956791 -0.82387500
v -0.10367318 0.10761184 -0.82118750
v -0.10604799 0.10867722 -0.82118750
v -0.10322860 0.10963317 -0.82521875
v -0.10275942 0.10952898 -0.82521875
v -0.10572941 0.11071589 -0.82656250
v -0.10276762 0.11023749 -0.82656250
v -0.10557447 0.11015413 -0.82521875
v -0.10604364 0.11025832 -0.82521875
v -0.10129610 0.11321410 -0.83260937
v -0.10582378 0.11298665 -0.83260937
v -0.10325396 0.10781604 -0.82185938
v -0.10631419 0.10905606 -0.82185938
v -0.10203617 0.11136313 -0.82891406
v -0.10227503 0.11051507 -0.82723437
v -0.10252154 0.10965936 -0.82555469
v -0.10606898 0.11102136 -0.82723437
v -0.10620502 0.11041946 -0.82555469
v -0.10115174 0.11330470 -0.83277734
v -0.10592988 0.11304181 -0.83277734
v -0.10314629 0.10786996 -0.82202734
v -0.10638360 0.10914790 -0.82202734
v -0.10214902 0.11058733 -0.82740234
v -0.10246135 0.10969268 -0.82563867
v -0.10606540 0.11173269 -0.82916602
v -0.10592530 0.11163090 -0.82891406
v -0.10615674 0.11109486 -0.82740234
v -0.10624608 0.11045903 -0.82563867
v -0.10111547 0.11332753 -0.83281934
v -0.10595659 0.11305542 -0.83281934
v -0.10311919 0.10788362 -0.82206934
v -0.10640114 0.10917068 -0.82206934
v -0.10211733 0.11060558 -0.82744434
v -0.10244626 0.10970105 -0.82565967
v -0.10610082 0.11175773 -0.82922900
v -0.10617886 0.11111305 -0.82744434
v -0.10625639 0.11046888 -0.82565967
v -0.10110640 0.11333325 -0.83282983
v -0.10596327 0.11305881 -0.83282983
v -0.10311241 0.10788705 -0.82207983
v -0.10640553 0.10917637 -0.82207983
v -0.10788437 0.10655416 -0.81850000
v -0.10607253 0.10377907 -0.81850000
v -0.11410896 0.10204966 -0.83462500
v -0.11384091 0.10461117 -0.83462500
v -0.11170441 0.10502757 -0.82925000
v -0.11275456 0.10541083 -0.83193750
v -0.11164277 0.10394248 -0.82925000
v -0.10832209 0.10525638 -0.82118750
v -0.10956791 0.10544398 -0.82387500
v -0.10905331 0.10366512 -0.82387500
v -0.10867722 0.10604799 -0.82118750
v -0.10761184 0.10367318 -0.82118750
v -0.11354084 0.10132771 -0.83328125
v -0.11220991 0.10237195 -0.83059375
v -0.11158114 0.10285739 -0.82925000
v -0.11071589 0.10572941 -0.82656250
v -0.11023749 0.10276762 -0.82656250
v -0.11015413 0.10557447 -0.82521875
v -0.11025832 0.10604364 -0.82521875
v -0.10819170 0.10323666 -0.82253125
v -0.11298665 0.10582378 -0.83260937
v -0.11086627 0.10228219 -0.82790625
v -0.10984031 0.10251976 -0.82589062
v -0.10905606 0.10631419 -0.82185938
v -0.11338734 0.10115869 -0.83294531
v -0.11102136 0.10606898 -0.82723437
v -0.11041946 0.10620502 -0.82555469
v -0.10796483 0.10314101 -0.82219531
v -0.11304181 0.10592988 -0.83277734
v -0.11067609 0.10214985 -0.82757031
v -0.10914790 0.10638360 -0.82202734
v -0.10973815 0.10246067 -0.82572266
v -0.11173269 0.10606540 -0.82916602
v -0.11163090 0.10592530 -0.82891406
v -0.11334825 0.10111715 -0.83286133
v -0.11109486 0.10615674 -0.82740234
v -0.11045903 0.10624608 -0.82563867
v -0.10790740 0.10311781 -0.82211133
v -0.11305542 0.10595659 -0.83281934
v -0.11062782 0.10211748 -0.82748633
v -0.10917068 0.10640114 -0.82206934
v -0.10971243 0.10244607 -0.82568066
v -0.11175773 0.10610082 -0.82922900
v -0.11333843 0.10110681 -0.83284033
v -0.11111305 0.10617886 -0.82744434
v -0.11046888 0.10625639 -0.82565967
v -0.10789299 0.10311206 -0.82209033
v -0.11305881 0.10596327 -0.83282983
v -0.11061571 0.10210944 -0.82746533
v -0.10917637 0.10640553 -0.82207983
v -0.10970599 0.10244243 -0.82567017
v -0.09403187 -0.09747206 -1.16150000
v -0.09747206 -0.09403187 -1.16150000
v -0.10779263 -0.08715149 -1.14000000
v -0.08715149 -0.10779263 -1.14000000
v -0.09661201 -0.09661201 -1.15075000
v -0.10033888 -0.09689869 -1.16150000
v -0.11696647 -0.09632533 -1.14000000
v -0.10190990 -0.09991459 -1.16150000
v -0.11492529 -0.10295343 -1.14000000
v -0.10283714 -0.09812731 -1.15881250
v -0.10255727 -0.09726045 -1.15881250
v -0.10499676 -0.09969456 -1.15612500
v -0.10466277 -0.09773509 -1.15612500
v -0.10339689 -0.09986102 -1.15881250
v -0.11013034 -0.10115467 -1.14806250
v -0.11064530 -0.09719953 -1.14806250
v -0.10853514 -0.09902301 -1.15075000
v -0.10761170 -0.09750964 -1.15209375
v -0.10594957 -0.10060518 -1.15478125
v -0.10556264 -0.09697856 -1.15478125
v -0.10660128 -0.09722999 -1.15343750
v -0.10676362 -0.10050785 -1.15343750
v -0.10760588 -0.10038229 -1.15209375
v -0.10296840 -0.09692099 -1.15814062
v -0.10391210 -0.10027753 -1.15814062
v -0.11047623 -0.10174050 -1.14739063
v -0.11122575 -0.09669075 -1.14739063
v -0.10580084 -0.09677620 -1.15444531
v -0.10709708 -0.09680587 -1.15276563
v -0.10617455 -0.10084607 -1.15444531
v -0.10719417 -0.10100901 -1.15276563
v -0.10307449 -0.09683282 -1.15797266
v -0.10403760 -0.10038496 -1.15797266
v -0.11055940 -0.10189027 -1.14722266
v -0.11137417 -0.09656024 -1.14722266
v -0.10586121 -0.09672478 -1.15436133
v -0.10722433 -0.09669653 -1.15259766
v -0.10622997 -0.10090711 -1.15436133
v -0.10729850 -0.10113761 -1.15259766
v -0.10310122 -0.09681057 -1.15793066
v -0.10406876 -0.10041202 -1.15793066
v -0.11057998 -0.10192791 -1.14718066
v -0.11141148 -0.09652741 -1.14718066
v -0.10587636 -0.09671188 -1.15434033
v -0.10725635 -0.09666899 -1.15255566
v -0.10624377 -0.10092243 -1.15434033
v -0.10732437 -0.10116997 -1.15255566
v -0.10310791 -0.09680499 -1.15792017
v -0.10407654 -0.10041880 -1.15792017
v -0.11142082 -0.09651919 -1.14717017
v -0.11058512 -0.10193734 -1.14717017
v -0.09991459 -0.10190990 -1.16150000
v -0.10295343 -0.11492529 -1.14000000
v -0.09689869 -0.10033888 -1.16150000
v -0.09632533 -0.11696647 -1.14000000
v -0.09899416 -0.10311701 -1.15881250
v -0.09986102 -0.10339689 -1.15881250
v -0.09773509 -0.10466277 -1.15612500
v -0.09969456 -0.10499676 -1.15612500
v -0.09726045 -0.10255727 -1.15881250
v -0.09719953 -0.11064530 -1.14806250
v -0.10115467 -0.11013034 -1.14806250
v -0.09902301 -0.10853514 -1.15075000
v -0.10038229 -0.10760588 -1.15209375
v -0.09697856 -0.10556264 -1.15478125
v -0.10060518 -0.10594957 -1.15478125
v -0.09722999 -0.10660128 -1.15343750
v -0.10050785 -0.10676362 -1.15343750
v -0.09750964 -0.10761170 -1.15209375
v -0.10027753 -0.10391210 -1.15814062
v -0.09692099 -0.10296840 -1.15814062
v -0.09669075 -0.11122575 -1.14739063
v -0.10174050 -0.11047623 -1.14739063
v -0.10084607 -0.10617455 -1.15444531
v -0.10100901 -0.10719417 -1.15276563
v -0.09677620 -0.10580084 -1.15444531
v -0.09680587 -0.10709708 -1.15276563
v -0.10038496 -0.10403760 -1.15797266
v -0.09683282 -0.10307449 -1.15797266
v -0.10189027 -0.11055940 -1.14722266
v -0.09656024 -0.11137417 -1.14722266
v -0.10090711 -0.10622997 -1.15436133
v -0.10113761 -0.10729850 -1.15259766
v -0.09672478 -0.10586121 -1.15436133
v -0.09669653 -0.10722433 -1.15259766
v -0.10041202 -0.10406876 -1.15793066
v -0.09681057 -0.10310122 -1.15793066
v -0.09652741 -0.11141148 -1.14718066
v -0.10192791 -0.11057998 -1.14718066
v -0.10092243 -0.10624377 -1.15434033
v -0.10116997 -0.10732437 -1.15255566
v -0.09671188 -0.10587636 -1.15434033
v -0.09666899 -0.10725635 -1.15255566
v -0.10041880 -0.10407654 -1.15792017
v -0.09680499 -0.10310791 -1.15792017
v -0.10193734 -0.11058512 -1.14717017
v -0.09651919 -0.11142082 -1.14717017
v -0.11409964 -0.09345850 -1.05000000
v -0.09345850 -0.11409964 -1.05000000
v -0.11868656 -0.09804542 -1.05000000
v -0.11664538 -0.10467352 -1.05000000
v -0.10467352 -0.11664538 -1.05000000
v -0.09804542 -0.11868656 -1.05000000
v -0.11295291 -0.09575196 -0.84000000
v -0.09575196 -0.11295291 -0.84000000
v -0.11696647 -0.09976552 -0.84000000
v -0.11564773 -0.10567118 -0.84000000
v -0.10567118 -0.11564773 -0.84000000
v -0.09976552 -0.11696647 -0.84000000
v -0.10549917 -0.10320571 -0.81850000
v -0.10320571 -0.10549917 -0.81850000
v -0.10435244 -0.10435244 -0.82925000
v -0.10607253 -0.10377907 -0.81850000
v -0.10788437 -0.10655416 -0.81850000
v -0.11384091 -0.10461117 -0.83462500
v -0.11410896 -0.10204966 -0.83462500
v -0.11275456 -0.10541083 -0.83193750
v -0.11286315 -0.10186206 -0.83193750
v -0.11164277 -0.10394248 -0.82925000
v -0.11158114 -0.10285739 -0.82925000
v -0.11170441 -0.10502757 -0.82925000
v -0.10796697 -0.10446478 -0.82118750
v -0.10905331 -0.10366512 -0.82387500
v -0.10956791 -0.10544398 -0.82387500
v -0.10761184 -0.10367318 -0.82118750
v -0.10867722 -0.10604799 -0.82118750
v -0.10963317 -0.10322860 -0.82521875
v -0.10952898 -0.10275942 -0.82521875
v -0.11071589 -0.10572941 -0.82656250
v -0.11023749 -0.10276762 -0.82656250
v -0.11015413 -0.10557447 -0.82521875
v -0.11025832 -0.10604364 -0.82521875
v -0.11321410 -0.10129610 -0.83260937
v -0.11298665 -0.10582378 -0.83260937
v -0.10781604 -0.10325396 -0.82185938
v -0.10905606 -0.10631419 -0.82185938
v -0.11136313 -0.10203617 -0.82891406
v -0.11051507 -0.10227503 -0.82723437
v -0.10965936 -0.10252154 -0.82555469
v -0.11102136 -0.10606898 -0.82723437
v -0.11041946 -0.10620502 -0.82555469
v -0.11330470 -0.10115174 -0.83277734
v -0.11304181 -0.10592988 -0.83277734
v -0.10786996 -0.10314629 -0.82202734
v -0.10914790 -0.10638360 -0.82202734
v -0.11058733 -0.10214902 -0.82740234
v -0.10969268 -0.10246135 -0.82563867
v -0.11173269 -0.10606540 -0.82916602
v -0.11163090 -0.10592530 -0.82891406
v -0.11109486 -0.10615674 -0.82740234
v -0.11045903 -0.10624608 -0.82563867
v -0.11332753 -0.10111547 -0.83281934
v -0.11305542 -0.10595659 -0.83281934
v -0.10788362 -0.10311919 -0.82206934
v -0.10917068 -0.10640114 -0.82206934
v -0.11060558 -0.10211733 -0.82744434
v -0.10970105 -0.10244626 -0.82565967
v -0.11175773 -0.10610082 -0.82922900
v -0.11111305 -0.10617886 -0.82744434
v -0.11046888 -0.10625639 -0.82565967
v -0.11333325 -0.10110640 -0.83282983
v -0.11305881 -0.10596327 -0.83282983
v -0.10788705 -0.10311241 -0.82207983
v -0.10917637 -0.10640553 -0.82207983
v -0.10655416 -0.10788437 -0.81850000
v -0.10377907 -0.10607253 -0.81850000
v -0.10204966 -0.11410896 -0.83462500
v -0.10461117 -0.11384091 -0.83462500
v -0.10502757 -0.11170441 -0.82925000
v -0.10541083 -0.11275456 -0.83193750
v -0.10394248 -0.11164277 -0.82925000
v -0.10525638 -0.10832209 -0.82118750
v -0.10544398 -0.10956791 -0.82387500
v -0.10366512 -0.10905331 -0.82387500
v -0.10604799 -0.10867722 -0.82118750
v -0.10367318 -0.10761184 -0.82118750
v -0.10132771 -0.11354084 -0.83328125
v -0.10237195 -0.11220991 -0.83059375
v -0.10285739 -0.11158114 -0.82925000
v -0.10572941 -0.11071589 -0.82656250
v -0.10276762 -0.11023749 -0.82656250
v -0.10557447 -0.11015413 -0.82521875
v -0.10604364 -0.11025832 -0.82521875
v -0.10323666 -0.10819170 -0.82253125
v -0.10582378 -0.11298665 -0.83260937
v -0.10228219 -0.11086627 -0.82790625
v -0.10251976 -0.10984031 -0.82589062
v -0.10631419 -0.10905606 -0.82185938
v -0.10115869 -0.11338734 -0.83294531
v -0.10606898 -0.11102136 -0.82723437
v -0.10620502 -0.11041946 -0.82555469
v -0.10314101 -0.10796483 -0.82219531
v -0.10592988 -0.11304181 -0.83277734
v -0.10214985 -0.11067609 -0.82757031
v -0.10638360 -0.10914790 -0.82202734
v -0.10246067 -0.10973815 -0.82572266
v -0.10606540 -0.11173269 -0.82916602
v -0.10592530 -0.11163090 -0.82891406
v -0.10111715 -0.11334825 -0.83286133
v -0.10615674 -0.11109486 -0.82740234
v -0.10624608 -0.11045903 -0.82563867
v -0.10311781 -0.10790740 -0.82211133
v -0.10595659 -0.11305542 -0.83281934
v -0.10211748 -0.11062782 -0.82748633
v -0.10640114 -0.10917068 -0.82206934
v -0.10244607 -0.10971243 -0.82568066
v -0.10610082 -0.11175773 -0.82922900
v -0.10110681 -0.11333843 -0.83284033
v -0.10617886 -0.11111305 -0.82744434
v -0.10625639 -0.11046888 -0.82565967
v -0.10311206 -0.10789299 -0.82209033
v -0.10596327 -0.11305881 -0.83282983
v -0.10210944 -0.11061571 -0.82746533
v -0.10640553 -0.10917637 -0.82207983
v -0.10244243 -0.10970599 -0.82567017
v 0.09747206 -0.09403187 -1.16150000
v 0.09403187 -0.09747206 -1.16150000
v 0.08715149 -0.10779263 -1.14000000
v 0.10779263 -0.08715149 -1.14000000
v 0.09661201 -0.09661201 -1.15075000
v 0.09689869 -0.10033888 -1.16150000
v 0.09632533 -0.11696647 -1.14000000
v 0.09991459 -0.10190990 -1.16150000
v 0.10295343 -0.11492529 -1.14000000
v 0.09812731 -0.10283714 -1.15881250
v 0.09726045 -0.10255727 -1.15881250
v 0.09969456 -0.10499676 -1.15612500
v 0.09773509 -0.10466277 -1.15612500
v 0.09986102 -0.10339689 -1.15881250
v 0.10115467 -0.11013034 -1.14806250
v 0.09719953 -0.11064530 -1.14806250
v 0.09902301 -0.10853514 -1.15075000
v 0.09750964 -0.10761170 -1.15209375
v 0.10060518 -0.10594957 -1.15478125
v 0.09697856 -0.10556264 -1.15478125
v 0.09722999 -0.10660128 -1.15343750
v 0.10050785 -0.10676362 -1.15343750
v 0.10038229 -0.10760588 -1.15209375
v 0.09692099 -0.10296840 -1.15814062
v 0.10027753 -0.10391210 -1.15814062
v 0.10174050 -0.11047623 -1.14739063
v 0.09669075 -0.11122575 -1.14739063
v 0.09677620 -0.10580084 -1.15444531
v 0.09680587 -0.10709708 -1.15276563
v 0.10084607 -0.10617455 -1.15444531
v 0.10100901 -0.10719417 -1.15276563
v 0.09683282 -0.10307449 -1.15797266
v 0.10038496 -0.10403760 -1.15797266
v 0.10189027 -0.11055940 -1.14722266
v 0.09656024 -0.11137417 -1.14722266
v 0.09672478 -0.10586121 -1.15436133
v 0.09669653 -0.10722433 -1.15259766
v 0.10090711 -0.10622997 -1.15436133
v 0.10113761 -0.10729850 -1.15259766
v 0.09681057 -0.10310122 -1.15793066
v 0.10041202 -0.10406876 -1.15793066
v 0.10192791 -0.11057998 -1.14718066
v 0.09652741 -0.11141148 -1.14718066
v 0.09671188 -0.10587636 -1.15434033
v 0.09666899 -0.10725635 -1.15255566
v 0.10092243 -0.10624377 -1.15434033
v 0.10116997 -0.10732437 -1.15255566
v 0.09680499 -0.10310791 -1.15792017
v 0.10041880 -0.10407654 -1.15792017
v 0.09651919 -0.11142082 -1.14717017
v 0.10193734 -0.11058512 -1.14717017
v 0.10190990 -0.09991459 -1.16150000
v 0.11492529 -0.10295343 -1.14000000
v 0.10033888 -0.09689869 -1.16150000
v 0.11696647 -0.09632533 -1.14000000
v 0.10311701 -0.09899416 -1.15881250
v 0.10339689 -0.09986102 -1.15881250
v 0.10466277 -0.09773509 -1.15612500
v 0.10499676 -0.09969456 -1.15612500
v 0.10255727 -0.09726045 -1.15881250
v 0.11064530 -0.09719953 -1.14806250
v 0.11013034 -0.10115467 -1.14806250
v 0.10853514 -0.09902301 -1.15075000
v 0.10760588 -0.10038229 -1.15209375
v 0.10556264 -0.09697856 -1.15478125
v 0.10594957 -0.10060518 -1.15478125
v 0.10660128 -0.09722999 -1.15343750
v 0.10676362 -0.10050785 -1.15343750
v 0.10761170 -0.09750964 -1.15209375
v 0.10391210 -0.10027753 -1.15814062
v 0.10296840 -0.09692099 -1.15814062
v 0.11122575 -0.09669075 -1.14739063
v 0.11047623 -0.10174050 -1.14739063
v 0.10617455 -0.10084607 -1.15444531
v 0.10719417 -0.10100901 -1.15276563
v 0.10580084 -0.09677620 -1.15444531
v 0.10709708 -0.09680587 -1.15276563
v 0.10403760 -0.10038496 -1.15797266
v 0.10307449 -0.09683282 -1.15797266
v 0.11055940 -0.10189027 -1.14722266
v 0.11137417 -0.09656024 -1.14722266
v 0.10622997 -0.10090711 -1.15436133
v 0.10729850 -0.10113761 -1.15259766
v 0.10586121 -0.09672478 -1.15436133
v 0.10722433 -0.09669653 -1.15259766
v 0.10406876 -0.10041202 -1.15793066
v 0.10310122 -0.09681057 -1.15793066
v 0.11141148 -0.09652741 -1.14718066
v 0.11057998 -0.10192791 -1.14718066
v 0.10624377 -0.10092243 -1.15434033
v 0.10732437 -0.10116997 -1.15255566
v 0.10587636 -0.09671188 -1.15434033
v 0.10725635 -0.09666899 -1.15255566
v 0.10407654 -0.10041880 -1.15792017
v 0.10310791 -0.09680499 -1.15792017
v 0.11058512 -0.10193734 -1.14717017
v 0.11142082 -0.09651919 -1.14717017
v 0.09345850 -0.11409964 -1.05000000
v 0.11409964 -0.09345850 -1.05000000
v 0.09804542 -0.11868656 -1.05000000
v 0.10467352 -0.11664538 -1.05000000
v 0.11664538 -0.10467352 -1.05000000
v 0.11868656 -0.09804542 -1.05000000
v 0.09575196 -0.11295291 -0.84000000
v 0.11295291 -0.09575196 -0.84000000
v 0.09976552 -0.11696647 -0.84000000
v 0.10567118 -0.11564773 -0.84000000
v 0.11564773 -0.10567118 -0.84000000
v 0.11696647 -0.09976552 -0.84000000
v 0.10320571 -0.10549917 -0.81850000
v 0.10549917 -0.10320571 -0.81850000
v 0.10435244 -0.10435244 -0.82925000
v 0.10377907 -0.10607253 -0.81850000
v 0.10655416 -0.10788437 -0.81850000
v 0.10461117 -0.11384091 -0.83462500
v 0.10204966 -0.11410896 -0.83462500
v 0.10541083 -0.11275456 -0.83193750
v 0.10186206 -0.11286315 -0.83193750
v 0.10394248 -0.11164277 -0.82925000
v 0.10285739 -0.11158114 -0.82925000
v 0.10502757 -0.11170441 -0.82925000
v 0.10446478 -0.10796697 -0.82118750
v 0.10366512 -0.10905331 -0.82387500
v 0.10544398 -0.10956791 -0.82387500
v 0.10367318 -0.10761184 -0.82118750
v 0.10604799 -0.10867722 -0.82118750
v 0.10322860 -0.10963317 -0.82521875
v 0.10275942 -0.10952898 -0.82521875
v 0.10572941 -0.11071589 -0.82656250
v 0.10276762 -0.11023749 -0.82656250
v 0.10557447 -0.11015413 -0.82521875
v 0.10604364 -0.11025832 -0.82521875
v 0.10129610 -0.11321410 -0.83260937
v 0.10582378 -0.11298665 -0.83260937
v 0.10325396 -0.10781604 -0.82185938
v 0.10631419 -0.10905606 -0.82185938
v 0.10203617 -0.11136313 -0.82891406
v 0.10227503 -0.11051507 -0.82723437
v 0.10252154 -0.10965936 -0.82555469
v 0.10606898 -0.11102136 -0.82723437
v 0.10620502 -0.11041946 -0.82555469
v 0.10115174 -0.11330470 -0.83277734
v 0.10592988 -0.11304181 -0.83277734
v 0.10314629 -0.10786996 -0.82202734
v 0.10638360 -0.10914790 -0.82202734
v 0.10214902 -0.11058733 -0.82740234
v 0.10246135 -0.10969268 -0.82563867
v 0.10606540 -0.11173269 -0.82916602
v 0.10592530 -0.11163090 -0.82891406
v 0.10615674 -0.11109486 -0.82740234
v 0.10624608 -0.11045903 -0.82563867
v 0.10111547 -0.11332753 -0.83281934
v 0.10595659 -0.11305542 -0.83281934
v 0.10311919 -0.10788362 -0.82206934
v 0.10640114 -0.10917068 -0.82206934
v 0.10211733 -0.11060558 -0.82744434
v 0.10244626 -0.10970105 -0.82565967
v 0.10610082 -0.11175773 -0.82922900
v 0.10617886 -0.11111305 -0.82744434
v 0.10625639 -0.11046888 -0.82565967
v 0.10110640 -0.11333325 -0.83282983
v 0.10596327 -0.11305881 -0.83282983
v 0.10311241 -0.10788705 -0.82207983
v 0.10640553 -0.10917637 -0.82207983
v 0.10788437 -0.10655416 -0.81850000
v 0.10607253 -0.10377907 -0.81850000
v 0.11410896 -0.10204966 -0.83462500
v 0.11384091 -0.10461117 -0.83462500
v 0.11170441 -0.10502757 -0.82925000
v 0.11275456 -0.10541083 -0.83193750
v 0.11164277 -0.10394248 -0.82925000
v 0.10832209 -0.10525638 -0.82118750
v 0.10956791 -0.10544398 -0.82387500
v 0.10905331 -0.10366512 -0.82387500
v 0.10867722 -0.10604799 -0.82118750
v 0.10761184 -0.10367318 -0.82118750
v 0.11354084 -0.10132771 -0.83328125
v 0.11220991 -0.10237195 -0.83059375
v 0.11158114 -0.10285739 -0.82925000
v 0.11071589 -0.10572941 -0.82656250
v 0.11023749 -0.10276762 -0.82656250
v 0.11015413 -0.10557447 -0.82521875
v 0.11025832 -0.10604364 -0.82521875
v 0.10819170 -0.10323666 -0.82253125
v 0.11298665 -0.10582378 -0.83260937
v 0.11086627 -0.10228219 -0.82790625
v 0.10984031 -0.10251976 -0.82589062
v 0.10905606 -0.10631419 -0.82185938
v 0.11338734 -0.10115869 -0.83294531
v 0.11102136 -0.10606898 -0.82723437
v 0.11041946 -0.10620502 -0.82555469
v 0.10796483 -0.10314101 -0.82219531
v 0.11304181 -0.10592988 -0.83277734
v 0.11067609 -0.10214985 -0.82757031
v 0.10914790 -0.10638360 -0.82202734
v 0.10973815 -0.10246067 -0.82572266
v 0.11173269 -0.10606540 -0.82916602
v 0.11163090 -0.10592530 -0.82891406
v 0.11334825 -0.10111715 -0.83286133
v 0.11109486 -0.10615674 -0.82740234
v 0.11045903 -0.10624608 -0.82563867
v 0.10790740 -0.10311781 -0.82211133
v 0.11305542 -0.10595659 -0.83281934
v 0.11062782 -0.10211748 -0.82748633
v 0.10917068 -0.10640114 -0.82206934
v 0.10971243 -0.10244607 -0.82568066
v 0.11175773 -0.10610082 -0.82922900
v 0.11333843 -0.10110681 -0.83284033
v 0.11111305 -0.10617886 -0.82744434
v 0.11046888 -0.10625639 -0.82565967
v 0.10789299 -0.10311206 -0.82209033
v 0.11305881 -0.10596327 -0.83282983
v 0.11061571 -0.10210944 -0.82746533
v 0.10917637 -0.10640553 -0.82207983
v 0.10970599 -0.10244243 -0.82567017
v 0.09403187 0.09747206 -1.16150000
v 0.09747206 0.09403187 -1.16150000
v 0.10779263 0.08715149 -1.14000000
v 0.08715149 0.10779263 -1.14000000
v 0.09661201 0.09661201 -1.15075000
v 0.10033888 0.09689869 -1.16150000
v 0.11696647 0.09632533 -1.14000000
v 0.10190990 0.09991459 -1.16150000
v 0.11492529 0.10295343 -1.14000000
v 0.10283714 0.09812731 -1.15881250
v 0.10255727 0.09726045 -1.15881250
v 0.10499676 0.09969456 -1.15612500
v 0.10466277 0.09773509 -1.15612500
v 0.10339689 0.09986102 -1.15881250
v 0.11013034 0.10115467 -1.14806250
v 0.11064530 0.09719953 -1.14806250
v 0.10853514 0.09902301 -1.15075000
v 0.10761170 0.09750964 -1.15209375
v 0.10594957 0.10060518 -1.15478125
v 0.10556264 0.09697856 -1.15478125
v 0.10660128 0.09722999 -1.15343750
v 0.10676362 0.10050785 -1.15343750
v 0.10760588 0.10038229 -1.15209375
v 0.10296840 0.09692099 -1.15814062
v 0.10391210 0.10027753 -1.15814062
v 0.11047623 0.10174050 -1.14739063
v 0.11122575 0.09669075 -1.14739063
v 0.10580084 0.09677620 -1.15444531
v 0.10709708 0.09680587 -1.15276563
v 0.10617455 0.10084607 -1.15444531
v 0.10719417 0.10100901 -1.15276563
v 0.10307449 0.09683282 -1.15797266
v 0.10403760 0.10038496 -1.15797266
v 0.11055940 0.10189027 -1.14722266
v 0.11137417 0.09656024 -1.14722266
v 0.10586121 0.09672478 -1.15436133
v 0.10722433 0.09669653 -1.15259766
v 0.10622997 0.10090711 -1.15436133
v 0.10729850 0.10113761 -1.15259766
v 0.10310122 0.09681057 -1.15793066
v 0.10406876 0.10041202 -1.15793066
v 0.11057998 0.10192791 -1.14718066
v 0.11141148 0.09652741 -1.14718066
v 0.10587636 0.09671188 -1.15434033
v 0.10725635 0.09666899 -1.15255566
v 0.10624377 0.10092243 -1.15434033
v 0.10732437 0.10116997 -1.15255566
v 0.10310791 0.09680499 -1.15792017
v 0.10407654 0.10041880 -1.15792017
v 0.11142082 0.09651919 -1.14717017
v 0.11058512 0.10193734 -1.14717017
v 0.09991459 0.10190990 -1.16150000
v 0.10295343 0.11492529 -1.14000000
v 0.09689869 0.10033888 -1.16150000
v 0.09632533 0.11696647 -1.14000000
v 0.09899416 0.10311701 -1.15881250
v 0.09986102 0.10339689 -1.15881250
v 0.09773509 0.10466277 -1.15612500
v 0.09969456 0.10499676 -1.15612500
v 0.09726045 0.10255727 -1.15881250
v 0.09719953 0.11064530 -1.14806250
v 0.10115467 0.11013034 -1.14806250
v 0.09902301 0.10853514 -1.15075000
v 0.10038229 0.10760588 -1.15209375
v 0.09697856 0.10556264 -1.15478125
v 0.10060518 0.10594957 -1.15478125
v 0.09722999 0.10660128 -1.15343750
v 0.10050785 0.10676362 -1.15343750
v 0.09750964 0.10761170 -1.15209375
v 0.10027753 0.10391210 -1.15814062
v 0.09692099 0.10296840 -1.15814062
v 0.09669075 0.11122575 -1.14739063
v 0.10174050 0.11047623 -1.14739063
v 0.10084607 0.10617455 -1.15444531
v 0.10100901 0.10719417 -1.15276563
v 0.09677620 0.10580084 -1.15444531
v 0.09680587 0.10709708 -1.15276563
v 0.10038496 0.10403760 -1.15797266
v 0.09683282 0.10307449 -1.15797266
v 0.10189027 0.11055940 -1.14722266
v 0.09656024 0.11137417 -1.14722266
v 0.10090711 0.10622997 -1.15436133
v 0.10113761 0.10729850 -1.15259766
v 0.09672478 0.10586121 -1.15436133
v 0.09669653 0.10722433 -1.15259766
v 0.10041202 0.10406876 -1.15793066
v 0.09681057 0.10310122 -1.15793066
v 0.09652741 0.11141148 -1.14718066
v 0.10192791 0.11057998 -1.14718066
v 0.10092243 0.10624377 -1.15434033
v 0.10116997 0.10732437 -1.15255566
v 0.09671188 0.10587636 -1.15434033
v 0.09666899 0.10725635 -1.15255566
v 0.10041880 0.10407654 -1.15792017
v 0.09680499 0.10310791 -1.15792017
v 0.10193734 0.11058512 -1.14717017
v 0.09651919 0.11142082 -1.14717017
v 0.11409964 0.09345850 -1.05000000
v 0.09345850 0.11409964 -1.05000000
v 0.11868656 0.09804542 -1.05000000
v 0.11664538 0.10467352 -1.05000000
v 0.10467352 0.11664538 -1.05000000
v 0.09804542 0.11868656 -1.05000000
v 0.11295291 0.09575196 -0.84000000
v 0.09575196 0.11295291 -0.84000000
v 0.11696647 0.09976552 -0.84000000
v 0.11564773 0.10567118 -0.84000000
v 0.10567118 0.11564773 -0.84000000
v 0.09976552 0.11696647 -0.84000000
v 0.10549917 0.10320571 -0.81850000
v 0.10320571 0.10549917 -0.81850000
v 0.10435244 0.10435244 -0.82925000
v 0.10607253 0.10377907 -0.81850000
v 0.10788437 0.10655416 -0.81850000
v 0.11384091 0.10461117 -0.83462500
v 0.11410896 0.10204966 -0.83462500
v 0.11275456 0.10541083 -0.83193750
v 0.11286315 0.10186206 -0.83193750
v 0.11164277 0.10394248 -0.82925000
v 0.11158114 0.10285739 -0.82925000
v 0.11170441 0.10502757 -0.82925000
v 0.10796697 0.10446478 -0.82118750
v 0.10905331 0.10366512 -0.82387500
v 0.10956791 0.10544398 -0.82387500
v 0.10761184 0.10367318 -0.82118750
v 0.10867722 0.10604799 -0.82118750
v 0.10963317 0.10322860 -0.82521875
v 0.10952898 0.10275942 -0.82521875
v 0.11071589 0.10572941 -0.82656250
v 0.11023749 0.10276762 -0.82656250
v 0.11015413 0.10557447 -0.82521875
v 0.11025832 0.10604364 -0.82521875
v 0.11321410 0.10129610 -0.83260937
v 0.11298665 0.10582378 -0.83260937
v 0.10781604 0.10325396 -0.82185938
v 0.10905606 0.10631419 -0.82185938
v 0.11136313 0.10203617 -0.82891406
v 0.11051507 0.10227503 -0.82723437
v 0.10965936 0.10252154 -0.82555469
v 0.11102136 0.10606898 -0.82723437
v 0.11041946 0.10620502 -0.82555469
v 0.11330470 0.10115174 -0.83277734
v 0.11304181 0.10592988 -0.83277734
v 0.10786996 0.10314629 -0.82202734
v 0.10914790 0.10638360 -0.82202734
v 0.11058733 0.10214902 -0.82740234
v 0.10969268 0.10246135 -0.82563867
v 0.11173269 0.10606540 -0.82916602
v 0.11163090 0.10592530 -0.82891406
v 0.11109486 0.10615674 -0.82740234
v 0.11045903 0.10624608 -0.82563867
v 0.11332753 0.10111547 -0.83281934
v 0.11305542 0.10595659 -0.83281934
v 0.10788362 0.10311919 -0.82206934
v 0.10917068 0.10640114 -0.82206934
v 0.11060558 0.10211733 -0.82744434
v 0.10970105 0.10244626 -0.82565967
v 0.11175773 0.10610082 -0.82922900
v 0.11111305 0.10617886 -0.82744434
v 0.11046888 0.10625639 -0.82565967
v 0.11333325 0.10110640 -0.83282983
v 0.11305881 0.10596327 -0.83282983
v 0.10788705 0.10311241 -0.82207983
v 0.10917637 0.10640553 -0.82207983
v 0.10655416 0.10788437 -0.81850000
v 0.10377907 0.10607253 -0.81850000
v 0.10204966 0.11410896 -0.83462500
v 0.10461117 0.11384091 -0.83462500
v 0.10502757 0.11170441 -0.82925000
v 0.10541083 0.11275456 -0.83193750
v 0.10394248 0.11164277 -0.82925000
v 0.10525638 0.10832209 -0.82118750
v 0.10544398 0.10956791 -0.82387500
v 0.10366512 0.10905331 -0.82387500
v 0.10604799 0.10867722 -0.82118750
v 0.10367318 0.10761184 -0.82118750
v 0.10132771 0.11354084 -0.83328125
v 0.10237195 0.11220991 -0.83059375
v 0.10285739 0.11158114 -0.82925000
v 0.10572941 0.11071589 -0.82656250
v 0.10276762 0.11023749 -0.82656250
v 0.10557447 0.11015413 -0.82521875
v 0.10604364 0.11025832 -0.82521875
v 0.10323666 0.10819170 -0.82253125
v 0.10582378 0.11298665 -0.83260937
v 0.10228219 0.11086627 -0.82790625
v 0.10251976 0.10984031 -0.82589062
v 0.10631419 0.10905606 -0.82185938
v 0.10115869 0.11338734 -0.83294531
v 0.10606898 0.11102136 -0.82723437
v 0.10620502 0.11041946 -0.82555469
v 0.10314101 0.10796483 -0.82219531
v 0.10592988 0.11304181 -0.83277734
v 0.10214985 0.11067609 -0.82757031
v 0.10638360 0.10914790 -0.82202734
v 0.10246067 0.10973815 -0.82572266
v 0.10606540 0.11173269 -0.82916602
v 0.10592530 0.11163090 -0.82891406
v 0.10111715 0.11334825 -0.83286133
v 0.10615674 0.11109486 -0.82740234
v 0.10624608 0.11045903 -0.82563867
v 0.10311781 0.10790740 -0.82211133
v 0.10595659 0.11305542 -0.83281934
v 0.10211748 0.11062782 -0.82748633
v 0.10640114 0.10917068 -0.82206934
v 0.10244607 0.10971243 -0.82568066
v 0.10610082 0.11175773 -0.82922900
v 0.10110681 0.11333843 -0.83284033
v 0.10617886 0.11111305 -0.82744434
v 0.10625639 0.11046888 -0.82565967
v 0.10311206 0.10789299 -0.82209033
v 0.10596327 0.11305881 -0.83282983
v 0.10210944 0.11061571 -0.82746533
v 0.10640553 0.10917637 -0.82207983
v 0.10244243 0.10970599 -0.82567017
f 5 1 2
f 5 2 3
f 5 3 4
f 5 4 1
f 7 2 6
f 7 3 2
f 10 6 8
f 10 11 6
f 10 12 13
f 14 10 8
f 15 16 17
f 18 17 16
f 19 13 12
f 19 20 13
f 19 21 20
f 22 21 19
f 23 15 17
f 23 17 18
f 23 18 21
f 23 21 22
f 24 6 11
f 24 11 10
f 24 10 13
f 25 14 8
f 25 12 10
f 25 10 14
f 26 27 16
f 26 16 15
f 28 20 21
f 29 21 18
f 30 22 19
f 31 23 22
f 32 6 24
f 32 24 13
f 33 25 8
f 33 12 25
f 34 35 27
f 34 27 26
f 36 28 21
f 37 29 18
f 38 22 30
f 39 23 31
f 40 6 32
f 40 32 13
f 41 33 8
f 41 12 33
f 42 43 35
f 42 35 34
f 44 21 29
f 44 36 21
f 44 29 37
f 45 44 37
f 45 16 27
f 45 35 43
f 45 27 35
f 45 18 16
f 45 37 18
f 46 31 22
f 46 22 38
f 46 39 31
f 47 42 34
f 47 39 46
f 47 26 15
f 47 15 23
f 47 34 26
f 47 23 39
f 48 36 44
f 48 13 20
f 48 40 13
f 48 20 28
f 48 6 40
f 48 28 36
f 49 46 38
f 49 19 12
f 49 41 8
f 49 30 19
f 49 38 30
f 49 12 41
f 50 44 45
f 50 7 6
f 50 45 43
f 50 6 48
f 50 48 44
f 51 46 49
f 51 8 9
f 51 9 7
f 51 42 47
f 51 50 43
f 51 43 42
f 51 7 50
f 51 49 8
f 51 47 46
f 53 8 52
f 53 9 8
f 56 52 54
f 56 57 52
f 56 58 59
f 60 56 54
f 61 62 63
f 64 63 62
f 65 59 58
f 65 66 59
f 67 68 66
f 67 66 65
f 69 61 63
f 69 63 64
f 69 64 68
f 69 68 67
f 70 52 57
f 70 57 56
f 70 56 59
f 71 60 54
f 71 58 56
f 71 56 60
f 72 73 62
f 72 62 61
f 74 66 68
f 75 68 64
f 76 67 65
f 77 69 67
f 78 52 70
f 78 70 59
f 79 71 54
f 79 58 71
f 80 73 72
f 81 80 72
f 82 74 68
f 83 75 64
f 84 67 76
f 85 69 77
f 86 52 78
f 86 78 59
f 87 79 54
f 87 58 79
f 88 80 81
f 88 89 80
f 90 68 75
f 90 82 68
f 90 75 83
f 91 90 83
f 91 73 80
f 91 62 73
f 91 64 62
f 91 80 89
f 91 83 64
f 92 77 67
f 92 67 84
f 92 85 77
f 93 88 81
f 93 72 61
f 93 81 72
f 93 85 92
f 93 61 69
f 93 69 85
f 94 82 90
f 94 59 66
f 94 86 59
f 94 66 74
f 94 52 86
f 94 74 82
f 95 92 84
f 95 65 58
f 95 76 65
f 95 87 54
f 95 58 87
f 95 84 76
f 96 90 91
f 96 53 52
f 96 91 89
f 96 52 94
f 96 94 90
f 97 92 95
f 97 54 55
f 97 55 53
f 97 89 88
f 97 88 93
f 97 93 92
f 97 96 89
f 97 53 96
f 97 95 54
f 55 54 1
f 4 55 1
f 99 4 3
f 98 99 3
f 100 3 7
f 100 98 3
f 101 7 9
f 101 100 7
f 102 9 53
f 102 101 9
f 103 53 55
f 103 102 53
f 99 55 4
f 99 103 55
f 104 99 98
f 104 105 99
f 106 98 100
f 106 104 98
f 107 100 101
f 107 106 100
f 108 101 102
f 108 107 101
f 109 102 103
f 109 108 102
f 105 103 99
f 105 109 103
f 112 105 104
f 112 104 110
f 112 110 111
f 112 111 105
f 113 104 106
f 113 110 104
f 115 106 107
f 115 116 106
f 117 116 115
f 117 118 116
f 117 119 118
f 120 118 119
f 121 119 117
f 122 114 113
f 122 123 124
f 122 113 125
f 126 114 122
f 127 123 128
f 129 130 119
f 129 127 130
f 131 124 123
f 131 123 127
f 131 127 129
f 132 124 131
f 133 116 118
f 134 117 115
f 135 125 113
f 135 123 122
f 135 122 125
f 136 114 126
f 136 122 124
f 136 126 122
f 137 133 118
f 137 118 120
f 138 120 119
f 138 119 130
f 139 130 127
f 139 127 128
f 140 129 119
f 140 119 121
f 141 131 129
f 141 132 131
f 142 116 133
f 142 133 137
f 143 134 115
f 144 135 113
f 144 123 135
f 145 114 136
f 145 136 124
f 146 120 138
f 147 130 139
f 148 149 121
f 150 140 121
f 151 141 129
f 152 116 142
f 152 142 137
f 153 143 115
f 154 144 113
f 154 123 144
f 155 145 124
f 155 114 145
f 156 120 146
f 156 137 120
f 157 130 147
f 157 138 130
f 157 156 146
f 157 146 138
f 158 148 121
f 158 117 134
f 158 121 117
f 158 143 153
f 158 134 143
f 159 150 121
f 159 148 158
f 159 121 149
f 159 149 148
f 160 140 150
f 160 150 159
f 160 151 129
f 160 129 140
f 161 113 106
f 161 106 116
f 161 152 137
f 161 137 156
f 161 156 157
f 161 116 152
f 162 107 114
f 162 158 153
f 162 159 158
f 162 115 107
f 162 153 115
f 162 160 159
f 163 147 139
f 163 154 113
f 163 157 147
f 163 161 157
f 163 128 123
f 163 123 154
f 163 139 128
f 163 113 161
f 164 162 114
f 164 160 162
f 164 124 132
f 164 141 151
f 164 132 141
f 164 114 155
f 164 155 124
f 164 151 160
f 114 107 108
f 165 114 108
f 167 108 109
f 167 168 108
f 169 170 171
f 172 166 165
f 172 173 174
f 172 165 175
f 176 166 172
f 177 168 167
f 177 170 168
f 177 167 109
f 178 171 170
f 178 179 171
f 178 170 177
f 180 171 181
f 182 174 173
f 182 180 181
f 182 173 183
f 184 172 174
f 184 176 172
f 185 168 170
f 186 171 179
f 186 181 171
f 186 179 178
f 187 182 181
f 187 174 182
f 188 175 165
f 188 173 172
f 188 172 175
f 189 177 109
f 189 178 177
f 190 169 171
f 190 171 180
f 191 180 182
f 191 182 183
f 192 176 184
f 193 168 185
f 194 181 186
f 194 186 178
f 195 188 165
f 195 173 188
f 196 174 187
f 197 169 198
f 199 189 109
f 199 178 189
f 200 169 190
f 201 180 191
f 202 176 192
f 203 168 193
f 204 181 194
f 205 195 165
f 205 173 195
f 206 174 196
f 207 185 170
f 207 170 169
f 207 193 185
f 207 169 197
f 207 203 193
f 208 178 199
f 208 204 194
f 208 194 178
f 208 199 109
f 209 197 198
f 209 169 200
f 209 198 169
f 209 207 197
f 210 200 190
f 210 180 201
f 210 190 180
f 210 209 200
f 211 166 176
f 211 176 202
f 212 165 108
f 212 108 168
f 212 203 207
f 212 207 209
f 212 168 203
f 212 209 210
f 213 187 181
f 213 181 204
f 213 204 208
f 213 206 196
f 213 196 187
f 214 201 191
f 214 173 205
f 214 210 201
f 214 212 210
f 214 183 173
f 214 205 165
f 214 191 183
f 214 165 212
f 215 166 211
f 215 109 166
f 215 202 192
f 215 174 206
f 215 208 109
f 215 211 202
f 215 184 174
f 215 213 208
f 215 206 213
f 215 192 184
f 111 109 105
f 111 166 109
f 8 54 52
f 6 1 54
f 6 2 1
f 6 54 8
f 110 166 111
f 113 165 166
f 113 166 110
f 114 165 113
f 220 216 217
f 220 217 218
f 220 218 219
f 220 219 216
f 222 217 221
f 222 218 217
f 225 221 223
f 225 226 221
f 225 227 228
f 229 225 223
f 230 231 232
f 233 232 231
f 234 228 227
f 234 235 228
f 234 236 235
f 237 236 234
f 238 230 232
f 238 232 233
f 238 233 236
f 238 236 237
f 239 221 226
f 239 226 225
f 239 225 228
f 240 229 223
f 240 227 225
f 240 225 229
f 241 242 231
f 241 231 230
f 243 235 236
f 244 236 233
f 245 237 234
f 246 238 237
f 247 221 239
f 247 239 228
f 248 240 223
f 248 227 240
f 249 250 242
f 249 242 241
f 251 243 236
f 252 244 233
f 253 237 245
f 254 238 246
f 255 221 247
f 255 247 228
f 256 248 223
f 256 227 248
f 257 258 250
f 257 250 249
f 259 236 244
f 259 251 236
f 259 244 252
f 260 259 252
f 260 231 242
f 260 250 258
f 260 242 250
f 260 233 231
f 260 252 233
f 261 246 237
f 261 237 253
f 261 254 246
f 262 257 249
f 262 254 261
f 262 241 230
f 262 230 238
f 262 249 241
f 262 238 254
f 263 251 259
f 263 228 235
f 263 255 228
f 263 235 243
f 263 221 255
f 263 243 251
f 264 261 253
f 264 234 227
f 264 256 223
f 264 245 234
f 264 253 245
f 264 227 256
f 265 259 260
f 265 222 221
f 265 260 258
f 265 221 263
f 265 263 259
f 266 261 264
f 266 223 224
f 266 224 222
f 266 257 262
f 266 265 258
f 266 258 257
f 266 222 265
f 266 264 223
f 266 262 261
f 268 223 267
f 268 224 223
f 271 267 269
f 271 272 267
f 271 273 274
f 275 271 269
f 276 277 278
f 279 278 277
f 280 274 273
f 280 281 274
f 282 283 281
f 282 281 280
f 284 276 278
f 284 278 279
f 284 279 283
f 284 283 282
f 285 267 272
f 285 272 271
f 285 271 274
f 286 275 269
f 286 273 271
f 286 271 275
f 287 288 277
f 287 277 276
f 289 281 283
f 290 283 279
f 291 282 280
f 292 284 282
f 293 267 285
f 293 285 274
f 294 286 269
f 294 273 286
f 295 288 287
f 296 295 287
f 297 289 283
f 298 290 279
f 299 282 291
f 300 284 292
f 301 267 293
f 301 293 274
f 302 294 269
f 302 273 294
f 303 295 296
f 303 304 295
f 305 283 290
f 305 297 283
f 305 290 298
f 306 305 298
f 306 288 295
f 306 277 288
f 306 279 277
f 306 295 304
f 306 298 279
f 307 292 282
f 307 282 299
f 307 300 292
f 308 303 296
f 308 287 276
f 308 296 287
f 308 300 307
f 308 276 284
f 308 284 300
f 309 297 305
f 309 274 281
f 309 301 274
f 309 281 289
f 309 267 301
f 309 289 297
f 310 307 299
f 310 280 273
f 310 291 280
f 310 302 269
f 310 273 302
f 310 299 291
f 311 305 306
f 311 268 267
f 311 306 304
f 311 267 309
f 311 309 305
f 312 307 310
f 312 269 270
f 312 270 268
f 312 304 303
f 312 303 308
f 312 308 307
f 312 311 304
f 312 268 311
f 312 310 269
f 270 269 216
f 219 270 216
f 314 219 218
f 313 314 218
f 315 218 222
f 315 313 218
f 316 222 224
f 316 315 222
f 317 224 268
f 317 316 224
f 318 268 270
f 318 317 268
f 314 270 219
f 314 318 270
f 319 314 313
f 319 320 314
f 321 313 315
f 321 319 313
f 322 315 316
f 322 321 315
f 323 316 317
f 323 322 316
f 324 317 318
f 324 323 317
f 320 318 314
f 320 324 318
f 327 320 319
f 327 319 325
f 327 325 326
f 327 326 320
f 328 319 321
f 328 325 319
f 330 321 322
f 330 331 321
f 332 331 330
f 332 333 331
f 332 334 333
f 335 333 334
f 336 334 332
f 337 329 328
f 337 338 339
f 337 328 340
f 341 329 337
f 342 338 343
f 344 345 334
f 344 342 345
f 346 339 338
f 346 338 342
f 346 342 344
f 347 339 346
f 348 331 333
f 349 332 330
f 350 340 328
f 350 338 337
f 350 337 340
f 351 329 341
f 351 337 339
f 351 341 337
f 352 348 333
f 352 333 335
f 353 335 334
f 353 334 345
f 354 345 342
f 354 342 343
f 355 344 334
f 355 334 336
f 356 346 344
f 356 347 346
f 357 331 348
f 357 348 352
f 358 349 330
f 359 350 328
f 359 338 350
f 360 329 351
f 360 351 339
f 361 335 353
f 362 345 354
f 363 364 336
f 365 355 336
f 366 356 344
f 367 331 357
f 367 357 352
f 368 358 330
f 369 359 328
f 369 338 359
f 370 360 339
f 370 329 360
f 371 335 361
f 371 352 335
f 372 345 362
f 372 353 345
f 372 371 361
f 372 361 353
f 373 363 336
f 373 332 349
f 373 336 332
f 373 358 368
f 373 349 358
f 374 365 336
f 374 363 373
f 374 336 364
f 374 364 363
f 375 355 365
f 375 365 374
f 375 366 344
f 375 344 355
f 376 328 321
f 376 321 331
f 376 367 352
f 376 352 371
f 376 371 372
f 376 331 367
f 377 322 329
f 377 373 368
f 377 374 373
f 377 330 322
f 377 368 330
f 377 375 374
f 378 362 354
f 378 369 328
f 378 372 362
f 378 376 372
f 378 343 338
f 378 338 369
f 378 354 343
f 378 328 376
f 379 377 329
f 379 375 377
f 379 339 347
f 379 356 366
f 379 347 356
f 379 329 370
f 379 370 339
f 379 366 375
f 329 322 323
f 380 329 323
f 382 323 324
f 382 383 323
f 384 385 386
f 387 381 380
f 387 388 389
f 387 380 390
f 391 381 387
f 392 383 382
f 392 385 383
f 392 382 324
f 393 386 385
f 393 394 386
f 393 385 392
f 395 386 396
f 397 389 388
f 397 395 396
f 397 388 398
f 399 387 389
f 399 391 387
f 400 383 385
f 401 386 394
f 401 396 386
f 401 394 393
f 402 397 396
f 402 389 397
f 403 390 380
f 403 388 387
f 403 387 390
f 404 392 324
f 404 393 392
f 405 384 386
f 405 386 395
f 406 395 397
f 406 397 398
f 407 391 399
f 408 383 400
f 409 396 401
f 409 401 393
f 410 403 380
f 410 388 403
f 411 389 402
f 412 384 413
f 414 404 324
f 414 393 404
f 415 384 405
f 416 395 406
f 417 391 407
f 418 383 408
f 419 396 409
f 420 410 380
f 420 388 410
f 421 389 411
f 422 400 385
f 422 385 384
f 422 408 400
f 422 384 412
f 422 418 408
f 423 393 414
f 423 419 409
f 423 409 393
f 423 414 324
f 424 412 413
f 424 384 415
f 424 413 384
f 424 422 412
f 425 415 405
f 425 395 416
f 425 405 395
f 425 424 415
f 426 381 391
f 426 391 417
f 427 380 323
f 427 323 383
f 427 418 422
f 427 422 424
f 427 383 418
f 427 424 425
f 428 402 396
f 428 396 419
f 428 419 423
f 428 421 411
f 428 411 402
f 429 416 406
f 429 388 420
f 429 425 416
f 429 427 425
f 429 398 388
f 429 420 380
f 429 406 398
f 429 380 427
f 430 381 426
f 430 324 381
f 430 417 407
f 430 389 421
f 430 423 324
f 430 426 417
f 430 399 389
f 430 428 423
f 430 421 428
f 430 407 399
f 326 324 320
f 326 381 324
f 223 269 267
f 221 216 269
f 221 217 216
f 221 269 223
f 325 381 326
f 328 380 381
f 328 381 325
f 329 380 328
f 435 431 432
f 435 432 433
f 435 433 434
f 435 434 431
f 437 432 436
f 437 433 432
f 440 436 438
f 440 441 436
f 440 442 443
f 444 440 438
f 445 446 447
f 448 447 446
f 449 443 442
f 449 450 443
f 449 451 450
f 452 451 449
f 453 445 447
f 453 447 448
f 453 448 451
f 453 451 452
f 454 436 441
f 454 441 440
f 454 440 443
f 455 444 438
f 455 442 440
f 455 440 444
f 456 457 446
f 456 446 445
f 458 450 451
f 459 451 448
f 460 452 449
f 461 453 452
f 462 436 454
f 462 454 443
f 463 455 438
f 463 442 455
f 464 465 457
f 464 457 456
f 466 458 451
f 467 459 448
f 468 452 460
f 469 453 461
f 470 436 462
f 470 462 443
f 471 463 438
f 471 442 463
f 472 473 465
f 472 465 464
f 474 451 459
f 474 466 451
f 474 459 467
f 475 474 467
f 475 446 457
f 475 465 473
f 475 457 465
f 475 448 446
f 475 467 448
f 476 461 452
f 476 452 468
f 476 469 461
f 477 472 464
f 477 469 476
f 477 456 445
f 477 445 453
f 477 464 456
f 477 453 469
f 478 466 474
f 478 443 450
f 478 470 443
f 478 450 458
f 478 436 470
f 478 458 466
f 479 476 468
f 479 449 442
f 479 471 438
f 479 460 449
f 479 468 460
f 479 442 471
f 480 474 475
f 480 437 436
f 480 475 473
f 480 436 478
f 480 478 474
f 481 476 479
f 481 438 439
f 481 439 437
f 481 472 477
f 481 480 473
f 481 473 472
f 481 437 480
f 481 479 438
f 481 477 476
f 483 438 482
f 483 439 438
f 486 482 484
f 486 487 482
f 486 488 489
f 490 486 484
f 491 492 493
f 494 493 492
f 495 489 488
f 495 496 489
f 497 498 496
f 497 496 495
f 499 491 493
f 499 493 494
f 499 494 498
f 499 498 497
f 500 482 487
f 500 487 486
f 500 486 489
f 501 490 484
f 501 488 486
f 501 486 490
f 502 503 492
f 502 492 491
f 504 496 498
f 505 498 494
f 506 497 495
f 507 499 497
f 508 482 500
f 508 500 489
f 509 501 484
f 509 488 501
f 510 503 502
f 511 510 502
f 512 504 498
f 513 505 494
f 514 497 506
f 515 499 507
f 516 482 508
f 516 508 489
f 517 509 484
f 517 488 509
f 518 510 511
f 518 519 510
f 520 498 505
f 520 512 498
f 520 505 513
f 521 520 513
f 521 503 510
f 521 492 503
f 521 494 492
f 521 510 519
f 521 513 494
f 522 507 497
f 522 497 514
f 522 515 507
f 523 518 511
f 523 502 491
f 523 511 502
f 523 515 522
f 523 491 499
f 523 499 515
f 524 512 520
f 524 489 496
f 524 516 489
f 524 496 504
f 524 482 516
f 524 504 512
f 525 522 514
f 525 495 488
f 525 506 495
f 525 517 484
f 525 488 517
f 525 514 506
f 526 520 521
f 526 483 482
f 526 521 519
f 526 482 524
f 526 524 520
f 527 522 525
f 527 484 485
f 527 485 483
f 527 519 518
f 527 518 523
f 527 523 522
f 527 526 519
f 527 483 526
f 527 525 484
f 485 484 431
f 434 485 431
f 529 434 433
f 528 529 433
f 530 433 437
f 530 528 433
f 531 437 439
f 531 530 437
f 532 439 483
f 532 531 439
f 533 483 485
f 533 532 483
f 529 485 434
f 529 533 485
f 534 529 528
f 534 535 529
f 536 528 530
f 536 534 528
f 537 530 531
f 537 536 530
f 538 531 532
f 538 537 531
f 539 532 533
f 539 538 532
f 535 533 529
f 535 539 533
f 542 535 534
f 542 534 540
f 542 540 541
f 542 541 535
f 543 534 536
f 543 540 534
f 545 536 537
f 545 546 536
f 547 546 545
f 547 548 546
f 547 549 548
f 550 548 549
f 551 549 547
f 552 544 543
f 552 553 554
f 552 543 555
f 556 544 552
f 557 553 558
f 559 560 549
f 559 557 560
f 561 554 553
f 561 553 557
f 561 557 559
f 562 554 561
f 563 546 548
f 564 547 545
f 565 555 543
f 565 553 552
f 565 552 555
f 566 544 556
f 566 552 554
f 566 556 552
f 567 563 548
f 567 548 550
f 568 550 549
f 568 549 560
f 569 560 557
f 569 557 558
f 570 559 549
f 570 549 551
f 571 561 559
f 571 562 561
f 572 546 563
f 572 563 567
f 573 564 545
f 574 565 543
f 574 553 565
f 575 544 566
f 575 566 554
f 576 550 568
f 577 560 569
f 578 579 551
f 580 570 551
f 581 571 559
f 582 546 572
f 582 572 567
f 583 573 545
f 584 574 543
f 584 553 574
f 585 575 554
f 585 544 575
f 586 550 576
f 586 567 550
f 587 560 577
f 587 568 560
f 587 586 576
f 587 576 568
f 588 578 551
f 588 547 564
f 588 551 547
f 588 573 583
f 588 564 573
f 589 580 551
f 589 578 588
f 589 551 579
f 589 579 578
f 590 570 580
f 590 580 589
f 590 581 559
f 590 559 570
f 591 543 536
f 591 536 546
f 591 582 567
f 591 567 586
f 591 586 587
f 591 546 582
f 592 537 544
f 592 588 583
f 592 589 588
f 592 545 537
f 592 583 545
f 592 590 589
f 593 577 569
f 593 584 543
f 593 587 577
f 593 591 587
f 593 558 553
f 593 553 584
f 593 569 558
f 593 543 591
f 594 592 544
f 594 590 592
f 594 554 562
f 594 571 581
f 594 562 571
f 594 544 585
f 594 585 554
f 594 581 590
f 544 537 538
f 595 544 538
f 597 538 539
f 597 598 538
f 599 600 601
f 602 596 595
f 602 603 604
f 602 595 605
f 606 596 602
f 607 598 597
f 607 600 598
f 607 597 539
f 608 601 600
f 608 609 601
f 608 600 607
f 610 601 611
f 612 604 603
f 612 610 611
f 612 603 613
f 614 602 604
f 614 606 602
f 615 598 600
f 616 601 609
f 616 611 601
f 616 609 608
f 617 612 611
f 617 604 612
f 618 605 595
f 618 603 602
f 618 602 605
f 619 607 539
f 619 608 607
f 620 599 601
f 620 601 610
f 621 610 612
f 621 612 613
f 622 606 614
f 623 598 615
f 624 611 616
f 624 616 608
f 625 618 595
f 625 603 618
f 626 604 617
f 627 599 628
f 629 619 539
f 629 608 619
f 630 599 620
f 631 610 621
f 632 606 622
f 633 598 623
f 634 611 624
f 635 625 595
f 635 603 625
f 636 604 626
f 637 615 600
f 637 600 599
f 637 623 615
f 637 599 627
f 637 633 623
f 638 608 629
f 638 634 624
f 638 624 608
f 638 629 539
f 639 627 628
f 639 599 630
f 639 628 599
f 639 637 627
f 640 630 620
f 640 610 631
f 640 620 610
f 640 639 630
f 641 596 606
f 641 606 632
f 642 595 538
f 642 538 598
f 642 633 637
f 642 637 639
f 642 598 633
f 642 639 640
f 643 617 611
f 643 611 634
f 643 634 638
f 643 636 626
f 643 626 617
f 644 631 621
f 644 603 635
f 644 640 631
f 644 642 640
f 644 613 603
f 644 635 595
f 644 621 613
f 644 595 642
f 645 596 641
f 645 539 596
f 645 632 622
f 645 604 636
f 645 638 539
f 645 641 632
f 645 614 604
f 645 643 638
f 645 636 643
f 645 622 614
f 541 539 535
f 541 596 539
f 438 484 482
f 436 431 484
f 436 432 431
f 436 484 438
f 540 596 541
f 543 595 596
f 543 596 540
f 544 595 543
f 650 646 647
f 650 647 648
f 650 648 649
f 650 649 646
f 652 647 651
f 652 648 647
f 655 651 653
f 655 656 651
f 655 657 658
f 659 655 653
f 660 661 662
f 663 662 661
f 664 658 657
f 664 665 658
f 664 666 665
f 667 666 664
f 668 660 662
f 668 662 663
f 668 663 666
f 668 666 667
f 669 651 656
f 669 656 655
f 669 655 658
f 670 659 653
f 670 657 655
f 670 655 659
f 671 672 661
f 671 661 660
f 673 665 666
f 674 666 663
f 675 667 664
f 676 668 667
f 677 651 669
f 677 669 658
f 678 670 653
f 678 657 670
f 679 680 672
f 679 672 671
f 681 673 666
f 682 674 663
f 683 667 675
f 684 668 676
f 685 651 677
f 685 677 658
f 686 678 653
f 686 657 678
f 687 688 680
f 687 680 679
f 689 666 674
f 689 681 666
f 689 674 682
f 690 689 682
f 690 661 672
f 690 680 688
f 690 672 680
f 690 663 661
f 690 682 663
f 691 676 667
f 691 667 683
f 691 684 676
f 692 687 679
f 692 684 691
f 692 671 660
f 692 660 668
f 692 679 671
f 692 668 684
f 693 681 689
f 693 658 665
f 693 685 658
f 693 665 673
f 693 651 685
f 693 673 681
f 694 691 683
f 694 664 657
f 694 686 653
f 694 675 664
f 694 683 675
f 694 657 686
f 695 689 690
f 695 652 651
f 695 690 688
f 695 651 693
f 695 693 689
f 696 691 694
f 696 653 654
f 696 654 652
f 696 687 692
f 696 695 688
f 696 688 687
f 696 652 695
f 696 694 653
f 696 692 691
f 698 653 697
f 698 654 653
f 701 697 699
f 701 702 697
f 701 703 704
f 705 701 699
f 706 707 708
f 709 708 707
f 710 704 703
f 710 711 704
f 712 713 711
f 712 711 710
f 714 706 708
f 714 708 709
f 714 709 713
f 714 713 712
f 715 697 702
f 715 702 701
f 715 701 704
f 716 705 699
f 716 703 701
f 716 701 705
f 717 718 707
f 717 707 706
f 719 711 713
f 720 713 709
f 721 712 710
f 722 714 712
f 723 697 715
f 723 715 704
f 724 716 699
f 724 703 716
f 725 718 717
f 726 725 717
f 727 719 713
f 728 720 709
f 729 712 721
f 730 714 722
f 731 697 723
f 731 723 704
f 732 724 699
f 732 703 724
f 733 725 726
f 733 734 725
f 735 713 720
f 735 727 713
f 735 720 728
f 736 735 728
f 736 718 725
f 736 707 718
f 736 709 707
f 736 725 734
f 736 728 709
f 737 722 712
f 737 712 729
f 737 730 722
f 738 733 726
f 738 717 706
f 738 726 717
f 738 730 737
f 738 706 714
f 738 714 730
f 739 727 735
f 739 704 711
f 739 731 704
f 739 711 719
f 739 697 731
f 739 719 727
f 740 737 729
f 740 710 703
f 740 721 710
f 740 732 699
f 740 703 732
f 740 729 721
f 741 735 736
f 741 698 697
f 741 736 734
f 741 697 739
f 741 739 735
f 742 737 740
f 742 699 700
f 742 700 698
f 742 734 733
f 742 733 738
f 742 738 737
f 742 741 734
f 742 698 741
f 742 740 699
f 700 699 646
f 649 700 646
f 744 649 648
f 743 744 648
f 745 648 652
f 745 743 648
f 746 652 654
f 746 745 652
f 747 654 698
f 747 746 654
f 748 698 700
f 748 747 698
f 744 700 649
f 744 748 700
f 749 744 743
f 749 750 744
f 751 743 745
f 751 749 743
f 752 745 746
f 752 751 745
f 753 746 747
f 753 752 746
f 754 747 748
f 754 753 747
f 750 748 744
f 750 754 748
f 757 750 749
f 757 749 755
f 757 755 756
f 757 756 750
f 758 749 751
f 758 755 749
f 760 751 752
f 760 761 751
f 762 761 760
f 762 763 761
f 762 764 763
f 765 763 764
f 766 764 762
f 767 759 758
f 767 768 769
f 767 758 770
f 771 759 767
f 772 768 773
f 774 775 764
f 774 772 775
f 776 769 768
f 776 768 772
f 776 772 774
f 777 769 776
f 778 761 763
f 779 762 760
f 780 770 758
f 780 768 767
f 780 767 770
f 781 759 771
f 781 767 769
f 781 771 767
f 782 778 763
f 782 763 765
f 783 765 764
f 783 764 775
f 784 775 772
f 784 772 773
f 785 774 764
f 785 764 766
f 786 776 774
f 786 777 776
f 787 761 778
f 787 778 782
f 788 779 760
f 789 780 758
f 789 768 780
f 790 759 781
f 790 781 769
f 791 765 783
f 792 775 784
f 793 794 766
f 795 785 766
f 796 786 774
f 797 761 787
f 797 787 782
f 798 788 760
f 799 789 758
f 799 768 789
f 800 790 769
f 800 759 790
f 801 765 791
f 801 782 765
f 802 775 792
f 802 783 775
f 802 801 791
f 802 791 783
f 803 793 766
f 803 762 779
f 803 766 762
f 803 788 798
f 803 779 788
f 804 795 766
f 804 793 803
f 804 766 794
f 804 794 793
f 805 785 795
f 805 795 804
f 805 796 774
f 805 774 785
f 806 758 751
f 806 751 761
f 806 797 782
f 806 782 801
f 806 801 802
f 806 761 797
f 807 752 759
f 807 803 798
f 807 804 803
f 807 760 752
f 807 798 760
f 807 805 804
f 808 792 784
f 808 799 758
f 808 802 792
f 808 806 802
f 808 773 768
f 808 768 799
f 808 784 773
f 808 758 806
f 809 807 759
f 809 805 807
f 809 769 777
f 809 786 796
f 809 777 786
f 809 759 800
f 809 800 769
f 809 796 805
f 759 752 753
f 810 759 753
f 812 753 754
f 812 813 753
f 814 815 816
f 817 811 810
f 817 818 819
f 817 810 820
f 821 811 817
f 822 813 812
f 822 815 813
f 822 812 754
f 823 816 815
f 823 824 816
f 823 815 822
f 825 816 826
f 827 819 818
f 827 825 826
f 827 818 828
f 829 817 819
f 829 821 817
f 830 813 815
f 831 816 824
f 831 826 816
f 831 824 823
f 832 827 826
f 832 819 827
f 833 820 810
f 833 818 817
f 833 817 820
f 834 822 754
f 834 823 822
f 835 814 816
f 835 816 825
f 836 825 827
f 836 827 828
f 837 821 829
f 838 813 830
f 839 826 831
f 839 831 823
f 840 833 810
f 840 818 833
f 841 819 832
f 842 814 843
f 844 834 754
f 844 823 834
f 845 814 835
f 846 825 836
f 847 821 837
f 848 813 838
f 849 826 839
f 850 840 810
f 850 818 840
f 851 819 841
f 852 830 815
f 852 815 814
f 852 838 830
f 852 814 842
f 852 848 838
f 853 823 844
f 853 849 839
f 853 839 823
f 853 844 754
f 854 842 843
f 854 814 845
f 854 843 814
f 854 852 842
f 855 845 835
f 855 825 846
f 855 835 825
f 855 854 845
f 856 811 821
f 856 821 847
f 857 810 753
f 857 753 813
f 857 848 852
f 857 852 854
f 857 813 848
f 857 854 855
f 858 832 826
f 858 826 849
f 858 849 853
f 858 851 841
f 858 841 832
f 859 846 836
f 859 818 850
f 859 855 846
f 859 857 855
f 859 828 818
f 859 850 810
f 859 836 828
f 859 810 857
f 860 811 856
f 860 754 811
f 860 847 837
f 860 819 851
f 860 853 754
f 860 856 847
f 860 829 819
f 860 858 853
f 860 851 858
f 860 837 829
f 756 754 750
f 756 811 754
f 653 699 697
f 651 646 699
f 651 647 646
f 651 699 653
f 755 811 756
f 758 810 811
f 758 811 755
f 759 810 758

