# https://github.com/mikedh/trimesh
v -0.10469646 0.10400842 -1.14000000
v -0.10836599 0.10033888 -1.10500000
v -0.12642699 0.12011998 -1.09500000
v -0.12361750 0.12292946 -1.13000000
v -0.10836599 0.10033888 -0.87200000
v -0.12642699 0.12011998 -0.91100000
v -0.10475379 0.10395108 -0.83800000
v -0.12367484 0.12287213 -0.87700000
v -0.10395108 0.10475379 -0.83800000
v -0.12287213 0.12367484 -0.87700000
v -0.10033888 0.10836599 -0.87200000
v -0.12011998 0.12642699 -0.91100000
v -0.10033888 0.10836599 -1.10500000
v -0.12011998 0.12642699 -1.09500000
v -0.10400842 0.10469646 -1.14000000
v -0.12292946 0.12361750 -1.13000000
v -0.16140226 0.15853543 -1.04500000
v -0.16031287 0.15962483 -1.08000000
v -0.16140226 0.15853543 -0.97700000
v -0.16037020 0.15956749 -0.94300000
v -0.15956749 0.16037020 -0.94300000
v -0.15853543 0.16140226 -0.97700000
v -0.15853543 0.16140226 -1.04500000
v -0.15962483 0.16031287 -1.08000000
f 3 1 2
f 3 4 1
f 6 2 5
f 6 3 2
f 8 5 7
f 8 6 5
f 10 7 9
f 10 8 7
f 12 9 11
f 12 10 9
f 14 11 13
f 14 12 11
f 16 13 15
f 16 14 13
f 4 15 1
f 4 16 15
f 17 4 3
f 17 18 4
f 19 3 6
f 19 17 3
f 20 6 8
f 20 19 6
f 21 8 10
f 21 20 8
f 22 10 12
f 22 21 10
f 23 12 14
f 23 22 12
f 24 14 16
f 24 23 14
f 18 16 4
f 18 24 16
f 13 1 15
f 2 1 13
f 11 2 13
f 5 2 11
f 7 11 9
f 7 5 11
f 17 24 18
f 17 23 24
f 19 22 23
f 19 23 17
f 21 22 19
f 20 21 19

