# https://github.com/mikedh/trimesh
v 0.01376076 -0.00445973 0.01376076
v 0.01291318 -0.00445973 0.01455908
v 0.01201937 -0.00445973 0.01530528
v 0.01108254 -0.00445973 0.01599670
v 0.01010604 -0.00445973 0.01663085
v 0.00909335 -0.00445973 0.01720546
v 0.00804812 -0.00445973 0.01771849
v 0.00697407 -0.00445973 0.01816809
v 0.00587507 -0.00445973 0.01855265
v 0.00475502 -0.00445973 0.01887079
v 0.00361796 -0.00445973 0.01912139
v 0.00246795 -0.00445973 0.01930353
v 0.00130910 -0.00445973 0.01941657
v 0.00014556 -0.00445973 0.01946011
v -0.00101849 -0.00445973 0.01943398
v -0.00217890 -0.00445973 0.01933829
v -0.00333151 -0.00445973 0.01917337
v -0.00447220 -0.00445973 0.01893981
v -0.00559687 -0.00445973 0.01863846
v -0.00670151 -0.00445973 0.01827038
v -0.00778216 -0.00445973 0.01783690
v -0.00883495 -0.00445973 0.01733957
v -0.00985612 -0.00445973 0.01678017
v -0.01084200 -0.00445973 0.01616070
v -0.01178907 -0.00445973 0.01548337
v -0.01269394 -0.00445973 0.01475063
v -0.01355337 -0.00445973 0.01396507
v -0.01436428 -0.00445973 0.01312953
v -0.01512377 -0.00445973 0.01224699
v -0.01582912 -0.00445973 0.01132060
v -0.01647781 -0.00445973 0.01035369
v -0.01706751 -0.00445973 0.00934972
v -0.01759611 -0.00445973 0.00831228
v -0.01806173 -0.00445973 0.00724508
v -0.01846268 -0.00445973 0.00615194
v -0.01879755 -0.00445973 0.00503679
v -0.01906512 -0.00445973 0.00390360
v -0.01926445 -0.00445973 0.00275644
v -0.01939482 -0.00445973 0.00159941
v -0.01945576 -0.00445973 0.00043666
v -0.01944705 -0.00445973 -0.00072766
v -0.01936872 -0.00445973 -0.00188937
v -0.01922106 -0.00445973 -0.00304432
v -0.01900460 -0.00445973 -0.00418837
v -0.01872010 -0.00445973 -0.00531742
v -0.01836859 -0.00445973 -0.00642745
v -0.01795132 -0.00445973 -0.00751446
v -0.01746980 -0.00445973 -0.00857457
v -0.01692573 -0.00445973 -0.00960399
v -0.01632108 -0.00445973 -0.01059903
v -0.01565800 -0.00445973 -0.01155613
v -0.01493887 -0.00445973 -0.01247186
v -0.01416626 -0.00445973 -0.01334294
v -0.01334294 -0.00445973 -0.01416626
v -0.01247186 -0.00445973 -0.01493887
v -0.01155613 -0.00445973 -0.01565800
v -0.01059903 -0.00445973 -0.01632108
v -0.00960399 -0.00445973 -0.01692573
v -0.00857457 -0.00445973 -0.01746980
v -0.00751446 -0.00445973 -0.01795132
v -0.00642745 -0.00445973 -0.01836859
v -0.00531742 -0.00445973 -0.01872010
v -0.00418837 -0.00445973 -0.01900460
v -0.00304432 -0.00445973 -0.01922106
v -0.00188937 -0.00445973 -0.01936872
v -0.00072766 -0.00445973 -0.01944705
v 0.00043666 -0.00445973 -0.01945576
v 0.00159941 -0.00445973 -0.01939482
v 0.00275644 -0.00445973 -0.01926445
v 0.00390360 -0.00445973 -0.01906512
v 0.00503679 -0.00445973 -0.01879755
v 0.00615194 -0.00445973 -0.01846268
v 0.00724508 -0.00445973 -0.01806173
v 0.00831228 -0.00445973 -0.01759611
v 0.00934972 -0.00445973 -0.01706751
v 0.01035369 -0.00445973 -0.01647781
v 0.01132060 -0.00445973 -0.01582912
v 0.01224699 -0.00445973 -0.01512377
v 0.01312953 -0.00445973 -0.01436428
v 0.01396507 -0.00445973 -0.01355337
v 0.01475063 -0.00445973 -0.01269394
v 0.01548337 -0.00445973 -0.01178907
v 0.01616070 -0.00445973 -0.01084200
v 0.01678017 -0.00445973 -0.00985612
v 0.01733957 -0.00445973 -0.00883495
v 0.01783690 -0.00445973 -0.00778216
v 0.01827038 -0.00445973 -0.00670151
v 0.01863846 -0.00445973 -0.00559687
v 0.01893981 -0.00445973 -0.00447220
v 0.01917337 -0.00445973 -0.00333151
v 0.01933829 -0.00445973 -0.00217890
v 0.01943398 -0.00445973 -0.00101849
v 0.01946011 -0.00445973 0.00014556
v 0.01941657 -0.00445973 0.00130910
v 0.01930353 -0.00445973 0.00246795
v 0.01912139 -0.00445973 0.00361796
v 0.01887079 -0.00445973 0.00475502
v 0.01855265 -0.00445973 0.00587507
v 0.01816809 -0.00445973 0.00697407
v 0.01771849 -0.00445973 0.00804812
v 0.01720546 -0.00445973 0.00909335
v 0.01663085 -0.00445973 0.01010604
v 0.01599670 -0.00445973 0.01108254
v 0.01530528 -0.00445973 0.01201937
v 0.01455908 -0.00445973 0.01291318
v 0.01376076 -0.00851404 0.01376076
v 0.01291318 -0.00851404 0.01455908
v 0.01201937 -0.00851404 0.01530528
v 0.01108254 -0.00851404 0.01599670
v 0.01010604 -0.00851404 0.01663085
v 0.00909335 -0.00851404 0.01720546
v 0.00804812 -0.00851404 0.01771849
v 0.00697407 -0.00851404 0.01816809
v 0.00587507 -0.00851404 0.01855265
v 0.00475502 -0.00851404 0.01887079
v 0.00361796 -0.00851404 0.01912139
v 0.00246795 -0.00851404 0.01930353
v 0.00130910 -0.00851404 0.01941657
v 0.00014556 -0.00851404 0.01946011
v -0.00101849 -0.00851404 0.01943398
v -0.00217890 -0.00851404 0.01933829
v -0.00333151 -0.00851404 0.01917337
v -0.00447220 -0.00851404 0.01893981
v -0.00559687 -0.00851404 0.01863846
v -0.00670151 -0.00851404 0.01827038
v -0.00778216 -0.00851404 0.01783690
v -0.00883495 -0.00851404 0.01733957
v -0.00985612 -0.00851404 0.01678017
v -0.01084200 -0.00851404 0.01616070
v -0.01178907 -0.00851404 0.01548337
v -0.01269394 -0.00851404 0.01475063
v -0.01355337 -0.00851404 0.01396507
v -0.01436428 -0.00851404 0.01312953
v -0.01512377 -0.00851404 0.01224699
v -0.01582912 -0.00851404 0.01132060
v -0.01647781 -0.00851404 0.01035369
v -0.01706751 -0.00851404 0.00934972
v -0.01759611 -0.00851404 0.00831228
v -0.01806173 -0.00851404 0.00724508
v -0.01846268 -0.00851404 0.00615194
v -0.01879755 -0.00851404 0.00503679
v -0.01906512 -0.00851404 0.00390360
v -0.01926445 -0.00851404 0.00275644
v -0.01939482 -0.00851404 0.00159941
v -0.01945576 -0.00851404 0.00043666
v -0.01944705 -0.00851404 -0.00072766
v -0.01936872 -0.00851404 -0.00188937
v -0.01922106 -0.00851404 -0.00304432
v -0.01900460 -0.00851404 -0.00418837
v -0.01872010 -0.00851404 -0.00531742
v -0.01836859 -0.00851404 -0.00642745
v -0.01795132 -0.00851404 -0.00751446
v -0.01746980 -0.00851404 -0.00857457
v -0.01692573 -0.00851404 -0.00960399
v -0.01632108 -0.00851404 -0.01059903
v -0.01565800 -0.00851404 -0.01155613
v -0.01493887 -0.00851404 -0.01247186
v -0.01416626 -0.00851404 -0.01334294
v -0.01334294 -0.00851404 -0.01416626
v -0.01247186 -0.00851404 -0.01493887
v -0.01155613 -0.00851404 -0.01565800
v -0.01059903 -0.00851404 -0.01632108
v -0.00960399 -0.00851404 -0.01692573
v -0.00857457 -0.00851404 -0.01746980
v -0.00751446 -0.00851404 -0.01795132
v -0.00642745 -0.00851404 -0.01836859
v -0.00531742 -0.00851404 -0.01872010
v -0.00418837 -0.00851404 -0.01900460
v -0.00304432 -0.00851404 -0.01922106
v -0.00188937 -0.00851404 -0.01936872
v -0.00072766 -0.00851404 -0.01944705
v 0.00043666 -0.00851404 -0.01945576
v 0.00159941 -0.00851404 -0.01939482
v 0.00275644 -0.00851404 -0.01926445
v 0.00390360 -0.00851404 -0.01906512
v 0.00503679 -0.00851404 -0.01879755
v 0.00615194 -0.00851404 -0.01846268
v 0.00724508 -0.00851404 -0.01806173
v 0.00831228 -0.00851404 -0.01759611
v 0.00934972 -0.00851404 -0.01706751
v 0.01035369 -0.00851404 -0.01647781
v 0.01132060 -0.00851404 -0.01582912
v 0.01224699 -0.00851404 -0.01512377
v 0.01312953 -0.00851404 -0.01436428
v 0.01396507 -0.00851404 -0.01355337
v 0.01475063 -0.00851404 -0.01269394
v 0.01548337 -0.00851404 -0.01178907
v 0.01616070 -0.00851404 -0.01084200
v 0.01678017 -0.00851404 -0.00985612
v 0.01733957 -0.00851404 -0.00883495
v 0.01783690 -0.00851404 -0.00778216
v 0.01827038 -0.00851404 -0.00670151
v 0.01863846 -0.00851404 -0.00559687
v 0.01893981 -0.00851404 -0.00447220
v 0.01917337 -0.00851404 -0.00333151
v 0.01933829 -0.00851404 -0.00217890
v 0.01943398 -0.00851404 -0.00101849
v 0.01946011 -0.00851404 0.00014556
v 0.01941657 -0.00851404 0.00130910
v 0.01930353 -0.00851404 0.00246795
v 0.01912139 -0.00851404 0.00361796
v 0.01887079 -0.00851404 0.00475502
v 0.01855265 -0.00851404 0.00587507
v 0.01816809 -0.00851404 0.00697407
v 0.01771849 -0.00851404 0.00804812
v 0.01720546 -0.00851404 0.00909335
v 0.01663085 -0.00851404 0.01010604
v 0.01599670 -0.00851404 0.01108254
v 0.01530528 -0.00851404 0.01201937
v 0.01455908 -0.00851404 0.01291318
f 2 106 1
f 2 107 106
f 3 108 107
f 3 107 2
f 4 109 108
f 4 108 3
f 5 110 109
f 5 109 4
f 6 111 110
f 6 110 5
f 7 112 111
f 7 111 6
f 8 113 112
f 8 112 7
f 9 114 113
f 9 113 8
f 10 115 114
f 10 114 9
f 11 116 115
f 11 115 10
f 12 117 116
f 12 118 117
f 12 116 11
f 13 118 12
f 13 119 118
f 14 119 13
f 15 120 119
f 15 121 120
f 15 119 14
f 16 121 15
f 17 122 121
f 17 121 16
f 18 123 122
f 18 124 123
f 18 122 17
f 19 124 18
f 20 125 124
f 20 126 125
f 20 124 19
f 21 126 20
f 22 127 126
f 22 128 127
f 22 126 21
f 23 128 22
f 24 128 23
f 24 129 128
f 24 130 129
f 25 130 24
f 26 130 25
f 26 131 130
f 26 132 131
f 27 132 26
f 28 132 27
f 28 133 132
f 28 134 133
f 29 134 28
f 30 134 29
f 30 135 134
f 30 136 135
f 31 136 30
f 32 137 136
f 32 136 31
f 33 138 137
f 33 139 138
f 33 137 32
f 34 139 33
f 35 140 139
f 35 141 140
f 35 139 34
f 36 141 35
f 37 142 141
f 37 143 142
f 37 141 36
f 38 143 37
f 39 144 143
f 39 143 38
f 40 145 144
f 40 144 39
f 41 146 145
f 41 145 40
f 42 147 146
f 42 146 41
f 43 148 147
f 43 149 148
f 43 147 42
f 44 150 149
f 44 149 43
f 45 150 44
f 46 151 150
f 46 152 151
f 46 150 45
f 47 152 46
f 48 153 152
f 48 154 153
f 48 152 47
f 49 154 48
f 49 155 154
f 50 155 49
f 51 155 50
f 51 156 155
f 52 156 51
f 52 157 156
f 53 157 52
f 53 158 157
f 54 158 53
f 54 159 158
f 55 159 54
f 55 160 159
f 56 160 55
f 56 161 160
f 57 161 56
f 57 162 161
f 57 163 162
f 58 163 57
f 59 163 58
f 59 164 163
f 60 164 59
f 60 165 164
f 60 166 165
f 61 166 60
f 62 166 61
f 62 167 166
f 63 167 62
f 63 168 167
f 64 168 63
f 64 169 168
f 65 169 64
f 65 170 169
f 65 171 170
f 66 172 171
f 66 171 65
f 67 172 66
f 68 173 172
f 68 172 67
f 69 174 173
f 69 175 174
f 69 173 68
f 70 175 69
f 71 176 175
f 71 177 176
f 71 175 70
f 72 177 71
f 73 177 72
f 73 178 177
f 73 179 178
f 74 179 73
f 75 179 74
f 75 180 179
f 76 180 75
f 76 181 180
f 77 181 76
f 77 182 181
f 77 183 182
f 78 183 77
f 79 183 78
f 79 184 183
f 79 185 184
f 80 185 79
f 80 186 185
f 81 186 80
f 81 187 186
f 82 187 81
f 82 188 187
f 83 188 82
f 84 188 83
f 84 189 188
f 85 189 84
f 85 190 189
f 85 191 190
f 86 191 85
f 86 192 191
f 87 192 86
f 87 193 192
f 88 193 87
f 88 194 193
f 89 194 88
f 89 195 194
f 90 195 89
f 91 195 90
f 91 196 195
f 91 197 196
f 92 197 91
f 93 197 92
f 93 198 197
f 93 199 198
f 94 199 93
f 94 200 199
f 95 200 94
f 95 201 200
f 96 201 95
f 97 202 201
f 97 203 202
f 97 201 96
f 98 203 97
f 99 204 203
f 99 203 98
f 99 205 204
f 100 206 205
f 100 205 99
f 101 206 100
f 102 207 206
f 102 208 207
f 102 206 101
f 103 208 102
f 104 209 208
f 104 210 209
f 104 208 103
f 105 210 104
f 1 106 210
f 1 210 105
f 65 67 66
f 63 65 64
f 62 67 65
f 62 65 63
f 62 68 67
f 62 69 68
f 74 72 71
f 74 73 72
f 58 60 59
f 58 61 60
f 76 75 74
f 56 69 62
f 56 61 58
f 56 58 57
f 56 62 61
f 56 70 69
f 56 71 70
f 79 74 71
f 79 76 74
f 79 77 76
f 79 78 77
f 53 55 54
f 81 80 79
f 83 82 81
f 50 52 51
f 84 83 81
f 49 71 56
f 49 53 52
f 49 56 55
f 49 55 53
f 49 52 50
f 85 84 81
f 86 85 81
f 45 47 46
f 44 48 47
f 44 47 45
f 90 79 71
f 90 71 49
f 90 81 79
f 90 86 81
f 90 87 86
f 90 88 87
f 90 89 88
f 43 49 48
f 43 48 44
f 40 42 41
f 95 91 90
f 95 92 91
f 95 93 92
f 95 94 93
f 37 39 38
f 37 40 39
f 98 95 90
f 98 96 95
f 98 97 96
f 35 42 40
f 35 40 37
f 35 37 36
f 35 43 42
f 35 49 43
f 100 99 98
f 31 33 32
f 31 34 33
f 30 35 34
f 30 34 31
f 104 103 102
f 105 102 101
f 105 104 102
f 105 101 100
f 28 30 29
f 1 100 98
f 1 105 100
f 26 28 27
f 3 2 1
f 4 98 90
f 4 1 98
f 4 3 1
f 23 25 24
f 23 26 25
f 23 30 28
f 23 28 26
f 7 5 4
f 7 6 5
f 8 7 4
f 9 8 4
f 10 35 30
f 10 49 35
f 10 4 90
f 10 90 49
f 10 30 23
f 10 9 4
f 18 20 19
f 18 21 20
f 18 22 21
f 18 23 22
f 16 18 17
f 16 23 18
f 13 12 11
f 14 23 16
f 14 11 10
f 14 13 11
f 14 16 15
f 14 10 23
f 170 171 172
f 168 169 170
f 167 170 172
f 167 168 170
f 167 172 173
f 167 173 174
f 179 176 177
f 179 177 178
f 163 164 165
f 163 165 166
f 181 179 180
f 161 167 174
f 161 163 166
f 161 162 163
f 161 166 167
f 161 174 175
f 161 175 176
f 184 176 179
f 184 179 181
f 184 181 182
f 184 182 183
f 158 159 160
f 186 184 185
f 188 186 187
f 155 156 157
f 189 186 188
f 154 161 176
f 154 157 158
f 154 160 161
f 154 158 160
f 154 155 157
f 190 186 189
f 191 186 190
f 150 151 152
f 149 152 153
f 149 150 152
f 195 176 184
f 195 154 176
f 195 184 186
f 195 186 191
f 195 191 192
f 195 192 193
f 195 193 194
f 148 153 154
f 148 149 153
f 145 146 147
f 200 195 196
f 200 196 197
f 200 197 198
f 200 198 199
f 142 143 144
f 142 144 145
f 203 195 200
f 203 200 201
f 203 201 202
f 140 145 147
f 140 142 145
f 140 141 142
f 140 147 148
f 140 148 154
f 205 203 204
f 136 137 138
f 136 138 139
f 135 139 140
f 135 136 139
f 209 207 208
f 210 206 207
f 210 207 209
f 210 205 206
f 133 134 135
f 106 203 205
f 106 205 210
f 131 132 133
f 108 106 107
f 109 195 203
f 109 203 106
f 109 106 108
f 128 129 130
f 128 130 131
f 128 133 135
f 128 131 133
f 112 109 110
f 112 110 111
f 113 109 112
f 114 109 113
f 115 135 140
f 115 140 154
f 115 195 109
f 115 154 195
f 115 128 135
f 115 109 114
f 123 124 125
f 123 125 126
f 123 126 127
f 123 127 128
f 121 122 123
f 121 123 128
f 118 116 117
f 119 121 128
f 119 115 116
f 119 116 118
f 119 120 121
f 119 128 115

