# https://github.com/mikedh/trimesh
v -0.09162725 -0.11879108 0.87700000
v 0.09162725 -0.11879108 0.87700000
v 0.09105965 -0.11798022 0.88600000
v -0.09105965 -0.11798022 0.88600000
v -0.11919651 -0.09122182 0.87700000
v -0.11919651 0.09122182 0.87700000
v -0.09162725 0.11879108 0.87700000
v 0.09162725 0.11879108 0.87700000
v 0.11919651 0.09122182 0.87700000
v 0.11919651 -0.09122182 0.87700000
v 0.08919467 -0.11635850 0.87700000
v -0.08919467 -0.11635850 0.87700000
v 0.11676393 -0.08878924 0.87700000
v 0.11676393 0.08878924 0.87700000
v 0.08919467 0.11635850 0.87700000
v -0.08919467 0.11635850 0.87700000
v -0.11676393 0.08878924 0.87700000
v -0.11676393 -0.08878924 0.87700000
v 0.11862891 -0.09041096 0.88600000
v -0.11862891 -0.09041096 0.88600000
v -0.11862891 0.09041096 0.88600000
v -0.09105965 0.11798022 0.88600000
v 0.09105965 0.11798022 0.88600000
v 0.11862891 0.09041096 0.88600000
v 0.08919467 -0.11635850 0.88600000
v -0.08919467 -0.11635850 0.88600000
v 0.11676393 -0.08878924 0.88600000
v 0.11676393 0.08878924 0.88600000
v 0.08919467 0.11635850 0.88600000
v -0.08919467 0.11635850 0.88600000
v -0.11676393 0.08878924 0.88600000
v -0.11676393 -0.08878924 0.88600000
f 3 1 2
f 3 4 1
f 1 5 18
f 17 5 6
f 17 18 5
f 12 1 18
f 16 6 7
f 16 17 6
f 2 12 11
f 2 1 12
f 8 15 16
f 8 16 7
f 10 11 13
f 10 2 11
f 14 15 8
f 9 13 14
f 9 14 8
f 9 10 13
f 19 2 10
f 19 3 2
f 4 32 20
f 31 21 20
f 31 20 32
f 26 32 4
f 22 21 31
f 30 22 31
f 3 25 26
f 3 26 4
f 29 22 30
f 27 25 3
f 23 22 29
f 19 27 3
f 28 23 29
f 28 27 19
f 24 23 28
f 24 28 19
f 4 5 1
f 4 20 5
f 20 6 5
f 20 21 6
f 24 10 9
f 24 19 10
f 21 7 6
f 21 22 7
f 23 9 8
f 23 24 9
f 22 8 7
f 22 23 8
f 25 12 26
f 25 11 12
f 26 18 32
f 26 12 18
f 32 17 31
f 32 18 17
f 31 16 30
f 31 17 16
f 30 15 29
f 30 16 15
f 29 14 28
f 29 15 14
f 28 13 27
f 28 14 13
f 27 11 25
f 27 13 11

