# https://github.com/mikedh/trimesh
v -0.00000000 -0.07054487 -1.29021200
v 0.00421888 -0.07041861 -1.29021200
v 0.00842265 -0.07004026 -1.29021200
v 0.01259627 -0.06941119 -1.29021200
v 0.01672481 -0.06853364 -1.29021200
v 0.02079347 -0.06741076 -1.29021200
v 0.02478769 -0.06604657 -1.29021200
v 0.02869319 -0.06444595 -1.29021200
v 0.03249596 -0.06261463 -1.29021200
v 0.03618241 -0.06055916 -1.29021200
v 0.03973934 -0.05828691 -1.29021200
v 0.04315401 -0.05580601 -1.29021200
v 0.04641420 -0.05312533 -1.29021200
v 0.04950824 -0.05025448 -1.29021200
v 0.05242506 -0.04720373 -1.29021200
v 0.05515420 -0.04398401 -1.29021200
v 0.05768591 -0.04060683 -1.29021200
v 0.06001112 -0.03708430 -1.29021200
v 0.06212150 -0.03342900 -1.29021200
v 0.06400950 -0.02965405 -1.29021200
v 0.06566837 -0.02577294 -1.29021200
v 0.06709216 -0.02179956 -1.29021200
v 0.06827578 -0.01774816 -1.29021200
v 0.06921499 -0.01363321 -1.29021200
v 0.06990643 -0.00946947 -1.29021200
v 0.07034762 -0.00527183 -1.29021200
v 0.07053698 -0.00105531 -1.29021200
v 0.07047384 0.00316498 -1.29021200
v 0.07015842 0.00737395 -1.29021200
v 0.06959185 0.01155651 -1.29021200
v 0.06877617 0.01569771 -1.29021200
v 0.06771428 0.01978271 -1.29021200
v 0.06640999 0.02379690 -1.29021200
v 0.06486797 0.02772590 -1.29021200
v 0.06309374 0.03155565 -1.29021200
v 0.06109365 0.03527244 -1.29021200
v 0.05887486 0.03886296 -1.29021200
v 0.05644532 0.04231436 -1.29021200
v 0.05381372 0.04561429 -1.29021200
v 0.05098947 0.04875093 -1.29021200
v 0.04798270 0.05171305 -1.29021200
v 0.04480416 0.05449006 -1.29021200
v 0.04146524 0.05707200 -1.29021200
v 0.03797788 0.05944964 -1.29021200
v 0.03435457 0.06161447 -1.29021200
v 0.03060827 0.06355873 -1.29021200
v 0.02675241 0.06527547 -1.29021200
v 0.02280078 0.06675855 -1.29021200
v 0.01876754 0.06800264 -1.29021200
v 0.01466710 0.06900330 -1.29021200
v 0.01051417 0.06975695 -1.29021200
v 0.00632359 0.07026088 -1.29021200
v 0.00211038 0.07051330 -1.29021200
v -0.00211038 0.07051330 -1.29021200
v -0.00632359 0.07026088 -1.29021200
v -0.01051417 0.06975695 -1.29021200
v -0.01466710 0.06900330 -1.29021200
v -0.01876754 0.06800264 -1.29021200
v -0.02280078 0.06675855 -1.29021200
v -0.02675241 0.06527547 -1.29021200
v -0.03060827 0.06355873 -1.29021200
v -0.03435457 0.06161447 -1.29021200
v -0.03797788 0.05944964 -1.29021200
v -0.04146524 0.05707200 -1.29021200
v -0.04480416 0.05449006 -1.29021200
v -0.04798270 0.05171305 -1.29021200
v -0.05098947 0.04875093 -1.29021200
v -0.05381372 0.04561429 -1.29021200
v -0.05644532 0.04231436 -1.29021200
v -0.05887486 0.03886296 -1.29021200
v -0.06109365 0.03527244 -1.29021200
v -0.06309374 0.03155565 -1.29021200
v -0.06486797 0.02772590 -1.29021200
v -0.06640999 0.02379690 -1.29021200
v -0.06771428 0.01978271 -1.29021200
v -0.06877617 0.01569771 -1.29021200
v -0.06959185 0.01155651 -1.29021200
v -0.07015842 0.00737395 -1.29021200
v -0.07047384 0.00316498 -1.29021200
v -0.07053698 -0.00105531 -1.29021200
v -0.07034762 -0.00527183 -1.29021200
v -0.06990643 -0.00946947 -1.29021200
v -0.06921499 -0.01363321 -1.29021200
v -0.06827578 -0.01774816 -1.29021200
v -0.06709216 -0.02179956 -1.29021200
v -0.06566837 -0.02577294 -1.29021200
v -0.06400950 -0.02965405 -1.29021200
v -0.06212150 -0.03342900 -1.29021200
v -0.06001112 -0.03708430 -1.29021200
v -0.05768591 -0.04060683 -1.29021200
v -0.05515420 -0.04398401 -1.29021200
v -0.05242506 -0.04720373 -1.29021200
v -0.04950824 -0.05025448 -1.29021200
v -0.04641420 -0.05312533 -1.29021200
v -0.04315401 -0.05580601 -1.29021200
v -0.03973934 -0.05828691 -1.29021200
v -0.03618241 -0.06055916 -1.29021200
v -0.03249596 -0.06261463 -1.29021200
v -0.02869319 -0.06444595 -1.29021200
v -0.02478769 -0.06604657 -1.29021200
v -0.02079347 -0.06741076 -1.29021200
v -0.01672481 -0.06853364 -1.29021200
v -0.01259627 -0.06941119 -1.29021200
v -0.00842265 -0.07004026 -1.29021200
v -0.00421888 -0.07041861 -1.29021200
v -0.00000000 -0.07054487 -1.29721200
v 0.00421888 -0.07041861 -1.29721200
v 0.00842265 -0.07004026 -1.29721200
v 0.01259627 -0.06941119 -1.29721200
v 0.01672481 -0.06853364 -1.29721200
v 0.02079347 -0.06741076 -1.29721200
v 0.02478769 -0.06604657 -1.29721200
v 0.02869319 -0.06444595 -1.29721200
v 0.03249596 -0.06261463 -1.29721200
v 0.03618241 -0.06055916 -1.29721200
v 0.03973934 -0.05828691 -1.29721200
v 0.04315401 -0.05580601 -1.29721200
v 0.04641420 -0.05312533 -1.29721200
v 0.04950824 -0.05025448 -1.29721200
v 0.05242506 -0.04720373 -1.29721200
v 0.05515420 -0.04398401 -1.29721200
v 0.05768591 -0.04060683 -1.29721200
v 0.06001112 -0.03708430 -1.29721200
v 0.06212150 -0.03342900 -1.29721200
v 0.06400950 -0.02965405 -1.29721200
v 0.06566837 -0.02577294 -1.29721200
v 0.06709216 -0.02179956 -1.29721200
v 0.06827578 -0.01774816 -1.29721200
v 0.06921499 -0.01363321 -1.29721200
v 0.06990643 -0.00946947 -1.29721200
v 0.07034762 -0.00527183 -1.29721200
v 0.07053698 -0.00105531 -1.29721200
v 0.07047384 0.00316498 -1.29721200
v 0.07015842 0.00737395 -1.29721200
v 0.06959185 0.01155651 -1.29721200
v 0.06877617 0.01569771 -1.29721200
v 0.06771428 0.01978271 -1.29721200
v 0.06640999 0.02379690 -1.29721200
v 0.06486797 0.02772590 -1.29721200
v 0.06309374 0.03155565 -1.29721200
v 0.06109365 0.03527244 -1.29721200
v 0.05887486 0.03886296 -1.29721200
v 0.05644532 0.04231436 -1.29721200
v 0.05381372 0.04561429 -1.29721200
v 0.05098947 0.04875093 -1.29721200
v 0.04798270 0.05171305 -1.29721200
v 0.04480416 0.05449006 -1.29721200
v 0.04146524 0.05707200 -1.29721200
v 0.03797788 0.05944964 -1.29721200
v 0.03435457 0.06161447 -1.29721200
v 0.03060827 0.06355873 -1.29721200
v 0.02675241 0.06527547 -1.29721200
v 0.02280078 0.06675855 -1.29721200
v 0.01876754 0.06800264 -1.29721200
v 0.01466710 0.06900330 -1.29721200
v 0.01051417 0.06975695 -1.29721200
v 0.00632359 0.07026088 -1.29721200
v 0.00211038 0.07051330 -1.29721200
v -0.00211038 0.07051330 -1.29721200
v -0.00632359 0.07026088 -1.29721200
v -0.01051417 0.06975695 -1.29721200
v -0.01466710 0.06900330 -1.29721200
v -0.01876754 0.06800264 -1.29721200
v -0.02280078 0.06675855 -1.29721200
v -0.02675241 0.06527547 -1.29721200
v -0.03060827 0.06355873 -1.29721200
v -0.03435457 0.06161447 -1.29721200
v -0.03797788 0.05944964 -1.29721200
v -0.04146524 0.05707200 -1.29721200
v -0.04480416 0.05449006 -1.29721200
v -0.04798270 0.05171305 -1.29721200
v -0.05098947 0.04875093 -1.29721200
v -0.05381372 0.04561429 -1.29721200
v -0.05644532 0.04231436 -1.29721200
v -0.05887486 0.03886296 -1.29721200
v -0.06109365 0.03527244 -1.29721200
v -0.06309374 0.03155565 -1.29721200
v -0.06486797 0.02772590 -1.29721200
v -0.06640999 0.02379690 -1.29721200
v -0.06771428 0.01978271 -1.29721200
v -0.06877617 0.01569771 -1.29721200
v -0.06959185 0.01155651 -1.29721200
v -0.07015842 0.00737395 -1.29721200
v -0.07047384 0.00316498 -1.29721200
v -0.07053698 -0.00105531 -1.29721200
v -0.07034762 -0.00527183 -1.29721200
v -0.06990643 -0.00946947 -1.29721200
v -0.06921499 -0.01363321 -1.29721200
v -0.06827578 -0.01774816 -1.29721200
v -0.06709216 -0.02179956 -1.29721200
v -0.06566837 -0.02577294 -1.29721200
v -0.06400950 -0.02965405 -1.29721200
v -0.06212150 -0.03342900 -1.29721200
v -0.06001112 -0.03708430 -1.29721200
v -0.05768591 -0.04060683 -1.29721200
v -0.05515420 -0.04398401 -1.29721200
v -0.05242506 -0.04720373 -1.29721200
v -0.04950824 -0.05025448 -1.29721200
v -0.04641420 -0.05312533 -1.29721200
v -0.04315401 -0.05580601 -1.29721200
v -0.03973934 -0.05828691 -1.29721200
v -0.03618241 -0.06055916 -1.29721200
v -0.03249596 -0.06261463 -1.29721200
v -0.02869319 -0.06444595 -1.29721200
v -0.02478769 -0.06604657 -1.29721200
v -0.02079347 -0.06741076 -1.29721200
v -0.01672481 -0.06853364 -1.29721200
v -0.01259627 -0.06941119 -1.29721200
v -0.00842265 -0.07004026 -1.29721200
v -0.00421888 -0.07041861 -1.29721200
v -0.00000000 -0.06900424 -1.29021200
v 0.00412674 -0.06888073 -1.29021200
v 0.00823871 -0.06851065 -1.29021200
v 0.01232118 -0.06789531 -1.29021200
v 0.01635955 -0.06703693 -1.29021200
v 0.02033936 -0.06593857 -1.29021200
v 0.02424635 -0.06460417 -1.29021200
v 0.02806655 -0.06303851 -1.29021200
v 0.03178628 -0.06124718 -1.29021200
v 0.03539222 -0.05923661 -1.29021200
v 0.03887147 -0.05701398 -1.29021200
v 0.04221157 -0.05458725 -1.29021200
v 0.04540056 -0.05196512 -1.29021200
v 0.04842703 -0.04915697 -1.29021200
v 0.05128014 -0.04617285 -1.29021200
v 0.05394969 -0.04302344 -1.29021200
v 0.05642610 -0.03972002 -1.29021200
v 0.05870053 -0.03627441 -1.29021200
v 0.06076482 -0.03269895 -1.29021200
v 0.06261160 -0.02900643 -1.29021200
v 0.06423423 -0.02521008 -1.29021200
v 0.06562693 -0.02132348 -1.29021200
v 0.06678470 -0.01736055 -1.29021200
v 0.06770340 -0.01333548 -1.29021200
v 0.06837973 -0.00926266 -1.29021200
v 0.06881129 -0.00515669 -1.29021200
v 0.06899652 -0.00103226 -1.29021200
v 0.06893476 0.00309586 -1.29021200
v 0.06862623 0.00721291 -1.29021200
v 0.06807203 0.01130413 -1.29021200
v 0.06727416 0.01535489 -1.29021200
v 0.06623546 0.01935068 -1.29021200
v 0.06495966 0.02327720 -1.29021200
v 0.06345131 0.02712039 -1.29021200
v 0.06171583 0.03086650 -1.29021200
v 0.05975942 0.03450212 -1.29021200
v 0.05758909 0.03801423 -1.29021200
v 0.05521261 0.04139025 -1.29021200
v 0.05263847 0.04461811 -1.29021200
v 0.04987591 0.04768625 -1.29021200
v 0.04693480 0.05058369 -1.29021200
v 0.04382568 0.05330004 -1.29021200
v 0.04055967 0.05582560 -1.29021200
v 0.03714847 0.05815132 -1.29021200
v 0.03360429 0.06026887 -1.29021200
v 0.02993982 0.06217067 -1.29021200
v 0.02616816 0.06384992 -1.29021200
v 0.02230284 0.06530060 -1.29021200
v 0.01835767 0.06651752 -1.29021200
v 0.01434679 0.06749633 -1.29021200
v 0.01028455 0.06823352 -1.29021200
v 0.00618549 0.06872645 -1.29021200
v 0.00206429 0.06897335 -1.29021200
v -0.00206429 0.06897335 -1.29021200
v -0.00618549 0.06872645 -1.29021200
v -0.01028455 0.06823352 -1.29021200
v -0.01434679 0.06749633 -1.29021200
v -0.01835767 0.06651752 -1.29021200
v -0.02230284 0.06530060 -1.29021200
v -0.02616816 0.06384992 -1.29021200
v -0.02993982 0.06217067 -1.29021200
v -0.03360429 0.06026887 -1.29021200
v -0.03714847 0.05815132 -1.29021200
v -0.04055967 0.05582560 -1.29021200
v -0.04382568 0.05330004 -1.29021200
v -0.04693480 0.05058369 -1.29021200
v -0.04987591 0.04768625 -1.29021200
v -0.05263847 0.04461811 -1.29021200
v -0.05521261 0.04139025 -1.29021200
v -0.05758909 0.03801423 -1.29021200
v -0.05975942 0.03450212 -1.29021200
v -0.06171583 0.03086650 -1.29021200
v -0.06345131 0.02712039 -1.29021200
v -0.06495966 0.02327720 -1.29021200
v -0.06623546 0.01935068 -1.29021200
v -0.06727416 0.01535489 -1.29021200
v -0.06807203 0.01130413 -1.29021200
v -0.06862623 0.00721291 -1.29021200
v -0.06893476 0.00309586 -1.29021200
v -0.06899652 -0.00103226 -1.29021200
v -0.06881129 -0.00515669 -1.29021200
v -0.06837973 -0.00926266 -1.29021200
v -0.06770340 -0.01333548 -1.29021200
v -0.06678470 -0.01736055 -1.29021200
v -0.06562693 -0.02132348 -1.29021200
v -0.06423423 -0.02521008 -1.29021200
v -0.06261160 -0.02900643 -1.29021200
v -0.06076482 -0.03269895 -1.29021200
v -0.05870053 -0.03627441 -1.29021200
v -0.05642610 -0.03972002 -1.29021200
v -0.05394969 -0.04302344 -1.29021200
v -0.05128014 -0.04617285 -1.29021200
v -0.04842703 -0.04915697 -1.29021200
v -0.04540056 -0.05196512 -1.29021200
v -0.04221157 -0.05458725 -1.29021200
v -0.03887147 -0.05701398 -1.29021200
v -0.03539222 -0.05923661 -1.29021200
v -0.03178628 -0.06124718 -1.29021200
v -0.02806655 -0.06303851 -1.29021200
v -0.02424635 -0.06460417 -1.29021200
v -0.02033936 -0.06593857 -1.29021200
v -0.01635955 -0.06703693 -1.29021200
v -0.01232118 -0.06789531 -1.29021200
v -0.00823871 -0.06851065 -1.29021200
v -0.00412674 -0.06888073 -1.29021200
v -0.00000000 -0.06900424 -1.29721200
v 0.00412674 -0.06888073 -1.29721200
v 0.00823871 -0.06851065 -1.29721200
v 0.01232118 -0.06789531 -1.29721200
v 0.01635955 -0.06703693 -1.29721200
v 0.02033936 -0.06593857 -1.29721200
v 0.02424635 -0.06460417 -1.29721200
v 0.02806655 -0.06303851 -1.29721200
v 0.03178628 -0.06124718 -1.29721200
v 0.03539222 -0.05923661 -1.29721200
v 0.03887147 -0.05701398 -1.29721200
v 0.04221157 -0.05458725 -1.29721200
v 0.04540056 -0.05196512 -1.29721200
v 0.04842703 -0.04915697 -1.29721200
v 0.05128014 -0.04617285 -1.29721200
v 0.05394969 -0.04302344 -1.29721200
v 0.05642610 -0.03972002 -1.29721200
v 0.05870053 -0.03627441 -1.29721200
v 0.06076482 -0.03269895 -1.29721200
v 0.06261160 -0.02900643 -1.29721200
v 0.06423423 -0.02521008 -1.29721200
v 0.06562693 -0.02132348 -1.29721200
v 0.06678470 -0.01736055 -1.29721200
v 0.06770340 -0.01333548 -1.29721200
v 0.06837973 -0.00926266 -1.29721200
v 0.06881129 -0.00515669 -1.29721200
v 0.06899652 -0.00103226 -1.29721200
v 0.06893476 0.00309586 -1.29721200
v 0.06862623 0.00721291 -1.29721200
v 0.06807203 0.01130413 -1.29721200
v 0.06727416 0.01535489 -1.29721200
v 0.06623546 0.01935068 -1.29721200
v 0.06495966 0.02327720 -1.29721200
v 0.06345131 0.02712039 -1.29721200
v 0.06171583 0.03086650 -1.29721200
v 0.05975942 0.03450212 -1.29721200
v 0.05758909 0.03801423 -1.29721200
v 0.05521261 0.04139025 -1.29721200
v 0.05263847 0.04461811 -1.29721200
v 0.04987591 0.04768625 -1.29721200
v 0.04693480 0.05058369 -1.29721200
v 0.04382568 0.05330004 -1.29721200
v 0.04055967 0.05582560 -1.29721200
v 0.03714847 0.05815132 -1.29721200
v 0.03360429 0.06026887 -1.29721200
v 0.02993982 0.06217067 -1.29721200
v 0.02616816 0.06384992 -1.29721200
v 0.02230284 0.06530060 -1.29721200
v 0.01835767 0.06651752 -1.29721200
v 0.01434679 0.06749633 -1.29721200
v 0.01028455 0.06823352 -1.29721200
v 0.00618549 0.06872645 -1.29721200
v 0.00206429 0.06897335 -1.29721200
v -0.00206429 0.06897335 -1.29721200
v -0.00618549 0.06872645 -1.29721200
v -0.01028455 0.06823352 -1.29721200
v -0.01434679 0.06749633 -1.29721200
v -0.01835767 0.06651752 -1.29721200
v -0.02230284 0.06530060 -1.29721200
v -0.02616816 0.06384992 -1.29721200
v -0.02993982 0.06217067 -1.29721200
v -0.03360429 0.06026887 -1.29721200
v -0.03714847 0.05815132 -1.29721200
v -0.04055967 0.05582560 -1.29721200
v -0.04382568 0.05330004 -1.29721200
v -0.04693480 0.05058369 -1.29721200
v -0.04987591 0.04768625 -1.29721200
v -0.05263847 0.04461811 -1.29721200
v -0.05521261 0.04139025 -1.29721200
v -0.05758909 0.03801423 -1.29721200
v -0.05975942 0.03450212 -1.29721200
v -0.06171583 0.03086650 -1.29721200
v -0.06345131 0.02712039 -1.29721200
v -0.06495966 0.02327720 -1.29721200
v -0.06623546 0.01935068 -1.29721200
v -0.06727416 0.01535489 -1.29721200
v -0.06807203 0.01130413 -1.29721200
v -0.06862623 0.00721291 -1.29721200
v -0.06893476 0.00309586 -1.29721200
v -0.06899652 -0.00103226 -1.29721200
v -0.06881129 -0.00515669 -1.29721200
v -0.06837973 -0.00926266 -1.29721200
v -0.06770340 -0.01333548 -1.29721200
v -0.06678470 -0.01736055 -1.29721200
v -0.06562693 -0.02132348 -1.29721200
v -0.06423423 -0.02521008 -1.29721200
v -0.06261160 -0.02900643 -1.29721200
v -0.06076482 -0.03269895 -1.29721200
v -0.05870053 -0.03627441 -1.29721200
v -0.05642610 -0.03972002 -1.29721200
v -0.05394969 -0.04302344 -1.29721200
v -0.05128014 -0.04617285 -1.29721200
v -0.04842703 -0.04915697 -1.29721200
v -0.04540056 -0.05196512 -1.29721200
v -0.04221157 -0.05458725 -1.29721200
v -0.03887147 -0.05701398 -1.29721200
v -0.03539222 -0.05923661 -1.29721200
v -0.03178628 -0.06124718 -1.29721200
v -0.02806655 -0.06303851 -1.29721200
v -0.02424635 -0.06460417 -1.29721200
v -0.02033936 -0.06593857 -1.29721200
v -0.01635955 -0.06703693 -1.29721200
v -0.01232118 -0.06789531 -1.29721200
v -0.00823871 -0.06851065 -1.29721200
v -0.00412674 -0.06888073 -1.29721200
f 2 1 106
f 2 106 107
f 2 107 108
f 3 2 108
f 4 108 109
f 4 3 108
f 5 109 110
f 5 110 111
f 5 4 109
f 6 5 111
f 7 111 112
f 7 112 113
f 7 6 111
f 8 7 113
f 9 113 114
f 9 8 113
f 10 114 115
f 10 9 114
f 11 115 116
f 11 116 117
f 11 10 115
f 12 11 117
f 13 117 118
f 13 118 119
f 13 12 117
f 14 13 119
f 15 119 120
f 15 120 121
f 15 14 119
f 16 15 121
f 17 121 122
f 17 16 121
f 18 122 123
f 18 123 124
f 18 17 122
f 19 18 124
f 20 124 125
f 20 19 124
f 21 125 126
f 21 20 125
f 22 126 127
f 22 127 128
f 22 21 126
f 23 22 128
f 24 23 128
f 24 128 129
f 25 24 129
f 25 129 130
f 25 130 131
f 26 25 131
f 27 26 131
f 27 131 132
f 28 27 132
f 28 132 133
f 29 28 133
f 29 133 134
f 30 29 134
f 30 134 135
f 31 30 135
f 31 135 136
f 32 136 137
f 32 31 136
f 33 137 138
f 33 32 137
f 34 138 139
f 34 33 138
f 35 139 140
f 35 34 139
f 36 140 141
f 36 35 140
f 37 141 142
f 37 142 143
f 37 36 141
f 38 37 143
f 38 143 144
f 39 38 144
f 40 144 145
f 40 145 146
f 40 39 144
f 41 146 147
f 41 40 146
f 42 41 147
f 43 147 148
f 43 42 147
f 44 148 149
f 44 43 148
f 45 149 150
f 45 150 151
f 45 44 149
f 46 151 152
f 46 45 151
f 47 46 152
f 48 152 153
f 48 47 152
f 49 48 153
f 49 153 154
f 50 49 154
f 50 154 155
f 51 50 155
f 51 155 156
f 51 156 157
f 52 51 157
f 53 52 157
f 53 157 158
f 54 53 158
f 54 158 159
f 55 54 159
f 55 159 160
f 56 55 160
f 56 160 161
f 57 56 161
f 57 161 162
f 58 57 162
f 58 162 163
f 59 58 163
f 59 163 164
f 59 164 165
f 60 59 165
f 60 165 166
f 61 60 166
f 62 61 166
f 62 166 167
f 63 62 167
f 63 167 168
f 64 63 168
f 64 168 169
f 65 64 169
f 65 169 170
f 66 170 171
f 66 171 172
f 66 65 170
f 67 66 172
f 68 172 173
f 68 173 174
f 68 67 172
f 69 68 174
f 70 174 175
f 70 69 174
f 71 175 176
f 71 70 175
f 72 176 177
f 72 177 178
f 72 71 176
f 73 72 178
f 74 73 178
f 74 178 179
f 75 74 179
f 75 179 180
f 76 75 180
f 76 180 181
f 76 181 182
f 77 76 182
f 77 182 183
f 78 77 183
f 78 183 184
f 79 78 184
f 80 79 184
f 80 184 185
f 81 80 185
f 81 185 186
f 81 186 187
f 82 81 187
f 83 82 187
f 83 187 188
f 84 83 188
f 84 188 189
f 85 84 189
f 85 189 190
f 86 85 190
f 86 190 191
f 87 86 191
f 87 191 192
f 87 192 193
f 88 87 193
f 89 88 193
f 89 193 194
f 90 89 194
f 90 194 195
f 91 90 195
f 91 195 196
f 91 196 197
f 92 91 197
f 93 92 197
f 93 197 198
f 94 93 198
f 94 198 199
f 95 94 199
f 95 199 200
f 96 95 200
f 96 200 201
f 97 201 202
f 97 96 201
f 98 202 203
f 98 97 202
f 99 98 203
f 99 203 204
f 99 204 205
f 100 99 205
f 101 205 206
f 101 206 207
f 101 100 205
f 102 101 207
f 103 207 208
f 103 208 209
f 103 102 207
f 104 103 209
f 105 209 210
f 105 104 209
f 1 210 106
f 1 105 210
f 277 66 67
f 276 66 277
f 278 277 67
f 278 67 68
f 278 68 69
f 275 66 276
f 275 65 66
f 279 278 69
f 274 65 275
f 274 64 65
f 280 279 69
f 280 69 70
f 280 70 71
f 273 64 274
f 273 62 63
f 273 63 64
f 281 280 71
f 281 71 72
f 272 62 273
f 282 281 72
f 282 72 73
f 271 62 272
f 271 61 62
f 283 282 73
f 74 283 73
f 270 61 271
f 270 60 61
f 284 283 74
f 269 59 60
f 269 60 270
f 285 284 74
f 285 74 75
f 268 58 59
f 268 59 269
f 286 285 75
f 286 75 76
f 267 57 58
f 267 58 268
f 77 286 76
f 287 286 77
f 266 56 57
f 266 57 267
f 288 77 78
f 288 287 77
f 265 55 56
f 265 56 266
f 54 55 265
f 289 288 78
f 289 78 79
f 264 54 265
f 290 289 79
f 290 79 80
f 263 53 54
f 263 54 264
f 291 290 80
f 291 80 81
f 262 53 263
f 262 52 53
f 82 291 81
f 51 52 262
f 292 291 82
f 261 51 262
f 293 292 82
f 293 82 83
f 260 51 261
f 260 50 51
f 294 293 83
f 294 83 84
f 259 50 260
f 259 49 50
f 295 294 84
f 295 84 85
f 48 49 259
f 258 48 259
f 296 295 85
f 296 85 86
f 47 48 258
f 257 47 258
f 87 296 86
f 297 296 87
f 46 47 257
f 256 46 257
f 298 297 87
f 298 87 88
f 255 45 46
f 255 46 256
f 299 298 88
f 299 88 89
f 44 45 255
f 254 44 255
f 300 89 90
f 300 299 89
f 253 43 44
f 253 44 254
f 91 300 90
f 301 300 91
f 252 42 43
f 252 43 253
f 302 301 91
f 302 91 92
f 251 42 252
f 251 41 42
f 303 302 92
f 93 303 92
f 40 41 251
f 40 251 250
f 94 303 93
f 94 304 303
f 249 40 250
f 39 40 249
f 95 304 94
f 95 305 304
f 38 39 249
f 38 249 248
f 306 305 95
f 96 306 95
f 247 38 248
f 37 38 247
f 97 306 96
f 97 307 306
f 36 247 246
f 36 37 247
f 98 308 307
f 98 307 97
f 35 246 245
f 35 36 246
f 309 308 98
f 99 309 98
f 34 245 244
f 34 35 245
f 310 309 99
f 100 310 99
f 33 244 243
f 33 34 244
f 101 311 310
f 101 310 100
f 242 33 243
f 32 33 242
f 102 312 311
f 102 311 101
f 241 32 242
f 31 32 241
f 313 312 102
f 103 313 102
f 30 241 240
f 30 31 241
f 314 313 103
f 239 30 240
f 104 314 103
f 29 30 239
f 315 314 104
f 105 315 104
f 28 29 239
f 28 239 238
f 1 211 315
f 1 315 105
f 27 28 238
f 27 238 237
f 2 212 211
f 2 211 1
f 26 27 237
f 26 237 236
f 3 213 212
f 3 212 2
f 25 236 235
f 25 26 236
f 234 25 235
f 4 214 213
f 4 213 3
f 24 25 234
f 233 24 234
f 5 215 214
f 5 214 4
f 23 24 233
f 6 216 215
f 6 215 5
f 217 216 6
f 22 233 232
f 22 23 233
f 7 217 6
f 218 217 7
f 21 232 231
f 21 22 232
f 8 218 7
f 20 231 230
f 20 21 231
f 9 219 218
f 9 218 8
f 19 230 229
f 19 20 230
f 10 220 219
f 10 221 220
f 10 219 9
f 18 229 228
f 18 19 229
f 11 221 10
f 17 18 228
f 17 227 226
f 17 228 227
f 12 221 11
f 12 222 221
f 12 223 222
f 16 17 226
f 13 223 12
f 15 225 224
f 15 226 225
f 15 16 226
f 14 224 223
f 14 223 13
f 14 15 224
f 382 172 171
f 381 382 171
f 383 172 382
f 383 173 172
f 383 174 173
f 380 381 171
f 380 171 170
f 384 174 383
f 379 380 170
f 379 170 169
f 385 174 384
f 385 175 174
f 385 176 175
f 378 379 169
f 378 168 167
f 378 169 168
f 386 176 385
f 386 177 176
f 377 378 167
f 387 177 386
f 387 178 177
f 376 377 167
f 376 167 166
f 388 178 387
f 179 178 388
f 375 376 166
f 375 166 165
f 389 179 388
f 374 165 164
f 374 375 165
f 390 179 389
f 390 180 179
f 373 164 163
f 373 374 164
f 391 180 390
f 391 181 180
f 372 163 162
f 372 373 163
f 182 181 391
f 392 182 391
f 371 162 161
f 371 372 162
f 393 183 182
f 393 182 392
f 370 161 160
f 370 371 161
f 159 370 160
f 394 183 393
f 394 184 183
f 369 370 159
f 395 184 394
f 395 185 184
f 368 159 158
f 368 369 159
f 396 185 395
f 396 186 185
f 367 368 158
f 367 158 157
f 187 186 396
f 156 367 157
f 397 187 396
f 366 367 156
f 398 187 397
f 398 188 187
f 365 366 156
f 365 156 155
f 399 188 398
f 399 189 188
f 364 365 155
f 364 155 154
f 400 189 399
f 400 190 189
f 153 364 154
f 363 364 153
f 401 190 400
f 401 191 190
f 152 363 153
f 362 363 152
f 192 191 401
f 402 192 401
f 151 362 152
f 361 362 151
f 403 192 402
f 403 193 192
f 360 151 150
f 360 361 151
f 404 193 403
f 404 194 193
f 149 360 150
f 359 360 149
f 405 195 194
f 405 194 404
f 358 149 148
f 358 359 149
f 196 195 405
f 406 196 405
f 357 148 147
f 357 358 148
f 407 196 406
f 407 197 196
f 356 357 147
f 356 147 146
f 408 197 407
f 198 197 408
f 145 356 146
f 145 355 356
f 199 198 408
f 199 408 409
f 354 355 145
f 144 354 145
f 200 199 409
f 200 409 410
f 143 354 144
f 143 353 354
f 411 200 410
f 201 200 411
f 352 353 143
f 142 352 143
f 202 201 411
f 202 411 412
f 141 351 352
f 141 352 142
f 203 412 413
f 203 202 412
f 140 350 351
f 140 351 141
f 414 203 413
f 204 203 414
f 139 349 350
f 139 350 140
f 415 204 414
f 205 204 415
f 138 348 349
f 138 349 139
f 206 415 416
f 206 205 415
f 347 348 138
f 137 347 138
f 207 416 417
f 207 206 416
f 346 347 137
f 136 346 137
f 418 207 417
f 208 207 418
f 135 345 346
f 135 346 136
f 419 208 418
f 344 345 135
f 209 208 419
f 134 344 135
f 420 209 419
f 210 209 420
f 133 344 134
f 133 343 344
f 106 420 316
f 106 210 420
f 132 343 133
f 132 342 343
f 107 316 317
f 107 106 316
f 131 342 132
f 131 341 342
f 108 317 318
f 108 107 317
f 130 340 341
f 130 341 131
f 339 340 130
f 109 318 319
f 109 108 318
f 129 339 130
f 338 339 129
f 110 319 320
f 110 109 319
f 128 338 129
f 111 320 321
f 111 110 320
f 322 111 321
f 127 337 338
f 127 338 128
f 112 111 322
f 323 112 322
f 126 336 337
f 126 337 127
f 113 112 323
f 125 335 336
f 125 336 126
f 114 323 324
f 114 113 323
f 124 334 335
f 124 335 125
f 115 324 325
f 115 325 326
f 115 114 324
f 123 333 334
f 123 334 124
f 116 115 326
f 122 333 123
f 122 331 332
f 122 332 333
f 117 116 326
f 117 326 327
f 117 327 328
f 121 331 122
f 118 117 328
f 120 329 330
f 120 330 331
f 120 331 121
f 119 328 329
f 119 118 328
f 119 329 120
f 212 316 211
f 212 317 316
f 212 318 317
f 213 318 212
f 214 319 318
f 214 318 213
f 215 320 319
f 215 321 320
f 215 319 214
f 216 321 215
f 217 322 321
f 217 323 322
f 217 321 216
f 218 323 217
f 219 324 323
f 219 323 218
f 220 325 324
f 220 324 219
f 221 326 325
f 221 327 326
f 221 325 220
f 222 327 221
f 223 328 327
f 223 329 328
f 223 327 222
f 224 329 223
f 225 330 329
f 225 331 330
f 225 329 224
f 226 331 225
f 227 332 331
f 227 331 226
f 228 333 332
f 228 334 333
f 228 332 227
f 229 334 228
f 230 335 334
f 230 334 229
f 231 336 335
f 231 335 230
f 232 337 336
f 232 338 337
f 232 336 231
f 233 338 232
f 234 338 233
f 234 339 338
f 235 339 234
f 235 340 339
f 235 341 340
f 236 341 235
f 237 341 236
f 237 342 341
f 238 342 237
f 238 343 342
f 239 343 238
f 239 344 343
f 240 344 239
f 240 345 344
f 241 345 240
f 241 346 345
f 242 347 346
f 242 346 241
f 243 348 347
f 243 347 242
f 244 349 348
f 244 348 243
f 245 350 349
f 245 349 244
f 246 351 350
f 246 350 245
f 247 352 351
f 247 353 352
f 247 351 246
f 248 353 247
f 248 354 353
f 249 354 248
f 250 355 354
f 250 356 355
f 250 354 249
f 251 357 356
f 251 356 250
f 252 357 251
f 253 358 357
f 253 357 252
f 254 359 358
f 254 358 253
f 255 360 359
f 255 361 360
f 255 359 254
f 256 362 361
f 256 361 255
f 257 362 256
f 258 363 362
f 258 362 257
f 259 363 258
f 259 364 363
f 260 364 259
f 260 365 364
f 261 365 260
f 261 366 365
f 261 367 366
f 262 367 261
f 263 367 262
f 263 368 367
f 264 368 263
f 264 369 368
f 265 369 264
f 265 370 369
f 266 370 265
f 266 371 370
f 267 371 266
f 267 372 371
f 268 372 267
f 268 373 372
f 269 373 268
f 269 374 373
f 269 375 374
f 270 375 269
f 270 376 375
f 271 376 270
f 272 376 271
f 272 377 376
f 273 377 272
f 273 378 377
f 274 378 273
f 274 379 378
f 275 379 274
f 275 380 379
f 276 381 380
f 276 382 381
f 276 380 275
f 277 382 276
f 278 383 382
f 278 384 383
f 278 382 277
f 279 384 278
f 280 385 384
f 280 384 279
f 281 386 385
f 281 385 280
f 282 387 386
f 282 388 387
f 282 386 281
f 283 388 282
f 284 388 283
f 284 389 388
f 285 389 284
f 285 390 389
f 286 390 285
f 286 391 390
f 286 392 391
f 287 392 286
f 287 393 392
f 288 393 287
f 288 394 393
f 289 394 288
f 290 394 289
f 290 395 394
f 291 395 290
f 291 396 395
f 291 397 396
f 292 397 291
f 293 397 292
f 293 398 397
f 294 398 293
f 294 399 398
f 295 399 294
f 295 400 399
f 296 400 295
f 296 401 400
f 297 401 296
f 297 402 401
f 297 403 402
f 298 403 297
f 299 403 298
f 299 404 403
f 300 404 299
f 300 405 404
f 301 405 300
f 301 406 405
f 301 407 406
f 302 407 301
f 303 407 302
f 303 408 407
f 304 408 303
f 304 409 408
f 305 409 304
f 305 410 409
f 306 410 305
f 306 411 410
f 307 412 411
f 307 411 306
f 308 413 412
f 308 412 307
f 309 413 308
f 309 414 413
f 309 415 414
f 310 415 309
f 311 416 415
f 311 417 416
f 311 415 310
f 312 417 311
f 313 418 417
f 313 419 418
f 313 417 312
f 314 419 313
f 315 420 419
f 315 419 314
f 211 316 420
f 211 420 315

