# https://github.com/mikedh/trimesh
v -0.08919467 -0.02675840 -0.72500000
v -0.08919467 -0.02675840 -0.61100000
v -0.11027704 -0.03405615 -0.60100000
v -0.11027704 -0.03405615 -0.73500000
v -0.08919467 -0.01975840 -0.60400000
v -0.08919467 0.01975840 -0.60400000
v -0.08919467 0.02675840 -0.61100000
v -0.08919467 0.02675840 -0.72500000
v -0.08919467 0.01975840 -0.73200000
v -0.08919467 -0.01975840 -0.73200000
v -0.11027704 -0.02705615 -0.59400000
v -0.12325081 -0.03405615 -0.60100000
v -0.12325081 -0.03405615 -0.73500000
v -0.11027704 -0.02705615 -0.74200000
v -0.11027704 0.02705615 -0.59400000
v -0.11027704 0.03405615 -0.60100000
v -0.11027704 0.03405615 -0.73500000
v -0.11027704 0.02705615 -0.74200000
v -0.12325081 -0.02705615 -0.59400000
v -0.12325081 0.02705615 -0.59400000
v -0.12325081 0.03405615 -0.60100000
v -0.12325081 0.03405615 -0.73500000
v -0.12325081 0.02705615 -0.74200000
v -0.12325081 -0.02705615 -0.74200000
v -0.12325081 -0.02381270 -0.59800000
v -0.12325081 -0.03081270 -0.60500000
v -0.12325081 -0.03081270 -0.73100000
v -0.12325081 -0.02381270 -0.73800000
v -0.12325081 0.02381270 -0.73800000
v -0.12325081 0.03081270 -0.73100000
v -0.12325081 0.03081270 -0.60500000
v -0.12325081 0.02381270 -0.59800000
v -0.11189877 -0.03081270 -0.60500000
v -0.11189877 -0.02381270 -0.59800000
v -0.11189877 0.02381270 -0.59800000
v -0.11189877 0.03081270 -0.60500000
v -0.11189877 0.03081270 -0.73100000
v -0.11189877 0.02381270 -0.73800000
v -0.11189877 -0.02381270 -0.73800000
v -0.11189877 -0.03081270 -0.73100000
v -0.09162725 -0.02432582 -0.61400000
v -0.09162725 -0.01732582 -0.60700000
v -0.09162725 0.01732582 -0.60700000
v -0.09162725 0.02432582 -0.61400000
v -0.09162725 0.02432582 -0.72200000
v -0.09162725 0.01732582 -0.72900000
v -0.09162725 -0.01732582 -0.72900000
v -0.09162725 -0.02432582 -0.72200000
v 0.08919467 -0.02675840 -0.72500000
v 0.08919467 -0.02675840 -0.61100000
v 0.11027704 -0.03405615 -0.60100000
v 0.11027704 -0.03405615 -0.73500000
v 0.08919467 -0.01975840 -0.60400000
v 0.08919467 0.01975840 -0.60400000
v 0.08919467 0.02675840 -0.61100000
v 0.08919467 0.02675840 -0.72500000
v 0.08919467 0.01975840 -0.73200000
v 0.08919467 -0.01975840 -0.73200000
v 0.11027704 -0.02705615 -0.59400000
v 0.12325081 -0.03405615 -0.60100000
v 0.12325081 -0.03405615 -0.73500000
v 0.11027704 -0.02705615 -0.74200000
v 0.11027704 0.02705615 -0.59400000
v 0.11027704 0.03405615 -0.60100000
v 0.11027704 0.03405615 -0.73500000
v 0.11027704 0.02705615 -0.74200000
v 0.12325081 -0.02705615 -0.59400000
v 0.12325081 0.02705615 -0.59400000
v 0.12325081 0.03405615 -0.60100000
v 0.12325081 0.03405615 -0.73500000
v 0.12325081 0.02705615 -0.74200000
v 0.12325081 -0.02705615 -0.74200000
v 0.12325081 -0.02381270 -0.59800000
v 0.12325081 -0.03081270 -0.60500000
v 0.12325081 -0.03081270 -0.73100000
v 0.12325081 -0.02381270 -0.73800000
v 0.12325081 0.02381270 -0.73800000
v 0.12325081 0.03081270 -0.73100000
v 0.12325081 0.03081270 -0.60500000
v 0.12325081 0.02381270 -0.59800000
v 0.11189877 -0.03081270 -0.60500000
v 0.11189877 -0.02381270 -0.59800000
v 0.11189877 0.02381270 -0.59800000
v 0.11189877 0.03081270 -0.60500000
v 0.11189877 0.03081270 -0.73100000
v 0.11189877 0.02381270 -0.73800000
v 0.11189877 -0.02381270 -0.73800000
v 0.11189877 -0.03081270 -0.73100000
v 0.09162725 -0.02432582 -0.61400000
v 0.09162725 -0.01732582 -0.60700000
v 0.09162725 0.01732582 -0.60700000
v 0.09162725 0.02432582 -0.61400000
v 0.09162725 0.02432582 -0.72200000
v 0.09162725 0.01732582 -0.72900000
v 0.09162725 -0.01732582 -0.72900000
v 0.09162725 -0.02432582 -0.72200000
f 3 1 2
f 3 4 1
f 8 10 9
f 8 1 10
f 7 2 1
f 7 5 2
f 7 6 5
f 7 1 8
f 11 2 5
f 11 3 2
f 12 4 3
f 12 13 4
f 4 10 1
f 4 14 10
f 15 5 6
f 15 11 5
f 16 6 7
f 16 15 6
f 17 7 8
f 17 16 7
f 18 8 9
f 18 17 8
f 14 9 10
f 14 18 9
f 12 3 11
f 19 12 11
f 28 24 13
f 28 13 27
f 26 13 12
f 26 27 13
f 23 28 29
f 23 24 28
f 25 12 19
f 25 26 12
f 22 29 30
f 22 23 29
f 20 32 25
f 20 25 19
f 21 30 31
f 21 31 32
f 21 32 20
f 21 22 30
f 13 14 4
f 13 24 14
f 20 11 15
f 20 19 11
f 20 15 16
f 21 20 16
f 22 16 17
f 22 21 16
f 23 17 18
f 23 22 17
f 24 18 14
f 24 23 18
f 25 33 26
f 25 34 33
f 32 34 25
f 32 35 34
f 32 36 35
f 31 36 32
f 30 36 31
f 30 37 36
f 30 38 37
f 29 38 30
f 28 38 29
f 28 39 38
f 28 40 39
f 27 40 28
f 26 40 27
f 26 33 40
f 34 42 41
f 34 41 33
f 43 42 34
f 35 43 34
f 36 44 43
f 36 43 35
f 37 45 44
f 37 44 36
f 38 46 45
f 38 45 37
f 47 46 38
f 39 47 38
f 40 48 47
f 40 47 39
f 33 41 48
f 33 48 40
f 45 46 47
f 45 47 48
f 44 48 41
f 44 41 42
f 44 42 43
f 44 45 48
f 51 50 49
f 51 49 52
f 56 57 58
f 56 58 49
f 55 49 50
f 55 50 53
f 55 53 54
f 55 56 49
f 59 53 50
f 59 50 51
f 60 51 52
f 60 52 61
f 52 49 58
f 52 58 62
f 63 54 53
f 63 53 59
f 64 55 54
f 64 54 63
f 65 56 55
f 65 55 64
f 66 57 56
f 66 56 65
f 62 58 57
f 62 57 66
f 60 59 51
f 67 59 60
f 76 61 72
f 76 75 61
f 74 60 61
f 74 61 75
f 71 77 76
f 71 76 72
f 73 67 60
f 73 60 74
f 70 78 77
f 70 77 71
f 68 73 80
f 68 67 73
f 69 79 78
f 69 80 79
f 69 68 80
f 69 78 70
f 61 52 62
f 61 62 72
f 68 63 59
f 68 59 67
f 68 64 63
f 69 64 68
f 70 65 64
f 70 64 69
f 71 66 65
f 71 65 70
f 72 62 66
f 72 66 71
f 73 74 81
f 73 81 82
f 80 73 82
f 80 82 83
f 79 80 83
f 79 83 84
f 78 79 84
f 78 84 85
f 78 85 86
f 77 78 86
f 76 77 86
f 76 86 87
f 76 87 88
f 75 76 88
f 74 75 88
f 74 88 81
f 82 89 90
f 82 81 89
f 91 82 90
f 83 82 91
f 84 91 92
f 84 83 91
f 85 92 93
f 85 84 92
f 86 93 94
f 86 85 93
f 95 86 94
f 87 86 95
f 88 95 96
f 88 87 95
f 81 96 89
f 81 88 96
f 93 95 94
f 93 96 95
f 92 89 96
f 92 90 89
f 92 91 90
f 92 96 93

