# https://github.com/mikedh/trimesh
v -0.04216475 -0.05027336 1.24821200
v 0.04216475 -0.05027336 1.24821200
v 0.04216475 -0.05027336 1.27721200
v -0.04216475 -0.05027336 1.27721200
v 0.06162541 -0.03081270 1.24821200
v 0.06162541 0.03081270 1.24821200
v 0.04216475 0.05027336 1.24821200
v -0.04216475 0.05027336 1.24821200
v -0.06162541 0.03081270 1.24821200
v -0.06162541 -0.03081270 1.24821200
v 0.06162541 -0.03081270 1.27721200
v 0.04135389 -0.04946250 1.29621200
v -0.04135389 -0.04946250 1.29621200
v -0.06162541 -0.03081270 1.27721200
v 0.06162541 0.03081270 1.27721200
v 0.04216475 0.05027336 1.27721200
v -0.04216475 0.05027336 1.27721200
v -0.06162541 0.03081270 1.27721200
v 0.06081455 -0.03000184 1.29621200
v 0.06081455 0.03000184 1.29621200
v 0.04135389 0.04946250 1.29621200
v -0.04135389 0.04946250 1.29621200
v -0.06081455 0.03000184 1.29621200
v -0.06081455 -0.03000184 1.29621200
v 0.05560187 -0.02542627 1.29621200
v 0.03799461 -0.04303353 1.29621200
v -0.03799461 -0.04303353 1.29621200
v -0.05560187 -0.02542627 1.29621200
v -0.05560187 0.02542627 1.29621200
v -0.03799461 0.04303353 1.29621200
v 0.03799461 0.04303353 1.29621200
v 0.05560187 0.02542627 1.29621200
v 0.03486701 -0.03851588 1.28421200
v 0.05108422 -0.02229867 1.28421200
v 0.05108422 0.02229867 1.28421200
v 0.03486701 0.03851588 1.28421200
v -0.03486701 0.03851588 1.28421200
v -0.05108422 0.02229867 1.28421200
v -0.05108422 -0.02229867 1.28421200
v -0.03486701 -0.03851588 1.28421200
v 0.03324529 -0.03486701 1.25821200
v 0.04784078 -0.02027152 1.25821200
v 0.04784078 0.02027152 1.25821200
v 0.03324529 0.03486701 1.25821200
v -0.03324529 0.03486701 1.25821200
v -0.04784078 0.02027152 1.25821200
v -0.04784078 -0.02027152 1.25821200
v -0.03324529 -0.03486701 1.25821200
f 2 4 1
f 3 4 2
f 9 1 10
f 6 5 2
f 8 1 9
f 7 2 1
f 7 6 2
f 7 1 8
f 11 2 5
f 11 3 2
f 3 13 4
f 12 13 3
f 4 10 1
f 4 14 10
f 15 5 6
f 15 11 5
f 16 6 7
f 16 15 6
f 8 16 7
f 17 16 8
f 18 8 9
f 18 17 8
f 14 9 10
f 14 18 9
f 19 3 11
f 19 12 3
f 12 27 13
f 26 27 12
f 24 13 27
f 28 24 27
f 19 26 12
f 25 26 19
f 23 28 29
f 23 24 28
f 32 25 19
f 20 32 19
f 30 23 29
f 22 23 30
f 31 32 20
f 21 30 31
f 21 31 20
f 21 22 30
f 13 14 4
f 13 24 14
f 15 19 11
f 20 19 15
f 21 15 16
f 21 20 15
f 17 21 16
f 22 21 17
f 23 17 18
f 23 22 17
f 14 23 18
f 24 23 14
f 34 33 26
f 25 34 26
f 32 34 25
f 32 35 34
f 36 35 32
f 31 36 32
f 37 36 31
f 30 37 31
f 38 37 30
f 29 38 30
f 28 38 29
f 28 39 38
f 40 39 28
f 27 40 28
f 33 40 27
f 26 33 27
f 34 42 41
f 34 41 33
f 43 42 34
f 35 43 34
f 35 44 43
f 36 44 35
f 37 45 44
f 37 44 36
f 38 46 45
f 38 45 37
f 47 46 38
f 39 47 38
f 39 48 47
f 40 48 39
f 33 41 48
f 33 48 40
f 45 46 47
f 45 47 48
f 44 48 41
f 44 41 42
f 44 42 43
f 44 45 48

