# https://github.com/mikedh/trimesh
v -0.00000000 -0.02919098 -1.16421200
v 0.00174574 -0.02913873 -1.16421200
v 0.00348523 -0.02898218 -1.16421200
v 0.00521225 -0.02872187 -1.16421200
v 0.00692061 -0.02835875 -1.16421200
v 0.00860419 -0.02789411 -1.16421200
v 0.01025698 -0.02732962 -1.16421200
v 0.01187304 -0.02666729 -1.16421200
v 0.01344661 -0.02590950 -1.16421200
v 0.01497203 -0.02505896 -1.16421200
v 0.01644387 -0.02411872 -1.16421200
v 0.01785683 -0.02309214 -1.16421200
v 0.01920588 -0.02198290 -1.16421200
v 0.02048617 -0.02079496 -1.16421200
v 0.02169313 -0.01953258 -1.16421200
v 0.02282243 -0.01820028 -1.16421200
v 0.02387003 -0.01680283 -1.16421200
v 0.02483219 -0.01534523 -1.16421200
v 0.02570545 -0.01383269 -1.16421200
v 0.02648669 -0.01227064 -1.16421200
v 0.02717312 -0.01066466 -1.16421200
v 0.02776227 -0.00902051 -1.16421200
v 0.02825205 -0.00734406 -1.16421200
v 0.02864069 -0.00564133 -1.16421200
v 0.02892680 -0.00391840 -1.16421200
v 0.02910936 -0.00218144 -1.16421200
v 0.02918772 -0.00043668 -1.16421200
v 0.02916159 0.00130965 -1.16421200
v 0.02903107 0.00305129 -1.16421200
v 0.02879663 0.00478201 -1.16421200
v 0.02845910 0.00649560 -1.16421200
v 0.02801970 0.00818595 -1.16421200
v 0.02748000 0.00984699 -1.16421200
v 0.02684192 0.01147279 -1.16421200
v 0.02610775 0.01305751 -1.16421200
v 0.02528013 0.01459549 -1.16421200
v 0.02436201 0.01608122 -1.16421200
v 0.02335668 0.01750939 -1.16421200
v 0.02226774 0.01887488 -1.16421200
v 0.02109909 0.02017280 -1.16421200
v 0.01985491 0.02139850 -1.16421200
v 0.01853965 0.02254761 -1.16421200
v 0.01715803 0.02361600 -1.16421200
v 0.01571498 0.02459985 -1.16421200
v 0.01421568 0.02549564 -1.16421200
v 0.01266549 0.02630017 -1.16421200
v 0.01106996 0.02701054 -1.16421200
v 0.00943481 0.02762423 -1.16421200
v 0.00776588 0.02813902 -1.16421200
v 0.00606915 0.02855309 -1.16421200
v 0.00435069 0.02886494 -1.16421200
v 0.00261666 0.02907347 -1.16421200
v 0.00087326 0.02917792 -1.16421200
v -0.00087326 0.02917792 -1.16421200
v -0.00261666 0.02907347 -1.16421200
v -0.00435069 0.02886494 -1.16421200
v -0.00606915 0.02855309 -1.16421200
v -0.00776588 0.02813902 -1.16421200
v -0.00943481 0.02762423 -1.16421200
v -0.01106996 0.02701054 -1.16421200
v -0.01266549 0.02630017 -1.16421200
v -0.01421568 0.02549564 -1.16421200
v -0.01571498 0.02459985 -1.16421200
v -0.01715803 0.02361600 -1.16421200
v -0.01853965 0.02254761 -1.16421200
v -0.01985491 0.02139850 -1.16421200
v -0.02109909 0.02017280 -1.16421200
v -0.02226774 0.01887488 -1.16421200
v -0.02335668 0.01750939 -1.16421200
v -0.02436201 0.01608122 -1.16421200
v -0.02528013 0.01459549 -1.16421200
v -0.02610775 0.01305751 -1.16421200
v -0.02684192 0.01147279 -1.16421200
v -0.02748000 0.00984699 -1.16421200
v -0.02801970 0.00818595 -1.16421200
v -0.02845910 0.00649560 -1.16421200
v -0.02879663 0.00478201 -1.16421200
v -0.02903107 0.00305129 -1.16421200
v -0.02916159 0.00130965 -1.16421200
v -0.02918772 -0.00043668 -1.16421200
v -0.02910936 -0.00218144 -1.16421200
v -0.02892680 -0.00391840 -1.16421200
v -0.02864069 -0.00564133 -1.16421200
v -0.02825205 -0.00734406 -1.16421200
v -0.02776227 -0.00902051 -1.16421200
v -0.02717312 -0.01066466 -1.16421200
v -0.02648669 -0.01227064 -1.16421200
v -0.02570545 -0.01383269 -1.16421200
v -0.02483219 -0.01534523 -1.16421200
v -0.02387003 -0.01680283 -1.16421200
v -0.02282243 -0.01820028 -1.16421200
v -0.02169313 -0.01953258 -1.16421200
v -0.02048617 -0.02079496 -1.16421200
v -0.01920588 -0.02198290 -1.16421200
v -0.01785683 -0.02309214 -1.16421200
v -0.01644387 -0.02411872 -1.16421200
v -0.01497203 -0.02505896 -1.16421200
v -0.01344661 -0.02590950 -1.16421200
v -0.01187304 -0.02666729 -1.16421200
v -0.01025698 -0.02732962 -1.16421200
v -0.00860419 -0.02789411 -1.16421200
v -0.00692061 -0.02835875 -1.16421200
v -0.00521225 -0.02872187 -1.16421200
v -0.00348523 -0.02898218 -1.16421200
v -0.00174574 -0.02913873 -1.16421200
v -0.00000000 -0.02919098 -1.16721200
v 0.00174574 -0.02913873 -1.16721200
v 0.00348523 -0.02898218 -1.16721200
v 0.00521225 -0.02872187 -1.16721200
v 0.00692061 -0.02835875 -1.16721200
v 0.00860419 -0.02789411 -1.16721200
v 0.01025698 -0.02732962 -1.16721200
v 0.01187304 -0.02666729 -1.16721200
v 0.01344661 -0.02590950 -1.16721200
v 0.01497203 -0.02505896 -1.16721200
v 0.01644387 -0.02411872 -1.16721200
v 0.01785683 -0.02309214 -1.16721200
v 0.01920588 -0.02198290 -1.16721200
v 0.02048617 -0.02079496 -1.16721200
v 0.02169313 -0.01953258 -1.16721200
v 0.02282243 -0.01820028 -1.16721200
v 0.02387003 -0.01680283 -1.16721200
v 0.02483219 -0.01534523 -1.16721200
v 0.02570545 -0.01383269 -1.16721200
v 0.02648669 -0.01227064 -1.16721200
v 0.02717312 -0.01066466 -1.16721200
v 0.02776227 -0.00902051 -1.16721200
v 0.02825205 -0.00734406 -1.16721200
v 0.02864069 -0.00564133 -1.16721200
v 0.02892680 -0.00391840 -1.16721200
v 0.02910936 -0.00218144 -1.16721200
v 0.02918772 -0.00043668 -1.16721200
v 0.02916159 0.00130965 -1.16721200
v 0.02903107 0.00305129 -1.16721200
v 0.02879663 0.00478201 -1.16721200
v 0.02845910 0.00649560 -1.16721200
v 0.02801970 0.00818595 -1.16721200
v 0.02748000 0.00984699 -1.16721200
v 0.02684192 0.01147279 -1.16721200
v 0.02610775 0.01305751 -1.16721200
v 0.02528013 0.01459549 -1.16721200
v 0.02436201 0.01608122 -1.16721200
v 0.02335668 0.01750939 -1.16721200
v 0.02226774 0.01887488 -1.16721200
v 0.02109909 0.02017280 -1.16721200
v 0.01985491 0.02139850 -1.16721200
v 0.01853965 0.02254761 -1.16721200
v 0.01715803 0.02361600 -1.16721200
v 0.01571498 0.02459985 -1.16721200
v 0.01421568 0.02549564 -1.16721200
v 0.01266549 0.02630017 -1.16721200
v 0.01106996 0.02701054 -1.16721200
v 0.00943481 0.02762423 -1.16721200
v 0.00776588 0.02813902 -1.16721200
v 0.00606915 0.02855309 -1.16721200
v 0.00435069 0.02886494 -1.16721200
v 0.00261666 0.02907347 -1.16721200
v 0.00087326 0.02917792 -1.16721200
v -0.00087326 0.02917792 -1.16721200
v -0.00261666 0.02907347 -1.16721200
v -0.00435069 0.02886494 -1.16721200
v -0.00606915 0.02855309 -1.16721200
v -0.00776588 0.02813902 -1.16721200
v -0.00943481 0.02762423 -1.16721200
v -0.01106996 0.02701054 -1.16721200
v -0.01266549 0.02630017 -1.16721200
v -0.01421568 0.02549564 -1.16721200
v -0.01571498 0.02459985 -1.16721200
v -0.01715803 0.02361600 -1.16721200
v -0.01853965 0.02254761 -1.16721200
v -0.01985491 0.02139850 -1.16721200
v -0.02109909 0.02017280 -1.16721200
v -0.02226774 0.01887488 -1.16721200
v -0.02335668 0.01750939 -1.16721200
v -0.02436201 0.01608122 -1.16721200
v -0.02528013 0.01459549 -1.16721200
v -0.02610775 0.01305751 -1.16721200
v -0.02684192 0.01147279 -1.16721200
v -0.02748000 0.00984699 -1.16721200
v -0.02801970 0.00818595 -1.16721200
v -0.02845910 0.00649560 -1.16721200
v -0.02879663 0.00478201 -1.16721200
v -0.02903107 0.00305129 -1.16721200
v -0.02916159 0.00130965 -1.16721200
v -0.02918772 -0.00043668 -1.16721200
v -0.02910936 -0.00218144 -1.16721200
v -0.02892680 -0.00391840 -1.16721200
v -0.02864069 -0.00564133 -1.16721200
v -0.02825205 -0.00734406 -1.16721200
v -0.02776227 -0.00902051 -1.16721200
v -0.02717312 -0.01066466 -1.16721200
v -0.02648669 -0.01227064 -1.16721200
v -0.02570545 -0.01383269 -1.16721200
v -0.02483219 -0.01534523 -1.16721200
v -0.02387003 -0.01680283 -1.16721200
v -0.02282243 -0.01820028 -1.16721200
v -0.02169313 -0.01953258 -1.16721200
v -0.02048617 -0.02079496 -1.16721200
v -0.01920588 -0.02198290 -1.16721200
v -0.01785683 -0.02309214 -1.16721200
v -0.01644387 -0.02411872 -1.16721200
v -0.01497203 -0.02505896 -1.16721200
v -0.01344661 -0.02590950 -1.16721200
v -0.01187304 -0.02666729 -1.16721200
v -0.01025698 -0.02732962 -1.16721200
v -0.00860419 -0.02789411 -1.16721200
v -0.00692061 -0.02835875 -1.16721200
v -0.00521225 -0.02872187 -1.16721200
v -0.00348523 -0.02898218 -1.16721200
v -0.00174574 -0.02913873 -1.16721200
f 2 1 106
f 2 106 107
f 3 107 108
f 3 2 107
f 4 108 109
f 4 3 108
f 5 109 110
f 5 4 109
f 6 110 111
f 6 111 112
f 6 5 110
f 7 6 112
f 8 112 113
f 8 7 112
f 9 113 114
f 9 8 113
f 10 114 115
f 10 9 114
f 11 115 116
f 11 10 115
f 12 116 117
f 12 11 116
f 13 117 118
f 13 12 117
f 14 118 119
f 14 13 118
f 15 119 120
f 15 14 119
f 16 120 121
f 16 15 120
f 17 121 122
f 17 16 121
f 18 122 123
f 18 123 124
f 18 17 122
f 19 18 124
f 20 124 125
f 20 19 124
f 21 125 126
f 21 20 125
f 22 126 127
f 22 127 128
f 22 21 126
f 23 22 128
f 23 128 129
f 24 23 129
f 25 24 129
f 25 129 130
f 26 25 130
f 26 130 131
f 27 26 131
f 27 131 132
f 28 27 132
f 28 132 133
f 28 133 134
f 29 28 134
f 29 134 135
f 30 29 135
f 31 30 135
f 31 135 136
f 31 136 137
f 32 137 138
f 32 31 137
f 33 32 138
f 34 138 139
f 34 33 138
f 35 139 140
f 35 140 141
f 35 34 139
f 36 35 141
f 37 141 142
f 37 36 141
f 38 142 143
f 38 37 142
f 39 143 144
f 39 38 143
f 40 144 145
f 40 39 144
f 41 145 146
f 41 40 145
f 42 146 147
f 42 41 146
f 43 147 148
f 43 42 147
f 44 148 149
f 44 43 148
f 45 149 150
f 45 44 149
f 46 150 151
f 46 45 150
f 47 151 152
f 47 46 151
f 48 152 153
f 48 47 152
f 49 48 153
f 49 153 154
f 49 154 155
f 50 49 155
f 51 50 155
f 51 155 156
f 52 51 156
f 52 156 157
f 53 52 157
f 53 157 158
f 54 53 158
f 54 158 159
f 55 54 159
f 55 159 160
f 56 55 160
f 56 160 161
f 57 56 161
f 57 161 162
f 57 162 163
f 58 57 163
f 59 58 163
f 59 163 164
f 60 59 164
f 60 164 165
f 61 60 165
f 61 165 166
f 62 61 166
f 62 166 167
f 63 62 167
f 63 167 168
f 64 63 168
f 64 168 169
f 65 64 169
f 65 169 170
f 66 170 171
f 66 65 170
f 67 171 172
f 67 172 173
f 67 66 171
f 68 67 173
f 69 173 174
f 69 68 173
f 70 174 175
f 70 175 176
f 70 69 174
f 71 70 176
f 72 176 177
f 72 71 176
f 73 72 177
f 73 177 178
f 74 73 178
f 74 178 179
f 75 74 179
f 75 179 180
f 76 75 180
f 76 180 181
f 77 76 181
f 77 181 182
f 78 77 182
f 78 182 183
f 79 78 183
f 79 183 184
f 80 79 184
f 80 184 185
f 81 80 185
f 81 185 186
f 82 81 186
f 82 186 187
f 83 82 187
f 83 187 188
f 84 83 188
f 84 188 189
f 85 84 189
f 85 189 190
f 86 85 190
f 86 190 191
f 87 86 191
f 87 191 192
f 88 87 192
f 88 192 193
f 89 88 193
f 89 193 194
f 90 89 194
f 90 194 195
f 91 90 195
f 91 195 196
f 92 91 196
f 92 196 197
f 93 92 197
f 93 197 198
f 94 93 198
f 94 198 199
f 95 94 199
f 95 199 200
f 96 95 200
f 96 200 201
f 97 201 202
f 97 96 201
f 98 202 203
f 98 97 202
f 99 98 203
f 99 203 204
f 100 204 205
f 100 99 204
f 101 205 206
f 101 100 205
f 102 206 207
f 102 101 206
f 103 207 208
f 103 102 207
f 104 208 209
f 104 209 210
f 104 103 208
f 105 104 210
f 1 210 106
f 1 105 210
f 69 67 68
f 70 67 69
f 70 66 67
f 63 64 65
f 63 65 66
f 73 71 72
f 74 71 73
f 59 60 61
f 59 61 62
f 58 63 66
f 58 59 62
f 58 62 63
f 76 71 74
f 76 74 75
f 56 57 58
f 78 66 70
f 78 71 76
f 78 70 71
f 78 76 77
f 54 55 56
f 80 78 79
f 52 53 54
f 52 54 56
f 82 80 81
f 51 52 56
f 84 82 83
f 86 78 80
f 86 80 82
f 86 82 84
f 86 84 85
f 45 46 47
f 45 47 48
f 45 48 49
f 45 49 50
f 45 50 51
f 89 86 87
f 89 87 88
f 44 51 56
f 44 45 51
f 90 58 66
f 90 66 78
f 90 78 86
f 90 86 89
f 43 44 56
f 92 90 91
f 41 43 56
f 41 42 43
f 41 56 58
f 93 90 92
f 39 40 41
f 96 90 93
f 96 93 94
f 96 94 95
f 37 39 41
f 37 38 39
f 98 96 97
f 35 36 37
f 34 35 37
f 100 98 99
f 102 90 96
f 102 96 98
f 102 98 100
f 102 100 101
f 30 102 103
f 30 41 58
f 30 37 41
f 30 31 32
f 30 32 33
f 30 33 34
f 30 34 37
f 30 58 90
f 30 90 102
f 1 103 104
f 1 104 105
f 27 28 29
f 2 103 1
f 26 29 30
f 26 30 103
f 26 27 29
f 26 103 2
f 23 24 25
f 23 25 26
f 8 3 4
f 8 4 5
f 8 5 6
f 8 6 7
f 20 21 22
f 20 22 23
f 20 23 26
f 19 20 26
f 10 2 3
f 10 8 9
f 10 3 8
f 16 10 11
f 16 17 18
f 16 18 19
f 16 26 2
f 16 2 10
f 16 19 26
f 14 16 11
f 14 11 12
f 14 12 13
f 14 15 16
f 174 173 172
f 175 174 172
f 175 172 171
f 168 170 169
f 168 171 170
f 178 177 176
f 179 178 176
f 164 166 165
f 164 167 166
f 163 171 168
f 163 167 164
f 163 168 167
f 181 179 176
f 181 180 179
f 161 163 162
f 183 175 171
f 183 181 176
f 183 176 175
f 183 182 181
f 159 161 160
f 185 184 183
f 157 159 158
f 157 161 159
f 187 186 185
f 156 161 157
f 189 188 187
f 191 185 183
f 191 187 185
f 191 189 187
f 191 190 189
f 150 152 151
f 150 153 152
f 150 154 153
f 150 155 154
f 150 156 155
f 194 192 191
f 194 193 192
f 149 161 156
f 149 156 150
f 195 171 163
f 195 183 171
f 195 191 183
f 195 194 191
f 148 161 149
f 197 196 195
f 146 161 148
f 146 148 147
f 146 163 161
f 198 197 195
f 144 146 145
f 201 198 195
f 201 199 198
f 201 200 199
f 142 146 144
f 142 144 143
f 203 202 201
f 140 142 141
f 139 142 140
f 205 204 203
f 207 201 195
f 207 203 201
f 207 205 203
f 207 206 205
f 135 208 207
f 135 163 146
f 135 146 142
f 135 137 136
f 135 138 137
f 135 139 138
f 135 142 139
f 135 195 163
f 135 207 195
f 106 209 208
f 106 210 209
f 132 134 133
f 107 106 208
f 131 135 134
f 131 208 135
f 131 134 132
f 131 107 208
f 128 130 129
f 128 131 130
f 113 109 108
f 113 110 109
f 113 111 110
f 113 112 111
f 125 127 126
f 125 128 127
f 125 131 128
f 124 131 125
f 115 108 107
f 115 114 113
f 115 113 108
f 121 116 115
f 121 123 122
f 121 124 123
f 121 107 131
f 121 115 107
f 121 131 124
f 119 116 121
f 119 117 116
f 119 118 117
f 119 121 120

