# https://github.com/mikedh/trimesh
v -0.03567787 -0.03932674 1.28021200
v 0.03567787 -0.03932674 1.28021200
v 0.03567787 -0.03932674 1.28541200
v -0.03567787 -0.03932674 1.28541200
v 0.05189508 -0.02310953 1.28021200
v 0.05189508 0.02310953 1.28021200
v 0.03567787 0.03932674 1.28021200
v -0.03567787 0.03932674 1.28021200
v -0.05189508 0.02310953 1.28021200
v -0.05189508 -0.02310953 1.28021200
v -0.03438049 -0.03802936 1.28021200
v 0.03438049 -0.03802936 1.28021200
v -0.05059770 -0.02181215 1.28021200
v -0.05059770 0.02181215 1.28021200
v -0.03438049 0.03802936 1.28021200
v 0.03438049 0.03802936 1.28021200
v 0.05059770 0.02181215 1.28021200
v 0.05059770 -0.02181215 1.28021200
v 0.05189508 -0.02310953 1.28541200
v 0.05189508 0.02310953 1.28541200
v 0.03567787 0.03932674 1.28541200
v -0.03567787 0.03932674 1.28541200
v -0.05189508 0.02310953 1.28541200
v -0.05189508 -0.02310953 1.28541200
v -0.03438049 -0.03802936 1.28541200
v 0.03438049 -0.03802936 1.28541200
v -0.05059770 -0.02181215 1.28541200
v -0.05059770 0.02181215 1.28541200
v -0.03438049 0.03802936 1.28541200
v 0.03438049 0.03802936 1.28541200
v 0.05059770 0.02181215 1.28541200
v 0.05059770 -0.02181215 1.28541200
f 3 1 2
f 3 4 1
f 12 2 1
f 12 1 11
f 13 1 10
f 13 11 1
f 5 2 12
f 18 5 12
f 14 13 10
f 9 14 10
f 6 18 17
f 6 5 18
f 8 15 14
f 8 14 9
f 16 6 17
f 7 16 15
f 7 6 16
f 7 15 8
f 19 2 5
f 19 3 2
f 26 4 3
f 26 25 4
f 27 24 4
f 27 4 25
f 19 26 3
f 32 26 19
f 28 24 27
f 23 24 28
f 20 31 32
f 20 32 19
f 22 28 29
f 22 23 28
f 30 31 20
f 21 29 30
f 21 30 20
f 21 22 29
f 4 10 1
f 4 24 10
f 24 9 10
f 24 23 9
f 20 5 6
f 20 19 5
f 23 8 9
f 23 22 8
f 21 6 7
f 21 20 6
f 22 7 8
f 22 21 7
f 26 11 25
f 26 12 11
f 18 12 26
f 32 18 26
f 31 18 32
f 31 17 18
f 16 17 31
f 30 16 31
f 15 16 30
f 29 15 30
f 14 15 29
f 28 14 29
f 27 14 28
f 27 13 14
f 11 13 27
f 25 11 27

