# https://github.com/mikedh/trimesh
v 0.04185434 -0.00048652 0.00057206
v 0.03607483 -0.00364887 0.00635158
v 0.03160749 -0.00456109 -0.02453642
v 0.04252436 -0.00048652 -0.03545329
v 0.02575425 -0.00486516 0.01667215
v 0.01211307 -0.00608145 -0.00504201
v 0.00552594 -0.00165416 0.03690047
v -0.02609597 -0.00206769 0.03316704
v 0.00057206 -0.00040543 0.04185434
v -0.03545329 -0.00040543 0.04252436
v 0.00057206 0.00040543 0.04185434
v -0.03545329 0.00040543 0.04252436
v 0.00552594 0.00165416 0.03690047
v -0.02609597 0.00206769 0.03316704
v 0.02575425 0.00486516 0.01667215
v 0.01211307 0.00608145 -0.00504201
v 0.03607483 0.00364887 0.00635158
v 0.03160749 0.00456109 -0.02453642
v 0.04185434 0.00048652 0.00057206
v 0.04252436 0.00048652 -0.03545329
v -0.03556766 -0.00456109 -0.09171156
v -0.02465079 -0.00048652 -0.10262843
v -0.05506207 -0.00608145 -0.07221715
v -0.09327112 -0.00206769 -0.03400811
v -0.10262843 -0.00040543 -0.02465079
v -0.10262843 0.00040543 -0.02465079
v -0.65770726 0.00040543 -0.57972961
v -0.72346819 0.00040543 -0.64549054
v -0.72346819 -0.00040543 -0.64549054
v -0.65770726 -0.00040543 -0.57972961
v -0.09327112 0.00206769 -0.03400811
v -0.05506207 0.00608145 -0.07221715
v -0.03556766 0.00456109 -0.09171156
v -0.02465079 0.00048652 -0.10262843
v -0.57972961 -0.00048652 -0.65770726
v -0.64549054 -0.00048652 -0.72346819
v -0.64549054 0.00048652 -0.72346819
v -0.57972961 0.00048652 -0.65770726
v -0.59064648 -0.00243258 -0.64679039
v -0.61014089 -0.00324344 -0.62729597
v -0.64834994 -0.00110277 -0.58908693
v -0.64834994 0.00110277 -0.58908693
v -0.61014089 0.00324344 -0.62729597
v -0.59064648 0.00243258 -0.64679039
v -0.65640741 -0.00182444 -0.71255132
v -0.67590182 -0.00243258 -0.69305691
v -0.71411087 -0.00082708 -0.65484786
v -0.71411087 0.00082708 -0.65484786
v -0.67590182 0.00243258 -0.69305691
v -0.65640741 0.00182444 -0.71255132
v -0.66424692 -0.00152036 -0.71461130
v -0.65445384 -0.00048652 -0.72440438
v -0.68173455 -0.00202715 -0.69712367
v -0.71601031 -0.00068923 -0.66284791
v -0.72440438 -0.00040543 -0.65445384
v -0.72440438 0.00040543 -0.65445384
v -0.71601031 0.00068923 -0.66284791
v -0.68173455 0.00202715 -0.69712367
v -0.66424692 0.00152036 -0.71461130
v -0.65445384 0.00048652 -0.72440438
f 3 1 2
f 3 4 1
f 6 2 5
f 6 3 2
f 8 5 7
f 8 6 5
f 10 7 9
f 10 8 7
f 12 9 11
f 12 10 9
f 14 11 13
f 14 12 11
f 16 13 15
f 16 14 13
f 18 15 17
f 18 16 15
f 20 17 19
f 20 18 17
f 4 19 1
f 4 20 19
f 21 4 3
f 21 22 4
f 23 3 6
f 23 21 3
f 24 6 8
f 24 23 6
f 25 8 10
f 25 24 8
f 26 10 12
f 26 25 10
f 27 30 25
f 27 25 26
f 28 29 30
f 28 30 27
f 31 12 14
f 31 26 12
f 32 14 16
f 32 31 14
f 33 16 18
f 33 32 16
f 34 18 20
f 34 33 18
f 22 20 4
f 22 34 20
f 35 38 34
f 35 34 22
f 36 37 38
f 36 38 35
f 35 22 21
f 39 35 21
f 40 21 23
f 40 39 21
f 41 23 24
f 41 40 23
f 41 24 25
f 30 41 25
f 42 26 31
f 42 27 26
f 43 31 32
f 43 42 31
f 44 32 33
f 44 43 32
f 44 33 34
f 38 44 34
f 45 35 39
f 45 36 35
f 46 39 40
f 46 45 39
f 47 40 41
f 47 46 40
f 29 41 30
f 29 47 41
f 48 27 42
f 48 28 27
f 48 42 43
f 49 48 43
f 49 43 44
f 50 49 44
f 37 44 38
f 37 50 44
f 51 36 45
f 51 52 36
f 53 45 46
f 53 51 45
f 54 46 47
f 54 53 46
f 55 47 29
f 55 54 47
f 56 29 28
f 56 55 29
f 57 28 48
f 57 56 28
f 49 57 48
f 58 57 49
f 59 49 50
f 59 58 49
f 60 50 37
f 60 59 50
f 52 37 36
f 52 60 37
f 17 2 1
f 17 1 19
f 15 5 2
f 15 2 17
f 13 7 5
f 13 5 15
f 11 9 7
f 11 7 13
f 51 60 52
f 59 60 51
f 58 51 53
f 58 59 51
f 57 53 54
f 57 58 53
f 56 54 55
f 56 57 54

