ISO-10303-21;
HEADER;
FILE_DESCRIPTION(('Open CASCADE Model'),'2;1');
FILE_NAME('Halberd_Concept_Shoulder_Booster','2000-01-01T00:00:00',(
    'Author'),('Open CASCADE'),'Open CASCADE STEP processor 7.9',
  'cadgen','Unknown');
FILE_SCHEMA(('AUTOMOTIVE_DESIGN { 1 0 10303 214 1 1 1 1 }'));
ENDSEC;
DATA;
#1 = APPLICATION_PROTOCOL_DEFINITION('international standard',
  'automotive_design',2000,#2);
#2 = APPLICATION_CONTEXT(
  'core data for automotive mechanical design processes');
#3 = SHAPE_DEFINITION_REPRESENTATION(#4,#10);
#4 = PRODUCT_DEFINITION_SHAPE('','',#5);
#5 = PRODUCT_DEFINITION('design','',#6,#9);
#6 = PRODUCT_DEFINITION_FORMATION('','',#7);
#7 = PRODUCT('Halberd_Concept_Shoulder_Booster',
  'Halberd_Concept_Shoulder_Booster','',(#8));
#8 = PRODUCT_CONTEXT('',#2,'mechanical');
#9 = PRODUCT_DEFINITION_CONTEXT('part definition',#2,'design');
#10 = SHAPE_REPRESENTATION('',(#11,#15,#19,#23,#27,#31,#35),#39);
#11 = AXIS2_PLACEMENT_3D('',#12,#13,#14);
#12 = CARTESIAN_POINT('',(0.,0.,0.));
#13 = DIRECTION('',(0.,0.,1.));
#14 = DIRECTION('',(1.,0.,-0.));
#15 = AXIS2_PLACEMENT_3D('',#16,#17,#18);
#16 = CARTESIAN_POINT('',(0.,0.,0.));
#17 = DIRECTION('',(0.,0.,1.));
#18 = DIRECTION('',(1.,0.,0.));
#19 = AXIS2_PLACEMENT_3D('',#20,#21,#22);
#20 = CARTESIAN_POINT('',(0.,0.,0.));
#21 = DIRECTION('',(0.,0.,1.));
#22 = DIRECTION('',(1.,0.,0.));
#23 = AXIS2_PLACEMENT_3D('',#24,#25,#26);
#24 = CARTESIAN_POINT('',(0.,0.,0.));
#25 = DIRECTION('',(-0.,0.707106781187,0.707106781187));
#26 = DIRECTION('',(1.,0.,0.));
#27 = AXIS2_PLACEMENT_3D('',#28,#29,#30);
#28 = CARTESIAN_POINT('',(0.,0.,0.));
#29 = DIRECTION('',(0.,0.707106781187,-0.707106781187));
#30 = DIRECTION('',(1.,0.,0.));
#31 = AXIS2_PLACEMENT_3D('',#32,#33,#34);
#32 = CARTESIAN_POINT('',(0.,0.,0.));
#33 = DIRECTION('',(0.,-0.707106781187,-0.707106781187));
#34 = DIRECTION('',(1.,0.,0.));
#35 = AXIS2_PLACEMENT_3D('',#36,#37,#38);
#36 = CARTESIAN_POINT('',(0.,0.,0.));
#37 = DIRECTION('',(0.,-0.707106781187,0.707106781187));
#38 = DIRECTION('',(1.,0.,0.));
#39 = ( GEOMETRIC_REPRESENTATION_CONTEXT(3) 
GLOBAL_UNCERTAINTY_ASSIGNED_CONTEXT((#43)) GLOBAL_UNIT_ASSIGNED_CONTEXT(
(#40,#41,#42)) REPRESENTATION_CONTEXT('Context #1',
  '3D Context with UNIT and UNCERTAINTY') );
#40 = ( LENGTH_UNIT() NAMED_UNIT(*) SI_UNIT(.MILLI.,.METRE.) );
#41 = ( NAMED_UNIT(*) PLANE_ANGLE_UNIT() SI_UNIT($,.RADIAN.) );
#42 = ( NAMED_UNIT(*) SI_UNIT($,.STERADIAN.) SOLID_ANGLE_UNIT() );
#43 = UNCERTAINTY_MEASURE_WITH_UNIT(LENGTH_MEASURE(1.E-07),#40,
  'distance_accuracy_value','confusion accuracy');
#44 = PRODUCT_RELATED_PRODUCT_CATEGORY('part',$,(#7));
#45 = SHAPE_DEFINITION_REPRESENTATION(#46,#52);
#46 = PRODUCT_DEFINITION_SHAPE('','',#47);
#47 = PRODUCT_DEFINITION('design','',#48,#51);
#48 = PRODUCT_DEFINITION_FORMATION('','',#49);
#49 = PRODUCT('booster_body','booster_body','',(#50));
#50 = PRODUCT_CONTEXT('',#2,'mechanical');
#51 = PRODUCT_DEFINITION_CONTEXT('part definition',#2,'design');
#52 = ADVANCED_BREP_SHAPE_REPRESENTATION('',(#11,#53),#339);
#53 = MANIFOLD_SOLID_BREP('',#54);
#54 = CLOSED_SHELL('',(#55,#140,#144,#196,#248,#283,#335));
#55 = ADVANCED_FACE('',(#56),#69,.T.);
#56 = FACE_BOUND('',#57,.T.);
#57 = EDGE_LOOP('',(#58,#92,#112,#139));
#58 = ORIENTED_EDGE('',*,*,#59,.T.);
#59 = EDGE_CURVE('',#60,#60,#62,.T.);
#60 = VERTEX_POINT('',#61);
#61 = CARTESIAN_POINT('',(-1.5835E+03,0.,-97.));
#62 = SURFACE_CURVE('',#63,(#68,#80),.PCURVE_S1.);
#63 = CIRCLE('',#64,97.);
#64 = AXIS2_PLACEMENT_3D('',#65,#66,#67);
#65 = CARTESIAN_POINT('',(-1.5835E+03,0.,0.));
#66 = DIRECTION('',(1.,-0.,1.110223024625E-16));
#67 = DIRECTION('',(1.110223024625E-16,0.,-1.));
#68 = PCURVE('',#69,#74);
#69 = CONICAL_SURFACE('',#70,97.,5.790620524811E-02);
#70 = AXIS2_PLACEMENT_3D('',#71,#72,#73);
#71 = CARTESIAN_POINT('',(-1.5835E+03,0.,0.));
#72 = DIRECTION('',(1.,-0.,1.110223024625E-16));
#73 = DIRECTION('',(1.110223024625E-16,0.,-1.));
#74 = DEFINITIONAL_REPRESENTATION('',(#75),#79);
#75 = LINE('',#76,#77);
#76 = CARTESIAN_POINT('',(0.,0.));
#77 = VECTOR('',#78,1.);
#78 = DIRECTION('',(1.,0.));
#79 = ( GEOMETRIC_REPRESENTATION_CONTEXT(2) 
PARAMETRIC_REPRESENTATION_CONTEXT() REPRESENTATION_CONTEXT('2D SPACE',''
  ) );
#80 = PCURVE('',#81,#86);
#81 = PLANE('',#82);
#82 = AXIS2_PLACEMENT_3D('',#83,#84,#85);
#83 = CARTESIAN_POINT('',(-1.5835E+03,0.,0.));
#84 = DIRECTION('',(1.,-0.,1.110223024625E-16));
#85 = DIRECTION('',(1.110223024625E-16,0.,-1.));
#86 = DEFINITIONAL_REPRESENTATION('',(#87),#91);
#87 = CIRCLE('',#88,97.);
#88 = AXIS2_PLACEMENT_2D('',#89,#90);
#89 = CARTESIAN_POINT('',(0.,0.));
#90 = DIRECTION('',(1.,0.));
#91 = ( GEOMETRIC_REPRESENTATION_CONTEXT(2) 
PARAMETRIC_REPRESENTATION_CONTEXT() REPRESENTATION_CONTEXT('2D SPACE',''
  ) );
#92 = ORIENTED_EDGE('',*,*,#93,.T.);
#93 = EDGE_CURVE('',#60,#94,#96,.T.);
#94 = VERTEX_POINT('',#95);
#95 = CARTESIAN_POINT('',(-1.48E+03,0.,-103.));
#96 = SEAM_CURVE('',#97,(#100,#106),.PCURVE_S1.);
#97 = B_SPLINE_CURVE_WITH_KNOTS('',1,(#98,#99),.UNSPECIFIED.,.F.,.F.,(2,
    2),(0.,1.),.PIECEWISE_BEZIER_KNOTS.);
#98 = CARTESIAN_POINT('',(-1.5835E+03,0.,-97.));
#99 = CARTESIAN_POINT('',(-1.48E+03,0.,-103.));
#100 = PCURVE('',#69,#101);
#101 = DEFINITIONAL_REPRESENTATION('',(#102),#105);
#102 = B_SPLINE_CURVE_WITH_KNOTS('',1,(#103,#104),.UNSPECIFIED.,.F.,.F.,
  (2,2),(0.,1.),.PIECEWISE_BEZIER_KNOTS.);
#103 = CARTESIAN_POINT('',(6.28318530718,0.));
#104 = CARTESIAN_POINT('',(6.28318530718,103.5));
#105 = ( GEOMETRIC_REPRESENTATION_CONTEXT(2) 
PARAMETRIC_REPRESENTATION_CONTEXT() REPRESENTATION_CONTEXT('2D SPACE',''
  ) );
#106 = PCURVE('',#69,#107);
#107 = DEFINITIONAL_REPRESENTATION('',(#108),#111);
#108 = B_SPLINE_CURVE_WITH_KNOTS('',1,(#109,#110),.UNSPECIFIED.,.F.,.F.,
  (2,2),(0.,1.),.PIECEWISE_BEZIER_KNOTS.);
#109 = CARTESIAN_POINT('',(0.,0.));
#110 = CARTESIAN_POINT('',(0.,103.5));
#111 = ( GEOMETRIC_REPRESENTATION_CONTEXT(2) 
PARAMETRIC_REPRESENTATION_CONTEXT() REPRESENTATION_CONTEXT('2D SPACE',''
  ) );
#112 = ORIENTED_EDGE('',*,*,#113,.F.);
#113 = EDGE_CURVE('',#94,#94,#114,.T.);
#114 = SURFACE_CURVE('',#115,(#120,#127),.PCURVE_S1.);
#115 = CIRCLE('',#116,103.);
#116 = AXIS2_PLACEMENT_3D('',#117,#118,#119);
#117 = CARTESIAN_POINT('',(-1.48E+03,0.,0.));
#118 = DIRECTION('',(1.,-0.,1.110223024625E-16));
#119 = DIRECTION('',(1.110223024625E-16,0.,-1.));
#120 = PCURVE('',#69,#121);
#121 = DEFINITIONAL_REPRESENTATION('',(#122),#126);
#122 = LINE('',#123,#124);
#123 = CARTESIAN_POINT('',(0.,103.5));
#124 = VECTOR('',#125,1.);
#125 = DIRECTION('',(1.,0.));
#126 = ( GEOMETRIC_REPRESENTATION_CONTEXT(2) 
PARAMETRIC_REPRESENTATION_CONTEXT() REPRESENTATION_CONTEXT('2D SPACE',''
  ) );
#127 = PCURVE('',#128,#133);
#128 = CYLINDRICAL_SURFACE('',#129,103.);
#129 = AXIS2_PLACEMENT_3D('',#130,#131,#132);
#130 = CARTESIAN_POINT('',(-1.48E+03,0.,0.));
#131 = DIRECTION('',(1.,-0.,1.110223024625E-16));
#132 = DIRECTION('',(1.110223024625E-16,0.,-1.));
#133 = DEFINITIONAL_REPRESENTATION('',(#134),#138);
#134 = LINE('',#135,#136);
#135 = CARTESIAN_POINT('',(0.,0.));
#136 = VECTOR('',#137,1.);
#137 = DIRECTION('',(1.,0.));
#138 = ( GEOMETRIC_REPRESENTATION_CONTEXT(2) 
PARAMETRIC_REPRESENTATION_CONTEXT() REPRESENTATION_CONTEXT('2D SPACE',''
  ) );
#139 = ORIENTED_EDGE('',*,*,#93,.F.);
#140 = ADVANCED_FACE('',(#141),#81,.F.);
#141 = FACE_BOUND('',#142,.F.);
#142 = EDGE_LOOP('',(#143));
#143 = ORIENTED_EDGE('',*,*,#59,.T.);
#144 = ADVANCED_FACE('',(#145),#128,.T.);
#145 = FACE_BOUND('',#146,.T.);
#146 = EDGE_LOOP('',(#147,#148,#168,#195));
#147 = ORIENTED_EDGE('',*,*,#113,.T.);
#148 = ORIENTED_EDGE('',*,*,#149,.T.);
#149 = EDGE_CURVE('',#94,#150,#152,.T.);
#150 = VERTEX_POINT('',#151);
#151 = CARTESIAN_POINT('',(-490.,0.,-103.));
#152 = SEAM_CURVE('',#153,(#156,#162),.PCURVE_S1.);
#153 = B_SPLINE_CURVE_WITH_KNOTS('',1,(#154,#155),.UNSPECIFIED.,.F.,.F.,
  (2,2),(0.,1.),.PIECEWISE_BEZIER_KNOTS.);
#154 = CARTESIAN_POINT('',(-1.48E+03,0.,-103.));
#155 = CARTESIAN_POINT('',(-490.,0.,-103.));
#156 = PCURVE('',#128,#157);
#157 = DEFINITIONAL_REPRESENTATION('',(#158),#161);
#158 = B_SPLINE_CURVE_WITH_KNOTS('',1,(#159,#160),.UNSPECIFIED.,.F.,.F.,
  (2,2),(0.,1.),.PIECEWISE_BEZIER_KNOTS.);
#159 = CARTESIAN_POINT('',(6.28318530718,0.));
#160 = CARTESIAN_POINT('',(6.28318530718,990.));
#161 = ( GEOMETRIC_REPRESENTATION_CONTEXT(2) 
PARAMETRIC_REPRESENTATION_CONTEXT() REPRESENTATION_CONTEXT('2D SPACE',''
  ) );
#162 = PCURVE('',#128,#163);
#163 = DEFINITIONAL_REPRESENTATION('',(#164),#167);
#164 = B_SPLINE_CURVE_WITH_KNOTS('',1,(#165,#166),.UNSPECIFIED.,.F.,.F.,
  (2,2),(0.,1.),.PIECEWISE_BEZIER_KNOTS.);
#165 = CARTESIAN_POINT('',(0.,0.));
#166 = CARTESIAN_POINT('',(0.,990.));
#167 = ( GEOMETRIC_REPRESENTATION_CONTEXT(2) 
PARAMETRIC_REPRESENTATION_CONTEXT() REPRESENTATION_CONTEXT('2D SPACE',''
  ) );
#168 = ORIENTED_EDGE('',*,*,#169,.F.);
#169 = EDGE_CURVE('',#150,#150,#170,.T.);
#170 = SURFACE_CURVE('',#171,(#176,#183),.PCURVE_S1.);
#171 = CIRCLE('',#172,103.);
#172 = AXIS2_PLACEMENT_3D('',#173,#174,#175);
#173 = CARTESIAN_POINT('',(-490.,0.,0.));
#174 = DIRECTION('',(1.,-0.,1.110223024625E-16));
#175 = DIRECTION('',(1.110223024625E-16,0.,-1.));
#176 = PCURVE('',#128,#177);
#177 = DEFINITIONAL_REPRESENTATION('',(#178),#182);
#178 = LINE('',#179,#180);
#179 = CARTESIAN_POINT('',(0.,990.));
#180 = VECTOR('',#181,1.);
#181 = DIRECTION('',(1.,0.));
#182 = ( GEOMETRIC_REPRESENTATION_CONTEXT(2) 
PARAMETRIC_REPRESENTATION_CONTEXT() REPRESENTATION_CONTEXT('2D SPACE',''
  ) );
#183 = PCURVE('',#184,#189);
#184 = CONICAL_SURFACE('',#185,103.,7.811859103922E-02);
#185 = AXIS2_PLACEMENT_3D('',#186,#187,#188);
#186 = CARTESIAN_POINT('',(-490.,0.,0.));
#187 = DIRECTION('',(-1.,0.,-1.110223024625E-16));
#188 = DIRECTION('',(1.110223024625E-16,0.,-1.));
#189 = DEFINITIONAL_REPRESENTATION('',(#190),#194);
#190 = LINE('',#191,#192);
#191 = CARTESIAN_POINT('',(-0.,-0.));
#192 = VECTOR('',#193,1.);
#193 = DIRECTION('',(-1.,-0.));
#194 = ( GEOMETRIC_REPRESENTATION_CONTEXT(2) 
PARAMETRIC_REPRESENTATION_CONTEXT() REPRESENTATION_CONTEXT('2D SPACE',''
  ) );
#195 = ORIENTED_EDGE('',*,*,#149,.F.);
#196 = ADVANCED_FACE('',(#197),#184,.T.);
#197 = FACE_BOUND('',#198,.T.);
#198 = EDGE_LOOP('',(#199,#200,#220,#247));
#199 = ORIENTED_EDGE('',*,*,#169,.T.);
#200 = ORIENTED_EDGE('',*,*,#201,.T.);
#201 = EDGE_CURVE('',#150,#202,#204,.T.);
#202 = VERTEX_POINT('',#203);
#203 = CARTESIAN_POINT('',(-336.7,0.,-91.));
#204 = SEAM_CURVE('',#205,(#208,#214),.PCURVE_S1.);
#205 = B_SPLINE_CURVE_WITH_KNOTS('',1,(#206,#207),.UNSPECIFIED.,.F.,.F.,
  (2,2),(0.,1.),.PIECEWISE_BEZIER_KNOTS.);
#206 = CARTESIAN_POINT('',(-490.,0.,-103.));
#207 = CARTESIAN_POINT('',(-336.7,0.,-91.));
#208 = PCURVE('',#184,#209);
#209 = DEFINITIONAL_REPRESENTATION('',(#210),#213);
#210 = B_SPLINE_CURVE_WITH_KNOTS('',1,(#211,#212),.UNSPECIFIED.,.F.,.F.,
  (2,2),(0.,1.),.PIECEWISE_BEZIER_KNOTS.);
#211 = CARTESIAN_POINT('',(-6.28318530718,0.));
#212 = CARTESIAN_POINT('',(-6.28318530718,-153.3));
#213 = ( GEOMETRIC_REPRESENTATION_CONTEXT(2) 
PARAMETRIC_REPRESENTATION_CONTEXT() REPRESENTATION_CONTEXT('2D SPACE',''
  ) );
#214 = PCURVE('',#184,#215);
#215 = DEFINITIONAL_REPRESENTATION('',(#216),#219);
#216 = B_SPLINE_CURVE_WITH_KNOTS('',1,(#217,#218),.UNSPECIFIED.,.F.,.F.,
  (2,2),(0.,1.),.PIECEWISE_BEZIER_KNOTS.);
#217 = CARTESIAN_POINT('',(0.,0.));
#218 = CARTESIAN_POINT('',(0.,-153.3));
#219 = ( GEOMETRIC_REPRESENTATION_CONTEXT(2) 
PARAMETRIC_REPRESENTATION_CONTEXT() REPRESENTATION_CONTEXT('2D SPACE',''
  ) );
#220 = ORIENTED_EDGE('',*,*,#221,.F.);
#221 = EDGE_CURVE('',#202,#202,#222,.T.);
#222 = SURFACE_CURVE('',#223,(#228,#235),.PCURVE_S1.);
#223 = CIRCLE('',#224,91.);
#224 = AXIS2_PLACEMENT_3D('',#225,#226,#227);
#225 = CARTESIAN_POINT('',(-336.7,0.,0.));
#226 = DIRECTION('',(1.,-0.,1.110223024625E-16));
#227 = DIRECTION('',(1.110223024625E-16,0.,-1.));
#228 = PCURVE('',#184,#229);
#229 = DEFINITIONAL_REPRESENTATION('',(#230),#234);
#230 = LINE('',#231,#232);
#231 = CARTESIAN_POINT('',(-0.,-153.3));
#232 = VECTOR('',#233,1.);
#233 = DIRECTION('',(-1.,-0.));
#234 = ( GEOMETRIC_REPRESENTATION_CONTEXT(2) 
PARAMETRIC_REPRESENTATION_CONTEXT() REPRESENTATION_CONTEXT('2D SPACE',''
  ) );
#235 = PCURVE('',#236,#241);
#236 = PLANE('',#237);
#237 = AXIS2_PLACEMENT_3D('',#238,#239,#240);
#238 = CARTESIAN_POINT('',(-336.7,0.,0.));
#239 = DIRECTION('',(1.,-0.,1.110223024625E-16));
#240 = DIRECTION('',(1.110223024625E-16,0.,-1.));
#241 = DEFINITIONAL_REPRESENTATION('',(#242),#246);
#242 = CIRCLE('',#243,91.);
#243 = AXIS2_PLACEMENT_2D('',#244,#245);
#244 = CARTESIAN_POINT('',(0.,0.));
#245 = DIRECTION('',(1.,0.));
#246 = ( GEOMETRIC_REPRESENTATION_CONTEXT(2) 
PARAMETRIC_REPRESENTATION_CONTEXT() REPRESENTATION_CONTEXT('2D SPACE',''
  ) );
#247 = ORIENTED_EDGE('',*,*,#201,.F.);
#248 = ADVANCED_FACE('',(#249,#252),#236,.T.);
#249 = FACE_BOUND('',#250,.T.);
#250 = EDGE_LOOP('',(#251));
#251 = ORIENTED_EDGE('',*,*,#221,.T.);
#252 = FACE_BOUND('',#253,.T.);
#253 = EDGE_LOOP('',(#254));
#254 = ORIENTED_EDGE('',*,*,#255,.F.);
#255 = EDGE_CURVE('',#256,#256,#258,.T.);
#256 = VERTEX_POINT('',#257);
#257 = CARTESIAN_POINT('',(-336.7,0.,-68.18181818181));
#258 = SURFACE_CURVE('',#259,(#264,#271),.PCURVE_S1.);
#259 = CIRCLE('',#260,68.181818181818);
#260 = AXIS2_PLACEMENT_3D('',#261,#262,#263);
#261 = CARTESIAN_POINT('',(-336.7,0.,1.110223024625E-15));
#262 = DIRECTION('',(1.,-0.,1.110223024625E-16));
#263 = DIRECTION('',(1.110223024625E-16,0.,-1.));
#264 = PCURVE('',#236,#265);
#265 = DEFINITIONAL_REPRESENTATION('',(#266),#270);
#266 = CIRCLE('',#267,68.181818181818);
#267 = AXIS2_PLACEMENT_2D('',#268,#269);
#268 = CARTESIAN_POINT('',(-1.110223024625E-15,0.));
#269 = DIRECTION('',(1.,0.));
#270 = ( GEOMETRIC_REPRESENTATION_CONTEXT(2) 
PARAMETRIC_REPRESENTATION_CONTEXT() REPRESENTATION_CONTEXT('2D SPACE',''
  ) );
#271 = PCURVE('',#272,#277);
#272 = CONICAL_SURFACE('',#273,60.,0.685729510906);
#273 = AXIS2_PLACEMENT_3D('',#274,#275,#276);
#274 = CARTESIAN_POINT('',(-346.7,0.,0.));
#275 = DIRECTION('',(1.,-0.,1.110223024625E-16));
#276 = DIRECTION('',(1.110223024625E-16,0.,-1.));
#277 = DEFINITIONAL_REPRESENTATION('',(#278),#282);
#278 = LINE('',#279,#280);
#279 = CARTESIAN_POINT('',(0.,10.));
#280 = VECTOR('',#281,1.);
#281 = DIRECTION('',(1.,0.));
#282 = ( GEOMETRIC_REPRESENTATION_CONTEXT(2) 
PARAMETRIC_REPRESENTATION_CONTEXT() REPRESENTATION_CONTEXT('2D SPACE',''
  ) );
#283 = ADVANCED_FACE('',(#284),#272,.F.);
#284 = FACE_BOUND('',#285,.F.);
#285 = EDGE_LOOP('',(#286,#306,#333,#334));
#286 = ORIENTED_EDGE('',*,*,#287,.F.);
#287 = EDGE_CURVE('',#288,#256,#290,.T.);
#288 = VERTEX_POINT('',#289);
#289 = CARTESIAN_POINT('',(-346.7,0.,-60.));
#290 = SEAM_CURVE('',#291,(#294,#300),.PCURVE_S1.);
#291 = B_SPLINE_CURVE_WITH_KNOTS('',1,(#292,#293),.UNSPECIFIED.,.F.,.F.,
  (2,2),(0.,1.),.PIECEWISE_BEZIER_KNOTS.);
#292 = CARTESIAN_POINT('',(-346.7,0.,-60.));
#293 = CARTESIAN_POINT('',(-335.7,0.,-69.));
#294 = PCURVE('',#272,#295);
#295 = DEFINITIONAL_REPRESENTATION('',(#296),#299);
#296 = B_SPLINE_CURVE_WITH_KNOTS('',1,(#297,#298),.UNSPECIFIED.,.F.,.F.,
  (2,2),(0.,1.),.PIECEWISE_BEZIER_KNOTS.);
#297 = CARTESIAN_POINT('',(0.,0.));
#298 = CARTESIAN_POINT('',(0.,11.));
#299 = ( GEOMETRIC_REPRESENTATION_CONTEXT(2) 
PARAMETRIC_REPRESENTATION_CONTEXT() REPRESENTATION_CONTEXT('2D SPACE',''
  ) );
#300 = PCURVE('',#272,#301);
#301 = DEFINITIONAL_REPRESENTATION('',(#302),#305);
#302 = B_SPLINE_CURVE_WITH_KNOTS('',1,(#303,#304),.UNSPECIFIED.,.F.,.F.,
  (2,2),(0.,1.),.PIECEWISE_BEZIER_KNOTS.);
#303 = CARTESIAN_POINT('',(6.28318530718,0.));
#304 = CARTESIAN_POINT('',(6.28318530718,11.));
#305 = ( GEOMETRIC_REPRESENTATION_CONTEXT(2) 
PARAMETRIC_REPRESENTATION_CONTEXT() REPRESENTATION_CONTEXT('2D SPACE',''
  ) );
#306 = ORIENTED_EDGE('',*,*,#307,.T.);
#307 = EDGE_CURVE('',#288,#288,#308,.T.);
#308 = SURFACE_CURVE('',#309,(#314,#321),.PCURVE_S1.);
#309 = CIRCLE('',#310,60.);
#310 = AXIS2_PLACEMENT_3D('',#311,#312,#313);
#311 = CARTESIAN_POINT('',(-346.7,0.,0.));
#312 = DIRECTION('',(1.,-0.,1.110223024625E-16));
#313 = DIRECTION('',(1.110223024625E-16,0.,-1.));
#314 = PCURVE('',#272,#315);
#315 = DEFINITIONAL_REPRESENTATION('',(#316),#320);
#316 = LINE('',#317,#318);
#317 = CARTESIAN_POINT('',(0.,0.));
#318 = VECTOR('',#319,1.);
#319 = DIRECTION('',(1.,0.));
#320 = ( GEOMETRIC_REPRESENTATION_CONTEXT(2) 
PARAMETRIC_REPRESENTATION_CONTEXT() REPRESENTATION_CONTEXT('2D SPACE',''
  ) );
#321 = PCURVE('',#322,#327);
#322 = PLANE('',#323);
#323 = AXIS2_PLACEMENT_3D('',#324,#325,#326);
#324 = CARTESIAN_POINT('',(-346.7,0.,0.));
#325 = DIRECTION('',(1.,-0.,1.110223024625E-16));
#326 = DIRECTION('',(1.110223024625E-16,0.,-1.));
#327 = DEFINITIONAL_REPRESENTATION('',(#328),#332);
#328 = CIRCLE('',#329,60.);
#329 = AXIS2_PLACEMENT_2D('',#330,#331);
#330 = CARTESIAN_POINT('',(0.,0.));
#331 = DIRECTION('',(1.,0.));
#332 = ( GEOMETRIC_REPRESENTATION_CONTEXT(2) 
PARAMETRIC_REPRESENTATION_CONTEXT() REPRESENTATION_CONTEXT('2D SPACE',''
  ) );
#333 = ORIENTED_EDGE('',*,*,#287,.T.);
#334 = ORIENTED_EDGE('',*,*,#255,.F.);
#335 = ADVANCED_FACE('',(#336),#322,.T.);
#336 = FACE_BOUND('',#337,.T.);
#337 = EDGE_LOOP('',(#338));
#338 = ORIENTED_EDGE('',*,*,#307,.T.);
#339 = ( GEOMETRIC_REPRESENTATION_CONTEXT(3) 
GLOBAL_UNCERTAINTY_ASSIGNED_CONTEXT((#343)) GLOBAL_UNIT_ASSIGNED_CONTEXT
((#340,#341,#342)) REPRESENTATION_CONTEXT('Context #1',
  '3D Context with UNIT and UNCERTAINTY') );
#340 = ( LENGTH_UNIT() NAMED_UNIT(*) SI_UNIT(.MILLI.,.METRE.) );
#341 = ( NAMED_UNIT(*) PLANE_ANGLE_UNIT() SI_UNIT($,.RADIAN.) );
#342 = ( NAMED_UNIT(*) SI_UNIT($,.STERADIAN.) SOLID_ANGLE_UNIT() );
#343 = UNCERTAINTY_MEASURE_WITH_UNIT(LENGTH_MEASURE(1.E-07),#340,
  'distance_accuracy_value','confusion accuracy');
#344 = CONTEXT_DEPENDENT_SHAPE_REPRESENTATION(#345,#347);
#345 = ( REPRESENTATION_RELATIONSHIP('','',#52,#10) 
REPRESENTATION_RELATIONSHIP_WITH_TRANSFORMATION(#346) 
SHAPE_REPRESENTATION_RELATIONSHIP() );
#346 = ITEM_DEFINED_TRANSFORMATION('','',#11,#15);
#347 = PRODUCT_DEFINITION_SHAPE('Placement','Placement of an item',#348
  );
#348 = NEXT_ASSEMBLY_USAGE_OCCURRENCE('1','booster_body','',#5,#47,$);
#349 = PRODUCT_RELATED_PRODUCT_CATEGORY('part',$,(#49));
#350 = SHAPE_DEFINITION_REPRESENTATION(#351,#357);
#351 = PRODUCT_DEFINITION_SHAPE('','',#352);
#352 = PRODUCT_DEFINITION('design','',#353,#356);
#353 = PRODUCT_DEFINITION_FORMATION('','',#354);
#354 = PRODUCT('booster_nozzle','booster_nozzle','',(#355));
#355 = PRODUCT_CONTEXT('',#2,'mechanical');
#356 = PRODUCT_DEFINITION_CONTEXT('part definition',#2,'design');
#357 = ADVANCED_BREP_SHAPE_REPRESENTATION('',(#11,#358),#592);
#358 = MANIFOLD_SOLID_BREP('',#359);
#359 = CLOSED_SHELL('',(#360,#445,#480,#484,#536,#588));
#360 = ADVANCED_FACE('',(#361),#374,.T.);
#361 = FACE_BOUND('',#362,.T.);
#362 = EDGE_LOOP('',(#363,#397,#417,#444));
#363 = ORIENTED_EDGE('',*,*,#364,.T.);
#364 = EDGE_CURVE('',#365,#365,#367,.T.);
#365 = VERTEX_POINT('',#366);
#366 = CARTESIAN_POINT('',(-1.6835E+03,0.,-97.));
#367 = SURFACE_CURVE('',#368,(#373,#385),.PCURVE_S1.);
#368 = CIRCLE('',#369,97.);
#369 = AXIS2_PLACEMENT_3D('',#370,#371,#372);
#370 = CARTESIAN_POINT('',(-1.6835E+03,0.,0.));
#371 = DIRECTION('',(1.,-0.,1.110223024625E-16));
#372 = DIRECTION('',(1.110223024625E-16,0.,-1.));
#373 = PCURVE('',#374,#379);
#374 = CYLINDRICAL_SURFACE('',#375,97.);
#375 = AXIS2_PLACEMENT_3D('',#376,#377,#378);
#376 = CARTESIAN_POINT('',(-1.6835E+03,0.,0.));
#377 = DIRECTION('',(1.,-0.,1.110223024625E-16));
#378 = DIRECTION('',(1.110223024625E-16,0.,-1.));
#379 = DEFINITIONAL_REPRESENTATION('',(#380),#384);
#380 = LINE('',#381,#382);
#381 = CARTESIAN_POINT('',(0.,0.));
#382 = VECTOR('',#383,1.);
#383 = DIRECTION('',(1.,0.));
#384 = ( GEOMETRIC_REPRESENTATION_CONTEXT(2) 
PARAMETRIC_REPRESENTATION_CONTEXT() REPRESENTATION_CONTEXT('2D SPACE',''
  ) );
#385 = PCURVE('',#386,#391);
#386 = PLANE('',#387);
#387 = AXIS2_PLACEMENT_3D('',#388,#389,#390);
#388 = CARTESIAN_POINT('',(-1.6835E+03,0.,0.));
#389 = DIRECTION('',(1.,-0.,1.110223024625E-16));
#390 = DIRECTION('',(1.110223024625E-16,0.,-1.));
#391 = DEFINITIONAL_REPRESENTATION('',(#392),#396);
#392 = CIRCLE('',#393,97.);
#393 = AXIS2_PLACEMENT_2D('',#394,#395);
#394 = CARTESIAN_POINT('',(0.,0.));
#395 = DIRECTION('',(1.,0.));
#396 = ( GEOMETRIC_REPRESENTATION_CONTEXT(2) 
PARAMETRIC_REPRESENTATION_CONTEXT() REPRESENTATION_CONTEXT('2D SPACE',''
  ) );
#397 = ORIENTED_EDGE('',*,*,#398,.T.);
#398 = EDGE_CURVE('',#365,#399,#401,.T.);
#399 = VERTEX_POINT('',#400);
#400 = CARTESIAN_POINT('',(-1.5835E+03,0.,-97.));
#401 = SEAM_CURVE('',#402,(#405,#411),.PCURVE_S1.);
#402 = B_SPLINE_CURVE_WITH_KNOTS('',1,(#403,#404),.UNSPECIFIED.,.F.,.F.,
  (2,2),(0.,1.),.PIECEWISE_BEZIER_KNOTS.);
#403 = CARTESIAN_POINT('',(-1.6835E+03,0.,-97.));
#404 = CARTESIAN_POINT('',(-1.5835E+03,0.,-97.));
#405 = PCURVE('',#374,#406);
#406 = DEFINITIONAL_REPRESENTATION('',(#407),#410);
#407 = B_SPLINE_CURVE_WITH_KNOTS('',1,(#408,#409),.UNSPECIFIED.,.F.,.F.,
  (2,2),(0.,1.),.PIECEWISE_BEZIER_KNOTS.);
#408 = CARTESIAN_POINT('',(6.28318530718,0.));
#409 = CARTESIAN_POINT('',(6.28318530718,100.));
#410 = ( GEOMETRIC_REPRESENTATION_CONTEXT(2) 
PARAMETRIC_REPRESENTATION_CONTEXT() REPRESENTATION_CONTEXT('2D SPACE',''
  ) );
#411 = PCURVE('',#374,#412);
#412 = DEFINITIONAL_REPRESENTATION('',(#413),#416);
#413 = B_SPLINE_CURVE_WITH_KNOTS('',1,(#414,#415),.UNSPECIFIED.,.F.,.F.,
  (2,2),(0.,1.),.PIECEWISE_BEZIER_KNOTS.);
#414 = CARTESIAN_POINT('',(0.,0.));
#415 = CARTESIAN_POINT('',(0.,100.));
#416 = ( GEOMETRIC_REPRESENTATION_CONTEXT(2) 
PARAMETRIC_REPRESENTATION_CONTEXT() REPRESENTATION_CONTEXT('2D SPACE',''
  ) );
#417 = ORIENTED_EDGE('',*,*,#418,.F.);
#418 = EDGE_CURVE('',#399,#399,#419,.T.);
#419 = SURFACE_CURVE('',#420,(#425,#432),.PCURVE_S1.);
#420 = CIRCLE('',#421,97.);
#421 = AXIS2_PLACEMENT_3D('',#422,#423,#424);
#422 = CARTESIAN_POINT('',(-1.5835E+03,0.,0.));
#423 = DIRECTION('',(1.,-0.,1.110223024625E-16));
#424 = DIRECTION('',(1.110223024625E-16,0.,-1.));
#425 = PCURVE('',#374,#426);
#426 = DEFINITIONAL_REPRESENTATION('',(#427),#431);
#427 = LINE('',#428,#429);
#428 = CARTESIAN_POINT('',(0.,100.));
#429 = VECTOR('',#430,1.);
#430 = DIRECTION('',(1.,0.));
#431 = ( GEOMETRIC_REPRESENTATION_CONTEXT(2) 
PARAMETRIC_REPRESENTATION_CONTEXT() REPRESENTATION_CONTEXT('2D SPACE',''
  ) );
#432 = PCURVE('',#433,#438);
#433 = PLANE('',#434);
#434 = AXIS2_PLACEMENT_3D('',#435,#436,#437);
#435 = CARTESIAN_POINT('',(-1.5835E+03,0.,0.));
#436 = DIRECTION('',(1.,-0.,1.110223024625E-16));
#437 = DIRECTION('',(1.110223024625E-16,0.,-1.));
#438 = DEFINITIONAL_REPRESENTATION('',(#439),#443);
#439 = CIRCLE('',#440,97.);
#440 = AXIS2_PLACEMENT_2D('',#441,#442);
#441 = CARTESIAN_POINT('',(0.,0.));
#442 = DIRECTION('',(1.,0.));
#443 = ( GEOMETRIC_REPRESENTATION_CONTEXT(2) 
PARAMETRIC_REPRESENTATION_CONTEXT() REPRESENTATION_CONTEXT('2D SPACE',''
  ) );
#444 = ORIENTED_EDGE('',*,*,#398,.F.);
#445 = ADVANCED_FACE('',(#446,#449),#386,.F.);
#446 = FACE_BOUND('',#447,.F.);
#447 = EDGE_LOOP('',(#448));
#448 = ORIENTED_EDGE('',*,*,#364,.T.);
#449 = FACE_BOUND('',#450,.F.);
#450 = EDGE_LOOP('',(#451));
#451 = ORIENTED_EDGE('',*,*,#452,.F.);
#452 = EDGE_CURVE('',#453,#453,#455,.T.);
#453 = VERTEX_POINT('',#454);
#454 = CARTESIAN_POINT('',(-1.6835E+03,0.,-87.29863636363));
#455 = SURFACE_CURVE('',#456,(#461,#468),.PCURVE_S1.);
#456 = CIRCLE('',#457,87.298636363636);
#457 = AXIS2_PLACEMENT_3D('',#458,#459,#460);
#458 = CARTESIAN_POINT('',(-1.6835E+03,0.,1.110223024625E-16));
#459 = DIRECTION('',(1.,-0.,1.110223024625E-16));
#460 = DIRECTION('',(1.110223024625E-16,0.,-1.));
#461 = PCURVE('',#386,#462);
#462 = DEFINITIONAL_REPRESENTATION('',(#463),#467);
#463 = CIRCLE('',#464,87.298636363636);
#464 = AXIS2_PLACEMENT_2D('',#465,#466);
#465 = CARTESIAN_POINT('',(-1.110223024625E-16,0.));
#466 = DIRECTION('',(1.,0.));
#467 = ( GEOMETRIC_REPRESENTATION_CONTEXT(2) 
PARAMETRIC_REPRESENTATION_CONTEXT() REPRESENTATION_CONTEXT('2D SPACE',''
  ) );
#468 = PCURVE('',#469,#474);
#469 = CONICAL_SURFACE('',#470,88.,0.611640570396);
#470 = AXIS2_PLACEMENT_3D('',#471,#472,#473);
#471 = CARTESIAN_POINT('',(-1.6845E+03,0.,0.));
#472 = DIRECTION('',(-1.,0.,-1.110223024625E-16));
#473 = DIRECTION('',(1.110223024625E-16,0.,-1.));
#474 = DEFINITIONAL_REPRESENTATION('',(#475),#479);
#475 = LINE('',#476,#477);
#476 = CARTESIAN_POINT('',(-0.,-1.));
#477 = VECTOR('',#478,1.);
#478 = DIRECTION('',(-1.,-0.));
#479 = ( GEOMETRIC_REPRESENTATION_CONTEXT(2) 
PARAMETRIC_REPRESENTATION_CONTEXT() REPRESENTATION_CONTEXT('2D SPACE',''
  ) );
#480 = ADVANCED_FACE('',(#481),#433,.T.);
#481 = FACE_BOUND('',#482,.T.);
#482 = EDGE_LOOP('',(#483));
#483 = ORIENTED_EDGE('',*,*,#418,.T.);
#484 = ADVANCED_FACE('',(#485),#469,.F.);
#485 = FACE_BOUND('',#486,.F.);
#486 = EDGE_LOOP('',(#487,#488,#508,#535));
#487 = ORIENTED_EDGE('',*,*,#452,.T.);
#488 = ORIENTED_EDGE('',*,*,#489,.T.);
#489 = EDGE_CURVE('',#453,#490,#492,.T.);
#490 = VERTEX_POINT('',#491);
#491 = CARTESIAN_POINT('',(-1.6185E+03,0.,-41.71));
#492 = SEAM_CURVE('',#493,(#496,#502),.PCURVE_S1.);
#493 = B_SPLINE_CURVE_WITH_KNOTS('',1,(#494,#495),.UNSPECIFIED.,.F.,.F.,
  (2,2),(0.,1.),.PIECEWISE_BEZIER_KNOTS.);
#494 = CARTESIAN_POINT('',(-1.6845E+03,0.,-88.));
#495 = CARTESIAN_POINT('',(-1.6185E+03,0.,-41.71));
#496 = PCURVE('',#469,#497);
#497 = DEFINITIONAL_REPRESENTATION('',(#498),#501);
#498 = B_SPLINE_CURVE_WITH_KNOTS('',1,(#499,#500),.UNSPECIFIED.,.F.,.F.,
  (2,2),(0.,1.),.PIECEWISE_BEZIER_KNOTS.);
#499 = CARTESIAN_POINT('',(0.,0.));
#500 = CARTESIAN_POINT('',(0.,-66.));
#501 = ( GEOMETRIC_REPRESENTATION_CONTEXT(2) 
PARAMETRIC_REPRESENTATION_CONTEXT() REPRESENTATION_CONTEXT('2D SPACE',''
  ) );
#502 = PCURVE('',#469,#503);
#503 = DEFINITIONAL_REPRESENTATION('',(#504),#507);
#504 = B_SPLINE_CURVE_WITH_KNOTS('',1,(#505,#506),.UNSPECIFIED.,.F.,.F.,
  (2,2),(0.,1.),.PIECEWISE_BEZIER_KNOTS.);
#505 = CARTESIAN_POINT('',(-6.28318530718,0.));
#506 = CARTESIAN_POINT('',(-6.28318530718,-66.));
#507 = ( GEOMETRIC_REPRESENTATION_CONTEXT(2) 
PARAMETRIC_REPRESENTATION_CONTEXT() REPRESENTATION_CONTEXT('2D SPACE',''
  ) );
#508 = ORIENTED_EDGE('',*,*,#509,.F.);
#509 = EDGE_CURVE('',#490,#490,#510,.T.);
#510 = SURFACE_CURVE('',#511,(#516,#523),.PCURVE_S1.);
#511 = CIRCLE('',#512,41.71);
#512 = AXIS2_PLACEMENT_3D('',#513,#514,#515);
#513 = CARTESIAN_POINT('',(-1.6185E+03,0.,0.));
#514 = DIRECTION('',(1.,-0.,1.110223024625E-16));
#515 = DIRECTION('',(1.110223024625E-16,0.,-1.));
#516 = PCURVE('',#469,#517);
#517 = DEFINITIONAL_REPRESENTATION('',(#518),#522);
#518 = LINE('',#519,#520);
#519 = CARTESIAN_POINT('',(-0.,-66.));
#520 = VECTOR('',#521,1.);
#521 = DIRECTION('',(-1.,-0.));
#522 = ( GEOMETRIC_REPRESENTATION_CONTEXT(2) 
PARAMETRIC_REPRESENTATION_CONTEXT() REPRESENTATION_CONTEXT('2D SPACE',''
  ) );
#523 = PCURVE('',#524,#529);
#524 = CONICAL_SURFACE('',#525,41.71,0.160279903336);
#525 = AXIS2_PLACEMENT_3D('',#526,#527,#528);
#526 = CARTESIAN_POINT('',(-1.6185E+03,0.,0.));
#527 = DIRECTION('',(-1.,0.,-1.110223024625E-16));
#528 = DIRECTION('',(1.110223024625E-16,0.,-1.));
#529 = DEFINITIONAL_REPRESENTATION('',(#530),#534);
#530 = LINE('',#531,#532);
#531 = CARTESIAN_POINT('',(-0.,-0.));
#532 = VECTOR('',#533,1.);
#533 = DIRECTION('',(-1.,-0.));
#534 = ( GEOMETRIC_REPRESENTATION_CONTEXT(2) 
PARAMETRIC_REPRESENTATION_CONTEXT() REPRESENTATION_CONTEXT('2D SPACE',''
  ) );
#535 = ORIENTED_EDGE('',*,*,#489,.F.);
#536 = ADVANCED_FACE('',(#537),#524,.F.);
#537 = FACE_BOUND('',#538,.F.);
#538 = EDGE_LOOP('',(#539,#540,#560,#587));
#539 = ORIENTED_EDGE('',*,*,#509,.T.);
#540 = ORIENTED_EDGE('',*,*,#541,.T.);
#541 = EDGE_CURVE('',#490,#542,#544,.T.);
#542 = VERTEX_POINT('',#543);
#543 = CARTESIAN_POINT('',(-1.5885E+03,0.,-36.86));
#544 = SEAM_CURVE('',#545,(#548,#554),.PCURVE_S1.);
#545 = B_SPLINE_CURVE_WITH_KNOTS('',1,(#546,#547),.UNSPECIFIED.,.F.,.F.,
  (2,2),(0.,1.),.PIECEWISE_BEZIER_KNOTS.);
#546 = CARTESIAN_POINT('',(-1.6185E+03,0.,-41.71));
#547 = CARTESIAN_POINT('',(-1.5885E+03,0.,-36.86));
#548 = PCURVE('',#524,#549);
#549 = DEFINITIONAL_REPRESENTATION('',(#550),#553);
#550 = B_SPLINE_CURVE_WITH_KNOTS('',1,(#551,#552),.UNSPECIFIED.,.F.,.F.,
  (2,2),(0.,1.),.PIECEWISE_BEZIER_KNOTS.);
#551 = CARTESIAN_POINT('',(-6.28318530718,0.));
#552 = CARTESIAN_POINT('',(-6.28318530718,-30.));
#553 = ( GEOMETRIC_REPRESENTATION_CONTEXT(2) 
PARAMETRIC_REPRESENTATION_CONTEXT() REPRESENTATION_CONTEXT('2D SPACE',''
  ) );
#554 = PCURVE('',#524,#555);
#555 = DEFINITIONAL_REPRESENTATION('',(#556),#559);
#556 = B_SPLINE_CURVE_WITH_KNOTS('',1,(#557,#558),.UNSPECIFIED.,.F.,.F.,
  (2,2),(0.,1.),.PIECEWISE_BEZIER_KNOTS.);
#557 = CARTESIAN_POINT('',(0.,0.));
#558 = CARTESIAN_POINT('',(0.,-30.));
#559 = ( GEOMETRIC_REPRESENTATION_CONTEXT(2) 
PARAMETRIC_REPRESENTATION_CONTEXT() REPRESENTATION_CONTEXT('2D SPACE',''
  ) );
#560 = ORIENTED_EDGE('',*,*,#561,.F.);
#561 = EDGE_CURVE('',#542,#542,#562,.T.);
#562 = SURFACE_CURVE('',#563,(#568,#575),.PCURVE_S1.);
#563 = CIRCLE('',#564,36.86);
#564 = AXIS2_PLACEMENT_3D('',#565,#566,#567);
#565 = CARTESIAN_POINT('',(-1.5885E+03,0.,0.));
#566 = DIRECTION('',(1.,-0.,1.110223024625E-16));
#567 = DIRECTION('',(1.110223024625E-16,0.,-1.));
#568 = PCURVE('',#524,#569);
#569 = DEFINITIONAL_REPRESENTATION('',(#570),#574);
#570 = LINE('',#571,#572);
#571 = CARTESIAN_POINT('',(-0.,-30.));
#572 = VECTOR('',#573,1.);
#573 = DIRECTION('',(-1.,-0.));
#574 = ( GEOMETRIC_REPRESENTATION_CONTEXT(2) 
PARAMETRIC_REPRESENTATION_CONTEXT() REPRESENTATION_CONTEXT('2D SPACE',''
  ) );
#575 = PCURVE('',#576,#581);
#576 = PLANE('',#577);
#577 = AXIS2_PLACEMENT_3D('',#578,#579,#580);
#578 = CARTESIAN_POINT('',(-1.5885E+03,0.,0.));
#579 = DIRECTION('',(1.,-0.,1.110223024625E-16));
#580 = DIRECTION('',(1.110223024625E-16,0.,-1.));
#581 = DEFINITIONAL_REPRESENTATION('',(#582),#586);
#582 = CIRCLE('',#583,36.86);
#583 = AXIS2_PLACEMENT_2D('',#584,#585);
#584 = CARTESIAN_POINT('',(0.,0.));
#585 = DIRECTION('',(1.,0.));
#586 = ( GEOMETRIC_REPRESENTATION_CONTEXT(2) 
PARAMETRIC_REPRESENTATION_CONTEXT() REPRESENTATION_CONTEXT('2D SPACE',''
  ) );
#587 = ORIENTED_EDGE('',*,*,#541,.F.);
#588 = ADVANCED_FACE('',(#589),#576,.F.);
#589 = FACE_BOUND('',#590,.F.);
#590 = EDGE_LOOP('',(#591));
#591 = ORIENTED_EDGE('',*,*,#561,.T.);
#592 = ( GEOMETRIC_REPRESENTATION_CONTEXT(3) 
GLOBAL_UNCERTAINTY_ASSIGNED_CONTEXT((#596)) GLOBAL_UNIT_ASSIGNED_CONTEXT
((#593,#594,#595)) REPRESENTATION_CONTEXT('Context #1',
  '3D Context with UNIT and UNCERTAINTY') );
#593 = ( LENGTH_UNIT() NAMED_UNIT(*) SI_UNIT(.MILLI.,.METRE.) );
#594 = ( NAMED_UNIT(*) PLANE_ANGLE_UNIT() SI_UNIT($,.RADIAN.) );
#595 = ( NAMED_UNIT(*) SI_UNIT($,.STERADIAN.) SOLID_ANGLE_UNIT() );
#596 = UNCERTAINTY_MEASURE_WITH_UNIT(LENGTH_MEASURE(1.E-07),#593,
  'distance_accuracy_value','confusion accuracy');
#597 = CONTEXT_DEPENDENT_SHAPE_REPRESENTATION(#598,#600);
#598 = ( REPRESENTATION_RELATIONSHIP('','',#357,#10) 
REPRESENTATION_RELATIONSHIP_WITH_TRANSFORMATION(#599) 
SHAPE_REPRESENTATION_RELATIONSHIP() );
#599 = ITEM_DEFINED_TRANSFORMATION('','',#11,#19);
#600 = PRODUCT_DEFINITION_SHAPE('Placement','Placement of an item',#601
  );
#601 = NEXT_ASSEMBLY_USAGE_OCCURRENCE('2','booster_nozzle','',#5,#352,$
  );
#602 = PRODUCT_RELATED_PRODUCT_CATEGORY('part',$,(#354));
#603 = SHAPE_DEFINITION_REPRESENTATION(#604,#610);
#604 = PRODUCT_DEFINITION_SHAPE('','',#605);
#605 = PRODUCT_DEFINITION('design','',#606,#609);
#606 = PRODUCT_DEFINITION_FORMATION('','',#607);
#607 = PRODUCT('booster_fin_4','booster_fin_4','',(#608));
#608 = PRODUCT_CONTEXT('',#2,'mechanical');
#609 = PRODUCT_DEFINITION_CONTEXT('part definition',#2,'design');
#610 = ADVANCED_BREP_SHAPE_REPRESENTATION('',(#11,#611),#933);
#611 = MANIFOLD_SOLID_BREP('',#612);
#612 = CLOSED_SHELL('',(#613,#730,#804,#873,#919,#926));
#613 = ADVANCED_FACE('',(#614),#628,.T.);
#614 = FACE_BOUND('',#615,.T.);
#615 = EDGE_LOOP('',(#616,#651,#678,#705));
#616 = ORIENTED_EDGE('',*,*,#617,.T.);
#617 = EDGE_CURVE('',#618,#620,#622,.T.);
#618 = VERTEX_POINT('',#619);
#619 = CARTESIAN_POINT('',(-1.54E+03,0.,96.));
#620 = VERTEX_POINT('',#621);
#621 = CARTESIAN_POINT('',(-1.3755E+03,-5.5,96.));
#622 = SURFACE_CURVE('',#623,(#627,#639),.PCURVE_S1.);
#623 = LINE('',#624,#625);
#624 = CARTESIAN_POINT('',(-1.54E+03,0.,96.));
#625 = VECTOR('',#626,1.);
#626 = DIRECTION('',(0.999441530256,-3.341597821524E-02,0.));
#627 = PCURVE('',#628,#633);
#628 = B_SPLINE_SURFACE_WITH_KNOTS('',1,1,(
    (#629,#630)
    ,(#631,#632
    )),.UNSPECIFIED.,.F.,.F.,.F.,(2,2),(2,2),(0.,164.59191960725),(0.,1.
    ),.PIECEWISE_BEZIER_KNOTS.);
#629 = CARTESIAN_POINT('',(-1.54E+03,0.,96.));
#630 = CARTESIAN_POINT('',(-1.58E+03,0.,211.));
#631 = CARTESIAN_POINT('',(-1.3755E+03,-5.5,96.));
#632 = CARTESIAN_POINT('',(-1.5065E+03,-2.475,211.));
#633 = DEFINITIONAL_REPRESENTATION('',(#634),#638);
#634 = LINE('',#635,#636);
#635 = CARTESIAN_POINT('',(0.,0.));
#636 = VECTOR('',#637,1.);
#637 = DIRECTION('',(1.,0.));
#638 = ( GEOMETRIC_REPRESENTATION_CONTEXT(2) 
PARAMETRIC_REPRESENTATION_CONTEXT() REPRESENTATION_CONTEXT('2D SPACE',''
  ) );
#639 = PCURVE('',#640,#645);
#640 = PLANE('',#641);
#641 = AXIS2_PLACEMENT_3D('',#642,#643,#644);
#642 = CARTESIAN_POINT('',(-1.54E+03,0.,96.));
#643 = DIRECTION('',(0.,0.,-1.));
#644 = DIRECTION('',(1.,0.,0.));
#645 = DEFINITIONAL_REPRESENTATION('',(#646),#650);
#646 = LINE('',#647,#648);
#647 = CARTESIAN_POINT('',(0.,0.));
#648 = VECTOR('',#649,1.);
#649 = DIRECTION('',(0.999441530256,3.341597821524E-02));
#650 = ( GEOMETRIC_REPRESENTATION_CONTEXT(2) 
PARAMETRIC_REPRESENTATION_CONTEXT() REPRESENTATION_CONTEXT('2D SPACE',''
  ) );
#651 = ORIENTED_EDGE('',*,*,#652,.T.);
#652 = EDGE_CURVE('',#620,#653,#655,.T.);
#653 = VERTEX_POINT('',#654);
#654 = CARTESIAN_POINT('',(-1.5065E+03,-2.475,211.));
#655 = SURFACE_CURVE('',#656,(#659,#666),.PCURVE_S1.);
#656 = B_SPLINE_CURVE_WITH_KNOTS('',1,(#657,#658),.UNSPECIFIED.,.F.,.F.,
  (2,2),(0.,1.),.PIECEWISE_BEZIER_KNOTS.);
#657 = CARTESIAN_POINT('',(-1.3755E+03,-5.5,96.));
#658 = CARTESIAN_POINT('',(-1.5065E+03,-2.475,211.));
#659 = PCURVE('',#628,#660);
#660 = DEFINITIONAL_REPRESENTATION('',(#661),#665);
#661 = LINE('',#662,#663);
#662 = CARTESIAN_POINT('',(164.59191960725,0.));
#663 = VECTOR('',#664,1.);
#664 = DIRECTION('',(0.,1.));
#665 = ( GEOMETRIC_REPRESENTATION_CONTEXT(2) 
PARAMETRIC_REPRESENTATION_CONTEXT() REPRESENTATION_CONTEXT('2D SPACE',''
  ) );
#666 = PCURVE('',#667,#672);
#667 = B_SPLINE_SURFACE_WITH_KNOTS('',1,1,(
    (#668,#669)
    ,(#670,#671
    )),.UNSPECIFIED.,.F.,.F.,.F.,(2,2),(2,2),(0.,305.54950499059),(0.,1.
    ),.PIECEWISE_BEZIER_KNOTS.);
#668 = CARTESIAN_POINT('',(-1.3755E+03,-5.5,96.));
#669 = CARTESIAN_POINT('',(-1.5065E+03,-2.475,211.));
#670 = CARTESIAN_POINT('',(-1.07E+03,0.,96.));
#671 = CARTESIAN_POINT('',(-1.37E+03,0.,211.));
#672 = DEFINITIONAL_REPRESENTATION('',(#673),#677);
#673 = LINE('',#674,#675);
#674 = CARTESIAN_POINT('',(0.,0.));
#675 = VECTOR('',#676,1.);
#676 = DIRECTION('',(0.,1.));
#677 = ( GEOMETRIC_REPRESENTATION_CONTEXT(2) 
PARAMETRIC_REPRESENTATION_CONTEXT() REPRESENTATION_CONTEXT('2D SPACE',''
  ) );
#678 = ORIENTED_EDGE('',*,*,#679,.F.);
#679 = EDGE_CURVE('',#680,#653,#682,.T.);
#680 = VERTEX_POINT('',#681);
#681 = CARTESIAN_POINT('',(-1.58E+03,0.,211.));
#682 = SURFACE_CURVE('',#683,(#687,#693),.PCURVE_S1.);
#683 = LINE('',#684,#685);
#684 = CARTESIAN_POINT('',(-1.58E+03,0.,211.));
#685 = VECTOR('',#686,1.);
#686 = DIRECTION('',(0.999433530425,-3.365439439187E-02,0.));
#687 = PCURVE('',#628,#688);
#688 = DEFINITIONAL_REPRESENTATION('',(#689),#692);
#689 = B_SPLINE_CURVE_WITH_KNOTS('',1,(#690,#691),.UNSPECIFIED.,.F.,.F.,
  (2,2),(0.,73.54165911237),.PIECEWISE_BEZIER_KNOTS.);
#690 = CARTESIAN_POINT('',(0.,1.));
#691 = CARTESIAN_POINT('',(164.59191960725,1.));
#692 = ( GEOMETRIC_REPRESENTATION_CONTEXT(2) 
PARAMETRIC_REPRESENTATION_CONTEXT() REPRESENTATION_CONTEXT('2D SPACE',''
  ) );
#693 = PCURVE('',#694,#699);
#694 = PLANE('',#695);
#695 = AXIS2_PLACEMENT_3D('',#696,#697,#698);
#696 = CARTESIAN_POINT('',(-1.58E+03,0.,211.));
#697 = DIRECTION('',(0.,0.,-1.));
#698 = DIRECTION('',(1.,0.,0.));
#699 = DEFINITIONAL_REPRESENTATION('',(#700),#704);
#700 = LINE('',#701,#702);
#701 = CARTESIAN_POINT('',(0.,0.));
#702 = VECTOR('',#703,1.);
#703 = DIRECTION('',(0.999433530425,3.365439439187E-02));
#704 = ( GEOMETRIC_REPRESENTATION_CONTEXT(2) 
PARAMETRIC_REPRESENTATION_CONTEXT() REPRESENTATION_CONTEXT('2D SPACE',''
  ) );
#705 = ORIENTED_EDGE('',*,*,#706,.F.);
#706 = EDGE_CURVE('',#618,#680,#707,.T.);
#707 = SURFACE_CURVE('',#708,(#711,#718),.PCURVE_S1.);
#708 = B_SPLINE_CURVE_WITH_KNOTS('',1,(#709,#710),.UNSPECIFIED.,.F.,.F.,
  (2,2),(0.,1.),.PIECEWISE_BEZIER_KNOTS.);
#709 = CARTESIAN_POINT('',(-1.54E+03,0.,96.));
#710 = CARTESIAN_POINT('',(-1.58E+03,0.,211.));
#711 = PCURVE('',#628,#712);
#712 = DEFINITIONAL_REPRESENTATION('',(#713),#717);
#713 = LINE('',#714,#715);
#714 = CARTESIAN_POINT('',(0.,0.));
#715 = VECTOR('',#716,1.);
#716 = DIRECTION('',(0.,1.));
#717 = ( GEOMETRIC_REPRESENTATION_CONTEXT(2) 
PARAMETRIC_REPRESENTATION_CONTEXT() REPRESENTATION_CONTEXT('2D SPACE',''
  ) );
#718 = PCURVE('',#719,#724);
#719 = B_SPLINE_SURFACE_WITH_KNOTS('',1,1,(
    (#720,#721)
    ,(#722,#723
    )),.UNSPECIFIED.,.F.,.F.,.F.,(2,2),(2,2),(0.,164.59191960725),(0.,1.
    ),.PIECEWISE_BEZIER_KNOTS.);
#720 = CARTESIAN_POINT('',(-1.3755E+03,5.5,96.));
#721 = CARTESIAN_POINT('',(-1.5065E+03,2.475,211.));
#722 = CARTESIAN_POINT('',(-1.54E+03,0.,96.));
#723 = CARTESIAN_POINT('',(-1.58E+03,4.440892098501E-16,211.));
#724 = DEFINITIONAL_REPRESENTATION('',(#725),#729);
#725 = LINE('',#726,#727);
#726 = CARTESIAN_POINT('',(164.59191960725,0.));
#727 = VECTOR('',#728,1.);
#728 = DIRECTION('',(0.,1.));
#729 = ( GEOMETRIC_REPRESENTATION_CONTEXT(2) 
PARAMETRIC_REPRESENTATION_CONTEXT() REPRESENTATION_CONTEXT('2D SPACE',''
  ) );
#730 = ADVANCED_FACE('',(#731),#667,.T.);
#731 = FACE_BOUND('',#732,.T.);
#732 = EDGE_LOOP('',(#733,#756,#783,#803));
#733 = ORIENTED_EDGE('',*,*,#734,.T.);
#734 = EDGE_CURVE('',#620,#735,#737,.T.);
#735 = VERTEX_POINT('',#736);
#736 = CARTESIAN_POINT('',(-1.07E+03,0.,96.));
#737 = SURFACE_CURVE('',#738,(#742,#749),.PCURVE_S1.);
#738 = LINE('',#739,#740);
#739 = CARTESIAN_POINT('',(-1.3755E+03,-5.5,96.));
#740 = VECTOR('',#741,1.);
#741 = DIRECTION('',(0.999837980459,1.800035644034E-02,0.));
#742 = PCURVE('',#667,#743);
#743 = DEFINITIONAL_REPRESENTATION('',(#744),#748);
#744 = LINE('',#745,#746);
#745 = CARTESIAN_POINT('',(0.,0.));
#746 = VECTOR('',#747,1.);
#747 = DIRECTION('',(1.,0.));
#748 = ( GEOMETRIC_REPRESENTATION_CONTEXT(2) 
PARAMETRIC_REPRESENTATION_CONTEXT() REPRESENTATION_CONTEXT('2D SPACE',''
  ) );
#749 = PCURVE('',#640,#750);
#750 = DEFINITIONAL_REPRESENTATION('',(#751),#755);
#751 = LINE('',#752,#753);
#752 = CARTESIAN_POINT('',(164.5,5.5));
#753 = VECTOR('',#754,1.);
#754 = DIRECTION('',(0.999837980459,-1.800035644034E-02));
#755 = ( GEOMETRIC_REPRESENTATION_CONTEXT(2) 
PARAMETRIC_REPRESENTATION_CONTEXT() REPRESENTATION_CONTEXT('2D SPACE',''
  ) );
#756 = ORIENTED_EDGE('',*,*,#757,.T.);
#757 = EDGE_CURVE('',#735,#758,#760,.T.);
#758 = VERTEX_POINT('',#759);
#759 = CARTESIAN_POINT('',(-1.37E+03,0.,211.));
#760 = SURFACE_CURVE('',#761,(#764,#771),.PCURVE_S1.);
#761 = B_SPLINE_CURVE_WITH_KNOTS('',1,(#762,#763),.UNSPECIFIED.,.F.,.F.,
  (2,2),(0.,1.),.PIECEWISE_BEZIER_KNOTS.);
#762 = CARTESIAN_POINT('',(-1.07E+03,0.,96.));
#763 = CARTESIAN_POINT('',(-1.37E+03,0.,211.));
#764 = PCURVE('',#667,#765);
#765 = DEFINITIONAL_REPRESENTATION('',(#766),#770);
#766 = LINE('',#767,#768);
#767 = CARTESIAN_POINT('',(305.54950499059,0.));
#768 = VECTOR('',#769,1.);
#769 = DIRECTION('',(0.,1.));
#770 = ( GEOMETRIC_REPRESENTATION_CONTEXT(2) 
PARAMETRIC_REPRESENTATION_CONTEXT() REPRESENTATION_CONTEXT('2D SPACE',''
  ) );
#771 = PCURVE('',#772,#777);
#772 = B_SPLINE_SURFACE_WITH_KNOTS('',1,1,(
    (#773,#774)
    ,(#775,#776
    )),.UNSPECIFIED.,.F.,.F.,.F.,(2,2),(2,2),(0.,305.54950499059),(0.,1.
    ),.PIECEWISE_BEZIER_KNOTS.);
#773 = CARTESIAN_POINT('',(-1.07E+03,0.,96.));
#774 = CARTESIAN_POINT('',(-1.37E+03,0.,211.));
#775 = CARTESIAN_POINT('',(-1.3755E+03,5.5,96.));
#776 = CARTESIAN_POINT('',(-1.5065E+03,2.475,211.));
#777 = DEFINITIONAL_REPRESENTATION('',(#778),#782);
#778 = LINE('',#779,#780);
#779 = CARTESIAN_POINT('',(0.,0.));
#780 = VECTOR('',#781,1.);
#781 = DIRECTION('',(0.,1.));
#782 = ( GEOMETRIC_REPRESENTATION_CONTEXT(2) 
PARAMETRIC_REPRESENTATION_CONTEXT() REPRESENTATION_CONTEXT('2D SPACE',''
  ) );
#783 = ORIENTED_EDGE('',*,*,#784,.F.);
#784 = EDGE_CURVE('',#653,#758,#785,.T.);
#785 = SURFACE_CURVE('',#786,(#790,#796),.PCURVE_S1.);
#786 = LINE('',#787,#788);
#787 = CARTESIAN_POINT('',(-1.5065E+03,-2.475,211.));
#788 = VECTOR('',#789,1.);
#789 = DIRECTION('',(0.9998356582,1.812888830803E-02,0.));
#790 = PCURVE('',#667,#791);
#791 = DEFINITIONAL_REPRESENTATION('',(#792),#795);
#792 = B_SPLINE_CURVE_WITH_KNOTS('',1,(#793,#794),.UNSPECIFIED.,.F.,.F.,
  (2,2),(0.,136.52243634289),.PIECEWISE_BEZIER_KNOTS.);
#793 = CARTESIAN_POINT('',(0.,1.));
#794 = CARTESIAN_POINT('',(305.54950499059,1.));
#795 = ( GEOMETRIC_REPRESENTATION_CONTEXT(2) 
PARAMETRIC_REPRESENTATION_CONTEXT() REPRESENTATION_CONTEXT('2D SPACE',''
  ) );
#796 = PCURVE('',#694,#797);
#797 = DEFINITIONAL_REPRESENTATION('',(#798),#802);
#798 = LINE('',#799,#800);
#799 = CARTESIAN_POINT('',(73.5,2.475));
#800 = VECTOR('',#801,1.);
#801 = DIRECTION('',(0.9998356582,-1.812888830803E-02));
#802 = ( GEOMETRIC_REPRESENTATION_CONTEXT(2) 
PARAMETRIC_REPRESENTATION_CONTEXT() REPRESENTATION_CONTEXT('2D SPACE',''
  ) );
#803 = ORIENTED_EDGE('',*,*,#652,.F.);
#804 = ADVANCED_FACE('',(#805),#772,.T.);
#805 = FACE_BOUND('',#806,.T.);
#806 = EDGE_LOOP('',(#807,#830,#852,#872));
#807 = ORIENTED_EDGE('',*,*,#808,.T.);
#808 = EDGE_CURVE('',#735,#809,#811,.T.);
#809 = VERTEX_POINT('',#810);
#810 = CARTESIAN_POINT('',(-1.3755E+03,5.5,96.));
#811 = SURFACE_CURVE('',#812,(#816,#823),.PCURVE_S1.);
#812 = LINE('',#813,#814);
#813 = CARTESIAN_POINT('',(-1.07E+03,0.,96.));
#814 = VECTOR('',#815,1.);
#815 = DIRECTION('',(-0.999837980459,1.800035644034E-02,0.));
#816 = PCURVE('',#772,#817);
#817 = DEFINITIONAL_REPRESENTATION('',(#818),#822);
#818 = LINE('',#819,#820);
#819 = CARTESIAN_POINT('',(0.,0.));
#820 = VECTOR('',#821,1.);
#821 = DIRECTION('',(1.,0.));
#822 = ( GEOMETRIC_REPRESENTATION_CONTEXT(2) 
PARAMETRIC_REPRESENTATION_CONTEXT() REPRESENTATION_CONTEXT('2D SPACE',''
  ) );
#823 = PCURVE('',#640,#824);
#824 = DEFINITIONAL_REPRESENTATION('',(#825),#829);
#825 = LINE('',#826,#827);
#826 = CARTESIAN_POINT('',(470.,0.));
#827 = VECTOR('',#828,1.);
#828 = DIRECTION('',(-0.999837980459,-1.800035644034E-02));
#829 = ( GEOMETRIC_REPRESENTATION_CONTEXT(2) 
PARAMETRIC_REPRESENTATION_CONTEXT() REPRESENTATION_CONTEXT('2D SPACE',''
  ) );
#830 = ORIENTED_EDGE('',*,*,#831,.T.);
#831 = EDGE_CURVE('',#809,#832,#834,.T.);
#832 = VERTEX_POINT('',#833);
#833 = CARTESIAN_POINT('',(-1.5065E+03,2.475,211.));
#834 = SURFACE_CURVE('',#835,(#838,#845),.PCURVE_S1.);
#835 = B_SPLINE_CURVE_WITH_KNOTS('',1,(#836,#837),.UNSPECIFIED.,.F.,.F.,
  (2,2),(0.,1.),.PIECEWISE_BEZIER_KNOTS.);
#836 = CARTESIAN_POINT('',(-1.3755E+03,5.5,96.));
#837 = CARTESIAN_POINT('',(-1.5065E+03,2.475,211.));
#838 = PCURVE('',#772,#839);
#839 = DEFINITIONAL_REPRESENTATION('',(#840),#844);
#840 = LINE('',#841,#842);
#841 = CARTESIAN_POINT('',(305.54950499059,0.));
#842 = VECTOR('',#843,1.);
#843 = DIRECTION('',(0.,1.));
#844 = ( GEOMETRIC_REPRESENTATION_CONTEXT(2) 
PARAMETRIC_REPRESENTATION_CONTEXT() REPRESENTATION_CONTEXT('2D SPACE',''
  ) );
#845 = PCURVE('',#719,#846);
#846 = DEFINITIONAL_REPRESENTATION('',(#847),#851);
#847 = LINE('',#848,#849);
#848 = CARTESIAN_POINT('',(0.,0.));
#849 = VECTOR('',#850,1.);
#850 = DIRECTION('',(0.,1.));
#851 = ( GEOMETRIC_REPRESENTATION_CONTEXT(2) 
PARAMETRIC_REPRESENTATION_CONTEXT() REPRESENTATION_CONTEXT('2D SPACE',''
  ) );
#852 = ORIENTED_EDGE('',*,*,#853,.F.);
#853 = EDGE_CURVE('',#758,#832,#854,.T.);
#854 = SURFACE_CURVE('',#855,(#859,#865),.PCURVE_S1.);
#855 = LINE('',#856,#857);
#856 = CARTESIAN_POINT('',(-1.37E+03,0.,211.));
#857 = VECTOR('',#858,1.);
#858 = DIRECTION('',(-0.9998356582,1.812888830803E-02,0.));
#859 = PCURVE('',#772,#860);
#860 = DEFINITIONAL_REPRESENTATION('',(#861),#864);
#861 = B_SPLINE_CURVE_WITH_KNOTS('',1,(#862,#863),.UNSPECIFIED.,.F.,.F.,
  (2,2),(0.,136.52243634289),.PIECEWISE_BEZIER_KNOTS.);
#862 = CARTESIAN_POINT('',(0.,1.));
#863 = CARTESIAN_POINT('',(305.54950499059,1.));
#864 = ( GEOMETRIC_REPRESENTATION_CONTEXT(2) 
PARAMETRIC_REPRESENTATION_CONTEXT() REPRESENTATION_CONTEXT('2D SPACE',''
  ) );
#865 = PCURVE('',#694,#866);
#866 = DEFINITIONAL_REPRESENTATION('',(#867),#871);
#867 = LINE('',#868,#869);
#868 = CARTESIAN_POINT('',(210.,0.));
#869 = VECTOR('',#870,1.);
#870 = DIRECTION('',(-0.9998356582,-1.812888830803E-02));
#871 = ( GEOMETRIC_REPRESENTATION_CONTEXT(2) 
PARAMETRIC_REPRESENTATION_CONTEXT() REPRESENTATION_CONTEXT('2D SPACE',''
  ) );
#872 = ORIENTED_EDGE('',*,*,#757,.F.);
#873 = ADVANCED_FACE('',(#874),#719,.T.);
#874 = FACE_BOUND('',#875,.T.);
#875 = EDGE_LOOP('',(#876,#897,#898,#918));
#876 = ORIENTED_EDGE('',*,*,#877,.T.);
#877 = EDGE_CURVE('',#809,#618,#878,.T.);
#878 = SURFACE_CURVE('',#879,(#883,#890),.PCURVE_S1.);
#879 = LINE('',#880,#881);
#880 = CARTESIAN_POINT('',(-1.3755E+03,5.5,96.));
#881 = VECTOR('',#882,1.);
#882 = DIRECTION('',(-0.999441530256,-3.341597821524E-02,0.));
#883 = PCURVE('',#719,#884);
#884 = DEFINITIONAL_REPRESENTATION('',(#885),#889);
#885 = LINE('',#886,#887);
#886 = CARTESIAN_POINT('',(0.,0.));
#887 = VECTOR('',#888,1.);
#888 = DIRECTION('',(1.,0.));
#889 = ( GEOMETRIC_REPRESENTATION_CONTEXT(2) 
PARAMETRIC_REPRESENTATION_CONTEXT() REPRESENTATION_CONTEXT('2D SPACE',''
  ) );
#890 = PCURVE('',#640,#891);
#891 = DEFINITIONAL_REPRESENTATION('',(#892),#896);
#892 = LINE('',#893,#894);
#893 = CARTESIAN_POINT('',(164.5,-5.5));
#894 = VECTOR('',#895,1.);
#895 = DIRECTION('',(-0.999441530256,3.341597821524E-02));
#896 = ( GEOMETRIC_REPRESENTATION_CONTEXT(2) 
PARAMETRIC_REPRESENTATION_CONTEXT() REPRESENTATION_CONTEXT('2D SPACE',''
  ) );
#897 = ORIENTED_EDGE('',*,*,#706,.T.);
#898 = ORIENTED_EDGE('',*,*,#899,.F.);
#899 = EDGE_CURVE('',#832,#680,#900,.T.);
#900 = SURFACE_CURVE('',#901,(#905,#911),.PCURVE_S1.);
#901 = LINE('',#902,#903);
#902 = CARTESIAN_POINT('',(-1.5065E+03,2.475,211.));
#903 = VECTOR('',#904,1.);
#904 = DIRECTION('',(-0.999433530425,-3.365439439187E-02,0.));
#905 = PCURVE('',#719,#906);
#906 = DEFINITIONAL_REPRESENTATION('',(#907),#910);
#907 = B_SPLINE_CURVE_WITH_KNOTS('',1,(#908,#909),.UNSPECIFIED.,.F.,.F.,
  (2,2),(0.,73.54165911237),.PIECEWISE_BEZIER_KNOTS.);
#908 = CARTESIAN_POINT('',(0.,1.));
#909 = CARTESIAN_POINT('',(164.59191960725,1.));
#910 = ( GEOMETRIC_REPRESENTATION_CONTEXT(2) 
PARAMETRIC_REPRESENTATION_CONTEXT() REPRESENTATION_CONTEXT('2D SPACE',''
  ) );
#911 = PCURVE('',#694,#912);
#912 = DEFINITIONAL_REPRESENTATION('',(#913),#917);
#913 = LINE('',#914,#915);
#914 = CARTESIAN_POINT('',(73.5,-2.475));
#915 = VECTOR('',#916,1.);
#916 = DIRECTION('',(-0.999433530425,3.365439439187E-02));
#917 = ( GEOMETRIC_REPRESENTATION_CONTEXT(2) 
PARAMETRIC_REPRESENTATION_CONTEXT() REPRESENTATION_CONTEXT('2D SPACE',''
  ) );
#918 = ORIENTED_EDGE('',*,*,#831,.F.);
#919 = ADVANCED_FACE('',(#920),#640,.T.);
#920 = FACE_BOUND('',#921,.F.);
#921 = EDGE_LOOP('',(#922,#923,#924,#925));
#922 = ORIENTED_EDGE('',*,*,#617,.T.);
#923 = ORIENTED_EDGE('',*,*,#734,.T.);
#924 = ORIENTED_EDGE('',*,*,#808,.T.);
#925 = ORIENTED_EDGE('',*,*,#877,.T.);
#926 = ADVANCED_FACE('',(#927),#694,.F.);
#927 = FACE_BOUND('',#928,.T.);
#928 = EDGE_LOOP('',(#929,#930,#931,#932));
#929 = ORIENTED_EDGE('',*,*,#679,.T.);
#930 = ORIENTED_EDGE('',*,*,#784,.T.);
#931 = ORIENTED_EDGE('',*,*,#853,.T.);
#932 = ORIENTED_EDGE('',*,*,#899,.T.);
#933 = ( GEOMETRIC_REPRESENTATION_CONTEXT(3) 
GLOBAL_UNCERTAINTY_ASSIGNED_CONTEXT((#937)) GLOBAL_UNIT_ASSIGNED_CONTEXT
((#934,#935,#936)) REPRESENTATION_CONTEXT('Context #1',
  '3D Context with UNIT and UNCERTAINTY') );
#934 = ( LENGTH_UNIT() NAMED_UNIT(*) SI_UNIT(.MILLI.,.METRE.) );
#935 = ( NAMED_UNIT(*) PLANE_ANGLE_UNIT() SI_UNIT($,.RADIAN.) );
#936 = ( NAMED_UNIT(*) SI_UNIT($,.STERADIAN.) SOLID_ANGLE_UNIT() );
#937 = UNCERTAINTY_MEASURE_WITH_UNIT(LENGTH_MEASURE(1.E-07),#934,
  'distance_accuracy_value','confusion accuracy');
#938 = CONTEXT_DEPENDENT_SHAPE_REPRESENTATION(#939,#941);
#939 = ( REPRESENTATION_RELATIONSHIP('','',#610,#10) 
REPRESENTATION_RELATIONSHIP_WITH_TRANSFORMATION(#940) 
SHAPE_REPRESENTATION_RELATIONSHIP() );
#940 = ITEM_DEFINED_TRANSFORMATION('','',#11,#23);
#941 = PRODUCT_DEFINITION_SHAPE('Placement','Placement of an item',#942
  );
#942 = NEXT_ASSEMBLY_USAGE_OCCURRENCE('3','booster_fin_1','',#5,#605,$);
#943 = PRODUCT_RELATED_PRODUCT_CATEGORY('part',$,(#607));
#944 = CONTEXT_DEPENDENT_SHAPE_REPRESENTATION(#945,#947);
#945 = ( REPRESENTATION_RELATIONSHIP('','',#610,#10) 
REPRESENTATION_RELATIONSHIP_WITH_TRANSFORMATION(#946) 
SHAPE_REPRESENTATION_RELATIONSHIP() );
#946 = ITEM_DEFINED_TRANSFORMATION('','',#11,#27);
#947 = PRODUCT_DEFINITION_SHAPE('Placement','Placement of an item',#948
  );
#948 = NEXT_ASSEMBLY_USAGE_OCCURRENCE('4','booster_fin_2','',#5,#605,$);
#949 = CONTEXT_DEPENDENT_SHAPE_REPRESENTATION(#950,#952);
#950 = ( REPRESENTATION_RELATIONSHIP('','',#610,#10) 
REPRESENTATION_RELATIONSHIP_WITH_TRANSFORMATION(#951) 
SHAPE_REPRESENTATION_RELATIONSHIP() );
#951 = ITEM_DEFINED_TRANSFORMATION('','',#11,#31);
#952 = PRODUCT_DEFINITION_SHAPE('Placement','Placement of an item',#953
  );
#953 = NEXT_ASSEMBLY_USAGE_OCCURRENCE('5','booster_fin_3','',#5,#605,$);
#954 = CONTEXT_DEPENDENT_SHAPE_REPRESENTATION(#955,#957);
#955 = ( REPRESENTATION_RELATIONSHIP('','',#610,#10) 
REPRESENTATION_RELATIONSHIP_WITH_TRANSFORMATION(#956) 
SHAPE_REPRESENTATION_RELATIONSHIP() );
#956 = ITEM_DEFINED_TRANSFORMATION('','',#11,#35);
#957 = PRODUCT_DEFINITION_SHAPE('Placement','Placement of an item',#958
  );
#958 = NEXT_ASSEMBLY_USAGE_OCCURRENCE('6','booster_fin_4','',#5,#605,$);
#959 = SHAPE_DEFINITION_REPRESENTATION(#347,#960);
#960 = SHAPE_REPRESENTATION('',(#15),#339);
#961 = SHAPE_DEFINITION_REPRESENTATION(#600,#962);
#962 = SHAPE_REPRESENTATION('',(#19),#592);
#963 = SHAPE_DEFINITION_REPRESENTATION(#941,#964);
#964 = SHAPE_REPRESENTATION('',(#23),#933);
#965 = SHAPE_DEFINITION_REPRESENTATION(#947,#966);
#966 = SHAPE_REPRESENTATION('',(#27),#933);
#967 = SHAPE_DEFINITION_REPRESENTATION(#952,#968);
#968 = SHAPE_REPRESENTATION('',(#31),#933);
#969 = SHAPE_DEFINITION_REPRESENTATION(#957,#970);
#970 = SHAPE_REPRESENTATION('',(#35),#933);
#971 = SHAPE_DEFINITION_REPRESENTATION(#347,#972);
#972 = SHAPE_REPRESENTATION('',(#15),#339);
#973 = SHAPE_DEFINITION_REPRESENTATION(#600,#974);
#974 = SHAPE_REPRESENTATION('',(#19),#592);
#975 = SHAPE_DEFINITION_REPRESENTATION(#941,#976);
#976 = SHAPE_REPRESENTATION('',(#23),#933);
#977 = SHAPE_DEFINITION_REPRESENTATION(#947,#978);
#978 = SHAPE_REPRESENTATION('',(#27),#933);
#979 = SHAPE_DEFINITION_REPRESENTATION(#952,#980);
#980 = SHAPE_REPRESENTATION('',(#31),#933);
#981 = SHAPE_DEFINITION_REPRESENTATION(#957,#982);
#982 = SHAPE_REPRESENTATION('',(#35),#933);
#983 = MECHANICAL_DESIGN_GEOMETRIC_PRESENTATION_REPRESENTATION('',(#984,
    #992),#339);
#984 = STYLED_ITEM('color',(#985),#53);
#985 = PRESENTATION_STYLE_ASSIGNMENT((#986));
#986 = SURFACE_STYLE_USAGE(.BOTH.,#987);
#987 = SURFACE_SIDE_STYLE('',(#988));
#988 = SURFACE_STYLE_FILL_AREA(#989);
#989 = FILL_AREA_STYLE('',(#990));
#990 = FILL_AREA_STYLE_COLOUR('',#991);
#991 = COLOUR_RGB('',0.650980375594,0.678431390124,0.686274507277);
#992 = OVER_RIDING_STYLED_ITEM('overriding color',(#993),#53,#984);
#993 = PRESENTATION_STYLE_BY_CONTEXT((#994),#972);
#994 = SURFACE_STYLE_USAGE(.BOTH.,#995);
#995 = SURFACE_SIDE_STYLE('',(#996));
#996 = SURFACE_STYLE_FILL_AREA(#997);
#997 = FILL_AREA_STYLE('',(#998));
#998 = FILL_AREA_STYLE_COLOUR('',#999);
#999 = COLOUR_RGB('',0.650980375594,0.678431390124,0.686274507277);
#1000 = MECHANICAL_DESIGN_GEOMETRIC_PRESENTATION_REPRESENTATION('',(
    #1001,#1009),#592);
#1001 = STYLED_ITEM('color',(#1002),#358);
#1002 = PRESENTATION_STYLE_ASSIGNMENT((#1003));
#1003 = SURFACE_STYLE_USAGE(.BOTH.,#1004);
#1004 = SURFACE_SIDE_STYLE('',(#1005));
#1005 = SURFACE_STYLE_FILL_AREA(#1006);
#1006 = FILL_AREA_STYLE('',(#1007));
#1007 = FILL_AREA_STYLE_COLOUR('',#1008);
#1008 = COLOUR_RGB('',0.384313764467,0.423529428806,0.439215717829);
#1009 = OVER_RIDING_STYLED_ITEM('overriding color',(#1010),#358,#1001);
#1010 = PRESENTATION_STYLE_BY_CONTEXT((#1011),#974);
#1011 = SURFACE_STYLE_USAGE(.BOTH.,#1012);
#1012 = SURFACE_SIDE_STYLE('',(#1013));
#1013 = SURFACE_STYLE_FILL_AREA(#1014);
#1014 = FILL_AREA_STYLE('',(#1015));
#1015 = FILL_AREA_STYLE_COLOUR('',#1016);
#1016 = COLOUR_RGB('',0.384313764467,0.423529428806,0.439215717829);
#1017 = MECHANICAL_DESIGN_GEOMETRIC_PRESENTATION_REPRESENTATION('',(
    #1018,#1025,#1032,#1039,#1046,#1053,#1060,#1067),#933);
#1018 = STYLED_ITEM('color',(#1019),#611);
#1019 = PRESENTATION_STYLE_ASSIGNMENT((#1020));
#1020 = SURFACE_STYLE_USAGE(.BOTH.,#1021);
#1021 = SURFACE_SIDE_STYLE('',(#1022));
#1022 = SURFACE_STYLE_FILL_AREA(#1023);
#1023 = FILL_AREA_STYLE('',(#1024));
#1024 = FILL_AREA_STYLE_COLOUR('',#1008);
#1025 = OVER_RIDING_STYLED_ITEM('overriding color',(#1026),#611,#1018);
#1026 = PRESENTATION_STYLE_BY_CONTEXT((#1027),#966);
#1027 = SURFACE_STYLE_USAGE(.BOTH.,#1028);
#1028 = SURFACE_SIDE_STYLE('',(#1029));
#1029 = SURFACE_STYLE_FILL_AREA(#1030);
#1030 = FILL_AREA_STYLE('',(#1031));
#1031 = FILL_AREA_STYLE_COLOUR('',#1008);
#1032 = OVER_RIDING_STYLED_ITEM('overriding color',(#1033),#611,#1018);
#1033 = PRESENTATION_STYLE_BY_CONTEXT((#1034),#968);
#1034 = SURFACE_STYLE_USAGE(.BOTH.,#1035);
#1035 = SURFACE_SIDE_STYLE('',(#1036));
#1036 = SURFACE_STYLE_FILL_AREA(#1037);
#1037 = FILL_AREA_STYLE('',(#1038));
#1038 = FILL_AREA_STYLE_COLOUR('',#1008);
#1039 = OVER_RIDING_STYLED_ITEM('overriding color',(#1040),#611,#1018);
#1040 = PRESENTATION_STYLE_BY_CONTEXT((#1041),#970);
#1041 = SURFACE_STYLE_USAGE(.BOTH.,#1042);
#1042 = SURFACE_SIDE_STYLE('',(#1043));
#1043 = SURFACE_STYLE_FILL_AREA(#1044);
#1044 = FILL_AREA_STYLE('',(#1045));
#1045 = FILL_AREA_STYLE_COLOUR('',#1008);
#1046 = OVER_RIDING_STYLED_ITEM('overriding color',(#1047),#611,#1018);
#1047 = PRESENTATION_STYLE_BY_CONTEXT((#1048),#976);
#1048 = SURFACE_STYLE_USAGE(.BOTH.,#1049);
#1049 = SURFACE_SIDE_STYLE('',(#1050));
#1050 = SURFACE_STYLE_FILL_AREA(#1051);
#1051 = FILL_AREA_STYLE('',(#1052));
#1052 = FILL_AREA_STYLE_COLOUR('',#1016);
#1053 = OVER_RIDING_STYLED_ITEM('overriding color',(#1054),#611,#1018);
#1054 = PRESENTATION_STYLE_BY_CONTEXT((#1055),#978);
#1055 = SURFACE_STYLE_USAGE(.BOTH.,#1056);
#1056 = SURFACE_SIDE_STYLE('',(#1057));
#1057 = SURFACE_STYLE_FILL_AREA(#1058);
#1058 = FILL_AREA_STYLE('',(#1059));
#1059 = FILL_AREA_STYLE_COLOUR('',#1016);
#1060 = OVER_RIDING_STYLED_ITEM('overriding color',(#1061),#611,#1018);
#1061 = PRESENTATION_STYLE_BY_CONTEXT((#1062),#980);
#1062 = SURFACE_STYLE_USAGE(.BOTH.,#1063);
#1063 = SURFACE_SIDE_STYLE('',(#1064));
#1064 = SURFACE_STYLE_FILL_AREA(#1065);
#1065 = FILL_AREA_STYLE('',(#1066));
#1066 = FILL_AREA_STYLE_COLOUR('',#1016);
#1067 = OVER_RIDING_STYLED_ITEM('overriding color',(#1068),#611,#1018);
#1068 = PRESENTATION_STYLE_BY_CONTEXT((#1069),#982);
#1069 = SURFACE_STYLE_USAGE(.BOTH.,#1070);
#1070 = SURFACE_SIDE_STYLE('',(#1071));
#1071 = SURFACE_STYLE_FILL_AREA(#1072);
#1072 = FILL_AREA_STYLE('',(#1073));
#1073 = FILL_AREA_STYLE_COLOUR('',#1016);
ENDSEC;
END-ISO-10303-21;
