ISO-10303-21;
HEADER;
FILE_DESCRIPTION(('Open CASCADE Model'),'2;1');
FILE_NAME('Halberd_Concept_Pod_Booster','2000-01-01T00:00:00',('Author')
  ,('Open CASCADE'),'Open CASCADE STEP processor 7.9','cadgen','Unknown'
  );
FILE_SCHEMA(('AUTOMOTIVE_DESIGN { 1 0 10303 214 1 1 1 1 }'));
ENDSEC;
DATA;
#1 = APPLICATION_PROTOCOL_DEFINITION('international standard',
  'automotive_design',2000,#2);
#2 = APPLICATION_CONTEXT(
  'core data for automotive mechanical design processes');
#3 = SHAPE_DEFINITION_REPRESENTATION(#4,#10);
#4 = PRODUCT_DEFINITION_SHAPE('','',#5);
#5 = PRODUCT_DEFINITION('design','',#6,#9);
#6 = PRODUCT_DEFINITION_FORMATION('','',#7);
#7 = PRODUCT('Halberd_Concept_Pod_Booster','Halberd_Concept_Pod_Booster'
  ,'',(#8));
#8 = PRODUCT_CONTEXT('',#2,'mechanical');
#9 = PRODUCT_DEFINITION_CONTEXT('part definition',#2,'design');
#10 = SHAPE_REPRESENTATION('',(#11,#15,#19,#23,#27,#31),#35);
#11 = AXIS2_PLACEMENT_3D('',#12,#13,#14);
#12 = CARTESIAN_POINT('',(0.,0.,0.));
#13 = DIRECTION('',(0.,0.,1.));
#14 = DIRECTION('',(1.,0.,-0.));
#15 = AXIS2_PLACEMENT_3D('',#16,#17,#18);
#16 = CARTESIAN_POINT('',(0.,0.,0.));
#17 = DIRECTION('',(0.,0.,1.));
#18 = DIRECTION('',(1.,0.,0.));
#19 = AXIS2_PLACEMENT_3D('',#20,#21,#22);
#20 = CARTESIAN_POINT('',(0.,0.,0.));
#21 = DIRECTION('',(0.,0.,1.));
#22 = DIRECTION('',(1.,0.,0.));
#23 = AXIS2_PLACEMENT_3D('',#24,#25,#26);
#24 = CARTESIAN_POINT('',(0.,0.,0.));
#25 = DIRECTION('',(-0.,0.866025403784,0.5));
#26 = DIRECTION('',(1.,0.,0.));
#27 = AXIS2_PLACEMENT_3D('',#28,#29,#30);
#28 = CARTESIAN_POINT('',(0.,0.,0.));
#29 = DIRECTION('',(0.,1.224646799147E-16,-1.));
#30 = DIRECTION('',(1.,0.,0.));
#31 = AXIS2_PLACEMENT_3D('',#32,#33,#34);
#32 = CARTESIAN_POINT('',(0.,0.,0.));
#33 = DIRECTION('',(0.,-0.866025403784,0.5));
#34 = DIRECTION('',(1.,0.,0.));
#35 = ( GEOMETRIC_REPRESENTATION_CONTEXT(3) 
GLOBAL_UNCERTAINTY_ASSIGNED_CONTEXT((#39)) GLOBAL_UNIT_ASSIGNED_CONTEXT(
(#36,#37,#38)) REPRESENTATION_CONTEXT('Context #1',
  '3D Context with UNIT and UNCERTAINTY') );
#36 = ( LENGTH_UNIT() NAMED_UNIT(*) SI_UNIT(.MILLI.,.METRE.) );
#37 = ( NAMED_UNIT(*) PLANE_ANGLE_UNIT() SI_UNIT($,.RADIAN.) );
#38 = ( NAMED_UNIT(*) SI_UNIT($,.STERADIAN.) SOLID_ANGLE_UNIT() );
#39 = UNCERTAINTY_MEASURE_WITH_UNIT(LENGTH_MEASURE(1.E-07),#36,
  'distance_accuracy_value','confusion accuracy');
#40 = PRODUCT_RELATED_PRODUCT_CATEGORY('part',$,(#7));
#41 = SHAPE_DEFINITION_REPRESENTATION(#42,#48);
#42 = PRODUCT_DEFINITION_SHAPE('','',#43);
#43 = PRODUCT_DEFINITION('design','',#44,#47);
#44 = PRODUCT_DEFINITION_FORMATION('','',#45);
#45 = PRODUCT('booster_body','booster_body','',(#46));
#46 = PRODUCT_CONTEXT('',#2,'mechanical');
#47 = PRODUCT_DEFINITION_CONTEXT('part definition',#2,'design');
#48 = ADVANCED_BREP_SHAPE_REPRESENTATION('',(#11,#49),#335);
#49 = MANIFOLD_SOLID_BREP('',#50);
#50 = CLOSED_SHELL('',(#51,#136,#140,#192,#244,#279,#331));
#51 = ADVANCED_FACE('',(#52),#65,.T.);
#52 = FACE_BOUND('',#53,.T.);
#53 = EDGE_LOOP('',(#54,#88,#108,#135));
#54 = ORIENTED_EDGE('',*,*,#55,.T.);
#55 = EDGE_CURVE('',#56,#56,#58,.T.);
#56 = VERTEX_POINT('',#57);
#57 = CARTESIAN_POINT('',(-1.5735E+03,0.,-103.));
#58 = SURFACE_CURVE('',#59,(#64,#76),.PCURVE_S1.);
#59 = CIRCLE('',#60,103.);
#60 = AXIS2_PLACEMENT_3D('',#61,#62,#63);
#61 = CARTESIAN_POINT('',(-1.5735E+03,0.,0.));
#62 = DIRECTION('',(1.,-0.,1.110223024625E-16));
#63 = DIRECTION('',(1.110223024625E-16,0.,-1.));
#64 = PCURVE('',#65,#70);
#65 = CONICAL_SURFACE('',#66,103.,4.046373154766E-02);
#66 = AXIS2_PLACEMENT_3D('',#67,#68,#69);
#67 = CARTESIAN_POINT('',(-1.5735E+03,0.,0.));
#68 = DIRECTION('',(1.,-0.,1.110223024625E-16));
#69 = DIRECTION('',(1.110223024625E-16,0.,-1.));
#70 = DEFINITIONAL_REPRESENTATION('',(#71),#75);
#71 = LINE('',#72,#73);
#72 = CARTESIAN_POINT('',(0.,0.));
#73 = VECTOR('',#74,1.);
#74 = DIRECTION('',(1.,0.));
#75 = ( GEOMETRIC_REPRESENTATION_CONTEXT(2) 
PARAMETRIC_REPRESENTATION_CONTEXT() REPRESENTATION_CONTEXT('2D SPACE',''
  ) );
#76 = PCURVE('',#77,#82);
#77 = PLANE('',#78);
#78 = AXIS2_PLACEMENT_3D('',#79,#80,#81);
#79 = CARTESIAN_POINT('',(-1.5735E+03,0.,0.));
#80 = DIRECTION('',(1.,-0.,1.110223024625E-16));
#81 = DIRECTION('',(1.110223024625E-16,0.,-1.));
#82 = DEFINITIONAL_REPRESENTATION('',(#83),#87);
#83 = CIRCLE('',#84,103.);
#84 = AXIS2_PLACEMENT_2D('',#85,#86);
#85 = CARTESIAN_POINT('',(0.,0.));
#86 = DIRECTION('',(1.,0.));
#87 = ( GEOMETRIC_REPRESENTATION_CONTEXT(2) 
PARAMETRIC_REPRESENTATION_CONTEXT() REPRESENTATION_CONTEXT('2D SPACE',''
  ) );
#88 = ORIENTED_EDGE('',*,*,#89,.T.);
#89 = EDGE_CURVE('',#56,#90,#92,.T.);
#90 = VERTEX_POINT('',#91);
#91 = CARTESIAN_POINT('',(-1.45E+03,0.,-108.));
#92 = SEAM_CURVE('',#93,(#96,#102),.PCURVE_S1.);
#93 = B_SPLINE_CURVE_WITH_KNOTS('',1,(#94,#95),.UNSPECIFIED.,.F.,.F.,(2,
    2),(0.,1.),.PIECEWISE_BEZIER_KNOTS.);
#94 = CARTESIAN_POINT('',(-1.5735E+03,0.,-103.));
#95 = CARTESIAN_POINT('',(-1.45E+03,0.,-108.));
#96 = PCURVE('',#65,#97);
#97 = DEFINITIONAL_REPRESENTATION('',(#98),#101);
#98 = B_SPLINE_CURVE_WITH_KNOTS('',1,(#99,#100),.UNSPECIFIED.,.F.,.F.,(2
    ,2),(0.,1.),.PIECEWISE_BEZIER_KNOTS.);
#99 = CARTESIAN_POINT('',(6.28318530718,0.));
#100 = CARTESIAN_POINT('',(6.28318530718,123.5));
#101 = ( GEOMETRIC_REPRESENTATION_CONTEXT(2) 
PARAMETRIC_REPRESENTATION_CONTEXT() REPRESENTATION_CONTEXT('2D SPACE',''
  ) );
#102 = PCURVE('',#65,#103);
#103 = DEFINITIONAL_REPRESENTATION('',(#104),#107);
#104 = B_SPLINE_CURVE_WITH_KNOTS('',1,(#105,#106),.UNSPECIFIED.,.F.,.F.,
  (2,2),(0.,1.),.PIECEWISE_BEZIER_KNOTS.);
#105 = CARTESIAN_POINT('',(0.,0.));
#106 = CARTESIAN_POINT('',(0.,123.5));
#107 = ( GEOMETRIC_REPRESENTATION_CONTEXT(2) 
PARAMETRIC_REPRESENTATION_CONTEXT() REPRESENTATION_CONTEXT('2D SPACE',''
  ) );
#108 = ORIENTED_EDGE('',*,*,#109,.F.);
#109 = EDGE_CURVE('',#90,#90,#110,.T.);
#110 = SURFACE_CURVE('',#111,(#116,#123),.PCURVE_S1.);
#111 = CIRCLE('',#112,108.);
#112 = AXIS2_PLACEMENT_3D('',#113,#114,#115);
#113 = CARTESIAN_POINT('',(-1.45E+03,0.,0.));
#114 = DIRECTION('',(1.,-0.,1.110223024625E-16));
#115 = DIRECTION('',(1.110223024625E-16,0.,-1.));
#116 = PCURVE('',#65,#117);
#117 = DEFINITIONAL_REPRESENTATION('',(#118),#122);
#118 = LINE('',#119,#120);
#119 = CARTESIAN_POINT('',(0.,123.5));
#120 = VECTOR('',#121,1.);
#121 = DIRECTION('',(1.,0.));
#122 = ( GEOMETRIC_REPRESENTATION_CONTEXT(2) 
PARAMETRIC_REPRESENTATION_CONTEXT() REPRESENTATION_CONTEXT('2D SPACE',''
  ) );
#123 = PCURVE('',#124,#129);
#124 = CYLINDRICAL_SURFACE('',#125,108.);
#125 = AXIS2_PLACEMENT_3D('',#126,#127,#128);
#126 = CARTESIAN_POINT('',(-1.45E+03,0.,0.));
#127 = DIRECTION('',(1.,-0.,1.110223024625E-16));
#128 = DIRECTION('',(1.110223024625E-16,0.,-1.));
#129 = DEFINITIONAL_REPRESENTATION('',(#130),#134);
#130 = LINE('',#131,#132);
#131 = CARTESIAN_POINT('',(0.,0.));
#132 = VECTOR('',#133,1.);
#133 = DIRECTION('',(1.,0.));
#134 = ( GEOMETRIC_REPRESENTATION_CONTEXT(2) 
PARAMETRIC_REPRESENTATION_CONTEXT() REPRESENTATION_CONTEXT('2D SPACE',''
  ) );
#135 = ORIENTED_EDGE('',*,*,#89,.F.);
#136 = ADVANCED_FACE('',(#137),#77,.F.);
#137 = FACE_BOUND('',#138,.F.);
#138 = EDGE_LOOP('',(#139));
#139 = ORIENTED_EDGE('',*,*,#55,.T.);
#140 = ADVANCED_FACE('',(#141),#124,.T.);
#141 = FACE_BOUND('',#142,.T.);
#142 = EDGE_LOOP('',(#143,#144,#164,#191));
#143 = ORIENTED_EDGE('',*,*,#109,.T.);
#144 = ORIENTED_EDGE('',*,*,#145,.T.);
#145 = EDGE_CURVE('',#90,#146,#148,.T.);
#146 = VERTEX_POINT('',#147);
#147 = CARTESIAN_POINT('',(-500.,0.,-108.));
#148 = SEAM_CURVE('',#149,(#152,#158),.PCURVE_S1.);
#149 = B_SPLINE_CURVE_WITH_KNOTS('',1,(#150,#151),.UNSPECIFIED.,.F.,.F.,
  (2,2),(0.,1.),.PIECEWISE_BEZIER_KNOTS.);
#150 = CARTESIAN_POINT('',(-1.45E+03,0.,-108.));
#151 = CARTESIAN_POINT('',(-500.,0.,-108.));
#152 = PCURVE('',#124,#153);
#153 = DEFINITIONAL_REPRESENTATION('',(#154),#157);
#154 = B_SPLINE_CURVE_WITH_KNOTS('',1,(#155,#156),.UNSPECIFIED.,.F.,.F.,
  (2,2),(0.,1.),.PIECEWISE_BEZIER_KNOTS.);
#155 = CARTESIAN_POINT('',(6.28318530718,0.));
#156 = CARTESIAN_POINT('',(6.28318530718,950.));
#157 = ( GEOMETRIC_REPRESENTATION_CONTEXT(2) 
PARAMETRIC_REPRESENTATION_CONTEXT() REPRESENTATION_CONTEXT('2D SPACE',''
  ) );
#158 = PCURVE('',#124,#159);
#159 = DEFINITIONAL_REPRESENTATION('',(#160),#163);
#160 = B_SPLINE_CURVE_WITH_KNOTS('',1,(#161,#162),.UNSPECIFIED.,.F.,.F.,
  (2,2),(0.,1.),.PIECEWISE_BEZIER_KNOTS.);
#161 = CARTESIAN_POINT('',(0.,0.));
#162 = CARTESIAN_POINT('',(0.,950.));
#163 = ( GEOMETRIC_REPRESENTATION_CONTEXT(2) 
PARAMETRIC_REPRESENTATION_CONTEXT() REPRESENTATION_CONTEXT('2D SPACE',''
  ) );
#164 = ORIENTED_EDGE('',*,*,#165,.F.);
#165 = EDGE_CURVE('',#146,#146,#166,.T.);
#166 = SURFACE_CURVE('',#167,(#172,#179),.PCURVE_S1.);
#167 = CIRCLE('',#168,108.);
#168 = AXIS2_PLACEMENT_3D('',#169,#170,#171);
#169 = CARTESIAN_POINT('',(-500.,0.,0.));
#170 = DIRECTION('',(1.,-0.,1.110223024625E-16));
#171 = DIRECTION('',(1.110223024625E-16,0.,-1.));
#172 = PCURVE('',#124,#173);
#173 = DEFINITIONAL_REPRESENTATION('',(#174),#178);
#174 = LINE('',#175,#176);
#175 = CARTESIAN_POINT('',(0.,950.));
#176 = VECTOR('',#177,1.);
#177 = DIRECTION('',(1.,0.));
#178 = ( GEOMETRIC_REPRESENTATION_CONTEXT(2) 
PARAMETRIC_REPRESENTATION_CONTEXT() REPRESENTATION_CONTEXT('2D SPACE',''
  ) );
#179 = PCURVE('',#180,#185);
#180 = CONICAL_SURFACE('',#181,108.,0.121867062406);
#181 = AXIS2_PLACEMENT_3D('',#182,#183,#184);
#182 = CARTESIAN_POINT('',(-500.,0.,0.));
#183 = DIRECTION('',(-1.,0.,-1.110223024625E-16));
#184 = DIRECTION('',(1.110223024625E-16,0.,-1.));
#185 = DEFINITIONAL_REPRESENTATION('',(#186),#190);
#186 = LINE('',#187,#188);
#187 = CARTESIAN_POINT('',(-0.,-0.));
#188 = VECTOR('',#189,1.);
#189 = DIRECTION('',(-1.,-0.));
#190 = ( GEOMETRIC_REPRESENTATION_CONTEXT(2) 
PARAMETRIC_REPRESENTATION_CONTEXT() REPRESENTATION_CONTEXT('2D SPACE',''
  ) );
#191 = ORIENTED_EDGE('',*,*,#145,.F.);
#192 = ADVANCED_FACE('',(#193),#180,.T.);
#193 = FACE_BOUND('',#194,.T.);
#194 = EDGE_LOOP('',(#195,#196,#216,#243));
#195 = ORIENTED_EDGE('',*,*,#165,.T.);
#196 = ORIENTED_EDGE('',*,*,#197,.T.);
#197 = EDGE_CURVE('',#146,#198,#200,.T.);
#198 = VERTEX_POINT('',#199);
#199 = CARTESIAN_POINT('',(-336.7,0.,-88.));
#200 = SEAM_CURVE('',#201,(#204,#210),.PCURVE_S1.);
#201 = B_SPLINE_CURVE_WITH_KNOTS('',1,(#202,#203),.UNSPECIFIED.,.F.,.F.,
  (2,2),(0.,1.),.PIECEWISE_BEZIER_KNOTS.);
#202 = CARTESIAN_POINT('',(-500.,0.,-108.));
#203 = CARTESIAN_POINT('',(-336.7,0.,-88.));
#204 = PCURVE('',#180,#205);
#205 = DEFINITIONAL_REPRESENTATION('',(#206),#209);
#206 = B_SPLINE_CURVE_WITH_KNOTS('',1,(#207,#208),.UNSPECIFIED.,.F.,.F.,
  (2,2),(0.,1.),.PIECEWISE_BEZIER_KNOTS.);
#207 = CARTESIAN_POINT('',(-6.28318530718,0.));
#208 = CARTESIAN_POINT('',(-6.28318530718,-163.3));
#209 = ( GEOMETRIC_REPRESENTATION_CONTEXT(2) 
PARAMETRIC_REPRESENTATION_CONTEXT() REPRESENTATION_CONTEXT('2D SPACE',''
  ) );
#210 = PCURVE('',#180,#211);
#211 = DEFINITIONAL_REPRESENTATION('',(#212),#215);
#212 = B_SPLINE_CURVE_WITH_KNOTS('',1,(#213,#214),.UNSPECIFIED.,.F.,.F.,
  (2,2),(0.,1.),.PIECEWISE_BEZIER_KNOTS.);
#213 = CARTESIAN_POINT('',(0.,0.));
#214 = CARTESIAN_POINT('',(0.,-163.3));
#215 = ( GEOMETRIC_REPRESENTATION_CONTEXT(2) 
PARAMETRIC_REPRESENTATION_CONTEXT() REPRESENTATION_CONTEXT('2D SPACE',''
  ) );
#216 = ORIENTED_EDGE('',*,*,#217,.F.);
#217 = EDGE_CURVE('',#198,#198,#218,.T.);
#218 = SURFACE_CURVE('',#219,(#224,#231),.PCURVE_S1.);
#219 = CIRCLE('',#220,88.);
#220 = AXIS2_PLACEMENT_3D('',#221,#222,#223);
#221 = CARTESIAN_POINT('',(-336.7,0.,0.));
#222 = DIRECTION('',(1.,-0.,1.110223024625E-16));
#223 = DIRECTION('',(1.110223024625E-16,0.,-1.));
#224 = PCURVE('',#180,#225);
#225 = DEFINITIONAL_REPRESENTATION('',(#226),#230);
#226 = LINE('',#227,#228);
#227 = CARTESIAN_POINT('',(-0.,-163.3));
#228 = VECTOR('',#229,1.);
#229 = DIRECTION('',(-1.,-0.));
#230 = ( GEOMETRIC_REPRESENTATION_CONTEXT(2) 
PARAMETRIC_REPRESENTATION_CONTEXT() REPRESENTATION_CONTEXT('2D SPACE',''
  ) );
#231 = PCURVE('',#232,#237);
#232 = PLANE('',#233);
#233 = AXIS2_PLACEMENT_3D('',#234,#235,#236);
#234 = CARTESIAN_POINT('',(-336.7,0.,0.));
#235 = DIRECTION('',(1.,-0.,1.110223024625E-16));
#236 = DIRECTION('',(1.110223024625E-16,0.,-1.));
#237 = DEFINITIONAL_REPRESENTATION('',(#238),#242);
#238 = CIRCLE('',#239,88.);
#239 = AXIS2_PLACEMENT_2D('',#240,#241);
#240 = CARTESIAN_POINT('',(0.,0.));
#241 = DIRECTION('',(1.,0.));
#242 = ( GEOMETRIC_REPRESENTATION_CONTEXT(2) 
PARAMETRIC_REPRESENTATION_CONTEXT() REPRESENTATION_CONTEXT('2D SPACE',''
  ) );
#243 = ORIENTED_EDGE('',*,*,#197,.F.);
#244 = ADVANCED_FACE('',(#245,#248),#232,.T.);
#245 = FACE_BOUND('',#246,.T.);
#246 = EDGE_LOOP('',(#247));
#247 = ORIENTED_EDGE('',*,*,#217,.T.);
#248 = FACE_BOUND('',#249,.T.);
#249 = EDGE_LOOP('',(#250));
#250 = ORIENTED_EDGE('',*,*,#251,.F.);
#251 = EDGE_CURVE('',#252,#252,#254,.T.);
#252 = VERTEX_POINT('',#253);
#253 = CARTESIAN_POINT('',(-336.7,0.,-66.23076923076));
#254 = SURFACE_CURVE('',#255,(#260,#267),.PCURVE_S1.);
#255 = CIRCLE('',#256,66.230769230769);
#256 = AXIS2_PLACEMENT_3D('',#257,#258,#259);
#257 = CARTESIAN_POINT('',(-336.7,0.,1.33226762955E-15));
#258 = DIRECTION('',(1.,-0.,1.110223024625E-16));
#259 = DIRECTION('',(1.110223024625E-16,0.,-1.));
#260 = PCURVE('',#232,#261);
#261 = DEFINITIONAL_REPRESENTATION('',(#262),#266);
#262 = CIRCLE('',#263,66.230769230769);
#263 = AXIS2_PLACEMENT_2D('',#264,#265);
#264 = CARTESIAN_POINT('',(-1.33226762955E-15,0.));
#265 = DIRECTION('',(1.,0.));
#266 = ( GEOMETRIC_REPRESENTATION_CONTEXT(2) 
PARAMETRIC_REPRESENTATION_CONTEXT() REPRESENTATION_CONTEXT('2D SPACE',''
  ) );
#267 = PCURVE('',#268,#273);
#268 = CONICAL_SURFACE('',#269,57.,0.655695626242);
#269 = AXIS2_PLACEMENT_3D('',#270,#271,#272);
#270 = CARTESIAN_POINT('',(-348.7,0.,0.));
#271 = DIRECTION('',(1.,-0.,1.110223024625E-16));
#272 = DIRECTION('',(1.110223024625E-16,0.,-1.));
#273 = DEFINITIONAL_REPRESENTATION('',(#274),#278);
#274 = LINE('',#275,#276);
#275 = CARTESIAN_POINT('',(0.,12.));
#276 = VECTOR('',#277,1.);
#277 = DIRECTION('',(1.,0.));
#278 = ( GEOMETRIC_REPRESENTATION_CONTEXT(2) 
PARAMETRIC_REPRESENTATION_CONTEXT() REPRESENTATION_CONTEXT('2D SPACE',''
  ) );
#279 = ADVANCED_FACE('',(#280),#268,.F.);
#280 = FACE_BOUND('',#281,.F.);
#281 = EDGE_LOOP('',(#282,#302,#329,#330));
#282 = ORIENTED_EDGE('',*,*,#283,.F.);
#283 = EDGE_CURVE('',#284,#252,#286,.T.);
#284 = VERTEX_POINT('',#285);
#285 = CARTESIAN_POINT('',(-348.7,0.,-57.));
#286 = SEAM_CURVE('',#287,(#290,#296),.PCURVE_S1.);
#287 = B_SPLINE_CURVE_WITH_KNOTS('',1,(#288,#289),.UNSPECIFIED.,.F.,.F.,
  (2,2),(0.,1.),.PIECEWISE_BEZIER_KNOTS.);
#288 = CARTESIAN_POINT('',(-348.7,0.,-57.));
#289 = CARTESIAN_POINT('',(-335.7,0.,-67.));
#290 = PCURVE('',#268,#291);
#291 = DEFINITIONAL_REPRESENTATION('',(#292),#295);
#292 = B_SPLINE_CURVE_WITH_KNOTS('',1,(#293,#294),.UNSPECIFIED.,.F.,.F.,
  (2,2),(0.,1.),.PIECEWISE_BEZIER_KNOTS.);
#293 = CARTESIAN_POINT('',(0.,0.));
#294 = CARTESIAN_POINT('',(0.,13.));
#295 = ( GEOMETRIC_REPRESENTATION_CONTEXT(2) 
PARAMETRIC_REPRESENTATION_CONTEXT() REPRESENTATION_CONTEXT('2D SPACE',''
  ) );
#296 = PCURVE('',#268,#297);
#297 = DEFINITIONAL_REPRESENTATION('',(#298),#301);
#298 = B_SPLINE_CURVE_WITH_KNOTS('',1,(#299,#300),.UNSPECIFIED.,.F.,.F.,
  (2,2),(0.,1.),.PIECEWISE_BEZIER_KNOTS.);
#299 = CARTESIAN_POINT('',(6.28318530718,0.));
#300 = CARTESIAN_POINT('',(6.28318530718,13.));
#301 = ( GEOMETRIC_REPRESENTATION_CONTEXT(2) 
PARAMETRIC_REPRESENTATION_CONTEXT() REPRESENTATION_CONTEXT('2D SPACE',''
  ) );
#302 = ORIENTED_EDGE('',*,*,#303,.T.);
#303 = EDGE_CURVE('',#284,#284,#304,.T.);
#304 = SURFACE_CURVE('',#305,(#310,#317),.PCURVE_S1.);
#305 = CIRCLE('',#306,57.);
#306 = AXIS2_PLACEMENT_3D('',#307,#308,#309);
#307 = CARTESIAN_POINT('',(-348.7,0.,0.));
#308 = DIRECTION('',(1.,-0.,1.110223024625E-16));
#309 = DIRECTION('',(1.110223024625E-16,0.,-1.));
#310 = PCURVE('',#268,#311);
#311 = DEFINITIONAL_REPRESENTATION('',(#312),#316);
#312 = LINE('',#313,#314);
#313 = CARTESIAN_POINT('',(0.,0.));
#314 = VECTOR('',#315,1.);
#315 = DIRECTION('',(1.,0.));
#316 = ( GEOMETRIC_REPRESENTATION_CONTEXT(2) 
PARAMETRIC_REPRESENTATION_CONTEXT() REPRESENTATION_CONTEXT('2D SPACE',''
  ) );
#317 = PCURVE('',#318,#323);
#318 = PLANE('',#319);
#319 = AXIS2_PLACEMENT_3D('',#320,#321,#322);
#320 = CARTESIAN_POINT('',(-348.7,0.,0.));
#321 = DIRECTION('',(1.,-0.,1.110223024625E-16));
#322 = DIRECTION('',(1.110223024625E-16,0.,-1.));
#323 = DEFINITIONAL_REPRESENTATION('',(#324),#328);
#324 = CIRCLE('',#325,57.);
#325 = AXIS2_PLACEMENT_2D('',#326,#327);
#326 = CARTESIAN_POINT('',(0.,0.));
#327 = DIRECTION('',(1.,0.));
#328 = ( GEOMETRIC_REPRESENTATION_CONTEXT(2) 
PARAMETRIC_REPRESENTATION_CONTEXT() REPRESENTATION_CONTEXT('2D SPACE',''
  ) );
#329 = ORIENTED_EDGE('',*,*,#283,.T.);
#330 = ORIENTED_EDGE('',*,*,#251,.F.);
#331 = ADVANCED_FACE('',(#332),#318,.T.);
#332 = FACE_BOUND('',#333,.T.);
#333 = EDGE_LOOP('',(#334));
#334 = ORIENTED_EDGE('',*,*,#303,.T.);
#335 = ( GEOMETRIC_REPRESENTATION_CONTEXT(3) 
GLOBAL_UNCERTAINTY_ASSIGNED_CONTEXT((#339)) GLOBAL_UNIT_ASSIGNED_CONTEXT
((#336,#337,#338)) REPRESENTATION_CONTEXT('Context #1',
  '3D Context with UNIT and UNCERTAINTY') );
#336 = ( LENGTH_UNIT() NAMED_UNIT(*) SI_UNIT(.MILLI.,.METRE.) );
#337 = ( NAMED_UNIT(*) PLANE_ANGLE_UNIT() SI_UNIT($,.RADIAN.) );
#338 = ( NAMED_UNIT(*) SI_UNIT($,.STERADIAN.) SOLID_ANGLE_UNIT() );
#339 = UNCERTAINTY_MEASURE_WITH_UNIT(LENGTH_MEASURE(1.E-07),#336,
  'distance_accuracy_value','confusion accuracy');
#340 = CONTEXT_DEPENDENT_SHAPE_REPRESENTATION(#341,#343);
#341 = ( REPRESENTATION_RELATIONSHIP('','',#48,#10) 
REPRESENTATION_RELATIONSHIP_WITH_TRANSFORMATION(#342) 
SHAPE_REPRESENTATION_RELATIONSHIP() );
#342 = ITEM_DEFINED_TRANSFORMATION('','',#11,#15);
#343 = PRODUCT_DEFINITION_SHAPE('Placement','Placement of an item',#344
  );
#344 = NEXT_ASSEMBLY_USAGE_OCCURRENCE('1','booster_body','',#5,#43,$);
#345 = PRODUCT_RELATED_PRODUCT_CATEGORY('part',$,(#45));
#346 = SHAPE_DEFINITION_REPRESENTATION(#347,#353);
#347 = PRODUCT_DEFINITION_SHAPE('','',#348);
#348 = PRODUCT_DEFINITION('design','',#349,#352);
#349 = PRODUCT_DEFINITION_FORMATION('','',#350);
#350 = PRODUCT('booster_nozzle','booster_nozzle','',(#351));
#351 = PRODUCT_CONTEXT('',#2,'mechanical');
#352 = PRODUCT_DEFINITION_CONTEXT('part definition',#2,'design');
#353 = ADVANCED_BREP_SHAPE_REPRESENTATION('',(#11,#354),#588);
#354 = MANIFOLD_SOLID_BREP('',#355);
#355 = CLOSED_SHELL('',(#356,#441,#476,#480,#532,#584));
#356 = ADVANCED_FACE('',(#357),#370,.T.);
#357 = FACE_BOUND('',#358,.T.);
#358 = EDGE_LOOP('',(#359,#393,#413,#440));
#359 = ORIENTED_EDGE('',*,*,#360,.T.);
#360 = EDGE_CURVE('',#361,#361,#363,.T.);
#361 = VERTEX_POINT('',#362);
#362 = CARTESIAN_POINT('',(-1.6835E+03,0.,-103.));
#363 = SURFACE_CURVE('',#364,(#369,#381),.PCURVE_S1.);
#364 = CIRCLE('',#365,103.);
#365 = AXIS2_PLACEMENT_3D('',#366,#367,#368);
#366 = CARTESIAN_POINT('',(-1.6835E+03,0.,0.));
#367 = DIRECTION('',(1.,-0.,1.110223024625E-16));
#368 = DIRECTION('',(1.110223024625E-16,0.,-1.));
#369 = PCURVE('',#370,#375);
#370 = CYLINDRICAL_SURFACE('',#371,103.);
#371 = AXIS2_PLACEMENT_3D('',#372,#373,#374);
#372 = CARTESIAN_POINT('',(-1.6835E+03,0.,0.));
#373 = DIRECTION('',(1.,-0.,1.110223024625E-16));
#374 = DIRECTION('',(1.110223024625E-16,0.,-1.));
#375 = DEFINITIONAL_REPRESENTATION('',(#376),#380);
#376 = LINE('',#377,#378);
#377 = CARTESIAN_POINT('',(0.,0.));
#378 = VECTOR('',#379,1.);
#379 = DIRECTION('',(1.,0.));
#380 = ( GEOMETRIC_REPRESENTATION_CONTEXT(2) 
PARAMETRIC_REPRESENTATION_CONTEXT() REPRESENTATION_CONTEXT('2D SPACE',''
  ) );
#381 = PCURVE('',#382,#387);
#382 = PLANE('',#383);
#383 = AXIS2_PLACEMENT_3D('',#384,#385,#386);
#384 = CARTESIAN_POINT('',(-1.6835E+03,0.,0.));
#385 = DIRECTION('',(1.,-0.,1.110223024625E-16));
#386 = DIRECTION('',(1.110223024625E-16,0.,-1.));
#387 = DEFINITIONAL_REPRESENTATION('',(#388),#392);
#388 = CIRCLE('',#389,103.);
#389 = AXIS2_PLACEMENT_2D('',#390,#391);
#390 = CARTESIAN_POINT('',(0.,0.));
#391 = DIRECTION('',(1.,0.));
#392 = ( GEOMETRIC_REPRESENTATION_CONTEXT(2) 
PARAMETRIC_REPRESENTATION_CONTEXT() REPRESENTATION_CONTEXT('2D SPACE',''
  ) );
#393 = ORIENTED_EDGE('',*,*,#394,.T.);
#394 = EDGE_CURVE('',#361,#395,#397,.T.);
#395 = VERTEX_POINT('',#396);
#396 = CARTESIAN_POINT('',(-1.5735E+03,0.,-103.));
#397 = SEAM_CURVE('',#398,(#401,#407),.PCURVE_S1.);
#398 = B_SPLINE_CURVE_WITH_KNOTS('',1,(#399,#400),.UNSPECIFIED.,.F.,.F.,
  (2,2),(0.,1.),.PIECEWISE_BEZIER_KNOTS.);
#399 = CARTESIAN_POINT('',(-1.6835E+03,0.,-103.));
#400 = CARTESIAN_POINT('',(-1.5735E+03,0.,-103.));
#401 = PCURVE('',#370,#402);
#402 = DEFINITIONAL_REPRESENTATION('',(#403),#406);
#403 = B_SPLINE_CURVE_WITH_KNOTS('',1,(#404,#405),.UNSPECIFIED.,.F.,.F.,
  (2,2),(0.,1.),.PIECEWISE_BEZIER_KNOTS.);
#404 = CARTESIAN_POINT('',(6.28318530718,0.));
#405 = CARTESIAN_POINT('',(6.28318530718,110.));
#406 = ( GEOMETRIC_REPRESENTATION_CONTEXT(2) 
PARAMETRIC_REPRESENTATION_CONTEXT() REPRESENTATION_CONTEXT('2D SPACE',''
  ) );
#407 = PCURVE('',#370,#408);
#408 = DEFINITIONAL_REPRESENTATION('',(#409),#412);
#409 = B_SPLINE_CURVE_WITH_KNOTS('',1,(#410,#411),.UNSPECIFIED.,.F.,.F.,
  (2,2),(0.,1.),.PIECEWISE_BEZIER_KNOTS.);
#410 = CARTESIAN_POINT('',(0.,0.));
#411 = CARTESIAN_POINT('',(0.,110.));
#412 = ( GEOMETRIC_REPRESENTATION_CONTEXT(2) 
PARAMETRIC_REPRESENTATION_CONTEXT() REPRESENTATION_CONTEXT('2D SPACE',''
  ) );
#413 = ORIENTED_EDGE('',*,*,#414,.F.);
#414 = EDGE_CURVE('',#395,#395,#415,.T.);
#415 = SURFACE_CURVE('',#416,(#421,#428),.PCURVE_S1.);
#416 = CIRCLE('',#417,103.);
#417 = AXIS2_PLACEMENT_3D('',#418,#419,#420);
#418 = CARTESIAN_POINT('',(-1.5735E+03,0.,0.));
#419 = DIRECTION('',(1.,-0.,1.110223024625E-16));
#420 = DIRECTION('',(1.110223024625E-16,0.,-1.));
#421 = PCURVE('',#370,#422);
#422 = DEFINITIONAL_REPRESENTATION('',(#423),#427);
#423 = LINE('',#424,#425);
#424 = CARTESIAN_POINT('',(0.,110.));
#425 = VECTOR('',#426,1.);
#426 = DIRECTION('',(1.,0.));
#427 = ( GEOMETRIC_REPRESENTATION_CONTEXT(2) 
PARAMETRIC_REPRESENTATION_CONTEXT() REPRESENTATION_CONTEXT('2D SPACE',''
  ) );
#428 = PCURVE('',#429,#434);
#429 = PLANE('',#430);
#430 = AXIS2_PLACEMENT_3D('',#431,#432,#433);
#431 = CARTESIAN_POINT('',(-1.5735E+03,0.,0.));
#432 = DIRECTION('',(1.,-0.,1.110223024625E-16));
#433 = DIRECTION('',(1.110223024625E-16,0.,-1.));
#434 = DEFINITIONAL_REPRESENTATION('',(#435),#439);
#435 = CIRCLE('',#436,103.);
#436 = AXIS2_PLACEMENT_2D('',#437,#438);
#437 = CARTESIAN_POINT('',(0.,0.));
#438 = DIRECTION('',(1.,0.));
#439 = ( GEOMETRIC_REPRESENTATION_CONTEXT(2) 
PARAMETRIC_REPRESENTATION_CONTEXT() REPRESENTATION_CONTEXT('2D SPACE',''
  ) );
#440 = ORIENTED_EDGE('',*,*,#394,.F.);
#441 = ADVANCED_FACE('',(#442,#445),#382,.F.);
#442 = FACE_BOUND('',#443,.F.);
#443 = EDGE_LOOP('',(#444));
#444 = ORIENTED_EDGE('',*,*,#360,.T.);
#445 = FACE_BOUND('',#446,.F.);
#446 = EDGE_LOOP('',(#447));
#447 = ORIENTED_EDGE('',*,*,#448,.F.);
#448 = EDGE_CURVE('',#449,#449,#451,.T.);
#449 = VERTEX_POINT('',#450);
#450 = CARTESIAN_POINT('',(-1.6835E+03,0.,-93.31434482758));
#451 = SURFACE_CURVE('',#452,(#457,#464),.PCURVE_S1.);
#452 = CIRCLE('',#453,93.314344827586);
#453 = AXIS2_PLACEMENT_3D('',#454,#455,#456);
#454 = CARTESIAN_POINT('',(-1.6835E+03,0.,1.110223024625E-16));
#455 = DIRECTION('',(1.,-0.,1.110223024625E-16));
#456 = DIRECTION('',(1.110223024625E-16,0.,-1.));
#457 = PCURVE('',#382,#458);
#458 = DEFINITIONAL_REPRESENTATION('',(#459),#463);
#459 = CIRCLE('',#460,93.314344827586);
#460 = AXIS2_PLACEMENT_2D('',#461,#462);
#461 = CARTESIAN_POINT('',(-1.110223024625E-16,0.));
#462 = DIRECTION('',(1.,0.));
#463 = ( GEOMETRIC_REPRESENTATION_CONTEXT(2) 
PARAMETRIC_REPRESENTATION_CONTEXT() REPRESENTATION_CONTEXT('2D SPACE',''
  ) );
#464 = PCURVE('',#465,#470);
#465 = CONICAL_SURFACE('',#466,94.,0.601033545842);
#466 = AXIS2_PLACEMENT_3D('',#467,#468,#469);
#467 = CARTESIAN_POINT('',(-1.6845E+03,0.,0.));
#468 = DIRECTION('',(-1.,0.,-1.110223024625E-16));
#469 = DIRECTION('',(1.110223024625E-16,0.,-1.));
#470 = DEFINITIONAL_REPRESENTATION('',(#471),#475);
#471 = LINE('',#472,#473);
#472 = CARTESIAN_POINT('',(-0.,-1.));
#473 = VECTOR('',#474,1.);
#474 = DIRECTION('',(-1.,-0.));
#475 = ( GEOMETRIC_REPRESENTATION_CONTEXT(2) 
PARAMETRIC_REPRESENTATION_CONTEXT() REPRESENTATION_CONTEXT('2D SPACE',''
  ) );
#476 = ADVANCED_FACE('',(#477),#429,.T.);
#477 = FACE_BOUND('',#478,.T.);
#478 = EDGE_LOOP('',(#479));
#479 = ORIENTED_EDGE('',*,*,#414,.T.);
#480 = ADVANCED_FACE('',(#481),#465,.F.);
#481 = FACE_BOUND('',#482,.F.);
#482 = EDGE_LOOP('',(#483,#484,#504,#531));
#483 = ORIENTED_EDGE('',*,*,#448,.T.);
#484 = ORIENTED_EDGE('',*,*,#485,.T.);
#485 = EDGE_CURVE('',#449,#486,#488,.T.);
#486 = VERTEX_POINT('',#487);
#487 = CARTESIAN_POINT('',(-1.612E+03,0.,-44.29));
#488 = SEAM_CURVE('',#489,(#492,#498),.PCURVE_S1.);
#489 = B_SPLINE_CURVE_WITH_KNOTS('',1,(#490,#491),.UNSPECIFIED.,.F.,.F.,
  (2,2),(0.,1.),.PIECEWISE_BEZIER_KNOTS.);
#490 = CARTESIAN_POINT('',(-1.6845E+03,0.,-94.));
#491 = CARTESIAN_POINT('',(-1.612E+03,0.,-44.29));
#492 = PCURVE('',#465,#493);
#493 = DEFINITIONAL_REPRESENTATION('',(#494),#497);
#494 = B_SPLINE_CURVE_WITH_KNOTS('',1,(#495,#496),.UNSPECIFIED.,.F.,.F.,
  (2,2),(0.,1.),.PIECEWISE_BEZIER_KNOTS.);
#495 = CARTESIAN_POINT('',(0.,0.));
#496 = CARTESIAN_POINT('',(0.,-72.5));
#497 = ( GEOMETRIC_REPRESENTATION_CONTEXT(2) 
PARAMETRIC_REPRESENTATION_CONTEXT() REPRESENTATION_CONTEXT('2D SPACE',''
  ) );
#498 = PCURVE('',#465,#499);
#499 = DEFINITIONAL_REPRESENTATION('',(#500),#503);
#500 = B_SPLINE_CURVE_WITH_KNOTS('',1,(#501,#502),.UNSPECIFIED.,.F.,.F.,
  (2,2),(0.,1.),.PIECEWISE_BEZIER_KNOTS.);
#501 = CARTESIAN_POINT('',(-6.28318530718,0.));
#502 = CARTESIAN_POINT('',(-6.28318530718,-72.5));
#503 = ( GEOMETRIC_REPRESENTATION_CONTEXT(2) 
PARAMETRIC_REPRESENTATION_CONTEXT() REPRESENTATION_CONTEXT('2D SPACE',''
  ) );
#504 = ORIENTED_EDGE('',*,*,#505,.F.);
#505 = EDGE_CURVE('',#486,#486,#506,.T.);
#506 = SURFACE_CURVE('',#507,(#512,#519),.PCURVE_S1.);
#507 = CIRCLE('',#508,44.29);
#508 = AXIS2_PLACEMENT_3D('',#509,#510,#511);
#509 = CARTESIAN_POINT('',(-1.612E+03,0.,0.));
#510 = DIRECTION('',(1.,-0.,1.110223024625E-16));
#511 = DIRECTION('',(1.110223024625E-16,0.,-1.));
#512 = PCURVE('',#465,#513);
#513 = DEFINITIONAL_REPRESENTATION('',(#514),#518);
#514 = LINE('',#515,#516);
#515 = CARTESIAN_POINT('',(-0.,-72.5));
#516 = VECTOR('',#517,1.);
#517 = DIRECTION('',(-1.,-0.));
#518 = ( GEOMETRIC_REPRESENTATION_CONTEXT(2) 
PARAMETRIC_REPRESENTATION_CONTEXT() REPRESENTATION_CONTEXT('2D SPACE',''
  ) );
#519 = PCURVE('',#520,#525);
#520 = CONICAL_SURFACE('',#521,44.29,0.152537170477);
#521 = AXIS2_PLACEMENT_3D('',#522,#523,#524);
#522 = CARTESIAN_POINT('',(-1.612E+03,0.,0.));
#523 = DIRECTION('',(-1.,0.,-1.110223024625E-16));
#524 = DIRECTION('',(1.110223024625E-16,0.,-1.));
#525 = DEFINITIONAL_REPRESENTATION('',(#526),#530);
#526 = LINE('',#527,#528);
#527 = CARTESIAN_POINT('',(-0.,-0.));
#528 = VECTOR('',#529,1.);
#529 = DIRECTION('',(-1.,-0.));
#530 = ( GEOMETRIC_REPRESENTATION_CONTEXT(2) 
PARAMETRIC_REPRESENTATION_CONTEXT() REPRESENTATION_CONTEXT('2D SPACE',''
  ) );
#531 = ORIENTED_EDGE('',*,*,#485,.F.);
#532 = ADVANCED_FACE('',(#533),#520,.F.);
#533 = FACE_BOUND('',#534,.F.);
#534 = EDGE_LOOP('',(#535,#536,#556,#583));
#535 = ORIENTED_EDGE('',*,*,#505,.T.);
#536 = ORIENTED_EDGE('',*,*,#537,.T.);
#537 = EDGE_CURVE('',#486,#538,#540,.T.);
#538 = VERTEX_POINT('',#539);
#539 = CARTESIAN_POINT('',(-1.5785E+03,0.,-39.14));
#540 = SEAM_CURVE('',#541,(#544,#550),.PCURVE_S1.);
#541 = B_SPLINE_CURVE_WITH_KNOTS('',1,(#542,#543),.UNSPECIFIED.,.F.,.F.,
  (2,2),(0.,1.),.PIECEWISE_BEZIER_KNOTS.);
#542 = CARTESIAN_POINT('',(-1.612E+03,0.,-44.29));
#543 = CARTESIAN_POINT('',(-1.5785E+03,0.,-39.14));
#544 = PCURVE('',#520,#545);
#545 = DEFINITIONAL_REPRESENTATION('',(#546),#549);
#546 = B_SPLINE_CURVE_WITH_KNOTS('',1,(#547,#548),.UNSPECIFIED.,.F.,.F.,
  (2,2),(0.,1.),.PIECEWISE_BEZIER_KNOTS.);
#547 = CARTESIAN_POINT('',(-6.28318530718,0.));
#548 = CARTESIAN_POINT('',(-6.28318530718,-33.5));
#549 = ( GEOMETRIC_REPRESENTATION_CONTEXT(2) 
PARAMETRIC_REPRESENTATION_CONTEXT() REPRESENTATION_CONTEXT('2D SPACE',''
  ) );
#550 = PCURVE('',#520,#551);
#551 = DEFINITIONAL_REPRESENTATION('',(#552),#555);
#552 = B_SPLINE_CURVE_WITH_KNOTS('',1,(#553,#554),.UNSPECIFIED.,.F.,.F.,
  (2,2),(0.,1.),.PIECEWISE_BEZIER_KNOTS.);
#553 = CARTESIAN_POINT('',(0.,0.));
#554 = CARTESIAN_POINT('',(0.,-33.5));
#555 = ( GEOMETRIC_REPRESENTATION_CONTEXT(2) 
PARAMETRIC_REPRESENTATION_CONTEXT() REPRESENTATION_CONTEXT('2D SPACE',''
  ) );
#556 = ORIENTED_EDGE('',*,*,#557,.F.);
#557 = EDGE_CURVE('',#538,#538,#558,.T.);
#558 = SURFACE_CURVE('',#559,(#564,#571),.PCURVE_S1.);
#559 = CIRCLE('',#560,39.14);
#560 = AXIS2_PLACEMENT_3D('',#561,#562,#563);
#561 = CARTESIAN_POINT('',(-1.5785E+03,0.,0.));
#562 = DIRECTION('',(1.,-0.,1.110223024625E-16));
#563 = DIRECTION('',(1.110223024625E-16,0.,-1.));
#564 = PCURVE('',#520,#565);
#565 = DEFINITIONAL_REPRESENTATION('',(#566),#570);
#566 = LINE('',#567,#568);
#567 = CARTESIAN_POINT('',(-0.,-33.5));
#568 = VECTOR('',#569,1.);
#569 = DIRECTION('',(-1.,-0.));
#570 = ( GEOMETRIC_REPRESENTATION_CONTEXT(2) 
PARAMETRIC_REPRESENTATION_CONTEXT() REPRESENTATION_CONTEXT('2D SPACE',''
  ) );
#571 = PCURVE('',#572,#577);
#572 = PLANE('',#573);
#573 = AXIS2_PLACEMENT_3D('',#574,#575,#576);
#574 = CARTESIAN_POINT('',(-1.5785E+03,0.,0.));
#575 = DIRECTION('',(1.,-0.,1.110223024625E-16));
#576 = DIRECTION('',(1.110223024625E-16,0.,-1.));
#577 = DEFINITIONAL_REPRESENTATION('',(#578),#582);
#578 = CIRCLE('',#579,39.14);
#579 = AXIS2_PLACEMENT_2D('',#580,#581);
#580 = CARTESIAN_POINT('',(0.,0.));
#581 = DIRECTION('',(1.,0.));
#582 = ( GEOMETRIC_REPRESENTATION_CONTEXT(2) 
PARAMETRIC_REPRESENTATION_CONTEXT() REPRESENTATION_CONTEXT('2D SPACE',''
  ) );
#583 = ORIENTED_EDGE('',*,*,#537,.F.);
#584 = ADVANCED_FACE('',(#585),#572,.F.);
#585 = FACE_BOUND('',#586,.F.);
#586 = EDGE_LOOP('',(#587));
#587 = ORIENTED_EDGE('',*,*,#557,.T.);
#588 = ( GEOMETRIC_REPRESENTATION_CONTEXT(3) 
GLOBAL_UNCERTAINTY_ASSIGNED_CONTEXT((#592)) GLOBAL_UNIT_ASSIGNED_CONTEXT
((#589,#590,#591)) REPRESENTATION_CONTEXT('Context #1',
  '3D Context with UNIT and UNCERTAINTY') );
#589 = ( LENGTH_UNIT() NAMED_UNIT(*) SI_UNIT(.MILLI.,.METRE.) );
#590 = ( NAMED_UNIT(*) PLANE_ANGLE_UNIT() SI_UNIT($,.RADIAN.) );
#591 = ( NAMED_UNIT(*) SI_UNIT($,.STERADIAN.) SOLID_ANGLE_UNIT() );
#592 = UNCERTAINTY_MEASURE_WITH_UNIT(LENGTH_MEASURE(1.E-07),#589,
  'distance_accuracy_value','confusion accuracy');
#593 = CONTEXT_DEPENDENT_SHAPE_REPRESENTATION(#594,#596);
#594 = ( REPRESENTATION_RELATIONSHIP('','',#353,#10) 
REPRESENTATION_RELATIONSHIP_WITH_TRANSFORMATION(#595) 
SHAPE_REPRESENTATION_RELATIONSHIP() );
#595 = ITEM_DEFINED_TRANSFORMATION('','',#11,#19);
#596 = PRODUCT_DEFINITION_SHAPE('Placement','Placement of an item',#597
  );
#597 = NEXT_ASSEMBLY_USAGE_OCCURRENCE('2','booster_nozzle','',#5,#348,$
  );
#598 = PRODUCT_RELATED_PRODUCT_CATEGORY('part',$,(#350));
#599 = SHAPE_DEFINITION_REPRESENTATION(#600,#606);
#600 = PRODUCT_DEFINITION_SHAPE('','',#601);
#601 = PRODUCT_DEFINITION('design','',#602,#605);
#602 = PRODUCT_DEFINITION_FORMATION('','',#603);
#603 = PRODUCT('booster_fin_3','booster_fin_3','',(#604));
#604 = PRODUCT_CONTEXT('',#2,'mechanical');
#605 = PRODUCT_DEFINITION_CONTEXT('part definition',#2,'design');
#606 = ADVANCED_BREP_SHAPE_REPRESENTATION('',(#11,#607),#929);
#607 = MANIFOLD_SOLID_BREP('',#608);
#608 = CLOSED_SHELL('',(#609,#726,#800,#869,#915,#922));
#609 = ADVANCED_FACE('',(#610),#624,.T.);
#610 = FACE_BOUND('',#611,.T.);
#611 = EDGE_LOOP('',(#612,#647,#674,#701));
#612 = ORIENTED_EDGE('',*,*,#613,.T.);
#613 = EDGE_CURVE('',#614,#616,#618,.T.);
#614 = VERTEX_POINT('',#615);
#615 = CARTESIAN_POINT('',(-1.55E+03,0.,101.));
#616 = VERTEX_POINT('',#617);
#617 = CARTESIAN_POINT('',(-1.3855E+03,-6.5,101.));
#618 = SURFACE_CURVE('',#619,(#623,#635),.PCURVE_S1.);
#619 = LINE('',#620,#621);
#620 = CARTESIAN_POINT('',(-1.55E+03,0.,101.));
#621 = VECTOR('',#622,1.);
#622 = DIRECTION('',(0.999220247603,-3.948286692655E-02,0.));
#623 = PCURVE('',#624,#629);
#624 = B_SPLINE_SURFACE_WITH_KNOTS('',1,1,(
    (#625,#626)
    ,(#627,#628
    )),.UNSPECIFIED.,.F.,.F.,.F.,(2,2),(2,2),(0.,164.62836936567),(0.,1.
    ),.PIECEWISE_BEZIER_KNOTS.);
#625 = CARTESIAN_POINT('',(-1.55E+03,0.,101.));
#626 = CARTESIAN_POINT('',(-1.495E+03,0.,216.));
#627 = CARTESIAN_POINT('',(-1.3855E+03,-6.5,101.));
#628 = CARTESIAN_POINT('',(-1.43025E+03,-2.925,216.));
#629 = DEFINITIONAL_REPRESENTATION('',(#630),#634);
#630 = LINE('',#631,#632);
#631 = CARTESIAN_POINT('',(0.,0.));
#632 = VECTOR('',#633,1.);
#633 = DIRECTION('',(1.,0.));
#634 = ( GEOMETRIC_REPRESENTATION_CONTEXT(2) 
PARAMETRIC_REPRESENTATION_CONTEXT() REPRESENTATION_CONTEXT('2D SPACE',''
  ) );
#635 = PCURVE('',#636,#641);
#636 = PLANE('',#637);
#637 = AXIS2_PLACEMENT_3D('',#638,#639,#640);
#638 = CARTESIAN_POINT('',(-1.55E+03,0.,101.));
#639 = DIRECTION('',(0.,0.,-1.));
#640 = DIRECTION('',(1.,0.,0.));
#641 = DEFINITIONAL_REPRESENTATION('',(#642),#646);
#642 = LINE('',#643,#644);
#643 = CARTESIAN_POINT('',(0.,0.));
#644 = VECTOR('',#645,1.);
#645 = DIRECTION('',(0.999220247603,3.948286692655E-02));
#646 = ( GEOMETRIC_REPRESENTATION_CONTEXT(2) 
PARAMETRIC_REPRESENTATION_CONTEXT() REPRESENTATION_CONTEXT('2D SPACE',''
  ) );
#647 = ORIENTED_EDGE('',*,*,#648,.T.);
#648 = EDGE_CURVE('',#616,#649,#651,.T.);
#649 = VERTEX_POINT('',#650);
#650 = CARTESIAN_POINT('',(-1.43025E+03,-2.925,216.));
#651 = SURFACE_CURVE('',#652,(#655,#662),.PCURVE_S1.);
#652 = B_SPLINE_CURVE_WITH_KNOTS('',1,(#653,#654),.UNSPECIFIED.,.F.,.F.,
  (2,2),(0.,1.),.PIECEWISE_BEZIER_KNOTS.);
#653 = CARTESIAN_POINT('',(-1.3855E+03,-6.5,101.));
#654 = CARTESIAN_POINT('',(-1.43025E+03,-2.925,216.));
#655 = PCURVE('',#624,#656);
#656 = DEFINITIONAL_REPRESENTATION('',(#657),#661);
#657 = LINE('',#658,#659);
#658 = CARTESIAN_POINT('',(164.62836936567,0.));
#659 = VECTOR('',#660,1.);
#660 = DIRECTION('',(0.,1.));
#661 = ( GEOMETRIC_REPRESENTATION_CONTEXT(2) 
PARAMETRIC_REPRESENTATION_CONTEXT() REPRESENTATION_CONTEXT('2D SPACE',''
  ) );
#662 = PCURVE('',#663,#668);
#663 = B_SPLINE_SURFACE_WITH_KNOTS('',1,1,(
    (#664,#665)
    ,(#666,#667
    )),.UNSPECIFIED.,.F.,.F.,.F.,(2,2),(2,2),(0.,305.56914111212),(0.,1.
    ),.PIECEWISE_BEZIER_KNOTS.);
#664 = CARTESIAN_POINT('',(-1.3855E+03,-6.5,101.));
#665 = CARTESIAN_POINT('',(-1.43025E+03,-2.925,216.));
#666 = CARTESIAN_POINT('',(-1.08E+03,0.,101.));
#667 = CARTESIAN_POINT('',(-1.31E+03,0.,216.));
#668 = DEFINITIONAL_REPRESENTATION('',(#669),#673);
#669 = LINE('',#670,#671);
#670 = CARTESIAN_POINT('',(0.,0.));
#671 = VECTOR('',#672,1.);
#672 = DIRECTION('',(0.,1.));
#673 = ( GEOMETRIC_REPRESENTATION_CONTEXT(2) 
PARAMETRIC_REPRESENTATION_CONTEXT() REPRESENTATION_CONTEXT('2D SPACE',''
  ) );
#674 = ORIENTED_EDGE('',*,*,#675,.F.);
#675 = EDGE_CURVE('',#676,#649,#678,.T.);
#676 = VERTEX_POINT('',#677);
#677 = CARTESIAN_POINT('',(-1.495E+03,0.,216.));
#678 = SURFACE_CURVE('',#679,(#683,#689),.PCURVE_S1.);
#679 = LINE('',#680,#681);
#680 = CARTESIAN_POINT('',(-1.495E+03,0.,216.));
#681 = VECTOR('',#682,1.);
#682 = DIRECTION('',(0.998981225344,-4.512772330703E-02,0.));
#683 = PCURVE('',#624,#684);
#684 = DEFINITIONAL_REPRESENTATION('',(#685),#688);
#685 = B_SPLINE_CURVE_WITH_KNOTS('',1,(#686,#687),.UNSPECIFIED.,.F.,.F.,
  (2,2),(0.,64.816032931675),.PIECEWISE_BEZIER_KNOTS.);
#686 = CARTESIAN_POINT('',(0.,1.));
#687 = CARTESIAN_POINT('',(164.62836936567,1.));
#688 = ( GEOMETRIC_REPRESENTATION_CONTEXT(2) 
PARAMETRIC_REPRESENTATION_CONTEXT() REPRESENTATION_CONTEXT('2D SPACE',''
  ) );
#689 = PCURVE('',#690,#695);
#690 = PLANE('',#691);
#691 = AXIS2_PLACEMENT_3D('',#692,#693,#694);
#692 = CARTESIAN_POINT('',(-1.495E+03,0.,216.));
#693 = DIRECTION('',(0.,0.,-1.));
#694 = DIRECTION('',(1.,0.,0.));
#695 = DEFINITIONAL_REPRESENTATION('',(#696),#700);
#696 = LINE('',#697,#698);
#697 = CARTESIAN_POINT('',(0.,0.));
#698 = VECTOR('',#699,1.);
#699 = DIRECTION('',(0.998981225344,4.512772330703E-02));
#700 = ( GEOMETRIC_REPRESENTATION_CONTEXT(2) 
PARAMETRIC_REPRESENTATION_CONTEXT() REPRESENTATION_CONTEXT('2D SPACE',''
  ) );
#701 = ORIENTED_EDGE('',*,*,#702,.F.);
#702 = EDGE_CURVE('',#614,#676,#703,.T.);
#703 = SURFACE_CURVE('',#704,(#707,#714),.PCURVE_S1.);
#704 = B_SPLINE_CURVE_WITH_KNOTS('',1,(#705,#706),.UNSPECIFIED.,.F.,.F.,
  (2,2),(0.,1.),.PIECEWISE_BEZIER_KNOTS.);
#705 = CARTESIAN_POINT('',(-1.55E+03,0.,101.));
#706 = CARTESIAN_POINT('',(-1.495E+03,0.,216.));
#707 = PCURVE('',#624,#708);
#708 = DEFINITIONAL_REPRESENTATION('',(#709),#713);
#709 = LINE('',#710,#711);
#710 = CARTESIAN_POINT('',(0.,0.));
#711 = VECTOR('',#712,1.);
#712 = DIRECTION('',(0.,1.));
#713 = ( GEOMETRIC_REPRESENTATION_CONTEXT(2) 
PARAMETRIC_REPRESENTATION_CONTEXT() REPRESENTATION_CONTEXT('2D SPACE',''
  ) );
#714 = PCURVE('',#715,#720);
#715 = B_SPLINE_SURFACE_WITH_KNOTS('',1,1,(
    (#716,#717)
    ,(#718,#719
    )),.UNSPECIFIED.,.F.,.F.,.F.,(2,2),(2,2),(0.,164.62836936567),(0.,1.
    ),.PIECEWISE_BEZIER_KNOTS.);
#716 = CARTESIAN_POINT('',(-1.3855E+03,6.5,101.));
#717 = CARTESIAN_POINT('',(-1.43025E+03,2.925,216.));
#718 = CARTESIAN_POINT('',(-1.55E+03,0.,101.));
#719 = CARTESIAN_POINT('',(-1.495E+03,0.,216.));
#720 = DEFINITIONAL_REPRESENTATION('',(#721),#725);
#721 = LINE('',#722,#723);
#722 = CARTESIAN_POINT('',(164.62836936567,0.));
#723 = VECTOR('',#724,1.);
#724 = DIRECTION('',(0.,1.));
#725 = ( GEOMETRIC_REPRESENTATION_CONTEXT(2) 
PARAMETRIC_REPRESENTATION_CONTEXT() REPRESENTATION_CONTEXT('2D SPACE',''
  ) );
#726 = ADVANCED_FACE('',(#727),#663,.T.);
#727 = FACE_BOUND('',#728,.T.);
#728 = EDGE_LOOP('',(#729,#752,#779,#799));
#729 = ORIENTED_EDGE('',*,*,#730,.T.);
#730 = EDGE_CURVE('',#616,#731,#733,.T.);
#731 = VERTEX_POINT('',#732);
#732 = CARTESIAN_POINT('',(-1.08E+03,0.,101.));
#733 = SURFACE_CURVE('',#734,(#738,#745),.PCURVE_S1.);
#734 = LINE('',#735,#736);
#735 = CARTESIAN_POINT('',(-1.3855E+03,-6.5,101.));
#736 = VECTOR('',#737,1.);
#737 = DIRECTION('',(0.999773730057,2.127178149058E-02,0.));
#738 = PCURVE('',#663,#739);
#739 = DEFINITIONAL_REPRESENTATION('',(#740),#744);
#740 = LINE('',#741,#742);
#741 = CARTESIAN_POINT('',(0.,0.));
#742 = VECTOR('',#743,1.);
#743 = DIRECTION('',(1.,0.));
#744 = ( GEOMETRIC_REPRESENTATION_CONTEXT(2) 
PARAMETRIC_REPRESENTATION_CONTEXT() REPRESENTATION_CONTEXT('2D SPACE',''
  ) );
#745 = PCURVE('',#636,#746);
#746 = DEFINITIONAL_REPRESENTATION('',(#747),#751);
#747 = LINE('',#748,#749);
#748 = CARTESIAN_POINT('',(164.5,6.5));
#749 = VECTOR('',#750,1.);
#750 = DIRECTION('',(0.999773730057,-2.127178149058E-02));
#751 = ( GEOMETRIC_REPRESENTATION_CONTEXT(2) 
PARAMETRIC_REPRESENTATION_CONTEXT() REPRESENTATION_CONTEXT('2D SPACE',''
  ) );
#752 = ORIENTED_EDGE('',*,*,#753,.T.);
#753 = EDGE_CURVE('',#731,#754,#756,.T.);
#754 = VERTEX_POINT('',#755);
#755 = CARTESIAN_POINT('',(-1.31E+03,0.,216.));
#756 = SURFACE_CURVE('',#757,(#760,#767),.PCURVE_S1.);
#757 = B_SPLINE_CURVE_WITH_KNOTS('',1,(#758,#759),.UNSPECIFIED.,.F.,.F.,
  (2,2),(0.,1.),.PIECEWISE_BEZIER_KNOTS.);
#758 = CARTESIAN_POINT('',(-1.08E+03,0.,101.));
#759 = CARTESIAN_POINT('',(-1.31E+03,0.,216.));
#760 = PCURVE('',#663,#761);
#761 = DEFINITIONAL_REPRESENTATION('',(#762),#766);
#762 = LINE('',#763,#764);
#763 = CARTESIAN_POINT('',(305.56914111212,0.));
#764 = VECTOR('',#765,1.);
#765 = DIRECTION('',(0.,1.));
#766 = ( GEOMETRIC_REPRESENTATION_CONTEXT(2) 
PARAMETRIC_REPRESENTATION_CONTEXT() REPRESENTATION_CONTEXT('2D SPACE',''
  ) );
#767 = PCURVE('',#768,#773);
#768 = B_SPLINE_SURFACE_WITH_KNOTS('',1,1,(
    (#769,#770)
    ,(#771,#772
    )),.UNSPECIFIED.,.F.,.F.,.F.,(2,2),(2,2),(0.,305.56914111212),(0.,1.
    ),.PIECEWISE_BEZIER_KNOTS.);
#769 = CARTESIAN_POINT('',(-1.08E+03,0.,101.));
#770 = CARTESIAN_POINT('',(-1.31E+03,0.,216.));
#771 = CARTESIAN_POINT('',(-1.3855E+03,6.5,101.));
#772 = CARTESIAN_POINT('',(-1.43025E+03,2.925,216.));
#773 = DEFINITIONAL_REPRESENTATION('',(#774),#778);
#774 = LINE('',#775,#776);
#775 = CARTESIAN_POINT('',(0.,0.));
#776 = VECTOR('',#777,1.);
#777 = DIRECTION('',(0.,1.));
#778 = ( GEOMETRIC_REPRESENTATION_CONTEXT(2) 
PARAMETRIC_REPRESENTATION_CONTEXT() REPRESENTATION_CONTEXT('2D SPACE',''
  ) );
#779 = ORIENTED_EDGE('',*,*,#780,.F.);
#780 = EDGE_CURVE('',#649,#754,#781,.T.);
#781 = SURFACE_CURVE('',#782,(#786,#792),.PCURVE_S1.);
#782 = LINE('',#783,#784);
#783 = CARTESIAN_POINT('',(-1.43025E+03,-2.925,216.));
#784 = VECTOR('',#785,1.);
#785 = DIRECTION('',(0.999704294837,2.431713149604E-02,0.));
#786 = PCURVE('',#663,#787);
#787 = DEFINITIONAL_REPRESENTATION('',(#788),#791);
#788 = B_SPLINE_CURVE_WITH_KNOTS('',1,(#789,#790),.UNSPECIFIED.,.F.,.F.,
  (2,2),(0.,120.28556906379),.PIECEWISE_BEZIER_KNOTS.);
#789 = CARTESIAN_POINT('',(0.,1.));
#790 = CARTESIAN_POINT('',(305.56914111212,1.));
#791 = ( GEOMETRIC_REPRESENTATION_CONTEXT(2) 
PARAMETRIC_REPRESENTATION_CONTEXT() REPRESENTATION_CONTEXT('2D SPACE',''
  ) );
#792 = PCURVE('',#690,#793);
#793 = DEFINITIONAL_REPRESENTATION('',(#794),#798);
#794 = LINE('',#795,#796);
#795 = CARTESIAN_POINT('',(64.75,2.925));
#796 = VECTOR('',#797,1.);
#797 = DIRECTION('',(0.999704294837,-2.431713149604E-02));
#798 = ( GEOMETRIC_REPRESENTATION_CONTEXT(2) 
PARAMETRIC_REPRESENTATION_CONTEXT() REPRESENTATION_CONTEXT('2D SPACE',''
  ) );
#799 = ORIENTED_EDGE('',*,*,#648,.F.);
#800 = ADVANCED_FACE('',(#801),#768,.T.);
#801 = FACE_BOUND('',#802,.T.);
#802 = EDGE_LOOP('',(#803,#826,#848,#868));
#803 = ORIENTED_EDGE('',*,*,#804,.T.);
#804 = EDGE_CURVE('',#731,#805,#807,.T.);
#805 = VERTEX_POINT('',#806);
#806 = CARTESIAN_POINT('',(-1.3855E+03,6.5,101.));
#807 = SURFACE_CURVE('',#808,(#812,#819),.PCURVE_S1.);
#808 = LINE('',#809,#810);
#809 = CARTESIAN_POINT('',(-1.08E+03,0.,101.));
#810 = VECTOR('',#811,1.);
#811 = DIRECTION('',(-0.999773730057,2.127178149058E-02,0.));
#812 = PCURVE('',#768,#813);
#813 = DEFINITIONAL_REPRESENTATION('',(#814),#818);
#814 = LINE('',#815,#816);
#815 = CARTESIAN_POINT('',(0.,0.));
#816 = VECTOR('',#817,1.);
#817 = DIRECTION('',(1.,0.));
#818 = ( GEOMETRIC_REPRESENTATION_CONTEXT(2) 
PARAMETRIC_REPRESENTATION_CONTEXT() REPRESENTATION_CONTEXT('2D SPACE',''
  ) );
#819 = PCURVE('',#636,#820);
#820 = DEFINITIONAL_REPRESENTATION('',(#821),#825);
#821 = LINE('',#822,#823);
#822 = CARTESIAN_POINT('',(470.,0.));
#823 = VECTOR('',#824,1.);
#824 = DIRECTION('',(-0.999773730057,-2.127178149058E-02));
#825 = ( GEOMETRIC_REPRESENTATION_CONTEXT(2) 
PARAMETRIC_REPRESENTATION_CONTEXT() REPRESENTATION_CONTEXT('2D SPACE',''
  ) );
#826 = ORIENTED_EDGE('',*,*,#827,.T.);
#827 = EDGE_CURVE('',#805,#828,#830,.T.);
#828 = VERTEX_POINT('',#829);
#829 = CARTESIAN_POINT('',(-1.43025E+03,2.925,216.));
#830 = SURFACE_CURVE('',#831,(#834,#841),.PCURVE_S1.);
#831 = B_SPLINE_CURVE_WITH_KNOTS('',1,(#832,#833),.UNSPECIFIED.,.F.,.F.,
  (2,2),(0.,1.),.PIECEWISE_BEZIER_KNOTS.);
#832 = CARTESIAN_POINT('',(-1.3855E+03,6.5,101.));
#833 = CARTESIAN_POINT('',(-1.43025E+03,2.925,216.));
#834 = PCURVE('',#768,#835);
#835 = DEFINITIONAL_REPRESENTATION('',(#836),#840);
#836 = LINE('',#837,#838);
#837 = CARTESIAN_POINT('',(305.56914111212,0.));
#838 = VECTOR('',#839,1.);
#839 = DIRECTION('',(0.,1.));
#840 = ( GEOMETRIC_REPRESENTATION_CONTEXT(2) 
PARAMETRIC_REPRESENTATION_CONTEXT() REPRESENTATION_CONTEXT('2D SPACE',''
  ) );
#841 = PCURVE('',#715,#842);
#842 = DEFINITIONAL_REPRESENTATION('',(#843),#847);
#843 = LINE('',#844,#845);
#844 = CARTESIAN_POINT('',(0.,0.));
#845 = VECTOR('',#846,1.);
#846 = DIRECTION('',(0.,1.));
#847 = ( GEOMETRIC_REPRESENTATION_CONTEXT(2) 
PARAMETRIC_REPRESENTATION_CONTEXT() REPRESENTATION_CONTEXT('2D SPACE',''
  ) );
#848 = ORIENTED_EDGE('',*,*,#849,.F.);
#849 = EDGE_CURVE('',#754,#828,#850,.T.);
#850 = SURFACE_CURVE('',#851,(#855,#861),.PCURVE_S1.);
#851 = LINE('',#852,#853);
#852 = CARTESIAN_POINT('',(-1.31E+03,0.,216.));
#853 = VECTOR('',#854,1.);
#854 = DIRECTION('',(-0.999704294837,2.431713149604E-02,0.));
#855 = PCURVE('',#768,#856);
#856 = DEFINITIONAL_REPRESENTATION('',(#857),#860);
#857 = B_SPLINE_CURVE_WITH_KNOTS('',1,(#858,#859),.UNSPECIFIED.,.F.,.F.,
  (2,2),(0.,120.28556906379),.PIECEWISE_BEZIER_KNOTS.);
#858 = CARTESIAN_POINT('',(0.,1.));
#859 = CARTESIAN_POINT('',(305.56914111212,1.));
#860 = ( GEOMETRIC_REPRESENTATION_CONTEXT(2) 
PARAMETRIC_REPRESENTATION_CONTEXT() REPRESENTATION_CONTEXT('2D SPACE',''
  ) );
#861 = PCURVE('',#690,#862);
#862 = DEFINITIONAL_REPRESENTATION('',(#863),#867);
#863 = LINE('',#864,#865);
#864 = CARTESIAN_POINT('',(185.,0.));
#865 = VECTOR('',#866,1.);
#866 = DIRECTION('',(-0.999704294837,-2.431713149604E-02));
#867 = ( GEOMETRIC_REPRESENTATION_CONTEXT(2) 
PARAMETRIC_REPRESENTATION_CONTEXT() REPRESENTATION_CONTEXT('2D SPACE',''
  ) );
#868 = ORIENTED_EDGE('',*,*,#753,.F.);
#869 = ADVANCED_FACE('',(#870),#715,.T.);
#870 = FACE_BOUND('',#871,.T.);
#871 = EDGE_LOOP('',(#872,#893,#894,#914));
#872 = ORIENTED_EDGE('',*,*,#873,.T.);
#873 = EDGE_CURVE('',#805,#614,#874,.T.);
#874 = SURFACE_CURVE('',#875,(#879,#886),.PCURVE_S1.);
#875 = LINE('',#876,#877);
#876 = CARTESIAN_POINT('',(-1.3855E+03,6.5,101.));
#877 = VECTOR('',#878,1.);
#878 = DIRECTION('',(-0.999220247603,-3.948286692655E-02,0.));
#879 = PCURVE('',#715,#880);
#880 = DEFINITIONAL_REPRESENTATION('',(#881),#885);
#881 = LINE('',#882,#883);
#882 = CARTESIAN_POINT('',(0.,0.));
#883 = VECTOR('',#884,1.);
#884 = DIRECTION('',(1.,0.));
#885 = ( GEOMETRIC_REPRESENTATION_CONTEXT(2) 
PARAMETRIC_REPRESENTATION_CONTEXT() REPRESENTATION_CONTEXT('2D SPACE',''
  ) );
#886 = PCURVE('',#636,#887);
#887 = DEFINITIONAL_REPRESENTATION('',(#888),#892);
#888 = LINE('',#889,#890);
#889 = CARTESIAN_POINT('',(164.5,-6.5));
#890 = VECTOR('',#891,1.);
#891 = DIRECTION('',(-0.999220247603,3.948286692655E-02));
#892 = ( GEOMETRIC_REPRESENTATION_CONTEXT(2) 
PARAMETRIC_REPRESENTATION_CONTEXT() REPRESENTATION_CONTEXT('2D SPACE',''
  ) );
#893 = ORIENTED_EDGE('',*,*,#702,.T.);
#894 = ORIENTED_EDGE('',*,*,#895,.F.);
#895 = EDGE_CURVE('',#828,#676,#896,.T.);
#896 = SURFACE_CURVE('',#897,(#901,#907),.PCURVE_S1.);
#897 = LINE('',#898,#899);
#898 = CARTESIAN_POINT('',(-1.43025E+03,2.925,216.));
#899 = VECTOR('',#900,1.);
#900 = DIRECTION('',(-0.998981225344,-4.512772330703E-02,0.));
#901 = PCURVE('',#715,#902);
#902 = DEFINITIONAL_REPRESENTATION('',(#903),#906);
#903 = B_SPLINE_CURVE_WITH_KNOTS('',1,(#904,#905),.UNSPECIFIED.,.F.,.F.,
  (2,2),(0.,64.816032931675),.PIECEWISE_BEZIER_KNOTS.);
#904 = CARTESIAN_POINT('',(0.,1.));
#905 = CARTESIAN_POINT('',(164.62836936567,1.));
#906 = ( GEOMETRIC_REPRESENTATION_CONTEXT(2) 
PARAMETRIC_REPRESENTATION_CONTEXT() REPRESENTATION_CONTEXT('2D SPACE',''
  ) );
#907 = PCURVE('',#690,#908);
#908 = DEFINITIONAL_REPRESENTATION('',(#909),#913);
#909 = LINE('',#910,#911);
#910 = CARTESIAN_POINT('',(64.75,-2.925));
#911 = VECTOR('',#912,1.);
#912 = DIRECTION('',(-0.998981225344,4.512772330703E-02));
#913 = ( GEOMETRIC_REPRESENTATION_CONTEXT(2) 
PARAMETRIC_REPRESENTATION_CONTEXT() REPRESENTATION_CONTEXT('2D SPACE',''
  ) );
#914 = ORIENTED_EDGE('',*,*,#827,.F.);
#915 = ADVANCED_FACE('',(#916),#636,.T.);
#916 = FACE_BOUND('',#917,.F.);
#917 = EDGE_LOOP('',(#918,#919,#920,#921));
#918 = ORIENTED_EDGE('',*,*,#613,.T.);
#919 = ORIENTED_EDGE('',*,*,#730,.T.);
#920 = ORIENTED_EDGE('',*,*,#804,.T.);
#921 = ORIENTED_EDGE('',*,*,#873,.T.);
#922 = ADVANCED_FACE('',(#923),#690,.F.);
#923 = FACE_BOUND('',#924,.T.);
#924 = EDGE_LOOP('',(#925,#926,#927,#928));
#925 = ORIENTED_EDGE('',*,*,#675,.T.);
#926 = ORIENTED_EDGE('',*,*,#780,.T.);
#927 = ORIENTED_EDGE('',*,*,#849,.T.);
#928 = ORIENTED_EDGE('',*,*,#895,.T.);
#929 = ( GEOMETRIC_REPRESENTATION_CONTEXT(3) 
GLOBAL_UNCERTAINTY_ASSIGNED_CONTEXT((#933)) GLOBAL_UNIT_ASSIGNED_CONTEXT
((#930,#931,#932)) REPRESENTATION_CONTEXT('Context #1',
  '3D Context with UNIT and UNCERTAINTY') );
#930 = ( LENGTH_UNIT() NAMED_UNIT(*) SI_UNIT(.MILLI.,.METRE.) );
#931 = ( NAMED_UNIT(*) PLANE_ANGLE_UNIT() SI_UNIT($,.RADIAN.) );
#932 = ( NAMED_UNIT(*) SI_UNIT($,.STERADIAN.) SOLID_ANGLE_UNIT() );
#933 = UNCERTAINTY_MEASURE_WITH_UNIT(LENGTH_MEASURE(1.E-07),#930,
  'distance_accuracy_value','confusion accuracy');
#934 = CONTEXT_DEPENDENT_SHAPE_REPRESENTATION(#935,#937);
#935 = ( REPRESENTATION_RELATIONSHIP('','',#606,#10) 
REPRESENTATION_RELATIONSHIP_WITH_TRANSFORMATION(#936) 
SHAPE_REPRESENTATION_RELATIONSHIP() );
#936 = ITEM_DEFINED_TRANSFORMATION('','',#11,#23);
#937 = PRODUCT_DEFINITION_SHAPE('Placement','Placement of an item',#938
  );
#938 = NEXT_ASSEMBLY_USAGE_OCCURRENCE('3','booster_fin_1','',#5,#601,$);
#939 = PRODUCT_RELATED_PRODUCT_CATEGORY('part',$,(#603));
#940 = CONTEXT_DEPENDENT_SHAPE_REPRESENTATION(#941,#943);
#941 = ( REPRESENTATION_RELATIONSHIP('','',#606,#10) 
REPRESENTATION_RELATIONSHIP_WITH_TRANSFORMATION(#942) 
SHAPE_REPRESENTATION_RELATIONSHIP() );
#942 = ITEM_DEFINED_TRANSFORMATION('','',#11,#27);
#943 = PRODUCT_DEFINITION_SHAPE('Placement','Placement of an item',#944
  );
#944 = NEXT_ASSEMBLY_USAGE_OCCURRENCE('4','booster_fin_2','',#5,#601,$);
#945 = CONTEXT_DEPENDENT_SHAPE_REPRESENTATION(#946,#948);
#946 = ( REPRESENTATION_RELATIONSHIP('','',#606,#10) 
REPRESENTATION_RELATIONSHIP_WITH_TRANSFORMATION(#947) 
SHAPE_REPRESENTATION_RELATIONSHIP() );
#947 = ITEM_DEFINED_TRANSFORMATION('','',#11,#31);
#948 = PRODUCT_DEFINITION_SHAPE('Placement','Placement of an item',#949
  );
#949 = NEXT_ASSEMBLY_USAGE_OCCURRENCE('5','booster_fin_3','',#5,#601,$);
#950 = SHAPE_DEFINITION_REPRESENTATION(#343,#951);
#951 = SHAPE_REPRESENTATION('',(#15),#335);
#952 = SHAPE_DEFINITION_REPRESENTATION(#596,#953);
#953 = SHAPE_REPRESENTATION('',(#19),#588);
#954 = SHAPE_DEFINITION_REPRESENTATION(#937,#955);
#955 = SHAPE_REPRESENTATION('',(#23),#929);
#956 = SHAPE_DEFINITION_REPRESENTATION(#943,#957);
#957 = SHAPE_REPRESENTATION('',(#27),#929);
#958 = SHAPE_DEFINITION_REPRESENTATION(#948,#959);
#959 = SHAPE_REPRESENTATION('',(#31),#929);
#960 = SHAPE_DEFINITION_REPRESENTATION(#343,#961);
#961 = SHAPE_REPRESENTATION('',(#15),#335);
#962 = SHAPE_DEFINITION_REPRESENTATION(#596,#963);
#963 = SHAPE_REPRESENTATION('',(#19),#588);
#964 = SHAPE_DEFINITION_REPRESENTATION(#937,#965);
#965 = SHAPE_REPRESENTATION('',(#23),#929);
#966 = SHAPE_DEFINITION_REPRESENTATION(#943,#967);
#967 = SHAPE_REPRESENTATION('',(#27),#929);
#968 = SHAPE_DEFINITION_REPRESENTATION(#948,#969);
#969 = SHAPE_REPRESENTATION('',(#31),#929);
#970 = MECHANICAL_DESIGN_GEOMETRIC_PRESENTATION_REPRESENTATION('',(#971,
    #979),#335);
#971 = STYLED_ITEM('color',(#972),#49);
#972 = PRESENTATION_STYLE_ASSIGNMENT((#973));
#973 = SURFACE_STYLE_USAGE(.BOTH.,#974);
#974 = SURFACE_SIDE_STYLE('',(#975));
#975 = SURFACE_STYLE_FILL_AREA(#976);
#976 = FILL_AREA_STYLE('',(#977));
#977 = FILL_AREA_STYLE_COLOUR('',#978);
#978 = COLOUR_RGB('',0.650980375594,0.678431390124,0.686274507277);
#979 = OVER_RIDING_STYLED_ITEM('overriding color',(#980),#49,#971);
#980 = PRESENTATION_STYLE_BY_CONTEXT((#981),#961);
#981 = SURFACE_STYLE_USAGE(.BOTH.,#982);
#982 = SURFACE_SIDE_STYLE('',(#983));
#983 = SURFACE_STYLE_FILL_AREA(#984);
#984 = FILL_AREA_STYLE('',(#985));
#985 = FILL_AREA_STYLE_COLOUR('',#986);
#986 = COLOUR_RGB('',0.650980375594,0.678431390124,0.686274507277);
#987 = MECHANICAL_DESIGN_GEOMETRIC_PRESENTATION_REPRESENTATION('',(#988,
    #996),#588);
#988 = STYLED_ITEM('color',(#989),#354);
#989 = PRESENTATION_STYLE_ASSIGNMENT((#990));
#990 = SURFACE_STYLE_USAGE(.BOTH.,#991);
#991 = SURFACE_SIDE_STYLE('',(#992));
#992 = SURFACE_STYLE_FILL_AREA(#993);
#993 = FILL_AREA_STYLE('',(#994));
#994 = FILL_AREA_STYLE_COLOUR('',#995);
#995 = COLOUR_RGB('',0.384313764467,0.423529428806,0.439215717829);
#996 = OVER_RIDING_STYLED_ITEM('overriding color',(#997),#354,#988);
#997 = PRESENTATION_STYLE_BY_CONTEXT((#998),#963);
#998 = SURFACE_STYLE_USAGE(.BOTH.,#999);
#999 = SURFACE_SIDE_STYLE('',(#1000));
#1000 = SURFACE_STYLE_FILL_AREA(#1001);
#1001 = FILL_AREA_STYLE('',(#1002));
#1002 = FILL_AREA_STYLE_COLOUR('',#1003);
#1003 = COLOUR_RGB('',0.384313764467,0.423529428806,0.439215717829);
#1004 = MECHANICAL_DESIGN_GEOMETRIC_PRESENTATION_REPRESENTATION('',(
    #1005,#1012,#1019,#1026,#1033,#1040),#929);
#1005 = STYLED_ITEM('color',(#1006),#607);
#1006 = PRESENTATION_STYLE_ASSIGNMENT((#1007));
#1007 = SURFACE_STYLE_USAGE(.BOTH.,#1008);
#1008 = SURFACE_SIDE_STYLE('',(#1009));
#1009 = SURFACE_STYLE_FILL_AREA(#1010);
#1010 = FILL_AREA_STYLE('',(#1011));
#1011 = FILL_AREA_STYLE_COLOUR('',#995);
#1012 = OVER_RIDING_STYLED_ITEM('overriding color',(#1013),#607,#1005);
#1013 = PRESENTATION_STYLE_BY_CONTEXT((#1014),#957);
#1014 = SURFACE_STYLE_USAGE(.BOTH.,#1015);
#1015 = SURFACE_SIDE_STYLE('',(#1016));
#1016 = SURFACE_STYLE_FILL_AREA(#1017);
#1017 = FILL_AREA_STYLE('',(#1018));
#1018 = FILL_AREA_STYLE_COLOUR('',#995);
#1019 = OVER_RIDING_STYLED_ITEM('overriding color',(#1020),#607,#1005);
#1020 = PRESENTATION_STYLE_BY_CONTEXT((#1021),#959);
#1021 = SURFACE_STYLE_USAGE(.BOTH.,#1022);
#1022 = SURFACE_SIDE_STYLE('',(#1023));
#1023 = SURFACE_STYLE_FILL_AREA(#1024);
#1024 = FILL_AREA_STYLE('',(#1025));
#1025 = FILL_AREA_STYLE_COLOUR('',#995);
#1026 = OVER_RIDING_STYLED_ITEM('overriding color',(#1027),#607,#1005);
#1027 = PRESENTATION_STYLE_BY_CONTEXT((#1028),#965);
#1028 = SURFACE_STYLE_USAGE(.BOTH.,#1029);
#1029 = SURFACE_SIDE_STYLE('',(#1030));
#1030 = SURFACE_STYLE_FILL_AREA(#1031);
#1031 = FILL_AREA_STYLE('',(#1032));
#1032 = FILL_AREA_STYLE_COLOUR('',#1003);
#1033 = OVER_RIDING_STYLED_ITEM('overriding color',(#1034),#607,#1005);
#1034 = PRESENTATION_STYLE_BY_CONTEXT((#1035),#967);
#1035 = SURFACE_STYLE_USAGE(.BOTH.,#1036);
#1036 = SURFACE_SIDE_STYLE('',(#1037));
#1037 = SURFACE_STYLE_FILL_AREA(#1038);
#1038 = FILL_AREA_STYLE('',(#1039));
#1039 = FILL_AREA_STYLE_COLOUR('',#1003);
#1040 = OVER_RIDING_STYLED_ITEM('overriding color',(#1041),#607,#1005);
#1041 = PRESENTATION_STYLE_BY_CONTEXT((#1042),#969);
#1042 = SURFACE_STYLE_USAGE(.BOTH.,#1043);
#1043 = SURFACE_SIDE_STYLE('',(#1044));
#1044 = SURFACE_STYLE_FILL_AREA(#1045);
#1045 = FILL_AREA_STYLE('',(#1046));
#1046 = FILL_AREA_STYLE_COLOUR('',#1003);
ENDSEC;
END-ISO-10303-21;
