# https://github.com/mikedh/trimesh
v -0.00000000 -0.04800000 -1.38200000
v 0.00287060 -0.04791409 -1.38200000
v 0.00573092 -0.04765665 -1.38200000
v 0.00857073 -0.04722862 -1.38200000
v 0.01137986 -0.04663152 -1.38200000
v 0.01414825 -0.04586749 -1.38200000
v 0.01686599 -0.04493927 -1.38200000
v 0.01952336 -0.04385018 -1.38200000
v 0.02211084 -0.04260412 -1.38200000
v 0.02461917 -0.04120554 -1.38200000
v 0.02703936 -0.03965946 -1.38200000
v 0.02936277 -0.03797141 -1.38200000
v 0.03158106 -0.03614743 -1.38200000
v 0.03368630 -0.03419405 -1.38200000
v 0.03567095 -0.03211827 -1.38200000
v 0.03752791 -0.02992751 -1.38200000
v 0.03925053 -0.02762962 -1.38200000
v 0.04083264 -0.02523282 -1.38200000
v 0.04226859 -0.02274570 -1.38200000
v 0.04355322 -0.02017715 -1.38200000
v 0.04468194 -0.01753637 -1.38200000
v 0.04565071 -0.01483282 -1.38200000
v 0.04645607 -0.01207616 -1.38200000
v 0.04709512 -0.00927628 -1.38200000
v 0.04756559 -0.00644320 -1.38200000
v 0.04786578 -0.00358704 -1.38200000
v 0.04799463 -0.00071805 -1.38200000
v 0.04795167 0.00215351 -1.38200000
v 0.04773705 0.00501737 -1.38200000
v 0.04735155 0.00786326 -1.38200000
v 0.04679654 0.01068100 -1.38200000
v 0.04607401 0.01346051 -1.38200000
v 0.04518655 0.01619184 -1.38200000
v 0.04413733 0.01886520 -1.38200000
v 0.04293012 0.02147103 -1.38200000
v 0.04156922 0.02400000 -1.38200000
v 0.04005952 0.02644306 -1.38200000
v 0.03840641 0.02879145 -1.38200000
v 0.03661582 0.03103678 -1.38200000
v 0.03469415 0.03317101 -1.38200000
v 0.03264829 0.03518649 -1.38200000
v 0.03048556 0.03707601 -1.38200000
v 0.02821369 0.03883282 -1.38200000
v 0.02584083 0.04045061 -1.38200000
v 0.02337546 0.04192359 -1.38200000
v 0.02082642 0.04324651 -1.38200000
v 0.01820282 0.04441461 -1.38200000
v 0.01551406 0.04542371 -1.38200000
v 0.01276977 0.04627022 -1.38200000
v 0.00997976 0.04695108 -1.38200000
v 0.00715403 0.04746388 -1.38200000
v 0.00430269 0.04780677 -1.38200000
v 0.00143594 0.04797852 -1.38200000
v -0.00143594 0.04797852 -1.38200000
v -0.00430269 0.04780677 -1.38200000
v -0.00715403 0.04746388 -1.38200000
v -0.00997976 0.04695108 -1.38200000
v -0.01276977 0.04627022 -1.38200000
v -0.01551406 0.04542371 -1.38200000
v -0.01820282 0.04441461 -1.38200000
v -0.02082642 0.04324651 -1.38200000
v -0.02337546 0.04192359 -1.38200000
v -0.02584083 0.04045061 -1.38200000
v -0.02821369 0.03883282 -1.38200000
v -0.03048556 0.03707601 -1.38200000
v -0.03264829 0.03518649 -1.38200000
v -0.03469415 0.03317101 -1.38200000
v -0.03661582 0.03103678 -1.38200000
v -0.03840641 0.02879145 -1.38200000
v -0.04005952 0.02644306 -1.38200000
v -0.04156922 0.02400000 -1.38200000
v -0.04293012 0.02147103 -1.38200000
v -0.04413733 0.01886520 -1.38200000
v -0.04518655 0.01619184 -1.38200000
v -0.04607401 0.01346051 -1.38200000
v -0.04679654 0.01068100 -1.38200000
v -0.04735155 0.00786326 -1.38200000
v -0.04773705 0.00501737 -1.38200000
v -0.04795167 0.00215351 -1.38200000
v -0.04799463 -0.00071805 -1.38200000
v -0.04786578 -0.00358704 -1.38200000
v -0.04756559 -0.00644320 -1.38200000
v -0.04709512 -0.00927628 -1.38200000
v -0.04645607 -0.01207616 -1.38200000
v -0.04565071 -0.01483282 -1.38200000
v -0.04468194 -0.01753637 -1.38200000
v -0.04355322 -0.02017715 -1.38200000
v -0.04226859 -0.02274570 -1.38200000
v -0.04083264 -0.02523282 -1.38200000
v -0.03925053 -0.02762962 -1.38200000
v -0.03752791 -0.02992751 -1.38200000
v -0.03567095 -0.03211827 -1.38200000
v -0.03368630 -0.03419405 -1.38200000
v -0.03158106 -0.03614743 -1.38200000
v -0.02936277 -0.03797141 -1.38200000
v -0.02703936 -0.03965946 -1.38200000
v -0.02461917 -0.04120554 -1.38200000
v -0.02211084 -0.04260412 -1.38200000
v -0.01952336 -0.04385018 -1.38200000
v -0.01686599 -0.04493927 -1.38200000
v -0.01414825 -0.04586749 -1.38200000
v -0.01137986 -0.04663152 -1.38200000
v -0.00857073 -0.04722862 -1.38200000
v -0.00573092 -0.04765665 -1.38200000
v -0.00287060 -0.04791409 -1.38200000
v -0.00000000 -0.04800000 -1.40000000
v 0.00287060 -0.04791409 -1.40000000
v 0.00573092 -0.04765665 -1.40000000
v 0.00857073 -0.04722862 -1.40000000
v 0.01137986 -0.04663152 -1.40000000
v 0.01414825 -0.04586749 -1.40000000
v 0.01686599 -0.04493927 -1.40000000
v 0.01952336 -0.04385018 -1.40000000
v 0.02211084 -0.04260412 -1.40000000
v 0.02461917 -0.04120554 -1.40000000
v 0.02703936 -0.03965946 -1.40000000
v 0.02936277 -0.03797141 -1.40000000
v 0.03158106 -0.03614743 -1.40000000
v 0.03368630 -0.03419405 -1.40000000
v 0.03567095 -0.03211827 -1.40000000
v 0.03752791 -0.02992751 -1.40000000
v 0.03925053 -0.02762962 -1.40000000
v 0.04083264 -0.02523282 -1.40000000
v 0.04226859 -0.02274570 -1.40000000
v 0.04355322 -0.02017715 -1.40000000
v 0.04468194 -0.01753637 -1.40000000
v 0.04565071 -0.01483282 -1.40000000
v 0.04645607 -0.01207616 -1.40000000
v 0.04709512 -0.00927628 -1.40000000
v 0.04756559 -0.00644320 -1.40000000
v 0.04786578 -0.00358704 -1.40000000
v 0.04799463 -0.00071805 -1.40000000
v 0.04795167 0.00215351 -1.40000000
v 0.04773705 0.00501737 -1.40000000
v 0.04735155 0.00786326 -1.40000000
v 0.04679654 0.01068100 -1.40000000
v 0.04607401 0.01346051 -1.40000000
v 0.04518655 0.01619184 -1.40000000
v 0.04413733 0.01886520 -1.40000000
v 0.04293012 0.02147103 -1.40000000
v 0.04156922 0.02400000 -1.40000000
v 0.04005952 0.02644306 -1.40000000
v 0.03840641 0.02879145 -1.40000000
v 0.03661582 0.03103678 -1.40000000
v 0.03469415 0.03317101 -1.40000000
v 0.03264829 0.03518649 -1.40000000
v 0.03048556 0.03707601 -1.40000000
v 0.02821369 0.03883282 -1.40000000
v 0.02584083 0.04045061 -1.40000000
v 0.02337546 0.04192359 -1.40000000
v 0.02082642 0.04324651 -1.40000000
v 0.01820282 0.04441461 -1.40000000
v 0.01551406 0.04542371 -1.40000000
v 0.01276977 0.04627022 -1.40000000
v 0.00997976 0.04695108 -1.40000000
v 0.00715403 0.04746388 -1.40000000
v 0.00430269 0.04780677 -1.40000000
v 0.00143594 0.04797852 -1.40000000
v -0.00143594 0.04797852 -1.40000000
v -0.00430269 0.04780677 -1.40000000
v -0.00715403 0.04746388 -1.40000000
v -0.00997976 0.04695108 -1.40000000
v -0.01276977 0.04627022 -1.40000000
v -0.01551406 0.04542371 -1.40000000
v -0.01820282 0.04441461 -1.40000000
v -0.02082642 0.04324651 -1.40000000
v -0.02337546 0.04192359 -1.40000000
v -0.02584083 0.04045061 -1.40000000
v -0.02821369 0.03883282 -1.40000000
v -0.03048556 0.03707601 -1.40000000
v -0.03264829 0.03518649 -1.40000000
v -0.03469415 0.03317101 -1.40000000
v -0.03661582 0.03103678 -1.40000000
v -0.03840641 0.02879145 -1.40000000
v -0.04005952 0.02644306 -1.40000000
v -0.04156922 0.02400000 -1.40000000
v -0.04293012 0.02147103 -1.40000000
v -0.04413733 0.01886520 -1.40000000
v -0.04518655 0.01619184 -1.40000000
v -0.04607401 0.01346051 -1.40000000
v -0.04679654 0.01068100 -1.40000000
v -0.04735155 0.00786326 -1.40000000
v -0.04773705 0.00501737 -1.40000000
v -0.04795167 0.00215351 -1.40000000
v -0.04799463 -0.00071805 -1.40000000
v -0.04786578 -0.00358704 -1.40000000
v -0.04756559 -0.00644320 -1.40000000
v -0.04709512 -0.00927628 -1.40000000
v -0.04645607 -0.01207616 -1.40000000
v -0.04565071 -0.01483282 -1.40000000
v -0.04468194 -0.01753637 -1.40000000
v -0.04355322 -0.02017715 -1.40000000
v -0.04226859 -0.02274570 -1.40000000
v -0.04083264 -0.02523282 -1.40000000
v -0.03925053 -0.02762962 -1.40000000
v -0.03752791 -0.02992751 -1.40000000
v -0.03567095 -0.03211827 -1.40000000
v -0.03368630 -0.03419405 -1.40000000
v -0.03158106 -0.03614743 -1.40000000
v -0.02936277 -0.03797141 -1.40000000
v -0.02703936 -0.03965946 -1.40000000
v -0.02461917 -0.04120554 -1.40000000
v -0.02211084 -0.04260412 -1.40000000
v -0.01952336 -0.04385018 -1.40000000
v -0.01686599 -0.04493927 -1.40000000
v -0.01414825 -0.04586749 -1.40000000
v -0.01137986 -0.04663152 -1.40000000
v -0.00857073 -0.04722862 -1.40000000
v -0.00573092 -0.04765665 -1.40000000
v -0.00287060 -0.04791409 -1.40000000
v -0.00000000 -0.03200000 -1.38200000
v 0.00191373 -0.03194272 -1.38200000
v 0.00382062 -0.03177110 -1.38200000
v 0.00571382 -0.03148575 -1.38200000
v 0.00758657 -0.03108768 -1.38200000
v 0.00943217 -0.03057833 -1.38200000
v 0.01124399 -0.02995952 -1.38200000
v 0.01301557 -0.02923345 -1.38200000
v 0.01474056 -0.02840275 -1.38200000
v 0.01641278 -0.02747036 -1.38200000
v 0.01802624 -0.02643964 -1.38200000
v 0.01957518 -0.02531427 -1.38200000
v 0.02105404 -0.02409829 -1.38200000
v 0.02245753 -0.02279604 -1.38200000
v 0.02378063 -0.02141218 -1.38200000
v 0.02501861 -0.01995167 -1.38200000
v 0.02616702 -0.01841975 -1.38200000
v 0.02722176 -0.01682188 -1.38200000
v 0.02817906 -0.01516380 -1.38200000
v 0.02903548 -0.01345143 -1.38200000
v 0.02978796 -0.01169091 -1.38200000
v 0.03043381 -0.00988854 -1.38200000
v 0.03097071 -0.00805078 -1.38200000
v 0.03139675 -0.00618419 -1.38200000
v 0.03171039 -0.00429546 -1.38200000
v 0.03191052 -0.00239136 -1.38200000
v 0.03199642 -0.00047870 -1.38200000
v 0.03196778 0.00143567 -1.38200000
v 0.03182470 0.00334491 -1.38200000
v 0.03156770 0.00524217 -1.38200000
v 0.03119769 0.00712067 -1.38200000
v 0.03071601 0.00897368 -1.38200000
v 0.03012437 0.01079456 -1.38200000
v 0.02942489 0.01257680 -1.38200000
v 0.02862008 0.01431402 -1.38200000
v 0.02771281 0.01600000 -1.38200000
v 0.02670634 0.01762870 -1.38200000
v 0.02560427 0.01919430 -1.38200000
v 0.02441055 0.02069119 -1.38200000
v 0.02312944 0.02211400 -1.38200000
v 0.02176553 0.02345766 -1.38200000
v 0.02032370 0.02471734 -1.38200000
v 0.01880913 0.02588854 -1.38200000
v 0.01722722 0.02696707 -1.38200000
v 0.01558364 0.02794906 -1.38200000
v 0.01388428 0.02883100 -1.38200000
v 0.01213521 0.02960974 -1.38200000
v 0.01034271 0.03028248 -1.38200000
v 0.00851318 0.03084681 -1.38200000
v 0.00665317 0.03130072 -1.38200000
v 0.00476935 0.03164259 -1.38200000
v 0.00286846 0.03187118 -1.38200000
v 0.00095729 0.03198568 -1.38200000
v -0.00095729 0.03198568 -1.38200000
v -0.00286846 0.03187118 -1.38200000
v -0.00476935 0.03164259 -1.38200000
v -0.00665317 0.03130072 -1.38200000
v -0.00851318 0.03084681 -1.38200000
v -0.01034271 0.03028248 -1.38200000
v -0.01213521 0.02960974 -1.38200000
v -0.01388428 0.02883100 -1.38200000
v -0.01558364 0.02794906 -1.38200000
v -0.01722722 0.02696707 -1.38200000
v -0.01880913 0.02588854 -1.38200000
v -0.02032370 0.02471734 -1.38200000
v -0.02176553 0.02345766 -1.38200000
v -0.02312944 0.02211400 -1.38200000
v -0.02441055 0.02069119 -1.38200000
v -0.02560427 0.01919430 -1.38200000
v -0.02670634 0.01762870 -1.38200000
v -0.02771281 0.01600000 -1.38200000
v -0.02862008 0.01431402 -1.38200000
v -0.02942489 0.01257680 -1.38200000
v -0.03012437 0.01079456 -1.38200000
v -0.03071601 0.00897368 -1.38200000
v -0.03119769 0.00712067 -1.38200000
v -0.03156770 0.00524217 -1.38200000
v -0.03182470 0.00334491 -1.38200000
v -0.03196778 0.00143567 -1.38200000
v -0.03199642 -0.00047870 -1.38200000
v -0.03191052 -0.00239136 -1.38200000
v -0.03171039 -0.00429546 -1.38200000
v -0.03139675 -0.00618419 -1.38200000
v -0.03097071 -0.00805078 -1.38200000
v -0.03043381 -0.00988854 -1.38200000
v -0.02978796 -0.01169091 -1.38200000
v -0.02903548 -0.01345143 -1.38200000
v -0.02817906 -0.01516380 -1.38200000
v -0.02722176 -0.01682188 -1.38200000
v -0.02616702 -0.01841975 -1.38200000
v -0.02501861 -0.01995167 -1.38200000
v -0.02378063 -0.02141218 -1.38200000
v -0.02245753 -0.02279604 -1.38200000
v -0.02105404 -0.02409829 -1.38200000
v -0.01957518 -0.02531427 -1.38200000
v -0.01802624 -0.02643964 -1.38200000
v -0.01641278 -0.02747036 -1.38200000
v -0.01474056 -0.02840275 -1.38200000
v -0.01301557 -0.02923345 -1.38200000
v -0.01124399 -0.02995952 -1.38200000
v -0.00943217 -0.03057833 -1.38200000
v -0.00758657 -0.03108768 -1.38200000
v -0.00571382 -0.03148575 -1.38200000
v -0.00382062 -0.03177110 -1.38200000
v -0.00191373 -0.03194272 -1.38200000
v -0.00000000 -0.03200000 -1.40000000
v 0.00191373 -0.03194272 -1.40000000
v 0.00382062 -0.03177110 -1.40000000
v 0.00571382 -0.03148575 -1.40000000
v 0.00758657 -0.03108768 -1.40000000
v 0.00943217 -0.03057833 -1.40000000
v 0.01124399 -0.02995952 -1.40000000
v 0.01301557 -0.02923345 -1.40000000
v 0.01474056 -0.02840275 -1.40000000
v 0.01641278 -0.02747036 -1.40000000
v 0.01802624 -0.02643964 -1.40000000
v 0.01957518 -0.02531427 -1.40000000
v 0.02105404 -0.02409829 -1.40000000
v 0.02245753 -0.02279604 -1.40000000
v 0.02378063 -0.02141218 -1.40000000
v 0.02501861 -0.01995167 -1.40000000
v 0.02616702 -0.01841975 -1.40000000
v 0.02722176 -0.01682188 -1.40000000
v 0.02817906 -0.01516380 -1.40000000
v 0.02903548 -0.01345143 -1.40000000
v 0.02978796 -0.01169091 -1.40000000
v 0.03043381 -0.00988854 -1.40000000
v 0.03097071 -0.00805078 -1.40000000
v 0.03139675 -0.00618419 -1.40000000
v 0.03171039 -0.00429546 -1.40000000
v 0.03191052 -0.00239136 -1.40000000
v 0.03199642 -0.00047870 -1.40000000
v 0.03196778 0.00143567 -1.40000000
v 0.03182470 0.00334491 -1.40000000
v 0.03156770 0.00524217 -1.40000000
v 0.03119769 0.00712067 -1.40000000
v 0.03071601 0.00897368 -1.40000000
v 0.03012437 0.01079456 -1.40000000
v 0.02942489 0.01257680 -1.40000000
v 0.02862008 0.01431402 -1.40000000
v 0.02771281 0.01600000 -1.40000000
v 0.02670634 0.01762870 -1.40000000
v 0.02560427 0.01919430 -1.40000000
v 0.02441055 0.02069119 -1.40000000
v 0.02312944 0.02211400 -1.40000000
v 0.02176553 0.02345766 -1.40000000
v 0.02032370 0.02471734 -1.40000000
v 0.01880913 0.02588854 -1.40000000
v 0.01722722 0.02696707 -1.40000000
v 0.01558364 0.02794906 -1.40000000
v 0.01388428 0.02883100 -1.40000000
v 0.01213521 0.02960974 -1.40000000
v 0.01034271 0.03028248 -1.40000000
v 0.00851318 0.03084681 -1.40000000
v 0.00665317 0.03130072 -1.40000000
v 0.00476935 0.03164259 -1.40000000
v 0.00286846 0.03187118 -1.40000000
v 0.00095729 0.03198568 -1.40000000
v -0.00095729 0.03198568 -1.40000000
v -0.00286846 0.03187118 -1.40000000
v -0.00476935 0.03164259 -1.40000000
v -0.00665317 0.03130072 -1.40000000
v -0.00851318 0.03084681 -1.40000000
v -0.01034271 0.03028248 -1.40000000
v -0.01213521 0.02960974 -1.40000000
v -0.01388428 0.02883100 -1.40000000
v -0.01558364 0.02794906 -1.40000000
v -0.01722722 0.02696707 -1.40000000
v -0.01880913 0.02588854 -1.40000000
v -0.02032370 0.02471734 -1.40000000
v -0.02176553 0.02345766 -1.40000000
v -0.02312944 0.02211400 -1.40000000
v -0.02441055 0.02069119 -1.40000000
v -0.02560427 0.01919430 -1.40000000
v -0.02670634 0.01762870 -1.40000000
v -0.02771281 0.01600000 -1.40000000
v -0.02862008 0.01431402 -1.40000000
v -0.02942489 0.01257680 -1.40000000
v -0.03012437 0.01079456 -1.40000000
v -0.03071601 0.00897368 -1.40000000
v -0.03119769 0.00712067 -1.40000000
v -0.03156770 0.00524217 -1.40000000
v -0.03182470 0.00334491 -1.40000000
v -0.03196778 0.00143567 -1.40000000
v -0.03199642 -0.00047870 -1.40000000
v -0.03191052 -0.00239136 -1.40000000
v -0.03171039 -0.00429546 -1.40000000
v -0.03139675 -0.00618419 -1.40000000
v -0.03097071 -0.00805078 -1.40000000
v -0.03043381 -0.00988854 -1.40000000
v -0.02978796 -0.01169091 -1.40000000
v -0.02903548 -0.01345143 -1.40000000
v -0.02817906 -0.01516380 -1.40000000
v -0.02722176 -0.01682188 -1.40000000
v -0.02616702 -0.01841975 -1.40000000
v -0.02501861 -0.01995167 -1.40000000
v -0.02378063 -0.02141218 -1.40000000
v -0.02245753 -0.02279604 -1.40000000
v -0.02105404 -0.02409829 -1.40000000
v -0.01957518 -0.02531427 -1.40000000
v -0.01802624 -0.02643964 -1.40000000
v -0.01641278 -0.02747036 -1.40000000
v -0.01474056 -0.02840275 -1.40000000
v -0.01301557 -0.02923345 -1.40000000
v -0.01124399 -0.02995952 -1.40000000
v -0.00943217 -0.03057833 -1.40000000
v -0.00758657 -0.03108768 -1.40000000
v -0.00571382 -0.03148575 -1.40000000
v -0.00382062 -0.03177110 -1.40000000
v -0.00191373 -0.03194272 -1.40000000
v -0.00000000 -0.03200000 -1.33500000
v 0.00191373 -0.03194272 -1.33500000
v 0.00382062 -0.03177110 -1.33500000
v 0.00571382 -0.03148575 -1.33500000
v 0.00758657 -0.03108768 -1.33500000
v 0.00943217 -0.03057833 -1.33500000
v 0.01124399 -0.02995952 -1.33500000
v 0.01301557 -0.02923345 -1.33500000
v 0.01474056 -0.02840275 -1.33500000
v 0.01641278 -0.02747036 -1.33500000
v 0.01802624 -0.02643964 -1.33500000
v 0.01957518 -0.02531427 -1.33500000
v 0.02105404 -0.02409829 -1.33500000
v 0.02245753 -0.02279604 -1.33500000
v 0.02378063 -0.02141218 -1.33500000
v 0.02501861 -0.01995167 -1.33500000
v 0.02616702 -0.01841975 -1.33500000
v 0.02722176 -0.01682188 -1.33500000
v 0.02817906 -0.01516380 -1.33500000
v 0.02903548 -0.01345143 -1.33500000
v 0.02978796 -0.01169091 -1.33500000
v 0.03043381 -0.00988854 -1.33500000
v 0.03097071 -0.00805078 -1.33500000
v 0.03139675 -0.00618419 -1.33500000
v 0.03171039 -0.00429546 -1.33500000
v 0.03191052 -0.00239136 -1.33500000
v 0.03199642 -0.00047870 -1.33500000
v 0.03196778 0.00143567 -1.33500000
v 0.03182470 0.00334491 -1.33500000
v 0.03156770 0.00524217 -1.33500000
v 0.03119769 0.00712067 -1.33500000
v 0.03071601 0.00897368 -1.33500000
v 0.03012437 0.01079456 -1.33500000
v 0.02942489 0.01257680 -1.33500000
v 0.02862008 0.01431402 -1.33500000
v 0.02771281 0.01600000 -1.33500000
v 0.02670634 0.01762870 -1.33500000
v 0.02560427 0.01919430 -1.33500000
v 0.02441055 0.02069119 -1.33500000
v 0.02312944 0.02211400 -1.33500000
v 0.02176553 0.02345766 -1.33500000
v 0.02032370 0.02471734 -1.33500000
v 0.01880913 0.02588854 -1.33500000
v 0.01722722 0.02696707 -1.33500000
v 0.01558364 0.02794906 -1.33500000
v 0.01388428 0.02883100 -1.33500000
v 0.01213521 0.02960974 -1.33500000
v 0.01034271 0.03028248 -1.33500000
v 0.00851318 0.03084681 -1.33500000
v 0.00665317 0.03130072 -1.33500000
v 0.00476935 0.03164259 -1.33500000
v 0.00286846 0.03187118 -1.33500000
v 0.00095729 0.03198568 -1.33500000
v -0.00095729 0.03198568 -1.33500000
v -0.00286846 0.03187118 -1.33500000
v -0.00476935 0.03164259 -1.33500000
v -0.00665317 0.03130072 -1.33500000
v -0.00851318 0.03084681 -1.33500000
v -0.01034271 0.03028248 -1.33500000
v -0.01213521 0.02960974 -1.33500000
v -0.01388428 0.02883100 -1.33500000
v -0.01558364 0.02794906 -1.33500000
v -0.01722722 0.02696707 -1.33500000
v -0.01880913 0.02588854 -1.33500000
v -0.02032370 0.02471734 -1.33500000
v -0.02176553 0.02345766 -1.33500000
v -0.02312944 0.02211400 -1.33500000
v -0.02441055 0.02069119 -1.33500000
v -0.02560427 0.01919430 -1.33500000
v -0.02670634 0.01762870 -1.33500000
v -0.02771281 0.01600000 -1.33500000
v -0.02862008 0.01431402 -1.33500000
v -0.02942489 0.01257680 -1.33500000
v -0.03012437 0.01079456 -1.33500000
v -0.03071601 0.00897368 -1.33500000
v -0.03119769 0.00712067 -1.33500000
v -0.03156770 0.00524217 -1.33500000
v -0.03182470 0.00334491 -1.33500000
v -0.03196778 0.00143567 -1.33500000
v -0.03199642 -0.00047870 -1.33500000
v -0.03191052 -0.00239136 -1.33500000
v -0.03171039 -0.00429546 -1.33500000
v -0.03139675 -0.00618419 -1.33500000
v -0.03097071 -0.00805078 -1.33500000
v -0.03043381 -0.00988854 -1.33500000
v -0.02978796 -0.01169091 -1.33500000
v -0.02903548 -0.01345143 -1.33500000
v -0.02817906 -0.01516380 -1.33500000
v -0.02722176 -0.01682188 -1.33500000
v -0.02616702 -0.01841975 -1.33500000
v -0.02501861 -0.01995167 -1.33500000
v -0.02378063 -0.02141218 -1.33500000
v -0.02245753 -0.02279604 -1.33500000
v -0.02105404 -0.02409829 -1.33500000
v -0.01957518 -0.02531427 -1.33500000
v -0.01802624 -0.02643964 -1.33500000
v -0.01641278 -0.02747036 -1.33500000
v -0.01474056 -0.02840275 -1.33500000
v -0.01301557 -0.02923345 -1.33500000
v -0.01124399 -0.02995952 -1.33500000
v -0.00943217 -0.03057833 -1.33500000
v -0.00758657 -0.03108768 -1.33500000
v -0.00571382 -0.03148575 -1.33500000
v -0.00382062 -0.03177110 -1.33500000
v -0.00191373 -0.03194272 -1.33500000
v -0.00000000 -0.03200000 -1.34000000
v 0.00191373 -0.03194272 -1.34000000
v 0.00382062 -0.03177110 -1.34000000
v 0.00571382 -0.03148575 -1.34000000
v 0.00758657 -0.03108768 -1.34000000
v 0.00943217 -0.03057833 -1.34000000
v 0.01124399 -0.02995952 -1.34000000
v 0.01301557 -0.02923345 -1.34000000
v 0.01474056 -0.02840275 -1.34000000
v 0.01641278 -0.02747036 -1.34000000
v 0.01802624 -0.02643964 -1.34000000
v 0.01957518 -0.02531427 -1.34000000
v 0.02105404 -0.02409829 -1.34000000
v 0.02245753 -0.02279604 -1.34000000
v 0.02378063 -0.02141218 -1.34000000
v 0.02501861 -0.01995167 -1.34000000
v 0.02616702 -0.01841975 -1.34000000
v 0.02722176 -0.01682188 -1.34000000
v 0.02817906 -0.01516380 -1.34000000
v 0.02903548 -0.01345143 -1.34000000
v 0.02978796 -0.01169091 -1.34000000
v 0.03043381 -0.00988854 -1.34000000
v 0.03097071 -0.00805078 -1.34000000
v 0.03139675 -0.00618419 -1.34000000
v 0.03171039 -0.00429546 -1.34000000
v 0.03191052 -0.00239136 -1.34000000
v 0.03199642 -0.00047870 -1.34000000
v 0.03196778 0.00143567 -1.34000000
v 0.03182470 0.00334491 -1.34000000
v 0.03156770 0.00524217 -1.34000000
v 0.03119769 0.00712067 -1.34000000
v 0.03071601 0.00897368 -1.34000000
v 0.03012437 0.01079456 -1.34000000
v 0.02942489 0.01257680 -1.34000000
v 0.02862008 0.01431402 -1.34000000
v 0.02771281 0.01600000 -1.34000000
v 0.02670634 0.01762870 -1.34000000
v 0.02560427 0.01919430 -1.34000000
v 0.02441055 0.02069119 -1.34000000
v 0.02312944 0.02211400 -1.34000000
v 0.02176553 0.02345766 -1.34000000
v 0.02032370 0.02471734 -1.34000000
v 0.01880913 0.02588854 -1.34000000
v 0.01722722 0.02696707 -1.34000000
v 0.01558364 0.02794906 -1.34000000
v 0.01388428 0.02883100 -1.34000000
v 0.01213521 0.02960974 -1.34000000
v 0.01034271 0.03028248 -1.34000000
v 0.00851318 0.03084681 -1.34000000
v 0.00665317 0.03130072 -1.34000000
v 0.00476935 0.03164259 -1.34000000
v 0.00286846 0.03187118 -1.34000000
v 0.00095729 0.03198568 -1.34000000
v -0.00095729 0.03198568 -1.34000000
v -0.00286846 0.03187118 -1.34000000
v -0.00476935 0.03164259 -1.34000000
v -0.00665317 0.03130072 -1.34000000
v -0.00851318 0.03084681 -1.34000000
v -0.01034271 0.03028248 -1.34000000
v -0.01213521 0.02960974 -1.34000000
v -0.01388428 0.02883100 -1.34000000
v -0.01558364 0.02794906 -1.34000000
v -0.01722722 0.02696707 -1.34000000
v -0.01880913 0.02588854 -1.34000000
v -0.02032370 0.02471734 -1.34000000
v -0.02176553 0.02345766 -1.34000000
v -0.02312944 0.02211400 -1.34000000
v -0.02441055 0.02069119 -1.34000000
v -0.02560427 0.01919430 -1.34000000
v -0.02670634 0.01762870 -1.34000000
v -0.02771281 0.01600000 -1.34000000
v -0.02862008 0.01431402 -1.34000000
v -0.02942489 0.01257680 -1.34000000
v -0.03012437 0.01079456 -1.34000000
v -0.03071601 0.00897368 -1.34000000
v -0.03119769 0.00712067 -1.34000000
v -0.03156770 0.00524217 -1.34000000
v -0.03182470 0.00334491 -1.34000000
v -0.03196778 0.00143567 -1.34000000
v -0.03199642 -0.00047870 -1.34000000
v -0.03191052 -0.00239136 -1.34000000
v -0.03171039 -0.00429546 -1.34000000
v -0.03139675 -0.00618419 -1.34000000
v -0.03097071 -0.00805078 -1.34000000
v -0.03043381 -0.00988854 -1.34000000
v -0.02978796 -0.01169091 -1.34000000
v -0.02903548 -0.01345143 -1.34000000
v -0.02817906 -0.01516380 -1.34000000
v -0.02722176 -0.01682188 -1.34000000
v -0.02616702 -0.01841975 -1.34000000
v -0.02501861 -0.01995167 -1.34000000
v -0.02378063 -0.02141218 -1.34000000
v -0.02245753 -0.02279604 -1.34000000
v -0.02105404 -0.02409829 -1.34000000
v -0.01957518 -0.02531427 -1.34000000
v -0.01802624 -0.02643964 -1.34000000
v -0.01641278 -0.02747036 -1.34000000
v -0.01474056 -0.02840275 -1.34000000
v -0.01301557 -0.02923345 -1.34000000
v -0.01124399 -0.02995952 -1.34000000
v -0.00943217 -0.03057833 -1.34000000
v -0.00758657 -0.03108768 -1.34000000
v -0.00571382 -0.03148575 -1.34000000
v -0.00382062 -0.03177110 -1.34000000
v -0.00191373 -0.03194272 -1.34000000
f 2 1 106
f 2 106 107
f 3 107 108
f 3 108 109
f 3 2 107
f 4 3 109
f 5 109 110
f 5 4 109
f 6 110 111
f 6 111 112
f 6 5 110
f 7 6 112
f 8 112 113
f 8 7 112
f 9 113 114
f 9 8 113
f 10 114 115
f 10 9 114
f 11 115 116
f 11 10 115
f 12 116 117
f 12 117 118
f 12 11 116
f 13 12 118
f 14 118 119
f 14 13 118
f 15 119 120
f 15 120 121
f 15 14 119
f 16 15 121
f 17 121 122
f 17 122 123
f 17 16 121
f 18 17 123
f 19 123 124
f 19 124 125
f 19 18 123
f 20 19 125
f 21 125 126
f 21 126 127
f 21 20 125
f 22 21 127
f 23 22 127
f 23 127 128
f 23 128 129
f 24 23 129
f 25 24 129
f 25 129 130
f 25 130 131
f 26 25 131
f 27 26 131
f 27 131 132
f 27 132 133
f 28 27 133
f 28 133 134
f 29 28 134
f 30 29 134
f 30 134 135
f 30 135 136
f 31 30 136
f 32 136 137
f 32 31 136
f 32 137 138
f 33 138 139
f 33 32 138
f 34 33 139
f 35 139 140
f 35 34 139
f 36 140 141
f 36 141 142
f 36 35 140
f 37 142 143
f 37 36 142
f 38 37 143
f 39 143 144
f 39 38 143
f 40 144 145
f 40 145 146
f 40 39 144
f 41 146 147
f 41 40 146
f 42 147 148
f 42 41 147
f 43 42 148
f 44 148 149
f 44 43 148
f 45 149 150
f 45 150 151
f 45 44 149
f 46 45 151
f 47 151 152
f 47 46 151
f 48 152 153
f 48 47 152
f 49 48 153
f 49 153 154
f 49 154 155
f 50 49 155
f 51 50 155
f 51 155 156
f 52 51 156
f 52 156 157
f 52 157 158
f 53 52 158
f 54 53 158
f 54 158 159
f 55 54 159
f 55 159 160
f 56 55 160
f 56 160 161
f 57 56 161
f 57 161 162
f 58 57 162
f 58 162 163
f 59 58 163
f 59 163 164
f 60 59 164
f 60 164 165
f 61 60 165
f 61 165 166
f 62 61 166
f 62 166 167
f 63 62 167
f 63 167 168
f 64 63 168
f 64 168 169
f 64 169 170
f 65 64 170
f 66 170 171
f 66 65 170
f 67 171 172
f 67 172 173
f 67 66 171
f 68 67 173
f 69 173 174
f 69 174 175
f 69 68 173
f 70 69 175
f 71 175 176
f 71 70 175
f 72 176 177
f 72 71 176
f 73 72 177
f 73 177 178
f 74 73 178
f 74 178 179
f 75 74 179
f 75 179 180
f 76 75 180
f 76 180 181
f 77 76 181
f 77 181 182
f 78 77 182
f 78 182 183
f 78 183 184
f 79 78 184
f 80 79 184
f 80 184 185
f 81 80 185
f 81 185 186
f 81 186 187
f 82 81 187
f 83 82 187
f 83 187 188
f 84 83 188
f 84 188 189
f 85 84 189
f 85 189 190
f 86 85 190
f 86 190 191
f 86 191 192
f 87 86 192
f 88 87 192
f 88 192 193
f 89 88 193
f 89 193 194
f 90 89 194
f 90 194 195
f 90 195 196
f 91 90 196
f 92 91 196
f 92 196 197
f 93 92 197
f 93 197 198
f 94 93 198
f 94 198 199
f 95 94 199
f 95 199 200
f 96 95 200
f 96 200 201
f 97 201 202
f 97 96 201
f 98 202 203
f 98 203 204
f 98 97 202
f 99 98 204
f 100 204 205
f 100 99 204
f 101 205 206
f 101 100 205
f 102 206 207
f 102 101 206
f 103 207 208
f 103 102 207
f 104 208 209
f 104 103 208
f 105 209 210
f 105 210 106
f 105 104 209
f 1 105 106
f 277 66 67
f 276 66 277
f 278 277 67
f 278 67 68
f 275 64 65
f 275 65 66
f 275 66 276
f 279 68 69
f 279 278 68
f 274 63 64
f 274 64 275
f 280 279 69
f 280 69 70
f 273 63 274
f 281 280 70
f 281 70 71
f 272 63 273
f 272 62 63
f 282 71 72
f 282 281 71
f 271 61 62
f 271 62 272
f 283 282 72
f 283 72 73
f 270 61 271
f 270 59 60
f 270 60 61
f 284 73 74
f 284 283 73
f 269 58 59
f 269 59 270
f 285 284 74
f 285 74 75
f 285 75 76
f 268 58 269
f 286 285 76
f 267 58 268
f 267 57 58
f 287 286 76
f 287 76 77
f 266 57 267
f 266 56 57
f 288 287 77
f 288 77 78
f 288 78 79
f 265 56 266
f 265 55 56
f 289 288 79
f 289 79 80
f 264 55 265
f 264 54 55
f 290 289 80
f 263 54 264
f 263 53 54
f 291 290 80
f 291 80 81
f 262 53 263
f 262 52 53
f 292 291 81
f 292 81 82
f 261 52 262
f 261 51 52
f 293 292 82
f 293 82 83
f 293 83 84
f 260 51 261
f 260 50 51
f 294 293 84
f 259 49 50
f 259 50 260
f 295 294 84
f 295 84 85
f 258 48 49
f 258 49 259
f 296 295 85
f 296 85 86
f 257 48 258
f 257 47 48
f 297 296 86
f 297 86 87
f 256 47 257
f 256 46 47
f 298 297 87
f 298 87 88
f 255 45 46
f 255 46 256
f 299 88 89
f 299 298 88
f 254 43 44
f 254 44 45
f 254 45 255
f 300 89 90
f 300 299 89
f 253 43 254
f 301 300 90
f 301 90 91
f 252 43 253
f 252 42 43
f 41 42 252
f 302 91 92
f 302 301 91
f 251 41 252
f 93 302 92
f 93 303 302
f 250 41 251
f 40 41 250
f 94 303 93
f 94 304 303
f 39 40 250
f 39 250 249
f 248 39 249
f 95 304 94
f 95 305 304
f 95 306 305
f 38 39 248
f 96 306 95
f 96 307 306
f 37 248 247
f 37 38 248
f 97 307 96
f 36 247 246
f 36 37 247
f 98 308 307
f 98 309 308
f 98 307 97
f 35 246 245
f 35 36 246
f 99 309 98
f 34 245 244
f 34 35 245
f 100 310 309
f 100 311 310
f 100 309 99
f 33 34 244
f 33 243 242
f 33 244 243
f 101 312 311
f 101 311 100
f 32 242 241
f 32 33 242
f 102 312 101
f 31 32 241
f 103 313 312
f 103 312 102
f 30 240 239
f 30 241 240
f 30 31 241
f 104 314 313
f 104 315 314
f 104 313 103
f 29 30 239
f 105 315 104
f 28 239 238
f 28 29 239
f 1 212 211
f 1 211 315
f 1 315 105
f 27 238 237
f 27 28 238
f 2 212 1
f 26 237 236
f 26 27 237
f 3 213 212
f 3 214 213
f 3 212 2
f 25 235 234
f 25 236 235
f 25 26 236
f 4 215 214
f 4 214 3
f 24 25 234
f 5 215 4
f 23 233 232
f 23 234 233
f 23 24 234
f 6 216 215
f 6 215 5
f 22 23 232
f 7 217 216
f 7 218 217
f 7 216 6
f 21 232 231
f 21 22 232
f 8 218 7
f 20 230 229
f 20 231 230
f 20 21 231
f 9 219 218
f 9 220 219
f 9 218 8
f 19 20 229
f 10 220 9
f 18 19 229
f 18 229 228
f 11 221 220
f 11 222 221
f 11 220 10
f 17 18 228
f 17 228 227
f 12 222 11
f 16 17 227
f 16 226 225
f 16 227 226
f 13 223 222
f 13 224 223
f 13 222 12
f 15 16 225
f 15 225 224
f 14 224 13
f 14 15 224
f 382 172 171
f 381 382 171
f 383 172 382
f 383 173 172
f 380 170 169
f 380 171 170
f 380 381 171
f 384 174 173
f 384 173 383
f 379 169 168
f 379 380 169
f 385 174 384
f 385 175 174
f 378 379 168
f 386 175 385
f 386 176 175
f 377 378 168
f 377 168 167
f 387 177 176
f 387 176 386
f 376 167 166
f 376 377 167
f 388 177 387
f 388 178 177
f 375 376 166
f 375 165 164
f 375 166 165
f 389 179 178
f 389 178 388
f 374 164 163
f 374 375 164
f 390 179 389
f 390 180 179
f 390 181 180
f 373 374 163
f 391 181 390
f 372 373 163
f 372 163 162
f 392 181 391
f 392 182 181
f 371 372 162
f 371 162 161
f 393 182 392
f 393 183 182
f 393 184 183
f 370 371 161
f 370 161 160
f 394 184 393
f 394 185 184
f 369 370 160
f 369 160 159
f 395 185 394
f 368 369 159
f 368 159 158
f 396 185 395
f 396 186 185
f 367 368 158
f 367 158 157
f 397 186 396
f 397 187 186
f 366 367 157
f 366 157 156
f 398 187 397
f 398 188 187
f 398 189 188
f 365 366 156
f 365 156 155
f 399 189 398
f 364 155 154
f 364 365 155
f 400 189 399
f 400 190 189
f 363 154 153
f 363 364 154
f 401 190 400
f 401 191 190
f 362 363 153
f 362 153 152
f 402 191 401
f 402 192 191
f 361 362 152
f 361 152 151
f 403 192 402
f 403 193 192
f 360 151 150
f 360 361 151
f 404 194 193
f 404 193 403
f 359 149 148
f 359 150 149
f 359 360 150
f 405 195 194
f 405 194 404
f 358 359 148
f 406 195 405
f 406 196 195
f 357 358 148
f 357 148 147
f 146 357 147
f 407 197 196
f 407 196 406
f 356 357 146
f 198 197 407
f 198 407 408
f 355 356 146
f 145 355 146
f 199 198 408
f 199 408 409
f 144 355 145
f 144 354 355
f 353 354 144
f 200 199 409
f 200 409 410
f 200 410 411
f 143 353 144
f 201 200 411
f 201 411 412
f 142 352 353
f 142 353 143
f 202 201 412
f 141 351 352
f 141 352 142
f 203 412 413
f 203 413 414
f 203 202 412
f 140 350 351
f 140 351 141
f 204 203 414
f 139 349 350
f 139 350 140
f 205 414 415
f 205 415 416
f 205 204 414
f 138 349 139
f 138 347 348
f 138 348 349
f 206 416 417
f 206 205 416
f 137 346 347
f 137 347 138
f 207 206 417
f 136 346 137
f 208 417 418
f 208 207 417
f 135 344 345
f 135 345 346
f 135 346 136
f 209 418 419
f 209 419 420
f 209 208 418
f 134 344 135
f 210 209 420
f 133 343 344
f 133 344 134
f 106 316 317
f 106 420 316
f 106 210 420
f 132 342 343
f 132 343 133
f 107 106 317
f 131 341 342
f 131 342 132
f 108 317 318
f 108 318 319
f 108 107 317
f 130 339 340
f 130 340 341
f 130 341 131
f 109 319 320
f 109 108 319
f 129 339 130
f 110 109 320
f 128 337 338
f 128 338 339
f 128 339 129
f 111 320 321
f 111 110 320
f 127 337 128
f 112 321 322
f 112 322 323
f 112 111 321
f 126 336 337
f 126 337 127
f 113 112 323
f 125 334 335
f 125 335 336
f 125 336 126
f 114 323 324
f 114 324 325
f 114 113 323
f 124 334 125
f 115 114 325
f 123 334 124
f 123 333 334
f 116 325 326
f 116 326 327
f 116 115 325
f 122 333 123
f 122 332 333
f 117 116 327
f 121 332 122
f 121 330 331
f 121 331 332
f 118 327 328
f 118 328 329
f 118 117 327
f 120 330 121
f 120 329 330
f 119 118 329
f 119 329 120
f 212 316 211
f 212 317 316
f 213 318 317
f 213 319 318
f 213 317 212
f 214 319 213
f 215 320 319
f 215 319 214
f 216 321 320
f 216 322 321
f 216 320 215
f 217 322 216
f 218 323 322
f 218 322 217
f 219 324 323
f 219 323 218
f 220 325 324
f 220 324 219
f 221 326 325
f 221 325 220
f 222 327 326
f 222 328 327
f 222 326 221
f 223 328 222
f 224 329 328
f 224 328 223
f 225 330 329
f 225 331 330
f 225 329 224
f 226 331 225
f 227 332 331
f 227 333 332
f 227 331 226
f 228 333 227
f 229 334 333
f 229 335 334
f 229 333 228
f 230 335 229
f 231 336 335
f 231 337 336
f 231 335 230
f 232 337 231
f 233 337 232
f 233 338 337
f 233 339 338
f 234 339 233
f 235 339 234
f 235 340 339
f 235 341 340
f 236 341 235
f 237 341 236
f 237 342 341
f 237 343 342
f 238 343 237
f 238 344 343
f 239 344 238
f 240 344 239
f 240 345 344
f 240 346 345
f 241 346 240
f 242 347 346
f 242 346 241
f 242 348 347
f 243 349 348
f 243 348 242
f 244 349 243
f 245 350 349
f 245 349 244
f 246 351 350
f 246 352 351
f 246 350 245
f 247 353 352
f 247 352 246
f 248 353 247
f 249 354 353
f 249 353 248
f 250 355 354
f 250 356 355
f 250 354 249
f 251 357 356
f 251 356 250
f 252 358 357
f 252 357 251
f 253 358 252
f 254 359 358
f 254 358 253
f 255 360 359
f 255 361 360
f 255 359 254
f 256 361 255
f 257 362 361
f 257 361 256
f 258 363 362
f 258 362 257
f 259 363 258
f 259 364 363
f 259 365 364
f 260 365 259
f 261 365 260
f 261 366 365
f 262 366 261
f 262 367 366
f 262 368 367
f 263 368 262
f 264 368 263
f 264 369 368
f 265 369 264
f 265 370 369
f 266 370 265
f 266 371 370
f 267 371 266
f 267 372 371
f 268 372 267
f 268 373 372
f 269 373 268
f 269 374 373
f 270 374 269
f 270 375 374
f 271 375 270
f 271 376 375
f 272 376 271
f 272 377 376
f 273 377 272
f 273 378 377
f 274 378 273
f 274 379 378
f 274 380 379
f 275 380 274
f 276 381 380
f 276 380 275
f 277 382 381
f 277 383 382
f 277 381 276
f 278 383 277
f 279 384 383
f 279 385 384
f 279 383 278
f 280 385 279
f 281 386 385
f 281 385 280
f 282 387 386
f 282 386 281
f 283 387 282
f 283 388 387
f 284 388 283
f 284 389 388
f 285 389 284
f 285 390 389
f 286 390 285
f 286 391 390
f 287 391 286
f 287 392 391
f 288 392 287
f 288 393 392
f 288 394 393
f 289 394 288
f 290 394 289
f 290 395 394
f 291 395 290
f 291 396 395
f 291 397 396
f 292 397 291
f 293 397 292
f 293 398 397
f 294 398 293
f 294 399 398
f 295 399 294
f 295 400 399
f 296 400 295
f 296 401 400
f 296 402 401
f 297 402 296
f 298 402 297
f 298 403 402
f 299 403 298
f 299 404 403
f 300 404 299
f 300 405 404
f 300 406 405
f 301 406 300
f 302 406 301
f 302 407 406
f 303 407 302
f 303 408 407
f 304 408 303
f 304 409 408
f 305 409 304
f 305 410 409
f 306 410 305
f 306 411 410
f 307 412 411
f 307 411 306
f 308 413 412
f 308 414 413
f 308 412 307
f 309 414 308
f 310 415 414
f 310 414 309
f 311 416 415
f 311 415 310
f 312 417 416
f 312 416 311
f 313 418 417
f 313 417 312
f 314 419 418
f 314 418 313
f 315 420 419
f 315 316 420
f 315 419 314
f 211 316 315
f 422 421 526
f 422 526 527
f 423 527 528
f 423 422 527
f 424 528 529
f 424 423 528
f 425 529 530
f 425 530 531
f 425 424 529
f 426 425 531
f 427 531 532
f 427 426 531
f 428 532 533
f 428 427 532
f 429 533 534
f 429 534 535
f 429 428 533
f 430 535 536
f 430 429 535
f 431 430 536
f 432 536 537
f 432 431 536
f 433 537 538
f 433 538 539
f 433 432 537
f 434 539 540
f 434 433 539
f 435 434 540
f 436 540 541
f 436 435 540
f 437 541 542
f 437 436 541
f 438 542 543
f 438 543 544
f 438 437 542
f 439 438 544
f 440 544 545
f 440 439 544
f 441 545 546
f 441 546 547
f 441 440 545
f 442 441 547
f 443 442 547
f 443 547 548
f 444 443 548
f 444 548 549
f 445 444 549
f 445 549 550
f 446 445 550
f 446 550 551
f 447 446 551
f 447 551 552
f 448 447 552
f 448 552 553
f 449 448 553
f 449 553 554
f 449 554 555
f 450 449 555
f 451 450 555
f 451 555 556
f 452 556 557
f 452 451 556
f 453 557 558
f 453 452 557
f 454 558 559
f 454 453 558
f 455 559 560
f 455 454 559
f 456 560 561
f 456 455 560
f 457 561 562
f 457 456 561
f 458 562 563
f 458 563 564
f 458 457 562
f 459 458 564
f 460 564 565
f 460 565 566
f 460 459 564
f 461 460 566
f 462 566 567
f 462 461 566
f 463 567 568
f 463 568 569
f 463 462 567
f 464 463 569
f 465 569 570
f 465 464 569
f 466 570 571
f 466 571 572
f 466 465 570
f 467 466 572
f 468 572 573
f 468 573 574
f 468 467 572
f 469 468 574
f 470 469 574
f 470 574 575
f 470 575 576
f 471 470 576
f 472 471 576
f 472 576 577
f 473 472 577
f 473 577 578
f 473 578 579
f 474 473 579
f 475 474 579
f 475 579 580
f 475 580 581
f 476 475 581
f 477 476 581
f 477 581 582
f 478 477 582
f 478 582 583
f 478 583 584
f 479 478 584
f 480 479 584
f 480 584 585
f 481 480 585
f 481 585 586
f 481 586 587
f 482 481 587
f 482 587 588
f 483 482 588
f 483 588 589
f 484 483 589
f 485 484 589
f 485 589 590
f 485 590 591
f 486 591 592
f 486 485 591
f 487 486 592
f 488 592 593
f 488 593 594
f 488 487 592
f 489 488 594
f 490 594 595
f 490 595 596
f 490 489 594
f 491 596 597
f 491 490 596
f 492 597 598
f 492 491 597
f 493 492 598
f 494 493 598
f 494 598 599
f 494 599 600
f 495 494 600
f 496 495 600
f 496 600 601
f 496 601 602
f 497 496 602
f 497 602 603
f 498 497 603
f 499 498 603
f 499 603 604
f 500 499 604
f 500 604 605
f 500 605 606
f 501 500 606
f 502 501 606
f 502 606 607
f 503 502 607
f 503 607 608
f 504 503 608
f 504 608 609
f 505 504 609
f 505 609 610
f 506 505 610
f 506 610 611
f 507 506 611
f 507 611 612
f 508 507 612
f 508 612 613
f 509 508 613
f 509 613 614
f 509 614 615
f 510 509 615
f 511 510 615
f 511 615 616
f 511 616 617
f 512 511 617
f 513 512 617
f 513 617 618
f 514 513 618
f 514 618 619
f 515 514 619
f 515 619 620
f 516 515 620
f 516 620 621
f 517 621 622
f 517 516 621
f 518 622 623
f 518 517 622
f 519 518 623
f 519 623 624
f 520 624 625
f 520 519 624
f 521 625 626
f 521 520 625
f 522 626 627
f 522 521 626
f 523 627 628
f 523 522 627
f 524 628 629
f 524 523 628
f 525 629 630
f 525 524 629
f 421 525 630
f 421 630 526
f 490 485 486
f 490 486 487
f 490 487 488
f 490 488 489
f 483 484 485
f 492 490 491
f 481 485 490
f 481 483 485
f 481 482 483
f 478 479 480
f 478 480 481
f 496 492 493
f 496 493 494
f 496 494 495
f 476 481 490
f 476 490 492
f 476 478 481
f 476 477 478
f 498 492 496
f 498 496 497
f 473 476 492
f 473 474 475
f 473 475 476
f 501 498 499
f 501 499 500
f 472 473 492
f 471 492 498
f 471 472 492
f 504 498 501
f 504 501 502
f 504 502 503
f 467 468 469
f 467 469 470
f 508 498 504
f 508 504 505
f 508 505 506
f 508 506 507
f 465 466 467
f 509 498 508
f 510 470 471
f 510 471 498
f 510 467 470
f 510 498 509
f 510 465 467
f 462 463 464
f 462 464 465
f 512 510 511
f 461 462 465
f 514 512 513
f 459 461 465
f 459 460 461
f 516 512 514
f 516 514 515
f 457 459 465
f 457 458 459
f 517 510 512
f 517 512 516
f 455 457 465
f 455 456 457
f 520 518 519
f 453 454 455
f 521 518 520
f 522 510 517
f 522 518 521
f 522 517 518
f 451 455 465
f 451 452 453
f 451 453 455
f 450 451 465
f 421 523 524
f 421 524 525
f 447 448 449
f 447 449 450
f 422 522 523
f 422 523 421
f 446 450 465
f 446 447 450
f 446 465 510
f 423 522 422
f 444 445 446
f 425 423 424
f 426 423 425
f 442 443 444
f 427 423 426
f 440 441 442
f 429 427 428
f 429 522 423
f 429 423 427
f 439 442 444
f 439 440 442
f 430 522 429
f 438 439 444
f 437 446 510
f 437 444 446
f 437 438 444
f 432 430 431
f 432 522 430
f 436 437 510
f 436 522 432
f 436 510 522
f 434 436 432
f 434 432 433
f 434 435 436
f 595 591 590
f 595 592 591
f 595 593 592
f 595 594 593
f 588 590 589
f 597 596 595
f 586 595 590
f 586 590 588
f 586 588 587
f 583 585 584
f 583 586 585
f 601 598 597
f 601 599 598
f 601 600 599
f 581 595 586
f 581 597 595
f 581 586 583
f 581 583 582
f 603 601 597
f 603 602 601
f 578 597 581
f 578 580 579
f 578 581 580
f 606 604 603
f 606 605 604
f 577 597 578
f 576 603 597
f 576 597 577
f 609 606 603
f 609 607 606
f 609 608 607
f 572 574 573
f 572 575 574
f 613 609 603
f 613 610 609
f 613 611 610
f 613 612 611
f 570 572 571
f 614 613 603
f 615 576 575
f 615 603 576
f 615 575 572
f 615 614 603
f 615 572 570
f 567 569 568
f 567 570 569
f 617 616 615
f 566 570 567
f 619 618 617
f 564 570 566
f 564 566 565
f 621 619 617
f 621 620 619
f 562 570 564
f 562 564 563
f 622 617 615
f 622 621 617
f 560 570 562
f 560 562 561
f 625 624 623
f 558 560 559
f 626 625 623
f 627 622 615
f 627 626 623
f 627 623 622
f 556 570 560
f 556 558 557
f 556 560 558
f 555 570 556
f 526 629 628
f 526 630 629
f 552 554 553
f 552 555 554
f 527 628 627
f 527 526 628
f 551 570 555
f 551 555 552
f 551 615 570
f 528 527 627
f 549 551 550
f 530 529 528
f 531 530 528
f 547 549 548
f 532 531 528
f 545 547 546
f 534 533 532
f 534 528 627
f 534 532 528
f 544 549 547
f 544 547 545
f 535 534 627
f 543 549 544
f 542 615 551
f 542 551 549
f 542 549 543
f 537 536 535
f 537 535 627
f 541 615 542
f 541 537 627
f 541 627 615
f 539 537 541
f 539 538 537
f 539 541 540

