# https://github.com/mikedh/trimesh
v -0.01398668 0.06661067 -0.21000000
v -0.01387763 0.06910829 -0.21000000
v -0.69922471 0.09903119 -0.30800000
v -0.69933376 0.09653357 -0.30800000
v -0.69922471 0.09903119 -0.22400000
v -0.69933376 0.09653357 -0.22400000
v -0.67125136 0.09780985 -0.19400000
v -0.67136040 0.09531223 -0.19400000
v -0.01387763 0.06910829 0.21000000
v -0.01398668 0.06661067 0.21000000
v 0.01398668 0.06661067 0.21000000
v 0.01387763 0.06910829 0.21000000
v 0.67125136 0.09780985 -0.19400000
v 0.67136040 0.09531223 -0.19400000
v 0.69922471 0.09903119 -0.22400000
v 0.69933376 0.09653357 -0.22400000
v 0.69922471 0.09903119 -0.30800000
v 0.69933376 0.09653357 -0.30800000
v 0.01387763 0.06910829 -0.21000000
v 0.01398668 0.06661067 -0.21000000
f 4 2 1
f 4 3 2
f 6 3 4
f 6 5 3
f 8 5 6
f 8 7 5
f 10 7 8
f 10 9 7
f 1 9 10
f 1 2 9
f 8 6 4
f 1 8 4
f 10 8 1
f 7 3 5
f 2 3 7
f 9 2 7
f 14 12 11
f 14 13 12
f 16 13 14
f 16 15 13
f 18 15 16
f 18 17 15
f 19 17 18
f 20 19 18
f 11 19 20
f 11 12 19
f 14 18 16
f 14 20 18
f 14 11 20
f 13 15 17
f 13 17 19
f 13 19 12

