# https://github.com/mikedh/trimesh
v -0.12350000 -0.00300000 -1.25000000
v -0.12350000 0.00300000 -1.25000000
v -0.12350000 0.00300000 -1.19000000
v -0.12350000 -0.00300000 -1.19000000
v -0.05600000 0.00300000 -1.13000000
v -0.05600000 -0.00300000 -1.13000000
v -0.05600000 0.00300000 -1.34000000
v -0.05600000 -0.00300000 -1.34000000
v 0.05600000 -0.00300000 -1.34000000
v 0.05600000 0.00300000 -1.34000000
v 0.05600000 0.00300000 -1.13000000
v 0.05600000 -0.00300000 -1.13000000
v 0.12350000 0.00300000 -1.19000000
v 0.12350000 -0.00300000 -1.19000000
v 0.12350000 0.00300000 -1.25000000
v 0.12350000 -0.00300000 -1.25000000
v -0.00300000 0.04000000 -1.34000000
v 0.00300000 0.04000000 -1.34000000
v 0.00300000 0.05400000 -1.14000000
v -0.00300000 0.05400000 -1.14000000
v 0.00300000 0.12350000 -1.21000000
v -0.00300000 0.12350000 -1.21000000
v 0.00300000 0.12350000 -1.31000000
v -0.00300000 0.12350000 -1.31000000
v -0.00300000 -0.04000000 -1.33000000
v 0.00300000 -0.04000000 -1.33000000
v 0.00300000 -0.05200000 -1.15000000
v -0.00300000 -0.05200000 -1.15000000
v 0.00300000 -0.12350000 -1.22000000
v -0.00300000 -0.12350000 -1.22000000
v 0.00300000 -0.12350000 -1.30000000
v -0.00300000 -0.12350000 -1.30000000
f 3 2 1
f 4 3 1
f 6 3 4
f 6 5 3
f 7 5 6
f 8 7 6
f 1 7 8
f 1 2 7
f 6 4 1
f 6 1 8
f 5 2 3
f 5 7 2
f 11 10 9
f 12 11 9
f 14 11 12
f 14 13 11
f 15 13 14
f 16 15 14
f 9 15 16
f 9 10 15
f 12 9 16
f 14 12 16
f 11 15 10
f 13 15 11
f 20 17 18
f 20 18 19
f 21 20 19
f 22 20 21
f 24 22 21
f 24 21 23
f 17 24 23
f 17 23 18
f 22 24 17
f 20 22 17
f 21 18 23
f 19 18 21
f 28 26 25
f 28 27 26
f 30 27 28
f 30 29 27
f 32 29 30
f 32 31 29
f 25 31 32
f 25 26 31
f 30 25 32
f 28 25 30
f 29 31 26
f 27 29 26

