ISO-10303-21;
HEADER;
FILE_DESCRIPTION(('Open CASCADE Model'),'2;1');
FILE_NAME('H_Transition_Nose_R5_Tip','2000-01-01T00:00:00',('Author'),(
    'Open CASCADE'),'Open CASCADE STEP processor 7.9','cadgen','Unknown'
  );
FILE_SCHEMA(('AUTOMOTIVE_DESIGN { 1 0 10303 214 1 1 1 1 }'));
ENDSEC;
DATA;
#1 = APPLICATION_PROTOCOL_DEFINITION('international standard',
  'automotive_design',2000,#2);
#2 = APPLICATION_CONTEXT(
  'core data for automotive mechanical design processes');
#3 = SHAPE_DEFINITION_REPRESENTATION(#4,#10);
#4 = PRODUCT_DEFINITION_SHAPE('','',#5);
#5 = PRODUCT_DEFINITION('design','',#6,#9);
#6 = PRODUCT_DEFINITION_FORMATION('','',#7);
#7 = PRODUCT('=>[0:1:1:2]','=>[0:1:1:2]','',(#8));
#8 = PRODUCT_CONTEXT('',#2,'mechanical');
#9 = PRODUCT_DEFINITION_CONTEXT('part definition',#2,'design');
#10 = SHAPE_REPRESENTATION('',(#11,#15),#19);
#11 = AXIS2_PLACEMENT_3D('',#12,#13,#14);
#12 = CARTESIAN_POINT('',(0.,0.,0.));
#13 = DIRECTION('',(0.,0.,1.));
#14 = DIRECTION('',(1.,0.,0.));
#15 = AXIS2_PLACEMENT_3D('',#16,#17,#18);
#16 = CARTESIAN_POINT('',(0.,0.,0.));
#17 = DIRECTION('',(0.,0.,1.));
#18 = DIRECTION('',(1.,0.,0.));
#19 = ( GEOMETRIC_REPRESENTATION_CONTEXT(3) 
GLOBAL_UNCERTAINTY_ASSIGNED_CONTEXT((#23)) GLOBAL_UNIT_ASSIGNED_CONTEXT(
(#20,#21,#22)) REPRESENTATION_CONTEXT('Context #1',
  '3D Context with UNIT and UNCERTAINTY') );
#20 = ( LENGTH_UNIT() NAMED_UNIT(*) SI_UNIT(.MILLI.,.METRE.) );
#21 = ( NAMED_UNIT(*) PLANE_ANGLE_UNIT() SI_UNIT($,.RADIAN.) );
#22 = ( NAMED_UNIT(*) SI_UNIT($,.STERADIAN.) SOLID_ANGLE_UNIT() );
#23 = UNCERTAINTY_MEASURE_WITH_UNIT(LENGTH_MEASURE(5.E-06),#20,
  'distance_accuracy_value','confusion accuracy');
#24 = PRODUCT_RELATED_PRODUCT_CATEGORY('part',$,(#7));
#25 = SHAPE_DEFINITION_REPRESENTATION(#26,#32);
#26 = PRODUCT_DEFINITION_SHAPE('','',#27);
#27 = PRODUCT_DEFINITION('design','',#28,#31);
#28 = PRODUCT_DEFINITION_FORMATION('','',#29);
#29 = PRODUCT('H_Transition_Nose_R5_Tip','H_Transition_Nose_R5_Tip','',(
    #30));
#30 = PRODUCT_CONTEXT('',#2,'mechanical');
#31 = PRODUCT_DEFINITION_CONTEXT('part definition',#2,'design');
#32 = ADVANCED_BREP_SHAPE_REPRESENTATION('',(#11,#33),#585);
#33 = MANIFOLD_SOLID_BREP('',#34);
#34 = CLOSED_SHELL('',(#35,#199,#273,#360,#416,#464,#516,#574));
#35 = ADVANCED_FACE('',(#36),#50,.F.);
#36 = FACE_BOUND('',#37,.F.);
#37 = EDGE_LOOP('',(#38,#71,#97,#123,#149,#175));
#38 = ORIENTED_EDGE('',*,*,#39,.F.);
#39 = EDGE_CURVE('',#40,#42,#44,.T.);
#40 = VERTEX_POINT('',#41);
#41 = CARTESIAN_POINT('',(1.36E+03,-12.38936877818,44.311714339197));
#42 = VERTEX_POINT('',#43);
#43 = CARTESIAN_POINT('',(1.36E+03,12.389368778182,44.311714339197));
#44 = SURFACE_CURVE('',#45,(#49,#60),.PCURVE_S1.);
#45 = LINE('',#46,#47);
#46 = CARTESIAN_POINT('',(1.36E+03,-25.,44.311714339197));
#47 = VECTOR('',#48,1.);
#48 = DIRECTION('',(0.,1.,0.));
#49 = PCURVE('',#50,#55);
#50 = PLANE('',#51);
#51 = AXIS2_PLACEMENT_3D('',#52,#53,#54);
#52 = CARTESIAN_POINT('',(1.36E+03,-50.,-10.));
#53 = DIRECTION('',(1.,0.,0.));
#54 = DIRECTION('',(0.,0.,1.));
#55 = DEFINITIONAL_REPRESENTATION('',(#56),#59);
#56 = B_SPLINE_CURVE_WITH_KNOTS('',1,(#57,#58),.UNSPECIFIED.,.F.,.F.,(2,
    2),(-25.,75.),.PIECEWISE_BEZIER_KNOTS.);
#57 = CARTESIAN_POINT('',(54.311714339197,0.));
#58 = CARTESIAN_POINT('',(54.311714339197,-100.));
#59 = ( GEOMETRIC_REPRESENTATION_CONTEXT(2) 
PARAMETRIC_REPRESENTATION_CONTEXT() REPRESENTATION_CONTEXT('2D SPACE',''
  ) );
#60 = PCURVE('',#61,#66);
#61 = PLANE('',#62);
#62 = AXIS2_PLACEMENT_3D('',#63,#64,#65);
#63 = CARTESIAN_POINT('',(1.178737925196E+03,-1.885341117576E-15,
    59.687029357091));
#64 = DIRECTION('',(-8.452015469213E-02,0.,-0.99642176986));
#65 = DIRECTION('',(-0.99642176986,0.,8.452015469213E-02));
#66 = DEFINITIONAL_REPRESENTATION('',(#67),#70);
#67 = B_SPLINE_CURVE_WITH_KNOTS('',1,(#68,#69),.UNSPECIFIED.,.F.,.F.,(2,
    2),(-25.,75.),.PIECEWISE_BEZIER_KNOTS.);
#68 = CARTESIAN_POINT('',(-181.9130013888,-50.));
#69 = CARTESIAN_POINT('',(-181.9130013888,50.));
#70 = ( GEOMETRIC_REPRESENTATION_CONTEXT(2) 
PARAMETRIC_REPRESENTATION_CONTEXT() REPRESENTATION_CONTEXT('2D SPACE',''
  ) );
#71 = ORIENTED_EDGE('',*,*,#72,.F.);
#72 = EDGE_CURVE('',#73,#40,#75,.T.);
#73 = VERTEX_POINT('',#74);
#74 = CARTESIAN_POINT('',(1.36E+03,-9.169859079872,31.663640524404));
#75 = SURFACE_CURVE('',#76,(#80,#86),.PCURVE_S1.);
#76 = LINE('',#77,#78);
#77 = CARTESIAN_POINT('',(1.36E+03,-5.855569377862,18.643216695079));
#78 = VECTOR('',#79,1.);
#79 = DIRECTION('',(0.,-0.246679280635,0.969097173923));
#80 = PCURVE('',#50,#81);
#81 = DEFINITIONAL_REPRESENTATION('',(#82),#85);
#82 = B_SPLINE_CURVE_WITH_KNOTS('',1,(#83,#84),.UNSPECIFIED.,.F.,.F.,(2,
    2),(-29.55659913766,70.702600664044),.PIECEWISE_BEZIER_KNOTS.);
#83 = CARTESIAN_POINT('',(0.,-51.43543123543));
#84 = CARTESIAN_POINT('',(97.160907187607,-26.70356395131));
#85 = ( GEOMETRIC_REPRESENTATION_CONTEXT(2) 
PARAMETRIC_REPRESENTATION_CONTEXT() REPRESENTATION_CONTEXT('2D SPACE',''
  ) );
#86 = PCURVE('',#87,#92);
#87 = PLANE('',#88);
#88 = AXIS2_PLACEMENT_3D('',#89,#90,#91);
#89 = CARTESIAN_POINT('',(1.183385246081E+03,-36.10701030756,
    28.34930244969));
#90 = DIRECTION('',(-0.150694396188,0.958030467764,0.243862300885));
#91 = DIRECTION('',(0.,-0.246679280635,0.969097173923));
#92 = DEFINITIONAL_REPRESENTATION('',(#93),#96);
#93 = B_SPLINE_CURVE_WITH_KNOTS('',1,(#94,#95),.UNSPECIFIED.,.F.,.F.,(2,
    2),(-29.55659913766,70.702600664044),.PIECEWISE_BEZIER_KNOTS.);
#94 = CARTESIAN_POINT('',(-46.42514309901,178.65492242143));
#95 = CARTESIAN_POINT('',(53.834056702688,178.65492242143));
#96 = ( GEOMETRIC_REPRESENTATION_CONTEXT(2) 
PARAMETRIC_REPRESENTATION_CONTEXT() REPRESENTATION_CONTEXT('2D SPACE',''
  ) );
#97 = ORIENTED_EDGE('',*,*,#98,.F.);
#98 = EDGE_CURVE('',#99,#73,#101,.T.);
#99 = VERTEX_POINT('',#100);
#100 = CARTESIAN_POINT('',(1.36E+03,-3.765682086279,30.053885675249));
#101 = SURFACE_CURVE('',#102,(#106,#112),.PCURVE_S1.);
#102 = LINE('',#103,#104);
#103 = CARTESIAN_POINT('',(1.36E+03,-19.80001264428,34.830069245719));
#104 = VECTOR('',#105,1.);
#105 = DIRECTION('',(0.,-0.958385683586,0.2854765866));
#106 = PCURVE('',#50,#107);
#107 = DEFINITIONAL_REPRESENTATION('',(#108),#111);
#108 = B_SPLINE_CURVE_WITH_KNOTS('',1,(#109,#110),.UNSPECIFIED.,.F.,.F.,
  (2,2),(-43.19304726243,5.847752078522),.PIECEWISE_BEZIER_KNOTS.);
#109 = CARTESIAN_POINT('',(32.49946554838,-71.59558548249));
#110 = CARTESIAN_POINT('',(46.49946554838,-24.59558548249));
#111 = ( GEOMETRIC_REPRESENTATION_CONTEXT(2) 
PARAMETRIC_REPRESENTATION_CONTEXT() REPRESENTATION_CONTEXT('2D SPACE',''
  ) );
#112 = PCURVE('',#113,#118);
#113 = PLANE('',#114);
#114 = AXIS2_PLACEMENT_3D('',#115,#116,#117);
#115 = CARTESIAN_POINT('',(1.196457896113E+03,-14.41740928624,
    -3.655364929314));
#116 = DIRECTION('',(-0.21125757805,0.279033501368,0.936755326022));
#117 = DIRECTION('',(-5.551115123126E-17,0.958385683586,-0.2854765866));
#118 = DEFINITIONAL_REPRESENTATION('',(#119),#122);
#119 = B_SPLINE_CURVE_WITH_KNOTS('',1,(#120,#121),.UNSPECIFIED.,.F.,.F.,
  (2,2),(-43.19304726243,5.847752078522),.PIECEWISE_BEZIER_KNOTS.);
#120 = CARTESIAN_POINT('',(27.047746881549,-167.3184092734));
#121 = CARTESIAN_POINT('',(-21.9930524594,-167.3184092734));
#122 = ( GEOMETRIC_REPRESENTATION_CONTEXT(2) 
PARAMETRIC_REPRESENTATION_CONTEXT() REPRESENTATION_CONTEXT('2D SPACE',''
  ) );
#123 = ORIENTED_EDGE('',*,*,#124,.F.);
#124 = EDGE_CURVE('',#125,#99,#127,.T.);
#125 = VERTEX_POINT('',#126);
#126 = CARTESIAN_POINT('',(1.36E+03,3.765682086279,30.053885675249));
#127 = SURFACE_CURVE('',#128,(#132,#138),.PCURVE_S1.);
#128 = LINE('',#129,#130);
#129 = CARTESIAN_POINT('',(1.36E+03,-25.,30.053885675249));
#130 = VECTOR('',#131,1.);
#131 = DIRECTION('',(0.,-1.,-7.688141612524E-16));
#132 = PCURVE('',#50,#133);
#133 = DEFINITIONAL_REPRESENTATION('',(#134),#137);
#134 = B_SPLINE_CURVE_WITH_KNOTS('',1,(#135,#136),.UNSPECIFIED.,.F.,.F.,
  (2,2),(-29.18768558863,-20.81231441136),.PIECEWISE_BEZIER_KNOTS.);
#135 = CARTESIAN_POINT('',(40.053885675249,-54.18768558863));
#136 = CARTESIAN_POINT('',(40.053885675249,-45.81231441136));
#137 = ( GEOMETRIC_REPRESENTATION_CONTEXT(2) 
PARAMETRIC_REPRESENTATION_CONTEXT() REPRESENTATION_CONTEXT('2D SPACE',''
  ) );
#138 = PCURVE('',#139,#144);
#139 = PLANE('',#140);
#140 = AXIS2_PLACEMENT_3D('',#141,#142,#143);
#141 = CARTESIAN_POINT('',(1.209788467958E+03,0.,-4.303305219672));
#142 = DIRECTION('',(-0.222967430638,-7.494599525602E-16,0.974825894647)
  );
#143 = DIRECTION('',(0.974825894647,0.,0.222967430638));
#144 = DEFINITIONAL_REPRESENTATION('',(#145),#148);
#145 = B_SPLINE_CURVE_WITH_KNOTS('',1,(#146,#147),.UNSPECIFIED.,.F.,.F.,
  (2,2),(-29.18768558863,-20.81231441136),.PIECEWISE_BEZIER_KNOTS.);
#146 = CARTESIAN_POINT('',(154.09062568728,4.187685588634));
#147 = CARTESIAN_POINT('',(154.09062568728,-4.187685588634));
#148 = ( GEOMETRIC_REPRESENTATION_CONTEXT(2) 
PARAMETRIC_REPRESENTATION_CONTEXT() REPRESENTATION_CONTEXT('2D SPACE',''
  ) );
#149 = ORIENTED_EDGE('',*,*,#150,.F.);
#150 = EDGE_CURVE('',#151,#125,#153,.T.);
#151 = VERTEX_POINT('',#152);
#152 = CARTESIAN_POINT('',(1.36E+03,9.169859079872,31.663640524404));
#153 = SURFACE_CURVE('',#154,(#158,#164),.PCURVE_S1.);
#154 = LINE('',#155,#156);
#155 = CARTESIAN_POINT('',(1.36E+03,-26.12514328087,21.150235565886));
#156 = VECTOR('',#157,1.);
#157 = DIRECTION('',(0.,-0.958385683586,-0.2854765866));
#158 = PCURVE('',#50,#159);
#159 = DEFINITIONAL_REPRESENTATION('',(#160),#163);
#160 = B_SPLINE_CURVE_WITH_KNOTS('',1,(#161,#162),.UNSPECIFIED.,.F.,.F.,
  (2,2),(-53.76703625783,-4.726236916879),.PIECEWISE_BEZIER_KNOTS.);
#161 = CARTESIAN_POINT('',(46.49946554838,-75.4044145175));
#162 = CARTESIAN_POINT('',(32.49946554838,-28.4044145175));
#163 = ( GEOMETRIC_REPRESENTATION_CONTEXT(2) 
PARAMETRIC_REPRESENTATION_CONTEXT() REPRESENTATION_CONTEXT('2D SPACE',''
  ) );
#164 = PCURVE('',#165,#170);
#165 = PLANE('',#166);
#166 = AXIS2_PLACEMENT_3D('',#167,#168,#169);
#167 = CARTESIAN_POINT('',(1.196457896113E+03,14.417409286243,
    -3.655364929314));
#168 = DIRECTION('',(-0.21125757805,-0.279033501368,0.936755326022));
#169 = DIRECTION('',(-3.469446951954E-17,0.958385683586,0.2854765866));
#170 = DEFINITIONAL_REPRESENTATION('',(#171),#174);
#171 = B_SPLINE_CURVE_WITH_KNOTS('',1,(#172,#173),.UNSPECIFIED.,.F.,.F.,
  (2,2),(-53.76703625783,-4.726236916879),.PIECEWISE_BEZIER_KNOTS.);
#172 = CARTESIAN_POINT('',(21.993052459408,-167.3184092734));
#173 = CARTESIAN_POINT('',(-27.04774688154,-167.3184092734));
#174 = ( GEOMETRIC_REPRESENTATION_CONTEXT(2) 
PARAMETRIC_REPRESENTATION_CONTEXT() REPRESENTATION_CONTEXT('2D SPACE',''
  ) );
#175 = ORIENTED_EDGE('',*,*,#176,.F.);
#176 = EDGE_CURVE('',#42,#151,#177,.T.);
#177 = SURFACE_CURVE('',#178,(#182,#188),.PCURVE_S1.);
#178 = LINE('',#179,#180);
#179 = CARTESIAN_POINT('',(1.36E+03,2.813036003133,6.690407008646));
#180 = VECTOR('',#181,1.);
#181 = DIRECTION('',(0.,-0.246679280635,-0.969097173923));
#182 = PCURVE('',#50,#183);
#183 = DEFINITIONAL_REPRESENTATION('',(#184),#187);
#184 = B_SPLINE_CURVE_WITH_KNOTS('',1,(#185,#186),.UNSPECIFIED.,.F.,.F.,
  (2,2),(-83.03656469579,17.222635105913),.PIECEWISE_BEZIER_KNOTS.);
#185 = CARTESIAN_POINT('',(97.160907187607,-73.29643604868));
#186 = CARTESIAN_POINT('',(0.,-48.56456876456));
#187 = ( GEOMETRIC_REPRESENTATION_CONTEXT(2) 
PARAMETRIC_REPRESENTATION_CONTEXT() REPRESENTATION_CONTEXT('2D SPACE',''
  ) );
#188 = PCURVE('',#189,#194);
#189 = PLANE('',#190);
#190 = AXIS2_PLACEMENT_3D('',#191,#192,#193);
#191 = CARTESIAN_POINT('',(1.183385246081E+03,36.107010307563,
    28.34930244969));
#192 = DIRECTION('',(-0.150694396188,-0.958030467764,0.243862300885));
#193 = DIRECTION('',(0.,-0.246679280635,-0.969097173923));
#194 = DEFINITIONAL_REPRESENTATION('',(#195),#198);
#195 = B_SPLINE_CURVE_WITH_KNOTS('',1,(#196,#197),.UNSPECIFIED.,.F.,.F.,
  (2,2),(-83.03656469579,17.222635105913),.PIECEWISE_BEZIER_KNOTS.);
#196 = CARTESIAN_POINT('',(-53.83405670268,178.65492242143));
#197 = CARTESIAN_POINT('',(46.425143099016,178.65492242143));
#198 = ( GEOMETRIC_REPRESENTATION_CONTEXT(2) 
PARAMETRIC_REPRESENTATION_CONTEXT() REPRESENTATION_CONTEXT('2D SPACE',''
  ) );
#199 = ADVANCED_FACE('',(#200),#61,.F.);
#200 = FACE_BOUND('',#201,.F.);
#201 = EDGE_LOOP('',(#202,#203,#225,#253));
#202 = ORIENTED_EDGE('',*,*,#39,.T.);
#203 = ORIENTED_EDGE('',*,*,#204,.T.);
#204 = EDGE_CURVE('',#42,#205,#207,.T.);
#205 = VERTEX_POINT('',#206);
#206 = CARTESIAN_POINT('',(1.399084520155E+03,5.397635984219,
    40.99642176986));
#207 = SURFACE_CURVE('',#208,(#212,#219),.PCURVE_S1.);
#208 = LINE('',#209,#210);
#209 = CARTESIAN_POINT('',(1.01E+03,75.,74.));
#210 = VECTOR('',#211,1.);
#211 = DIRECTION('',(0.980960022343,-0.175481503435,-8.320863247181E-02)
  );
#212 = PCURVE('',#61,#213);
#213 = DEFINITIONAL_REPRESENTATION('',(#214),#218);
#214 = LINE('',#215,#216);
#215 = CARTESIAN_POINT('',(169.34387655873,75.));
#216 = VECTOR('',#217,1.);
#217 = DIRECTION('',(-0.984482728113,-0.175481503435));
#218 = ( GEOMETRIC_REPRESENTATION_CONTEXT(2) 
PARAMETRIC_REPRESENTATION_CONTEXT() REPRESENTATION_CONTEXT('2D SPACE',''
  ) );
#219 = PCURVE('',#189,#220);
#220 = DEFINITIONAL_REPRESENTATION('',(#221),#224);
#221 = B_SPLINE_CURVE_WITH_KNOTS('',1,(#222,#223),.UNSPECIFIED.,.F.,.F.,
  (2,2),(0.,403.14833641619),.PIECEWISE_BEZIER_KNOTS.);
#222 = CARTESIAN_POINT('',(-53.83405670268,-175.388108866));
#223 = CARTESIAN_POINT('',(-3.873938779487,224.65259877782));
#224 = ( GEOMETRIC_REPRESENTATION_CONTEXT(2) 
PARAMETRIC_REPRESENTATION_CONTEXT() REPRESENTATION_CONTEXT('2D SPACE',''
  ) );
#225 = ORIENTED_EDGE('',*,*,#226,.T.);
#226 = EDGE_CURVE('',#205,#227,#229,.T.);
#227 = VERTEX_POINT('',#228);
#228 = CARTESIAN_POINT('',(1.399084520155E+03,-5.397635984219,
    40.99642176986));
#229 = SURFACE_CURVE('',#230,(#234,#241),.PCURVE_S1.);
#230 = LINE('',#231,#232);
#231 = CARTESIAN_POINT('',(1.399084520155E+03,4.25492381838,
    40.99642176986));
#232 = VECTOR('',#233,1.);
#233 = DIRECTION('',(0.,-1.,0.));
#234 = PCURVE('',#61,#235);
#235 = DEFINITIONAL_REPRESENTATION('',(#236),#240);
#236 = LINE('',#237,#238);
#237 = CARTESIAN_POINT('',(-221.1378771763,4.25492381838));
#238 = VECTOR('',#239,1.);
#239 = DIRECTION('',(0.,-1.));
#240 = ( GEOMETRIC_REPRESENTATION_CONTEXT(2) 
PARAMETRIC_REPRESENTATION_CONTEXT() REPRESENTATION_CONTEXT('2D SPACE',''
  ) );
#241 = PCURVE('',#242,#247);
#242 = CYLINDRICAL_SURFACE('',#243,1.);
#243 = AXIS2_PLACEMENT_3D('',#244,#245,#246);
#244 = CARTESIAN_POINT('',(1.399E+03,4.25492381838,40.));
#245 = DIRECTION('',(0.,-1.,0.));
#246 = DIRECTION('',(8.452015469213E-02,0.,0.99642176986));
#247 = DEFINITIONAL_REPRESENTATION('',(#248),#252);
#248 = LINE('',#249,#250);
#249 = CARTESIAN_POINT('',(0.,0.));
#250 = VECTOR('',#251,1.);
#251 = DIRECTION('',(0.,1.));
#252 = ( GEOMETRIC_REPRESENTATION_CONTEXT(2) 
PARAMETRIC_REPRESENTATION_CONTEXT() REPRESENTATION_CONTEXT('2D SPACE',''
  ) );
#253 = ORIENTED_EDGE('',*,*,#254,.T.);
#254 = EDGE_CURVE('',#227,#40,#255,.T.);
#255 = SURFACE_CURVE('',#256,(#260,#267),.PCURVE_S1.);
#256 = LINE('',#257,#258);
#257 = CARTESIAN_POINT('',(1.405472401098E+03,-4.25492381838,
    40.454578243522));
#258 = VECTOR('',#259,1.);
#259 = DIRECTION('',(-0.980960022343,-0.175481503435,8.320863247181E-02)
  );
#260 = PCURVE('',#61,#261);
#261 = DEFINITIONAL_REPRESENTATION('',(#262),#266);
#262 = LINE('',#263,#264);
#263 = CARTESIAN_POINT('',(-227.5486975103,-4.25492381838));
#264 = VECTOR('',#265,1.);
#265 = DIRECTION('',(0.984482728113,-0.175481503435));
#266 = ( GEOMETRIC_REPRESENTATION_CONTEXT(2) 
PARAMETRIC_REPRESENTATION_CONTEXT() REPRESENTATION_CONTEXT('2D SPACE',''
  ) );
#267 = PCURVE('',#87,#268);
#268 = DEFINITIONAL_REPRESENTATION('',(#269),#272);
#269 = B_SPLINE_CURVE_WITH_KNOTS('',1,(#270,#271),.UNSPECIFIED.,.F.,.F.,
  (2,2),(0.,403.14833641619),.PIECEWISE_BEZIER_KNOTS.);
#270 = CARTESIAN_POINT('',(3.873938779487,224.65259877782));
#271 = CARTESIAN_POINT('',(53.834056702688,-175.3881088661));
#272 = ( GEOMETRIC_REPRESENTATION_CONTEXT(2) 
PARAMETRIC_REPRESENTATION_CONTEXT() REPRESENTATION_CONTEXT('2D SPACE',''
  ) );
#273 = ADVANCED_FACE('',(#274),#189,.F.);
#274 = FACE_BOUND('',#275,.F.);
#275 = EDGE_LOOP('',(#276,#277,#299,#330,#359));
#276 = ORIENTED_EDGE('',*,*,#176,.T.);
#277 = ORIENTED_EDGE('',*,*,#278,.T.);
#278 = EDGE_CURVE('',#151,#279,#281,.T.);
#279 = VERTEX_POINT('',#280);
#280 = CARTESIAN_POINT('',(1.399760156873E+03,4.872338115497,
    39.350260415491));
#281 = SURFACE_CURVE('',#282,(#286,#293),.PCURVE_S1.);
#282 = LINE('',#283,#284);
#283 = CARTESIAN_POINT('',(1.01E+03,47.,-36.));
#284 = VECTOR('',#285,1.);
#285 = DIRECTION('',(0.976338573775,-0.105528645233,0.188750349389));
#286 = PCURVE('',#189,#287);
#287 = DEFINITIONAL_REPRESENTATION('',(#288),#292);
#288 = LINE('',#289,#290);
#289 = CARTESIAN_POINT('',(59.673652286613,-175.388108866));
#290 = VECTOR('',#291,1.);
#291 = DIRECTION('',(-0.156885699877,0.987616766349));
#292 = ( GEOMETRIC_REPRESENTATION_CONTEXT(2) 
PARAMETRIC_REPRESENTATION_CONTEXT() REPRESENTATION_CONTEXT('2D SPACE',''
  ) );
#293 = PCURVE('',#165,#294);
#294 = DEFINITIONAL_REPRESENTATION('',(#295),#298);
#295 = B_SPLINE_CURVE_WITH_KNOTS('',1,(#296,#297),.UNSPECIFIED.,.F.,.F.,
  (2,2),(0.,405.05661839124),.PIECEWISE_BEZIER_KNOTS.);
#296 = CARTESIAN_POINT('',(21.993052459408,190.7633437064));
#297 = CARTESIAN_POINT('',(2.852775430055,-213.8408009804));
#298 = ( GEOMETRIC_REPRESENTATION_CONTEXT(2) 
PARAMETRIC_REPRESENTATION_CONTEXT() REPRESENTATION_CONTEXT('2D SPACE',''
  ) );
#299 = ORIENTED_EDGE('',*,*,#300,.F.);
#300 = EDGE_CURVE('',#301,#279,#303,.T.);
#301 = VERTEX_POINT('',#302);
#302 = CARTESIAN_POINT('',(1.4E+03,5.00000005849,40.000000229783));
#303 = SURFACE_CURVE('',#304,(#309,#320),.PCURVE_S1.);
#304 = ELLIPSE('',#305,1.043808139353,1.);
#305 = AXIS2_PLACEMENT_3D('',#306,#307,#308);
#306 = CARTESIAN_POINT('',(1.399E+03,5.157296037296,40.));
#307 = DIRECTION('',(0.150694396188,0.958030467764,-0.243862300885));
#308 = DIRECTION('',(0.503616135945,-0.286666396419,-0.814980468956));
#309 = PCURVE('',#189,#310);
#310 = DEFINITIONAL_REPRESENTATION('',(#311),#319);
#311 = ( BOUNDED_CURVE() B_SPLINE_CURVE(2,(#312,#313,#314,#315,#316,#317
,#318),.UNSPECIFIED.,.T.,.F.) B_SPLINE_CURVE_WITH_KNOTS((1,2,2,2,2,1),(
    -2.094395102393,0.,2.094395102393,4.188790204786,6.28318530718,
8.377580409573),.UNSPECIFIED.) CURVE() GEOMETRIC_REPRESENTATION_ITEM() 
RATIONAL_B_SPLINE_CURVE((1.,0.5,1.,0.5,1.,0.5,1.)) REPRESENTATION_ITEM(
  '') );
#312 = CARTESIAN_POINT('',(-2.757797549556,218.6371826299));
#313 = CARTESIAN_POINT('',(-1.875432555596,217.14673571121));
#314 = CARTESIAN_POINT('',(-3.663925955527,217.09433265877));
#315 = CARTESIAN_POINT('',(-5.452419355459,217.04192960634));
#316 = CARTESIAN_POINT('',(-4.546290949487,218.58477957746));
#317 = CARTESIAN_POINT('',(-3.640162543516,220.12762954859));
#318 = CARTESIAN_POINT('',(-2.757797549556,218.6371826299));
#319 = ( GEOMETRIC_REPRESENTATION_CONTEXT(2) 
PARAMETRIC_REPRESENTATION_CONTEXT() REPRESENTATION_CONTEXT('2D SPACE',''
  ) );
#320 = PCURVE('',#242,#321);
#321 = DEFINITIONAL_REPRESENTATION('',(#322),#329);
#322 = B_SPLINE_CURVE_WITH_KNOTS('',5,(#323,#324,#325,#326,#327,#328),
  .UNSPECIFIED.,.F.,.F.,(6,6),(3.779726417661,5.973143439695),
  .PIECEWISE_BEZIER_KNOTS.);
#323 = CARTESIAN_POINT('',(2.273736754432E-13,-1.142712165839));
#324 = CARTESIAN_POINT('',(-0.438683404407,-1.064517982092));
#325 = CARTESIAN_POINT('',(-0.877363974847,-0.92847197621));
#326 = CARTESIAN_POINT('',(-1.316056684933,-0.765785987291));
#327 = CARTESIAN_POINT('',(-1.754733617627,-0.657463027723));
#328 = CARTESIAN_POINT('',(-2.193417022034,-0.617414297117));
#329 = ( GEOMETRIC_REPRESENTATION_CONTEXT(2) 
PARAMETRIC_REPRESENTATION_CONTEXT() REPRESENTATION_CONTEXT('2D SPACE',''
  ) );
#330 = ORIENTED_EDGE('',*,*,#331,.F.);
#331 = EDGE_CURVE('',#205,#301,#332,.T.);
#332 = SURFACE_CURVE('',#333,(#338,#349),.PCURVE_S1.);
#333 = ELLIPSE('',#334,1.043808139353,1.);
#334 = AXIS2_PLACEMENT_3D('',#335,#336,#337);
#335 = CARTESIAN_POINT('',(1.399E+03,5.157296037296,40.));
#336 = DIRECTION('',(0.150694396188,0.958030467764,-0.243862300885));
#337 = DIRECTION('',(0.503616135945,-0.286666396419,-0.814980468956));
#338 = PCURVE('',#189,#339);
#339 = DEFINITIONAL_REPRESENTATION('',(#340),#348);
#340 = ( BOUNDED_CURVE() B_SPLINE_CURVE(2,(#341,#342,#343,#344,#345,#346
,#347),.UNSPECIFIED.,.T.,.F.) B_SPLINE_CURVE_WITH_KNOTS((1,2,2,2,2,1),(
    -2.094395102393,0.,2.094395102393,4.188790204786,6.28318530718,
8.377580409573),.UNSPECIFIED.) CURVE() GEOMETRIC_REPRESENTATION_ITEM() 
RATIONAL_B_SPLINE_CURVE((1.,0.5,1.,0.5,1.,0.5,1.)) REPRESENTATION_ITEM(
  '') );
#341 = CARTESIAN_POINT('',(-2.757797549556,218.6371826299));
#342 = CARTESIAN_POINT('',(-1.875432555596,217.14673571121));
#343 = CARTESIAN_POINT('',(-3.663925955527,217.09433265877));
#344 = CARTESIAN_POINT('',(-5.452419355459,217.04192960634));
#345 = CARTESIAN_POINT('',(-4.546290949487,218.58477957746));
#346 = CARTESIAN_POINT('',(-3.640162543516,220.12762954859));
#347 = CARTESIAN_POINT('',(-2.757797549556,218.6371826299));
#348 = ( GEOMETRIC_REPRESENTATION_CONTEXT(2) 
PARAMETRIC_REPRESENTATION_CONTEXT() REPRESENTATION_CONTEXT('2D SPACE',''
  ) );
#349 = PCURVE('',#242,#350);
#350 = DEFINITIONAL_REPRESENTATION('',(#351),#358);
#351 = B_SPLINE_CURVE_WITH_KNOTS('',5,(#352,#353,#354,#355,#356,#357),
  .UNSPECIFIED.,.F.,.F.,(6,6),(3.779726417661,5.973143439695),
  .PIECEWISE_BEZIER_KNOTS.);
#352 = CARTESIAN_POINT('',(2.273736754432E-13,-1.142712165839));
#353 = CARTESIAN_POINT('',(-0.438683404407,-1.064517982092));
#354 = CARTESIAN_POINT('',(-0.877363974847,-0.92847197621));
#355 = CARTESIAN_POINT('',(-1.316056684933,-0.765785987291));
#356 = CARTESIAN_POINT('',(-1.754733617627,-0.657463027723));
#357 = CARTESIAN_POINT('',(-2.193417022034,-0.617414297117));
#358 = ( GEOMETRIC_REPRESENTATION_CONTEXT(2) 
PARAMETRIC_REPRESENTATION_CONTEXT() REPRESENTATION_CONTEXT('2D SPACE',''
  ) );
#359 = ORIENTED_EDGE('',*,*,#204,.F.);
#360 = ADVANCED_FACE('',(#361),#165,.F.);
#361 = FACE_BOUND('',#362,.F.);
#362 = EDGE_LOOP('',(#363,#364,#386,#415));
#363 = ORIENTED_EDGE('',*,*,#150,.T.);
#364 = ORIENTED_EDGE('',*,*,#365,.T.);
#365 = EDGE_CURVE('',#125,#366,#368,.T.);
#366 = VERTEX_POINT('',#367);
#367 = CARTESIAN_POINT('',(1.399222967431E+03,4.187685588634,
    39.025174105353));
#368 = SURFACE_CURVE('',#369,(#373,#380),.PCURVE_S1.);
#369 = LINE('',#370,#371);
#370 = CARTESIAN_POINT('',(1.01E+03,0.,-50.));
#371 = VECTOR('',#372,1.);
#372 = DIRECTION('',(0.974772282085,1.048766434528E-02,0.222955168084));
#373 = PCURVE('',#165,#374);
#374 = DEFINITIONAL_REPRESENTATION('',(#375),#379);
#375 = LINE('',#376,#377);
#376 = CARTESIAN_POINT('',(-27.04774688154,190.7633437064));
#377 = VECTOR('',#378,1.);
#378 = DIRECTION('',(7.369970771229E-02,-0.997280478643));
#379 = ( GEOMETRIC_REPRESENTATION_CONTEXT(2) 
PARAMETRIC_REPRESENTATION_CONTEXT() REPRESENTATION_CONTEXT('2D SPACE',''
  ) );
#380 = PCURVE('',#139,#381);
#381 = DEFINITIONAL_REPRESENTATION('',(#382),#385);
#382 = B_SPLINE_CURVE_WITH_KNOTS('',1,(#383,#384),.UNSPECIFIED.,.F.,.F.,
  (2,2),(0.,405.70747482921),.PIECEWISE_BEZIER_KNOTS.);
#383 = CARTESIAN_POINT('',(-204.9478466408,-8.881784197001E-16));
#384 = CARTESIAN_POINT('',(200.73731546841,4.25492381838));
#385 = ( GEOMETRIC_REPRESENTATION_CONTEXT(2) 
PARAMETRIC_REPRESENTATION_CONTEXT() REPRESENTATION_CONTEXT('2D SPACE',''
  ) );
#386 = ORIENTED_EDGE('',*,*,#387,.F.);
#387 = EDGE_CURVE('',#279,#366,#388,.T.);
#388 = SURFACE_CURVE('',#389,(#394,#405),.PCURVE_S1.);
#389 = ELLIPSE('',#390,3.583799060315,1.);
#390 = AXIS2_PLACEMENT_3D('',#391,#392,#393);
#391 = CARTESIAN_POINT('',(1.399E+03,7.629125069652,40.));
#392 = DIRECTION('',(0.21125757805,0.279033501368,-0.936755326022));
#393 = DIRECTION('',(6.138611419301E-02,-0.96028136768,-0.272197428111)
  );
#394 = PCURVE('',#165,#395);
#395 = DEFINITIONAL_REPRESENTATION('',(#396),#404);
#396 = ( BOUNDED_CURVE() B_SPLINE_CURVE(2,(#397,#398,#399,#400,#401,#402
,#403),.UNSPECIFIED.,.T.,.F.) B_SPLINE_CURVE_WITH_KNOTS((1,2,2,2,2,1),(
    -2.094395102393,0.,2.094395102393,4.188790204786,6.28318530718,
8.377580409573),.UNSPECIFIED.) CURVE() GEOMETRIC_REPRESENTATION_ITEM() 
RATIONAL_B_SPLINE_CURVE((1.,0.5,1.,0.5,1.,0.5,1.)) REPRESENTATION_ITEM(
  '') );
#397 = CARTESIAN_POINT('',(2.380065847475,-207.444022816));
#398 = CARTESIAN_POINT('',(2.271286883835,-205.7153912367));
#399 = CARTESIAN_POINT('',(7.690762830707,-206.2420939962));
#400 = CARTESIAN_POINT('',(13.110238777578,-206.7687967557));
#401 = CARTESIAN_POINT('',(7.799541794346,-207.9707255755));
#402 = CARTESIAN_POINT('',(2.488844811114,-209.1726543954));
#403 = CARTESIAN_POINT('',(2.380065847475,-207.444022816));
#404 = ( GEOMETRIC_REPRESENTATION_CONTEXT(2) 
PARAMETRIC_REPRESENTATION_CONTEXT() REPRESENTATION_CONTEXT('2D SPACE',''
  ) );
#405 = PCURVE('',#242,#406);
#406 = DEFINITIONAL_REPRESENTATION('',(#407),#414);
#407 = B_SPLINE_CURVE_WITH_KNOTS('',5,(#408,#409,#410,#411,#412,#413),
  .UNSPECIFIED.,.F.,.F.,(6,6),(5.64144064148,6.280137684592),
  .PIECEWISE_BEZIER_KNOTS.);
#408 = CARTESIAN_POINT('',(-2.193417022032,-0.617414297104));
#409 = CARTESIAN_POINT('',(-2.321156430655,-0.354266731497));
#410 = CARTESIAN_POINT('',(-2.448895924159,-0.1473421157));
#411 = CARTESIAN_POINT('',(-2.576635464878,-5.627963930244E-03));
#412 = CARTESIAN_POINT('',(-2.704374656522,6.58984680227E-02));
#413 = CARTESIAN_POINT('',(-2.832114065144,6.723822974686E-02));
#414 = ( GEOMETRIC_REPRESENTATION_CONTEXT(2) 
PARAMETRIC_REPRESENTATION_CONTEXT() REPRESENTATION_CONTEXT('2D SPACE',''
  ) );
#415 = ORIENTED_EDGE('',*,*,#278,.F.);
#416 = ADVANCED_FACE('',(#417),#139,.F.);
#417 = FACE_BOUND('',#418,.F.);
#418 = EDGE_LOOP('',(#419,#420,#442,#463));
#419 = ORIENTED_EDGE('',*,*,#124,.T.);
#420 = ORIENTED_EDGE('',*,*,#421,.T.);
#421 = EDGE_CURVE('',#99,#422,#424,.T.);
#422 = VERTEX_POINT('',#423);
#423 = CARTESIAN_POINT('',(1.399222967431E+03,-4.187685588634,
    39.025174105353));
#424 = SURFACE_CURVE('',#425,(#429,#436),.PCURVE_S1.);
#425 = LINE('',#426,#427);
#426 = CARTESIAN_POINT('',(1.01E+03,0.,-50.));
#427 = VECTOR('',#428,1.);
#428 = DIRECTION('',(0.974772282085,-1.048766434528E-02,0.222955168084)
  );
#429 = PCURVE('',#139,#430);
#430 = DEFINITIONAL_REPRESENTATION('',(#431),#435);
#431 = LINE('',#432,#433);
#432 = CARTESIAN_POINT('',(-204.9478466408,0.));
#433 = VECTOR('',#434,1.);
#434 = DIRECTION('',(0.999945002936,-1.048766434528E-02));
#435 = ( GEOMETRIC_REPRESENTATION_CONTEXT(2) 
PARAMETRIC_REPRESENTATION_CONTEXT() REPRESENTATION_CONTEXT('2D SPACE',''
  ) );
#436 = PCURVE('',#113,#437);
#437 = DEFINITIONAL_REPRESENTATION('',(#438),#441);
#438 = B_SPLINE_CURVE_WITH_KNOTS('',1,(#439,#440),.UNSPECIFIED.,.F.,.F.,
  (2,2),(0.,405.70747482921),.PIECEWISE_BEZIER_KNOTS.);
#439 = CARTESIAN_POINT('',(27.047746881549,190.7633437064));
#440 = CARTESIAN_POINT('',(-2.852775430055,-213.8408009804));
#441 = ( GEOMETRIC_REPRESENTATION_CONTEXT(2) 
PARAMETRIC_REPRESENTATION_CONTEXT() REPRESENTATION_CONTEXT('2D SPACE',''
  ) );
#442 = ORIENTED_EDGE('',*,*,#443,.F.);
#443 = EDGE_CURVE('',#366,#422,#444,.T.);
#444 = SURFACE_CURVE('',#445,(#449,#456),.PCURVE_S1.);
#445 = LINE('',#446,#447);
#446 = CARTESIAN_POINT('',(1.399222967431E+03,4.25492381838,
    39.025174105353));
#447 = VECTOR('',#448,1.);
#448 = DIRECTION('',(0.,-1.,0.));
#449 = PCURVE('',#139,#450);
#450 = DEFINITIONAL_REPRESENTATION('',(#451),#455);
#451 = LINE('',#452,#453);
#452 = CARTESIAN_POINT('',(194.32649513435,4.25492381838));
#453 = VECTOR('',#454,1.);
#454 = DIRECTION('',(0.,-1.));
#455 = ( GEOMETRIC_REPRESENTATION_CONTEXT(2) 
PARAMETRIC_REPRESENTATION_CONTEXT() REPRESENTATION_CONTEXT('2D SPACE',''
  ) );
#456 = PCURVE('',#242,#457);
#457 = DEFINITIONAL_REPRESENTATION('',(#458),#462);
#458 = LINE('',#459,#460);
#459 = CARTESIAN_POINT('',(-2.832114065144,0.));
#460 = VECTOR('',#461,1.);
#461 = DIRECTION('',(0.,1.));
#462 = ( GEOMETRIC_REPRESENTATION_CONTEXT(2) 
PARAMETRIC_REPRESENTATION_CONTEXT() REPRESENTATION_CONTEXT('2D SPACE',''
  ) );
#463 = ORIENTED_EDGE('',*,*,#365,.F.);
#464 = ADVANCED_FACE('',(#465),#113,.F.);
#465 = FACE_BOUND('',#466,.F.);
#466 = EDGE_LOOP('',(#467,#468,#490,#515));
#467 = ORIENTED_EDGE('',*,*,#98,.T.);
#468 = ORIENTED_EDGE('',*,*,#469,.T.);
#469 = EDGE_CURVE('',#73,#470,#472,.T.);
#470 = VERTEX_POINT('',#471);
#471 = CARTESIAN_POINT('',(1.399760156873E+03,-4.872338115497,
    39.350260415491));
#472 = SURFACE_CURVE('',#473,(#477,#484),.PCURVE_S1.);
#473 = LINE('',#474,#475);
#474 = CARTESIAN_POINT('',(1.01E+03,-47.,-36.));
#475 = VECTOR('',#476,1.);
#476 = DIRECTION('',(0.976338573775,0.105528645233,0.188750349389));
#477 = PCURVE('',#113,#478);
#478 = DEFINITIONAL_REPRESENTATION('',(#479),#483);
#479 = LINE('',#480,#481);
#480 = CARTESIAN_POINT('',(-21.9930524594,190.7633437064));
#481 = VECTOR('',#482,1.);
#482 = DIRECTION('',(4.725333733682E-02,-0.998882937141));
#483 = ( GEOMETRIC_REPRESENTATION_CONTEXT(2) 
PARAMETRIC_REPRESENTATION_CONTEXT() REPRESENTATION_CONTEXT('2D SPACE',''
  ) );
#484 = PCURVE('',#87,#485);
#485 = DEFINITIONAL_REPRESENTATION('',(#486),#489);
#486 = B_SPLINE_CURVE_WITH_KNOTS('',1,(#487,#488),.UNSPECIFIED.,.F.,.F.,
  (2,2),(0.,405.05661839124),.PIECEWISE_BEZIER_KNOTS.);
#487 = CARTESIAN_POINT('',(-59.67365228661,-175.3881088661));
#488 = CARTESIAN_POINT('',(3.873938779487,224.65259877782));
#489 = ( GEOMETRIC_REPRESENTATION_CONTEXT(2) 
PARAMETRIC_REPRESENTATION_CONTEXT() REPRESENTATION_CONTEXT('2D SPACE',''
  ) );
#490 = ORIENTED_EDGE('',*,*,#491,.T.);
#491 = EDGE_CURVE('',#470,#422,#492,.T.);
#492 = SURFACE_CURVE('',#493,(#498,#505),.PCURVE_S1.);
#493 = ELLIPSE('',#494,3.583799060315,1.);
#494 = AXIS2_PLACEMENT_3D('',#495,#496,#497);
#495 = CARTESIAN_POINT('',(1.399E+03,-7.629125069652,40.));
#496 = DIRECTION('',(-0.21125757805,0.279033501368,0.936755326022));
#497 = DIRECTION('',(-6.138611419301E-02,-0.96028136768,0.272197428111)
  );
#498 = PCURVE('',#113,#499);
#499 = DEFINITIONAL_REPRESENTATION('',(#500),#504);
#500 = ELLIPSE('',#501,3.583799060315,1.);
#501 = AXIS2_PLACEMENT_2D('',#502,#503);
#502 = CARTESIAN_POINT('',(-5.956790157509,-207.2189474626));
#503 = DIRECTION('',(-0.998025907658,6.280356393959E-02));
#504 = ( GEOMETRIC_REPRESENTATION_CONTEXT(2) 
PARAMETRIC_REPRESENTATION_CONTEXT() REPRESENTATION_CONTEXT('2D SPACE',''
  ) );
#505 = PCURVE('',#242,#506);
#506 = DEFINITIONAL_REPRESENTATION('',(#507),#514);
#507 = B_SPLINE_CURVE_WITH_KNOTS('',5,(#508,#509,#510,#511,#512,#513),
  .UNSPECIFIED.,.F.,.F.,(6,6),(2.499847987891,3.138545031002),
  .PIECEWISE_BEZIER_KNOTS.);
#508 = CARTESIAN_POINT('',(-2.193417022032,9.127261933865));
#509 = CARTESIAN_POINT('',(-2.321156430655,8.864114368258));
#510 = CARTESIAN_POINT('',(-2.448895924159,8.657189752461));
#511 = CARTESIAN_POINT('',(-2.576635464878,8.515475600691));
#512 = CARTESIAN_POINT('',(-2.704374656522,8.443949168738));
#513 = CARTESIAN_POINT('',(-2.832114065144,8.442609407014));
#514 = ( GEOMETRIC_REPRESENTATION_CONTEXT(2) 
PARAMETRIC_REPRESENTATION_CONTEXT() REPRESENTATION_CONTEXT('2D SPACE',''
  ) );
#515 = ORIENTED_EDGE('',*,*,#421,.F.);
#516 = ADVANCED_FACE('',(#517),#87,.F.);
#517 = FACE_BOUND('',#518,.F.);
#518 = EDGE_LOOP('',(#519,#520,#547,#572,#573));
#519 = ORIENTED_EDGE('',*,*,#254,.F.);
#520 = ORIENTED_EDGE('',*,*,#521,.T.);
#521 = EDGE_CURVE('',#227,#522,#524,.T.);
#522 = VERTEX_POINT('',#523);
#523 = CARTESIAN_POINT('',(1.4E+03,-5.000000006493,40.000000025509));
#524 = SURFACE_CURVE('',#525,(#530,#537),.PCURVE_S1.);
#525 = ELLIPSE('',#526,1.043808139353,1.);
#526 = AXIS2_PLACEMENT_3D('',#527,#528,#529);
#527 = CARTESIAN_POINT('',(1.399E+03,-5.157296037296,40.));
#528 = DIRECTION('',(-0.150694396188,0.958030467764,0.243862300885));
#529 = DIRECTION('',(-0.503616135945,-0.286666396419,0.814980468956));
#530 = PCURVE('',#87,#531);
#531 = DEFINITIONAL_REPRESENTATION('',(#532),#536);
#532 = ELLIPSE('',#533,1.043808139353,1.);
#533 = AXIS2_PLACEMENT_2D('',#534,#535);
#534 = CARTESIAN_POINT('',(3.65600481819,218.10543162204));
#535 = DIRECTION('',(0.860509929719,-0.509433666786));
#536 = ( GEOMETRIC_REPRESENTATION_CONTEXT(2) 
PARAMETRIC_REPRESENTATION_CONTEXT() REPRESENTATION_CONTEXT('2D SPACE',''
  ) );
#537 = PCURVE('',#242,#538);
#538 = DEFINITIONAL_REPRESENTATION('',(#539),#546);
#539 = B_SPLINE_CURVE_WITH_KNOTS('',5,(#540,#541,#542,#543,#544,#545),
  .UNSPECIFIED.,.F.,.F.,(6,6),(0.638133764071,2.831550786105),
  .PIECEWISE_BEZIER_KNOTS.);
#540 = CARTESIAN_POINT('',(4.547473508865E-13,9.6525598026));
#541 = CARTESIAN_POINT('',(-0.438683404406,9.574365618853));
#542 = CARTESIAN_POINT('',(-0.877363974847,9.438319612971));
#543 = CARTESIAN_POINT('',(-1.316056684933,9.275633624052));
#544 = CARTESIAN_POINT('',(-1.754733617627,9.167310664484));
#545 = CARTESIAN_POINT('',(-2.193417022034,9.127261933877));
#546 = ( GEOMETRIC_REPRESENTATION_CONTEXT(2) 
PARAMETRIC_REPRESENTATION_CONTEXT() REPRESENTATION_CONTEXT('2D SPACE',''
  ) );
#547 = ORIENTED_EDGE('',*,*,#548,.T.);
#548 = EDGE_CURVE('',#522,#470,#549,.T.);
#549 = SURFACE_CURVE('',#550,(#555,#562),.PCURVE_S1.);
#550 = ELLIPSE('',#551,1.043808139353,1.);
#551 = AXIS2_PLACEMENT_3D('',#552,#553,#554);
#552 = CARTESIAN_POINT('',(1.399E+03,-5.157296037296,40.));
#553 = DIRECTION('',(-0.150694396188,0.958030467764,0.243862300885));
#554 = DIRECTION('',(-0.503616135945,-0.286666396419,0.814980468956));
#555 = PCURVE('',#87,#556);
#556 = DEFINITIONAL_REPRESENTATION('',(#557),#561);
#557 = ELLIPSE('',#558,1.043808139353,1.);
#558 = AXIS2_PLACEMENT_2D('',#559,#560);
#559 = CARTESIAN_POINT('',(3.65600481819,218.10543162204));
#560 = DIRECTION('',(0.860509929719,-0.509433666786));
#561 = ( GEOMETRIC_REPRESENTATION_CONTEXT(2) 
PARAMETRIC_REPRESENTATION_CONTEXT() REPRESENTATION_CONTEXT('2D SPACE',''
  ) );
#562 = PCURVE('',#242,#563);
#563 = DEFINITIONAL_REPRESENTATION('',(#564),#571);
#564 = B_SPLINE_CURVE_WITH_KNOTS('',5,(#565,#566,#567,#568,#569,#570),
  .UNSPECIFIED.,.F.,.F.,(6,6),(0.638133764071,2.831550786105),
  .PIECEWISE_BEZIER_KNOTS.);
#565 = CARTESIAN_POINT('',(4.547473508865E-13,9.6525598026));
#566 = CARTESIAN_POINT('',(-0.438683404406,9.574365618853));
#567 = CARTESIAN_POINT('',(-0.877363974847,9.438319612971));
#568 = CARTESIAN_POINT('',(-1.316056684933,9.275633624052));
#569 = CARTESIAN_POINT('',(-1.754733617627,9.167310664484));
#570 = CARTESIAN_POINT('',(-2.193417022034,9.127261933877));
#571 = ( GEOMETRIC_REPRESENTATION_CONTEXT(2) 
PARAMETRIC_REPRESENTATION_CONTEXT() REPRESENTATION_CONTEXT('2D SPACE',''
  ) );
#572 = ORIENTED_EDGE('',*,*,#469,.F.);
#573 = ORIENTED_EDGE('',*,*,#72,.T.);
#574 = ADVANCED_FACE('',(#575),#242,.T.);
#575 = FACE_BOUND('',#576,.F.);
#576 = EDGE_LOOP('',(#577,#578,#579,#580,#581,#582,#583,#584));
#577 = ORIENTED_EDGE('',*,*,#226,.F.);
#578 = ORIENTED_EDGE('',*,*,#331,.T.);
#579 = ORIENTED_EDGE('',*,*,#300,.T.);
#580 = ORIENTED_EDGE('',*,*,#387,.T.);
#581 = ORIENTED_EDGE('',*,*,#443,.T.);
#582 = ORIENTED_EDGE('',*,*,#491,.F.);
#583 = ORIENTED_EDGE('',*,*,#548,.F.);
#584 = ORIENTED_EDGE('',*,*,#521,.F.);
#585 = ( GEOMETRIC_REPRESENTATION_CONTEXT(3) 
GLOBAL_UNCERTAINTY_ASSIGNED_CONTEXT((#589)) GLOBAL_UNIT_ASSIGNED_CONTEXT
((#586,#587,#588)) REPRESENTATION_CONTEXT('Context #1',
  '3D Context with UNIT and UNCERTAINTY') );
#586 = ( LENGTH_UNIT() NAMED_UNIT(*) SI_UNIT(.MILLI.,.METRE.) );
#587 = ( NAMED_UNIT(*) PLANE_ANGLE_UNIT() SI_UNIT($,.RADIAN.) );
#588 = ( NAMED_UNIT(*) SI_UNIT($,.STERADIAN.) SOLID_ANGLE_UNIT() );
#589 = UNCERTAINTY_MEASURE_WITH_UNIT(LENGTH_MEASURE(5.E-06),#586,
  'distance_accuracy_value','confusion accuracy');
#590 = CONTEXT_DEPENDENT_SHAPE_REPRESENTATION(#591,#593);
#591 = ( REPRESENTATION_RELATIONSHIP('','',#32,#10) 
REPRESENTATION_RELATIONSHIP_WITH_TRANSFORMATION(#592) 
SHAPE_REPRESENTATION_RELATIONSHIP() );
#592 = ITEM_DEFINED_TRANSFORMATION('','',#11,#15);
#593 = PRODUCT_DEFINITION_SHAPE('Placement','Placement of an item',#594
  );
#594 = NEXT_ASSEMBLY_USAGE_OCCURRENCE('1','=>[0:1:1:2]','',#5,#27,$);
#595 = PRODUCT_RELATED_PRODUCT_CATEGORY('part',$,(#29));
#596 = MECHANICAL_DESIGN_GEOMETRIC_PRESENTATION_REPRESENTATION('',(#597)
  ,#585);
#597 = STYLED_ITEM('color',(#598),#33);
#598 = PRESENTATION_STYLE_ASSIGNMENT((#599));
#599 = SURFACE_STYLE_USAGE(.BOTH.,#600);
#600 = SURFACE_SIDE_STYLE('',(#601));
#601 = SURFACE_STYLE_FILL_AREA(#602);
#602 = FILL_AREA_STYLE('',(#603));
#603 = FILL_AREA_STYLE_COLOUR('',#604);
#604 = COLOUR_RGB('',0.654901934349,0.705882339664,0.737254912529);
ENDSEC;
END-ISO-10303-21;
