ISO-10303-21;
HEADER;
FILE_DESCRIPTION(('Open CASCADE Model'),'2;1');
FILE_NAME('I_Transition_Nose_R6_Tip','2000-01-01T00:00:00',('Author'),(
    'Open CASCADE'),'Open CASCADE STEP processor 7.9','cadgen','Unknown'
  );
FILE_SCHEMA(('AUTOMOTIVE_DESIGN { 1 0 10303 214 1 1 1 1 }'));
ENDSEC;
DATA;
#1 = APPLICATION_PROTOCOL_DEFINITION('international standard',
  'automotive_design',2000,#2);
#2 = APPLICATION_CONTEXT(
  'core data for automotive mechanical design processes');
#3 = SHAPE_DEFINITION_REPRESENTATION(#4,#10);
#4 = PRODUCT_DEFINITION_SHAPE('','',#5);
#5 = PRODUCT_DEFINITION('design','',#6,#9);
#6 = PRODUCT_DEFINITION_FORMATION('','',#7);
#7 = PRODUCT('=>[0:1:1:2]','=>[0:1:1:2]','',(#8));
#8 = PRODUCT_CONTEXT('',#2,'mechanical');
#9 = PRODUCT_DEFINITION_CONTEXT('part definition',#2,'design');
#10 = SHAPE_REPRESENTATION('',(#11,#15),#19);
#11 = AXIS2_PLACEMENT_3D('',#12,#13,#14);
#12 = CARTESIAN_POINT('',(0.,0.,0.));
#13 = DIRECTION('',(0.,0.,1.));
#14 = DIRECTION('',(1.,0.,0.));
#15 = AXIS2_PLACEMENT_3D('',#16,#17,#18);
#16 = CARTESIAN_POINT('',(0.,0.,0.));
#17 = DIRECTION('',(0.,0.,1.));
#18 = DIRECTION('',(1.,0.,0.));
#19 = ( GEOMETRIC_REPRESENTATION_CONTEXT(3) 
GLOBAL_UNCERTAINTY_ASSIGNED_CONTEXT((#23)) GLOBAL_UNIT_ASSIGNED_CONTEXT(
(#20,#21,#22)) REPRESENTATION_CONTEXT('Context #1',
  '3D Context with UNIT and UNCERTAINTY') );
#20 = ( LENGTH_UNIT() NAMED_UNIT(*) SI_UNIT(.MILLI.,.METRE.) );
#21 = ( NAMED_UNIT(*) PLANE_ANGLE_UNIT() SI_UNIT($,.RADIAN.) );
#22 = ( NAMED_UNIT(*) SI_UNIT($,.STERADIAN.) SOLID_ANGLE_UNIT() );
#23 = UNCERTAINTY_MEASURE_WITH_UNIT(LENGTH_MEASURE(2.E-05),#20,
  'distance_accuracy_value','confusion accuracy');
#24 = PRODUCT_RELATED_PRODUCT_CATEGORY('part',$,(#7));
#25 = SHAPE_DEFINITION_REPRESENTATION(#26,#32);
#26 = PRODUCT_DEFINITION_SHAPE('','',#27);
#27 = PRODUCT_DEFINITION('design','',#28,#31);
#28 = PRODUCT_DEFINITION_FORMATION('','',#29);
#29 = PRODUCT('I_Transition_Nose_R6_Tip','I_Transition_Nose_R6_Tip','',(
    #30));
#30 = PRODUCT_CONTEXT('',#2,'mechanical');
#31 = PRODUCT_DEFINITION_CONTEXT('part definition',#2,'design');
#32 = ADVANCED_BREP_SHAPE_REPRESENTATION('',(#11,#33),#585);
#33 = MANIFOLD_SOLID_BREP('',#34);
#34 = CLOSED_SHELL('',(#35,#199,#273,#360,#416,#464,#516,#574));
#35 = ADVANCED_FACE('',(#36),#50,.F.);
#36 = FACE_BOUND('',#37,.F.);
#37 = EDGE_LOOP('',(#38,#71,#97,#123,#149,#175));
#38 = ORIENTED_EDGE('',*,*,#39,.F.);
#39 = EDGE_CURVE('',#40,#42,#44,.T.);
#40 = VERTEX_POINT('',#41);
#41 = CARTESIAN_POINT('',(1.36E+03,-17.51218441202,46.808856343948));
#42 = VERTEX_POINT('',#43);
#43 = CARTESIAN_POINT('',(1.36E+03,17.512184412026,46.808856343948));
#44 = SURFACE_CURVE('',#45,(#49,#60),.PCURVE_S1.);
#45 = LINE('',#46,#47);
#46 = CARTESIAN_POINT('',(1.36E+03,-25.,46.808856343948));
#47 = VECTOR('',#48,1.);
#48 = DIRECTION('',(0.,1.,0.));
#49 = PCURVE('',#50,#55);
#50 = PLANE('',#51);
#51 = AXIS2_PLACEMENT_3D('',#52,#53,#54);
#52 = CARTESIAN_POINT('',(1.36E+03,-50.,-10.));
#53 = DIRECTION('',(1.,0.,0.));
#54 = DIRECTION('',(0.,0.,1.));
#55 = DEFINITIONAL_REPRESENTATION('',(#56),#59);
#56 = B_SPLINE_CURVE_WITH_KNOTS('',1,(#57,#58),.UNSPECIFIED.,.F.,.F.,(2,
    2),(-25.,75.),.PIECEWISE_BEZIER_KNOTS.);
#57 = CARTESIAN_POINT('',(56.808856343948,0.));
#58 = CARTESIAN_POINT('',(56.808856343948,-100.));
#59 = ( GEOMETRIC_REPRESENTATION_CONTEXT(2) 
PARAMETRIC_REPRESENTATION_CONTEXT() REPRESENTATION_CONTEXT('2D SPACE',''
  ) );
#60 = PCURVE('',#61,#66);
#61 = PLANE('',#62);
#62 = AXIS2_PLACEMENT_3D('',#63,#64,#65);
#63 = CARTESIAN_POINT('',(1.188596365645E+03,-1.81197115404E-15,
    60.125030186573));
#64 = DIRECTION('',(-7.745558888959E-02,0.,-0.996995803276));
#65 = DIRECTION('',(-0.996995803276,0.,7.745558888959E-02));
#66 = DEFINITIONAL_REPRESENTATION('',(#67),#70);
#67 = B_SPLINE_CURVE_WITH_KNOTS('',1,(#68,#69),.UNSPECIFIED.,.F.,.F.,(2,
    2),(-25.,75.),.PIECEWISE_BEZIER_KNOTS.);
#68 = CARTESIAN_POINT('',(-171.9201162049,-50.));
#69 = CARTESIAN_POINT('',(-171.9201162049,50.));
#70 = ( GEOMETRIC_REPRESENTATION_CONTEXT(2) 
PARAMETRIC_REPRESENTATION_CONTEXT() REPRESENTATION_CONTEXT('2D SPACE',''
  ) );
#71 = ORIENTED_EDGE('',*,*,#72,.F.);
#72 = EDGE_CURVE('',#73,#40,#75,.T.);
#73 = VERTEX_POINT('',#74);
#74 = CARTESIAN_POINT('',(1.36E+03,-13.24030786228,30.026484184234));
#75 = SURFACE_CURVE('',#76,(#80,#86),.PCURVE_S1.);
#76 = LINE('',#77,#78);
#77 = CARTESIAN_POINT('',(1.36E+03,-10.18576464358,18.02649296791));
#78 = VECTOR('',#79,1.);
#79 = DIRECTION('',(0.,-0.246679280635,0.969097173923));
#80 = PCURVE('',#50,#81);
#81 = DEFINITIONAL_REPRESENTATION('',(#82),#85);
#82 = B_SPLINE_CURVE_WITH_KNOTS('',1,(#83,#84),.UNSPECIFIED.,.F.,.F.,(2,
    2),(-28.92020916174,70.232096431979),.PIECEWISE_BEZIER_KNOTS.);
#83 = CARTESIAN_POINT('',(-3.552713678801E-15,-46.94825174825));
#84 = CARTESIAN_POINT('',(96.088219138825,-22.48943233109));
#85 = ( GEOMETRIC_REPRESENTATION_CONTEXT(2) 
PARAMETRIC_REPRESENTATION_CONTEXT() REPRESENTATION_CONTEXT('2D SPACE',''
  ) );
#86 = PCURVE('',#87,#92);
#87 = PLANE('',#88);
#88 = AXIS2_PLACEMENT_3D('',#89,#90,#91);
#89 = CARTESIAN_POINT('',(1.191973360871E+03,-37.2614906038,
    29.026450327948));
#90 = DIRECTION('',(-0.138658356422,0.959735961679,0.244296426609));
#91 = DIRECTION('',(-2.081668171172E-17,-0.246679280635,0.969097173923)
  );
#92 = DEFINITIONAL_REPRESENTATION('',(#93),#96);
#93 = B_SPLINE_CURVE_WITH_KNOTS('',1,(#94,#95),.UNSPECIFIED.,.F.,.F.,(2,
    2),(-28.92020916174,70.232096431979),.PIECEWISE_BEZIER_KNOTS.);
#94 = CARTESIAN_POINT('',(-46.25925735516,169.665561806));
#95 = CARTESIAN_POINT('',(52.893048238558,169.665561806));
#96 = ( GEOMETRIC_REPRESENTATION_CONTEXT(2) 
PARAMETRIC_REPRESENTATION_CONTEXT() REPRESENTATION_CONTEXT('2D SPACE',''
  ) );
#97 = ORIENTED_EDGE('',*,*,#98,.F.);
#98 = EDGE_CURVE('',#99,#73,#101,.T.);
#99 = VERTEX_POINT('',#100);
#100 = CARTESIAN_POINT('',(1.36E+03,-6.069657939494,27.890545909362));
#101 = SURFACE_CURVE('',#102,(#106,#112),.PCURVE_S1.);
#102 = LINE('',#103,#104);
#103 = CARTESIAN_POINT('',(1.36E+03,-21.30575583305,32.42895804787));
#104 = VECTOR('',#105,1.);
#105 = DIRECTION('',(0.,-0.958385683586,0.2854765866));
#106 = PCURVE('',#50,#107);
#107 = DEFINITIONAL_REPRESENTATION('',(#108),#111);
#108 = B_SPLINE_CURVE_WITH_KNOTS('',1,(#109,#110),.UNSPECIFIED.,.F.,.F.,
  (2,2),(-43.9506689489,5.090130392057),.PIECEWISE_BEZIER_KNOTS.);
#109 = CARTESIAN_POINT('',(29.882071097544,-70.8159360716));
#110 = CARTESIAN_POINT('',(43.882071097544,-23.8159360716));
#111 = ( GEOMETRIC_REPRESENTATION_CONTEXT(2) 
PARAMETRIC_REPRESENTATION_CONTEXT() REPRESENTATION_CONTEXT('2D SPACE',''
  ) );
#112 = PCURVE('',#113,#118);
#113 = PLANE('',#114);
#114 = AXIS2_PLACEMENT_3D('',#115,#116,#117);
#115 = CARTESIAN_POINT('',(1.205183059005E+03,-15.76602357315,
    -2.875088163603));
#116 = DIRECTION('',(-0.203953643411,0.279476024896,0.938240940722));
#117 = DIRECTION('',(-3.469446951954E-17,0.958385683586,-0.2854765866));
#118 = DEFINITIONAL_REPRESENTATION('',(#119),#122);
#119 = B_SPLINE_CURVE_WITH_KNOTS('',1,(#120,#121),.UNSPECIFIED.,.F.,.F.,
  (2,2),(-43.9506689489,5.090130392057),.PIECEWISE_BEZIER_KNOTS.);
#120 = CARTESIAN_POINT('',(28.562990254479,-158.1409778518));
#121 = CARTESIAN_POINT('',(-20.47780908647,-158.1409778518));
#122 = ( GEOMETRIC_REPRESENTATION_CONTEXT(2) 
PARAMETRIC_REPRESENTATION_CONTEXT() REPRESENTATION_CONTEXT('2D SPACE',''
  ) );
#123 = ORIENTED_EDGE('',*,*,#124,.F.);
#124 = EDGE_CURVE('',#125,#99,#127,.T.);
#125 = VERTEX_POINT('',#126);
#126 = CARTESIAN_POINT('',(1.36E+03,6.069657939494,27.890545909362));
#127 = SURFACE_CURVE('',#128,(#132,#138),.PCURVE_S1.);
#128 = LINE('',#129,#130);
#129 = CARTESIAN_POINT('',(1.36E+03,-25.,27.890545909362));
#130 = VECTOR('',#131,1.);
#131 = DIRECTION('',(0.,-1.,-5.947413425193E-16));
#132 = PCURVE('',#50,#133);
#133 = DEFINITIONAL_REPRESENTATION('',(#134),#137);
#134 = B_SPLINE_CURVE_WITH_KNOTS('',1,(#135,#136),.UNSPECIFIED.,.F.,.F.,
  (2,2),(-31.70903432978,-18.29096567022),.PIECEWISE_BEZIER_KNOTS.);
#135 = CARTESIAN_POINT('',(37.890545909362,-56.70903432978));
#136 = CARTESIAN_POINT('',(37.890545909362,-43.29096567022));
#137 = ( GEOMETRIC_REPRESENTATION_CONTEXT(2) 
PARAMETRIC_REPRESENTATION_CONTEXT() REPRESENTATION_CONTEXT('2D SPACE',''
  ) );
#138 = PCURVE('',#139,#144);
#139 = PLANE('',#140);
#140 = AXIS2_PLACEMENT_3D('',#141,#142,#143);
#141 = CARTESIAN_POINT('',(1.219943017242E+03,-4.825287804009E-16,
    -3.278353649123));
#142 = DIRECTION('',(-0.217230148345,-5.805391654898E-16,0.976120414012)
  );
#143 = DIRECTION('',(0.976120414012,0.,0.217230148345));
#144 = DEFINITIONAL_REPRESENTATION('',(#145),#148);
#145 = B_SPLINE_CURVE_WITH_KNOTS('',1,(#146,#147),.UNSPECIFIED.,.F.,.F.,
  (2,2),(-31.70903432978,-18.29096567022),.PIECEWISE_BEZIER_KNOTS.);
#146 = CARTESIAN_POINT('',(143.48330467016,6.70903432978));
#147 = CARTESIAN_POINT('',(143.48330467016,-6.70903432978));
#148 = ( GEOMETRIC_REPRESENTATION_CONTEXT(2) 
PARAMETRIC_REPRESENTATION_CONTEXT() REPRESENTATION_CONTEXT('2D SPACE',''
  ) );
#149 = ORIENTED_EDGE('',*,*,#150,.F.);
#150 = EDGE_CURVE('',#151,#125,#153,.T.);
#151 = VERTEX_POINT('',#152);
#152 = CARTESIAN_POINT('',(1.36E+03,13.240307862281,30.026484184234));
#153 = SURFACE_CURVE('',#154,(#158,#164),.PCURVE_S1.);
#154 = LINE('',#155,#156);
#155 = CARTESIAN_POINT('',(1.36E+03,-24.6194000921,18.749124368036));
#156 = VECTOR('',#157,1.);
#157 = DIRECTION('',(0.,-0.958385683586,-0.2854765866));
#158 = PCURVE('',#50,#159);
#159 = DEFINITIONAL_REPRESENTATION('',(#160),#163);
#160 = B_SPLINE_CURVE_WITH_KNOTS('',1,(#161,#162),.UNSPECIFIED.,.F.,.F.,
  (2,2),(-53.00941457137,-3.968615230414),.PIECEWISE_BEZIER_KNOTS.);
#161 = CARTESIAN_POINT('',(43.882071097544,-76.18406392839));
#162 = CARTESIAN_POINT('',(29.882071097544,-29.18406392839));
#163 = ( GEOMETRIC_REPRESENTATION_CONTEXT(2) 
PARAMETRIC_REPRESENTATION_CONTEXT() REPRESENTATION_CONTEXT('2D SPACE',''
  ) );
#164 = PCURVE('',#165,#170);
#165 = PLANE('',#166);
#166 = AXIS2_PLACEMENT_3D('',#167,#168,#169);
#167 = CARTESIAN_POINT('',(1.205183059005E+03,15.766023573151,
    -2.875088163603));
#168 = DIRECTION('',(-0.203953643411,-0.279476024896,0.938240940722));
#169 = DIRECTION('',(-6.938893903907E-18,0.958385683586,0.2854765866));
#170 = DEFINITIONAL_REPRESENTATION('',(#171),#174);
#171 = B_SPLINE_CURVE_WITH_KNOTS('',1,(#172,#173),.UNSPECIFIED.,.F.,.F.,
  (2,2),(-53.00941457137,-3.968615230414),.PIECEWISE_BEZIER_KNOTS.);
#172 = CARTESIAN_POINT('',(20.477809086478,-158.1409778518));
#173 = CARTESIAN_POINT('',(-28.56299025447,-158.1409778518));
#174 = ( GEOMETRIC_REPRESENTATION_CONTEXT(2) 
PARAMETRIC_REPRESENTATION_CONTEXT() REPRESENTATION_CONTEXT('2D SPACE',''
  ) );
#175 = ORIENTED_EDGE('',*,*,#176,.F.);
#176 = EDGE_CURVE('',#42,#151,#177,.T.);
#177 = SURFACE_CURVE('',#178,(#182,#188),.PCURVE_S1.);
#178 = LINE('',#179,#180);
#179 = CARTESIAN_POINT('',(1.36E+03,7.143231268852,6.073683281477));
#180 = VECTOR('',#181,1.);
#181 = DIRECTION('',(0.,-0.246679280635,-0.969097173923));
#182 = PCURVE('',#50,#183);
#183 = DEFINITIONAL_REPRESENTATION('',(#184),#187);
#184 = B_SPLINE_CURVE_WITH_KNOTS('',1,(#185,#186),.UNSPECIFIED.,.F.,.F.,
  (2,2),(-82.56606046372,16.586245130001),.PIECEWISE_BEZIER_KNOTS.);
#185 = CARTESIAN_POINT('',(96.088219138825,-77.5105676689));
#186 = CARTESIAN_POINT('',(0.,-53.05174825174));
#187 = ( GEOMETRIC_REPRESENTATION_CONTEXT(2) 
PARAMETRIC_REPRESENTATION_CONTEXT() REPRESENTATION_CONTEXT('2D SPACE',''
  ) );
#188 = PCURVE('',#189,#194);
#189 = PLANE('',#190);
#190 = AXIS2_PLACEMENT_3D('',#191,#192,#193);
#191 = CARTESIAN_POINT('',(1.191973360871E+03,37.261490603801,
    29.026450327948));
#192 = DIRECTION('',(-0.138658356422,-0.959735961679,0.244296426609));
#193 = DIRECTION('',(2.081668171172E-17,-0.246679280635,-0.969097173923)
  );
#194 = DEFINITIONAL_REPRESENTATION('',(#195),#198);
#195 = B_SPLINE_CURVE_WITH_KNOTS('',1,(#196,#197),.UNSPECIFIED.,.F.,.F.,
  (2,2),(-82.56606046372,16.586245130001),.PIECEWISE_BEZIER_KNOTS.);
#196 = CARTESIAN_POINT('',(-52.89304823855,169.665561806));
#197 = CARTESIAN_POINT('',(46.259257355169,169.665561806));
#198 = ( GEOMETRIC_REPRESENTATION_CONTEXT(2) 
PARAMETRIC_REPRESENTATION_CONTEXT() REPRESENTATION_CONTEXT('2D SPACE',''
  ) );
#199 = ADVANCED_FACE('',(#200),#61,.F.);
#200 = FACE_BOUND('',#201,.F.);
#201 = EDGE_LOOP('',(#202,#203,#225,#253));
#202 = ORIENTED_EDGE('',*,*,#39,.T.);
#203 = ORIENTED_EDGE('',*,*,#204,.T.);
#204 = EDGE_CURVE('',#42,#205,#207,.T.);
#205 = VERTEX_POINT('',#206);
#206 = CARTESIAN_POINT('',(1.396309822356E+03,11.548263350288,
    43.987983213104));
#207 = SURFACE_CURVE('',#208,(#212,#219),.PCURVE_S1.);
#208 = LINE('',#209,#210);
#209 = CARTESIAN_POINT('',(1.01E+03,75.,74.));
#210 = VECTOR('',#211,1.);
#211 = DIRECTION('',(0.983890822609,-0.161604954768,-7.643747628407E-02)
  );
#212 = PCURVE('',#61,#213);
#213 = DEFINITIONAL_REPRESENTATION('',(#214),#218);
#214 = LINE('',#215,#216);
#215 = CARTESIAN_POINT('',(179.13452098603,75.));
#216 = VECTOR('',#217,1.);
#217 = DIRECTION('',(-0.986855530761,-0.161604954768));
#218 = ( GEOMETRIC_REPRESENTATION_CONTEXT(2) 
PARAMETRIC_REPRESENTATION_CONTEXT() REPRESENTATION_CONTEXT('2D SPACE',''
  ) );
#219 = PCURVE('',#189,#220);
#220 = DEFINITIONAL_REPRESENTATION('',(#221),#224);
#221 = B_SPLINE_CURVE_WITH_KNOTS('',1,(#222,#223),.UNSPECIFIED.,.F.,.F.,
  (2,2),(0.,419.77422922044),.PIECEWISE_BEZIER_KNOTS.);
#222 = CARTESIAN_POINT('',(-52.89304823855,-183.7483191113));
#223 = CARTESIAN_POINT('',(-5.063999326854,233.29218923022));
#224 = ( GEOMETRIC_REPRESENTATION_CONTEXT(2) 
PARAMETRIC_REPRESENTATION_CONTEXT() REPRESENTATION_CONTEXT('2D SPACE',''
  ) );
#225 = ORIENTED_EDGE('',*,*,#226,.T.);
#226 = EDGE_CURVE('',#205,#227,#229,.T.);
#227 = VERTEX_POINT('',#228);
#228 = CARTESIAN_POINT('',(1.396309822356E+03,-11.54826335028,
    43.987983213104));
#229 = SURFACE_CURVE('',#230,(#234,#241),.PCURVE_S1.);
#230 = LINE('',#231,#232);
#231 = CARTESIAN_POINT('',(1.396309822356E+03,7.16240467402,
    43.987983213104));
#232 = VECTOR('',#233,1.);
#233 = DIRECTION('',(0.,-1.,0.));
#234 = PCURVE('',#61,#235);
#235 = DEFINITIONAL_REPRESENTATION('',(#236),#240);
#236 = LINE('',#237,#238);
#237 = CARTESIAN_POINT('',(-208.3393491007,7.16240467402));
#238 = VECTOR('',#239,1.);
#239 = DIRECTION('',(0.,-1.));
#240 = ( GEOMETRIC_REPRESENTATION_CONTEXT(2) 
PARAMETRIC_REPRESENTATION_CONTEXT() REPRESENTATION_CONTEXT('2D SPACE',''
  ) );
#241 = PCURVE('',#242,#247);
#242 = CYLINDRICAL_SURFACE('',#243,4.);
#243 = AXIS2_PLACEMENT_3D('',#244,#245,#246);
#244 = CARTESIAN_POINT('',(1.396E+03,7.16240467402,40.));
#245 = DIRECTION('',(0.,-1.,0.));
#246 = DIRECTION('',(7.745558888959E-02,0.,0.996995803276));
#247 = DEFINITIONAL_REPRESENTATION('',(#248),#252);
#248 = LINE('',#249,#250);
#249 = CARTESIAN_POINT('',(0.,0.));
#250 = VECTOR('',#251,1.);
#251 = DIRECTION('',(0.,1.));
#252 = ( GEOMETRIC_REPRESENTATION_CONTEXT(2) 
PARAMETRIC_REPRESENTATION_CONTEXT() REPRESENTATION_CONTEXT('2D SPACE',''
  ) );
#253 = ORIENTED_EDGE('',*,*,#254,.T.);
#254 = EDGE_CURVE('',#227,#40,#255,.T.);
#255 = SURFACE_CURVE('',#256,(#260,#267),.PCURVE_S1.);
#256 = LINE('',#257,#258);
#257 = CARTESIAN_POINT('',(1.423012011698E+03,-7.16240467402,
    41.913517309298));
#258 = VECTOR('',#259,1.);
#259 = DIRECTION('',(-0.983890822609,-0.161604954768,7.643747628407E-02)
  );
#260 = PCURVE('',#61,#261);
#261 = DEFINITIONAL_REPRESENTATION('',(#262),#266);
#262 = LINE('',#263,#264);
#263 = CARTESIAN_POINT('',(-235.1219987912,-7.16240467402));
#264 = VECTOR('',#265,1.);
#265 = DIRECTION('',(0.986855530761,-0.161604954768));
#266 = ( GEOMETRIC_REPRESENTATION_CONTEXT(2) 
PARAMETRIC_REPRESENTATION_CONTEXT() REPRESENTATION_CONTEXT('2D SPACE',''
  ) );
#267 = PCURVE('',#87,#268);
#268 = DEFINITIONAL_REPRESENTATION('',(#269),#272);
#269 = B_SPLINE_CURVE_WITH_KNOTS('',1,(#270,#271),.UNSPECIFIED.,.F.,.F.,
  (2,2),(0.,419.77422922044),.PIECEWISE_BEZIER_KNOTS.);
#270 = CARTESIAN_POINT('',(5.063999326854,233.29218923022));
#271 = CARTESIAN_POINT('',(52.893048238558,-183.7483191113));
#272 = ( GEOMETRIC_REPRESENTATION_CONTEXT(2) 
PARAMETRIC_REPRESENTATION_CONTEXT() REPRESENTATION_CONTEXT('2D SPACE',''
  ) );
#273 = ADVANCED_FACE('',(#274),#189,.F.);
#274 = FACE_BOUND('',#275,.F.);
#275 = EDGE_LOOP('',(#276,#277,#299,#330,#359));
#276 = ORIENTED_EDGE('',*,*,#176,.T.);
#277 = ORIENTED_EDGE('',*,*,#278,.T.);
#278 = EDGE_CURVE('',#151,#279,#281,.T.);
#279 = VERTEX_POINT('',#280);
#280 = CARTESIAN_POINT('',(1.399030741822E+03,9.475548354244,
    37.389520348794));
#281 = SURFACE_CURVE('',#282,(#286,#293),.PCURVE_S1.);
#282 = LINE('',#283,#284);
#283 = CARTESIAN_POINT('',(1.01E+03,47.,-36.));
#284 = VECTOR('',#285,1.);
#285 = DIRECTION('',(0.978282745984,-9.436149808021E-02,0.18455020073));
#286 = PCURVE('',#189,#287);
#287 = DEFINITIONAL_REPRESENTATION('',(#288),#292);
#288 = LINE('',#289,#290);
#289 = CARTESIAN_POINT('',(60.614660750744,-183.7483191113));
#290 = VECTOR('',#291,1.);
#291 = DIRECTION('',(-0.155570051508,0.987824862551));
#292 = ( GEOMETRIC_REPRESENTATION_CONTEXT(2) 
PARAMETRIC_REPRESENTATION_CONTEXT() REPRESENTATION_CONTEXT('2D SPACE',''
  ) );
#293 = PCURVE('',#165,#294);
#294 = DEFINITIONAL_REPRESENTATION('',(#295),#298);
#295 = B_SPLINE_CURVE_WITH_KNOTS('',1,(#296,#297),.UNSPECIFIED.,.F.,.F.,
  (2,2),(0.,422.18061536196),.PIECEWISE_BEZIER_KNOTS.);
#296 = CARTESIAN_POINT('',(20.477809086478,199.37378695577));
#297 = CARTESIAN_POINT('',(4.540513029026,-222.505905115));
#298 = ( GEOMETRIC_REPRESENTATION_CONTEXT(2) 
PARAMETRIC_REPRESENTATION_CONTEXT() REPRESENTATION_CONTEXT('2D SPACE',''
  ) );
#299 = ORIENTED_EDGE('',*,*,#300,.F.);
#300 = EDGE_CURVE('',#301,#279,#303,.T.);
#301 = VERTEX_POINT('',#302);
#302 = CARTESIAN_POINT('',(1.4E+03,9.999999503419,39.999998049147));
#303 = SURFACE_CURVE('',#304,(#309,#320),.PCURVE_S1.);
#304 = ELLIPSE('',#305,4.167812981605,4.);
#305 = AXIS2_PLACEMENT_3D('',#306,#307,#308);
#306 = CARTESIAN_POINT('',(1.396E+03,10.577902097902,40.));
#307 = DIRECTION('',(0.138658356422,0.959735961679,-0.244296426609));
#308 = DIRECTION('',(0.473740342703,-0.280903691431,-0.834663527318));
#309 = PCURVE('',#189,#310);
#310 = DEFINITIONAL_REPRESENTATION('',(#311),#319);
#311 = ( BOUNDED_CURVE() B_SPLINE_CURVE(2,(#312,#313,#314,#315,#316,#317
,#318),.UNSPECIFIED.,.T.,.F.) B_SPLINE_CURVE_WITH_KNOTS((1,2,2,2,2,1),(
    -2.094395102393,0.,2.094395102393,4.188790204786,6.28318530718,
8.377580409573),.UNSPECIFIED.) CURVE() GEOMETRIC_REPRESENTATION_ITEM() 
RATIONAL_B_SPLINE_CURVE((1.,0.5,1.,0.5,1.,0.5,1.)) REPRESENTATION_ITEM(
  '') );
#312 = CARTESIAN_POINT('',(-0.392127630988,208.01042377985));
#313 = CARTESIAN_POINT('',(2.922055842752,201.92633075768));
#314 = CARTESIAN_POINT('',(-4.225065784179,201.97779736381));
#315 = CARTESIAN_POINT('',(-11.3721874111,202.02926396994));
#316 = CARTESIAN_POINT('',(-7.539249257918,208.06189038598));
#317 = CARTESIAN_POINT('',(-3.706311104728,214.09451680202));
#318 = CARTESIAN_POINT('',(-0.392127630988,208.01042377985));
#319 = ( GEOMETRIC_REPRESENTATION_CONTEXT(2) 
PARAMETRIC_REPRESENTATION_CONTEXT() REPRESENTATION_CONTEXT('2D SPACE',''
  ) );
#320 = PCURVE('',#242,#321);
#321 = DEFINITIONAL_REPRESENTATION('',(#322),#329);
#322 = B_SPLINE_CURVE_WITH_KNOTS('',5,(#323,#324,#325,#326,#327,#328),
  .UNSPECIFIED.,.F.,.F.,(6,6),(3.735367802151,5.939667976673),
  .PIECEWISE_BEZIER_KNOTS.);
#323 = CARTESIAN_POINT('',(5.684341886081E-14,-4.385858676268));
#324 = CARTESIAN_POINT('',(-0.440860034904,-4.097082198743));
#325 = CARTESIAN_POINT('',(-0.881717121318,-3.572561831488));
#326 = CARTESIAN_POINT('',(-1.322585816718,-2.927670758294));
#327 = CARTESIAN_POINT('',(-1.763440139618,-2.486979702246));
#328 = CARTESIAN_POINT('',(-2.204300174522,-2.313143680224));
#329 = ( GEOMETRIC_REPRESENTATION_CONTEXT(2) 
PARAMETRIC_REPRESENTATION_CONTEXT() REPRESENTATION_CONTEXT('2D SPACE',''
  ) );
#330 = ORIENTED_EDGE('',*,*,#331,.F.);
#331 = EDGE_CURVE('',#205,#301,#332,.T.);
#332 = SURFACE_CURVE('',#333,(#338,#349),.PCURVE_S1.);
#333 = ELLIPSE('',#334,4.167812981605,4.);
#334 = AXIS2_PLACEMENT_3D('',#335,#336,#337);
#335 = CARTESIAN_POINT('',(1.396E+03,10.577902097902,40.));
#336 = DIRECTION('',(0.138658356422,0.959735961679,-0.244296426609));
#337 = DIRECTION('',(0.473740342703,-0.280903691431,-0.834663527318));
#338 = PCURVE('',#189,#339);
#339 = DEFINITIONAL_REPRESENTATION('',(#340),#348);
#340 = ( BOUNDED_CURVE() B_SPLINE_CURVE(2,(#341,#342,#343,#344,#345,#346
,#347),.UNSPECIFIED.,.T.,.F.) B_SPLINE_CURVE_WITH_KNOTS((1,2,2,2,2,1),(
    -2.094395102393,0.,2.094395102393,4.188790204786,6.28318530718,
8.377580409573),.UNSPECIFIED.) CURVE() GEOMETRIC_REPRESENTATION_ITEM() 
RATIONAL_B_SPLINE_CURVE((1.,0.5,1.,0.5,1.,0.5,1.)) REPRESENTATION_ITEM(
  '') );
#341 = CARTESIAN_POINT('',(-0.392127630988,208.01042377985));
#342 = CARTESIAN_POINT('',(2.922055842752,201.92633075768));
#343 = CARTESIAN_POINT('',(-4.225065784179,201.97779736381));
#344 = CARTESIAN_POINT('',(-11.3721874111,202.02926396994));
#345 = CARTESIAN_POINT('',(-7.539249257918,208.06189038598));
#346 = CARTESIAN_POINT('',(-3.706311104728,214.09451680202));
#347 = CARTESIAN_POINT('',(-0.392127630988,208.01042377985));
#348 = ( GEOMETRIC_REPRESENTATION_CONTEXT(2) 
PARAMETRIC_REPRESENTATION_CONTEXT() REPRESENTATION_CONTEXT('2D SPACE',''
  ) );
#349 = PCURVE('',#242,#350);
#350 = DEFINITIONAL_REPRESENTATION('',(#351),#358);
#351 = B_SPLINE_CURVE_WITH_KNOTS('',5,(#352,#353,#354,#355,#356,#357),
  .UNSPECIFIED.,.F.,.F.,(6,6),(3.735367802151,5.939667976673),
  .PIECEWISE_BEZIER_KNOTS.);
#352 = CARTESIAN_POINT('',(5.684341886081E-14,-4.385858676268));
#353 = CARTESIAN_POINT('',(-0.440860034904,-4.097082198743));
#354 = CARTESIAN_POINT('',(-0.881717121318,-3.572561831488));
#355 = CARTESIAN_POINT('',(-1.322585816718,-2.927670758294));
#356 = CARTESIAN_POINT('',(-1.763440139618,-2.486979702246));
#357 = CARTESIAN_POINT('',(-2.204300174522,-2.313143680224));
#358 = ( GEOMETRIC_REPRESENTATION_CONTEXT(2) 
PARAMETRIC_REPRESENTATION_CONTEXT() REPRESENTATION_CONTEXT('2D SPACE',''
  ) );
#359 = ORIENTED_EDGE('',*,*,#204,.F.);
#360 = ADVANCED_FACE('',(#361),#165,.F.);
#361 = FACE_BOUND('',#362,.F.);
#362 = EDGE_LOOP('',(#363,#364,#386,#415));
#363 = ORIENTED_EDGE('',*,*,#150,.T.);
#364 = ORIENTED_EDGE('',*,*,#365,.T.);
#365 = EDGE_CURVE('',#125,#366,#368,.T.);
#366 = VERTEX_POINT('',#367);
#367 = CARTESIAN_POINT('',(1.396868920593E+03,6.70903432978,
    36.095518343954));
#368 = SURFACE_CURVE('',#369,(#373,#380),.PCURVE_S1.);
#369 = LINE('',#370,#371);
#370 = CARTESIAN_POINT('',(1.01E+03,0.,-50.));
#371 = VECTOR('',#372,1.);
#372 = DIRECTION('',(0.975980590819,1.69253381196E-02,0.217199031474));
#373 = PCURVE('',#165,#374);
#374 = DEFINITIONAL_REPRESENTATION('',(#375),#379);
#375 = LINE('',#376,#377);
#376 = CARTESIAN_POINT('',(-28.56299025447,199.37378695577));
#377 = VECTOR('',#378,1.);
#378 = DIRECTION('',(7.822623986171E-02,-0.996935632525));
#379 = ( GEOMETRIC_REPRESENTATION_CONTEXT(2) 
PARAMETRIC_REPRESENTATION_CONTEXT() REPRESENTATION_CONTEXT('2D SPACE',''
  ) );
#380 = PCURVE('',#139,#381);
#381 = DEFINITIONAL_REPRESENTATION('',(#382),#385);
#382 = B_SPLINE_CURVE_WITH_KNOTS('',1,(#383,#384),.UNSPECIFIED.,.F.,.F.,
  (2,2),(0.,423.17646025201),.PIECEWISE_BEZIER_KNOTS.);
#383 = CARTESIAN_POINT('',(-215.0790150764,1.7763568394E-15));
#384 = CARTESIAN_POINT('',(208.03682777363,7.16240467402));
#385 = ( GEOMETRIC_REPRESENTATION_CONTEXT(2) 
PARAMETRIC_REPRESENTATION_CONTEXT() REPRESENTATION_CONTEXT('2D SPACE',''
  ) );
#386 = ORIENTED_EDGE('',*,*,#387,.F.);
#387 = EDGE_CURVE('',#279,#366,#388,.T.);
#388 = SURFACE_CURVE('',#389,(#394,#405),.PCURVE_S1.);
#389 = ELLIPSE('',#390,14.312497830496,4.);
#390 = AXIS2_PLACEMENT_3D('',#391,#392,#393);
#391 = CARTESIAN_POINT('',(1.396E+03,20.45105053416,40.));
#392 = DIRECTION('',(0.203953643411,0.279476024896,-0.938240940722));
#393 = DIRECTION('',(5.936571885803E-02,-0.960152670937,-0.273098077467)
  );
#394 = PCURVE('',#165,#395);
#395 = DEFINITIONAL_REPRESENTATION('',(#396),#404);
#396 = ( BOUNDED_CURVE() B_SPLINE_CURVE(2,(#397,#398,#399,#400,#401,#402
,#403),.UNSPECIFIED.,.T.,.F.) B_SPLINE_CURVE_WITH_KNOTS((1,2,2,2,2,1),(
    -2.094395102393,0.,2.094395102393,4.188790204786,6.28318530718,
8.377580409573),.UNSPECIFIED.) CURVE() GEOMETRIC_REPRESENTATION_ITEM() 
RATIONAL_B_SPLINE_CURVE((1.,0.5,1.,0.5,1.,0.5,1.)) REPRESENTATION_ITEM(
  '') );
#397 = CARTESIAN_POINT('',(2.443738319177,-195.7818399062));
#398 = CARTESIAN_POINT('',(2.023609679815,-188.866386781));
#399 = CARTESIAN_POINT('',(23.66291139939,-191.022241118));
#400 = CARTESIAN_POINT('',(45.302213118965,-193.1780954549));
#401 = CARTESIAN_POINT('',(24.083040038753,-197.9376942431));
#402 = CARTESIAN_POINT('',(2.86386695854,-202.6972930314));
#403 = CARTESIAN_POINT('',(2.443738319177,-195.7818399062));
#404 = ( GEOMETRIC_REPRESENTATION_CONTEXT(2) 
PARAMETRIC_REPRESENTATION_CONTEXT() REPRESENTATION_CONTEXT('2D SPACE',''
  ) );
#405 = PCURVE('',#242,#406);
#406 = DEFINITIONAL_REPRESENTATION('',(#407),#414);
#407 = B_SPLINE_CURVE_WITH_KNOTS('',5,(#408,#409,#410,#411,#412,#413),
  .UNSPECIFIED.,.F.,.F.,(6,6),(5.637474770515,6.278258045947),
  .PIECEWISE_BEZIER_KNOTS.);
#408 = CARTESIAN_POINT('',(-2.204300174522,-2.313143680205));
#409 = CARTESIAN_POINT('',(-2.332456829608,-1.253342025235));
#410 = CARTESIAN_POINT('',(-2.460613568783,-0.418843213541));
#411 = CARTESIAN_POINT('',(-2.588770354707,0.153919108745));
#412 = CARTESIAN_POINT('',(-2.716926794868,0.444692722346));
#413 = CARTESIAN_POINT('',(-2.845083449954,0.45337034424));
#414 = ( GEOMETRIC_REPRESENTATION_CONTEXT(2) 
PARAMETRIC_REPRESENTATION_CONTEXT() REPRESENTATION_CONTEXT('2D SPACE',''
  ) );
#415 = ORIENTED_EDGE('',*,*,#278,.F.);
#416 = ADVANCED_FACE('',(#417),#139,.F.);
#417 = FACE_BOUND('',#418,.F.);
#418 = EDGE_LOOP('',(#419,#420,#442,#463));
#419 = ORIENTED_EDGE('',*,*,#124,.T.);
#420 = ORIENTED_EDGE('',*,*,#421,.T.);
#421 = EDGE_CURVE('',#99,#422,#424,.T.);
#422 = VERTEX_POINT('',#423);
#423 = CARTESIAN_POINT('',(1.396868920593E+03,-6.70903432978,
    36.095518343954));
#424 = SURFACE_CURVE('',#425,(#429,#436),.PCURVE_S1.);
#425 = LINE('',#426,#427);
#426 = CARTESIAN_POINT('',(1.01E+03,0.,-50.));
#427 = VECTOR('',#428,1.);
#428 = DIRECTION('',(0.975980590819,-1.69253381196E-02,0.217199031474));
#429 = PCURVE('',#139,#430);
#430 = DEFINITIONAL_REPRESENTATION('',(#431),#435);
#431 = LINE('',#432,#433);
#432 = CARTESIAN_POINT('',(-215.0790150764,4.825287804009E-16));
#433 = VECTOR('',#434,1.);
#434 = DIRECTION('',(0.999856756205,-1.69253381196E-02));
#435 = ( GEOMETRIC_REPRESENTATION_CONTEXT(2) 
PARAMETRIC_REPRESENTATION_CONTEXT() REPRESENTATION_CONTEXT('2D SPACE',''
  ) );
#436 = PCURVE('',#113,#437);
#437 = DEFINITIONAL_REPRESENTATION('',(#438),#441);
#438 = B_SPLINE_CURVE_WITH_KNOTS('',1,(#439,#440),.UNSPECIFIED.,.F.,.F.,
  (2,2),(0.,423.17646025201),.PIECEWISE_BEZIER_KNOTS.);
#439 = CARTESIAN_POINT('',(28.562990254479,199.37378695577));
#440 = CARTESIAN_POINT('',(-4.540513029026,-222.505905115));
#441 = ( GEOMETRIC_REPRESENTATION_CONTEXT(2) 
PARAMETRIC_REPRESENTATION_CONTEXT() REPRESENTATION_CONTEXT('2D SPACE',''
  ) );
#442 = ORIENTED_EDGE('',*,*,#443,.F.);
#443 = EDGE_CURVE('',#366,#422,#444,.T.);
#444 = SURFACE_CURVE('',#445,(#449,#456),.PCURVE_S1.);
#445 = LINE('',#446,#447);
#446 = CARTESIAN_POINT('',(1.396868920593E+03,7.16240467402,
    36.095518343954));
#447 = VECTOR('',#448,1.);
#448 = DIRECTION('',(0.,-1.,0.));
#449 = PCURVE('',#139,#450);
#450 = DEFINITIONAL_REPRESENTATION('',(#451),#455);
#451 = LINE('',#452,#453);
#452 = CARTESIAN_POINT('',(181.25417808306,7.16240467402));
#453 = VECTOR('',#454,1.);
#454 = DIRECTION('',(0.,-1.));
#455 = ( GEOMETRIC_REPRESENTATION_CONTEXT(2) 
PARAMETRIC_REPRESENTATION_CONTEXT() REPRESENTATION_CONTEXT('2D SPACE',''
  ) );
#456 = PCURVE('',#242,#457);
#457 = DEFINITIONAL_REPRESENTATION('',(#458),#462);
#458 = LINE('',#459,#460);
#459 = CARTESIAN_POINT('',(-2.845083449954,0.));
#460 = VECTOR('',#461,1.);
#461 = DIRECTION('',(0.,1.));
#462 = ( GEOMETRIC_REPRESENTATION_CONTEXT(2) 
PARAMETRIC_REPRESENTATION_CONTEXT() REPRESENTATION_CONTEXT('2D SPACE',''
  ) );
#463 = ORIENTED_EDGE('',*,*,#365,.F.);
#464 = ADVANCED_FACE('',(#465),#113,.F.);
#465 = FACE_BOUND('',#466,.F.);
#466 = EDGE_LOOP('',(#467,#468,#490,#515));
#467 = ORIENTED_EDGE('',*,*,#98,.T.);
#468 = ORIENTED_EDGE('',*,*,#469,.T.);
#469 = EDGE_CURVE('',#73,#470,#472,.T.);
#470 = VERTEX_POINT('',#471);
#471 = CARTESIAN_POINT('',(1.399030741822E+03,-9.475548354244,
    37.389520348794));
#472 = SURFACE_CURVE('',#473,(#477,#484),.PCURVE_S1.);
#473 = LINE('',#474,#475);
#474 = CARTESIAN_POINT('',(1.01E+03,-47.,-36.));
#475 = VECTOR('',#476,1.);
#476 = DIRECTION('',(0.978282745984,9.436149808021E-02,0.18455020073));
#477 = PCURVE('',#113,#478);
#478 = DEFINITIONAL_REPRESENTATION('',(#479),#483);
#479 = LINE('',#480,#481);
#480 = CARTESIAN_POINT('',(-20.47780908647,199.37378695577));
#481 = VECTOR('',#482,1.);
#482 = DIRECTION('',(3.77499474811E-02,-0.999287216703));
#483 = ( GEOMETRIC_REPRESENTATION_CONTEXT(2) 
PARAMETRIC_REPRESENTATION_CONTEXT() REPRESENTATION_CONTEXT('2D SPACE',''
  ) );
#484 = PCURVE('',#87,#485);
#485 = DEFINITIONAL_REPRESENTATION('',(#486),#489);
#486 = B_SPLINE_CURVE_WITH_KNOTS('',1,(#487,#488),.UNSPECIFIED.,.F.,.F.,
  (2,2),(0.,422.18061536196),.PIECEWISE_BEZIER_KNOTS.);
#487 = CARTESIAN_POINT('',(-60.61466075074,-183.7483191113));
#488 = CARTESIAN_POINT('',(5.063999326854,233.29218923022));
#489 = ( GEOMETRIC_REPRESENTATION_CONTEXT(2) 
PARAMETRIC_REPRESENTATION_CONTEXT() REPRESENTATION_CONTEXT('2D SPACE',''
  ) );
#490 = ORIENTED_EDGE('',*,*,#491,.T.);
#491 = EDGE_CURVE('',#470,#422,#492,.T.);
#492 = SURFACE_CURVE('',#493,(#498,#505),.PCURVE_S1.);
#493 = ELLIPSE('',#494,14.312497830496,4.);
#494 = AXIS2_PLACEMENT_3D('',#495,#496,#497);
#495 = CARTESIAN_POINT('',(1.396E+03,-20.45105053416,40.));
#496 = DIRECTION('',(-0.203953643411,0.279476024896,0.938240940722));
#497 = DIRECTION('',(-5.936571885803E-02,-0.960152670937,0.273098077467)
  );
#498 = PCURVE('',#113,#499);
#499 = DEFINITIONAL_REPRESENTATION('',(#500),#504);
#500 = ELLIPSE('',#501,14.312497830496,4.);
#501 = AXIS2_PLACEMENT_2D('',#502,#503);
#502 = CARTESIAN_POINT('',(-16.72989658577,-194.9139250891));
#503 = DIRECTION('',(-0.998159680846,6.064034575761E-02));
#504 = ( GEOMETRIC_REPRESENTATION_CONTEXT(2) 
PARAMETRIC_REPRESENTATION_CONTEXT() REPRESENTATION_CONTEXT('2D SPACE',''
  ) );
#505 = PCURVE('',#242,#506);
#506 = DEFINITIONAL_REPRESENTATION('',(#507),#514);
#507 = B_SPLINE_CURVE_WITH_KNOTS('',5,(#508,#509,#510,#511,#512,#513),
  .UNSPECIFIED.,.F.,.F.,(6,6),(2.495882116925,3.136665392357),
  .PIECEWISE_BEZIER_KNOTS.);
#508 = CARTESIAN_POINT('',(-2.204300174522,16.637953028245));
#509 = CARTESIAN_POINT('',(-2.332456829608,15.578151373275));
#510 = CARTESIAN_POINT('',(-2.460613568783,14.743652561581));
#511 = CARTESIAN_POINT('',(-2.588770354707,14.170890239295));
#512 = CARTESIAN_POINT('',(-2.716926794868,13.880116625694));
#513 = CARTESIAN_POINT('',(-2.845083449954,13.8714390038));
#514 = ( GEOMETRIC_REPRESENTATION_CONTEXT(2) 
PARAMETRIC_REPRESENTATION_CONTEXT() REPRESENTATION_CONTEXT('2D SPACE',''
  ) );
#515 = ORIENTED_EDGE('',*,*,#421,.F.);
#516 = ADVANCED_FACE('',(#517),#87,.F.);
#517 = FACE_BOUND('',#518,.F.);
#518 = EDGE_LOOP('',(#519,#520,#547,#572,#573));
#519 = ORIENTED_EDGE('',*,*,#254,.F.);
#520 = ORIENTED_EDGE('',*,*,#521,.T.);
#521 = EDGE_CURVE('',#227,#522,#524,.T.);
#522 = VERTEX_POINT('',#523);
#523 = CARTESIAN_POINT('',(1.4E+03,-10.00000046229,40.000001816154));
#524 = SURFACE_CURVE('',#525,(#530,#537),.PCURVE_S1.);
#525 = ELLIPSE('',#526,4.167812981605,4.);
#526 = AXIS2_PLACEMENT_3D('',#527,#528,#529);
#527 = CARTESIAN_POINT('',(1.396E+03,-10.5779020979,40.));
#528 = DIRECTION('',(-0.138658356422,0.959735961679,0.244296426609));
#529 = DIRECTION('',(-0.473740342703,-0.280903691431,0.834663527318));
#530 = PCURVE('',#87,#531);
#531 = DEFINITIONAL_REPRESENTATION('',(#532),#536);
#532 = ELLIPSE('',#533,4.167812981605,4.);
#533 = AXIS2_PLACEMENT_2D('',#534,#535);
#534 = CARTESIAN_POINT('',(4.052147557695,206.01670384321));
#535 = DIRECTION('',(0.878163186031,-0.478361180177));
#536 = ( GEOMETRIC_REPRESENTATION_CONTEXT(2) 
PARAMETRIC_REPRESENTATION_CONTEXT() REPRESENTATION_CONTEXT('2D SPACE',''
  ) );
#537 = PCURVE('',#242,#538);
#538 = DEFINITIONAL_REPRESENTATION('',(#539),#546);
#539 = B_SPLINE_CURVE_WITH_KNOTS('',5,(#540,#541,#542,#543,#544,#545),
  .UNSPECIFIED.,.F.,.F.,(6,6),(0.593775148561,2.798075323083),
  .PIECEWISE_BEZIER_KNOTS.);
#540 = CARTESIAN_POINT('',(5.695444116327E-14,18.710668024307));
#541 = CARTESIAN_POINT('',(-0.440860034904,18.421891546783));
#542 = CARTESIAN_POINT('',(-0.881717121318,17.897371179528));
#543 = CARTESIAN_POINT('',(-1.322585816717,17.252480106333));
#544 = CARTESIAN_POINT('',(-1.763440139618,16.811789050286));
#545 = CARTESIAN_POINT('',(-2.204300174522,16.637953028264));
#546 = ( GEOMETRIC_REPRESENTATION_CONTEXT(2) 
PARAMETRIC_REPRESENTATION_CONTEXT() REPRESENTATION_CONTEXT('2D SPACE',''
  ) );
#547 = ORIENTED_EDGE('',*,*,#548,.T.);
#548 = EDGE_CURVE('',#522,#470,#549,.T.);
#549 = SURFACE_CURVE('',#550,(#555,#562),.PCURVE_S1.);
#550 = ELLIPSE('',#551,4.167812981605,4.);
#551 = AXIS2_PLACEMENT_3D('',#552,#553,#554);
#552 = CARTESIAN_POINT('',(1.396E+03,-10.5779020979,40.));
#553 = DIRECTION('',(-0.138658356422,0.959735961679,0.244296426609));
#554 = DIRECTION('',(-0.473740342703,-0.280903691431,0.834663527318));
#555 = PCURVE('',#87,#556);
#556 = DEFINITIONAL_REPRESENTATION('',(#557),#561);
#557 = ELLIPSE('',#558,4.167812981605,4.);
#558 = AXIS2_PLACEMENT_2D('',#559,#560);
#559 = CARTESIAN_POINT('',(4.052147557695,206.01670384321));
#560 = DIRECTION('',(0.878163186031,-0.478361180177));
#561 = ( GEOMETRIC_REPRESENTATION_CONTEXT(2) 
PARAMETRIC_REPRESENTATION_CONTEXT() REPRESENTATION_CONTEXT('2D SPACE',''
  ) );
#562 = PCURVE('',#242,#563);
#563 = DEFINITIONAL_REPRESENTATION('',(#564),#571);
#564 = B_SPLINE_CURVE_WITH_KNOTS('',5,(#565,#566,#567,#568,#569,#570),
  .UNSPECIFIED.,.F.,.F.,(6,6),(0.593775148561,2.798075323083),
  .PIECEWISE_BEZIER_KNOTS.);
#565 = CARTESIAN_POINT('',(5.695444116327E-14,18.710668024307));
#566 = CARTESIAN_POINT('',(-0.440860034904,18.421891546783));
#567 = CARTESIAN_POINT('',(-0.881717121318,17.897371179528));
#568 = CARTESIAN_POINT('',(-1.322585816717,17.252480106333));
#569 = CARTESIAN_POINT('',(-1.763440139618,16.811789050286));
#570 = CARTESIAN_POINT('',(-2.204300174522,16.637953028264));
#571 = ( GEOMETRIC_REPRESENTATION_CONTEXT(2) 
PARAMETRIC_REPRESENTATION_CONTEXT() REPRESENTATION_CONTEXT('2D SPACE',''
  ) );
#572 = ORIENTED_EDGE('',*,*,#469,.F.);
#573 = ORIENTED_EDGE('',*,*,#72,.T.);
#574 = ADVANCED_FACE('',(#575),#242,.T.);
#575 = FACE_BOUND('',#576,.F.);
#576 = EDGE_LOOP('',(#577,#578,#579,#580,#581,#582,#583,#584));
#577 = ORIENTED_EDGE('',*,*,#226,.F.);
#578 = ORIENTED_EDGE('',*,*,#331,.T.);
#579 = ORIENTED_EDGE('',*,*,#300,.T.);
#580 = ORIENTED_EDGE('',*,*,#387,.T.);
#581 = ORIENTED_EDGE('',*,*,#443,.T.);
#582 = ORIENTED_EDGE('',*,*,#491,.F.);
#583 = ORIENTED_EDGE('',*,*,#548,.F.);
#584 = ORIENTED_EDGE('',*,*,#521,.F.);
#585 = ( GEOMETRIC_REPRESENTATION_CONTEXT(3) 
GLOBAL_UNCERTAINTY_ASSIGNED_CONTEXT((#589)) GLOBAL_UNIT_ASSIGNED_CONTEXT
((#586,#587,#588)) REPRESENTATION_CONTEXT('Context #1',
  '3D Context with UNIT and UNCERTAINTY') );
#586 = ( LENGTH_UNIT() NAMED_UNIT(*) SI_UNIT(.MILLI.,.METRE.) );
#587 = ( NAMED_UNIT(*) PLANE_ANGLE_UNIT() SI_UNIT($,.RADIAN.) );
#588 = ( NAMED_UNIT(*) SI_UNIT($,.STERADIAN.) SOLID_ANGLE_UNIT() );
#589 = UNCERTAINTY_MEASURE_WITH_UNIT(LENGTH_MEASURE(2.E-05),#586,
  'distance_accuracy_value','confusion accuracy');
#590 = CONTEXT_DEPENDENT_SHAPE_REPRESENTATION(#591,#593);
#591 = ( REPRESENTATION_RELATIONSHIP('','',#32,#10) 
REPRESENTATION_RELATIONSHIP_WITH_TRANSFORMATION(#592) 
SHAPE_REPRESENTATION_RELATIONSHIP() );
#592 = ITEM_DEFINED_TRANSFORMATION('','',#11,#15);
#593 = PRODUCT_DEFINITION_SHAPE('Placement','Placement of an item',#594
  );
#594 = NEXT_ASSEMBLY_USAGE_OCCURRENCE('1','=>[0:1:1:2]','',#5,#27,$);
#595 = PRODUCT_RELATED_PRODUCT_CATEGORY('part',$,(#29));
#596 = MECHANICAL_DESIGN_GEOMETRIC_PRESENTATION_REPRESENTATION('',(#597)
  ,#585);
#597 = STYLED_ITEM('color',(#598),#33);
#598 = PRESENTATION_STYLE_ASSIGNMENT((#599));
#599 = SURFACE_STYLE_USAGE(.BOTH.,#600);
#600 = SURFACE_SIDE_STYLE('',(#601));
#601 = SURFACE_STYLE_FILL_AREA(#602);
#602 = FILL_AREA_STYLE('',(#603));
#603 = FILL_AREA_STYLE_COLOUR('',#604);
#604 = COLOUR_RGB('',0.654901934349,0.705882339664,0.737254912529);
ENDSEC;
END-ISO-10303-21;
