ISO-10303-21;
HEADER;
FILE_DESCRIPTION(('Open CASCADE Model'),'2;1');
FILE_NAME('I_Transition_Nose_R6','2000-01-01T00:00:00',('Author'),(
    'Open CASCADE'),'Open CASCADE STEP processor 7.9','cadgen','Unknown'
  );
FILE_SCHEMA(('AUTOMOTIVE_DESIGN { 1 0 10303 214 1 1 1 1 }'));
ENDSEC;
DATA;
#1 = APPLICATION_PROTOCOL_DEFINITION('international standard',
  'automotive_design',2000,#2);
#2 = APPLICATION_CONTEXT(
  'core data for automotive mechanical design processes');
#3 = SHAPE_DEFINITION_REPRESENTATION(#4,#10);
#4 = PRODUCT_DEFINITION_SHAPE('','',#5);
#5 = PRODUCT_DEFINITION('design','',#6,#9);
#6 = PRODUCT_DEFINITION_FORMATION('','',#7);
#7 = PRODUCT('=>[0:1:1:2]','=>[0:1:1:2]','',(#8));
#8 = PRODUCT_CONTEXT('',#2,'mechanical');
#9 = PRODUCT_DEFINITION_CONTEXT('part definition',#2,'design');
#10 = SHAPE_REPRESENTATION('',(#11,#15),#19);
#11 = AXIS2_PLACEMENT_3D('',#12,#13,#14);
#12 = CARTESIAN_POINT('',(0.,0.,0.));
#13 = DIRECTION('',(0.,0.,1.));
#14 = DIRECTION('',(1.,0.,0.));
#15 = AXIS2_PLACEMENT_3D('',#16,#17,#18);
#16 = CARTESIAN_POINT('',(0.,0.,0.));
#17 = DIRECTION('',(0.,0.,1.));
#18 = DIRECTION('',(1.,0.,0.));
#19 = ( GEOMETRIC_REPRESENTATION_CONTEXT(3) 
GLOBAL_UNCERTAINTY_ASSIGNED_CONTEXT((#23)) GLOBAL_UNIT_ASSIGNED_CONTEXT(
(#20,#21,#22)) REPRESENTATION_CONTEXT('Context #1',
  '3D Context with UNIT and UNCERTAINTY') );
#20 = ( LENGTH_UNIT() NAMED_UNIT(*) SI_UNIT(.MILLI.,.METRE.) );
#21 = ( NAMED_UNIT(*) PLANE_ANGLE_UNIT() SI_UNIT($,.RADIAN.) );
#22 = ( NAMED_UNIT(*) SI_UNIT($,.STERADIAN.) SOLID_ANGLE_UNIT() );
#23 = UNCERTAINTY_MEASURE_WITH_UNIT(LENGTH_MEASURE(5.E-06),#20,
  'distance_accuracy_value','confusion accuracy');
#24 = PRODUCT_RELATED_PRODUCT_CATEGORY('part',$,(#7));
#25 = SHAPE_DEFINITION_REPRESENTATION(#26,#32);
#26 = PRODUCT_DEFINITION_SHAPE('','',#27);
#27 = PRODUCT_DEFINITION('design','',#28,#31);
#28 = PRODUCT_DEFINITION_FORMATION('','',#29);
#29 = PRODUCT('I_Transition_Nose_R6','I_Transition_Nose_R6','',(#30));
#30 = PRODUCT_CONTEXT('',#2,'mechanical');
#31 = PRODUCT_DEFINITION_CONTEXT('part definition',#2,'design');
#32 = ADVANCED_BREP_SHAPE_REPRESENTATION('',(#11,#33),#1675);
#33 = MANIFOLD_SOLID_BREP('',#34);
#34 = CLOSED_SHELL('',(#35,#271,#340,#405,#483,#548,#653,#718,#795,#842,
    #916,#940,#964,#1016,#1064,#1111,#1163,#1215,#1268,#1310,#1336,#1342
    ,#1416,#1470,#1527,#1604,#1640,#1669));
#35 = ADVANCED_FACE('',(#36),#50,.T.);
#36 = FACE_BOUND('',#37,.F.);
#37 = EDGE_LOOP('',(#38,#73,#102,#130,#159,#187,#216,#244));
#38 = ORIENTED_EDGE('',*,*,#39,.F.);
#39 = EDGE_CURVE('',#40,#42,#44,.T.);
#40 = VERTEX_POINT('',#41);
#41 = CARTESIAN_POINT('',(-1.4E+03,-76.,86.));
#42 = VERTEX_POINT('',#43);
#43 = CARTESIAN_POINT('',(-1.4E+03,75.999999981879,86.));
#44 = SURFACE_CURVE('',#45,(#49,#61),.PCURVE_S1.);
#45 = LINE('',#46,#47);
#46 = CARTESIAN_POINT('',(-1.4E+03,2.181366198784E-12,86.));
#47 = VECTOR('',#48,1.);
#48 = DIRECTION('',(0.,1.,0.));
#49 = PCURVE('',#50,#55);
#50 = PLANE('',#51);
#51 = AXIS2_PLACEMENT_3D('',#52,#53,#54);
#52 = CARTESIAN_POINT('',(-1.4E+03,-76.,76.));
#53 = DIRECTION('',(-1.,0.,-1.110223024625E-16));
#54 = DIRECTION('',(-1.110223024625E-16,0.,1.));
#55 = DEFINITIONAL_REPRESENTATION('',(#56),#60);
#56 = LINE('',#57,#58);
#57 = CARTESIAN_POINT('',(10.,76.000000000004));
#58 = VECTOR('',#59,1.);
#59 = DIRECTION('',(0.,1.));
#60 = ( GEOMETRIC_REPRESENTATION_CONTEXT(2) 
PARAMETRIC_REPRESENTATION_CONTEXT() REPRESENTATION_CONTEXT('2D SPACE',''
  ) );
#61 = PCURVE('',#62,#67);
#62 = PLANE('',#63);
#63 = AXIS2_PLACEMENT_3D('',#64,#65,#66);
#64 = CARTESIAN_POINT('',(760.,2.181366198784E-12,86.));
#65 = DIRECTION('',(0.,0.,1.));
#66 = DIRECTION('',(0.,-1.,0.));
#67 = DEFINITIONAL_REPRESENTATION('',(#68),#72);
#68 = LINE('',#69,#70);
#69 = CARTESIAN_POINT('',(0.,-2.16E+03));
#70 = VECTOR('',#71,1.);
#71 = DIRECTION('',(-1.,0.));
#72 = ( GEOMETRIC_REPRESENTATION_CONTEXT(2) 
PARAMETRIC_REPRESENTATION_CONTEXT() REPRESENTATION_CONTEXT('2D SPACE',''
  ) );
#73 = ORIENTED_EDGE('',*,*,#74,.F.);
#74 = EDGE_CURVE('',#75,#40,#77,.T.);
#75 = VERTEX_POINT('',#76);
#76 = CARTESIAN_POINT('',(-1.4E+03,-86.,76.));
#77 = SURFACE_CURVE('',#78,(#83,#90),.PCURVE_S1.);
#78 = CIRCLE('',#79,10.);
#79 = AXIS2_PLACEMENT_3D('',#80,#81,#82);
#80 = CARTESIAN_POINT('',(-1.4E+03,-76.,76.));
#81 = DIRECTION('',(-1.,0.,-1.110223024625E-16));
#82 = DIRECTION('',(-1.110223024625E-16,0.,1.));
#83 = PCURVE('',#50,#84);
#84 = DEFINITIONAL_REPRESENTATION('',(#85),#89);
#85 = CIRCLE('',#86,10.);
#86 = AXIS2_PLACEMENT_2D('',#87,#88);
#87 = CARTESIAN_POINT('',(0.,0.));
#88 = DIRECTION('',(1.,0.));
#89 = ( GEOMETRIC_REPRESENTATION_CONTEXT(2) 
PARAMETRIC_REPRESENTATION_CONTEXT() REPRESENTATION_CONTEXT('2D SPACE',''
  ) );
#90 = PCURVE('',#91,#96);
#91 = CYLINDRICAL_SURFACE('',#92,10.);
#92 = AXIS2_PLACEMENT_3D('',#93,#94,#95);
#93 = CARTESIAN_POINT('',(-1.4E+03,-76.,76.));
#94 = DIRECTION('',(1.,0.,1.110223024625E-16));
#95 = DIRECTION('',(-1.110223024625E-16,0.,1.));
#96 = DEFINITIONAL_REPRESENTATION('',(#97),#101);
#97 = LINE('',#98,#99);
#98 = CARTESIAN_POINT('',(6.28318530718,0.));
#99 = VECTOR('',#100,1.);
#100 = DIRECTION('',(-1.,0.));
#101 = ( GEOMETRIC_REPRESENTATION_CONTEXT(2) 
PARAMETRIC_REPRESENTATION_CONTEXT() REPRESENTATION_CONTEXT('2D SPACE',''
  ) );
#102 = ORIENTED_EDGE('',*,*,#103,.T.);
#103 = EDGE_CURVE('',#75,#104,#106,.T.);
#104 = VERTEX_POINT('',#105);
#105 = CARTESIAN_POINT('',(-1.4E+03,-85.99999999999,-75.99999998187));
#106 = SURFACE_CURVE('',#107,(#111,#118),.PCURVE_S1.);
#107 = LINE('',#108,#109);
#108 = CARTESIAN_POINT('',(-1.4E+03,-85.99999999999,0.));
#109 = VECTOR('',#110,1.);
#110 = DIRECTION('',(1.110223024625E-16,0.,-1.));
#111 = PCURVE('',#50,#112);
#112 = DEFINITIONAL_REPRESENTATION('',(#113),#117);
#113 = LINE('',#114,#115);
#114 = CARTESIAN_POINT('',(-76.,-9.999999999996));
#115 = VECTOR('',#116,1.);
#116 = DIRECTION('',(-1.,0.));
#117 = ( GEOMETRIC_REPRESENTATION_CONTEXT(2) 
PARAMETRIC_REPRESENTATION_CONTEXT() REPRESENTATION_CONTEXT('2D SPACE',''
  ) );
#118 = PCURVE('',#119,#124);
#119 = PLANE('',#120);
#120 = AXIS2_PLACEMENT_3D('',#121,#122,#123);
#121 = CARTESIAN_POINT('',(760.,-85.99999999999,0.));
#122 = DIRECTION('',(0.,-1.,0.));
#123 = DIRECTION('',(1.110223024625E-16,0.,-1.));
#124 = DEFINITIONAL_REPRESENTATION('',(#125),#129);
#125 = LINE('',#126,#127);
#126 = CARTESIAN_POINT('',(-2.39808173319E-13,-2.16E+03));
#127 = VECTOR('',#128,1.);
#128 = DIRECTION('',(1.,0.));
#129 = ( GEOMETRIC_REPRESENTATION_CONTEXT(2) 
PARAMETRIC_REPRESENTATION_CONTEXT() REPRESENTATION_CONTEXT('2D SPACE',''
  ) );
#130 = ORIENTED_EDGE('',*,*,#131,.F.);
#131 = EDGE_CURVE('',#132,#104,#134,.T.);
#132 = VERTEX_POINT('',#133);
#133 = CARTESIAN_POINT('',(-1.4E+03,-75.99999999999,-85.99999999093));
#134 = SURFACE_CURVE('',#135,(#140,#147),.PCURVE_S1.);
#135 = CIRCLE('',#136,10.);
#136 = AXIS2_PLACEMENT_3D('',#137,#138,#139);
#137 = CARTESIAN_POINT('',(-1.4E+03,-75.99999999999,-75.99999998187));
#138 = DIRECTION('',(-1.,0.,-1.110223024625E-16));
#139 = DIRECTION('',(-1.110223024625E-16,0.,1.));
#140 = PCURVE('',#50,#141);
#141 = DEFINITIONAL_REPRESENTATION('',(#142),#146);
#142 = CIRCLE('',#143,10.);
#143 = AXIS2_PLACEMENT_2D('',#144,#145);
#144 = CARTESIAN_POINT('',(-151.9999999818,4.376943252282E-12));
#145 = DIRECTION('',(1.,0.));
#146 = ( GEOMETRIC_REPRESENTATION_CONTEXT(2) 
PARAMETRIC_REPRESENTATION_CONTEXT() REPRESENTATION_CONTEXT('2D SPACE',''
  ) );
#147 = PCURVE('',#148,#153);
#148 = CYLINDRICAL_SURFACE('',#149,10.);
#149 = AXIS2_PLACEMENT_3D('',#150,#151,#152);
#150 = CARTESIAN_POINT('',(-1.4E+03,-75.99999999999,-75.99999998187));
#151 = DIRECTION('',(1.,0.,1.110223024625E-16));
#152 = DIRECTION('',(-1.110223024625E-16,0.,1.));
#153 = DEFINITIONAL_REPRESENTATION('',(#154),#158);
#154 = LINE('',#155,#156);
#155 = CARTESIAN_POINT('',(6.28318530718,0.));
#156 = VECTOR('',#157,1.);
#157 = DIRECTION('',(-1.,0.));
#158 = ( GEOMETRIC_REPRESENTATION_CONTEXT(2) 
PARAMETRIC_REPRESENTATION_CONTEXT() REPRESENTATION_CONTEXT('2D SPACE',''
  ) );
#159 = ORIENTED_EDGE('',*,*,#160,.T.);
#160 = EDGE_CURVE('',#132,#161,#163,.T.);
#161 = VERTEX_POINT('',#162);
#162 = CARTESIAN_POINT('',(-1.4E+03,75.999999981879,-86.));
#163 = SURFACE_CURVE('',#164,(#168,#175),.PCURVE_S1.);
#164 = LINE('',#165,#166);
#165 = CARTESIAN_POINT('',(-1.4E+03,2.181366198784E-12,-86.));
#166 = VECTOR('',#167,1.);
#167 = DIRECTION('',(0.,1.,0.));
#168 = PCURVE('',#50,#169);
#169 = DEFINITIONAL_REPRESENTATION('',(#170),#174);
#170 = LINE('',#171,#172);
#171 = CARTESIAN_POINT('',(-162.,76.000000000004));
#172 = VECTOR('',#173,1.);
#173 = DIRECTION('',(0.,1.));
#174 = ( GEOMETRIC_REPRESENTATION_CONTEXT(2) 
PARAMETRIC_REPRESENTATION_CONTEXT() REPRESENTATION_CONTEXT('2D SPACE',''
  ) );
#175 = PCURVE('',#176,#181);
#176 = PLANE('',#177);
#177 = AXIS2_PLACEMENT_3D('',#178,#179,#180);
#178 = CARTESIAN_POINT('',(760.,2.181366198784E-12,-86.));
#179 = DIRECTION('',(0.,0.,-1.));
#180 = DIRECTION('',(0.,1.,0.));
#181 = DEFINITIONAL_REPRESENTATION('',(#182),#186);
#182 = LINE('',#183,#184);
#183 = CARTESIAN_POINT('',(0.,-2.16E+03));
#184 = VECTOR('',#185,1.);
#185 = DIRECTION('',(1.,0.));
#186 = ( GEOMETRIC_REPRESENTATION_CONTEXT(2) 
PARAMETRIC_REPRESENTATION_CONTEXT() REPRESENTATION_CONTEXT('2D SPACE',''
  ) );
#187 = ORIENTED_EDGE('',*,*,#188,.F.);
#188 = EDGE_CURVE('',#189,#161,#191,.T.);
#189 = VERTEX_POINT('',#190);
#190 = CARTESIAN_POINT('',(-1.4E+03,85.99999999094,-76.));
#191 = SURFACE_CURVE('',#192,(#197,#204),.PCURVE_S1.);
#192 = CIRCLE('',#193,10.);
#193 = AXIS2_PLACEMENT_3D('',#194,#195,#196);
#194 = CARTESIAN_POINT('',(-1.4E+03,75.999999981879,-76.));
#195 = DIRECTION('',(-1.,0.,-1.110223024625E-16));
#196 = DIRECTION('',(-1.110223024625E-16,0.,1.));
#197 = PCURVE('',#50,#198);
#198 = DEFINITIONAL_REPRESENTATION('',(#199),#203);
#199 = CIRCLE('',#200,10.);
#200 = AXIS2_PLACEMENT_2D('',#201,#202);
#201 = CARTESIAN_POINT('',(-152.,151.99999998188));
#202 = DIRECTION('',(1.,0.));
#203 = ( GEOMETRIC_REPRESENTATION_CONTEXT(2) 
PARAMETRIC_REPRESENTATION_CONTEXT() REPRESENTATION_CONTEXT('2D SPACE',''
  ) );
#204 = PCURVE('',#205,#210);
#205 = CYLINDRICAL_SURFACE('',#206,10.);
#206 = AXIS2_PLACEMENT_3D('',#207,#208,#209);
#207 = CARTESIAN_POINT('',(-1.4E+03,75.999999981879,-76.));
#208 = DIRECTION('',(1.,0.,1.110223024625E-16));
#209 = DIRECTION('',(-1.110223024625E-16,0.,1.));
#210 = DEFINITIONAL_REPRESENTATION('',(#211),#215);
#211 = LINE('',#212,#213);
#212 = CARTESIAN_POINT('',(6.28318530718,0.));
#213 = VECTOR('',#214,1.);
#214 = DIRECTION('',(-1.,0.));
#215 = ( GEOMETRIC_REPRESENTATION_CONTEXT(2) 
PARAMETRIC_REPRESENTATION_CONTEXT() REPRESENTATION_CONTEXT('2D SPACE',''
  ) );
#216 = ORIENTED_EDGE('',*,*,#217,.F.);
#217 = EDGE_CURVE('',#218,#189,#220,.T.);
#218 = VERTEX_POINT('',#219);
#219 = CARTESIAN_POINT('',(-1.4E+03,85.99999999094,76.));
#220 = SURFACE_CURVE('',#221,(#225,#232),.PCURVE_S1.);
#221 = LINE('',#222,#223);
#222 = CARTESIAN_POINT('',(-1.4E+03,86.000000000002,0.));
#223 = VECTOR('',#224,1.);
#224 = DIRECTION('',(1.110223024625E-16,0.,-1.));
#225 = PCURVE('',#50,#226);
#226 = DEFINITIONAL_REPRESENTATION('',(#227),#231);
#227 = LINE('',#228,#229);
#228 = CARTESIAN_POINT('',(-76.,162.));
#229 = VECTOR('',#230,1.);
#230 = DIRECTION('',(-1.,0.));
#231 = ( GEOMETRIC_REPRESENTATION_CONTEXT(2) 
PARAMETRIC_REPRESENTATION_CONTEXT() REPRESENTATION_CONTEXT('2D SPACE',''
  ) );
#232 = PCURVE('',#233,#238);
#233 = PLANE('',#234);
#234 = AXIS2_PLACEMENT_3D('',#235,#236,#237);
#235 = CARTESIAN_POINT('',(760.,86.000000000002,0.));
#236 = DIRECTION('',(0.,1.,0.));
#237 = DIRECTION('',(-1.110223024625E-16,0.,1.));
#238 = DEFINITIONAL_REPRESENTATION('',(#239),#243);
#239 = LINE('',#240,#241);
#240 = CARTESIAN_POINT('',(2.39808173319E-13,-2.16E+03));
#241 = VECTOR('',#242,1.);
#242 = DIRECTION('',(-1.,0.));
#243 = ( GEOMETRIC_REPRESENTATION_CONTEXT(2) 
PARAMETRIC_REPRESENTATION_CONTEXT() REPRESENTATION_CONTEXT('2D SPACE',''
  ) );
#244 = ORIENTED_EDGE('',*,*,#245,.F.);
#245 = EDGE_CURVE('',#42,#218,#246,.T.);
#246 = SURFACE_CURVE('',#247,(#252,#259),.PCURVE_S1.);
#247 = CIRCLE('',#248,10.);
#248 = AXIS2_PLACEMENT_3D('',#249,#250,#251);
#249 = CARTESIAN_POINT('',(-1.4E+03,75.999999981879,76.));
#250 = DIRECTION('',(-1.,0.,-1.110223024625E-16));
#251 = DIRECTION('',(-1.110223024625E-16,0.,1.));
#252 = PCURVE('',#50,#253);
#253 = DEFINITIONAL_REPRESENTATION('',(#254),#258);
#254 = CIRCLE('',#255,10.);
#255 = AXIS2_PLACEMENT_2D('',#256,#257);
#256 = CARTESIAN_POINT('',(0.,151.99999998188));
#257 = DIRECTION('',(1.,0.));
#258 = ( GEOMETRIC_REPRESENTATION_CONTEXT(2) 
PARAMETRIC_REPRESENTATION_CONTEXT() REPRESENTATION_CONTEXT('2D SPACE',''
  ) );
#259 = PCURVE('',#260,#265);
#260 = CYLINDRICAL_SURFACE('',#261,10.);
#261 = AXIS2_PLACEMENT_3D('',#262,#263,#264);
#262 = CARTESIAN_POINT('',(-1.4E+03,75.999999981879,76.));
#263 = DIRECTION('',(1.,0.,1.110223024625E-16));
#264 = DIRECTION('',(-1.110223024625E-16,0.,1.));
#265 = DEFINITIONAL_REPRESENTATION('',(#266),#270);
#266 = LINE('',#267,#268);
#267 = CARTESIAN_POINT('',(6.28318530718,0.));
#268 = VECTOR('',#269,1.);
#269 = DIRECTION('',(-1.,0.));
#270 = ( GEOMETRIC_REPRESENTATION_CONTEXT(2) 
PARAMETRIC_REPRESENTATION_CONTEXT() REPRESENTATION_CONTEXT('2D SPACE',''
  ) );
#271 = ADVANCED_FACE('',(#272),#62,.T.);
#272 = FACE_BOUND('',#273,.T.);
#273 = EDGE_LOOP('',(#274,#275,#295,#322));
#274 = ORIENTED_EDGE('',*,*,#39,.F.);
#275 = ORIENTED_EDGE('',*,*,#276,.T.);
#276 = EDGE_CURVE('',#40,#277,#279,.T.);
#277 = VERTEX_POINT('',#278);
#278 = CARTESIAN_POINT('',(760.,-76.,86.));
#279 = SURFACE_CURVE('',#280,(#283,#289),.PCURVE_S1.);
#280 = B_SPLINE_CURVE_WITH_KNOTS('',1,(#281,#282),.UNSPECIFIED.,.F.,.F.,
  (2,2),(0.,1.),.PIECEWISE_BEZIER_KNOTS.);
#281 = CARTESIAN_POINT('',(-1.4E+03,-76.,86.));
#282 = CARTESIAN_POINT('',(760.,-76.,86.));
#283 = PCURVE('',#62,#284);
#284 = DEFINITIONAL_REPRESENTATION('',(#285),#288);
#285 = B_SPLINE_CURVE_WITH_KNOTS('',1,(#286,#287),.UNSPECIFIED.,.F.,.F.,
  (2,2),(0.,1.),.PIECEWISE_BEZIER_KNOTS.);
#286 = CARTESIAN_POINT('',(76.000000000004,-2.16E+03));
#287 = CARTESIAN_POINT('',(76.000000000004,0.));
#288 = ( GEOMETRIC_REPRESENTATION_CONTEXT(2) 
PARAMETRIC_REPRESENTATION_CONTEXT() REPRESENTATION_CONTEXT('2D SPACE',''
  ) );
#289 = PCURVE('',#91,#290);
#290 = DEFINITIONAL_REPRESENTATION('',(#291),#294);
#291 = B_SPLINE_CURVE_WITH_KNOTS('',1,(#292,#293),.UNSPECIFIED.,.F.,.F.,
  (2,2),(0.,1.),.PIECEWISE_BEZIER_KNOTS.);
#292 = CARTESIAN_POINT('',(0.,0.));
#293 = CARTESIAN_POINT('',(0.,2.16E+03));
#294 = ( GEOMETRIC_REPRESENTATION_CONTEXT(2) 
PARAMETRIC_REPRESENTATION_CONTEXT() REPRESENTATION_CONTEXT('2D SPACE',''
  ) );
#295 = ORIENTED_EDGE('',*,*,#296,.T.);
#296 = EDGE_CURVE('',#277,#297,#299,.T.);
#297 = VERTEX_POINT('',#298);
#298 = CARTESIAN_POINT('',(760.,75.999999990939,86.));
#299 = SURFACE_CURVE('',#300,(#304,#310),.PCURVE_S1.);
#300 = LINE('',#301,#302);
#301 = CARTESIAN_POINT('',(760.,-76.,86.));
#302 = VECTOR('',#303,1.);
#303 = DIRECTION('',(0.,1.,0.));
#304 = PCURVE('',#62,#305);
#305 = DEFINITIONAL_REPRESENTATION('',(#306),#309);
#306 = B_SPLINE_CURVE_WITH_KNOTS('',1,(#307,#308),.UNSPECIFIED.,.F.,.F.,
  (2,2),(0.,152.),.PIECEWISE_BEZIER_KNOTS.);
#307 = CARTESIAN_POINT('',(76.000000000004,0.));
#308 = CARTESIAN_POINT('',(-75.99999998187,0.));
#309 = ( GEOMETRIC_REPRESENTATION_CONTEXT(2) 
PARAMETRIC_REPRESENTATION_CONTEXT() REPRESENTATION_CONTEXT('2D SPACE',''
  ) );
#310 = PCURVE('',#311,#316);
#311 = PLANE('',#312);
#312 = AXIS2_PLACEMENT_3D('',#313,#314,#315);
#313 = CARTESIAN_POINT('',(884.68850444234,0.,80.014951786768));
#314 = DIRECTION('',(-4.79447993684E-02,0.,-0.998849986842));
#315 = DIRECTION('',(-0.998849986842,0.,4.79447993684E-02));
#316 = DEFINITIONAL_REPRESENTATION('',(#317),#321);
#317 = LINE('',#318,#319);
#318 = CARTESIAN_POINT('',(124.83206295732,-76.));
#319 = VECTOR('',#320,1.);
#320 = DIRECTION('',(0.,1.));
#321 = ( GEOMETRIC_REPRESENTATION_CONTEXT(2) 
PARAMETRIC_REPRESENTATION_CONTEXT() REPRESENTATION_CONTEXT('2D SPACE',''
  ) );
#322 = ORIENTED_EDGE('',*,*,#323,.F.);
#323 = EDGE_CURVE('',#42,#297,#324,.T.);
#324 = SURFACE_CURVE('',#325,(#328,#334),.PCURVE_S1.);
#325 = B_SPLINE_CURVE_WITH_KNOTS('',1,(#326,#327),.UNSPECIFIED.,.F.,.F.,
  (2,2),(0.,1.),.PIECEWISE_BEZIER_KNOTS.);
#326 = CARTESIAN_POINT('',(-1.4E+03,75.999999981879,86.));
#327 = CARTESIAN_POINT('',(760.,75.999999981879,86.));
#328 = PCURVE('',#62,#329);
#329 = DEFINITIONAL_REPRESENTATION('',(#330),#333);
#330 = B_SPLINE_CURVE_WITH_KNOTS('',1,(#331,#332),.UNSPECIFIED.,.F.,.F.,
  (2,2),(0.,1.),.PIECEWISE_BEZIER_KNOTS.);
#331 = CARTESIAN_POINT('',(-75.99999998187,-2.16E+03));
#332 = CARTESIAN_POINT('',(-75.99999998187,0.));
#333 = ( GEOMETRIC_REPRESENTATION_CONTEXT(2) 
PARAMETRIC_REPRESENTATION_CONTEXT() REPRESENTATION_CONTEXT('2D SPACE',''
  ) );
#334 = PCURVE('',#260,#335);
#335 = DEFINITIONAL_REPRESENTATION('',(#336),#339);
#336 = B_SPLINE_CURVE_WITH_KNOTS('',1,(#337,#338),.UNSPECIFIED.,.F.,.F.,
  (2,2),(0.,1.),.PIECEWISE_BEZIER_KNOTS.);
#337 = CARTESIAN_POINT('',(6.28318530718,0.));
#338 = CARTESIAN_POINT('',(6.28318530718,2.16E+03));
#339 = ( GEOMETRIC_REPRESENTATION_CONTEXT(2) 
PARAMETRIC_REPRESENTATION_CONTEXT() REPRESENTATION_CONTEXT('2D SPACE',''
  ) );
#340 = ADVANCED_FACE('',(#341),#91,.T.);
#341 = FACE_BOUND('',#342,.T.);
#342 = EDGE_LOOP('',(#343,#344,#364,#404));
#343 = ORIENTED_EDGE('',*,*,#74,.F.);
#344 = ORIENTED_EDGE('',*,*,#345,.T.);
#345 = EDGE_CURVE('',#75,#346,#348,.T.);
#346 = VERTEX_POINT('',#347);
#347 = CARTESIAN_POINT('',(760.,-86.,76.));
#348 = SURFACE_CURVE('',#349,(#352,#358),.PCURVE_S1.);
#349 = B_SPLINE_CURVE_WITH_KNOTS('',1,(#350,#351),.UNSPECIFIED.,.F.,.F.,
  (2,2),(0.,1.),.PIECEWISE_BEZIER_KNOTS.);
#350 = CARTESIAN_POINT('',(-1.4E+03,-86.,76.));
#351 = CARTESIAN_POINT('',(760.,-86.,76.));
#352 = PCURVE('',#91,#353);
#353 = DEFINITIONAL_REPRESENTATION('',(#354),#357);
#354 = B_SPLINE_CURVE_WITH_KNOTS('',1,(#355,#356),.UNSPECIFIED.,.F.,.F.,
  (2,2),(0.,1.),.PIECEWISE_BEZIER_KNOTS.);
#355 = CARTESIAN_POINT('',(1.570796326795,0.));
#356 = CARTESIAN_POINT('',(1.570796326795,2.16E+03));
#357 = ( GEOMETRIC_REPRESENTATION_CONTEXT(2) 
PARAMETRIC_REPRESENTATION_CONTEXT() REPRESENTATION_CONTEXT('2D SPACE',''
  ) );
#358 = PCURVE('',#119,#359);
#359 = DEFINITIONAL_REPRESENTATION('',(#360),#363);
#360 = B_SPLINE_CURVE_WITH_KNOTS('',1,(#361,#362),.UNSPECIFIED.,.F.,.F.,
  (2,2),(0.,1.),.PIECEWISE_BEZIER_KNOTS.);
#361 = CARTESIAN_POINT('',(-76.,-2.16E+03));
#362 = CARTESIAN_POINT('',(-76.,0.));
#363 = ( GEOMETRIC_REPRESENTATION_CONTEXT(2) 
PARAMETRIC_REPRESENTATION_CONTEXT() REPRESENTATION_CONTEXT('2D SPACE',''
  ) );
#364 = ORIENTED_EDGE('',*,*,#365,.T.);
#365 = EDGE_CURVE('',#346,#277,#366,.T.);
#366 = SURFACE_CURVE('',#367,(#372,#379),.PCURVE_S1.);
#367 = CIRCLE('',#368,10.);
#368 = AXIS2_PLACEMENT_3D('',#369,#370,#371);
#369 = CARTESIAN_POINT('',(760.,-76.,76.));
#370 = DIRECTION('',(-1.,0.,-1.110223024625E-16));
#371 = DIRECTION('',(-1.110223024625E-16,0.,1.));
#372 = PCURVE('',#91,#373);
#373 = DEFINITIONAL_REPRESENTATION('',(#374),#378);
#374 = LINE('',#375,#376);
#375 = CARTESIAN_POINT('',(6.28318530718,2.16E+03));
#376 = VECTOR('',#377,1.);
#377 = DIRECTION('',(-1.,0.));
#378 = ( GEOMETRIC_REPRESENTATION_CONTEXT(2) 
PARAMETRIC_REPRESENTATION_CONTEXT() REPRESENTATION_CONTEXT('2D SPACE',''
  ) );
#379 = PCURVE('',#380,#399);
#380 = B_SPLINE_SURFACE_WITH_KNOTS('',8,1,(
    (#381,#382)
    ,(#383,#384)
    ,(#385,#386)
    ,(#387,#388)
    ,(#389,#390)
    ,(#391,#392)
    ,(#393,#394)
    ,(#395,#396)
    ,(#397,#398
    )),.UNSPECIFIED.,.F.,.F.,.F.,(9,9),(2,2),(0.,1.570796326795),(0.,1.)
  ,.PIECEWISE_BEZIER_KNOTS.);
#381 = CARTESIAN_POINT('',(760.,-76.,86.));
#382 = CARTESIAN_POINT('',(1.01E+03,-75.,74.));
#383 = CARTESIAN_POINT('',(760.,-77.96349540849,86.));
#384 = CARTESIAN_POINT('',(1.01E+03,-75.,74.));
#385 = CARTESIAN_POINT('',(759.99999999999,-79.92699143504,
    85.559392110387));
#386 = CARTESIAN_POINT('',(1.01E+03,-75.,74.));
#387 = CARTESIAN_POINT('',(760.00000000002,-81.77513234334,
    84.678180658715));
#388 = CARTESIAN_POINT('',(1.01E+03,-75.,74.));
#389 = CARTESIAN_POINT('',(759.99999999997,-83.3925875578,
    83.392587557797));
#390 = CARTESIAN_POINT('',(1.01E+03,-75.,74.));
#391 = CARTESIAN_POINT('',(760.00000000002,-84.67818065871,
    81.775132343352));
#392 = CARTESIAN_POINT('',(1.01E+03,-75.,74.));
#393 = CARTESIAN_POINT('',(759.99999999998,-85.55939211038,
    79.926991435041));
#394 = CARTESIAN_POINT('',(1.01E+03,-75.,74.));
#395 = CARTESIAN_POINT('',(760.,-86.,77.963495408494));
#396 = CARTESIAN_POINT('',(1.01E+03,-75.,74.));
#397 = CARTESIAN_POINT('',(760.,-86.,76.));
#398 = CARTESIAN_POINT('',(1.01E+03,-75.,74.));
#399 = DEFINITIONAL_REPRESENTATION('',(#400),#403);
#400 = B_SPLINE_CURVE_WITH_KNOTS('',1,(#401,#402),.UNSPECIFIED.,.F.,.F.,
  (2,2),(4.712388980385,6.28318530718),.PIECEWISE_BEZIER_KNOTS.);
#401 = CARTESIAN_POINT('',(1.570796326795,0.));
#402 = CARTESIAN_POINT('',(0.,0.));
#403 = ( GEOMETRIC_REPRESENTATION_CONTEXT(2) 
PARAMETRIC_REPRESENTATION_CONTEXT() REPRESENTATION_CONTEXT('2D SPACE',''
  ) );
#404 = ORIENTED_EDGE('',*,*,#276,.F.);
#405 = ADVANCED_FACE('',(#406),#119,.T.);
#406 = FACE_BOUND('',#407,.T.);
#407 = EDGE_LOOP('',(#408,#409,#429,#456,#482));
#408 = ORIENTED_EDGE('',*,*,#103,.T.);
#409 = ORIENTED_EDGE('',*,*,#410,.T.);
#410 = EDGE_CURVE('',#104,#411,#413,.T.);
#411 = VERTEX_POINT('',#412);
#412 = CARTESIAN_POINT('',(760.,-85.99999999999,-75.99999998187));
#413 = SURFACE_CURVE('',#414,(#417,#423),.PCURVE_S1.);
#414 = B_SPLINE_CURVE_WITH_KNOTS('',1,(#415,#416),.UNSPECIFIED.,.F.,.F.,
  (2,2),(0.,1.),.PIECEWISE_BEZIER_KNOTS.);
#415 = CARTESIAN_POINT('',(-1.4E+03,-85.99999999999,-75.99999998187));
#416 = CARTESIAN_POINT('',(760.,-85.99999999999,-75.99999998187));
#417 = PCURVE('',#119,#418);
#418 = DEFINITIONAL_REPRESENTATION('',(#419),#422);
#419 = B_SPLINE_CURVE_WITH_KNOTS('',1,(#420,#421),.UNSPECIFIED.,.F.,.F.,
  (2,2),(0.,1.),.PIECEWISE_BEZIER_KNOTS.);
#420 = CARTESIAN_POINT('',(75.999999981876,-2.16E+03));
#421 = CARTESIAN_POINT('',(75.999999981876,0.));
#422 = ( GEOMETRIC_REPRESENTATION_CONTEXT(2) 
PARAMETRIC_REPRESENTATION_CONTEXT() REPRESENTATION_CONTEXT('2D SPACE',''
  ) );
#423 = PCURVE('',#148,#424);
#424 = DEFINITIONAL_REPRESENTATION('',(#425),#428);
#425 = B_SPLINE_CURVE_WITH_KNOTS('',1,(#426,#427),.UNSPECIFIED.,.F.,.F.,
  (2,2),(0.,1.),.PIECEWISE_BEZIER_KNOTS.);
#426 = CARTESIAN_POINT('',(1.570796326795,0.));
#427 = CARTESIAN_POINT('',(1.570796326795,2.16E+03));
#428 = ( GEOMETRIC_REPRESENTATION_CONTEXT(2) 
PARAMETRIC_REPRESENTATION_CONTEXT() REPRESENTATION_CONTEXT('2D SPACE',''
  ) );
#429 = ORIENTED_EDGE('',*,*,#430,.F.);
#430 = EDGE_CURVE('',#431,#411,#433,.T.);
#431 = VERTEX_POINT('',#432);
#432 = CARTESIAN_POINT('',(760.,-85.99999999999,57.831836466751));
#433 = SURFACE_CURVE('',#434,(#438,#445),.PCURVE_S1.);
#434 = LINE('',#435,#436);
#435 = CARTESIAN_POINT('',(760.,-85.99999999999,0.));
#436 = VECTOR('',#437,1.);
#437 = DIRECTION('',(1.110223024625E-16,0.,-1.));
#438 = PCURVE('',#119,#439);
#439 = DEFINITIONAL_REPRESENTATION('',(#440),#444);
#440 = LINE('',#441,#442);
#441 = CARTESIAN_POINT('',(0.,0.));
#442 = VECTOR('',#443,1.);
#443 = DIRECTION('',(1.,0.));
#444 = ( GEOMETRIC_REPRESENTATION_CONTEXT(2) 
PARAMETRIC_REPRESENTATION_CONTEXT() REPRESENTATION_CONTEXT('2D SPACE',''
  ) );
#445 = PCURVE('',#446,#451);
#446 = B_SPLINE_SURFACE_WITH_KNOTS('',1,1,(
    (#447,#448)
    ,(#449,#450
    )),.UNSPECIFIED.,.F.,.F.,.F.,(2,2),(2,2),(-57.83183646675,
    75.999999981876),(0.,1.),.PIECEWISE_BEZIER_KNOTS.);
#447 = CARTESIAN_POINT('',(760.,-85.99999999999,57.831836466751));
#448 = CARTESIAN_POINT('',(1.01E+03,-75.,74.));
#449 = CARTESIAN_POINT('',(760.,-85.99999999999,-75.99999998187));
#450 = CARTESIAN_POINT('',(1.01E+03,-50.74673312394,-21.2806912988));
#451 = DEFINITIONAL_REPRESENTATION('',(#452),#455);
#452 = B_SPLINE_CURVE_WITH_KNOTS('',1,(#453,#454),.UNSPECIFIED.,.F.,.F.,
  (2,2),(-57.83183646675,75.999999981876),.PIECEWISE_BEZIER_KNOTS.);
#453 = CARTESIAN_POINT('',(-57.83183646675,0.));
#454 = CARTESIAN_POINT('',(75.999999981876,0.));
#455 = ( GEOMETRIC_REPRESENTATION_CONTEXT(2) 
PARAMETRIC_REPRESENTATION_CONTEXT() REPRESENTATION_CONTEXT('2D SPACE',''
  ) );
#456 = ORIENTED_EDGE('',*,*,#457,.F.);
#457 = EDGE_CURVE('',#346,#431,#458,.T.);
#458 = SURFACE_CURVE('',#459,(#463,#470),.PCURVE_S1.);
#459 = LINE('',#460,#461);
#460 = CARTESIAN_POINT('',(760.,-85.99999999999,0.));
#461 = VECTOR('',#462,1.);
#462 = DIRECTION('',(1.110223024625E-16,0.,-1.));
#463 = PCURVE('',#119,#464);
#464 = DEFINITIONAL_REPRESENTATION('',(#465),#469);
#465 = LINE('',#466,#467);
#466 = CARTESIAN_POINT('',(0.,0.));
#467 = VECTOR('',#468,1.);
#468 = DIRECTION('',(1.,0.));
#469 = ( GEOMETRIC_REPRESENTATION_CONTEXT(2) 
PARAMETRIC_REPRESENTATION_CONTEXT() REPRESENTATION_CONTEXT('2D SPACE',''
  ) );
#470 = PCURVE('',#471,#476);
#471 = PLANE('',#472);
#472 = AXIS2_PLACEMENT_3D('',#473,#474,#475);
#473 = CARTESIAN_POINT('',(760.,-86.,76.));
#474 = DIRECTION('',(4.395746974398E-02,-0.999033403272,0.));
#475 = DIRECTION('',(0.,0.,-1.));
#476 = DEFINITIONAL_REPRESENTATION('',(#477),#481);
#477 = LINE('',#478,#479);
#478 = CARTESIAN_POINT('',(76.,0.));
#479 = VECTOR('',#480,1.);
#480 = DIRECTION('',(1.,0.));
#481 = ( GEOMETRIC_REPRESENTATION_CONTEXT(2) 
PARAMETRIC_REPRESENTATION_CONTEXT() REPRESENTATION_CONTEXT('2D SPACE',''
  ) );
#482 = ORIENTED_EDGE('',*,*,#345,.F.);
#483 = ADVANCED_FACE('',(#484),#148,.T.);
#484 = FACE_BOUND('',#485,.T.);
#485 = EDGE_LOOP('',(#486,#487,#507,#547));
#486 = ORIENTED_EDGE('',*,*,#131,.F.);
#487 = ORIENTED_EDGE('',*,*,#488,.T.);
#488 = EDGE_CURVE('',#132,#489,#491,.T.);
#489 = VERTEX_POINT('',#490);
#490 = CARTESIAN_POINT('',(760.,-75.99999999999,-85.99999999093));
#491 = SURFACE_CURVE('',#492,(#495,#501),.PCURVE_S1.);
#492 = B_SPLINE_CURVE_WITH_KNOTS('',1,(#493,#494),.UNSPECIFIED.,.F.,.F.,
  (2,2),(0.,1.),.PIECEWISE_BEZIER_KNOTS.);
#493 = CARTESIAN_POINT('',(-1.4E+03,-75.99999999999,-85.99999999093));
#494 = CARTESIAN_POINT('',(760.,-75.99999999999,-85.99999999093));
#495 = PCURVE('',#148,#496);
#496 = DEFINITIONAL_REPRESENTATION('',(#497),#500);
#497 = B_SPLINE_CURVE_WITH_KNOTS('',1,(#498,#499),.UNSPECIFIED.,.F.,.F.,
  (2,2),(0.,1.),.PIECEWISE_BEZIER_KNOTS.);
#498 = CARTESIAN_POINT('',(3.14159265359,0.));
#499 = CARTESIAN_POINT('',(3.14159265359,2.16E+03));
#500 = ( GEOMETRIC_REPRESENTATION_CONTEXT(2) 
PARAMETRIC_REPRESENTATION_CONTEXT() REPRESENTATION_CONTEXT('2D SPACE',''
  ) );
#501 = PCURVE('',#176,#502);
#502 = DEFINITIONAL_REPRESENTATION('',(#503),#506);
#503 = B_SPLINE_CURVE_WITH_KNOTS('',1,(#504,#505),.UNSPECIFIED.,.F.,.F.,
  (2,2),(0.,1.),.PIECEWISE_BEZIER_KNOTS.);
#504 = CARTESIAN_POINT('',(-76.,-2.16E+03));
#505 = CARTESIAN_POINT('',(-76.,0.));
#506 = ( GEOMETRIC_REPRESENTATION_CONTEXT(2) 
PARAMETRIC_REPRESENTATION_CONTEXT() REPRESENTATION_CONTEXT('2D SPACE',''
  ) );
#507 = ORIENTED_EDGE('',*,*,#508,.T.);
#508 = EDGE_CURVE('',#489,#411,#509,.T.);
#509 = SURFACE_CURVE('',#510,(#515,#522),.PCURVE_S1.);
#510 = CIRCLE('',#511,10.);
#511 = AXIS2_PLACEMENT_3D('',#512,#513,#514);
#512 = CARTESIAN_POINT('',(760.,-75.99999999999,-75.99999998187));
#513 = DIRECTION('',(-1.,0.,-1.110223024625E-16));
#514 = DIRECTION('',(-1.110223024625E-16,0.,1.));
#515 = PCURVE('',#148,#516);
#516 = DEFINITIONAL_REPRESENTATION('',(#517),#521);
#517 = LINE('',#518,#519);
#518 = CARTESIAN_POINT('',(6.28318530718,2.16E+03));
#519 = VECTOR('',#520,1.);
#520 = DIRECTION('',(-1.,0.));
#521 = ( GEOMETRIC_REPRESENTATION_CONTEXT(2) 
PARAMETRIC_REPRESENTATION_CONTEXT() REPRESENTATION_CONTEXT('2D SPACE',''
  ) );
#522 = PCURVE('',#523,#542);
#523 = B_SPLINE_SURFACE_WITH_KNOTS('',8,1,(
    (#524,#525)
    ,(#526,#527)
    ,(#528,#529)
    ,(#530,#531)
    ,(#532,#533)
    ,(#534,#535)
    ,(#536,#537)
    ,(#538,#539)
    ,(#540,#541
    )),.UNSPECIFIED.,.F.,.F.,.F.,(9,9),(2,2),(-15.18868189617,
    -5.112059974431),(0.,1.),.PIECEWISE_BEZIER_KNOTS.);
#524 = CARTESIAN_POINT('',(760.,-85.99999999999,-75.99999998187));
#525 = CARTESIAN_POINT('',(1.01E+03,-50.74673312394,-21.2806912988));
#526 = CARTESIAN_POINT('',(759.99999999999,-85.99999999999,
    -77.96349539037));
#527 = CARTESIAN_POINT('',(1.01E+03,-50.43602139308,-22.50134452718));
#528 = CARTESIAN_POINT('',(760.,-85.55939211038,-79.92699141692));
#529 = CARTESIAN_POINT('',(1.01E+03,-50.12530966222,-23.72199775556));
#530 = CARTESIAN_POINT('',(759.99999999999,-84.6781806587,
    -81.77513232522));
#531 = CARTESIAN_POINT('',(1.01E+03,-49.81459793135,-24.94265098394));
#532 = CARTESIAN_POINT('',(759.99999999999,-83.3925875578,
    -83.39258753967));
#533 = CARTESIAN_POINT('',(1.01E+03,-49.50388620049,-26.16330421232));
#534 = CARTESIAN_POINT('',(760.,-81.77513234334,-84.67818064059));
#535 = CARTESIAN_POINT('',(1.01E+03,-49.19317446963,-27.38395744071));
#536 = CARTESIAN_POINT('',(759.99999999999,-79.92699143504,
    -85.55939209226));
#537 = CARTESIAN_POINT('',(1.01E+03,-48.88246273877,-28.60461066909));
#538 = CARTESIAN_POINT('',(760.,-77.96349540849,-85.99999998187));
#539 = CARTESIAN_POINT('',(1.01E+03,-48.57175100791,-29.82526389747));
#540 = CARTESIAN_POINT('',(760.,-75.99999999999,-85.99999998187));
#541 = CARTESIAN_POINT('',(1.01E+03,-48.26103927705,-31.04591712585));
#542 = DEFINITIONAL_REPRESENTATION('',(#543),#546);
#543 = B_SPLINE_CURVE_WITH_KNOTS('',1,(#544,#545),.UNSPECIFIED.,.F.,.F.,
  (2,2),(3.14159265359,4.712388980385),.PIECEWISE_BEZIER_KNOTS.);
#544 = CARTESIAN_POINT('',(-5.112059974431,0.));
#545 = CARTESIAN_POINT('',(-15.18868189617,0.));
#546 = ( GEOMETRIC_REPRESENTATION_CONTEXT(2) 
PARAMETRIC_REPRESENTATION_CONTEXT() REPRESENTATION_CONTEXT('2D SPACE',''
  ) );
#547 = ORIENTED_EDGE('',*,*,#410,.F.);
#548 = ADVANCED_FACE('',(#549),#176,.T.);
#549 = FACE_BOUND('',#550,.T.);
#550 = EDGE_LOOP('',(#551,#552,#572,#599,#627,#652));
#551 = ORIENTED_EDGE('',*,*,#160,.T.);
#552 = ORIENTED_EDGE('',*,*,#553,.T.);
#553 = EDGE_CURVE('',#161,#554,#556,.T.);
#554 = VERTEX_POINT('',#555);
#555 = CARTESIAN_POINT('',(760.,75.999999981879,-86.));
#556 = SURFACE_CURVE('',#557,(#560,#566),.PCURVE_S1.);
#557 = B_SPLINE_CURVE_WITH_KNOTS('',1,(#558,#559),.UNSPECIFIED.,.F.,.F.,
  (2,2),(0.,1.),.PIECEWISE_BEZIER_KNOTS.);
#558 = CARTESIAN_POINT('',(-1.4E+03,75.999999981879,-86.));
#559 = CARTESIAN_POINT('',(760.,75.999999981879,-86.));
#560 = PCURVE('',#176,#561);
#561 = DEFINITIONAL_REPRESENTATION('',(#562),#565);
#562 = B_SPLINE_CURVE_WITH_KNOTS('',1,(#563,#564),.UNSPECIFIED.,.F.,.F.,
  (2,2),(0.,1.),.PIECEWISE_BEZIER_KNOTS.);
#563 = CARTESIAN_POINT('',(75.999999981876,-2.16E+03));
#564 = CARTESIAN_POINT('',(75.999999981876,0.));
#565 = ( GEOMETRIC_REPRESENTATION_CONTEXT(2) 
PARAMETRIC_REPRESENTATION_CONTEXT() REPRESENTATION_CONTEXT('2D SPACE',''
  ) );
#566 = PCURVE('',#205,#567);
#567 = DEFINITIONAL_REPRESENTATION('',(#568),#571);
#568 = B_SPLINE_CURVE_WITH_KNOTS('',1,(#569,#570),.UNSPECIFIED.,.F.,.F.,
  (2,2),(0.,1.),.PIECEWISE_BEZIER_KNOTS.);
#569 = CARTESIAN_POINT('',(3.14159265359,0.));
#570 = CARTESIAN_POINT('',(3.14159265359,2.16E+03));
#571 = ( GEOMETRIC_REPRESENTATION_CONTEXT(2) 
PARAMETRIC_REPRESENTATION_CONTEXT() REPRESENTATION_CONTEXT('2D SPACE',''
  ) );
#572 = ORIENTED_EDGE('',*,*,#573,.F.);
#573 = EDGE_CURVE('',#574,#554,#576,.T.);
#574 = VERTEX_POINT('',#575);
#575 = CARTESIAN_POINT('',(760.,-2.6302515721E-09,-86.));
#576 = SURFACE_CURVE('',#577,(#581,#588),.PCURVE_S1.);
#577 = LINE('',#578,#579);
#578 = CARTESIAN_POINT('',(760.,2.181366198784E-12,-86.));
#579 = VECTOR('',#580,1.);
#580 = DIRECTION('',(0.,1.,0.));
#581 = PCURVE('',#176,#582);
#582 = DEFINITIONAL_REPRESENTATION('',(#583),#587);
#583 = LINE('',#584,#585);
#584 = CARTESIAN_POINT('',(0.,0.));
#585 = VECTOR('',#586,1.);
#586 = DIRECTION('',(1.,0.));
#587 = ( GEOMETRIC_REPRESENTATION_CONTEXT(2) 
PARAMETRIC_REPRESENTATION_CONTEXT() REPRESENTATION_CONTEXT('2D SPACE',''
  ) );
#588 = PCURVE('',#589,#594);
#589 = B_SPLINE_SURFACE_WITH_KNOTS('',1,1,(
    (#590,#591)
    ,(#592,#593
    )),.UNSPECIFIED.,.F.,.F.,.F.,(2,2),(2,2),(-2.632432938299E-09,
    75.999999981876),(0.,1.),.PIECEWISE_BEZIER_KNOTS.);
#590 = CARTESIAN_POINT('',(760.,-2.6302515721E-09,-86.));
#591 = CARTESIAN_POINT('',(1.01E+03,0.,-50.));
#592 = CARTESIAN_POINT('',(760.,75.999999981879,-86.));
#593 = CARTESIAN_POINT('',(1.01E+03,47.,-36.));
#594 = DEFINITIONAL_REPRESENTATION('',(#595),#598);
#595 = B_SPLINE_CURVE_WITH_KNOTS('',1,(#596,#597),.UNSPECIFIED.,.F.,.F.,
  (2,2),(-2.632432938299E-09,75.999999981876),.PIECEWISE_BEZIER_KNOTS.);
#596 = CARTESIAN_POINT('',(-2.632432938299E-09,0.));
#597 = CARTESIAN_POINT('',(75.999999981876,0.));
#598 = ( GEOMETRIC_REPRESENTATION_CONTEXT(2) 
PARAMETRIC_REPRESENTATION_CONTEXT() REPRESENTATION_CONTEXT('2D SPACE',''
  ) );
#599 = ORIENTED_EDGE('',*,*,#600,.F.);
#600 = EDGE_CURVE('',#601,#574,#603,.T.);
#601 = VERTEX_POINT('',#602);
#602 = CARTESIAN_POINT('',(760.,-67.85834688199,-86.));
#603 = SURFACE_CURVE('',#604,(#608,#615),.PCURVE_S1.);
#604 = LINE('',#605,#606);
#605 = CARTESIAN_POINT('',(760.,2.181366198784E-12,-86.));
#606 = VECTOR('',#607,1.);
#607 = DIRECTION('',(0.,1.,0.));
#608 = PCURVE('',#176,#609);
#609 = DEFINITIONAL_REPRESENTATION('',(#610),#614);
#610 = LINE('',#611,#612);
#611 = CARTESIAN_POINT('',(0.,0.));
#612 = VECTOR('',#613,1.);
#613 = DIRECTION('',(1.,0.));
#614 = ( GEOMETRIC_REPRESENTATION_CONTEXT(2) 
PARAMETRIC_REPRESENTATION_CONTEXT() REPRESENTATION_CONTEXT('2D SPACE',''
  ) );
#615 = PCURVE('',#616,#621);
#616 = B_SPLINE_SURFACE_WITH_KNOTS('',1,1,(
    (#617,#618)
    ,(#619,#620
    )),.UNSPECIFIED.,.F.,.F.,.F.,(2,2),(2,2),(-67.85834688199,
    -2.632432938299E-09),(0.,1.),.PIECEWISE_BEZIER_KNOTS.);
#617 = CARTESIAN_POINT('',(760.,-67.85834688199,-86.));
#618 = CARTESIAN_POINT('',(1.01E+03,-47.,-36.));
#619 = CARTESIAN_POINT('',(760.,-2.6302515721E-09,-86.));
#620 = CARTESIAN_POINT('',(1.01E+03,0.,-50.));
#621 = DEFINITIONAL_REPRESENTATION('',(#622),#626);
#622 = LINE('',#623,#624);
#623 = CARTESIAN_POINT('',(0.,0.));
#624 = VECTOR('',#625,1.);
#625 = DIRECTION('',(1.,0.));
#626 = ( GEOMETRIC_REPRESENTATION_CONTEXT(2) 
PARAMETRIC_REPRESENTATION_CONTEXT() REPRESENTATION_CONTEXT('2D SPACE',''
  ) );
#627 = ORIENTED_EDGE('',*,*,#628,.F.);
#628 = EDGE_CURVE('',#489,#601,#629,.T.);
#629 = SURFACE_CURVE('',#630,(#634,#641),.PCURVE_S1.);
#630 = LINE('',#631,#632);
#631 = CARTESIAN_POINT('',(760.,2.181366198784E-12,-86.));
#632 = VECTOR('',#633,1.);
#633 = DIRECTION('',(0.,1.,0.));
#634 = PCURVE('',#176,#635);
#635 = DEFINITIONAL_REPRESENTATION('',(#636),#640);
#636 = LINE('',#637,#638);
#637 = CARTESIAN_POINT('',(0.,0.));
#638 = VECTOR('',#639,1.);
#639 = DIRECTION('',(1.,0.));
#640 = ( GEOMETRIC_REPRESENTATION_CONTEXT(2) 
PARAMETRIC_REPRESENTATION_CONTEXT() REPRESENTATION_CONTEXT('2D SPACE',''
  ) );
#641 = PCURVE('',#642,#647);
#642 = B_SPLINE_SURFACE_WITH_KNOTS('',1,1,(
    (#643,#644)
    ,(#645,#646
    )),.UNSPECIFIED.,.F.,.F.,.F.,(2,2),(2,2),(-76.,-67.85834688199),(0.,
    1.),.PIECEWISE_BEZIER_KNOTS.);
#643 = CARTESIAN_POINT('',(760.,-75.99999999999,-86.));
#644 = CARTESIAN_POINT('',(1.01E+03,-48.26103927705,-31.04591712585));
#645 = CARTESIAN_POINT('',(760.,-67.85834688199,-86.));
#646 = CARTESIAN_POINT('',(1.01E+03,-47.,-36.));
#647 = DEFINITIONAL_REPRESENTATION('',(#648),#651);
#648 = B_SPLINE_CURVE_WITH_KNOTS('',1,(#649,#650),.UNSPECIFIED.,.F.,.F.,
  (2,2),(-76.,-67.85834688199),.PIECEWISE_BEZIER_KNOTS.);
#649 = CARTESIAN_POINT('',(-76.,0.));
#650 = CARTESIAN_POINT('',(-67.85834688199,0.));
#651 = ( GEOMETRIC_REPRESENTATION_CONTEXT(2) 
PARAMETRIC_REPRESENTATION_CONTEXT() REPRESENTATION_CONTEXT('2D SPACE',''
  ) );
#652 = ORIENTED_EDGE('',*,*,#488,.F.);
#653 = ADVANCED_FACE('',(#654),#205,.T.);
#654 = FACE_BOUND('',#655,.T.);
#655 = EDGE_LOOP('',(#656,#657,#677,#717));
#656 = ORIENTED_EDGE('',*,*,#188,.F.);
#657 = ORIENTED_EDGE('',*,*,#658,.T.);
#658 = EDGE_CURVE('',#189,#659,#661,.T.);
#659 = VERTEX_POINT('',#660);
#660 = CARTESIAN_POINT('',(760.,85.99999999094,-76.));
#661 = SURFACE_CURVE('',#662,(#665,#671),.PCURVE_S1.);
#662 = B_SPLINE_CURVE_WITH_KNOTS('',1,(#663,#664),.UNSPECIFIED.,.F.,.F.,
  (2,2),(0.,1.),.PIECEWISE_BEZIER_KNOTS.);
#663 = CARTESIAN_POINT('',(-1.4E+03,85.99999999094,-76.));
#664 = CARTESIAN_POINT('',(760.,85.99999999094,-76.));
#665 = PCURVE('',#205,#666);
#666 = DEFINITIONAL_REPRESENTATION('',(#667),#670);
#667 = B_SPLINE_CURVE_WITH_KNOTS('',1,(#668,#669),.UNSPECIFIED.,.F.,.F.,
  (2,2),(0.,1.),.PIECEWISE_BEZIER_KNOTS.);
#668 = CARTESIAN_POINT('',(4.712388980385,0.));
#669 = CARTESIAN_POINT('',(4.712388980385,2.16E+03));
#670 = ( GEOMETRIC_REPRESENTATION_CONTEXT(2) 
PARAMETRIC_REPRESENTATION_CONTEXT() REPRESENTATION_CONTEXT('2D SPACE',''
  ) );
#671 = PCURVE('',#233,#672);
#672 = DEFINITIONAL_REPRESENTATION('',(#673),#676);
#673 = B_SPLINE_CURVE_WITH_KNOTS('',1,(#674,#675),.UNSPECIFIED.,.F.,.F.,
  (2,2),(0.,1.),.PIECEWISE_BEZIER_KNOTS.);
#674 = CARTESIAN_POINT('',(-76.,-2.16E+03));
#675 = CARTESIAN_POINT('',(-76.,0.));
#676 = ( GEOMETRIC_REPRESENTATION_CONTEXT(2) 
PARAMETRIC_REPRESENTATION_CONTEXT() REPRESENTATION_CONTEXT('2D SPACE',''
  ) );
#677 = ORIENTED_EDGE('',*,*,#678,.T.);
#678 = EDGE_CURVE('',#659,#554,#679,.T.);
#679 = SURFACE_CURVE('',#680,(#685,#692),.PCURVE_S1.);
#680 = CIRCLE('',#681,10.);
#681 = AXIS2_PLACEMENT_3D('',#682,#683,#684);
#682 = CARTESIAN_POINT('',(760.,75.999999981879,-76.));
#683 = DIRECTION('',(-1.,0.,-1.110223024625E-16));
#684 = DIRECTION('',(-1.110223024625E-16,0.,1.));
#685 = PCURVE('',#205,#686);
#686 = DEFINITIONAL_REPRESENTATION('',(#687),#691);
#687 = LINE('',#688,#689);
#688 = CARTESIAN_POINT('',(6.28318530718,2.16E+03));
#689 = VECTOR('',#690,1.);
#690 = DIRECTION('',(-1.,0.));
#691 = ( GEOMETRIC_REPRESENTATION_CONTEXT(2) 
PARAMETRIC_REPRESENTATION_CONTEXT() REPRESENTATION_CONTEXT('2D SPACE',''
  ) );
#692 = PCURVE('',#693,#712);
#693 = B_SPLINE_SURFACE_WITH_KNOTS('',8,1,(
    (#694,#695)
    ,(#696,#697)
    ,(#698,#699)
    ,(#700,#701)
    ,(#702,#703)
    ,(#704,#705)
    ,(#706,#707)
    ,(#708,#709)
    ,(#710,#711
    )),.UNSPECIFIED.,.F.,.F.,.F.,(9,9),(2,2),(-113.5077089893,
    -98.3190271038),(0.,1.),.PIECEWISE_BEZIER_KNOTS.);
#694 = CARTESIAN_POINT('',(760.,75.999999981879,-86.));
#695 = CARTESIAN_POINT('',(1.01E+03,47.,-36.));
#696 = CARTESIAN_POINT('',(759.99999999998,77.963495390371,
    -85.99999999999));
#697 = CARTESIAN_POINT('',(1.01E+03,47.468341640163,-34.16008641364));
#698 = CARTESIAN_POINT('',(760.00000000003,79.926991416924,
    -85.55939211039));
#699 = CARTESIAN_POINT('',(1.01E+03,47.936683280327,-32.32017282728));
#700 = CARTESIAN_POINT('',(759.99999999994,81.775132325223,
    -84.67818065871));
#701 = CARTESIAN_POINT('',(1.01E+03,48.40502492049,-30.48025924093));
#702 = CARTESIAN_POINT('',(760.00000000006,83.392587539684,
    -83.3925875578));
#703 = CARTESIAN_POINT('',(1.01E+03,48.873366560654,-28.64034565457));
#704 = CARTESIAN_POINT('',(759.99999999995,84.678180640589,
    -81.77513234335));
#705 = CARTESIAN_POINT('',(1.01E+03,49.341708200817,-26.80043206821));
#706 = CARTESIAN_POINT('',(760.00000000002,85.559392092269,
    -79.92699143504));
#707 = CARTESIAN_POINT('',(1.01E+03,49.810049840981,-24.96051848186));
#708 = CARTESIAN_POINT('',(759.99999999999,85.999999981878,
    -77.96349540849));
#709 = CARTESIAN_POINT('',(1.01E+03,50.278391481144,-23.1206048955));
#710 = CARTESIAN_POINT('',(760.,85.999999981879,-76.));
#711 = CARTESIAN_POINT('',(1.01E+03,50.746733121308,-21.28069130914));
#712 = DEFINITIONAL_REPRESENTATION('',(#713),#716);
#713 = B_SPLINE_CURVE_WITH_KNOTS('',1,(#714,#715),.UNSPECIFIED.,.F.,.F.,
  (2,2),(1.570796326795,3.14159265359),.PIECEWISE_BEZIER_KNOTS.);
#714 = CARTESIAN_POINT('',(-98.3190271038,0.));
#715 = CARTESIAN_POINT('',(-113.5077089893,0.));
#716 = ( GEOMETRIC_REPRESENTATION_CONTEXT(2) 
PARAMETRIC_REPRESENTATION_CONTEXT() REPRESENTATION_CONTEXT('2D SPACE',''
  ) );
#717 = ORIENTED_EDGE('',*,*,#553,.F.);
#718 = ADVANCED_FACE('',(#719),#233,.T.);
#719 = FACE_BOUND('',#720,.T.);
#720 = EDGE_LOOP('',(#721,#722,#742,#769,#794));
#721 = ORIENTED_EDGE('',*,*,#217,.F.);
#722 = ORIENTED_EDGE('',*,*,#723,.T.);
#723 = EDGE_CURVE('',#218,#724,#726,.T.);
#724 = VERTEX_POINT('',#725);
#725 = CARTESIAN_POINT('',(760.,85.99999999094,76.));
#726 = SURFACE_CURVE('',#727,(#730,#736),.PCURVE_S1.);
#727 = B_SPLINE_CURVE_WITH_KNOTS('',1,(#728,#729),.UNSPECIFIED.,.F.,.F.,
  (2,2),(0.,1.),.PIECEWISE_BEZIER_KNOTS.);
#728 = CARTESIAN_POINT('',(-1.4E+03,85.99999999094,76.));
#729 = CARTESIAN_POINT('',(760.,85.99999999094,76.));
#730 = PCURVE('',#233,#731);
#731 = DEFINITIONAL_REPRESENTATION('',(#732),#735);
#732 = B_SPLINE_CURVE_WITH_KNOTS('',1,(#733,#734),.UNSPECIFIED.,.F.,.F.,
  (2,2),(0.,1.),.PIECEWISE_BEZIER_KNOTS.);
#733 = CARTESIAN_POINT('',(76.,-2.16E+03));
#734 = CARTESIAN_POINT('',(76.,0.));
#735 = ( GEOMETRIC_REPRESENTATION_CONTEXT(2) 
PARAMETRIC_REPRESENTATION_CONTEXT() REPRESENTATION_CONTEXT('2D SPACE',''
  ) );
#736 = PCURVE('',#260,#737);
#737 = DEFINITIONAL_REPRESENTATION('',(#738),#741);
#738 = B_SPLINE_CURVE_WITH_KNOTS('',1,(#739,#740),.UNSPECIFIED.,.F.,.F.,
  (2,2),(0.,1.),.PIECEWISE_BEZIER_KNOTS.);
#739 = CARTESIAN_POINT('',(4.712388980385,0.));
#740 = CARTESIAN_POINT('',(4.712388980385,2.16E+03));
#741 = ( GEOMETRIC_REPRESENTATION_CONTEXT(2) 
PARAMETRIC_REPRESENTATION_CONTEXT() REPRESENTATION_CONTEXT('2D SPACE',''
  ) );
#742 = ORIENTED_EDGE('',*,*,#743,.T.);
#743 = EDGE_CURVE('',#724,#744,#746,.T.);
#744 = VERTEX_POINT('',#745);
#745 = CARTESIAN_POINT('',(760.,86.000000000001,57.831836468522));
#746 = SURFACE_CURVE('',#747,(#751,#757),.PCURVE_S1.);
#747 = LINE('',#748,#749);
#748 = CARTESIAN_POINT('',(760.,86.,76.));
#749 = VECTOR('',#750,1.);
#750 = DIRECTION('',(0.,0.,-1.));
#751 = PCURVE('',#233,#752);
#752 = DEFINITIONAL_REPRESENTATION('',(#753),#756);
#753 = B_SPLINE_CURVE_WITH_KNOTS('',1,(#754,#755),.UNSPECIFIED.,.F.,.F.,
  (2,2),(0.,18.168163533249),.PIECEWISE_BEZIER_KNOTS.);
#754 = CARTESIAN_POINT('',(76.,0.));
#755 = CARTESIAN_POINT('',(57.831836470292,0.));
#756 = ( GEOMETRIC_REPRESENTATION_CONTEXT(2) 
PARAMETRIC_REPRESENTATION_CONTEXT() REPRESENTATION_CONTEXT('2D SPACE',''
  ) );
#757 = PCURVE('',#758,#763);
#758 = PLANE('',#759);
#759 = AXIS2_PLACEMENT_3D('',#760,#761,#762);
#760 = CARTESIAN_POINT('',(760.,86.,76.));
#761 = DIRECTION('',(-4.395746974398E-02,-0.999033403272,0.));
#762 = DIRECTION('',(0.,0.,-1.));
#763 = DEFINITIONAL_REPRESENTATION('',(#764),#768);
#764 = LINE('',#765,#766);
#765 = CARTESIAN_POINT('',(0.,0.));
#766 = VECTOR('',#767,1.);
#767 = DIRECTION('',(1.,0.));
#768 = ( GEOMETRIC_REPRESENTATION_CONTEXT(2) 
PARAMETRIC_REPRESENTATION_CONTEXT() REPRESENTATION_CONTEXT('2D SPACE',''
  ) );
#769 = ORIENTED_EDGE('',*,*,#770,.T.);
#770 = EDGE_CURVE('',#744,#659,#771,.T.);
#771 = SURFACE_CURVE('',#772,(#776,#783),.PCURVE_S1.);
#772 = LINE('',#773,#774);
#773 = CARTESIAN_POINT('',(760.,86.000000000002,0.));
#774 = VECTOR('',#775,1.);
#775 = DIRECTION('',(1.110223024625E-16,0.,-1.));
#776 = PCURVE('',#233,#777);
#777 = DEFINITIONAL_REPRESENTATION('',(#778),#782);
#778 = LINE('',#779,#780);
#779 = CARTESIAN_POINT('',(0.,0.));
#780 = VECTOR('',#781,1.);
#781 = DIRECTION('',(-1.,0.));
#782 = ( GEOMETRIC_REPRESENTATION_CONTEXT(2) 
PARAMETRIC_REPRESENTATION_CONTEXT() REPRESENTATION_CONTEXT('2D SPACE',''
  ) );
#783 = PCURVE('',#784,#789);
#784 = B_SPLINE_SURFACE_WITH_KNOTS('',1,1,(
    (#785,#786)
    ,(#787,#788
    )),.UNSPECIFIED.,.F.,.F.,.F.,(2,2),(2,2),(-76.,57.831836470292),(0.,
    1.),.PIECEWISE_BEZIER_KNOTS.);
#785 = CARTESIAN_POINT('',(760.,86.000000000002,-76.));
#786 = CARTESIAN_POINT('',(1.01E+03,50.746733121308,-21.28069130914));
#787 = CARTESIAN_POINT('',(760.,86.000000000002,57.831836470292));
#788 = CARTESIAN_POINT('',(1.01E+03,75.,74.));
#789 = DEFINITIONAL_REPRESENTATION('',(#790),#793);
#790 = B_SPLINE_CURVE_WITH_KNOTS('',1,(#791,#792),.UNSPECIFIED.,.F.,.F.,
  (2,2),(-57.83183647029,76.),.PIECEWISE_BEZIER_KNOTS.);
#791 = CARTESIAN_POINT('',(57.831836470292,0.));
#792 = CARTESIAN_POINT('',(-76.,0.));
#793 = ( GEOMETRIC_REPRESENTATION_CONTEXT(2) 
PARAMETRIC_REPRESENTATION_CONTEXT() REPRESENTATION_CONTEXT('2D SPACE',''
  ) );
#794 = ORIENTED_EDGE('',*,*,#658,.F.);
#795 = ADVANCED_FACE('',(#796),#260,.T.);
#796 = FACE_BOUND('',#797,.T.);
#797 = EDGE_LOOP('',(#798,#799,#800,#841));
#798 = ORIENTED_EDGE('',*,*,#245,.F.);
#799 = ORIENTED_EDGE('',*,*,#323,.T.);
#800 = ORIENTED_EDGE('',*,*,#801,.T.);
#801 = EDGE_CURVE('',#297,#724,#802,.T.);
#802 = SURFACE_CURVE('',#803,(#808,#815),.PCURVE_S1.);
#803 = CIRCLE('',#804,10.);
#804 = AXIS2_PLACEMENT_3D('',#805,#806,#807);
#805 = CARTESIAN_POINT('',(760.,75.999999981879,76.));
#806 = DIRECTION('',(-1.,0.,-1.110223024625E-16));
#807 = DIRECTION('',(-1.110223024625E-16,0.,1.));
#808 = PCURVE('',#260,#809);
#809 = DEFINITIONAL_REPRESENTATION('',(#810),#814);
#810 = LINE('',#811,#812);
#811 = CARTESIAN_POINT('',(6.28318530718,2.16E+03));
#812 = VECTOR('',#813,1.);
#813 = DIRECTION('',(-1.,0.));
#814 = ( GEOMETRIC_REPRESENTATION_CONTEXT(2) 
PARAMETRIC_REPRESENTATION_CONTEXT() REPRESENTATION_CONTEXT('2D SPACE',''
  ) );
#815 = PCURVE('',#816,#835);
#816 = B_SPLINE_SURFACE_WITH_KNOTS('',8,1,(
    (#817,#818)
    ,(#819,#820)
    ,(#821,#822)
    ,(#823,#824)
    ,(#825,#826)
    ,(#827,#828)
    ,(#829,#830)
    ,(#831,#832)
    ,(#833,#834
    )),.UNSPECIFIED.,.F.,.F.,.F.,(9,9),(2,2),(0.,1.570796326795),(0.,1.)
  ,.PIECEWISE_BEZIER_KNOTS.);
#817 = CARTESIAN_POINT('',(760.,76.,86.));
#818 = CARTESIAN_POINT('',(1.01E+03,75.,74.));
#819 = CARTESIAN_POINT('',(760.,77.963495408493,86.));
#820 = CARTESIAN_POINT('',(1.01E+03,75.,74.));
#821 = CARTESIAN_POINT('',(759.99999999999,79.926991435043,
    85.559392110387));
#822 = CARTESIAN_POINT('',(1.01E+03,75.,74.));
#823 = CARTESIAN_POINT('',(760.00000000002,81.775132343349,
    84.678180658715));
#824 = CARTESIAN_POINT('',(1.01E+03,75.,74.));
#825 = CARTESIAN_POINT('',(759.99999999997,83.392587557801,
    83.392587557797));
#826 = CARTESIAN_POINT('',(1.01E+03,75.,74.));
#827 = CARTESIAN_POINT('',(760.00000000002,84.678180658713,
    81.775132343352));
#828 = CARTESIAN_POINT('',(1.01E+03,75.,74.));
#829 = CARTESIAN_POINT('',(759.99999999998,85.559392110389,
    79.926991435041));
#830 = CARTESIAN_POINT('',(1.01E+03,75.,74.));
#831 = CARTESIAN_POINT('',(760.,86.,77.963495408494));
#832 = CARTESIAN_POINT('',(1.01E+03,75.,74.));
#833 = CARTESIAN_POINT('',(760.,86.,76.));
#834 = CARTESIAN_POINT('',(1.01E+03,75.,74.));
#835 = DEFINITIONAL_REPRESENTATION('',(#836),#840);
#836 = LINE('',#837,#838);
#837 = CARTESIAN_POINT('',(0.,0.));
#838 = VECTOR('',#839,1.);
#839 = DIRECTION('',(1.,0.));
#840 = ( GEOMETRIC_REPRESENTATION_CONTEXT(2) 
PARAMETRIC_REPRESENTATION_CONTEXT() REPRESENTATION_CONTEXT('2D SPACE',''
  ) );
#841 = ORIENTED_EDGE('',*,*,#723,.F.);
#842 = ADVANCED_FACE('',(#843),#311,.F.);
#843 = FACE_BOUND('',#844,.F.);
#844 = EDGE_LOOP('',(#845,#846,#868,#896));
#845 = ORIENTED_EDGE('',*,*,#296,.T.);
#846 = ORIENTED_EDGE('',*,*,#847,.T.);
#847 = EDGE_CURVE('',#297,#848,#850,.T.);
#848 = VERTEX_POINT('',#849);
#849 = CARTESIAN_POINT('',(1.01E+03,75.,74.));
#850 = SURFACE_CURVE('',#851,(#855,#862),.PCURVE_S1.);
#851 = LINE('',#852,#853);
#852 = CARTESIAN_POINT('',(760.,76.,86.));
#853 = VECTOR('',#854,1.);
#854 = DIRECTION('',(0.998842014506,-3.995368058023E-03,
    -4.794441669627E-02));
#855 = PCURVE('',#311,#856);
#856 = DEFINITIONAL_REPRESENTATION('',(#857),#861);
#857 = LINE('',#858,#859);
#858 = CARTESIAN_POINT('',(124.83206295732,76.));
#859 = VECTOR('',#860,1.);
#860 = DIRECTION('',(-0.999992018485,-3.995368058023E-03));
#861 = ( GEOMETRIC_REPRESENTATION_CONTEXT(2) 
PARAMETRIC_REPRESENTATION_CONTEXT() REPRESENTATION_CONTEXT('2D SPACE',''
  ) );
#862 = PCURVE('',#816,#863);
#863 = DEFINITIONAL_REPRESENTATION('',(#864),#867);
#864 = B_SPLINE_CURVE_WITH_KNOTS('',1,(#865,#866),.UNSPECIFIED.,.F.,.F.,
  (2,2),(0.,250.28983199483),.PIECEWISE_BEZIER_KNOTS.);
#865 = CARTESIAN_POINT('',(0.,0.));
#866 = CARTESIAN_POINT('',(0.,1.));
#867 = ( GEOMETRIC_REPRESENTATION_CONTEXT(2) 
PARAMETRIC_REPRESENTATION_CONTEXT() REPRESENTATION_CONTEXT('2D SPACE',''
  ) );
#868 = ORIENTED_EDGE('',*,*,#869,.T.);
#869 = EDGE_CURVE('',#848,#870,#872,.T.);
#870 = VERTEX_POINT('',#871);
#871 = CARTESIAN_POINT('',(1.01E+03,-75.,74.));
#872 = SURFACE_CURVE('',#873,(#877,#884),.PCURVE_S1.);
#873 = LINE('',#874,#875);
#874 = CARTESIAN_POINT('',(1.01E+03,75.,74.));
#875 = VECTOR('',#876,1.);
#876 = DIRECTION('',(0.,-1.,0.));
#877 = PCURVE('',#311,#878);
#878 = DEFINITIONAL_REPRESENTATION('',(#879),#883);
#879 = LINE('',#880,#881);
#880 = CARTESIAN_POINT('',(-125.4557713454,75.));
#881 = VECTOR('',#882,1.);
#882 = DIRECTION('',(0.,-1.));
#883 = ( GEOMETRIC_REPRESENTATION_CONTEXT(2) 
PARAMETRIC_REPRESENTATION_CONTEXT() REPRESENTATION_CONTEXT('2D SPACE',''
  ) );
#884 = PCURVE('',#885,#890);
#885 = PLANE('',#886);
#886 = AXIS2_PLACEMENT_3D('',#887,#888,#889);
#887 = CARTESIAN_POINT('',(1.188596365645E+03,-1.81197115404E-15,
    60.125030186573));
#888 = DIRECTION('',(-7.745558888959E-02,0.,-0.996995803276));
#889 = DIRECTION('',(-0.996995803276,0.,7.745558888959E-02));
#890 = DEFINITIONAL_REPRESENTATION('',(#891),#895);
#891 = LINE('',#892,#893);
#892 = CARTESIAN_POINT('',(179.13452098603,75.));
#893 = VECTOR('',#894,1.);
#894 = DIRECTION('',(0.,-1.));
#895 = ( GEOMETRIC_REPRESENTATION_CONTEXT(2) 
PARAMETRIC_REPRESENTATION_CONTEXT() REPRESENTATION_CONTEXT('2D SPACE',''
  ) );
#896 = ORIENTED_EDGE('',*,*,#897,.T.);
#897 = EDGE_CURVE('',#870,#277,#898,.T.);
#898 = SURFACE_CURVE('',#899,(#903,#910),.PCURVE_S1.);
#899 = LINE('',#900,#901);
#900 = CARTESIAN_POINT('',(1.01E+03,-75.,74.));
#901 = VECTOR('',#902,1.);
#902 = DIRECTION('',(-0.998842014506,-3.995368058023E-03,
    4.794441669627E-02));
#903 = PCURVE('',#311,#904);
#904 = DEFINITIONAL_REPRESENTATION('',(#905),#909);
#905 = LINE('',#906,#907);
#906 = CARTESIAN_POINT('',(-125.4557713454,-75.));
#907 = VECTOR('',#908,1.);
#908 = DIRECTION('',(0.999992018485,-3.995368058023E-03));
#909 = ( GEOMETRIC_REPRESENTATION_CONTEXT(2) 
PARAMETRIC_REPRESENTATION_CONTEXT() REPRESENTATION_CONTEXT('2D SPACE',''
  ) );
#910 = PCURVE('',#380,#911);
#911 = DEFINITIONAL_REPRESENTATION('',(#912),#915);
#912 = B_SPLINE_CURVE_WITH_KNOTS('',1,(#913,#914),.UNSPECIFIED.,.F.,.F.,
  (2,2),(0.,250.28983199483),.PIECEWISE_BEZIER_KNOTS.);
#913 = CARTESIAN_POINT('',(0.,1.));
#914 = CARTESIAN_POINT('',(0.,0.));
#915 = ( GEOMETRIC_REPRESENTATION_CONTEXT(2) 
PARAMETRIC_REPRESENTATION_CONTEXT() REPRESENTATION_CONTEXT('2D SPACE',''
  ) );
#916 = ADVANCED_FACE('',(#917),#380,.T.);
#917 = FACE_BOUND('',#918,.T.);
#918 = EDGE_LOOP('',(#919,#920,#939));
#919 = ORIENTED_EDGE('',*,*,#365,.F.);
#920 = ORIENTED_EDGE('',*,*,#921,.T.);
#921 = EDGE_CURVE('',#346,#870,#922,.T.);
#922 = SURFACE_CURVE('',#923,(#926,#933),.PCURVE_S1.);
#923 = B_SPLINE_CURVE_WITH_KNOTS('',1,(#924,#925),.UNSPECIFIED.,.F.,.F.,
  (2,2),(0.,1.),.PIECEWISE_BEZIER_KNOTS.);
#924 = CARTESIAN_POINT('',(760.,-86.,76.));
#925 = CARTESIAN_POINT('',(1.01E+03,-75.,74.));
#926 = PCURVE('',#380,#927);
#927 = DEFINITIONAL_REPRESENTATION('',(#928),#932);
#928 = LINE('',#929,#930);
#929 = CARTESIAN_POINT('',(1.570796326795,0.));
#930 = VECTOR('',#931,1.);
#931 = DIRECTION('',(0.,1.));
#932 = ( GEOMETRIC_REPRESENTATION_CONTEXT(2) 
PARAMETRIC_REPRESENTATION_CONTEXT() REPRESENTATION_CONTEXT('2D SPACE',''
  ) );
#933 = PCURVE('',#471,#934);
#934 = DEFINITIONAL_REPRESENTATION('',(#935),#938);
#935 = B_SPLINE_CURVE_WITH_KNOTS('',1,(#936,#937),.UNSPECIFIED.,.F.,.F.,
  (2,2),(0.,1.),.PIECEWISE_BEZIER_KNOTS.);
#936 = CARTESIAN_POINT('',(2.84217094304E-14,0.));
#937 = CARTESIAN_POINT('',(2.,250.24188298524));
#938 = ( GEOMETRIC_REPRESENTATION_CONTEXT(2) 
PARAMETRIC_REPRESENTATION_CONTEXT() REPRESENTATION_CONTEXT('2D SPACE',''
  ) );
#939 = ORIENTED_EDGE('',*,*,#897,.T.);
#940 = ADVANCED_FACE('',(#941),#471,.T.);
#941 = FACE_BOUND('',#942,.T.);
#942 = EDGE_LOOP('',(#943,#944,#963));
#943 = ORIENTED_EDGE('',*,*,#457,.T.);
#944 = ORIENTED_EDGE('',*,*,#945,.T.);
#945 = EDGE_CURVE('',#431,#870,#946,.T.);
#946 = SURFACE_CURVE('',#947,(#950,#956),.PCURVE_S1.);
#947 = B_SPLINE_CURVE_WITH_KNOTS('',1,(#948,#949),.UNSPECIFIED.,.F.,.F.,
  (2,2),(0.,1.),.PIECEWISE_BEZIER_KNOTS.);
#948 = CARTESIAN_POINT('',(760.,-86.,57.831836466751));
#949 = CARTESIAN_POINT('',(1.01E+03,-75.,74.));
#950 = PCURVE('',#471,#951);
#951 = DEFINITIONAL_REPRESENTATION('',(#952),#955);
#952 = B_SPLINE_CURVE_WITH_KNOTS('',1,(#953,#954),.UNSPECIFIED.,.F.,.F.,
  (2,2),(0.,1.),.PIECEWISE_BEZIER_KNOTS.);
#953 = CARTESIAN_POINT('',(18.168163533249,0.));
#954 = CARTESIAN_POINT('',(2.,250.24188298524));
#955 = ( GEOMETRIC_REPRESENTATION_CONTEXT(2) 
PARAMETRIC_REPRESENTATION_CONTEXT() REPRESENTATION_CONTEXT('2D SPACE',''
  ) );
#956 = PCURVE('',#446,#957);
#957 = DEFINITIONAL_REPRESENTATION('',(#958),#962);
#958 = LINE('',#959,#960);
#959 = CARTESIAN_POINT('',(-57.83183646675,0.));
#960 = VECTOR('',#961,1.);
#961 = DIRECTION('',(0.,1.));
#962 = ( GEOMETRIC_REPRESENTATION_CONTEXT(2) 
PARAMETRIC_REPRESENTATION_CONTEXT() REPRESENTATION_CONTEXT('2D SPACE',''
  ) );
#963 = ORIENTED_EDGE('',*,*,#921,.F.);
#964 = ADVANCED_FACE('',(#965),#446,.T.);
#965 = FACE_BOUND('',#966,.T.);
#966 = EDGE_LOOP('',(#967,#968,#990,#1015));
#967 = ORIENTED_EDGE('',*,*,#430,.T.);
#968 = ORIENTED_EDGE('',*,*,#969,.T.);
#969 = EDGE_CURVE('',#411,#970,#972,.T.);
#970 = VERTEX_POINT('',#971);
#971 = CARTESIAN_POINT('',(1.01E+03,-50.74673312394,-21.2806912988));
#972 = SURFACE_CURVE('',#973,(#976,#983),.PCURVE_S1.);
#973 = B_SPLINE_CURVE_WITH_KNOTS('',1,(#974,#975),.UNSPECIFIED.,.F.,.F.,
  (2,2),(0.,1.),.PIECEWISE_BEZIER_KNOTS.);
#974 = CARTESIAN_POINT('',(760.,-85.99999999999,-75.99999998187));
#975 = CARTESIAN_POINT('',(1.01E+03,-50.74673312394,-21.2806912988));
#976 = PCURVE('',#446,#977);
#977 = DEFINITIONAL_REPRESENTATION('',(#978),#982);
#978 = LINE('',#979,#980);
#979 = CARTESIAN_POINT('',(75.999999981876,0.));
#980 = VECTOR('',#981,1.);
#981 = DIRECTION('',(0.,1.));
#982 = ( GEOMETRIC_REPRESENTATION_CONTEXT(2) 
PARAMETRIC_REPRESENTATION_CONTEXT() REPRESENTATION_CONTEXT('2D SPACE',''
  ) );
#983 = PCURVE('',#523,#984);
#984 = DEFINITIONAL_REPRESENTATION('',(#985),#989);
#985 = LINE('',#986,#987);
#986 = CARTESIAN_POINT('',(-15.18868189617,0.));
#987 = VECTOR('',#988,1.);
#988 = DIRECTION('',(0.,1.));
#989 = ( GEOMETRIC_REPRESENTATION_CONTEXT(2) 
PARAMETRIC_REPRESENTATION_CONTEXT() REPRESENTATION_CONTEXT('2D SPACE',''
  ) );
#990 = ORIENTED_EDGE('',*,*,#991,.T.);
#991 = EDGE_CURVE('',#970,#870,#992,.T.);
#992 = SURFACE_CURVE('',#993,(#997,#1003),.PCURVE_S1.);
#993 = LINE('',#994,#995);
#994 = CARTESIAN_POINT('',(1.01E+03,-47.,-36.));
#995 = VECTOR('',#996,1.);
#996 = DIRECTION('',(0.,-0.246679280635,0.969097173923));
#997 = PCURVE('',#446,#998);
#998 = DEFINITIONAL_REPRESENTATION('',(#999),#1002);
#999 = B_SPLINE_CURVE_WITH_KNOTS('',1,(#1000,#1001),.UNSPECIFIED.,.F.,
  .F.,(2,2),(15.188681896176,113.5077089893),.PIECEWISE_BEZIER_KNOTS.);
#1000 = CARTESIAN_POINT('',(75.999999981876,1.));
#1001 = CARTESIAN_POINT('',(-57.83183646675,1.));
#1002 = ( GEOMETRIC_REPRESENTATION_CONTEXT(2) 
PARAMETRIC_REPRESENTATION_CONTEXT() REPRESENTATION_CONTEXT('2D SPACE',''
  ) );
#1003 = PCURVE('',#1004,#1009);
#1004 = PLANE('',#1005);
#1005 = AXIS2_PLACEMENT_3D('',#1006,#1007,#1008);
#1006 = CARTESIAN_POINT('',(1.191973360871E+03,-37.2614906038,
    29.026450327948));
#1007 = DIRECTION('',(-0.138658356422,0.959735961679,0.244296426609));
#1008 = DIRECTION('',(-1.387778780781E-17,-0.246679280635,0.969097173923
    ));
#1009 = DEFINITIONAL_REPRESENTATION('',(#1010),#1014);
#1010 = LINE('',#1011,#1012);
#1011 = CARTESIAN_POINT('',(-60.61466075074,-183.7483191113));
#1012 = VECTOR('',#1013,1.);
#1013 = DIRECTION('',(1.,2.081668171172E-17));
#1014 = ( GEOMETRIC_REPRESENTATION_CONTEXT(2) 
PARAMETRIC_REPRESENTATION_CONTEXT() REPRESENTATION_CONTEXT('2D SPACE',''
  ) );
#1015 = ORIENTED_EDGE('',*,*,#945,.F.);
#1016 = ADVANCED_FACE('',(#1017),#523,.T.);
#1017 = FACE_BOUND('',#1018,.T.);
#1018 = EDGE_LOOP('',(#1019,#1020,#1042,#1063));
#1019 = ORIENTED_EDGE('',*,*,#508,.F.);
#1020 = ORIENTED_EDGE('',*,*,#1021,.T.);
#1021 = EDGE_CURVE('',#489,#1022,#1024,.T.);
#1022 = VERTEX_POINT('',#1023);
#1023 = CARTESIAN_POINT('',(1.01E+03,-48.26103927705,-31.04591712585));
#1024 = SURFACE_CURVE('',#1025,(#1028,#1035),.PCURVE_S1.);
#1025 = B_SPLINE_CURVE_WITH_KNOTS('',1,(#1026,#1027),.UNSPECIFIED.,.F.,
  .F.,(2,2),(0.,1.),.PIECEWISE_BEZIER_KNOTS.);
#1026 = CARTESIAN_POINT('',(760.,-75.99999999999,-85.99999998187));
#1027 = CARTESIAN_POINT('',(1.01E+03,-48.26103927705,-31.04591712585));
#1028 = PCURVE('',#523,#1029);
#1029 = DEFINITIONAL_REPRESENTATION('',(#1030),#1034);
#1030 = LINE('',#1031,#1032);
#1031 = CARTESIAN_POINT('',(-5.112059974431,0.));
#1032 = VECTOR('',#1033,1.);
#1033 = DIRECTION('',(0.,1.));
#1034 = ( GEOMETRIC_REPRESENTATION_CONTEXT(2) 
PARAMETRIC_REPRESENTATION_CONTEXT() REPRESENTATION_CONTEXT('2D SPACE',''
  ) );
#1035 = PCURVE('',#642,#1036);
#1036 = DEFINITIONAL_REPRESENTATION('',(#1037),#1041);
#1037 = LINE('',#1038,#1039);
#1038 = CARTESIAN_POINT('',(-76.,0.));
#1039 = VECTOR('',#1040,1.);
#1040 = DIRECTION('',(0.,1.));
#1041 = ( GEOMETRIC_REPRESENTATION_CONTEXT(2) 
PARAMETRIC_REPRESENTATION_CONTEXT() REPRESENTATION_CONTEXT('2D SPACE',''
  ) );
#1042 = ORIENTED_EDGE('',*,*,#1043,.T.);
#1043 = EDGE_CURVE('',#1022,#970,#1044,.T.);
#1044 = SURFACE_CURVE('',#1045,(#1049,#1056),.PCURVE_S1.);
#1045 = LINE('',#1046,#1047);
#1046 = CARTESIAN_POINT('',(1.01E+03,-47.,-36.));
#1047 = VECTOR('',#1048,1.);
#1048 = DIRECTION('',(0.,-0.246679280635,0.969097173923));
#1049 = PCURVE('',#523,#1050);
#1050 = DEFINITIONAL_REPRESENTATION('',(#1051),#1055);
#1051 = LINE('',#1052,#1053);
#1052 = CARTESIAN_POINT('',(0.,1.));
#1053 = VECTOR('',#1054,1.);
#1054 = DIRECTION('',(-1.,0.));
#1055 = ( GEOMETRIC_REPRESENTATION_CONTEXT(2) 
PARAMETRIC_REPRESENTATION_CONTEXT() REPRESENTATION_CONTEXT('2D SPACE',''
  ) );
#1056 = PCURVE('',#1004,#1057);
#1057 = DEFINITIONAL_REPRESENTATION('',(#1058),#1062);
#1058 = LINE('',#1059,#1060);
#1059 = CARTESIAN_POINT('',(-60.61466075074,-183.7483191113));
#1060 = VECTOR('',#1061,1.);
#1061 = DIRECTION('',(1.,2.081668171172E-17));
#1062 = ( GEOMETRIC_REPRESENTATION_CONTEXT(2) 
PARAMETRIC_REPRESENTATION_CONTEXT() REPRESENTATION_CONTEXT('2D SPACE',''
  ) );
#1063 = ORIENTED_EDGE('',*,*,#969,.F.);
#1064 = ADVANCED_FACE('',(#1065),#642,.T.);
#1065 = FACE_BOUND('',#1066,.T.);
#1066 = EDGE_LOOP('',(#1067,#1068,#1090,#1110));
#1067 = ORIENTED_EDGE('',*,*,#628,.T.);
#1068 = ORIENTED_EDGE('',*,*,#1069,.T.);
#1069 = EDGE_CURVE('',#601,#1070,#1072,.T.);
#1070 = VERTEX_POINT('',#1071);
#1071 = CARTESIAN_POINT('',(1.01E+03,-47.,-36.));
#1072 = SURFACE_CURVE('',#1073,(#1076,#1083),.PCURVE_S1.);
#1073 = B_SPLINE_CURVE_WITH_KNOTS('',1,(#1074,#1075),.UNSPECIFIED.,.F.,
  .F.,(2,2),(0.,1.),.PIECEWISE_BEZIER_KNOTS.);
#1074 = CARTESIAN_POINT('',(760.,-67.85834688199,-86.));
#1075 = CARTESIAN_POINT('',(1.01E+03,-47.,-36.));
#1076 = PCURVE('',#642,#1077);
#1077 = DEFINITIONAL_REPRESENTATION('',(#1078),#1082);
#1078 = LINE('',#1079,#1080);
#1079 = CARTESIAN_POINT('',(-67.85834688199,0.));
#1080 = VECTOR('',#1081,1.);
#1081 = DIRECTION('',(0.,1.));
#1082 = ( GEOMETRIC_REPRESENTATION_CONTEXT(2) 
PARAMETRIC_REPRESENTATION_CONTEXT() REPRESENTATION_CONTEXT('2D SPACE',''
  ) );
#1083 = PCURVE('',#616,#1084);
#1084 = DEFINITIONAL_REPRESENTATION('',(#1085),#1089);
#1085 = LINE('',#1086,#1087);
#1086 = CARTESIAN_POINT('',(-67.85834688199,0.));
#1087 = VECTOR('',#1088,1.);
#1088 = DIRECTION('',(0.,1.));
#1089 = ( GEOMETRIC_REPRESENTATION_CONTEXT(2) 
PARAMETRIC_REPRESENTATION_CONTEXT() REPRESENTATION_CONTEXT('2D SPACE',''
  ) );
#1090 = ORIENTED_EDGE('',*,*,#1091,.T.);
#1091 = EDGE_CURVE('',#1070,#1022,#1092,.T.);
#1092 = SURFACE_CURVE('',#1093,(#1097,#1103),.PCURVE_S1.);
#1093 = LINE('',#1094,#1095);
#1094 = CARTESIAN_POINT('',(1.01E+03,-47.,-36.));
#1095 = VECTOR('',#1096,1.);
#1096 = DIRECTION('',(0.,-0.246679280635,0.969097173923));
#1097 = PCURVE('',#642,#1098);
#1098 = DEFINITIONAL_REPRESENTATION('',(#1099),#1102);
#1099 = B_SPLINE_CURVE_WITH_KNOTS('',1,(#1100,#1101),.UNSPECIFIED.,.F.,
  .F.,(2,2),(0.,5.112059974431),.PIECEWISE_BEZIER_KNOTS.);
#1100 = CARTESIAN_POINT('',(-67.85834688199,1.));
#1101 = CARTESIAN_POINT('',(-76.,1.));
#1102 = ( GEOMETRIC_REPRESENTATION_CONTEXT(2) 
PARAMETRIC_REPRESENTATION_CONTEXT() REPRESENTATION_CONTEXT('2D SPACE',''
  ) );
#1103 = PCURVE('',#1004,#1104);
#1104 = DEFINITIONAL_REPRESENTATION('',(#1105),#1109);
#1105 = LINE('',#1106,#1107);
#1106 = CARTESIAN_POINT('',(-60.61466075074,-183.7483191113));
#1107 = VECTOR('',#1108,1.);
#1108 = DIRECTION('',(1.,2.081668171172E-17));
#1109 = ( GEOMETRIC_REPRESENTATION_CONTEXT(2) 
PARAMETRIC_REPRESENTATION_CONTEXT() REPRESENTATION_CONTEXT('2D SPACE',''
  ) );
#1110 = ORIENTED_EDGE('',*,*,#1021,.F.);
#1111 = ADVANCED_FACE('',(#1112),#616,.T.);
#1112 = FACE_BOUND('',#1113,.T.);
#1113 = EDGE_LOOP('',(#1114,#1115,#1137,#1162));
#1114 = ORIENTED_EDGE('',*,*,#600,.T.);
#1115 = ORIENTED_EDGE('',*,*,#1116,.T.);
#1116 = EDGE_CURVE('',#574,#1117,#1119,.T.);
#1117 = VERTEX_POINT('',#1118);
#1118 = CARTESIAN_POINT('',(1.01E+03,0.,-50.));
#1119 = SURFACE_CURVE('',#1120,(#1123,#1130),.PCURVE_S1.);
#1120 = B_SPLINE_CURVE_WITH_KNOTS('',1,(#1121,#1122),.UNSPECIFIED.,.F.,
  .F.,(2,2),(0.,1.),.PIECEWISE_BEZIER_KNOTS.);
#1121 = CARTESIAN_POINT('',(760.,-2.6302515721E-09,-86.));
#1122 = CARTESIAN_POINT('',(1.01E+03,0.,-50.));
#1123 = PCURVE('',#616,#1124);
#1124 = DEFINITIONAL_REPRESENTATION('',(#1125),#1129);
#1125 = LINE('',#1126,#1127);
#1126 = CARTESIAN_POINT('',(-2.632432938299E-09,0.));
#1127 = VECTOR('',#1128,1.);
#1128 = DIRECTION('',(0.,1.));
#1129 = ( GEOMETRIC_REPRESENTATION_CONTEXT(2) 
PARAMETRIC_REPRESENTATION_CONTEXT() REPRESENTATION_CONTEXT('2D SPACE',''
  ) );
#1130 = PCURVE('',#589,#1131);
#1131 = DEFINITIONAL_REPRESENTATION('',(#1132),#1136);
#1132 = LINE('',#1133,#1134);
#1133 = CARTESIAN_POINT('',(-2.632432938299E-09,0.));
#1134 = VECTOR('',#1135,1.);
#1135 = DIRECTION('',(0.,1.));
#1136 = ( GEOMETRIC_REPRESENTATION_CONTEXT(2) 
PARAMETRIC_REPRESENTATION_CONTEXT() REPRESENTATION_CONTEXT('2D SPACE',''
  ) );
#1137 = ORIENTED_EDGE('',*,*,#1138,.T.);
#1138 = EDGE_CURVE('',#1117,#1070,#1139,.T.);
#1139 = SURFACE_CURVE('',#1140,(#1144,#1150),.PCURVE_S1.);
#1140 = LINE('',#1141,#1142);
#1141 = CARTESIAN_POINT('',(1.01E+03,0.,-50.));
#1142 = VECTOR('',#1143,1.);
#1143 = DIRECTION('',(0.,-0.958385683586,0.2854765866));
#1144 = PCURVE('',#616,#1145);
#1145 = DEFINITIONAL_REPRESENTATION('',(#1146),#1149);
#1146 = B_SPLINE_CURVE_WITH_KNOTS('',1,(#1147,#1148),.UNSPECIFIED.,.F.,
  .F.,(2,2),(0.,49.040799340957),.PIECEWISE_BEZIER_KNOTS.);
#1147 = CARTESIAN_POINT('',(-2.632432938299E-09,1.));
#1148 = CARTESIAN_POINT('',(-67.85834688199,1.));
#1149 = ( GEOMETRIC_REPRESENTATION_CONTEXT(2) 
PARAMETRIC_REPRESENTATION_CONTEXT() REPRESENTATION_CONTEXT('2D SPACE',''
  ) );
#1150 = PCURVE('',#1151,#1156);
#1151 = PLANE('',#1152);
#1152 = AXIS2_PLACEMENT_3D('',#1153,#1154,#1155);
#1153 = CARTESIAN_POINT('',(1.205183059005E+03,-15.76602357315,
    -2.875088163603));
#1154 = DIRECTION('',(-0.203953643411,0.279476024896,0.938240940722));
#1155 = DIRECTION('',(-2.775557561563E-17,0.958385683586,-0.2854765866)
  );
#1156 = DEFINITIONAL_REPRESENTATION('',(#1157),#1161);
#1157 = LINE('',#1158,#1159);
#1158 = CARTESIAN_POINT('',(28.562990254479,199.37378695577));
#1159 = VECTOR('',#1160,1.);
#1160 = DIRECTION('',(-1.,8.326672684689E-17));
#1161 = ( GEOMETRIC_REPRESENTATION_CONTEXT(2) 
PARAMETRIC_REPRESENTATION_CONTEXT() REPRESENTATION_CONTEXT('2D SPACE',''
  ) );
#1162 = ORIENTED_EDGE('',*,*,#1069,.F.);
#1163 = ADVANCED_FACE('',(#1164),#589,.T.);
#1164 = FACE_BOUND('',#1165,.T.);
#1165 = EDGE_LOOP('',(#1166,#1167,#1189,#1214));
#1166 = ORIENTED_EDGE('',*,*,#573,.T.);
#1167 = ORIENTED_EDGE('',*,*,#1168,.T.);
#1168 = EDGE_CURVE('',#554,#1169,#1171,.T.);
#1169 = VERTEX_POINT('',#1170);
#1170 = CARTESIAN_POINT('',(1.01E+03,47.,-36.));
#1171 = SURFACE_CURVE('',#1172,(#1175,#1182),.PCURVE_S1.);
#1172 = B_SPLINE_CURVE_WITH_KNOTS('',1,(#1173,#1174),.UNSPECIFIED.,.F.,
  .F.,(2,2),(0.,1.),.PIECEWISE_BEZIER_KNOTS.);
#1173 = CARTESIAN_POINT('',(760.,75.999999981879,-86.));
#1174 = CARTESIAN_POINT('',(1.01E+03,47.,-36.));
#1175 = PCURVE('',#589,#1176);
#1176 = DEFINITIONAL_REPRESENTATION('',(#1177),#1181);
#1177 = LINE('',#1178,#1179);
#1178 = CARTESIAN_POINT('',(75.999999981876,0.));
#1179 = VECTOR('',#1180,1.);
#1180 = DIRECTION('',(0.,1.));
#1181 = ( GEOMETRIC_REPRESENTATION_CONTEXT(2) 
PARAMETRIC_REPRESENTATION_CONTEXT() REPRESENTATION_CONTEXT('2D SPACE',''
  ) );
#1182 = PCURVE('',#693,#1183);
#1183 = DEFINITIONAL_REPRESENTATION('',(#1184),#1188);
#1184 = LINE('',#1185,#1186);
#1185 = CARTESIAN_POINT('',(-113.5077089893,0.));
#1186 = VECTOR('',#1187,1.);
#1187 = DIRECTION('',(0.,1.));
#1188 = ( GEOMETRIC_REPRESENTATION_CONTEXT(2) 
PARAMETRIC_REPRESENTATION_CONTEXT() REPRESENTATION_CONTEXT('2D SPACE',''
  ) );
#1189 = ORIENTED_EDGE('',*,*,#1190,.T.);
#1190 = EDGE_CURVE('',#1169,#1117,#1191,.T.);
#1191 = SURFACE_CURVE('',#1192,(#1196,#1202),.PCURVE_S1.);
#1192 = LINE('',#1193,#1194);
#1193 = CARTESIAN_POINT('',(1.01E+03,47.,-36.));
#1194 = VECTOR('',#1195,1.);
#1195 = DIRECTION('',(0.,-0.958385683586,-0.2854765866));
#1196 = PCURVE('',#589,#1197);
#1197 = DEFINITIONAL_REPRESENTATION('',(#1198),#1201);
#1198 = B_SPLINE_CURVE_WITH_KNOTS('',1,(#1199,#1200),.UNSPECIFIED.,.F.,
  .F.,(2,2),(0.,49.040799340957),.PIECEWISE_BEZIER_KNOTS.);
#1199 = CARTESIAN_POINT('',(75.999999981876,1.));
#1200 = CARTESIAN_POINT('',(-2.632432938299E-09,1.));
#1201 = ( GEOMETRIC_REPRESENTATION_CONTEXT(2) 
PARAMETRIC_REPRESENTATION_CONTEXT() REPRESENTATION_CONTEXT('2D SPACE',''
  ) );
#1202 = PCURVE('',#1203,#1208);
#1203 = PLANE('',#1204);
#1204 = AXIS2_PLACEMENT_3D('',#1205,#1206,#1207);
#1205 = CARTESIAN_POINT('',(1.205183059005E+03,15.766023573151,
    -2.875088163603));
#1206 = DIRECTION('',(-0.203953643411,-0.279476024896,0.938240940722));
#1207 = DIRECTION('',(0.,0.958385683586,0.2854765866));
#1208 = DEFINITIONAL_REPRESENTATION('',(#1209),#1213);
#1209 = LINE('',#1210,#1211);
#1210 = CARTESIAN_POINT('',(20.477809086478,199.37378695577));
#1211 = VECTOR('',#1212,1.);
#1212 = DIRECTION('',(-1.,4.163336342344E-17));
#1213 = ( GEOMETRIC_REPRESENTATION_CONTEXT(2) 
PARAMETRIC_REPRESENTATION_CONTEXT() REPRESENTATION_CONTEXT('2D SPACE',''
  ) );
#1214 = ORIENTED_EDGE('',*,*,#1116,.F.);
#1215 = ADVANCED_FACE('',(#1216),#693,.T.);
#1216 = FACE_BOUND('',#1217,.T.);
#1217 = EDGE_LOOP('',(#1218,#1219,#1241,#1267));
#1218 = ORIENTED_EDGE('',*,*,#678,.F.);
#1219 = ORIENTED_EDGE('',*,*,#1220,.T.);
#1220 = EDGE_CURVE('',#659,#1221,#1223,.T.);
#1221 = VERTEX_POINT('',#1222);
#1222 = CARTESIAN_POINT('',(1.01E+03,50.746733121308,-21.28069130914));
#1223 = SURFACE_CURVE('',#1224,(#1227,#1234),.PCURVE_S1.);
#1224 = B_SPLINE_CURVE_WITH_KNOTS('',1,(#1225,#1226),.UNSPECIFIED.,.F.,
  .F.,(2,2),(0.,1.),.PIECEWISE_BEZIER_KNOTS.);
#1225 = CARTESIAN_POINT('',(760.,85.999999981879,-76.));
#1226 = CARTESIAN_POINT('',(1.01E+03,50.746733121308,-21.28069130914));
#1227 = PCURVE('',#693,#1228);
#1228 = DEFINITIONAL_REPRESENTATION('',(#1229),#1233);
#1229 = LINE('',#1230,#1231);
#1230 = CARTESIAN_POINT('',(-98.3190271038,0.));
#1231 = VECTOR('',#1232,1.);
#1232 = DIRECTION('',(0.,1.));
#1233 = ( GEOMETRIC_REPRESENTATION_CONTEXT(2) 
PARAMETRIC_REPRESENTATION_CONTEXT() REPRESENTATION_CONTEXT('2D SPACE',''
  ) );
#1234 = PCURVE('',#784,#1235);
#1235 = DEFINITIONAL_REPRESENTATION('',(#1236),#1240);
#1236 = LINE('',#1237,#1238);
#1237 = CARTESIAN_POINT('',(-76.,0.));
#1238 = VECTOR('',#1239,1.);
#1239 = DIRECTION('',(0.,1.));
#1240 = ( GEOMETRIC_REPRESENTATION_CONTEXT(2) 
PARAMETRIC_REPRESENTATION_CONTEXT() REPRESENTATION_CONTEXT('2D SPACE',''
  ) );
#1241 = ORIENTED_EDGE('',*,*,#1242,.T.);
#1242 = EDGE_CURVE('',#1221,#1169,#1243,.T.);
#1243 = SURFACE_CURVE('',#1244,(#1248,#1255),.PCURVE_S1.);
#1244 = LINE('',#1245,#1246);
#1245 = CARTESIAN_POINT('',(1.01E+03,75.,74.));
#1246 = VECTOR('',#1247,1.);
#1247 = DIRECTION('',(0.,-0.246679280635,-0.969097173923));
#1248 = PCURVE('',#693,#1249);
#1249 = DEFINITIONAL_REPRESENTATION('',(#1250),#1254);
#1250 = LINE('',#1251,#1252);
#1251 = CARTESIAN_POINT('',(0.,1.));
#1252 = VECTOR('',#1253,1.);
#1253 = DIRECTION('',(-1.,0.));
#1254 = ( GEOMETRIC_REPRESENTATION_CONTEXT(2) 
PARAMETRIC_REPRESENTATION_CONTEXT() REPRESENTATION_CONTEXT('2D SPACE',''
  ) );
#1255 = PCURVE('',#1256,#1261);
#1256 = PLANE('',#1257);
#1257 = AXIS2_PLACEMENT_3D('',#1258,#1259,#1260);
#1258 = CARTESIAN_POINT('',(1.191973360871E+03,37.261490603801,
    29.026450327948));
#1259 = DIRECTION('',(-0.138658356422,-0.959735961679,0.244296426609));
#1260 = DIRECTION('',(1.387778780781E-17,-0.246679280635,-0.969097173923
    ));
#1261 = DEFINITIONAL_REPRESENTATION('',(#1262),#1266);
#1262 = LINE('',#1263,#1264);
#1263 = CARTESIAN_POINT('',(-52.89304823855,-183.7483191113));
#1264 = VECTOR('',#1265,1.);
#1265 = DIRECTION('',(1.,-6.938893903907E-18));
#1266 = ( GEOMETRIC_REPRESENTATION_CONTEXT(2) 
PARAMETRIC_REPRESENTATION_CONTEXT() REPRESENTATION_CONTEXT('2D SPACE',''
  ) );
#1267 = ORIENTED_EDGE('',*,*,#1168,.F.);
#1268 = ADVANCED_FACE('',(#1269),#758,.F.);
#1269 = FACE_BOUND('',#1270,.F.);
#1270 = EDGE_LOOP('',(#1271,#1272,#1291));
#1271 = ORIENTED_EDGE('',*,*,#743,.T.);
#1272 = ORIENTED_EDGE('',*,*,#1273,.T.);
#1273 = EDGE_CURVE('',#744,#848,#1274,.T.);
#1274 = SURFACE_CURVE('',#1275,(#1278,#1284),.PCURVE_S1.);
#1275 = B_SPLINE_CURVE_WITH_KNOTS('',1,(#1276,#1277),.UNSPECIFIED.,.F.,
  .F.,(2,2),(0.,1.),.PIECEWISE_BEZIER_KNOTS.);
#1276 = CARTESIAN_POINT('',(760.,86.,57.831836466751));
#1277 = CARTESIAN_POINT('',(1.01E+03,75.,74.));
#1278 = PCURVE('',#758,#1279);
#1279 = DEFINITIONAL_REPRESENTATION('',(#1280),#1283);
#1280 = B_SPLINE_CURVE_WITH_KNOTS('',1,(#1281,#1282),.UNSPECIFIED.,.F.,
  .F.,(2,2),(0.,1.),.PIECEWISE_BEZIER_KNOTS.);
#1281 = CARTESIAN_POINT('',(18.168163533249,0.));
#1282 = CARTESIAN_POINT('',(2.,250.24188298524));
#1283 = ( GEOMETRIC_REPRESENTATION_CONTEXT(2) 
PARAMETRIC_REPRESENTATION_CONTEXT() REPRESENTATION_CONTEXT('2D SPACE',''
  ) );
#1284 = PCURVE('',#784,#1285);
#1285 = DEFINITIONAL_REPRESENTATION('',(#1286),#1290);
#1286 = LINE('',#1287,#1288);
#1287 = CARTESIAN_POINT('',(57.831836470292,0.));
#1288 = VECTOR('',#1289,1.);
#1289 = DIRECTION('',(0.,1.));
#1290 = ( GEOMETRIC_REPRESENTATION_CONTEXT(2) 
PARAMETRIC_REPRESENTATION_CONTEXT() REPRESENTATION_CONTEXT('2D SPACE',''
  ) );
#1291 = ORIENTED_EDGE('',*,*,#1292,.F.);
#1292 = EDGE_CURVE('',#724,#848,#1293,.T.);
#1293 = SURFACE_CURVE('',#1294,(#1297,#1303),.PCURVE_S1.);
#1294 = B_SPLINE_CURVE_WITH_KNOTS('',1,(#1295,#1296),.UNSPECIFIED.,.F.,
  .F.,(2,2),(0.,1.),.PIECEWISE_BEZIER_KNOTS.);
#1295 = CARTESIAN_POINT('',(760.,86.,76.));
#1296 = CARTESIAN_POINT('',(1.01E+03,75.,74.));
#1297 = PCURVE('',#758,#1298);
#1298 = DEFINITIONAL_REPRESENTATION('',(#1299),#1302);
#1299 = B_SPLINE_CURVE_WITH_KNOTS('',1,(#1300,#1301),.UNSPECIFIED.,.F.,
  .F.,(2,2),(0.,1.),.PIECEWISE_BEZIER_KNOTS.);
#1300 = CARTESIAN_POINT('',(2.84217094304E-14,0.));
#1301 = CARTESIAN_POINT('',(2.,250.24188298524));
#1302 = ( GEOMETRIC_REPRESENTATION_CONTEXT(2) 
PARAMETRIC_REPRESENTATION_CONTEXT() REPRESENTATION_CONTEXT('2D SPACE',''
  ) );
#1303 = PCURVE('',#816,#1304);
#1304 = DEFINITIONAL_REPRESENTATION('',(#1305),#1309);
#1305 = LINE('',#1306,#1307);
#1306 = CARTESIAN_POINT('',(1.570796326795,0.));
#1307 = VECTOR('',#1308,1.);
#1308 = DIRECTION('',(0.,1.));
#1309 = ( GEOMETRIC_REPRESENTATION_CONTEXT(2) 
PARAMETRIC_REPRESENTATION_CONTEXT() REPRESENTATION_CONTEXT('2D SPACE',''
  ) );
#1310 = ADVANCED_FACE('',(#1311),#784,.T.);
#1311 = FACE_BOUND('',#1312,.T.);
#1312 = EDGE_LOOP('',(#1313,#1314,#1315,#1335));
#1313 = ORIENTED_EDGE('',*,*,#770,.F.);
#1314 = ORIENTED_EDGE('',*,*,#1273,.T.);
#1315 = ORIENTED_EDGE('',*,*,#1316,.T.);
#1316 = EDGE_CURVE('',#848,#1221,#1317,.T.);
#1317 = SURFACE_CURVE('',#1318,(#1322,#1328),.PCURVE_S1.);
#1318 = LINE('',#1319,#1320);
#1319 = CARTESIAN_POINT('',(1.01E+03,75.,74.));
#1320 = VECTOR('',#1321,1.);
#1321 = DIRECTION('',(0.,-0.246679280635,-0.969097173923));
#1322 = PCURVE('',#784,#1323);
#1323 = DEFINITIONAL_REPRESENTATION('',(#1324),#1327);
#1324 = B_SPLINE_CURVE_WITH_KNOTS('',1,(#1325,#1326),.UNSPECIFIED.,.F.,
  .F.,(2,2),(0.,98.319027103802),.PIECEWISE_BEZIER_KNOTS.);
#1325 = CARTESIAN_POINT('',(57.831836470292,1.));
#1326 = CARTESIAN_POINT('',(-76.,1.));
#1327 = ( GEOMETRIC_REPRESENTATION_CONTEXT(2) 
PARAMETRIC_REPRESENTATION_CONTEXT() REPRESENTATION_CONTEXT('2D SPACE',''
  ) );
#1328 = PCURVE('',#1256,#1329);
#1329 = DEFINITIONAL_REPRESENTATION('',(#1330),#1334);
#1330 = LINE('',#1331,#1332);
#1331 = CARTESIAN_POINT('',(-52.89304823855,-183.7483191113));
#1332 = VECTOR('',#1333,1.);
#1333 = DIRECTION('',(1.,-6.938893903907E-18));
#1334 = ( GEOMETRIC_REPRESENTATION_CONTEXT(2) 
PARAMETRIC_REPRESENTATION_CONTEXT() REPRESENTATION_CONTEXT('2D SPACE',''
  ) );
#1335 = ORIENTED_EDGE('',*,*,#1220,.F.);
#1336 = ADVANCED_FACE('',(#1337),#816,.F.);
#1337 = FACE_BOUND('',#1338,.F.);
#1338 = EDGE_LOOP('',(#1339,#1340,#1341));
#1339 = ORIENTED_EDGE('',*,*,#801,.T.);
#1340 = ORIENTED_EDGE('',*,*,#1292,.T.);
#1341 = ORIENTED_EDGE('',*,*,#847,.F.);
#1342 = ADVANCED_FACE('',(#1343),#885,.F.);
#1343 = FACE_BOUND('',#1344,.F.);
#1344 = EDGE_LOOP('',(#1345,#1367,#1395,#1415));
#1345 = ORIENTED_EDGE('',*,*,#1346,.T.);
#1346 = EDGE_CURVE('',#848,#1347,#1349,.T.);
#1347 = VERTEX_POINT('',#1348);
#1348 = CARTESIAN_POINT('',(1.396309822356E+03,11.548263350288,
    43.987983213104));
#1349 = SURFACE_CURVE('',#1350,(#1354,#1361),.PCURVE_S1.);
#1350 = LINE('',#1351,#1352);
#1351 = CARTESIAN_POINT('',(1.01E+03,75.,74.));
#1352 = VECTOR('',#1353,1.);
#1353 = DIRECTION('',(0.983890822609,-0.161604954768,-7.643747628407E-02
    ));
#1354 = PCURVE('',#885,#1355);
#1355 = DEFINITIONAL_REPRESENTATION('',(#1356),#1360);
#1356 = LINE('',#1357,#1358);
#1357 = CARTESIAN_POINT('',(179.13452098603,75.));
#1358 = VECTOR('',#1359,1.);
#1359 = DIRECTION('',(-0.986855530761,-0.161604954768));
#1360 = ( GEOMETRIC_REPRESENTATION_CONTEXT(2) 
PARAMETRIC_REPRESENTATION_CONTEXT() REPRESENTATION_CONTEXT('2D SPACE',''
  ) );
#1361 = PCURVE('',#1256,#1362);
#1362 = DEFINITIONAL_REPRESENTATION('',(#1363),#1366);
#1363 = B_SPLINE_CURVE_WITH_KNOTS('',1,(#1364,#1365),.UNSPECIFIED.,.F.,
  .F.,(2,2),(0.,419.77422922044),.PIECEWISE_BEZIER_KNOTS.);
#1364 = CARTESIAN_POINT('',(-52.89304823855,-183.7483191113));
#1365 = CARTESIAN_POINT('',(-5.063999326854,233.29218923022));
#1366 = ( GEOMETRIC_REPRESENTATION_CONTEXT(2) 
PARAMETRIC_REPRESENTATION_CONTEXT() REPRESENTATION_CONTEXT('2D SPACE',''
  ) );
#1367 = ORIENTED_EDGE('',*,*,#1368,.T.);
#1368 = EDGE_CURVE('',#1347,#1369,#1371,.T.);
#1369 = VERTEX_POINT('',#1370);
#1370 = CARTESIAN_POINT('',(1.396309822356E+03,-11.54826335028,
    43.987983213104));
#1371 = SURFACE_CURVE('',#1372,(#1376,#1383),.PCURVE_S1.);
#1372 = LINE('',#1373,#1374);
#1373 = CARTESIAN_POINT('',(1.396309822356E+03,7.16240467402,
    43.987983213104));
#1374 = VECTOR('',#1375,1.);
#1375 = DIRECTION('',(0.,-1.,0.));
#1376 = PCURVE('',#885,#1377);
#1377 = DEFINITIONAL_REPRESENTATION('',(#1378),#1382);
#1378 = LINE('',#1379,#1380);
#1379 = CARTESIAN_POINT('',(-208.3393491007,7.16240467402));
#1380 = VECTOR('',#1381,1.);
#1381 = DIRECTION('',(0.,-1.));
#1382 = ( GEOMETRIC_REPRESENTATION_CONTEXT(2) 
PARAMETRIC_REPRESENTATION_CONTEXT() REPRESENTATION_CONTEXT('2D SPACE',''
  ) );
#1383 = PCURVE('',#1384,#1389);
#1384 = CYLINDRICAL_SURFACE('',#1385,4.);
#1385 = AXIS2_PLACEMENT_3D('',#1386,#1387,#1388);
#1386 = CARTESIAN_POINT('',(1.396E+03,7.16240467402,40.));
#1387 = DIRECTION('',(0.,-1.,0.));
#1388 = DIRECTION('',(7.745558888959E-02,0.,0.996995803276));
#1389 = DEFINITIONAL_REPRESENTATION('',(#1390),#1394);
#1390 = LINE('',#1391,#1392);
#1391 = CARTESIAN_POINT('',(0.,0.));
#1392 = VECTOR('',#1393,1.);
#1393 = DIRECTION('',(0.,1.));
#1394 = ( GEOMETRIC_REPRESENTATION_CONTEXT(2) 
PARAMETRIC_REPRESENTATION_CONTEXT() REPRESENTATION_CONTEXT('2D SPACE',''
  ) );
#1395 = ORIENTED_EDGE('',*,*,#1396,.T.);
#1396 = EDGE_CURVE('',#1369,#870,#1397,.T.);
#1397 = SURFACE_CURVE('',#1398,(#1402,#1409),.PCURVE_S1.);
#1398 = LINE('',#1399,#1400);
#1399 = CARTESIAN_POINT('',(1.423012011698E+03,-7.16240467402,
    41.913517309298));
#1400 = VECTOR('',#1401,1.);
#1401 = DIRECTION('',(-0.983890822609,-0.161604954768,7.643747628407E-02
    ));
#1402 = PCURVE('',#885,#1403);
#1403 = DEFINITIONAL_REPRESENTATION('',(#1404),#1408);
#1404 = LINE('',#1405,#1406);
#1405 = CARTESIAN_POINT('',(-235.1219987912,-7.16240467402));
#1406 = VECTOR('',#1407,1.);
#1407 = DIRECTION('',(0.986855530761,-0.161604954768));
#1408 = ( GEOMETRIC_REPRESENTATION_CONTEXT(2) 
PARAMETRIC_REPRESENTATION_CONTEXT() REPRESENTATION_CONTEXT('2D SPACE',''
  ) );
#1409 = PCURVE('',#1004,#1410);
#1410 = DEFINITIONAL_REPRESENTATION('',(#1411),#1414);
#1411 = B_SPLINE_CURVE_WITH_KNOTS('',1,(#1412,#1413),.UNSPECIFIED.,.F.,
  .F.,(2,2),(0.,419.77422922044),.PIECEWISE_BEZIER_KNOTS.);
#1412 = CARTESIAN_POINT('',(5.063999326854,233.29218923022));
#1413 = CARTESIAN_POINT('',(52.893048238558,-183.7483191113));
#1414 = ( GEOMETRIC_REPRESENTATION_CONTEXT(2) 
PARAMETRIC_REPRESENTATION_CONTEXT() REPRESENTATION_CONTEXT('2D SPACE',''
  ) );
#1415 = ORIENTED_EDGE('',*,*,#869,.F.);
#1416 = ADVANCED_FACE('',(#1417),#1004,.F.);
#1417 = FACE_BOUND('',#1418,.F.);
#1418 = EDGE_LOOP('',(#1419,#1420,#1447,#1467,#1468,#1469));
#1419 = ORIENTED_EDGE('',*,*,#1396,.F.);
#1420 = ORIENTED_EDGE('',*,*,#1421,.T.);
#1421 = EDGE_CURVE('',#1369,#1422,#1424,.T.);
#1422 = VERTEX_POINT('',#1423);
#1423 = CARTESIAN_POINT('',(1.399030741822E+03,-9.475548354244,
    37.389520348794));
#1424 = SURFACE_CURVE('',#1425,(#1430,#1437),.PCURVE_S1.);
#1425 = ELLIPSE('',#1426,4.167812981605,4.);
#1426 = AXIS2_PLACEMENT_3D('',#1427,#1428,#1429);
#1427 = CARTESIAN_POINT('',(1.396E+03,-10.5779020979,40.));
#1428 = DIRECTION('',(-0.138658356422,0.959735961679,0.244296426609));
#1429 = DIRECTION('',(-0.473740342703,-0.280903691431,0.834663527318));
#1430 = PCURVE('',#1004,#1431);
#1431 = DEFINITIONAL_REPRESENTATION('',(#1432),#1436);
#1432 = ELLIPSE('',#1433,4.167812981605,4.);
#1433 = AXIS2_PLACEMENT_2D('',#1434,#1435);
#1434 = CARTESIAN_POINT('',(4.052147557695,206.01670384321));
#1435 = DIRECTION('',(0.878163186031,-0.478361180177));
#1436 = ( GEOMETRIC_REPRESENTATION_CONTEXT(2) 
PARAMETRIC_REPRESENTATION_CONTEXT() REPRESENTATION_CONTEXT('2D SPACE',''
  ) );
#1437 = PCURVE('',#1384,#1438);
#1438 = DEFINITIONAL_REPRESENTATION('',(#1439),#1446);
#1439 = B_SPLINE_CURVE_WITH_KNOTS('',5,(#1440,#1441,#1442,#1443,#1444,
    #1445),.UNSPECIFIED.,.F.,.F.,(6,6),(0.593775148561,2.798075323083),
  .PIECEWISE_BEZIER_KNOTS.);
#1440 = CARTESIAN_POINT('',(5.695444116327E-14,18.710668024307));
#1441 = CARTESIAN_POINT('',(-0.440860034904,18.421891546783));
#1442 = CARTESIAN_POINT('',(-0.881717121318,17.897371179528));
#1443 = CARTESIAN_POINT('',(-1.322585816717,17.252480106333));
#1444 = CARTESIAN_POINT('',(-1.763440139618,16.811789050286));
#1445 = CARTESIAN_POINT('',(-2.204300174522,16.637953028264));
#1446 = ( GEOMETRIC_REPRESENTATION_CONTEXT(2) 
PARAMETRIC_REPRESENTATION_CONTEXT() REPRESENTATION_CONTEXT('2D SPACE',''
  ) );
#1447 = ORIENTED_EDGE('',*,*,#1448,.F.);
#1448 = EDGE_CURVE('',#1070,#1422,#1449,.T.);
#1449 = SURFACE_CURVE('',#1450,(#1454,#1460),.PCURVE_S1.);
#1450 = LINE('',#1451,#1452);
#1451 = CARTESIAN_POINT('',(1.01E+03,-47.,-36.));
#1452 = VECTOR('',#1453,1.);
#1453 = DIRECTION('',(0.978282745984,9.436149808021E-02,0.18455020073));
#1454 = PCURVE('',#1004,#1455);
#1455 = DEFINITIONAL_REPRESENTATION('',(#1456),#1459);
#1456 = B_SPLINE_CURVE_WITH_KNOTS('',1,(#1457,#1458),.UNSPECIFIED.,.F.,
  .F.,(2,2),(0.,422.18061536196),.PIECEWISE_BEZIER_KNOTS.);
#1457 = CARTESIAN_POINT('',(-60.61466075074,-183.7483191113));
#1458 = CARTESIAN_POINT('',(5.063999326854,233.29218923022));
#1459 = ( GEOMETRIC_REPRESENTATION_CONTEXT(2) 
PARAMETRIC_REPRESENTATION_CONTEXT() REPRESENTATION_CONTEXT('2D SPACE',''
  ) );
#1460 = PCURVE('',#1151,#1461);
#1461 = DEFINITIONAL_REPRESENTATION('',(#1462),#1466);
#1462 = LINE('',#1463,#1464);
#1463 = CARTESIAN_POINT('',(-20.47780908647,199.37378695577));
#1464 = VECTOR('',#1465,1.);
#1465 = DIRECTION('',(3.77499474811E-02,-0.999287216703));
#1466 = ( GEOMETRIC_REPRESENTATION_CONTEXT(2) 
PARAMETRIC_REPRESENTATION_CONTEXT() REPRESENTATION_CONTEXT('2D SPACE',''
  ) );
#1467 = ORIENTED_EDGE('',*,*,#1091,.T.);
#1468 = ORIENTED_EDGE('',*,*,#1043,.T.);
#1469 = ORIENTED_EDGE('',*,*,#991,.T.);
#1470 = ADVANCED_FACE('',(#1471),#1151,.F.);
#1471 = FACE_BOUND('',#1472,.F.);
#1472 = EDGE_LOOP('',(#1473,#1474,#1501,#1526));
#1473 = ORIENTED_EDGE('',*,*,#1448,.T.);
#1474 = ORIENTED_EDGE('',*,*,#1475,.T.);
#1475 = EDGE_CURVE('',#1422,#1476,#1478,.T.);
#1476 = VERTEX_POINT('',#1477);
#1477 = CARTESIAN_POINT('',(1.396868920593E+03,-6.70903432978,
    36.095518343954));
#1478 = SURFACE_CURVE('',#1479,(#1484,#1491),.PCURVE_S1.);
#1479 = ELLIPSE('',#1480,14.312497830496,4.);
#1480 = AXIS2_PLACEMENT_3D('',#1481,#1482,#1483);
#1481 = CARTESIAN_POINT('',(1.396E+03,-20.45105053416,40.));
#1482 = DIRECTION('',(-0.203953643411,0.279476024896,0.938240940722));
#1483 = DIRECTION('',(-5.936571885803E-02,-0.960152670937,0.273098077467
    ));
#1484 = PCURVE('',#1151,#1485);
#1485 = DEFINITIONAL_REPRESENTATION('',(#1486),#1490);
#1486 = ELLIPSE('',#1487,14.312497830496,4.);
#1487 = AXIS2_PLACEMENT_2D('',#1488,#1489);
#1488 = CARTESIAN_POINT('',(-16.72989658577,-194.9139250891));
#1489 = DIRECTION('',(-0.998159680846,6.064034575761E-02));
#1490 = ( GEOMETRIC_REPRESENTATION_CONTEXT(2) 
PARAMETRIC_REPRESENTATION_CONTEXT() REPRESENTATION_CONTEXT('2D SPACE',''
  ) );
#1491 = PCURVE('',#1384,#1492);
#1492 = DEFINITIONAL_REPRESENTATION('',(#1493),#1500);
#1493 = B_SPLINE_CURVE_WITH_KNOTS('',5,(#1494,#1495,#1496,#1497,#1498,
    #1499),.UNSPECIFIED.,.F.,.F.,(6,6),(2.495882116925,3.136665392357),
  .PIECEWISE_BEZIER_KNOTS.);
#1494 = CARTESIAN_POINT('',(-2.204300174522,16.637953028245));
#1495 = CARTESIAN_POINT('',(-2.332456829608,15.578151373275));
#1496 = CARTESIAN_POINT('',(-2.460613568783,14.743652561581));
#1497 = CARTESIAN_POINT('',(-2.588770354707,14.170890239295));
#1498 = CARTESIAN_POINT('',(-2.716926794868,13.880116625694));
#1499 = CARTESIAN_POINT('',(-2.845083449954,13.8714390038));
#1500 = ( GEOMETRIC_REPRESENTATION_CONTEXT(2) 
PARAMETRIC_REPRESENTATION_CONTEXT() REPRESENTATION_CONTEXT('2D SPACE',''
  ) );
#1501 = ORIENTED_EDGE('',*,*,#1502,.F.);
#1502 = EDGE_CURVE('',#1117,#1476,#1503,.T.);
#1503 = SURFACE_CURVE('',#1504,(#1508,#1514),.PCURVE_S1.);
#1504 = LINE('',#1505,#1506);
#1505 = CARTESIAN_POINT('',(1.01E+03,0.,-50.));
#1506 = VECTOR('',#1507,1.);
#1507 = DIRECTION('',(0.975980590819,-1.69253381196E-02,0.217199031474)
  );
#1508 = PCURVE('',#1151,#1509);
#1509 = DEFINITIONAL_REPRESENTATION('',(#1510),#1513);
#1510 = B_SPLINE_CURVE_WITH_KNOTS('',1,(#1511,#1512),.UNSPECIFIED.,.F.,
  .F.,(2,2),(0.,423.17646025201),.PIECEWISE_BEZIER_KNOTS.);
#1511 = CARTESIAN_POINT('',(28.562990254479,199.37378695577));
#1512 = CARTESIAN_POINT('',(-4.540513029026,-222.505905115));
#1513 = ( GEOMETRIC_REPRESENTATION_CONTEXT(2) 
PARAMETRIC_REPRESENTATION_CONTEXT() REPRESENTATION_CONTEXT('2D SPACE',''
  ) );
#1514 = PCURVE('',#1515,#1520);
#1515 = PLANE('',#1516);
#1516 = AXIS2_PLACEMENT_3D('',#1517,#1518,#1519);
#1517 = CARTESIAN_POINT('',(1.219943017242E+03,-4.825287804009E-16,
    -3.278353649123));
#1518 = DIRECTION('',(-0.217230148345,-5.805391654898E-16,0.976120414012
    ));
#1519 = DIRECTION('',(0.976120414012,0.,0.217230148345));
#1520 = DEFINITIONAL_REPRESENTATION('',(#1521),#1525);
#1521 = LINE('',#1522,#1523);
#1522 = CARTESIAN_POINT('',(-215.0790150764,4.825287804009E-16));
#1523 = VECTOR('',#1524,1.);
#1524 = DIRECTION('',(0.999856756205,-1.69253381196E-02));
#1525 = ( GEOMETRIC_REPRESENTATION_CONTEXT(2) 
PARAMETRIC_REPRESENTATION_CONTEXT() REPRESENTATION_CONTEXT('2D SPACE',''
  ) );
#1526 = ORIENTED_EDGE('',*,*,#1138,.T.);
#1527 = ADVANCED_FACE('',(#1528),#1203,.F.);
#1528 = FACE_BOUND('',#1529,.F.);
#1529 = EDGE_LOOP('',(#1530,#1552,#1583,#1603));
#1530 = ORIENTED_EDGE('',*,*,#1531,.T.);
#1531 = EDGE_CURVE('',#1117,#1532,#1534,.T.);
#1532 = VERTEX_POINT('',#1533);
#1533 = CARTESIAN_POINT('',(1.396868920593E+03,6.70903432978,
    36.095518343954));
#1534 = SURFACE_CURVE('',#1535,(#1539,#1546),.PCURVE_S1.);
#1535 = LINE('',#1536,#1537);
#1536 = CARTESIAN_POINT('',(1.01E+03,0.,-50.));
#1537 = VECTOR('',#1538,1.);
#1538 = DIRECTION('',(0.975980590819,1.69253381196E-02,0.217199031474));
#1539 = PCURVE('',#1203,#1540);
#1540 = DEFINITIONAL_REPRESENTATION('',(#1541),#1545);
#1541 = LINE('',#1542,#1543);
#1542 = CARTESIAN_POINT('',(-28.56299025447,199.37378695577));
#1543 = VECTOR('',#1544,1.);
#1544 = DIRECTION('',(7.822623986171E-02,-0.996935632525));
#1545 = ( GEOMETRIC_REPRESENTATION_CONTEXT(2) 
PARAMETRIC_REPRESENTATION_CONTEXT() REPRESENTATION_CONTEXT('2D SPACE',''
  ) );
#1546 = PCURVE('',#1515,#1547);
#1547 = DEFINITIONAL_REPRESENTATION('',(#1548),#1551);
#1548 = B_SPLINE_CURVE_WITH_KNOTS('',1,(#1549,#1550),.UNSPECIFIED.,.F.,
  .F.,(2,2),(0.,423.17646025201),.PIECEWISE_BEZIER_KNOTS.);
#1549 = CARTESIAN_POINT('',(-215.0790150764,1.7763568394E-15));
#1550 = CARTESIAN_POINT('',(208.03682777363,7.16240467402));
#1551 = ( GEOMETRIC_REPRESENTATION_CONTEXT(2) 
PARAMETRIC_REPRESENTATION_CONTEXT() REPRESENTATION_CONTEXT('2D SPACE',''
  ) );
#1552 = ORIENTED_EDGE('',*,*,#1553,.F.);
#1553 = EDGE_CURVE('',#1554,#1532,#1556,.T.);
#1554 = VERTEX_POINT('',#1555);
#1555 = CARTESIAN_POINT('',(1.399030741822E+03,9.475548354244,
    37.389520348794));
#1556 = SURFACE_CURVE('',#1557,(#1562,#1573),.PCURVE_S1.);
#1557 = ELLIPSE('',#1558,14.312497830496,4.);
#1558 = AXIS2_PLACEMENT_3D('',#1559,#1560,#1561);
#1559 = CARTESIAN_POINT('',(1.396E+03,20.45105053416,40.));
#1560 = DIRECTION('',(0.203953643411,0.279476024896,-0.938240940722));
#1561 = DIRECTION('',(5.936571885803E-02,-0.960152670937,-0.273098077467
    ));
#1562 = PCURVE('',#1203,#1563);
#1563 = DEFINITIONAL_REPRESENTATION('',(#1564),#1572);
#1564 = ( BOUNDED_CURVE() B_SPLINE_CURVE(2,(#1565,#1566,#1567,#1568,
#1569,#1570,#1571),.UNSPECIFIED.,.T.,.F.) B_SPLINE_CURVE_WITH_KNOTS((1,2
    ,2,2,2,1),(-2.094395102393,0.,2.094395102393,4.188790204786,
6.28318530718,8.377580409573),.UNSPECIFIED.) CURVE() 
GEOMETRIC_REPRESENTATION_ITEM() RATIONAL_B_SPLINE_CURVE((1.,0.5,1.,0.5,
1.,0.5,1.)) REPRESENTATION_ITEM('') );
#1565 = CARTESIAN_POINT('',(2.443738319177,-195.7818399062));
#1566 = CARTESIAN_POINT('',(2.023609679815,-188.866386781));
#1567 = CARTESIAN_POINT('',(23.66291139939,-191.022241118));
#1568 = CARTESIAN_POINT('',(45.302213118965,-193.1780954549));
#1569 = CARTESIAN_POINT('',(24.083040038753,-197.9376942431));
#1570 = CARTESIAN_POINT('',(2.86386695854,-202.6972930314));
#1571 = CARTESIAN_POINT('',(2.443738319177,-195.7818399062));
#1572 = ( GEOMETRIC_REPRESENTATION_CONTEXT(2) 
PARAMETRIC_REPRESENTATION_CONTEXT() REPRESENTATION_CONTEXT('2D SPACE',''
  ) );
#1573 = PCURVE('',#1384,#1574);
#1574 = DEFINITIONAL_REPRESENTATION('',(#1575),#1582);
#1575 = B_SPLINE_CURVE_WITH_KNOTS('',5,(#1576,#1577,#1578,#1579,#1580,
    #1581),.UNSPECIFIED.,.F.,.F.,(6,6),(5.637474770515,6.278258045947),
  .PIECEWISE_BEZIER_KNOTS.);
#1576 = CARTESIAN_POINT('',(-2.204300174522,-2.313143680205));
#1577 = CARTESIAN_POINT('',(-2.332456829608,-1.253342025235));
#1578 = CARTESIAN_POINT('',(-2.460613568783,-0.418843213541));
#1579 = CARTESIAN_POINT('',(-2.588770354707,0.153919108745));
#1580 = CARTESIAN_POINT('',(-2.716926794868,0.444692722346));
#1581 = CARTESIAN_POINT('',(-2.845083449954,0.45337034424));
#1582 = ( GEOMETRIC_REPRESENTATION_CONTEXT(2) 
PARAMETRIC_REPRESENTATION_CONTEXT() REPRESENTATION_CONTEXT('2D SPACE',''
  ) );
#1583 = ORIENTED_EDGE('',*,*,#1584,.F.);
#1584 = EDGE_CURVE('',#1169,#1554,#1585,.T.);
#1585 = SURFACE_CURVE('',#1586,(#1590,#1596),.PCURVE_S1.);
#1586 = LINE('',#1587,#1588);
#1587 = CARTESIAN_POINT('',(1.01E+03,47.,-36.));
#1588 = VECTOR('',#1589,1.);
#1589 = DIRECTION('',(0.978282745984,-9.436149808021E-02,0.18455020073)
  );
#1590 = PCURVE('',#1203,#1591);
#1591 = DEFINITIONAL_REPRESENTATION('',(#1592),#1595);
#1592 = B_SPLINE_CURVE_WITH_KNOTS('',1,(#1593,#1594),.UNSPECIFIED.,.F.,
  .F.,(2,2),(0.,422.18061536196),.PIECEWISE_BEZIER_KNOTS.);
#1593 = CARTESIAN_POINT('',(20.477809086478,199.37378695577));
#1594 = CARTESIAN_POINT('',(4.540513029026,-222.505905115));
#1595 = ( GEOMETRIC_REPRESENTATION_CONTEXT(2) 
PARAMETRIC_REPRESENTATION_CONTEXT() REPRESENTATION_CONTEXT('2D SPACE',''
  ) );
#1596 = PCURVE('',#1256,#1597);
#1597 = DEFINITIONAL_REPRESENTATION('',(#1598),#1602);
#1598 = LINE('',#1599,#1600);
#1599 = CARTESIAN_POINT('',(60.614660750744,-183.7483191113));
#1600 = VECTOR('',#1601,1.);
#1601 = DIRECTION('',(-0.155570051508,0.987824862551));
#1602 = ( GEOMETRIC_REPRESENTATION_CONTEXT(2) 
PARAMETRIC_REPRESENTATION_CONTEXT() REPRESENTATION_CONTEXT('2D SPACE',''
  ) );
#1603 = ORIENTED_EDGE('',*,*,#1190,.T.);
#1604 = ADVANCED_FACE('',(#1605),#1256,.F.);
#1605 = FACE_BOUND('',#1606,.F.);
#1606 = EDGE_LOOP('',(#1607,#1608,#1637,#1638,#1639));
#1607 = ORIENTED_EDGE('',*,*,#1584,.T.);
#1608 = ORIENTED_EDGE('',*,*,#1609,.F.);
#1609 = EDGE_CURVE('',#1347,#1554,#1610,.T.);
#1610 = SURFACE_CURVE('',#1611,(#1616,#1627),.PCURVE_S1.);
#1611 = ELLIPSE('',#1612,4.167812981605,4.);
#1612 = AXIS2_PLACEMENT_3D('',#1613,#1614,#1615);
#1613 = CARTESIAN_POINT('',(1.396E+03,10.577902097902,40.));
#1614 = DIRECTION('',(0.138658356422,0.959735961679,-0.244296426609));
#1615 = DIRECTION('',(0.473740342703,-0.280903691431,-0.834663527318));
#1616 = PCURVE('',#1256,#1617);
#1617 = DEFINITIONAL_REPRESENTATION('',(#1618),#1626);
#1618 = ( BOUNDED_CURVE() B_SPLINE_CURVE(2,(#1619,#1620,#1621,#1622,
#1623,#1624,#1625),.UNSPECIFIED.,.T.,.F.) B_SPLINE_CURVE_WITH_KNOTS((1,2
    ,2,2,2,1),(-2.094395102393,0.,2.094395102393,4.188790204786,
6.28318530718,8.377580409573),.UNSPECIFIED.) CURVE() 
GEOMETRIC_REPRESENTATION_ITEM() RATIONAL_B_SPLINE_CURVE((1.,0.5,1.,0.5,
1.,0.5,1.)) REPRESENTATION_ITEM('') );
#1619 = CARTESIAN_POINT('',(-0.392127630988,208.01042377985));
#1620 = CARTESIAN_POINT('',(2.922055842752,201.92633075768));
#1621 = CARTESIAN_POINT('',(-4.225065784179,201.97779736381));
#1622 = CARTESIAN_POINT('',(-11.3721874111,202.02926396994));
#1623 = CARTESIAN_POINT('',(-7.539249257918,208.06189038598));
#1624 = CARTESIAN_POINT('',(-3.706311104728,214.09451680202));
#1625 = CARTESIAN_POINT('',(-0.392127630988,208.01042377985));
#1626 = ( GEOMETRIC_REPRESENTATION_CONTEXT(2) 
PARAMETRIC_REPRESENTATION_CONTEXT() REPRESENTATION_CONTEXT('2D SPACE',''
  ) );
#1627 = PCURVE('',#1384,#1628);
#1628 = DEFINITIONAL_REPRESENTATION('',(#1629),#1636);
#1629 = B_SPLINE_CURVE_WITH_KNOTS('',5,(#1630,#1631,#1632,#1633,#1634,
    #1635),.UNSPECIFIED.,.F.,.F.,(6,6),(3.735367802151,5.939667976673),
  .PIECEWISE_BEZIER_KNOTS.);
#1630 = CARTESIAN_POINT('',(5.684341886081E-14,-4.385858676268));
#1631 = CARTESIAN_POINT('',(-0.440860034904,-4.097082198743));
#1632 = CARTESIAN_POINT('',(-0.881717121318,-3.572561831488));
#1633 = CARTESIAN_POINT('',(-1.322585816718,-2.927670758294));
#1634 = CARTESIAN_POINT('',(-1.763440139618,-2.486979702246));
#1635 = CARTESIAN_POINT('',(-2.204300174522,-2.313143680224));
#1636 = ( GEOMETRIC_REPRESENTATION_CONTEXT(2) 
PARAMETRIC_REPRESENTATION_CONTEXT() REPRESENTATION_CONTEXT('2D SPACE',''
  ) );
#1637 = ORIENTED_EDGE('',*,*,#1346,.F.);
#1638 = ORIENTED_EDGE('',*,*,#1316,.T.);
#1639 = ORIENTED_EDGE('',*,*,#1242,.T.);
#1640 = ADVANCED_FACE('',(#1641),#1384,.T.);
#1641 = FACE_BOUND('',#1642,.F.);
#1642 = EDGE_LOOP('',(#1643,#1644,#1645,#1666,#1667,#1668));
#1643 = ORIENTED_EDGE('',*,*,#1609,.T.);
#1644 = ORIENTED_EDGE('',*,*,#1553,.T.);
#1645 = ORIENTED_EDGE('',*,*,#1646,.T.);
#1646 = EDGE_CURVE('',#1532,#1476,#1647,.T.);
#1647 = SURFACE_CURVE('',#1648,(#1652,#1659),.PCURVE_S1.);
#1648 = LINE('',#1649,#1650);
#1649 = CARTESIAN_POINT('',(1.396868920593E+03,7.16240467402,
    36.095518343954));
#1650 = VECTOR('',#1651,1.);
#1651 = DIRECTION('',(0.,-1.,0.));
#1652 = PCURVE('',#1384,#1653);
#1653 = DEFINITIONAL_REPRESENTATION('',(#1654),#1658);
#1654 = LINE('',#1655,#1656);
#1655 = CARTESIAN_POINT('',(-2.845083449954,0.));
#1656 = VECTOR('',#1657,1.);
#1657 = DIRECTION('',(0.,1.));
#1658 = ( GEOMETRIC_REPRESENTATION_CONTEXT(2) 
PARAMETRIC_REPRESENTATION_CONTEXT() REPRESENTATION_CONTEXT('2D SPACE',''
  ) );
#1659 = PCURVE('',#1515,#1660);
#1660 = DEFINITIONAL_REPRESENTATION('',(#1661),#1665);
#1661 = LINE('',#1662,#1663);
#1662 = CARTESIAN_POINT('',(181.25417808306,7.16240467402));
#1663 = VECTOR('',#1664,1.);
#1664 = DIRECTION('',(0.,-1.));
#1665 = ( GEOMETRIC_REPRESENTATION_CONTEXT(2) 
PARAMETRIC_REPRESENTATION_CONTEXT() REPRESENTATION_CONTEXT('2D SPACE',''
  ) );
#1666 = ORIENTED_EDGE('',*,*,#1475,.F.);
#1667 = ORIENTED_EDGE('',*,*,#1421,.F.);
#1668 = ORIENTED_EDGE('',*,*,#1368,.F.);
#1669 = ADVANCED_FACE('',(#1670),#1515,.F.);
#1670 = FACE_BOUND('',#1671,.F.);
#1671 = EDGE_LOOP('',(#1672,#1673,#1674));
#1672 = ORIENTED_EDGE('',*,*,#1502,.T.);
#1673 = ORIENTED_EDGE('',*,*,#1646,.F.);
#1674 = ORIENTED_EDGE('',*,*,#1531,.F.);
#1675 = ( GEOMETRIC_REPRESENTATION_CONTEXT(3) 
GLOBAL_UNCERTAINTY_ASSIGNED_CONTEXT((#1679)) 
GLOBAL_UNIT_ASSIGNED_CONTEXT((#1676,#1677,#1678)) REPRESENTATION_CONTEXT
('Context #1','3D Context with UNIT and UNCERTAINTY') );
#1676 = ( LENGTH_UNIT() NAMED_UNIT(*) SI_UNIT(.MILLI.,.METRE.) );
#1677 = ( NAMED_UNIT(*) PLANE_ANGLE_UNIT() SI_UNIT($,.RADIAN.) );
#1678 = ( NAMED_UNIT(*) SI_UNIT($,.STERADIAN.) SOLID_ANGLE_UNIT() );
#1679 = UNCERTAINTY_MEASURE_WITH_UNIT(LENGTH_MEASURE(5.E-06),#1676,
  'distance_accuracy_value','confusion accuracy');
#1680 = CONTEXT_DEPENDENT_SHAPE_REPRESENTATION(#1681,#1683);
#1681 = ( REPRESENTATION_RELATIONSHIP('','',#32,#10) 
REPRESENTATION_RELATIONSHIP_WITH_TRANSFORMATION(#1682) 
SHAPE_REPRESENTATION_RELATIONSHIP() );
#1682 = ITEM_DEFINED_TRANSFORMATION('','',#11,#15);
#1683 = PRODUCT_DEFINITION_SHAPE('Placement','Placement of an item',
  #1684);
#1684 = NEXT_ASSEMBLY_USAGE_OCCURRENCE('1','=>[0:1:1:2]','',#5,#27,$);
#1685 = PRODUCT_RELATED_PRODUCT_CATEGORY('part',$,(#29));
#1686 = MECHANICAL_DESIGN_GEOMETRIC_PRESENTATION_REPRESENTATION('',(
    #1687),#1675);
#1687 = STYLED_ITEM('color',(#1688),#33);
#1688 = PRESENTATION_STYLE_ASSIGNMENT((#1689));
#1689 = SURFACE_STYLE_USAGE(.BOTH.,#1690);
#1690 = SURFACE_SIDE_STYLE('',(#1691));
#1691 = SURFACE_STYLE_FILL_AREA(#1692);
#1692 = FILL_AREA_STYLE('',(#1693));
#1693 = FILL_AREA_STYLE_COLOUR('',#1694);
#1694 = COLOUR_RGB('',0.654901934349,0.705882339664,0.737254912529);
ENDSEC;
END-ISO-10303-21;
