ISO-10303-21;
HEADER;
FILE_DESCRIPTION(('Open CASCADE Model'),'2;1');
FILE_NAME('I_Transition_Nose_R6_Close','2000-01-01T00:00:00',('Author'),
  ('Open CASCADE'),'Open CASCADE STEP processor 7.9','cadgen','Unknown'
  );
FILE_SCHEMA(('AUTOMOTIVE_DESIGN { 1 0 10303 214 1 1 1 1 }'));
ENDSEC;
DATA;
#1 = APPLICATION_PROTOCOL_DEFINITION('international standard',
  'automotive_design',2000,#2);
#2 = APPLICATION_CONTEXT(
  'core data for automotive mechanical design processes');
#3 = SHAPE_DEFINITION_REPRESENTATION(#4,#10);
#4 = PRODUCT_DEFINITION_SHAPE('','',#5);
#5 = PRODUCT_DEFINITION('design','',#6,#9);
#6 = PRODUCT_DEFINITION_FORMATION('','',#7);
#7 = PRODUCT('=>[0:1:1:2]','=>[0:1:1:2]','',(#8));
#8 = PRODUCT_CONTEXT('',#2,'mechanical');
#9 = PRODUCT_DEFINITION_CONTEXT('part definition',#2,'design');
#10 = SHAPE_REPRESENTATION('',(#11,#15),#19);
#11 = AXIS2_PLACEMENT_3D('',#12,#13,#14);
#12 = CARTESIAN_POINT('',(0.,0.,0.));
#13 = DIRECTION('',(0.,0.,1.));
#14 = DIRECTION('',(1.,0.,0.));
#15 = AXIS2_PLACEMENT_3D('',#16,#17,#18);
#16 = CARTESIAN_POINT('',(0.,0.,0.));
#17 = DIRECTION('',(0.,0.,1.));
#18 = DIRECTION('',(1.,0.,0.));
#19 = ( GEOMETRIC_REPRESENTATION_CONTEXT(3) 
GLOBAL_UNCERTAINTY_ASSIGNED_CONTEXT((#23)) GLOBAL_UNIT_ASSIGNED_CONTEXT(
(#20,#21,#22)) REPRESENTATION_CONTEXT('Context #1',
  '3D Context with UNIT and UNCERTAINTY') );
#20 = ( LENGTH_UNIT() NAMED_UNIT(*) SI_UNIT(.MILLI.,.METRE.) );
#21 = ( NAMED_UNIT(*) PLANE_ANGLE_UNIT() SI_UNIT($,.RADIAN.) );
#22 = ( NAMED_UNIT(*) SI_UNIT($,.STERADIAN.) SOLID_ANGLE_UNIT() );
#23 = UNCERTAINTY_MEASURE_WITH_UNIT(LENGTH_MEASURE(1.E-05),#20,
  'distance_accuracy_value','confusion accuracy');
#24 = PRODUCT_RELATED_PRODUCT_CATEGORY('part',$,(#7));
#25 = SHAPE_DEFINITION_REPRESENTATION(#26,#32);
#26 = PRODUCT_DEFINITION_SHAPE('','',#27);
#27 = PRODUCT_DEFINITION('design','',#28,#31);
#28 = PRODUCT_DEFINITION_FORMATION('','',#29);
#29 = PRODUCT('I_Transition_Nose_R6_Close','I_Transition_Nose_R6_Close',
  '',(#30));
#30 = PRODUCT_CONTEXT('',#2,'mechanical');
#31 = PRODUCT_DEFINITION_CONTEXT('part definition',#2,'design');
#32 = ADVANCED_BREP_SHAPE_REPRESENTATION('',(#11,#33),#1727);
#33 = MANIFOLD_SOLID_BREP('',#34);
#34 = CLOSED_SHELL('',(#35,#263,#348,#425,#490,#595,#660,#738,#803,#834,
    #879,#949,#955,#1003,#1076,#1128,#1159,#1207,#1251,#1277,#1302,#1334
    ,#1448,#1550,#1607,#1663,#1690,#1721));
#35 = ADVANCED_FACE('',(#36),#51,.F.);
#36 = FACE_BOUND('',#37,.F.);
#37 = EDGE_LOOP('',(#38,#74,#100,#129,#155,#184,#210,#239));
#38 = ORIENTED_EDGE('',*,*,#39,.T.);
#39 = EDGE_CURVE('',#40,#42,#44,.T.);
#40 = VERTEX_POINT('',#41);
#41 = CARTESIAN_POINT('',(550.,85.99999999094,76.));
#42 = VERTEX_POINT('',#43);
#43 = CARTESIAN_POINT('',(550.,75.999999981879,86.));
#44 = SURFACE_CURVE('',#45,(#50,#62),.PCURVE_S1.);
#45 = CIRCLE('',#46,10.);
#46 = AXIS2_PLACEMENT_3D('',#47,#48,#49);
#47 = CARTESIAN_POINT('',(550.,75.999999981879,76.));
#48 = DIRECTION('',(1.,0.,1.110223024625E-16));
#49 = DIRECTION('',(-1.110223024625E-16,0.,1.));
#50 = PCURVE('',#51,#56);
#51 = PLANE('',#52);
#52 = AXIS2_PLACEMENT_3D('',#53,#54,#55);
#53 = CARTESIAN_POINT('',(550.,-200.,-200.));
#54 = DIRECTION('',(1.,0.,0.));
#55 = DIRECTION('',(0.,0.,1.));
#56 = DEFINITIONAL_REPRESENTATION('',(#57),#61);
#57 = CIRCLE('',#58,10.);
#58 = AXIS2_PLACEMENT_2D('',#59,#60);
#59 = CARTESIAN_POINT('',(276.,-275.9999999818));
#60 = DIRECTION('',(1.,0.));
#61 = ( GEOMETRIC_REPRESENTATION_CONTEXT(2) 
PARAMETRIC_REPRESENTATION_CONTEXT() REPRESENTATION_CONTEXT('2D SPACE',''
  ) );
#62 = PCURVE('',#63,#68);
#63 = CYLINDRICAL_SURFACE('',#64,10.);
#64 = AXIS2_PLACEMENT_3D('',#65,#66,#67);
#65 = CARTESIAN_POINT('',(-1.4E+03,75.999999981879,76.));
#66 = DIRECTION('',(1.,0.,1.110223024625E-16));
#67 = DIRECTION('',(-1.110223024625E-16,0.,1.));
#68 = DEFINITIONAL_REPRESENTATION('',(#69),#73);
#69 = LINE('',#70,#71);
#70 = CARTESIAN_POINT('',(0.,1.95E+03));
#71 = VECTOR('',#72,1.);
#72 = DIRECTION('',(1.,0.));
#73 = ( GEOMETRIC_REPRESENTATION_CONTEXT(2) 
PARAMETRIC_REPRESENTATION_CONTEXT() REPRESENTATION_CONTEXT('2D SPACE',''
  ) );
#74 = ORIENTED_EDGE('',*,*,#75,.T.);
#75 = EDGE_CURVE('',#42,#76,#78,.T.);
#76 = VERTEX_POINT('',#77);
#77 = CARTESIAN_POINT('',(550.,-76.,86.));
#78 = SURFACE_CURVE('',#79,(#83,#89),.PCURVE_S1.);
#79 = LINE('',#80,#81);
#80 = CARTESIAN_POINT('',(550.,-99.99999999999,86.));
#81 = VECTOR('',#82,1.);
#82 = DIRECTION('',(0.,-1.,0.));
#83 = PCURVE('',#51,#84);
#84 = DEFINITIONAL_REPRESENTATION('',(#85),#88);
#85 = B_SPLINE_CURVE_WITH_KNOTS('',1,(#86,#87),.UNSPECIFIED.,.F.,.F.,(2,
    2),(-175.9999999818,-23.99999999999),.PIECEWISE_BEZIER_KNOTS.);
#86 = CARTESIAN_POINT('',(286.,-275.9999999818));
#87 = CARTESIAN_POINT('',(286.,-123.9999999999));
#88 = ( GEOMETRIC_REPRESENTATION_CONTEXT(2) 
PARAMETRIC_REPRESENTATION_CONTEXT() REPRESENTATION_CONTEXT('2D SPACE',''
  ) );
#89 = PCURVE('',#90,#95);
#90 = PLANE('',#91);
#91 = AXIS2_PLACEMENT_3D('',#92,#93,#94);
#92 = CARTESIAN_POINT('',(760.,2.181366198784E-12,86.));
#93 = DIRECTION('',(0.,0.,1.));
#94 = DIRECTION('',(0.,-1.,0.));
#95 = DEFINITIONAL_REPRESENTATION('',(#96),#99);
#96 = B_SPLINE_CURVE_WITH_KNOTS('',1,(#97,#98),.UNSPECIFIED.,.F.,.F.,(2,
    2),(-175.9999999818,-23.99999999999),.PIECEWISE_BEZIER_KNOTS.);
#97 = CARTESIAN_POINT('',(-75.99999998187,-210.));
#98 = CARTESIAN_POINT('',(76.000000000004,-210.));
#99 = ( GEOMETRIC_REPRESENTATION_CONTEXT(2) 
PARAMETRIC_REPRESENTATION_CONTEXT() REPRESENTATION_CONTEXT('2D SPACE',''
  ) );
#100 = ORIENTED_EDGE('',*,*,#101,.T.);
#101 = EDGE_CURVE('',#76,#102,#104,.T.);
#102 = VERTEX_POINT('',#103);
#103 = CARTESIAN_POINT('',(550.,-86.,76.));
#104 = SURFACE_CURVE('',#105,(#110,#117),.PCURVE_S1.);
#105 = CIRCLE('',#106,10.);
#106 = AXIS2_PLACEMENT_3D('',#107,#108,#109);
#107 = CARTESIAN_POINT('',(550.,-76.,76.));
#108 = DIRECTION('',(1.,0.,1.110223024625E-16));
#109 = DIRECTION('',(-1.110223024625E-16,0.,1.));
#110 = PCURVE('',#51,#111);
#111 = DEFINITIONAL_REPRESENTATION('',(#112),#116);
#112 = CIRCLE('',#113,10.);
#113 = AXIS2_PLACEMENT_2D('',#114,#115);
#114 = CARTESIAN_POINT('',(276.,-123.9999999999));
#115 = DIRECTION('',(1.,0.));
#116 = ( GEOMETRIC_REPRESENTATION_CONTEXT(2) 
PARAMETRIC_REPRESENTATION_CONTEXT() REPRESENTATION_CONTEXT('2D SPACE',''
  ) );
#117 = PCURVE('',#118,#123);
#118 = CYLINDRICAL_SURFACE('',#119,10.);
#119 = AXIS2_PLACEMENT_3D('',#120,#121,#122);
#120 = CARTESIAN_POINT('',(-1.4E+03,-76.,76.));
#121 = DIRECTION('',(1.,0.,1.110223024625E-16));
#122 = DIRECTION('',(-1.110223024625E-16,0.,1.));
#123 = DEFINITIONAL_REPRESENTATION('',(#124),#128);
#124 = LINE('',#125,#126);
#125 = CARTESIAN_POINT('',(0.,1.95E+03));
#126 = VECTOR('',#127,1.);
#127 = DIRECTION('',(1.,0.));
#128 = ( GEOMETRIC_REPRESENTATION_CONTEXT(2) 
PARAMETRIC_REPRESENTATION_CONTEXT() REPRESENTATION_CONTEXT('2D SPACE',''
  ) );
#129 = ORIENTED_EDGE('',*,*,#130,.T.);
#130 = EDGE_CURVE('',#102,#131,#133,.T.);
#131 = VERTEX_POINT('',#132);
#132 = CARTESIAN_POINT('',(550.,-85.99999999999,-75.99999998187));
#133 = SURFACE_CURVE('',#134,(#138,#144),.PCURVE_S1.);
#134 = LINE('',#135,#136);
#135 = CARTESIAN_POINT('',(550.,-85.99999999999,-100.));
#136 = VECTOR('',#137,1.);
#137 = DIRECTION('',(0.,0.,-1.));
#138 = PCURVE('',#51,#139);
#139 = DEFINITIONAL_REPRESENTATION('',(#140),#143);
#140 = B_SPLINE_CURVE_WITH_KNOTS('',1,(#141,#142),.UNSPECIFIED.,.F.,.F.,
  (2,2),(-176.,-24.00000001812),.PIECEWISE_BEZIER_KNOTS.);
#141 = CARTESIAN_POINT('',(276.,-114.));
#142 = CARTESIAN_POINT('',(124.00000001812,-114.));
#143 = ( GEOMETRIC_REPRESENTATION_CONTEXT(2) 
PARAMETRIC_REPRESENTATION_CONTEXT() REPRESENTATION_CONTEXT('2D SPACE',''
  ) );
#144 = PCURVE('',#145,#150);
#145 = PLANE('',#146);
#146 = AXIS2_PLACEMENT_3D('',#147,#148,#149);
#147 = CARTESIAN_POINT('',(760.,-85.99999999999,0.));
#148 = DIRECTION('',(0.,-1.,0.));
#149 = DIRECTION('',(1.110223024625E-16,0.,-1.));
#150 = DEFINITIONAL_REPRESENTATION('',(#151),#154);
#151 = B_SPLINE_CURVE_WITH_KNOTS('',1,(#152,#153),.UNSPECIFIED.,.F.,.F.,
  (2,2),(-176.,-24.00000001812),.PIECEWISE_BEZIER_KNOTS.);
#152 = CARTESIAN_POINT('',(-76.,-210.));
#153 = CARTESIAN_POINT('',(75.999999981876,-210.));
#154 = ( GEOMETRIC_REPRESENTATION_CONTEXT(2) 
PARAMETRIC_REPRESENTATION_CONTEXT() REPRESENTATION_CONTEXT('2D SPACE',''
  ) );
#155 = ORIENTED_EDGE('',*,*,#156,.T.);
#156 = EDGE_CURVE('',#131,#157,#159,.T.);
#157 = VERTEX_POINT('',#158);
#158 = CARTESIAN_POINT('',(550.,-75.99999999999,-85.99999999093));
#159 = SURFACE_CURVE('',#160,(#165,#172),.PCURVE_S1.);
#160 = CIRCLE('',#161,10.);
#161 = AXIS2_PLACEMENT_3D('',#162,#163,#164);
#162 = CARTESIAN_POINT('',(550.,-75.99999999999,-75.99999998187));
#163 = DIRECTION('',(1.,0.,1.110223024625E-16));
#164 = DIRECTION('',(-1.110223024625E-16,0.,1.));
#165 = PCURVE('',#51,#166);
#166 = DEFINITIONAL_REPRESENTATION('',(#167),#171);
#167 = CIRCLE('',#168,10.);
#168 = AXIS2_PLACEMENT_2D('',#169,#170);
#169 = CARTESIAN_POINT('',(124.00000001812,-124.));
#170 = DIRECTION('',(1.,0.));
#171 = ( GEOMETRIC_REPRESENTATION_CONTEXT(2) 
PARAMETRIC_REPRESENTATION_CONTEXT() REPRESENTATION_CONTEXT('2D SPACE',''
  ) );
#172 = PCURVE('',#173,#178);
#173 = CYLINDRICAL_SURFACE('',#174,10.);
#174 = AXIS2_PLACEMENT_3D('',#175,#176,#177);
#175 = CARTESIAN_POINT('',(-1.4E+03,-75.99999999999,-75.99999998187));
#176 = DIRECTION('',(1.,0.,1.110223024625E-16));
#177 = DIRECTION('',(-1.110223024625E-16,0.,1.));
#178 = DEFINITIONAL_REPRESENTATION('',(#179),#183);
#179 = LINE('',#180,#181);
#180 = CARTESIAN_POINT('',(0.,1.95E+03));
#181 = VECTOR('',#182,1.);
#182 = DIRECTION('',(1.,0.));
#183 = ( GEOMETRIC_REPRESENTATION_CONTEXT(2) 
PARAMETRIC_REPRESENTATION_CONTEXT() REPRESENTATION_CONTEXT('2D SPACE',''
  ) );
#184 = ORIENTED_EDGE('',*,*,#185,.T.);
#185 = EDGE_CURVE('',#157,#186,#188,.T.);
#186 = VERTEX_POINT('',#187);
#187 = CARTESIAN_POINT('',(550.,75.999999981879,-86.));
#188 = SURFACE_CURVE('',#189,(#193,#199),.PCURVE_S1.);
#189 = LINE('',#190,#191);
#190 = CARTESIAN_POINT('',(550.,-99.99999999999,-86.));
#191 = VECTOR('',#192,1.);
#192 = DIRECTION('',(0.,1.,0.));
#193 = PCURVE('',#51,#194);
#194 = DEFINITIONAL_REPRESENTATION('',(#195),#198);
#195 = B_SPLINE_CURVE_WITH_KNOTS('',1,(#196,#197),.UNSPECIFIED.,.F.,.F.,
  (2,2),(24.000000000001,175.99999998187),.PIECEWISE_BEZIER_KNOTS.);
#196 = CARTESIAN_POINT('',(114.,-124.));
#197 = CARTESIAN_POINT('',(114.,-275.9999999818));
#198 = ( GEOMETRIC_REPRESENTATION_CONTEXT(2) 
PARAMETRIC_REPRESENTATION_CONTEXT() REPRESENTATION_CONTEXT('2D SPACE',''
  ) );
#199 = PCURVE('',#200,#205);
#200 = PLANE('',#201);
#201 = AXIS2_PLACEMENT_3D('',#202,#203,#204);
#202 = CARTESIAN_POINT('',(760.,2.181366198784E-12,-86.));
#203 = DIRECTION('',(0.,0.,-1.));
#204 = DIRECTION('',(0.,1.,0.));
#205 = DEFINITIONAL_REPRESENTATION('',(#206),#209);
#206 = B_SPLINE_CURVE_WITH_KNOTS('',1,(#207,#208),.UNSPECIFIED.,.F.,.F.,
  (2,2),(24.000000000001,175.99999998187),.PIECEWISE_BEZIER_KNOTS.);
#207 = CARTESIAN_POINT('',(-76.,-210.));
#208 = CARTESIAN_POINT('',(75.999999981876,-210.));
#209 = ( GEOMETRIC_REPRESENTATION_CONTEXT(2) 
PARAMETRIC_REPRESENTATION_CONTEXT() REPRESENTATION_CONTEXT('2D SPACE',''
  ) );
#210 = ORIENTED_EDGE('',*,*,#211,.T.);
#211 = EDGE_CURVE('',#186,#212,#214,.T.);
#212 = VERTEX_POINT('',#213);
#213 = CARTESIAN_POINT('',(550.,85.99999999094,-76.));
#214 = SURFACE_CURVE('',#215,(#220,#227),.PCURVE_S1.);
#215 = CIRCLE('',#216,10.);
#216 = AXIS2_PLACEMENT_3D('',#217,#218,#219);
#217 = CARTESIAN_POINT('',(550.,75.999999981879,-76.));
#218 = DIRECTION('',(1.,0.,1.110223024625E-16));
#219 = DIRECTION('',(-1.110223024625E-16,0.,1.));
#220 = PCURVE('',#51,#221);
#221 = DEFINITIONAL_REPRESENTATION('',(#222),#226);
#222 = CIRCLE('',#223,10.);
#223 = AXIS2_PLACEMENT_2D('',#224,#225);
#224 = CARTESIAN_POINT('',(124.,-275.9999999818));
#225 = DIRECTION('',(1.,0.));
#226 = ( GEOMETRIC_REPRESENTATION_CONTEXT(2) 
PARAMETRIC_REPRESENTATION_CONTEXT() REPRESENTATION_CONTEXT('2D SPACE',''
  ) );
#227 = PCURVE('',#228,#233);
#228 = CYLINDRICAL_SURFACE('',#229,10.);
#229 = AXIS2_PLACEMENT_3D('',#230,#231,#232);
#230 = CARTESIAN_POINT('',(-1.4E+03,75.999999981879,-76.));
#231 = DIRECTION('',(1.,0.,1.110223024625E-16));
#232 = DIRECTION('',(-1.110223024625E-16,0.,1.));
#233 = DEFINITIONAL_REPRESENTATION('',(#234),#238);
#234 = LINE('',#235,#236);
#235 = CARTESIAN_POINT('',(0.,1.95E+03));
#236 = VECTOR('',#237,1.);
#237 = DIRECTION('',(1.,0.));
#238 = ( GEOMETRIC_REPRESENTATION_CONTEXT(2) 
PARAMETRIC_REPRESENTATION_CONTEXT() REPRESENTATION_CONTEXT('2D SPACE',''
  ) );
#239 = ORIENTED_EDGE('',*,*,#240,.T.);
#240 = EDGE_CURVE('',#212,#40,#241,.T.);
#241 = SURFACE_CURVE('',#242,(#246,#252),.PCURVE_S1.);
#242 = LINE('',#243,#244);
#243 = CARTESIAN_POINT('',(550.,86.000000000002,-100.));
#244 = VECTOR('',#245,1.);
#245 = DIRECTION('',(0.,0.,1.));
#246 = PCURVE('',#51,#247);
#247 = DEFINITIONAL_REPRESENTATION('',(#248),#251);
#248 = B_SPLINE_CURVE_WITH_KNOTS('',1,(#249,#250),.UNSPECIFIED.,.F.,.F.,
  (2,2),(24.,176.),.PIECEWISE_BEZIER_KNOTS.);
#249 = CARTESIAN_POINT('',(124.,-286.));
#250 = CARTESIAN_POINT('',(276.,-286.));
#251 = ( GEOMETRIC_REPRESENTATION_CONTEXT(2) 
PARAMETRIC_REPRESENTATION_CONTEXT() REPRESENTATION_CONTEXT('2D SPACE',''
  ) );
#252 = PCURVE('',#253,#258);
#253 = PLANE('',#254);
#254 = AXIS2_PLACEMENT_3D('',#255,#256,#257);
#255 = CARTESIAN_POINT('',(760.,86.000000000002,0.));
#256 = DIRECTION('',(0.,1.,0.));
#257 = DIRECTION('',(-1.110223024625E-16,0.,1.));
#258 = DEFINITIONAL_REPRESENTATION('',(#259),#262);
#259 = B_SPLINE_CURVE_WITH_KNOTS('',1,(#260,#261),.UNSPECIFIED.,.F.,.F.,
  (2,2),(24.,176.),.PIECEWISE_BEZIER_KNOTS.);
#260 = CARTESIAN_POINT('',(-76.,-210.));
#261 = CARTESIAN_POINT('',(76.,-210.));
#262 = ( GEOMETRIC_REPRESENTATION_CONTEXT(2) 
PARAMETRIC_REPRESENTATION_CONTEXT() REPRESENTATION_CONTEXT('2D SPACE',''
  ) );
#263 = ADVANCED_FACE('',(#264),#63,.T.);
#264 = FACE_BOUND('',#265,.T.);
#265 = EDGE_LOOP('',(#266,#267,#287,#330));
#266 = ORIENTED_EDGE('',*,*,#39,.T.);
#267 = ORIENTED_EDGE('',*,*,#268,.T.);
#268 = EDGE_CURVE('',#42,#269,#271,.T.);
#269 = VERTEX_POINT('',#270);
#270 = CARTESIAN_POINT('',(760.,75.999999990939,86.));
#271 = SURFACE_CURVE('',#272,(#275,#281),.PCURVE_S1.);
#272 = B_SPLINE_CURVE_WITH_KNOTS('',1,(#273,#274),.UNSPECIFIED.,.F.,.F.,
  (2,2),(0.,1.),.PIECEWISE_BEZIER_KNOTS.);
#273 = CARTESIAN_POINT('',(-1.4E+03,75.999999981879,86.));
#274 = CARTESIAN_POINT('',(760.,75.999999981879,86.));
#275 = PCURVE('',#63,#276);
#276 = DEFINITIONAL_REPRESENTATION('',(#277),#280);
#277 = B_SPLINE_CURVE_WITH_KNOTS('',1,(#278,#279),.UNSPECIFIED.,.F.,.F.,
  (2,2),(0.,1.),.PIECEWISE_BEZIER_KNOTS.);
#278 = CARTESIAN_POINT('',(6.28318530718,0.));
#279 = CARTESIAN_POINT('',(6.28318530718,2.16E+03));
#280 = ( GEOMETRIC_REPRESENTATION_CONTEXT(2) 
PARAMETRIC_REPRESENTATION_CONTEXT() REPRESENTATION_CONTEXT('2D SPACE',''
  ) );
#281 = PCURVE('',#90,#282);
#282 = DEFINITIONAL_REPRESENTATION('',(#283),#286);
#283 = B_SPLINE_CURVE_WITH_KNOTS('',1,(#284,#285),.UNSPECIFIED.,.F.,.F.,
  (2,2),(0.,1.),.PIECEWISE_BEZIER_KNOTS.);
#284 = CARTESIAN_POINT('',(-75.99999998187,-2.16E+03));
#285 = CARTESIAN_POINT('',(-75.99999998187,0.));
#286 = ( GEOMETRIC_REPRESENTATION_CONTEXT(2) 
PARAMETRIC_REPRESENTATION_CONTEXT() REPRESENTATION_CONTEXT('2D SPACE',''
  ) );
#287 = ORIENTED_EDGE('',*,*,#288,.T.);
#288 = EDGE_CURVE('',#269,#289,#291,.T.);
#289 = VERTEX_POINT('',#290);
#290 = CARTESIAN_POINT('',(760.,85.99999999094,76.));
#291 = SURFACE_CURVE('',#292,(#297,#304),.PCURVE_S1.);
#292 = CIRCLE('',#293,10.);
#293 = AXIS2_PLACEMENT_3D('',#294,#295,#296);
#294 = CARTESIAN_POINT('',(760.,75.999999981879,76.));
#295 = DIRECTION('',(-1.,0.,-1.110223024625E-16));
#296 = DIRECTION('',(-1.110223024625E-16,0.,1.));
#297 = PCURVE('',#63,#298);
#298 = DEFINITIONAL_REPRESENTATION('',(#299),#303);
#299 = LINE('',#300,#301);
#300 = CARTESIAN_POINT('',(6.28318530718,2.16E+03));
#301 = VECTOR('',#302,1.);
#302 = DIRECTION('',(-1.,0.));
#303 = ( GEOMETRIC_REPRESENTATION_CONTEXT(2) 
PARAMETRIC_REPRESENTATION_CONTEXT() REPRESENTATION_CONTEXT('2D SPACE',''
  ) );
#304 = PCURVE('',#305,#324);
#305 = B_SPLINE_SURFACE_WITH_KNOTS('',8,1,(
    (#306,#307)
    ,(#308,#309)
    ,(#310,#311)
    ,(#312,#313)
    ,(#314,#315)
    ,(#316,#317)
    ,(#318,#319)
    ,(#320,#321)
    ,(#322,#323
    )),.UNSPECIFIED.,.F.,.F.,.F.,(9,9),(2,2),(0.,1.570796326795),(0.,1.)
  ,.PIECEWISE_BEZIER_KNOTS.);
#306 = CARTESIAN_POINT('',(760.,76.,86.));
#307 = CARTESIAN_POINT('',(1.01E+03,75.,74.));
#308 = CARTESIAN_POINT('',(760.,77.963495408493,86.));
#309 = CARTESIAN_POINT('',(1.01E+03,75.,74.));
#310 = CARTESIAN_POINT('',(759.99999999999,79.926991435043,
    85.559392110387));
#311 = CARTESIAN_POINT('',(1.01E+03,75.,74.));
#312 = CARTESIAN_POINT('',(760.00000000002,81.775132343349,
    84.678180658715));
#313 = CARTESIAN_POINT('',(1.01E+03,75.,74.));
#314 = CARTESIAN_POINT('',(759.99999999997,83.392587557801,
    83.392587557797));
#315 = CARTESIAN_POINT('',(1.01E+03,75.,74.));
#316 = CARTESIAN_POINT('',(760.00000000002,84.678180658713,
    81.775132343352));
#317 = CARTESIAN_POINT('',(1.01E+03,75.,74.));
#318 = CARTESIAN_POINT('',(759.99999999998,85.559392110389,
    79.926991435041));
#319 = CARTESIAN_POINT('',(1.01E+03,75.,74.));
#320 = CARTESIAN_POINT('',(760.,86.,77.963495408494));
#321 = CARTESIAN_POINT('',(1.01E+03,75.,74.));
#322 = CARTESIAN_POINT('',(760.,86.,76.));
#323 = CARTESIAN_POINT('',(1.01E+03,75.,74.));
#324 = DEFINITIONAL_REPRESENTATION('',(#325),#329);
#325 = LINE('',#326,#327);
#326 = CARTESIAN_POINT('',(0.,0.));
#327 = VECTOR('',#328,1.);
#328 = DIRECTION('',(1.,0.));
#329 = ( GEOMETRIC_REPRESENTATION_CONTEXT(2) 
PARAMETRIC_REPRESENTATION_CONTEXT() REPRESENTATION_CONTEXT('2D SPACE',''
  ) );
#330 = ORIENTED_EDGE('',*,*,#331,.F.);
#331 = EDGE_CURVE('',#40,#289,#332,.T.);
#332 = SURFACE_CURVE('',#333,(#336,#342),.PCURVE_S1.);
#333 = B_SPLINE_CURVE_WITH_KNOTS('',1,(#334,#335),.UNSPECIFIED.,.F.,.F.,
  (2,2),(0.,1.),.PIECEWISE_BEZIER_KNOTS.);
#334 = CARTESIAN_POINT('',(-1.4E+03,85.99999999094,76.));
#335 = CARTESIAN_POINT('',(760.,85.99999999094,76.));
#336 = PCURVE('',#63,#337);
#337 = DEFINITIONAL_REPRESENTATION('',(#338),#341);
#338 = B_SPLINE_CURVE_WITH_KNOTS('',1,(#339,#340),.UNSPECIFIED.,.F.,.F.,
  (2,2),(0.,1.),.PIECEWISE_BEZIER_KNOTS.);
#339 = CARTESIAN_POINT('',(4.712388980385,0.));
#340 = CARTESIAN_POINT('',(4.712388980385,2.16E+03));
#341 = ( GEOMETRIC_REPRESENTATION_CONTEXT(2) 
PARAMETRIC_REPRESENTATION_CONTEXT() REPRESENTATION_CONTEXT('2D SPACE',''
  ) );
#342 = PCURVE('',#253,#343);
#343 = DEFINITIONAL_REPRESENTATION('',(#344),#347);
#344 = B_SPLINE_CURVE_WITH_KNOTS('',1,(#345,#346),.UNSPECIFIED.,.F.,.F.,
  (2,2),(0.,1.),.PIECEWISE_BEZIER_KNOTS.);
#345 = CARTESIAN_POINT('',(76.,-2.16E+03));
#346 = CARTESIAN_POINT('',(76.,0.));
#347 = ( GEOMETRIC_REPRESENTATION_CONTEXT(2) 
PARAMETRIC_REPRESENTATION_CONTEXT() REPRESENTATION_CONTEXT('2D SPACE',''
  ) );
#348 = ADVANCED_FACE('',(#349),#253,.T.);
#349 = FACE_BOUND('',#350,.T.);
#350 = EDGE_LOOP('',(#351,#352,#353,#380,#407));
#351 = ORIENTED_EDGE('',*,*,#240,.T.);
#352 = ORIENTED_EDGE('',*,*,#331,.T.);
#353 = ORIENTED_EDGE('',*,*,#354,.T.);
#354 = EDGE_CURVE('',#289,#355,#357,.T.);
#355 = VERTEX_POINT('',#356);
#356 = CARTESIAN_POINT('',(760.,86.000000000001,57.831836468522));
#357 = SURFACE_CURVE('',#358,(#362,#368),.PCURVE_S1.);
#358 = LINE('',#359,#360);
#359 = CARTESIAN_POINT('',(760.,86.,76.));
#360 = VECTOR('',#361,1.);
#361 = DIRECTION('',(0.,0.,-1.));
#362 = PCURVE('',#253,#363);
#363 = DEFINITIONAL_REPRESENTATION('',(#364),#367);
#364 = B_SPLINE_CURVE_WITH_KNOTS('',1,(#365,#366),.UNSPECIFIED.,.F.,.F.,
  (2,2),(0.,18.168163533249),.PIECEWISE_BEZIER_KNOTS.);
#365 = CARTESIAN_POINT('',(76.,0.));
#366 = CARTESIAN_POINT('',(57.831836470292,0.));
#367 = ( GEOMETRIC_REPRESENTATION_CONTEXT(2) 
PARAMETRIC_REPRESENTATION_CONTEXT() REPRESENTATION_CONTEXT('2D SPACE',''
  ) );
#368 = PCURVE('',#369,#374);
#369 = PLANE('',#370);
#370 = AXIS2_PLACEMENT_3D('',#371,#372,#373);
#371 = CARTESIAN_POINT('',(760.,86.,76.));
#372 = DIRECTION('',(-4.395746974398E-02,-0.999033403272,0.));
#373 = DIRECTION('',(0.,0.,-1.));
#374 = DEFINITIONAL_REPRESENTATION('',(#375),#379);
#375 = LINE('',#376,#377);
#376 = CARTESIAN_POINT('',(0.,0.));
#377 = VECTOR('',#378,1.);
#378 = DIRECTION('',(1.,0.));
#379 = ( GEOMETRIC_REPRESENTATION_CONTEXT(2) 
PARAMETRIC_REPRESENTATION_CONTEXT() REPRESENTATION_CONTEXT('2D SPACE',''
  ) );
#380 = ORIENTED_EDGE('',*,*,#381,.T.);
#381 = EDGE_CURVE('',#355,#382,#384,.T.);
#382 = VERTEX_POINT('',#383);
#383 = CARTESIAN_POINT('',(760.,85.99999999094,-76.));
#384 = SURFACE_CURVE('',#385,(#389,#396),.PCURVE_S1.);
#385 = LINE('',#386,#387);
#386 = CARTESIAN_POINT('',(760.,86.000000000002,0.));
#387 = VECTOR('',#388,1.);
#388 = DIRECTION('',(1.110223024625E-16,0.,-1.));
#389 = PCURVE('',#253,#390);
#390 = DEFINITIONAL_REPRESENTATION('',(#391),#395);
#391 = LINE('',#392,#393);
#392 = CARTESIAN_POINT('',(0.,0.));
#393 = VECTOR('',#394,1.);
#394 = DIRECTION('',(-1.,0.));
#395 = ( GEOMETRIC_REPRESENTATION_CONTEXT(2) 
PARAMETRIC_REPRESENTATION_CONTEXT() REPRESENTATION_CONTEXT('2D SPACE',''
  ) );
#396 = PCURVE('',#397,#402);
#397 = B_SPLINE_SURFACE_WITH_KNOTS('',1,1,(
    (#398,#399)
    ,(#400,#401
    )),.UNSPECIFIED.,.F.,.F.,.F.,(2,2),(2,2),(-76.,57.831836470292),(0.,
    1.),.PIECEWISE_BEZIER_KNOTS.);
#398 = CARTESIAN_POINT('',(760.,86.000000000002,-76.));
#399 = CARTESIAN_POINT('',(1.01E+03,50.746733121308,-21.28069130914));
#400 = CARTESIAN_POINT('',(760.,86.000000000002,57.831836470292));
#401 = CARTESIAN_POINT('',(1.01E+03,75.,74.));
#402 = DEFINITIONAL_REPRESENTATION('',(#403),#406);
#403 = B_SPLINE_CURVE_WITH_KNOTS('',1,(#404,#405),.UNSPECIFIED.,.F.,.F.,
  (2,2),(-57.83183647029,76.),.PIECEWISE_BEZIER_KNOTS.);
#404 = CARTESIAN_POINT('',(57.831836470292,0.));
#405 = CARTESIAN_POINT('',(-76.,0.));
#406 = ( GEOMETRIC_REPRESENTATION_CONTEXT(2) 
PARAMETRIC_REPRESENTATION_CONTEXT() REPRESENTATION_CONTEXT('2D SPACE',''
  ) );
#407 = ORIENTED_EDGE('',*,*,#408,.F.);
#408 = EDGE_CURVE('',#212,#382,#409,.T.);
#409 = SURFACE_CURVE('',#410,(#413,#419),.PCURVE_S1.);
#410 = B_SPLINE_CURVE_WITH_KNOTS('',1,(#411,#412),.UNSPECIFIED.,.F.,.F.,
  (2,2),(0.,1.),.PIECEWISE_BEZIER_KNOTS.);
#411 = CARTESIAN_POINT('',(-1.4E+03,85.99999999094,-76.));
#412 = CARTESIAN_POINT('',(760.,85.99999999094,-76.));
#413 = PCURVE('',#253,#414);
#414 = DEFINITIONAL_REPRESENTATION('',(#415),#418);
#415 = B_SPLINE_CURVE_WITH_KNOTS('',1,(#416,#417),.UNSPECIFIED.,.F.,.F.,
  (2,2),(0.,1.),.PIECEWISE_BEZIER_KNOTS.);
#416 = CARTESIAN_POINT('',(-76.,-2.16E+03));
#417 = CARTESIAN_POINT('',(-76.,0.));
#418 = ( GEOMETRIC_REPRESENTATION_CONTEXT(2) 
PARAMETRIC_REPRESENTATION_CONTEXT() REPRESENTATION_CONTEXT('2D SPACE',''
  ) );
#419 = PCURVE('',#228,#420);
#420 = DEFINITIONAL_REPRESENTATION('',(#421),#424);
#421 = B_SPLINE_CURVE_WITH_KNOTS('',1,(#422,#423),.UNSPECIFIED.,.F.,.F.,
  (2,2),(0.,1.),.PIECEWISE_BEZIER_KNOTS.);
#422 = CARTESIAN_POINT('',(4.712388980385,0.));
#423 = CARTESIAN_POINT('',(4.712388980385,2.16E+03));
#424 = ( GEOMETRIC_REPRESENTATION_CONTEXT(2) 
PARAMETRIC_REPRESENTATION_CONTEXT() REPRESENTATION_CONTEXT('2D SPACE',''
  ) );
#425 = ADVANCED_FACE('',(#426),#228,.T.);
#426 = FACE_BOUND('',#427,.T.);
#427 = EDGE_LOOP('',(#428,#429,#430,#472));
#428 = ORIENTED_EDGE('',*,*,#211,.T.);
#429 = ORIENTED_EDGE('',*,*,#408,.T.);
#430 = ORIENTED_EDGE('',*,*,#431,.T.);
#431 = EDGE_CURVE('',#382,#432,#434,.T.);
#432 = VERTEX_POINT('',#433);
#433 = CARTESIAN_POINT('',(760.,75.999999981879,-86.));
#434 = SURFACE_CURVE('',#435,(#440,#447),.PCURVE_S1.);
#435 = CIRCLE('',#436,10.);
#436 = AXIS2_PLACEMENT_3D('',#437,#438,#439);
#437 = CARTESIAN_POINT('',(760.,75.999999981879,-76.));
#438 = DIRECTION('',(-1.,0.,-1.110223024625E-16));
#439 = DIRECTION('',(-1.110223024625E-16,0.,1.));
#440 = PCURVE('',#228,#441);
#441 = DEFINITIONAL_REPRESENTATION('',(#442),#446);
#442 = LINE('',#443,#444);
#443 = CARTESIAN_POINT('',(6.28318530718,2.16E+03));
#444 = VECTOR('',#445,1.);
#445 = DIRECTION('',(-1.,0.));
#446 = ( GEOMETRIC_REPRESENTATION_CONTEXT(2) 
PARAMETRIC_REPRESENTATION_CONTEXT() REPRESENTATION_CONTEXT('2D SPACE',''
  ) );
#447 = PCURVE('',#448,#467);
#448 = B_SPLINE_SURFACE_WITH_KNOTS('',8,1,(
    (#449,#450)
    ,(#451,#452)
    ,(#453,#454)
    ,(#455,#456)
    ,(#457,#458)
    ,(#459,#460)
    ,(#461,#462)
    ,(#463,#464)
    ,(#465,#466
    )),.UNSPECIFIED.,.F.,.F.,.F.,(9,9),(2,2),(-113.5077089893,
    -98.3190271038),(0.,1.),.PIECEWISE_BEZIER_KNOTS.);
#449 = CARTESIAN_POINT('',(760.,75.999999981879,-86.));
#450 = CARTESIAN_POINT('',(1.01E+03,47.,-36.));
#451 = CARTESIAN_POINT('',(759.99999999998,77.963495390371,
    -85.99999999999));
#452 = CARTESIAN_POINT('',(1.01E+03,47.468341640163,-34.16008641364));
#453 = CARTESIAN_POINT('',(760.00000000003,79.926991416924,
    -85.55939211039));
#454 = CARTESIAN_POINT('',(1.01E+03,47.936683280327,-32.32017282728));
#455 = CARTESIAN_POINT('',(759.99999999994,81.775132325223,
    -84.67818065871));
#456 = CARTESIAN_POINT('',(1.01E+03,48.40502492049,-30.48025924093));
#457 = CARTESIAN_POINT('',(760.00000000006,83.392587539684,
    -83.3925875578));
#458 = CARTESIAN_POINT('',(1.01E+03,48.873366560654,-28.64034565457));
#459 = CARTESIAN_POINT('',(759.99999999995,84.678180640589,
    -81.77513234335));
#460 = CARTESIAN_POINT('',(1.01E+03,49.341708200817,-26.80043206821));
#461 = CARTESIAN_POINT('',(760.00000000002,85.559392092269,
    -79.92699143504));
#462 = CARTESIAN_POINT('',(1.01E+03,49.810049840981,-24.96051848186));
#463 = CARTESIAN_POINT('',(759.99999999999,85.999999981878,
    -77.96349540849));
#464 = CARTESIAN_POINT('',(1.01E+03,50.278391481144,-23.1206048955));
#465 = CARTESIAN_POINT('',(760.,85.999999981879,-76.));
#466 = CARTESIAN_POINT('',(1.01E+03,50.746733121308,-21.28069130914));
#467 = DEFINITIONAL_REPRESENTATION('',(#468),#471);
#468 = B_SPLINE_CURVE_WITH_KNOTS('',1,(#469,#470),.UNSPECIFIED.,.F.,.F.,
  (2,2),(1.570796326795,3.14159265359),.PIECEWISE_BEZIER_KNOTS.);
#469 = CARTESIAN_POINT('',(-98.3190271038,0.));
#470 = CARTESIAN_POINT('',(-113.5077089893,0.));
#471 = ( GEOMETRIC_REPRESENTATION_CONTEXT(2) 
PARAMETRIC_REPRESENTATION_CONTEXT() REPRESENTATION_CONTEXT('2D SPACE',''
  ) );
#472 = ORIENTED_EDGE('',*,*,#473,.F.);
#473 = EDGE_CURVE('',#186,#432,#474,.T.);
#474 = SURFACE_CURVE('',#475,(#478,#484),.PCURVE_S1.);
#475 = B_SPLINE_CURVE_WITH_KNOTS('',1,(#476,#477),.UNSPECIFIED.,.F.,.F.,
  (2,2),(0.,1.),.PIECEWISE_BEZIER_KNOTS.);
#476 = CARTESIAN_POINT('',(-1.4E+03,75.999999981879,-86.));
#477 = CARTESIAN_POINT('',(760.,75.999999981879,-86.));
#478 = PCURVE('',#228,#479);
#479 = DEFINITIONAL_REPRESENTATION('',(#480),#483);
#480 = B_SPLINE_CURVE_WITH_KNOTS('',1,(#481,#482),.UNSPECIFIED.,.F.,.F.,
  (2,2),(0.,1.),.PIECEWISE_BEZIER_KNOTS.);
#481 = CARTESIAN_POINT('',(3.14159265359,0.));
#482 = CARTESIAN_POINT('',(3.14159265359,2.16E+03));
#483 = ( GEOMETRIC_REPRESENTATION_CONTEXT(2) 
PARAMETRIC_REPRESENTATION_CONTEXT() REPRESENTATION_CONTEXT('2D SPACE',''
  ) );
#484 = PCURVE('',#200,#485);
#485 = DEFINITIONAL_REPRESENTATION('',(#486),#489);
#486 = B_SPLINE_CURVE_WITH_KNOTS('',1,(#487,#488),.UNSPECIFIED.,.F.,.F.,
  (2,2),(0.,1.),.PIECEWISE_BEZIER_KNOTS.);
#487 = CARTESIAN_POINT('',(75.999999981876,-2.16E+03));
#488 = CARTESIAN_POINT('',(75.999999981876,0.));
#489 = ( GEOMETRIC_REPRESENTATION_CONTEXT(2) 
PARAMETRIC_REPRESENTATION_CONTEXT() REPRESENTATION_CONTEXT('2D SPACE',''
  ) );
#490 = ADVANCED_FACE('',(#491),#200,.T.);
#491 = FACE_BOUND('',#492,.T.);
#492 = EDGE_LOOP('',(#493,#513,#514,#515,#542,#570));
#493 = ORIENTED_EDGE('',*,*,#494,.F.);
#494 = EDGE_CURVE('',#157,#495,#497,.T.);
#495 = VERTEX_POINT('',#496);
#496 = CARTESIAN_POINT('',(760.,-75.99999999999,-85.99999999093));
#497 = SURFACE_CURVE('',#498,(#501,#507),.PCURVE_S1.);
#498 = B_SPLINE_CURVE_WITH_KNOTS('',1,(#499,#500),.UNSPECIFIED.,.F.,.F.,
  (2,2),(0.,1.),.PIECEWISE_BEZIER_KNOTS.);
#499 = CARTESIAN_POINT('',(-1.4E+03,-75.99999999999,-85.99999999093));
#500 = CARTESIAN_POINT('',(760.,-75.99999999999,-85.99999999093));
#501 = PCURVE('',#200,#502);
#502 = DEFINITIONAL_REPRESENTATION('',(#503),#506);
#503 = B_SPLINE_CURVE_WITH_KNOTS('',1,(#504,#505),.UNSPECIFIED.,.F.,.F.,
  (2,2),(0.,1.),.PIECEWISE_BEZIER_KNOTS.);
#504 = CARTESIAN_POINT('',(-76.,-2.16E+03));
#505 = CARTESIAN_POINT('',(-76.,0.));
#506 = ( GEOMETRIC_REPRESENTATION_CONTEXT(2) 
PARAMETRIC_REPRESENTATION_CONTEXT() REPRESENTATION_CONTEXT('2D SPACE',''
  ) );
#507 = PCURVE('',#173,#508);
#508 = DEFINITIONAL_REPRESENTATION('',(#509),#512);
#509 = B_SPLINE_CURVE_WITH_KNOTS('',1,(#510,#511),.UNSPECIFIED.,.F.,.F.,
  (2,2),(0.,1.),.PIECEWISE_BEZIER_KNOTS.);
#510 = CARTESIAN_POINT('',(3.14159265359,0.));
#511 = CARTESIAN_POINT('',(3.14159265359,2.16E+03));
#512 = ( GEOMETRIC_REPRESENTATION_CONTEXT(2) 
PARAMETRIC_REPRESENTATION_CONTEXT() REPRESENTATION_CONTEXT('2D SPACE',''
  ) );
#513 = ORIENTED_EDGE('',*,*,#185,.T.);
#514 = ORIENTED_EDGE('',*,*,#473,.T.);
#515 = ORIENTED_EDGE('',*,*,#516,.F.);
#516 = EDGE_CURVE('',#517,#432,#519,.T.);
#517 = VERTEX_POINT('',#518);
#518 = CARTESIAN_POINT('',(760.,-2.6302515721E-09,-86.));
#519 = SURFACE_CURVE('',#520,(#524,#531),.PCURVE_S1.);
#520 = LINE('',#521,#522);
#521 = CARTESIAN_POINT('',(760.,2.181366198784E-12,-86.));
#522 = VECTOR('',#523,1.);
#523 = DIRECTION('',(0.,1.,0.));
#524 = PCURVE('',#200,#525);
#525 = DEFINITIONAL_REPRESENTATION('',(#526),#530);
#526 = LINE('',#527,#528);
#527 = CARTESIAN_POINT('',(0.,0.));
#528 = VECTOR('',#529,1.);
#529 = DIRECTION('',(1.,0.));
#530 = ( GEOMETRIC_REPRESENTATION_CONTEXT(2) 
PARAMETRIC_REPRESENTATION_CONTEXT() REPRESENTATION_CONTEXT('2D SPACE',''
  ) );
#531 = PCURVE('',#532,#537);
#532 = B_SPLINE_SURFACE_WITH_KNOTS('',1,1,(
    (#533,#534)
    ,(#535,#536
    )),.UNSPECIFIED.,.F.,.F.,.F.,(2,2),(2,2),(-2.632432938299E-09,
    75.999999981876),(0.,1.),.PIECEWISE_BEZIER_KNOTS.);
#533 = CARTESIAN_POINT('',(760.,-2.6302515721E-09,-86.));
#534 = CARTESIAN_POINT('',(1.01E+03,0.,-50.));
#535 = CARTESIAN_POINT('',(760.,75.999999981879,-86.));
#536 = CARTESIAN_POINT('',(1.01E+03,47.,-36.));
#537 = DEFINITIONAL_REPRESENTATION('',(#538),#541);
#538 = B_SPLINE_CURVE_WITH_KNOTS('',1,(#539,#540),.UNSPECIFIED.,.F.,.F.,
  (2,2),(-2.632432938299E-09,75.999999981876),.PIECEWISE_BEZIER_KNOTS.);
#539 = CARTESIAN_POINT('',(-2.632432938299E-09,0.));
#540 = CARTESIAN_POINT('',(75.999999981876,0.));
#541 = ( GEOMETRIC_REPRESENTATION_CONTEXT(2) 
PARAMETRIC_REPRESENTATION_CONTEXT() REPRESENTATION_CONTEXT('2D SPACE',''
  ) );
#542 = ORIENTED_EDGE('',*,*,#543,.F.);
#543 = EDGE_CURVE('',#544,#517,#546,.T.);
#544 = VERTEX_POINT('',#545);
#545 = CARTESIAN_POINT('',(760.,-67.85834688199,-86.));
#546 = SURFACE_CURVE('',#547,(#551,#558),.PCURVE_S1.);
#547 = LINE('',#548,#549);
#548 = CARTESIAN_POINT('',(760.,2.181366198784E-12,-86.));
#549 = VECTOR('',#550,1.);
#550 = DIRECTION('',(0.,1.,0.));
#551 = PCURVE('',#200,#552);
#552 = DEFINITIONAL_REPRESENTATION('',(#553),#557);
#553 = LINE('',#554,#555);
#554 = CARTESIAN_POINT('',(0.,0.));
#555 = VECTOR('',#556,1.);
#556 = DIRECTION('',(1.,0.));
#557 = ( GEOMETRIC_REPRESENTATION_CONTEXT(2) 
PARAMETRIC_REPRESENTATION_CONTEXT() REPRESENTATION_CONTEXT('2D SPACE',''
  ) );
#558 = PCURVE('',#559,#564);
#559 = B_SPLINE_SURFACE_WITH_KNOTS('',1,1,(
    (#560,#561)
    ,(#562,#563
    )),.UNSPECIFIED.,.F.,.F.,.F.,(2,2),(2,2),(-67.85834688199,
    -2.632432938299E-09),(0.,1.),.PIECEWISE_BEZIER_KNOTS.);
#560 = CARTESIAN_POINT('',(760.,-67.85834688199,-86.));
#561 = CARTESIAN_POINT('',(1.01E+03,-47.,-36.));
#562 = CARTESIAN_POINT('',(760.,-2.6302515721E-09,-86.));
#563 = CARTESIAN_POINT('',(1.01E+03,0.,-50.));
#564 = DEFINITIONAL_REPRESENTATION('',(#565),#569);
#565 = LINE('',#566,#567);
#566 = CARTESIAN_POINT('',(0.,0.));
#567 = VECTOR('',#568,1.);
#568 = DIRECTION('',(1.,0.));
#569 = ( GEOMETRIC_REPRESENTATION_CONTEXT(2) 
PARAMETRIC_REPRESENTATION_CONTEXT() REPRESENTATION_CONTEXT('2D SPACE',''
  ) );
#570 = ORIENTED_EDGE('',*,*,#571,.F.);
#571 = EDGE_CURVE('',#495,#544,#572,.T.);
#572 = SURFACE_CURVE('',#573,(#577,#584),.PCURVE_S1.);
#573 = LINE('',#574,#575);
#574 = CARTESIAN_POINT('',(760.,2.181366198784E-12,-86.));
#575 = VECTOR('',#576,1.);
#576 = DIRECTION('',(0.,1.,0.));
#577 = PCURVE('',#200,#578);
#578 = DEFINITIONAL_REPRESENTATION('',(#579),#583);
#579 = LINE('',#580,#581);
#580 = CARTESIAN_POINT('',(0.,0.));
#581 = VECTOR('',#582,1.);
#582 = DIRECTION('',(1.,0.));
#583 = ( GEOMETRIC_REPRESENTATION_CONTEXT(2) 
PARAMETRIC_REPRESENTATION_CONTEXT() REPRESENTATION_CONTEXT('2D SPACE',''
  ) );
#584 = PCURVE('',#585,#590);
#585 = B_SPLINE_SURFACE_WITH_KNOTS('',1,1,(
    (#586,#587)
    ,(#588,#589
    )),.UNSPECIFIED.,.F.,.F.,.F.,(2,2),(2,2),(-76.,-67.85834688199),(0.,
    1.),.PIECEWISE_BEZIER_KNOTS.);
#586 = CARTESIAN_POINT('',(760.,-75.99999999999,-86.));
#587 = CARTESIAN_POINT('',(1.01E+03,-48.26103927705,-31.04591712585));
#588 = CARTESIAN_POINT('',(760.,-67.85834688199,-86.));
#589 = CARTESIAN_POINT('',(1.01E+03,-47.,-36.));
#590 = DEFINITIONAL_REPRESENTATION('',(#591),#594);
#591 = B_SPLINE_CURVE_WITH_KNOTS('',1,(#592,#593),.UNSPECIFIED.,.F.,.F.,
  (2,2),(-76.,-67.85834688199),.PIECEWISE_BEZIER_KNOTS.);
#592 = CARTESIAN_POINT('',(-76.,0.));
#593 = CARTESIAN_POINT('',(-67.85834688199,0.));
#594 = ( GEOMETRIC_REPRESENTATION_CONTEXT(2) 
PARAMETRIC_REPRESENTATION_CONTEXT() REPRESENTATION_CONTEXT('2D SPACE',''
  ) );
#595 = ADVANCED_FACE('',(#596),#173,.T.);
#596 = FACE_BOUND('',#597,.T.);
#597 = EDGE_LOOP('',(#598,#599,#600,#642));
#598 = ORIENTED_EDGE('',*,*,#156,.T.);
#599 = ORIENTED_EDGE('',*,*,#494,.T.);
#600 = ORIENTED_EDGE('',*,*,#601,.T.);
#601 = EDGE_CURVE('',#495,#602,#604,.T.);
#602 = VERTEX_POINT('',#603);
#603 = CARTESIAN_POINT('',(760.,-85.99999999999,-75.99999998187));
#604 = SURFACE_CURVE('',#605,(#610,#617),.PCURVE_S1.);
#605 = CIRCLE('',#606,10.);
#606 = AXIS2_PLACEMENT_3D('',#607,#608,#609);
#607 = CARTESIAN_POINT('',(760.,-75.99999999999,-75.99999998187));
#608 = DIRECTION('',(-1.,0.,-1.110223024625E-16));
#609 = DIRECTION('',(-1.110223024625E-16,0.,1.));
#610 = PCURVE('',#173,#611);
#611 = DEFINITIONAL_REPRESENTATION('',(#612),#616);
#612 = LINE('',#613,#614);
#613 = CARTESIAN_POINT('',(6.28318530718,2.16E+03));
#614 = VECTOR('',#615,1.);
#615 = DIRECTION('',(-1.,0.));
#616 = ( GEOMETRIC_REPRESENTATION_CONTEXT(2) 
PARAMETRIC_REPRESENTATION_CONTEXT() REPRESENTATION_CONTEXT('2D SPACE',''
  ) );
#617 = PCURVE('',#618,#637);
#618 = B_SPLINE_SURFACE_WITH_KNOTS('',8,1,(
    (#619,#620)
    ,(#621,#622)
    ,(#623,#624)
    ,(#625,#626)
    ,(#627,#628)
    ,(#629,#630)
    ,(#631,#632)
    ,(#633,#634)
    ,(#635,#636
    )),.UNSPECIFIED.,.F.,.F.,.F.,(9,9),(2,2),(-15.18868189617,
    -5.112059974431),(0.,1.),.PIECEWISE_BEZIER_KNOTS.);
#619 = CARTESIAN_POINT('',(760.,-85.99999999999,-75.99999998187));
#620 = CARTESIAN_POINT('',(1.01E+03,-50.74673312394,-21.2806912988));
#621 = CARTESIAN_POINT('',(759.99999999999,-85.99999999999,
    -77.96349539037));
#622 = CARTESIAN_POINT('',(1.01E+03,-50.43602139308,-22.50134452718));
#623 = CARTESIAN_POINT('',(760.,-85.55939211038,-79.92699141692));
#624 = CARTESIAN_POINT('',(1.01E+03,-50.12530966222,-23.72199775556));
#625 = CARTESIAN_POINT('',(759.99999999999,-84.6781806587,
    -81.77513232522));
#626 = CARTESIAN_POINT('',(1.01E+03,-49.81459793135,-24.94265098394));
#627 = CARTESIAN_POINT('',(759.99999999999,-83.3925875578,
    -83.39258753967));
#628 = CARTESIAN_POINT('',(1.01E+03,-49.50388620049,-26.16330421232));
#629 = CARTESIAN_POINT('',(760.,-81.77513234334,-84.67818064059));
#630 = CARTESIAN_POINT('',(1.01E+03,-49.19317446963,-27.38395744071));
#631 = CARTESIAN_POINT('',(759.99999999999,-79.92699143504,
    -85.55939209226));
#632 = CARTESIAN_POINT('',(1.01E+03,-48.88246273877,-28.60461066909));
#633 = CARTESIAN_POINT('',(760.,-77.96349540849,-85.99999998187));
#634 = CARTESIAN_POINT('',(1.01E+03,-48.57175100791,-29.82526389747));
#635 = CARTESIAN_POINT('',(760.,-75.99999999999,-85.99999998187));
#636 = CARTESIAN_POINT('',(1.01E+03,-48.26103927705,-31.04591712585));
#637 = DEFINITIONAL_REPRESENTATION('',(#638),#641);
#638 = B_SPLINE_CURVE_WITH_KNOTS('',1,(#639,#640),.UNSPECIFIED.,.F.,.F.,
  (2,2),(3.14159265359,4.712388980385),.PIECEWISE_BEZIER_KNOTS.);
#639 = CARTESIAN_POINT('',(-5.112059974431,0.));
#640 = CARTESIAN_POINT('',(-15.18868189617,0.));
#641 = ( GEOMETRIC_REPRESENTATION_CONTEXT(2) 
PARAMETRIC_REPRESENTATION_CONTEXT() REPRESENTATION_CONTEXT('2D SPACE',''
  ) );
#642 = ORIENTED_EDGE('',*,*,#643,.F.);
#643 = EDGE_CURVE('',#131,#602,#644,.T.);
#644 = SURFACE_CURVE('',#645,(#648,#654),.PCURVE_S1.);
#645 = B_SPLINE_CURVE_WITH_KNOTS('',1,(#646,#647),.UNSPECIFIED.,.F.,.F.,
  (2,2),(0.,1.),.PIECEWISE_BEZIER_KNOTS.);
#646 = CARTESIAN_POINT('',(-1.4E+03,-85.99999999999,-75.99999998187));
#647 = CARTESIAN_POINT('',(760.,-85.99999999999,-75.99999998187));
#648 = PCURVE('',#173,#649);
#649 = DEFINITIONAL_REPRESENTATION('',(#650),#653);
#650 = B_SPLINE_CURVE_WITH_KNOTS('',1,(#651,#652),.UNSPECIFIED.,.F.,.F.,
  (2,2),(0.,1.),.PIECEWISE_BEZIER_KNOTS.);
#651 = CARTESIAN_POINT('',(1.570796326795,0.));
#652 = CARTESIAN_POINT('',(1.570796326795,2.16E+03));
#653 = ( GEOMETRIC_REPRESENTATION_CONTEXT(2) 
PARAMETRIC_REPRESENTATION_CONTEXT() REPRESENTATION_CONTEXT('2D SPACE',''
  ) );
#654 = PCURVE('',#145,#655);
#655 = DEFINITIONAL_REPRESENTATION('',(#656),#659);
#656 = B_SPLINE_CURVE_WITH_KNOTS('',1,(#657,#658),.UNSPECIFIED.,.F.,.F.,
  (2,2),(0.,1.),.PIECEWISE_BEZIER_KNOTS.);
#657 = CARTESIAN_POINT('',(75.999999981876,-2.16E+03));
#658 = CARTESIAN_POINT('',(75.999999981876,0.));
#659 = ( GEOMETRIC_REPRESENTATION_CONTEXT(2) 
PARAMETRIC_REPRESENTATION_CONTEXT() REPRESENTATION_CONTEXT('2D SPACE',''
  ) );
#660 = ADVANCED_FACE('',(#661),#145,.T.);
#661 = FACE_BOUND('',#662,.T.);
#662 = EDGE_LOOP('',(#663,#683,#684,#685,#712));
#663 = ORIENTED_EDGE('',*,*,#664,.F.);
#664 = EDGE_CURVE('',#102,#665,#667,.T.);
#665 = VERTEX_POINT('',#666);
#666 = CARTESIAN_POINT('',(760.,-86.,76.));
#667 = SURFACE_CURVE('',#668,(#671,#677),.PCURVE_S1.);
#668 = B_SPLINE_CURVE_WITH_KNOTS('',1,(#669,#670),.UNSPECIFIED.,.F.,.F.,
  (2,2),(0.,1.),.PIECEWISE_BEZIER_KNOTS.);
#669 = CARTESIAN_POINT('',(-1.4E+03,-86.,76.));
#670 = CARTESIAN_POINT('',(760.,-86.,76.));
#671 = PCURVE('',#145,#672);
#672 = DEFINITIONAL_REPRESENTATION('',(#673),#676);
#673 = B_SPLINE_CURVE_WITH_KNOTS('',1,(#674,#675),.UNSPECIFIED.,.F.,.F.,
  (2,2),(0.,1.),.PIECEWISE_BEZIER_KNOTS.);
#674 = CARTESIAN_POINT('',(-76.,-2.16E+03));
#675 = CARTESIAN_POINT('',(-76.,0.));
#676 = ( GEOMETRIC_REPRESENTATION_CONTEXT(2) 
PARAMETRIC_REPRESENTATION_CONTEXT() REPRESENTATION_CONTEXT('2D SPACE',''
  ) );
#677 = PCURVE('',#118,#678);
#678 = DEFINITIONAL_REPRESENTATION('',(#679),#682);
#679 = B_SPLINE_CURVE_WITH_KNOTS('',1,(#680,#681),.UNSPECIFIED.,.F.,.F.,
  (2,2),(0.,1.),.PIECEWISE_BEZIER_KNOTS.);
#680 = CARTESIAN_POINT('',(1.570796326795,0.));
#681 = CARTESIAN_POINT('',(1.570796326795,2.16E+03));
#682 = ( GEOMETRIC_REPRESENTATION_CONTEXT(2) 
PARAMETRIC_REPRESENTATION_CONTEXT() REPRESENTATION_CONTEXT('2D SPACE',''
  ) );
#683 = ORIENTED_EDGE('',*,*,#130,.T.);
#684 = ORIENTED_EDGE('',*,*,#643,.T.);
#685 = ORIENTED_EDGE('',*,*,#686,.F.);
#686 = EDGE_CURVE('',#687,#602,#689,.T.);
#687 = VERTEX_POINT('',#688);
#688 = CARTESIAN_POINT('',(760.,-85.99999999999,57.831836466751));
#689 = SURFACE_CURVE('',#690,(#694,#701),.PCURVE_S1.);
#690 = LINE('',#691,#692);
#691 = CARTESIAN_POINT('',(760.,-85.99999999999,0.));
#692 = VECTOR('',#693,1.);
#693 = DIRECTION('',(1.110223024625E-16,0.,-1.));
#694 = PCURVE('',#145,#695);
#695 = DEFINITIONAL_REPRESENTATION('',(#696),#700);
#696 = LINE('',#697,#698);
#697 = CARTESIAN_POINT('',(0.,0.));
#698 = VECTOR('',#699,1.);
#699 = DIRECTION('',(1.,0.));
#700 = ( GEOMETRIC_REPRESENTATION_CONTEXT(2) 
PARAMETRIC_REPRESENTATION_CONTEXT() REPRESENTATION_CONTEXT('2D SPACE',''
  ) );
#701 = PCURVE('',#702,#707);
#702 = B_SPLINE_SURFACE_WITH_KNOTS('',1,1,(
    (#703,#704)
    ,(#705,#706
    )),.UNSPECIFIED.,.F.,.F.,.F.,(2,2),(2,2),(-57.83183646675,
    75.999999981876),(0.,1.),.PIECEWISE_BEZIER_KNOTS.);
#703 = CARTESIAN_POINT('',(760.,-85.99999999999,57.831836466751));
#704 = CARTESIAN_POINT('',(1.01E+03,-75.,74.));
#705 = CARTESIAN_POINT('',(760.,-85.99999999999,-75.99999998187));
#706 = CARTESIAN_POINT('',(1.01E+03,-50.74673312394,-21.2806912988));
#707 = DEFINITIONAL_REPRESENTATION('',(#708),#711);
#708 = B_SPLINE_CURVE_WITH_KNOTS('',1,(#709,#710),.UNSPECIFIED.,.F.,.F.,
  (2,2),(-57.83183646675,75.999999981876),.PIECEWISE_BEZIER_KNOTS.);
#709 = CARTESIAN_POINT('',(-57.83183646675,0.));
#710 = CARTESIAN_POINT('',(75.999999981876,0.));
#711 = ( GEOMETRIC_REPRESENTATION_CONTEXT(2) 
PARAMETRIC_REPRESENTATION_CONTEXT() REPRESENTATION_CONTEXT('2D SPACE',''
  ) );
#712 = ORIENTED_EDGE('',*,*,#713,.F.);
#713 = EDGE_CURVE('',#665,#687,#714,.T.);
#714 = SURFACE_CURVE('',#715,(#719,#726),.PCURVE_S1.);
#715 = LINE('',#716,#717);
#716 = CARTESIAN_POINT('',(760.,-85.99999999999,0.));
#717 = VECTOR('',#718,1.);
#718 = DIRECTION('',(1.110223024625E-16,0.,-1.));
#719 = PCURVE('',#145,#720);
#720 = DEFINITIONAL_REPRESENTATION('',(#721),#725);
#721 = LINE('',#722,#723);
#722 = CARTESIAN_POINT('',(0.,0.));
#723 = VECTOR('',#724,1.);
#724 = DIRECTION('',(1.,0.));
#725 = ( GEOMETRIC_REPRESENTATION_CONTEXT(2) 
PARAMETRIC_REPRESENTATION_CONTEXT() REPRESENTATION_CONTEXT('2D SPACE',''
  ) );
#726 = PCURVE('',#727,#732);
#727 = PLANE('',#728);
#728 = AXIS2_PLACEMENT_3D('',#729,#730,#731);
#729 = CARTESIAN_POINT('',(760.,-86.,76.));
#730 = DIRECTION('',(4.395746974398E-02,-0.999033403272,0.));
#731 = DIRECTION('',(0.,0.,-1.));
#732 = DEFINITIONAL_REPRESENTATION('',(#733),#737);
#733 = LINE('',#734,#735);
#734 = CARTESIAN_POINT('',(76.,0.));
#735 = VECTOR('',#736,1.);
#736 = DIRECTION('',(1.,0.));
#737 = ( GEOMETRIC_REPRESENTATION_CONTEXT(2) 
PARAMETRIC_REPRESENTATION_CONTEXT() REPRESENTATION_CONTEXT('2D SPACE',''
  ) );
#738 = ADVANCED_FACE('',(#739),#118,.T.);
#739 = FACE_BOUND('',#740,.T.);
#740 = EDGE_LOOP('',(#741,#742,#743,#785));
#741 = ORIENTED_EDGE('',*,*,#101,.T.);
#742 = ORIENTED_EDGE('',*,*,#664,.T.);
#743 = ORIENTED_EDGE('',*,*,#744,.T.);
#744 = EDGE_CURVE('',#665,#745,#747,.T.);
#745 = VERTEX_POINT('',#746);
#746 = CARTESIAN_POINT('',(760.,-76.,86.));
#747 = SURFACE_CURVE('',#748,(#753,#760),.PCURVE_S1.);
#748 = CIRCLE('',#749,10.);
#749 = AXIS2_PLACEMENT_3D('',#750,#751,#752);
#750 = CARTESIAN_POINT('',(760.,-76.,76.));
#751 = DIRECTION('',(-1.,0.,-1.110223024625E-16));
#752 = DIRECTION('',(-1.110223024625E-16,0.,1.));
#753 = PCURVE('',#118,#754);
#754 = DEFINITIONAL_REPRESENTATION('',(#755),#759);
#755 = LINE('',#756,#757);
#756 = CARTESIAN_POINT('',(6.28318530718,2.16E+03));
#757 = VECTOR('',#758,1.);
#758 = DIRECTION('',(-1.,0.));
#759 = ( GEOMETRIC_REPRESENTATION_CONTEXT(2) 
PARAMETRIC_REPRESENTATION_CONTEXT() REPRESENTATION_CONTEXT('2D SPACE',''
  ) );
#760 = PCURVE('',#761,#780);
#761 = B_SPLINE_SURFACE_WITH_KNOTS('',8,1,(
    (#762,#763)
    ,(#764,#765)
    ,(#766,#767)
    ,(#768,#769)
    ,(#770,#771)
    ,(#772,#773)
    ,(#774,#775)
    ,(#776,#777)
    ,(#778,#779
    )),.UNSPECIFIED.,.F.,.F.,.F.,(9,9),(2,2),(0.,1.570796326795),(0.,1.)
  ,.PIECEWISE_BEZIER_KNOTS.);
#762 = CARTESIAN_POINT('',(760.,-76.,86.));
#763 = CARTESIAN_POINT('',(1.01E+03,-75.,74.));
#764 = CARTESIAN_POINT('',(760.,-77.96349540849,86.));
#765 = CARTESIAN_POINT('',(1.01E+03,-75.,74.));
#766 = CARTESIAN_POINT('',(759.99999999999,-79.92699143504,
    85.559392110387));
#767 = CARTESIAN_POINT('',(1.01E+03,-75.,74.));
#768 = CARTESIAN_POINT('',(760.00000000002,-81.77513234334,
    84.678180658715));
#769 = CARTESIAN_POINT('',(1.01E+03,-75.,74.));
#770 = CARTESIAN_POINT('',(759.99999999997,-83.3925875578,
    83.392587557797));
#771 = CARTESIAN_POINT('',(1.01E+03,-75.,74.));
#772 = CARTESIAN_POINT('',(760.00000000002,-84.67818065871,
    81.775132343352));
#773 = CARTESIAN_POINT('',(1.01E+03,-75.,74.));
#774 = CARTESIAN_POINT('',(759.99999999998,-85.55939211038,
    79.926991435041));
#775 = CARTESIAN_POINT('',(1.01E+03,-75.,74.));
#776 = CARTESIAN_POINT('',(760.,-86.,77.963495408494));
#777 = CARTESIAN_POINT('',(1.01E+03,-75.,74.));
#778 = CARTESIAN_POINT('',(760.,-86.,76.));
#779 = CARTESIAN_POINT('',(1.01E+03,-75.,74.));
#780 = DEFINITIONAL_REPRESENTATION('',(#781),#784);
#781 = B_SPLINE_CURVE_WITH_KNOTS('',1,(#782,#783),.UNSPECIFIED.,.F.,.F.,
  (2,2),(4.712388980385,6.28318530718),.PIECEWISE_BEZIER_KNOTS.);
#782 = CARTESIAN_POINT('',(1.570796326795,0.));
#783 = CARTESIAN_POINT('',(0.,0.));
#784 = ( GEOMETRIC_REPRESENTATION_CONTEXT(2) 
PARAMETRIC_REPRESENTATION_CONTEXT() REPRESENTATION_CONTEXT('2D SPACE',''
  ) );
#785 = ORIENTED_EDGE('',*,*,#786,.F.);
#786 = EDGE_CURVE('',#76,#745,#787,.T.);
#787 = SURFACE_CURVE('',#788,(#791,#797),.PCURVE_S1.);
#788 = B_SPLINE_CURVE_WITH_KNOTS('',1,(#789,#790),.UNSPECIFIED.,.F.,.F.,
  (2,2),(0.,1.),.PIECEWISE_BEZIER_KNOTS.);
#789 = CARTESIAN_POINT('',(-1.4E+03,-76.,86.));
#790 = CARTESIAN_POINT('',(760.,-76.,86.));
#791 = PCURVE('',#118,#792);
#792 = DEFINITIONAL_REPRESENTATION('',(#793),#796);
#793 = B_SPLINE_CURVE_WITH_KNOTS('',1,(#794,#795),.UNSPECIFIED.,.F.,.F.,
  (2,2),(0.,1.),.PIECEWISE_BEZIER_KNOTS.);
#794 = CARTESIAN_POINT('',(0.,0.));
#795 = CARTESIAN_POINT('',(0.,2.16E+03));
#796 = ( GEOMETRIC_REPRESENTATION_CONTEXT(2) 
PARAMETRIC_REPRESENTATION_CONTEXT() REPRESENTATION_CONTEXT('2D SPACE',''
  ) );
#797 = PCURVE('',#90,#798);
#798 = DEFINITIONAL_REPRESENTATION('',(#799),#802);
#799 = B_SPLINE_CURVE_WITH_KNOTS('',1,(#800,#801),.UNSPECIFIED.,.F.,.F.,
  (2,2),(0.,1.),.PIECEWISE_BEZIER_KNOTS.);
#800 = CARTESIAN_POINT('',(76.000000000004,-2.16E+03));
#801 = CARTESIAN_POINT('',(76.000000000004,0.));
#802 = ( GEOMETRIC_REPRESENTATION_CONTEXT(2) 
PARAMETRIC_REPRESENTATION_CONTEXT() REPRESENTATION_CONTEXT('2D SPACE',''
  ) );
#803 = ADVANCED_FACE('',(#804),#90,.T.);
#804 = FACE_BOUND('',#805,.T.);
#805 = EDGE_LOOP('',(#806,#807,#808,#833));
#806 = ORIENTED_EDGE('',*,*,#75,.T.);
#807 = ORIENTED_EDGE('',*,*,#786,.T.);
#808 = ORIENTED_EDGE('',*,*,#809,.T.);
#809 = EDGE_CURVE('',#745,#269,#810,.T.);
#810 = SURFACE_CURVE('',#811,(#815,#821),.PCURVE_S1.);
#811 = LINE('',#812,#813);
#812 = CARTESIAN_POINT('',(760.,-76.,86.));
#813 = VECTOR('',#814,1.);
#814 = DIRECTION('',(0.,1.,0.));
#815 = PCURVE('',#90,#816);
#816 = DEFINITIONAL_REPRESENTATION('',(#817),#820);
#817 = B_SPLINE_CURVE_WITH_KNOTS('',1,(#818,#819),.UNSPECIFIED.,.F.,.F.,
  (2,2),(0.,152.),.PIECEWISE_BEZIER_KNOTS.);
#818 = CARTESIAN_POINT('',(76.000000000004,0.));
#819 = CARTESIAN_POINT('',(-75.99999998187,0.));
#820 = ( GEOMETRIC_REPRESENTATION_CONTEXT(2) 
PARAMETRIC_REPRESENTATION_CONTEXT() REPRESENTATION_CONTEXT('2D SPACE',''
  ) );
#821 = PCURVE('',#822,#827);
#822 = PLANE('',#823);
#823 = AXIS2_PLACEMENT_3D('',#824,#825,#826);
#824 = CARTESIAN_POINT('',(884.68850444234,0.,80.014951786768));
#825 = DIRECTION('',(-4.79447993684E-02,0.,-0.998849986842));
#826 = DIRECTION('',(-0.998849986842,0.,4.79447993684E-02));
#827 = DEFINITIONAL_REPRESENTATION('',(#828),#832);
#828 = LINE('',#829,#830);
#829 = CARTESIAN_POINT('',(124.83206295732,-76.));
#830 = VECTOR('',#831,1.);
#831 = DIRECTION('',(0.,1.));
#832 = ( GEOMETRIC_REPRESENTATION_CONTEXT(2) 
PARAMETRIC_REPRESENTATION_CONTEXT() REPRESENTATION_CONTEXT('2D SPACE',''
  ) );
#833 = ORIENTED_EDGE('',*,*,#268,.F.);
#834 = ADVANCED_FACE('',(#835),#305,.F.);
#835 = FACE_BOUND('',#836,.F.);
#836 = EDGE_LOOP('',(#837,#838,#859));
#837 = ORIENTED_EDGE('',*,*,#288,.T.);
#838 = ORIENTED_EDGE('',*,*,#839,.T.);
#839 = EDGE_CURVE('',#289,#840,#842,.T.);
#840 = VERTEX_POINT('',#841);
#841 = CARTESIAN_POINT('',(1.01E+03,75.,74.));
#842 = SURFACE_CURVE('',#843,(#846,#853),.PCURVE_S1.);
#843 = B_SPLINE_CURVE_WITH_KNOTS('',1,(#844,#845),.UNSPECIFIED.,.F.,.F.,
  (2,2),(0.,1.),.PIECEWISE_BEZIER_KNOTS.);
#844 = CARTESIAN_POINT('',(760.,86.,76.));
#845 = CARTESIAN_POINT('',(1.01E+03,75.,74.));
#846 = PCURVE('',#305,#847);
#847 = DEFINITIONAL_REPRESENTATION('',(#848),#852);
#848 = LINE('',#849,#850);
#849 = CARTESIAN_POINT('',(1.570796326795,0.));
#850 = VECTOR('',#851,1.);
#851 = DIRECTION('',(0.,1.));
#852 = ( GEOMETRIC_REPRESENTATION_CONTEXT(2) 
PARAMETRIC_REPRESENTATION_CONTEXT() REPRESENTATION_CONTEXT('2D SPACE',''
  ) );
#853 = PCURVE('',#369,#854);
#854 = DEFINITIONAL_REPRESENTATION('',(#855),#858);
#855 = B_SPLINE_CURVE_WITH_KNOTS('',1,(#856,#857),.UNSPECIFIED.,.F.,.F.,
  (2,2),(0.,1.),.PIECEWISE_BEZIER_KNOTS.);
#856 = CARTESIAN_POINT('',(2.84217094304E-14,0.));
#857 = CARTESIAN_POINT('',(2.,250.24188298524));
#858 = ( GEOMETRIC_REPRESENTATION_CONTEXT(2) 
PARAMETRIC_REPRESENTATION_CONTEXT() REPRESENTATION_CONTEXT('2D SPACE',''
  ) );
#859 = ORIENTED_EDGE('',*,*,#860,.F.);
#860 = EDGE_CURVE('',#269,#840,#861,.T.);
#861 = SURFACE_CURVE('',#862,(#866,#872),.PCURVE_S1.);
#862 = LINE('',#863,#864);
#863 = CARTESIAN_POINT('',(760.,76.,86.));
#864 = VECTOR('',#865,1.);
#865 = DIRECTION('',(0.998842014506,-3.995368058023E-03,
    -4.794441669627E-02));
#866 = PCURVE('',#305,#867);
#867 = DEFINITIONAL_REPRESENTATION('',(#868),#871);
#868 = B_SPLINE_CURVE_WITH_KNOTS('',1,(#869,#870),.UNSPECIFIED.,.F.,.F.,
  (2,2),(0.,250.28983199483),.PIECEWISE_BEZIER_KNOTS.);
#869 = CARTESIAN_POINT('',(0.,0.));
#870 = CARTESIAN_POINT('',(0.,1.));
#871 = ( GEOMETRIC_REPRESENTATION_CONTEXT(2) 
PARAMETRIC_REPRESENTATION_CONTEXT() REPRESENTATION_CONTEXT('2D SPACE',''
  ) );
#872 = PCURVE('',#822,#873);
#873 = DEFINITIONAL_REPRESENTATION('',(#874),#878);
#874 = LINE('',#875,#876);
#875 = CARTESIAN_POINT('',(124.83206295732,76.));
#876 = VECTOR('',#877,1.);
#877 = DIRECTION('',(-0.999992018485,-3.995368058023E-03));
#878 = ( GEOMETRIC_REPRESENTATION_CONTEXT(2) 
PARAMETRIC_REPRESENTATION_CONTEXT() REPRESENTATION_CONTEXT('2D SPACE',''
  ) );
#879 = ADVANCED_FACE('',(#880),#397,.T.);
#880 = FACE_BOUND('',#881,.T.);
#881 = EDGE_LOOP('',(#882,#883,#902,#929));
#882 = ORIENTED_EDGE('',*,*,#381,.F.);
#883 = ORIENTED_EDGE('',*,*,#884,.T.);
#884 = EDGE_CURVE('',#355,#840,#885,.T.);
#885 = SURFACE_CURVE('',#886,(#889,#896),.PCURVE_S1.);
#886 = B_SPLINE_CURVE_WITH_KNOTS('',1,(#887,#888),.UNSPECIFIED.,.F.,.F.,
  (2,2),(0.,1.),.PIECEWISE_BEZIER_KNOTS.);
#887 = CARTESIAN_POINT('',(760.,86.,57.831836466751));
#888 = CARTESIAN_POINT('',(1.01E+03,75.,74.));
#889 = PCURVE('',#397,#890);
#890 = DEFINITIONAL_REPRESENTATION('',(#891),#895);
#891 = LINE('',#892,#893);
#892 = CARTESIAN_POINT('',(57.831836470292,0.));
#893 = VECTOR('',#894,1.);
#894 = DIRECTION('',(0.,1.));
#895 = ( GEOMETRIC_REPRESENTATION_CONTEXT(2) 
PARAMETRIC_REPRESENTATION_CONTEXT() REPRESENTATION_CONTEXT('2D SPACE',''
  ) );
#896 = PCURVE('',#369,#897);
#897 = DEFINITIONAL_REPRESENTATION('',(#898),#901);
#898 = B_SPLINE_CURVE_WITH_KNOTS('',1,(#899,#900),.UNSPECIFIED.,.F.,.F.,
  (2,2),(0.,1.),.PIECEWISE_BEZIER_KNOTS.);
#899 = CARTESIAN_POINT('',(18.168163533249,0.));
#900 = CARTESIAN_POINT('',(2.,250.24188298524));
#901 = ( GEOMETRIC_REPRESENTATION_CONTEXT(2) 
PARAMETRIC_REPRESENTATION_CONTEXT() REPRESENTATION_CONTEXT('2D SPACE',''
  ) );
#902 = ORIENTED_EDGE('',*,*,#903,.T.);
#903 = EDGE_CURVE('',#840,#904,#906,.T.);
#904 = VERTEX_POINT('',#905);
#905 = CARTESIAN_POINT('',(1.01E+03,50.746733121308,-21.28069130914));
#906 = SURFACE_CURVE('',#907,(#911,#917),.PCURVE_S1.);
#907 = LINE('',#908,#909);
#908 = CARTESIAN_POINT('',(1.01E+03,75.,74.));
#909 = VECTOR('',#910,1.);
#910 = DIRECTION('',(0.,-0.246679280635,-0.969097173923));
#911 = PCURVE('',#397,#912);
#912 = DEFINITIONAL_REPRESENTATION('',(#913),#916);
#913 = B_SPLINE_CURVE_WITH_KNOTS('',1,(#914,#915),.UNSPECIFIED.,.F.,.F.,
  (2,2),(0.,98.319027103802),.PIECEWISE_BEZIER_KNOTS.);
#914 = CARTESIAN_POINT('',(57.831836470292,1.));
#915 = CARTESIAN_POINT('',(-76.,1.));
#916 = ( GEOMETRIC_REPRESENTATION_CONTEXT(2) 
PARAMETRIC_REPRESENTATION_CONTEXT() REPRESENTATION_CONTEXT('2D SPACE',''
  ) );
#917 = PCURVE('',#918,#923);
#918 = PLANE('',#919);
#919 = AXIS2_PLACEMENT_3D('',#920,#921,#922);
#920 = CARTESIAN_POINT('',(1.191973360871E+03,37.261490603801,
    29.026450327948));
#921 = DIRECTION('',(-0.138658356422,-0.959735961679,0.244296426609));
#922 = DIRECTION('',(2.081668171172E-17,-0.246679280635,-0.969097173923)
  );
#923 = DEFINITIONAL_REPRESENTATION('',(#924),#928);
#924 = LINE('',#925,#926);
#925 = CARTESIAN_POINT('',(-52.89304823855,-183.7483191113));
#926 = VECTOR('',#927,1.);
#927 = DIRECTION('',(1.,0.));
#928 = ( GEOMETRIC_REPRESENTATION_CONTEXT(2) 
PARAMETRIC_REPRESENTATION_CONTEXT() REPRESENTATION_CONTEXT('2D SPACE',''
  ) );
#929 = ORIENTED_EDGE('',*,*,#930,.F.);
#930 = EDGE_CURVE('',#382,#904,#931,.T.);
#931 = SURFACE_CURVE('',#932,(#935,#942),.PCURVE_S1.);
#932 = B_SPLINE_CURVE_WITH_KNOTS('',1,(#933,#934),.UNSPECIFIED.,.F.,.F.,
  (2,2),(0.,1.),.PIECEWISE_BEZIER_KNOTS.);
#933 = CARTESIAN_POINT('',(760.,85.999999981879,-76.));
#934 = CARTESIAN_POINT('',(1.01E+03,50.746733121308,-21.28069130914));
#935 = PCURVE('',#397,#936);
#936 = DEFINITIONAL_REPRESENTATION('',(#937),#941);
#937 = LINE('',#938,#939);
#938 = CARTESIAN_POINT('',(-76.,0.));
#939 = VECTOR('',#940,1.);
#940 = DIRECTION('',(0.,1.));
#941 = ( GEOMETRIC_REPRESENTATION_CONTEXT(2) 
PARAMETRIC_REPRESENTATION_CONTEXT() REPRESENTATION_CONTEXT('2D SPACE',''
  ) );
#942 = PCURVE('',#448,#943);
#943 = DEFINITIONAL_REPRESENTATION('',(#944),#948);
#944 = LINE('',#945,#946);
#945 = CARTESIAN_POINT('',(-98.3190271038,0.));
#946 = VECTOR('',#947,1.);
#947 = DIRECTION('',(0.,1.));
#948 = ( GEOMETRIC_REPRESENTATION_CONTEXT(2) 
PARAMETRIC_REPRESENTATION_CONTEXT() REPRESENTATION_CONTEXT('2D SPACE',''
  ) );
#949 = ADVANCED_FACE('',(#950),#369,.F.);
#950 = FACE_BOUND('',#951,.F.);
#951 = EDGE_LOOP('',(#952,#953,#954));
#952 = ORIENTED_EDGE('',*,*,#354,.T.);
#953 = ORIENTED_EDGE('',*,*,#884,.T.);
#954 = ORIENTED_EDGE('',*,*,#839,.F.);
#955 = ADVANCED_FACE('',(#956),#448,.T.);
#956 = FACE_BOUND('',#957,.T.);
#957 = EDGE_LOOP('',(#958,#959,#960,#983));
#958 = ORIENTED_EDGE('',*,*,#431,.F.);
#959 = ORIENTED_EDGE('',*,*,#930,.T.);
#960 = ORIENTED_EDGE('',*,*,#961,.T.);
#961 = EDGE_CURVE('',#904,#962,#964,.T.);
#962 = VERTEX_POINT('',#963);
#963 = CARTESIAN_POINT('',(1.01E+03,47.,-36.));
#964 = SURFACE_CURVE('',#965,(#969,#976),.PCURVE_S1.);
#965 = LINE('',#966,#967);
#966 = CARTESIAN_POINT('',(1.01E+03,75.,74.));
#967 = VECTOR('',#968,1.);
#968 = DIRECTION('',(0.,-0.246679280635,-0.969097173923));
#969 = PCURVE('',#448,#970);
#970 = DEFINITIONAL_REPRESENTATION('',(#971),#975);
#971 = LINE('',#972,#973);
#972 = CARTESIAN_POINT('',(0.,1.));
#973 = VECTOR('',#974,1.);
#974 = DIRECTION('',(-1.,0.));
#975 = ( GEOMETRIC_REPRESENTATION_CONTEXT(2) 
PARAMETRIC_REPRESENTATION_CONTEXT() REPRESENTATION_CONTEXT('2D SPACE',''
  ) );
#976 = PCURVE('',#918,#977);
#977 = DEFINITIONAL_REPRESENTATION('',(#978),#982);
#978 = LINE('',#979,#980);
#979 = CARTESIAN_POINT('',(-52.89304823855,-183.7483191113));
#980 = VECTOR('',#981,1.);
#981 = DIRECTION('',(1.,0.));
#982 = ( GEOMETRIC_REPRESENTATION_CONTEXT(2) 
PARAMETRIC_REPRESENTATION_CONTEXT() REPRESENTATION_CONTEXT('2D SPACE',''
  ) );
#983 = ORIENTED_EDGE('',*,*,#984,.F.);
#984 = EDGE_CURVE('',#432,#962,#985,.T.);
#985 = SURFACE_CURVE('',#986,(#989,#996),.PCURVE_S1.);
#986 = B_SPLINE_CURVE_WITH_KNOTS('',1,(#987,#988),.UNSPECIFIED.,.F.,.F.,
  (2,2),(0.,1.),.PIECEWISE_BEZIER_KNOTS.);
#987 = CARTESIAN_POINT('',(760.,75.999999981879,-86.));
#988 = CARTESIAN_POINT('',(1.01E+03,47.,-36.));
#989 = PCURVE('',#448,#990);
#990 = DEFINITIONAL_REPRESENTATION('',(#991),#995);
#991 = LINE('',#992,#993);
#992 = CARTESIAN_POINT('',(-113.5077089893,0.));
#993 = VECTOR('',#994,1.);
#994 = DIRECTION('',(0.,1.));
#995 = ( GEOMETRIC_REPRESENTATION_CONTEXT(2) 
PARAMETRIC_REPRESENTATION_CONTEXT() REPRESENTATION_CONTEXT('2D SPACE',''
  ) );
#996 = PCURVE('',#532,#997);
#997 = DEFINITIONAL_REPRESENTATION('',(#998),#1002);
#998 = LINE('',#999,#1000);
#999 = CARTESIAN_POINT('',(75.999999981876,0.));
#1000 = VECTOR('',#1001,1.);
#1001 = DIRECTION('',(0.,1.));
#1002 = ( GEOMETRIC_REPRESENTATION_CONTEXT(2) 
PARAMETRIC_REPRESENTATION_CONTEXT() REPRESENTATION_CONTEXT('2D SPACE',''
  ) );
#1003 = ADVANCED_FACE('',(#1004),#585,.T.);
#1004 = FACE_BOUND('',#1005,.T.);
#1005 = EDGE_LOOP('',(#1006,#1007,#1029,#1056));
#1006 = ORIENTED_EDGE('',*,*,#571,.T.);
#1007 = ORIENTED_EDGE('',*,*,#1008,.T.);
#1008 = EDGE_CURVE('',#544,#1009,#1011,.T.);
#1009 = VERTEX_POINT('',#1010);
#1010 = CARTESIAN_POINT('',(1.01E+03,-47.,-36.));
#1011 = SURFACE_CURVE('',#1012,(#1015,#1022),.PCURVE_S1.);
#1012 = B_SPLINE_CURVE_WITH_KNOTS('',1,(#1013,#1014),.UNSPECIFIED.,.F.,
  .F.,(2,2),(0.,1.),.PIECEWISE_BEZIER_KNOTS.);
#1013 = CARTESIAN_POINT('',(760.,-67.85834688199,-86.));
#1014 = CARTESIAN_POINT('',(1.01E+03,-47.,-36.));
#1015 = PCURVE('',#585,#1016);
#1016 = DEFINITIONAL_REPRESENTATION('',(#1017),#1021);
#1017 = LINE('',#1018,#1019);
#1018 = CARTESIAN_POINT('',(-67.85834688199,0.));
#1019 = VECTOR('',#1020,1.);
#1020 = DIRECTION('',(0.,1.));
#1021 = ( GEOMETRIC_REPRESENTATION_CONTEXT(2) 
PARAMETRIC_REPRESENTATION_CONTEXT() REPRESENTATION_CONTEXT('2D SPACE',''
  ) );
#1022 = PCURVE('',#559,#1023);
#1023 = DEFINITIONAL_REPRESENTATION('',(#1024),#1028);
#1024 = LINE('',#1025,#1026);
#1025 = CARTESIAN_POINT('',(-67.85834688199,0.));
#1026 = VECTOR('',#1027,1.);
#1027 = DIRECTION('',(0.,1.));
#1028 = ( GEOMETRIC_REPRESENTATION_CONTEXT(2) 
PARAMETRIC_REPRESENTATION_CONTEXT() REPRESENTATION_CONTEXT('2D SPACE',''
  ) );
#1029 = ORIENTED_EDGE('',*,*,#1030,.T.);
#1030 = EDGE_CURVE('',#1009,#1031,#1033,.T.);
#1031 = VERTEX_POINT('',#1032);
#1032 = CARTESIAN_POINT('',(1.01E+03,-48.26103927705,-31.04591712585));
#1033 = SURFACE_CURVE('',#1034,(#1038,#1044),.PCURVE_S1.);
#1034 = LINE('',#1035,#1036);
#1035 = CARTESIAN_POINT('',(1.01E+03,-47.,-36.));
#1036 = VECTOR('',#1037,1.);
#1037 = DIRECTION('',(0.,-0.246679280635,0.969097173923));
#1038 = PCURVE('',#585,#1039);
#1039 = DEFINITIONAL_REPRESENTATION('',(#1040),#1043);
#1040 = B_SPLINE_CURVE_WITH_KNOTS('',1,(#1041,#1042),.UNSPECIFIED.,.F.,
  .F.,(2,2),(0.,5.112059974431),.PIECEWISE_BEZIER_KNOTS.);
#1041 = CARTESIAN_POINT('',(-67.85834688199,1.));
#1042 = CARTESIAN_POINT('',(-76.,1.));
#1043 = ( GEOMETRIC_REPRESENTATION_CONTEXT(2) 
PARAMETRIC_REPRESENTATION_CONTEXT() REPRESENTATION_CONTEXT('2D SPACE',''
  ) );
#1044 = PCURVE('',#1045,#1050);
#1045 = PLANE('',#1046);
#1046 = AXIS2_PLACEMENT_3D('',#1047,#1048,#1049);
#1047 = CARTESIAN_POINT('',(1.191973360871E+03,-37.2614906038,
    29.026450327948));
#1048 = DIRECTION('',(-0.138658356422,0.959735961679,0.244296426609));
#1049 = DIRECTION('',(-2.081668171172E-17,-0.246679280635,0.969097173923
    ));
#1050 = DEFINITIONAL_REPRESENTATION('',(#1051),#1055);
#1051 = LINE('',#1052,#1053);
#1052 = CARTESIAN_POINT('',(-60.61466075074,-183.7483191113));
#1053 = VECTOR('',#1054,1.);
#1054 = DIRECTION('',(1.,1.387778780781E-17));
#1055 = ( GEOMETRIC_REPRESENTATION_CONTEXT(2) 
PARAMETRIC_REPRESENTATION_CONTEXT() REPRESENTATION_CONTEXT('2D SPACE',''
  ) );
#1056 = ORIENTED_EDGE('',*,*,#1057,.F.);
#1057 = EDGE_CURVE('',#495,#1031,#1058,.T.);
#1058 = SURFACE_CURVE('',#1059,(#1062,#1069),.PCURVE_S1.);
#1059 = B_SPLINE_CURVE_WITH_KNOTS('',1,(#1060,#1061),.UNSPECIFIED.,.F.,
  .F.,(2,2),(0.,1.),.PIECEWISE_BEZIER_KNOTS.);
#1060 = CARTESIAN_POINT('',(760.,-75.99999999999,-85.99999998187));
#1061 = CARTESIAN_POINT('',(1.01E+03,-48.26103927705,-31.04591712585));
#1062 = PCURVE('',#585,#1063);
#1063 = DEFINITIONAL_REPRESENTATION('',(#1064),#1068);
#1064 = LINE('',#1065,#1066);
#1065 = CARTESIAN_POINT('',(-76.,0.));
#1066 = VECTOR('',#1067,1.);
#1067 = DIRECTION('',(0.,1.));
#1068 = ( GEOMETRIC_REPRESENTATION_CONTEXT(2) 
PARAMETRIC_REPRESENTATION_CONTEXT() REPRESENTATION_CONTEXT('2D SPACE',''
  ) );
#1069 = PCURVE('',#618,#1070);
#1070 = DEFINITIONAL_REPRESENTATION('',(#1071),#1075);
#1071 = LINE('',#1072,#1073);
#1072 = CARTESIAN_POINT('',(-5.112059974431,0.));
#1073 = VECTOR('',#1074,1.);
#1074 = DIRECTION('',(0.,1.));
#1075 = ( GEOMETRIC_REPRESENTATION_CONTEXT(2) 
PARAMETRIC_REPRESENTATION_CONTEXT() REPRESENTATION_CONTEXT('2D SPACE',''
  ) );
#1076 = ADVANCED_FACE('',(#1077),#559,.T.);
#1077 = FACE_BOUND('',#1078,.T.);
#1078 = EDGE_LOOP('',(#1079,#1080,#1102,#1127));
#1079 = ORIENTED_EDGE('',*,*,#543,.T.);
#1080 = ORIENTED_EDGE('',*,*,#1081,.T.);
#1081 = EDGE_CURVE('',#517,#1082,#1084,.T.);
#1082 = VERTEX_POINT('',#1083);
#1083 = CARTESIAN_POINT('',(1.01E+03,0.,-50.));
#1084 = SURFACE_CURVE('',#1085,(#1088,#1095),.PCURVE_S1.);
#1085 = B_SPLINE_CURVE_WITH_KNOTS('',1,(#1086,#1087),.UNSPECIFIED.,.F.,
  .F.,(2,2),(0.,1.),.PIECEWISE_BEZIER_KNOTS.);
#1086 = CARTESIAN_POINT('',(760.,-2.6302515721E-09,-86.));
#1087 = CARTESIAN_POINT('',(1.01E+03,0.,-50.));
#1088 = PCURVE('',#559,#1089);
#1089 = DEFINITIONAL_REPRESENTATION('',(#1090),#1094);
#1090 = LINE('',#1091,#1092);
#1091 = CARTESIAN_POINT('',(-2.632432938299E-09,0.));
#1092 = VECTOR('',#1093,1.);
#1093 = DIRECTION('',(0.,1.));
#1094 = ( GEOMETRIC_REPRESENTATION_CONTEXT(2) 
PARAMETRIC_REPRESENTATION_CONTEXT() REPRESENTATION_CONTEXT('2D SPACE',''
  ) );
#1095 = PCURVE('',#532,#1096);
#1096 = DEFINITIONAL_REPRESENTATION('',(#1097),#1101);
#1097 = LINE('',#1098,#1099);
#1098 = CARTESIAN_POINT('',(-2.632432938299E-09,0.));
#1099 = VECTOR('',#1100,1.);
#1100 = DIRECTION('',(0.,1.));
#1101 = ( GEOMETRIC_REPRESENTATION_CONTEXT(2) 
PARAMETRIC_REPRESENTATION_CONTEXT() REPRESENTATION_CONTEXT('2D SPACE',''
  ) );
#1102 = ORIENTED_EDGE('',*,*,#1103,.T.);
#1103 = EDGE_CURVE('',#1082,#1009,#1104,.T.);
#1104 = SURFACE_CURVE('',#1105,(#1109,#1115),.PCURVE_S1.);
#1105 = LINE('',#1106,#1107);
#1106 = CARTESIAN_POINT('',(1.01E+03,0.,-50.));
#1107 = VECTOR('',#1108,1.);
#1108 = DIRECTION('',(0.,-0.958385683586,0.2854765866));
#1109 = PCURVE('',#559,#1110);
#1110 = DEFINITIONAL_REPRESENTATION('',(#1111),#1114);
#1111 = B_SPLINE_CURVE_WITH_KNOTS('',1,(#1112,#1113),.UNSPECIFIED.,.F.,
  .F.,(2,2),(0.,49.040799340957),.PIECEWISE_BEZIER_KNOTS.);
#1112 = CARTESIAN_POINT('',(-2.632432938299E-09,1.));
#1113 = CARTESIAN_POINT('',(-67.85834688199,1.));
#1114 = ( GEOMETRIC_REPRESENTATION_CONTEXT(2) 
PARAMETRIC_REPRESENTATION_CONTEXT() REPRESENTATION_CONTEXT('2D SPACE',''
  ) );
#1115 = PCURVE('',#1116,#1121);
#1116 = PLANE('',#1117);
#1117 = AXIS2_PLACEMENT_3D('',#1118,#1119,#1120);
#1118 = CARTESIAN_POINT('',(1.205183059005E+03,-15.76602357315,
    -2.875088163603));
#1119 = DIRECTION('',(-0.203953643411,0.279476024896,0.938240940722));
#1120 = DIRECTION('',(-3.469446951954E-17,0.958385683586,-0.2854765866)
  );
#1121 = DEFINITIONAL_REPRESENTATION('',(#1122),#1126);
#1122 = LINE('',#1123,#1124);
#1123 = CARTESIAN_POINT('',(28.562990254479,199.37378695577));
#1124 = VECTOR('',#1125,1.);
#1125 = DIRECTION('',(-1.,7.632783294298E-17));
#1126 = ( GEOMETRIC_REPRESENTATION_CONTEXT(2) 
PARAMETRIC_REPRESENTATION_CONTEXT() REPRESENTATION_CONTEXT('2D SPACE',''
  ) );
#1127 = ORIENTED_EDGE('',*,*,#1008,.F.);
#1128 = ADVANCED_FACE('',(#1129),#532,.T.);
#1129 = FACE_BOUND('',#1130,.T.);
#1130 = EDGE_LOOP('',(#1131,#1132,#1133,#1158));
#1131 = ORIENTED_EDGE('',*,*,#516,.T.);
#1132 = ORIENTED_EDGE('',*,*,#984,.T.);
#1133 = ORIENTED_EDGE('',*,*,#1134,.T.);
#1134 = EDGE_CURVE('',#962,#1082,#1135,.T.);
#1135 = SURFACE_CURVE('',#1136,(#1140,#1146),.PCURVE_S1.);
#1136 = LINE('',#1137,#1138);
#1137 = CARTESIAN_POINT('',(1.01E+03,47.,-36.));
#1138 = VECTOR('',#1139,1.);
#1139 = DIRECTION('',(0.,-0.958385683586,-0.2854765866));
#1140 = PCURVE('',#532,#1141);
#1141 = DEFINITIONAL_REPRESENTATION('',(#1142),#1145);
#1142 = B_SPLINE_CURVE_WITH_KNOTS('',1,(#1143,#1144),.UNSPECIFIED.,.F.,
  .F.,(2,2),(0.,49.040799340957),.PIECEWISE_BEZIER_KNOTS.);
#1143 = CARTESIAN_POINT('',(75.999999981876,1.));
#1144 = CARTESIAN_POINT('',(-2.632432938299E-09,1.));
#1145 = ( GEOMETRIC_REPRESENTATION_CONTEXT(2) 
PARAMETRIC_REPRESENTATION_CONTEXT() REPRESENTATION_CONTEXT('2D SPACE',''
  ) );
#1146 = PCURVE('',#1147,#1152);
#1147 = PLANE('',#1148);
#1148 = AXIS2_PLACEMENT_3D('',#1149,#1150,#1151);
#1149 = CARTESIAN_POINT('',(1.205183059005E+03,15.766023573151,
    -2.875088163603));
#1150 = DIRECTION('',(-0.203953643411,-0.279476024896,0.938240940722));
#1151 = DIRECTION('',(-6.938893903907E-18,0.958385683586,0.2854765866));
#1152 = DEFINITIONAL_REPRESENTATION('',(#1153),#1157);
#1153 = LINE('',#1154,#1155);
#1154 = CARTESIAN_POINT('',(20.477809086478,199.37378695577));
#1155 = VECTOR('',#1156,1.);
#1156 = DIRECTION('',(-1.,4.163336342344E-17));
#1157 = ( GEOMETRIC_REPRESENTATION_CONTEXT(2) 
PARAMETRIC_REPRESENTATION_CONTEXT() REPRESENTATION_CONTEXT('2D SPACE',''
  ) );
#1158 = ORIENTED_EDGE('',*,*,#1081,.F.);
#1159 = ADVANCED_FACE('',(#1160),#618,.T.);
#1160 = FACE_BOUND('',#1161,.T.);
#1161 = EDGE_LOOP('',(#1162,#1163,#1164,#1187));
#1162 = ORIENTED_EDGE('',*,*,#601,.F.);
#1163 = ORIENTED_EDGE('',*,*,#1057,.T.);
#1164 = ORIENTED_EDGE('',*,*,#1165,.T.);
#1165 = EDGE_CURVE('',#1031,#1166,#1168,.T.);
#1166 = VERTEX_POINT('',#1167);
#1167 = CARTESIAN_POINT('',(1.01E+03,-50.74673312394,-21.2806912988));
#1168 = SURFACE_CURVE('',#1169,(#1173,#1180),.PCURVE_S1.);
#1169 = LINE('',#1170,#1171);
#1170 = CARTESIAN_POINT('',(1.01E+03,-47.,-36.));
#1171 = VECTOR('',#1172,1.);
#1172 = DIRECTION('',(0.,-0.246679280635,0.969097173923));
#1173 = PCURVE('',#618,#1174);
#1174 = DEFINITIONAL_REPRESENTATION('',(#1175),#1179);
#1175 = LINE('',#1176,#1177);
#1176 = CARTESIAN_POINT('',(0.,1.));
#1177 = VECTOR('',#1178,1.);
#1178 = DIRECTION('',(-1.,0.));
#1179 = ( GEOMETRIC_REPRESENTATION_CONTEXT(2) 
PARAMETRIC_REPRESENTATION_CONTEXT() REPRESENTATION_CONTEXT('2D SPACE',''
  ) );
#1180 = PCURVE('',#1045,#1181);
#1181 = DEFINITIONAL_REPRESENTATION('',(#1182),#1186);
#1182 = LINE('',#1183,#1184);
#1183 = CARTESIAN_POINT('',(-60.61466075074,-183.7483191113));
#1184 = VECTOR('',#1185,1.);
#1185 = DIRECTION('',(1.,1.387778780781E-17));
#1186 = ( GEOMETRIC_REPRESENTATION_CONTEXT(2) 
PARAMETRIC_REPRESENTATION_CONTEXT() REPRESENTATION_CONTEXT('2D SPACE',''
  ) );
#1187 = ORIENTED_EDGE('',*,*,#1188,.F.);
#1188 = EDGE_CURVE('',#602,#1166,#1189,.T.);
#1189 = SURFACE_CURVE('',#1190,(#1193,#1200),.PCURVE_S1.);
#1190 = B_SPLINE_CURVE_WITH_KNOTS('',1,(#1191,#1192),.UNSPECIFIED.,.F.,
  .F.,(2,2),(0.,1.),.PIECEWISE_BEZIER_KNOTS.);
#1191 = CARTESIAN_POINT('',(760.,-85.99999999999,-75.99999998187));
#1192 = CARTESIAN_POINT('',(1.01E+03,-50.74673312394,-21.2806912988));
#1193 = PCURVE('',#618,#1194);
#1194 = DEFINITIONAL_REPRESENTATION('',(#1195),#1199);
#1195 = LINE('',#1196,#1197);
#1196 = CARTESIAN_POINT('',(-15.18868189617,0.));
#1197 = VECTOR('',#1198,1.);
#1198 = DIRECTION('',(0.,1.));
#1199 = ( GEOMETRIC_REPRESENTATION_CONTEXT(2) 
PARAMETRIC_REPRESENTATION_CONTEXT() REPRESENTATION_CONTEXT('2D SPACE',''
  ) );
#1200 = PCURVE('',#702,#1201);
#1201 = DEFINITIONAL_REPRESENTATION('',(#1202),#1206);
#1202 = LINE('',#1203,#1204);
#1203 = CARTESIAN_POINT('',(75.999999981876,0.));
#1204 = VECTOR('',#1205,1.);
#1205 = DIRECTION('',(0.,1.));
#1206 = ( GEOMETRIC_REPRESENTATION_CONTEXT(2) 
PARAMETRIC_REPRESENTATION_CONTEXT() REPRESENTATION_CONTEXT('2D SPACE',''
  ) );
#1207 = ADVANCED_FACE('',(#1208),#727,.T.);
#1208 = FACE_BOUND('',#1209,.T.);
#1209 = EDGE_LOOP('',(#1210,#1211,#1232));
#1210 = ORIENTED_EDGE('',*,*,#713,.T.);
#1211 = ORIENTED_EDGE('',*,*,#1212,.T.);
#1212 = EDGE_CURVE('',#687,#1213,#1215,.T.);
#1213 = VERTEX_POINT('',#1214);
#1214 = CARTESIAN_POINT('',(1.01E+03,-75.,74.));
#1215 = SURFACE_CURVE('',#1216,(#1219,#1225),.PCURVE_S1.);
#1216 = B_SPLINE_CURVE_WITH_KNOTS('',1,(#1217,#1218),.UNSPECIFIED.,.F.,
  .F.,(2,2),(0.,1.),.PIECEWISE_BEZIER_KNOTS.);
#1217 = CARTESIAN_POINT('',(760.,-86.,57.831836466751));
#1218 = CARTESIAN_POINT('',(1.01E+03,-75.,74.));
#1219 = PCURVE('',#727,#1220);
#1220 = DEFINITIONAL_REPRESENTATION('',(#1221),#1224);
#1221 = B_SPLINE_CURVE_WITH_KNOTS('',1,(#1222,#1223),.UNSPECIFIED.,.F.,
  .F.,(2,2),(0.,1.),.PIECEWISE_BEZIER_KNOTS.);
#1222 = CARTESIAN_POINT('',(18.168163533249,0.));
#1223 = CARTESIAN_POINT('',(2.,250.24188298524));
#1224 = ( GEOMETRIC_REPRESENTATION_CONTEXT(2) 
PARAMETRIC_REPRESENTATION_CONTEXT() REPRESENTATION_CONTEXT('2D SPACE',''
  ) );
#1225 = PCURVE('',#702,#1226);
#1226 = DEFINITIONAL_REPRESENTATION('',(#1227),#1231);
#1227 = LINE('',#1228,#1229);
#1228 = CARTESIAN_POINT('',(-57.83183646675,0.));
#1229 = VECTOR('',#1230,1.);
#1230 = DIRECTION('',(0.,1.));
#1231 = ( GEOMETRIC_REPRESENTATION_CONTEXT(2) 
PARAMETRIC_REPRESENTATION_CONTEXT() REPRESENTATION_CONTEXT('2D SPACE',''
  ) );
#1232 = ORIENTED_EDGE('',*,*,#1233,.F.);
#1233 = EDGE_CURVE('',#665,#1213,#1234,.T.);
#1234 = SURFACE_CURVE('',#1235,(#1238,#1244),.PCURVE_S1.);
#1235 = B_SPLINE_CURVE_WITH_KNOTS('',1,(#1236,#1237),.UNSPECIFIED.,.F.,
  .F.,(2,2),(0.,1.),.PIECEWISE_BEZIER_KNOTS.);
#1236 = CARTESIAN_POINT('',(760.,-86.,76.));
#1237 = CARTESIAN_POINT('',(1.01E+03,-75.,74.));
#1238 = PCURVE('',#727,#1239);
#1239 = DEFINITIONAL_REPRESENTATION('',(#1240),#1243);
#1240 = B_SPLINE_CURVE_WITH_KNOTS('',1,(#1241,#1242),.UNSPECIFIED.,.F.,
  .F.,(2,2),(0.,1.),.PIECEWISE_BEZIER_KNOTS.);
#1241 = CARTESIAN_POINT('',(2.84217094304E-14,0.));
#1242 = CARTESIAN_POINT('',(2.,250.24188298524));
#1243 = ( GEOMETRIC_REPRESENTATION_CONTEXT(2) 
PARAMETRIC_REPRESENTATION_CONTEXT() REPRESENTATION_CONTEXT('2D SPACE',''
  ) );
#1244 = PCURVE('',#761,#1245);
#1245 = DEFINITIONAL_REPRESENTATION('',(#1246),#1250);
#1246 = LINE('',#1247,#1248);
#1247 = CARTESIAN_POINT('',(1.570796326795,0.));
#1248 = VECTOR('',#1249,1.);
#1249 = DIRECTION('',(0.,1.));
#1250 = ( GEOMETRIC_REPRESENTATION_CONTEXT(2) 
PARAMETRIC_REPRESENTATION_CONTEXT() REPRESENTATION_CONTEXT('2D SPACE',''
  ) );
#1251 = ADVANCED_FACE('',(#1252),#702,.T.);
#1252 = FACE_BOUND('',#1253,.T.);
#1253 = EDGE_LOOP('',(#1254,#1255,#1256,#1276));
#1254 = ORIENTED_EDGE('',*,*,#686,.T.);
#1255 = ORIENTED_EDGE('',*,*,#1188,.T.);
#1256 = ORIENTED_EDGE('',*,*,#1257,.T.);
#1257 = EDGE_CURVE('',#1166,#1213,#1258,.T.);
#1258 = SURFACE_CURVE('',#1259,(#1263,#1269),.PCURVE_S1.);
#1259 = LINE('',#1260,#1261);
#1260 = CARTESIAN_POINT('',(1.01E+03,-47.,-36.));
#1261 = VECTOR('',#1262,1.);
#1262 = DIRECTION('',(0.,-0.246679280635,0.969097173923));
#1263 = PCURVE('',#702,#1264);
#1264 = DEFINITIONAL_REPRESENTATION('',(#1265),#1268);
#1265 = B_SPLINE_CURVE_WITH_KNOTS('',1,(#1266,#1267),.UNSPECIFIED.,.F.,
  .F.,(2,2),(15.188681896176,113.5077089893),.PIECEWISE_BEZIER_KNOTS.);
#1266 = CARTESIAN_POINT('',(75.999999981876,1.));
#1267 = CARTESIAN_POINT('',(-57.83183646675,1.));
#1268 = ( GEOMETRIC_REPRESENTATION_CONTEXT(2) 
PARAMETRIC_REPRESENTATION_CONTEXT() REPRESENTATION_CONTEXT('2D SPACE',''
  ) );
#1269 = PCURVE('',#1045,#1270);
#1270 = DEFINITIONAL_REPRESENTATION('',(#1271),#1275);
#1271 = LINE('',#1272,#1273);
#1272 = CARTESIAN_POINT('',(-60.61466075074,-183.7483191113));
#1273 = VECTOR('',#1274,1.);
#1274 = DIRECTION('',(1.,1.387778780781E-17));
#1275 = ( GEOMETRIC_REPRESENTATION_CONTEXT(2) 
PARAMETRIC_REPRESENTATION_CONTEXT() REPRESENTATION_CONTEXT('2D SPACE',''
  ) );
#1276 = ORIENTED_EDGE('',*,*,#1212,.F.);
#1277 = ADVANCED_FACE('',(#1278),#761,.T.);
#1278 = FACE_BOUND('',#1279,.T.);
#1279 = EDGE_LOOP('',(#1280,#1281,#1282));
#1280 = ORIENTED_EDGE('',*,*,#744,.F.);
#1281 = ORIENTED_EDGE('',*,*,#1233,.T.);
#1282 = ORIENTED_EDGE('',*,*,#1283,.T.);
#1283 = EDGE_CURVE('',#1213,#745,#1284,.T.);
#1284 = SURFACE_CURVE('',#1285,(#1289,#1295),.PCURVE_S1.);
#1285 = LINE('',#1286,#1287);
#1286 = CARTESIAN_POINT('',(1.01E+03,-75.,74.));
#1287 = VECTOR('',#1288,1.);
#1288 = DIRECTION('',(-0.998842014506,-3.995368058023E-03,
    4.794441669627E-02));
#1289 = PCURVE('',#761,#1290);
#1290 = DEFINITIONAL_REPRESENTATION('',(#1291),#1294);
#1291 = B_SPLINE_CURVE_WITH_KNOTS('',1,(#1292,#1293),.UNSPECIFIED.,.F.,
  .F.,(2,2),(0.,250.28983199483),.PIECEWISE_BEZIER_KNOTS.);
#1292 = CARTESIAN_POINT('',(0.,1.));
#1293 = CARTESIAN_POINT('',(0.,0.));
#1294 = ( GEOMETRIC_REPRESENTATION_CONTEXT(2) 
PARAMETRIC_REPRESENTATION_CONTEXT() REPRESENTATION_CONTEXT('2D SPACE',''
  ) );
#1295 = PCURVE('',#822,#1296);
#1296 = DEFINITIONAL_REPRESENTATION('',(#1297),#1301);
#1297 = LINE('',#1298,#1299);
#1298 = CARTESIAN_POINT('',(-125.4557713454,-75.));
#1299 = VECTOR('',#1300,1.);
#1300 = DIRECTION('',(0.999992018485,-3.995368058023E-03));
#1301 = ( GEOMETRIC_REPRESENTATION_CONTEXT(2) 
PARAMETRIC_REPRESENTATION_CONTEXT() REPRESENTATION_CONTEXT('2D SPACE',''
  ) );
#1302 = ADVANCED_FACE('',(#1303),#822,.F.);
#1303 = FACE_BOUND('',#1304,.F.);
#1304 = EDGE_LOOP('',(#1305,#1306,#1307,#1333));
#1305 = ORIENTED_EDGE('',*,*,#809,.T.);
#1306 = ORIENTED_EDGE('',*,*,#860,.T.);
#1307 = ORIENTED_EDGE('',*,*,#1308,.T.);
#1308 = EDGE_CURVE('',#840,#1213,#1309,.T.);
#1309 = SURFACE_CURVE('',#1310,(#1314,#1321),.PCURVE_S1.);
#1310 = LINE('',#1311,#1312);
#1311 = CARTESIAN_POINT('',(1.01E+03,75.,74.));
#1312 = VECTOR('',#1313,1.);
#1313 = DIRECTION('',(0.,-1.,0.));
#1314 = PCURVE('',#822,#1315);
#1315 = DEFINITIONAL_REPRESENTATION('',(#1316),#1320);
#1316 = LINE('',#1317,#1318);
#1317 = CARTESIAN_POINT('',(-125.4557713454,75.));
#1318 = VECTOR('',#1319,1.);
#1319 = DIRECTION('',(0.,-1.));
#1320 = ( GEOMETRIC_REPRESENTATION_CONTEXT(2) 
PARAMETRIC_REPRESENTATION_CONTEXT() REPRESENTATION_CONTEXT('2D SPACE',''
  ) );
#1321 = PCURVE('',#1322,#1327);
#1322 = PLANE('',#1323);
#1323 = AXIS2_PLACEMENT_3D('',#1324,#1325,#1326);
#1324 = CARTESIAN_POINT('',(1.188596365645E+03,-1.81197115404E-15,
    60.125030186573));
#1325 = DIRECTION('',(-7.745558888959E-02,0.,-0.996995803276));
#1326 = DIRECTION('',(-0.996995803276,0.,7.745558888959E-02));
#1327 = DEFINITIONAL_REPRESENTATION('',(#1328),#1332);
#1328 = LINE('',#1329,#1330);
#1329 = CARTESIAN_POINT('',(179.13452098603,75.));
#1330 = VECTOR('',#1331,1.);
#1331 = DIRECTION('',(0.,-1.));
#1332 = ( GEOMETRIC_REPRESENTATION_CONTEXT(2) 
PARAMETRIC_REPRESENTATION_CONTEXT() REPRESENTATION_CONTEXT('2D SPACE',''
  ) );
#1333 = ORIENTED_EDGE('',*,*,#1283,.T.);
#1334 = ADVANCED_FACE('',(#1335),#918,.F.);
#1335 = FACE_BOUND('',#1336,.F.);
#1336 = EDGE_LOOP('',(#1337,#1359,#1395,#1426,#1446,#1447));
#1337 = ORIENTED_EDGE('',*,*,#1338,.T.);
#1338 = EDGE_CURVE('',#962,#1339,#1341,.T.);
#1339 = VERTEX_POINT('',#1340);
#1340 = CARTESIAN_POINT('',(1.399030741822E+03,9.475548354244,
    37.389520348794));
#1341 = SURFACE_CURVE('',#1342,(#1346,#1353),.PCURVE_S1.);
#1342 = LINE('',#1343,#1344);
#1343 = CARTESIAN_POINT('',(1.01E+03,47.,-36.));
#1344 = VECTOR('',#1345,1.);
#1345 = DIRECTION('',(0.978282745984,-9.436149808021E-02,0.18455020073)
  );
#1346 = PCURVE('',#918,#1347);
#1347 = DEFINITIONAL_REPRESENTATION('',(#1348),#1352);
#1348 = LINE('',#1349,#1350);
#1349 = CARTESIAN_POINT('',(60.614660750744,-183.7483191113));
#1350 = VECTOR('',#1351,1.);
#1351 = DIRECTION('',(-0.155570051508,0.987824862551));
#1352 = ( GEOMETRIC_REPRESENTATION_CONTEXT(2) 
PARAMETRIC_REPRESENTATION_CONTEXT() REPRESENTATION_CONTEXT('2D SPACE',''
  ) );
#1353 = PCURVE('',#1147,#1354);
#1354 = DEFINITIONAL_REPRESENTATION('',(#1355),#1358);
#1355 = B_SPLINE_CURVE_WITH_KNOTS('',1,(#1356,#1357),.UNSPECIFIED.,.F.,
  .F.,(2,2),(0.,422.18061536196),.PIECEWISE_BEZIER_KNOTS.);
#1356 = CARTESIAN_POINT('',(20.477809086478,199.37378695577));
#1357 = CARTESIAN_POINT('',(4.540513029026,-222.505905115));
#1358 = ( GEOMETRIC_REPRESENTATION_CONTEXT(2) 
PARAMETRIC_REPRESENTATION_CONTEXT() REPRESENTATION_CONTEXT('2D SPACE',''
  ) );
#1359 = ORIENTED_EDGE('',*,*,#1360,.F.);
#1360 = EDGE_CURVE('',#1361,#1339,#1363,.T.);
#1361 = VERTEX_POINT('',#1362);
#1362 = CARTESIAN_POINT('',(1.4E+03,9.999999585558,39.999998371834));
#1363 = SURFACE_CURVE('',#1364,(#1369,#1380),.PCURVE_S1.);
#1364 = ELLIPSE('',#1365,4.167812981605,4.);
#1365 = AXIS2_PLACEMENT_3D('',#1366,#1367,#1368);
#1366 = CARTESIAN_POINT('',(1.396E+03,10.577902097902,40.));
#1367 = DIRECTION('',(0.138658356422,0.959735961679,-0.244296426609));
#1368 = DIRECTION('',(0.473740342703,-0.280903691431,-0.834663527318));
#1369 = PCURVE('',#918,#1370);
#1370 = DEFINITIONAL_REPRESENTATION('',(#1371),#1379);
#1371 = ( BOUNDED_CURVE() B_SPLINE_CURVE(2,(#1372,#1373,#1374,#1375,
#1376,#1377,#1378),.UNSPECIFIED.,.T.,.F.) B_SPLINE_CURVE_WITH_KNOTS((1,2
    ,2,2,2,1),(-2.094395102393,0.,2.094395102393,4.188790204786,
6.28318530718,8.377580409573),.UNSPECIFIED.) CURVE() 
GEOMETRIC_REPRESENTATION_ITEM() RATIONAL_B_SPLINE_CURVE((1.,0.5,1.,0.5,
1.,0.5,1.)) REPRESENTATION_ITEM('') );
#1372 = CARTESIAN_POINT('',(-0.392127630988,208.01042377985));
#1373 = CARTESIAN_POINT('',(2.922055842752,201.92633075768));
#1374 = CARTESIAN_POINT('',(-4.225065784179,201.97779736381));
#1375 = CARTESIAN_POINT('',(-11.3721874111,202.02926396994));
#1376 = CARTESIAN_POINT('',(-7.539249257918,208.06189038598));
#1377 = CARTESIAN_POINT('',(-3.706311104728,214.09451680202));
#1378 = CARTESIAN_POINT('',(-0.392127630988,208.01042377985));
#1379 = ( GEOMETRIC_REPRESENTATION_CONTEXT(2) 
PARAMETRIC_REPRESENTATION_CONTEXT() REPRESENTATION_CONTEXT('2D SPACE',''
  ) );
#1380 = PCURVE('',#1381,#1386);
#1381 = CYLINDRICAL_SURFACE('',#1382,4.);
#1382 = AXIS2_PLACEMENT_3D('',#1383,#1384,#1385);
#1383 = CARTESIAN_POINT('',(1.396E+03,7.16240467402,40.));
#1384 = DIRECTION('',(0.,-1.,0.));
#1385 = DIRECTION('',(7.745558888959E-02,0.,0.996995803276));
#1386 = DEFINITIONAL_REPRESENTATION('',(#1387),#1394);
#1387 = B_SPLINE_CURVE_WITH_KNOTS('',5,(#1388,#1389,#1390,#1391,#1392,
    #1393),.UNSPECIFIED.,.F.,.F.,(6,6),(3.735367802151,5.939667976673),
  .PIECEWISE_BEZIER_KNOTS.);
#1388 = CARTESIAN_POINT('',(5.684341886081E-14,-4.385858676268));
#1389 = CARTESIAN_POINT('',(-0.440860034904,-4.097082198743));
#1390 = CARTESIAN_POINT('',(-0.881717121318,-3.572561831488));
#1391 = CARTESIAN_POINT('',(-1.322585816718,-2.927670758294));
#1392 = CARTESIAN_POINT('',(-1.763440139618,-2.486979702246));
#1393 = CARTESIAN_POINT('',(-2.204300174522,-2.313143680224));
#1394 = ( GEOMETRIC_REPRESENTATION_CONTEXT(2) 
PARAMETRIC_REPRESENTATION_CONTEXT() REPRESENTATION_CONTEXT('2D SPACE',''
  ) );
#1395 = ORIENTED_EDGE('',*,*,#1396,.F.);
#1396 = EDGE_CURVE('',#1397,#1361,#1399,.T.);
#1397 = VERTEX_POINT('',#1398);
#1398 = CARTESIAN_POINT('',(1.396309822356E+03,11.548263350288,
    43.987983213104));
#1399 = SURFACE_CURVE('',#1400,(#1405,#1416),.PCURVE_S1.);
#1400 = ELLIPSE('',#1401,4.167812981605,4.);
#1401 = AXIS2_PLACEMENT_3D('',#1402,#1403,#1404);
#1402 = CARTESIAN_POINT('',(1.396E+03,10.577902097902,40.));
#1403 = DIRECTION('',(0.138658356422,0.959735961679,-0.244296426609));
#1404 = DIRECTION('',(0.473740342703,-0.280903691431,-0.834663527318));
#1405 = PCURVE('',#918,#1406);
#1406 = DEFINITIONAL_REPRESENTATION('',(#1407),#1415);
#1407 = ( BOUNDED_CURVE() B_SPLINE_CURVE(2,(#1408,#1409,#1410,#1411,
#1412,#1413,#1414),.UNSPECIFIED.,.T.,.F.) B_SPLINE_CURVE_WITH_KNOTS((1,2
    ,2,2,2,1),(-2.094395102393,0.,2.094395102393,4.188790204786,
6.28318530718,8.377580409573),.UNSPECIFIED.) CURVE() 
GEOMETRIC_REPRESENTATION_ITEM() RATIONAL_B_SPLINE_CURVE((1.,0.5,1.,0.5,
1.,0.5,1.)) REPRESENTATION_ITEM('') );
#1408 = CARTESIAN_POINT('',(-0.392127630988,208.01042377985));
#1409 = CARTESIAN_POINT('',(2.922055842752,201.92633075768));
#1410 = CARTESIAN_POINT('',(-4.225065784179,201.97779736381));
#1411 = CARTESIAN_POINT('',(-11.3721874111,202.02926396994));
#1412 = CARTESIAN_POINT('',(-7.539249257918,208.06189038598));
#1413 = CARTESIAN_POINT('',(-3.706311104728,214.09451680202));
#1414 = CARTESIAN_POINT('',(-0.392127630988,208.01042377985));
#1415 = ( GEOMETRIC_REPRESENTATION_CONTEXT(2) 
PARAMETRIC_REPRESENTATION_CONTEXT() REPRESENTATION_CONTEXT('2D SPACE',''
  ) );
#1416 = PCURVE('',#1381,#1417);
#1417 = DEFINITIONAL_REPRESENTATION('',(#1418),#1425);
#1418 = B_SPLINE_CURVE_WITH_KNOTS('',5,(#1419,#1420,#1421,#1422,#1423,
    #1424),.UNSPECIFIED.,.F.,.F.,(6,6),(3.735367802151,5.939667976673),
  .PIECEWISE_BEZIER_KNOTS.);
#1419 = CARTESIAN_POINT('',(5.684341886081E-14,-4.385858676268));
#1420 = CARTESIAN_POINT('',(-0.440860034904,-4.097082198743));
#1421 = CARTESIAN_POINT('',(-0.881717121318,-3.572561831488));
#1422 = CARTESIAN_POINT('',(-1.322585816718,-2.927670758294));
#1423 = CARTESIAN_POINT('',(-1.763440139618,-2.486979702246));
#1424 = CARTESIAN_POINT('',(-2.204300174522,-2.313143680224));
#1425 = ( GEOMETRIC_REPRESENTATION_CONTEXT(2) 
PARAMETRIC_REPRESENTATION_CONTEXT() REPRESENTATION_CONTEXT('2D SPACE',''
  ) );
#1426 = ORIENTED_EDGE('',*,*,#1427,.F.);
#1427 = EDGE_CURVE('',#840,#1397,#1428,.T.);
#1428 = SURFACE_CURVE('',#1429,(#1433,#1439),.PCURVE_S1.);
#1429 = LINE('',#1430,#1431);
#1430 = CARTESIAN_POINT('',(1.01E+03,75.,74.));
#1431 = VECTOR('',#1432,1.);
#1432 = DIRECTION('',(0.983890822609,-0.161604954768,-7.643747628407E-02
    ));
#1433 = PCURVE('',#918,#1434);
#1434 = DEFINITIONAL_REPRESENTATION('',(#1435),#1438);
#1435 = B_SPLINE_CURVE_WITH_KNOTS('',1,(#1436,#1437),.UNSPECIFIED.,.F.,
  .F.,(2,2),(0.,419.77422922044),.PIECEWISE_BEZIER_KNOTS.);
#1436 = CARTESIAN_POINT('',(-52.89304823855,-183.7483191113));
#1437 = CARTESIAN_POINT('',(-5.063999326854,233.29218923022));
#1438 = ( GEOMETRIC_REPRESENTATION_CONTEXT(2) 
PARAMETRIC_REPRESENTATION_CONTEXT() REPRESENTATION_CONTEXT('2D SPACE',''
  ) );
#1439 = PCURVE('',#1322,#1440);
#1440 = DEFINITIONAL_REPRESENTATION('',(#1441),#1445);
#1441 = LINE('',#1442,#1443);
#1442 = CARTESIAN_POINT('',(179.13452098603,75.));
#1443 = VECTOR('',#1444,1.);
#1444 = DIRECTION('',(-0.986855530761,-0.161604954768));
#1445 = ( GEOMETRIC_REPRESENTATION_CONTEXT(2) 
PARAMETRIC_REPRESENTATION_CONTEXT() REPRESENTATION_CONTEXT('2D SPACE',''
  ) );
#1446 = ORIENTED_EDGE('',*,*,#903,.T.);
#1447 = ORIENTED_EDGE('',*,*,#961,.T.);
#1448 = ADVANCED_FACE('',(#1449),#1045,.F.);
#1449 = FACE_BOUND('',#1450,.F.);
#1450 = EDGE_LOOP('',(#1451,#1473,#1500,#1527,#1547,#1548,#1549));
#1451 = ORIENTED_EDGE('',*,*,#1452,.F.);
#1452 = EDGE_CURVE('',#1453,#1213,#1455,.T.);
#1453 = VERTEX_POINT('',#1454);
#1454 = CARTESIAN_POINT('',(1.396309822356E+03,-11.54826335028,
    43.987983213104));
#1455 = SURFACE_CURVE('',#1456,(#1460,#1466),.PCURVE_S1.);
#1456 = LINE('',#1457,#1458);
#1457 = CARTESIAN_POINT('',(1.423012011698E+03,-7.16240467402,
    41.913517309298));
#1458 = VECTOR('',#1459,1.);
#1459 = DIRECTION('',(-0.983890822609,-0.161604954768,7.643747628407E-02
    ));
#1460 = PCURVE('',#1045,#1461);
#1461 = DEFINITIONAL_REPRESENTATION('',(#1462),#1465);
#1462 = B_SPLINE_CURVE_WITH_KNOTS('',1,(#1463,#1464),.UNSPECIFIED.,.F.,
  .F.,(2,2),(0.,419.77422922044),.PIECEWISE_BEZIER_KNOTS.);
#1463 = CARTESIAN_POINT('',(5.063999326854,233.29218923022));
#1464 = CARTESIAN_POINT('',(52.893048238558,-183.7483191113));
#1465 = ( GEOMETRIC_REPRESENTATION_CONTEXT(2) 
PARAMETRIC_REPRESENTATION_CONTEXT() REPRESENTATION_CONTEXT('2D SPACE',''
  ) );
#1466 = PCURVE('',#1322,#1467);
#1467 = DEFINITIONAL_REPRESENTATION('',(#1468),#1472);
#1468 = LINE('',#1469,#1470);
#1469 = CARTESIAN_POINT('',(-235.1219987912,-7.16240467402));
#1470 = VECTOR('',#1471,1.);
#1471 = DIRECTION('',(0.986855530761,-0.161604954768));
#1472 = ( GEOMETRIC_REPRESENTATION_CONTEXT(2) 
PARAMETRIC_REPRESENTATION_CONTEXT() REPRESENTATION_CONTEXT('2D SPACE',''
  ) );
#1473 = ORIENTED_EDGE('',*,*,#1474,.T.);
#1474 = EDGE_CURVE('',#1453,#1475,#1477,.T.);
#1475 = VERTEX_POINT('',#1476);
#1476 = CARTESIAN_POINT('',(1.4E+03,-10.00000053771,40.000002112436));
#1477 = SURFACE_CURVE('',#1478,(#1483,#1490),.PCURVE_S1.);
#1478 = ELLIPSE('',#1479,4.167812981605,4.);
#1479 = AXIS2_PLACEMENT_3D('',#1480,#1481,#1482);
#1480 = CARTESIAN_POINT('',(1.396E+03,-10.5779020979,40.));
#1481 = DIRECTION('',(-0.138658356422,0.959735961679,0.244296426609));
#1482 = DIRECTION('',(-0.473740342703,-0.280903691431,0.834663527318));
#1483 = PCURVE('',#1045,#1484);
#1484 = DEFINITIONAL_REPRESENTATION('',(#1485),#1489);
#1485 = ELLIPSE('',#1486,4.167812981605,4.);
#1486 = AXIS2_PLACEMENT_2D('',#1487,#1488);
#1487 = CARTESIAN_POINT('',(4.052147557695,206.01670384321));
#1488 = DIRECTION('',(0.878163186031,-0.478361180177));
#1489 = ( GEOMETRIC_REPRESENTATION_CONTEXT(2) 
PARAMETRIC_REPRESENTATION_CONTEXT() REPRESENTATION_CONTEXT('2D SPACE',''
  ) );
#1490 = PCURVE('',#1381,#1491);
#1491 = DEFINITIONAL_REPRESENTATION('',(#1492),#1499);
#1492 = B_SPLINE_CURVE_WITH_KNOTS('',5,(#1493,#1494,#1495,#1496,#1497,
    #1498),.UNSPECIFIED.,.F.,.F.,(6,6),(0.593775148561,2.798075323083),
  .PIECEWISE_BEZIER_KNOTS.);
#1493 = CARTESIAN_POINT('',(5.695444116327E-14,18.710668024307));
#1494 = CARTESIAN_POINT('',(-0.440860034904,18.421891546783));
#1495 = CARTESIAN_POINT('',(-0.881717121318,17.897371179528));
#1496 = CARTESIAN_POINT('',(-1.322585816717,17.252480106333));
#1497 = CARTESIAN_POINT('',(-1.763440139618,16.811789050286));
#1498 = CARTESIAN_POINT('',(-2.204300174522,16.637953028264));
#1499 = ( GEOMETRIC_REPRESENTATION_CONTEXT(2) 
PARAMETRIC_REPRESENTATION_CONTEXT() REPRESENTATION_CONTEXT('2D SPACE',''
  ) );
#1500 = ORIENTED_EDGE('',*,*,#1501,.T.);
#1501 = EDGE_CURVE('',#1475,#1502,#1504,.T.);
#1502 = VERTEX_POINT('',#1503);
#1503 = CARTESIAN_POINT('',(1.399030741822E+03,-9.475548354244,
    37.389520348794));
#1504 = SURFACE_CURVE('',#1505,(#1510,#1517),.PCURVE_S1.);
#1505 = ELLIPSE('',#1506,4.167812981605,4.);
#1506 = AXIS2_PLACEMENT_3D('',#1507,#1508,#1509);
#1507 = CARTESIAN_POINT('',(1.396E+03,-10.5779020979,40.));
#1508 = DIRECTION('',(-0.138658356422,0.959735961679,0.244296426609));
#1509 = DIRECTION('',(-0.473740342703,-0.280903691431,0.834663527318));
#1510 = PCURVE('',#1045,#1511);
#1511 = DEFINITIONAL_REPRESENTATION('',(#1512),#1516);
#1512 = ELLIPSE('',#1513,4.167812981605,4.);
#1513 = AXIS2_PLACEMENT_2D('',#1514,#1515);
#1514 = CARTESIAN_POINT('',(4.052147557695,206.01670384321));
#1515 = DIRECTION('',(0.878163186031,-0.478361180177));
#1516 = ( GEOMETRIC_REPRESENTATION_CONTEXT(2) 
PARAMETRIC_REPRESENTATION_CONTEXT() REPRESENTATION_CONTEXT('2D SPACE',''
  ) );
#1517 = PCURVE('',#1381,#1518);
#1518 = DEFINITIONAL_REPRESENTATION('',(#1519),#1526);
#1519 = B_SPLINE_CURVE_WITH_KNOTS('',5,(#1520,#1521,#1522,#1523,#1524,
    #1525),.UNSPECIFIED.,.F.,.F.,(6,6),(0.593775148561,2.798075323083),
  .PIECEWISE_BEZIER_KNOTS.);
#1520 = CARTESIAN_POINT('',(5.695444116327E-14,18.710668024307));
#1521 = CARTESIAN_POINT('',(-0.440860034904,18.421891546783));
#1522 = CARTESIAN_POINT('',(-0.881717121318,17.897371179528));
#1523 = CARTESIAN_POINT('',(-1.322585816717,17.252480106333));
#1524 = CARTESIAN_POINT('',(-1.763440139618,16.811789050286));
#1525 = CARTESIAN_POINT('',(-2.204300174522,16.637953028264));
#1526 = ( GEOMETRIC_REPRESENTATION_CONTEXT(2) 
PARAMETRIC_REPRESENTATION_CONTEXT() REPRESENTATION_CONTEXT('2D SPACE',''
  ) );
#1527 = ORIENTED_EDGE('',*,*,#1528,.F.);
#1528 = EDGE_CURVE('',#1009,#1502,#1529,.T.);
#1529 = SURFACE_CURVE('',#1530,(#1534,#1540),.PCURVE_S1.);
#1530 = LINE('',#1531,#1532);
#1531 = CARTESIAN_POINT('',(1.01E+03,-47.,-36.));
#1532 = VECTOR('',#1533,1.);
#1533 = DIRECTION('',(0.978282745984,9.436149808021E-02,0.18455020073));
#1534 = PCURVE('',#1045,#1535);
#1535 = DEFINITIONAL_REPRESENTATION('',(#1536),#1539);
#1536 = B_SPLINE_CURVE_WITH_KNOTS('',1,(#1537,#1538),.UNSPECIFIED.,.F.,
  .F.,(2,2),(0.,422.18061536196),.PIECEWISE_BEZIER_KNOTS.);
#1537 = CARTESIAN_POINT('',(-60.61466075074,-183.7483191113));
#1538 = CARTESIAN_POINT('',(5.063999326854,233.29218923022));
#1539 = ( GEOMETRIC_REPRESENTATION_CONTEXT(2) 
PARAMETRIC_REPRESENTATION_CONTEXT() REPRESENTATION_CONTEXT('2D SPACE',''
  ) );
#1540 = PCURVE('',#1116,#1541);
#1541 = DEFINITIONAL_REPRESENTATION('',(#1542),#1546);
#1542 = LINE('',#1543,#1544);
#1543 = CARTESIAN_POINT('',(-20.47780908647,199.37378695577));
#1544 = VECTOR('',#1545,1.);
#1545 = DIRECTION('',(3.77499474811E-02,-0.999287216703));
#1546 = ( GEOMETRIC_REPRESENTATION_CONTEXT(2) 
PARAMETRIC_REPRESENTATION_CONTEXT() REPRESENTATION_CONTEXT('2D SPACE',''
  ) );
#1547 = ORIENTED_EDGE('',*,*,#1030,.T.);
#1548 = ORIENTED_EDGE('',*,*,#1165,.T.);
#1549 = ORIENTED_EDGE('',*,*,#1257,.T.);
#1550 = ADVANCED_FACE('',(#1551),#1116,.F.);
#1551 = FACE_BOUND('',#1552,.F.);
#1552 = EDGE_LOOP('',(#1553,#1554,#1581,#1606));
#1553 = ORIENTED_EDGE('',*,*,#1528,.T.);
#1554 = ORIENTED_EDGE('',*,*,#1555,.T.);
#1555 = EDGE_CURVE('',#1502,#1556,#1558,.T.);
#1556 = VERTEX_POINT('',#1557);
#1557 = CARTESIAN_POINT('',(1.396868920593E+03,-6.70903432978,
    36.095518343954));
#1558 = SURFACE_CURVE('',#1559,(#1564,#1571),.PCURVE_S1.);
#1559 = ELLIPSE('',#1560,14.312497830496,4.);
#1560 = AXIS2_PLACEMENT_3D('',#1561,#1562,#1563);
#1561 = CARTESIAN_POINT('',(1.396E+03,-20.45105053416,40.));
#1562 = DIRECTION('',(-0.203953643411,0.279476024896,0.938240940722));
#1563 = DIRECTION('',(-5.936571885803E-02,-0.960152670937,0.273098077467
    ));
#1564 = PCURVE('',#1116,#1565);
#1565 = DEFINITIONAL_REPRESENTATION('',(#1566),#1570);
#1566 = ELLIPSE('',#1567,14.312497830496,4.);
#1567 = AXIS2_PLACEMENT_2D('',#1568,#1569);
#1568 = CARTESIAN_POINT('',(-16.72989658577,-194.9139250891));
#1569 = DIRECTION('',(-0.998159680846,6.064034575761E-02));
#1570 = ( GEOMETRIC_REPRESENTATION_CONTEXT(2) 
PARAMETRIC_REPRESENTATION_CONTEXT() REPRESENTATION_CONTEXT('2D SPACE',''
  ) );
#1571 = PCURVE('',#1381,#1572);
#1572 = DEFINITIONAL_REPRESENTATION('',(#1573),#1580);
#1573 = B_SPLINE_CURVE_WITH_KNOTS('',5,(#1574,#1575,#1576,#1577,#1578,
    #1579),.UNSPECIFIED.,.F.,.F.,(6,6),(2.495882116925,3.136665392357),
  .PIECEWISE_BEZIER_KNOTS.);
#1574 = CARTESIAN_POINT('',(-2.204300174522,16.637953028245));
#1575 = CARTESIAN_POINT('',(-2.332456829608,15.578151373275));
#1576 = CARTESIAN_POINT('',(-2.460613568783,14.743652561581));
#1577 = CARTESIAN_POINT('',(-2.588770354707,14.170890239295));
#1578 = CARTESIAN_POINT('',(-2.716926794868,13.880116625694));
#1579 = CARTESIAN_POINT('',(-2.845083449954,13.8714390038));
#1580 = ( GEOMETRIC_REPRESENTATION_CONTEXT(2) 
PARAMETRIC_REPRESENTATION_CONTEXT() REPRESENTATION_CONTEXT('2D SPACE',''
  ) );
#1581 = ORIENTED_EDGE('',*,*,#1582,.F.);
#1582 = EDGE_CURVE('',#1082,#1556,#1583,.T.);
#1583 = SURFACE_CURVE('',#1584,(#1588,#1594),.PCURVE_S1.);
#1584 = LINE('',#1585,#1586);
#1585 = CARTESIAN_POINT('',(1.01E+03,0.,-50.));
#1586 = VECTOR('',#1587,1.);
#1587 = DIRECTION('',(0.975980590819,-1.69253381196E-02,0.217199031474)
  );
#1588 = PCURVE('',#1116,#1589);
#1589 = DEFINITIONAL_REPRESENTATION('',(#1590),#1593);
#1590 = B_SPLINE_CURVE_WITH_KNOTS('',1,(#1591,#1592),.UNSPECIFIED.,.F.,
  .F.,(2,2),(0.,423.17646025201),.PIECEWISE_BEZIER_KNOTS.);
#1591 = CARTESIAN_POINT('',(28.562990254479,199.37378695577));
#1592 = CARTESIAN_POINT('',(-4.540513029026,-222.505905115));
#1593 = ( GEOMETRIC_REPRESENTATION_CONTEXT(2) 
PARAMETRIC_REPRESENTATION_CONTEXT() REPRESENTATION_CONTEXT('2D SPACE',''
  ) );
#1594 = PCURVE('',#1595,#1600);
#1595 = PLANE('',#1596);
#1596 = AXIS2_PLACEMENT_3D('',#1597,#1598,#1599);
#1597 = CARTESIAN_POINT('',(1.219943017242E+03,-4.825287804009E-16,
    -3.278353649123));
#1598 = DIRECTION('',(-0.217230148345,-5.805391654898E-16,0.976120414012
    ));
#1599 = DIRECTION('',(0.976120414012,0.,0.217230148345));
#1600 = DEFINITIONAL_REPRESENTATION('',(#1601),#1605);
#1601 = LINE('',#1602,#1603);
#1602 = CARTESIAN_POINT('',(-215.0790150764,4.825287804009E-16));
#1603 = VECTOR('',#1604,1.);
#1604 = DIRECTION('',(0.999856756205,-1.69253381196E-02));
#1605 = ( GEOMETRIC_REPRESENTATION_CONTEXT(2) 
PARAMETRIC_REPRESENTATION_CONTEXT() REPRESENTATION_CONTEXT('2D SPACE',''
  ) );
#1606 = ORIENTED_EDGE('',*,*,#1103,.T.);
#1607 = ADVANCED_FACE('',(#1608),#1147,.F.);
#1608 = FACE_BOUND('',#1609,.F.);
#1609 = EDGE_LOOP('',(#1610,#1632,#1661,#1662));
#1610 = ORIENTED_EDGE('',*,*,#1611,.T.);
#1611 = EDGE_CURVE('',#1082,#1612,#1614,.T.);
#1612 = VERTEX_POINT('',#1613);
#1613 = CARTESIAN_POINT('',(1.396868920593E+03,6.70903432978,
    36.095518343954));
#1614 = SURFACE_CURVE('',#1615,(#1619,#1626),.PCURVE_S1.);
#1615 = LINE('',#1616,#1617);
#1616 = CARTESIAN_POINT('',(1.01E+03,0.,-50.));
#1617 = VECTOR('',#1618,1.);
#1618 = DIRECTION('',(0.975980590819,1.69253381196E-02,0.217199031474));
#1619 = PCURVE('',#1147,#1620);
#1620 = DEFINITIONAL_REPRESENTATION('',(#1621),#1625);
#1621 = LINE('',#1622,#1623);
#1622 = CARTESIAN_POINT('',(-28.56299025447,199.37378695577));
#1623 = VECTOR('',#1624,1.);
#1624 = DIRECTION('',(7.822623986171E-02,-0.996935632525));
#1625 = ( GEOMETRIC_REPRESENTATION_CONTEXT(2) 
PARAMETRIC_REPRESENTATION_CONTEXT() REPRESENTATION_CONTEXT('2D SPACE',''
  ) );
#1626 = PCURVE('',#1595,#1627);
#1627 = DEFINITIONAL_REPRESENTATION('',(#1628),#1631);
#1628 = B_SPLINE_CURVE_WITH_KNOTS('',1,(#1629,#1630),.UNSPECIFIED.,.F.,
  .F.,(2,2),(0.,423.17646025201),.PIECEWISE_BEZIER_KNOTS.);
#1629 = CARTESIAN_POINT('',(-215.0790150764,1.7763568394E-15));
#1630 = CARTESIAN_POINT('',(208.03682777363,7.16240467402));
#1631 = ( GEOMETRIC_REPRESENTATION_CONTEXT(2) 
PARAMETRIC_REPRESENTATION_CONTEXT() REPRESENTATION_CONTEXT('2D SPACE',''
  ) );
#1632 = ORIENTED_EDGE('',*,*,#1633,.F.);
#1633 = EDGE_CURVE('',#1339,#1612,#1634,.T.);
#1634 = SURFACE_CURVE('',#1635,(#1640,#1651),.PCURVE_S1.);
#1635 = ELLIPSE('',#1636,14.312497830496,4.);
#1636 = AXIS2_PLACEMENT_3D('',#1637,#1638,#1639);
#1637 = CARTESIAN_POINT('',(1.396E+03,20.45105053416,40.));
#1638 = DIRECTION('',(0.203953643411,0.279476024896,-0.938240940722));
#1639 = DIRECTION('',(5.936571885803E-02,-0.960152670937,-0.273098077467
    ));
#1640 = PCURVE('',#1147,#1641);
#1641 = DEFINITIONAL_REPRESENTATION('',(#1642),#1650);
#1642 = ( BOUNDED_CURVE() B_SPLINE_CURVE(2,(#1643,#1644,#1645,#1646,
#1647,#1648,#1649),.UNSPECIFIED.,.T.,.F.) B_SPLINE_CURVE_WITH_KNOTS((1,2
    ,2,2,2,1),(-2.094395102393,0.,2.094395102393,4.188790204786,
6.28318530718,8.377580409573),.UNSPECIFIED.) CURVE() 
GEOMETRIC_REPRESENTATION_ITEM() RATIONAL_B_SPLINE_CURVE((1.,0.5,1.,0.5,
1.,0.5,1.)) REPRESENTATION_ITEM('') );
#1643 = CARTESIAN_POINT('',(2.443738319177,-195.7818399062));
#1644 = CARTESIAN_POINT('',(2.023609679815,-188.866386781));
#1645 = CARTESIAN_POINT('',(23.66291139939,-191.022241118));
#1646 = CARTESIAN_POINT('',(45.302213118965,-193.1780954549));
#1647 = CARTESIAN_POINT('',(24.083040038753,-197.9376942431));
#1648 = CARTESIAN_POINT('',(2.86386695854,-202.6972930314));
#1649 = CARTESIAN_POINT('',(2.443738319177,-195.7818399062));
#1650 = ( GEOMETRIC_REPRESENTATION_CONTEXT(2) 
PARAMETRIC_REPRESENTATION_CONTEXT() REPRESENTATION_CONTEXT('2D SPACE',''
  ) );
#1651 = PCURVE('',#1381,#1652);
#1652 = DEFINITIONAL_REPRESENTATION('',(#1653),#1660);
#1653 = B_SPLINE_CURVE_WITH_KNOTS('',5,(#1654,#1655,#1656,#1657,#1658,
    #1659),.UNSPECIFIED.,.F.,.F.,(6,6),(5.637474770515,6.278258045947),
  .PIECEWISE_BEZIER_KNOTS.);
#1654 = CARTESIAN_POINT('',(-2.204300174522,-2.313143680205));
#1655 = CARTESIAN_POINT('',(-2.332456829608,-1.253342025235));
#1656 = CARTESIAN_POINT('',(-2.460613568783,-0.418843213541));
#1657 = CARTESIAN_POINT('',(-2.588770354707,0.153919108745));
#1658 = CARTESIAN_POINT('',(-2.716926794868,0.444692722346));
#1659 = CARTESIAN_POINT('',(-2.845083449954,0.45337034424));
#1660 = ( GEOMETRIC_REPRESENTATION_CONTEXT(2) 
PARAMETRIC_REPRESENTATION_CONTEXT() REPRESENTATION_CONTEXT('2D SPACE',''
  ) );
#1661 = ORIENTED_EDGE('',*,*,#1338,.F.);
#1662 = ORIENTED_EDGE('',*,*,#1134,.T.);
#1663 = ADVANCED_FACE('',(#1664),#1322,.F.);
#1664 = FACE_BOUND('',#1665,.F.);
#1665 = EDGE_LOOP('',(#1666,#1667,#1688,#1689));
#1666 = ORIENTED_EDGE('',*,*,#1427,.T.);
#1667 = ORIENTED_EDGE('',*,*,#1668,.T.);
#1668 = EDGE_CURVE('',#1397,#1453,#1669,.T.);
#1669 = SURFACE_CURVE('',#1670,(#1674,#1681),.PCURVE_S1.);
#1670 = LINE('',#1671,#1672);
#1671 = CARTESIAN_POINT('',(1.396309822356E+03,7.16240467402,
    43.987983213104));
#1672 = VECTOR('',#1673,1.);
#1673 = DIRECTION('',(0.,-1.,0.));
#1674 = PCURVE('',#1322,#1675);
#1675 = DEFINITIONAL_REPRESENTATION('',(#1676),#1680);
#1676 = LINE('',#1677,#1678);
#1677 = CARTESIAN_POINT('',(-208.3393491007,7.16240467402));
#1678 = VECTOR('',#1679,1.);
#1679 = DIRECTION('',(0.,-1.));
#1680 = ( GEOMETRIC_REPRESENTATION_CONTEXT(2) 
PARAMETRIC_REPRESENTATION_CONTEXT() REPRESENTATION_CONTEXT('2D SPACE',''
  ) );
#1681 = PCURVE('',#1381,#1682);
#1682 = DEFINITIONAL_REPRESENTATION('',(#1683),#1687);
#1683 = LINE('',#1684,#1685);
#1684 = CARTESIAN_POINT('',(0.,0.));
#1685 = VECTOR('',#1686,1.);
#1686 = DIRECTION('',(0.,1.));
#1687 = ( GEOMETRIC_REPRESENTATION_CONTEXT(2) 
PARAMETRIC_REPRESENTATION_CONTEXT() REPRESENTATION_CONTEXT('2D SPACE',''
  ) );
#1688 = ORIENTED_EDGE('',*,*,#1452,.T.);
#1689 = ORIENTED_EDGE('',*,*,#1308,.F.);
#1690 = ADVANCED_FACE('',(#1691),#1381,.T.);
#1691 = FACE_BOUND('',#1692,.F.);
#1692 = EDGE_LOOP('',(#1693,#1694,#1695,#1696,#1697,#1718,#1719,#1720));
#1693 = ORIENTED_EDGE('',*,*,#1668,.F.);
#1694 = ORIENTED_EDGE('',*,*,#1396,.T.);
#1695 = ORIENTED_EDGE('',*,*,#1360,.T.);
#1696 = ORIENTED_EDGE('',*,*,#1633,.T.);
#1697 = ORIENTED_EDGE('',*,*,#1698,.T.);
#1698 = EDGE_CURVE('',#1612,#1556,#1699,.T.);
#1699 = SURFACE_CURVE('',#1700,(#1704,#1711),.PCURVE_S1.);
#1700 = LINE('',#1701,#1702);
#1701 = CARTESIAN_POINT('',(1.396868920593E+03,7.16240467402,
    36.095518343954));
#1702 = VECTOR('',#1703,1.);
#1703 = DIRECTION('',(0.,-1.,0.));
#1704 = PCURVE('',#1381,#1705);
#1705 = DEFINITIONAL_REPRESENTATION('',(#1706),#1710);
#1706 = LINE('',#1707,#1708);
#1707 = CARTESIAN_POINT('',(-2.845083449954,0.));
#1708 = VECTOR('',#1709,1.);
#1709 = DIRECTION('',(0.,1.));
#1710 = ( GEOMETRIC_REPRESENTATION_CONTEXT(2) 
PARAMETRIC_REPRESENTATION_CONTEXT() REPRESENTATION_CONTEXT('2D SPACE',''
  ) );
#1711 = PCURVE('',#1595,#1712);
#1712 = DEFINITIONAL_REPRESENTATION('',(#1713),#1717);
#1713 = LINE('',#1714,#1715);
#1714 = CARTESIAN_POINT('',(181.25417808306,7.16240467402));
#1715 = VECTOR('',#1716,1.);
#1716 = DIRECTION('',(0.,-1.));
#1717 = ( GEOMETRIC_REPRESENTATION_CONTEXT(2) 
PARAMETRIC_REPRESENTATION_CONTEXT() REPRESENTATION_CONTEXT('2D SPACE',''
  ) );
#1718 = ORIENTED_EDGE('',*,*,#1555,.F.);
#1719 = ORIENTED_EDGE('',*,*,#1501,.F.);
#1720 = ORIENTED_EDGE('',*,*,#1474,.F.);
#1721 = ADVANCED_FACE('',(#1722),#1595,.F.);
#1722 = FACE_BOUND('',#1723,.F.);
#1723 = EDGE_LOOP('',(#1724,#1725,#1726));
#1724 = ORIENTED_EDGE('',*,*,#1582,.T.);
#1725 = ORIENTED_EDGE('',*,*,#1698,.F.);
#1726 = ORIENTED_EDGE('',*,*,#1611,.F.);
#1727 = ( GEOMETRIC_REPRESENTATION_CONTEXT(3) 
GLOBAL_UNCERTAINTY_ASSIGNED_CONTEXT((#1731)) 
GLOBAL_UNIT_ASSIGNED_CONTEXT((#1728,#1729,#1730)) REPRESENTATION_CONTEXT
('Context #1','3D Context with UNIT and UNCERTAINTY') );
#1728 = ( LENGTH_UNIT() NAMED_UNIT(*) SI_UNIT(.MILLI.,.METRE.) );
#1729 = ( NAMED_UNIT(*) PLANE_ANGLE_UNIT() SI_UNIT($,.RADIAN.) );
#1730 = ( NAMED_UNIT(*) SI_UNIT($,.STERADIAN.) SOLID_ANGLE_UNIT() );
#1731 = UNCERTAINTY_MEASURE_WITH_UNIT(LENGTH_MEASURE(1.E-05),#1728,
  'distance_accuracy_value','confusion accuracy');
#1732 = CONTEXT_DEPENDENT_SHAPE_REPRESENTATION(#1733,#1735);
#1733 = ( REPRESENTATION_RELATIONSHIP('','',#32,#10) 
REPRESENTATION_RELATIONSHIP_WITH_TRANSFORMATION(#1734) 
SHAPE_REPRESENTATION_RELATIONSHIP() );
#1734 = ITEM_DEFINED_TRANSFORMATION('','',#11,#15);
#1735 = PRODUCT_DEFINITION_SHAPE('Placement','Placement of an item',
  #1736);
#1736 = NEXT_ASSEMBLY_USAGE_OCCURRENCE('1','=>[0:1:1:2]','',#5,#27,$);
#1737 = PRODUCT_RELATED_PRODUCT_CATEGORY('part',$,(#29));
#1738 = MECHANICAL_DESIGN_GEOMETRIC_PRESENTATION_REPRESENTATION('',(
    #1739),#1727);
#1739 = STYLED_ITEM('color',(#1740),#33);
#1740 = PRESENTATION_STYLE_ASSIGNMENT((#1741));
#1741 = SURFACE_STYLE_USAGE(.BOTH.,#1742);
#1742 = SURFACE_SIDE_STYLE('',(#1743));
#1743 = SURFACE_STYLE_FILL_AREA(#1744);
#1744 = FILL_AREA_STYLE('',(#1745));
#1745 = FILL_AREA_STYLE_COLOUR('',#1746);
#1746 = COLOUR_RGB('',0.654901934349,0.705882339664,0.737254912529);
ENDSEC;
END-ISO-10303-21;
