ISO-10303-21;
HEADER;
FILE_DESCRIPTION(('Open CASCADE Model'),'2;1');
FILE_NAME('J_Symmetric_Body_R7_Close','2000-01-01T00:00:00',('Author'),(
    'Open CASCADE'),'Open CASCADE STEP processor 7.9','cadgen','Unknown'
  );
FILE_SCHEMA(('AUTOMOTIVE_DESIGN { 1 0 10303 214 1 1 1 1 }'));
ENDSEC;
DATA;
#1 = APPLICATION_PROTOCOL_DEFINITION('international standard',
  'automotive_design',2000,#2);
#2 = APPLICATION_CONTEXT(
  'core data for automotive mechanical design processes');
#3 = SHAPE_DEFINITION_REPRESENTATION(#4,#10);
#4 = PRODUCT_DEFINITION_SHAPE('','',#5);
#5 = PRODUCT_DEFINITION('design','',#6,#9);
#6 = PRODUCT_DEFINITION_FORMATION('','',#7);
#7 = PRODUCT('=>[0:1:1:2]','=>[0:1:1:2]','',(#8));
#8 = PRODUCT_CONTEXT('',#2,'mechanical');
#9 = PRODUCT_DEFINITION_CONTEXT('part definition',#2,'design');
#10 = SHAPE_REPRESENTATION('',(#11,#15),#19);
#11 = AXIS2_PLACEMENT_3D('',#12,#13,#14);
#12 = CARTESIAN_POINT('',(0.,0.,0.));
#13 = DIRECTION('',(0.,0.,1.));
#14 = DIRECTION('',(1.,0.,0.));
#15 = AXIS2_PLACEMENT_3D('',#16,#17,#18);
#16 = CARTESIAN_POINT('',(0.,0.,0.));
#17 = DIRECTION('',(0.,0.,1.));
#18 = DIRECTION('',(1.,0.,0.));
#19 = ( GEOMETRIC_REPRESENTATION_CONTEXT(3) 
GLOBAL_UNCERTAINTY_ASSIGNED_CONTEXT((#23)) GLOBAL_UNIT_ASSIGNED_CONTEXT(
(#20,#21,#22)) REPRESENTATION_CONTEXT('Context #1',
  '3D Context with UNIT and UNCERTAINTY') );
#20 = ( LENGTH_UNIT() NAMED_UNIT(*) SI_UNIT(.MILLI.,.METRE.) );
#21 = ( NAMED_UNIT(*) PLANE_ANGLE_UNIT() SI_UNIT($,.RADIAN.) );
#22 = ( NAMED_UNIT(*) SI_UNIT($,.STERADIAN.) SOLID_ANGLE_UNIT() );
#23 = UNCERTAINTY_MEASURE_WITH_UNIT(LENGTH_MEASURE(1.E-05),#20,
  'distance_accuracy_value','confusion accuracy');
#24 = PRODUCT_RELATED_PRODUCT_CATEGORY('part',$,(#7));
#25 = SHAPE_DEFINITION_REPRESENTATION(#26,#32);
#26 = PRODUCT_DEFINITION_SHAPE('','',#27);
#27 = PRODUCT_DEFINITION('design','',#28,#31);
#28 = PRODUCT_DEFINITION_FORMATION('','',#29);
#29 = PRODUCT('J_Symmetric_Body_R7_Close','J_Symmetric_Body_R7_Close',''
  ,(#30));
#30 = PRODUCT_CONTEXT('',#2,'mechanical');
#31 = PRODUCT_DEFINITION_CONTEXT('part definition',#2,'design');
#32 = ADVANCED_BREP_SHAPE_REPRESENTATION('',(#11,#33),#1658);
#33 = MANIFOLD_SOLID_BREP('',#34);
#34 = CLOSED_SHELL('',(#35,#263,#359,#424,#502,#567,#646,#712,#763,#810,
    #882,#906,#954,#1005,#1057,#1110,#1156,#1180,#1205,#1256,#1262,#1376
    ,#1438,#1513,#1594,#1621,#1652));
#35 = ADVANCED_FACE('',(#36),#50,.F.);
#36 = FACE_BOUND('',#37,.F.);
#37 = EDGE_LOOP('',(#38,#71,#100,#126,#155,#181,#210,#236));
#38 = ORIENTED_EDGE('',*,*,#39,.T.);
#39 = EDGE_CURVE('',#40,#42,#44,.T.);
#40 = VERTEX_POINT('',#41);
#41 = CARTESIAN_POINT('',(550.,85.99999999094,-76.));
#42 = VERTEX_POINT('',#43);
#43 = CARTESIAN_POINT('',(550.,85.99999999094,76.));
#44 = SURFACE_CURVE('',#45,(#49,#60),.PCURVE_S1.);
#45 = LINE('',#46,#47);
#46 = CARTESIAN_POINT('',(550.,86.000000000002,-100.));
#47 = VECTOR('',#48,1.);
#48 = DIRECTION('',(0.,0.,1.));
#49 = PCURVE('',#50,#55);
#50 = PLANE('',#51);
#51 = AXIS2_PLACEMENT_3D('',#52,#53,#54);
#52 = CARTESIAN_POINT('',(550.,-200.,-200.));
#53 = DIRECTION('',(1.,0.,0.));
#54 = DIRECTION('',(0.,0.,1.));
#55 = DEFINITIONAL_REPRESENTATION('',(#56),#59);
#56 = B_SPLINE_CURVE_WITH_KNOTS('',1,(#57,#58),.UNSPECIFIED.,.F.,.F.,(2,
    2),(24.,176.),.PIECEWISE_BEZIER_KNOTS.);
#57 = CARTESIAN_POINT('',(124.,-286.));
#58 = CARTESIAN_POINT('',(276.,-286.));
#59 = ( GEOMETRIC_REPRESENTATION_CONTEXT(2) 
PARAMETRIC_REPRESENTATION_CONTEXT() REPRESENTATION_CONTEXT('2D SPACE',''
  ) );
#60 = PCURVE('',#61,#66);
#61 = PLANE('',#62);
#62 = AXIS2_PLACEMENT_3D('',#63,#64,#65);
#63 = CARTESIAN_POINT('',(760.,86.000000000002,0.));
#64 = DIRECTION('',(0.,1.,0.));
#65 = DIRECTION('',(-1.110223024625E-16,0.,1.));
#66 = DEFINITIONAL_REPRESENTATION('',(#67),#70);
#67 = B_SPLINE_CURVE_WITH_KNOTS('',1,(#68,#69),.UNSPECIFIED.,.F.,.F.,(2,
    2),(24.,176.),.PIECEWISE_BEZIER_KNOTS.);
#68 = CARTESIAN_POINT('',(-76.,-210.));
#69 = CARTESIAN_POINT('',(76.,-210.));
#70 = ( GEOMETRIC_REPRESENTATION_CONTEXT(2) 
PARAMETRIC_REPRESENTATION_CONTEXT() REPRESENTATION_CONTEXT('2D SPACE',''
  ) );
#71 = ORIENTED_EDGE('',*,*,#72,.T.);
#72 = EDGE_CURVE('',#42,#73,#75,.T.);
#73 = VERTEX_POINT('',#74);
#74 = CARTESIAN_POINT('',(550.,75.999999981879,86.));
#75 = SURFACE_CURVE('',#76,(#81,#88),.PCURVE_S1.);
#76 = CIRCLE('',#77,10.);
#77 = AXIS2_PLACEMENT_3D('',#78,#79,#80);
#78 = CARTESIAN_POINT('',(550.,75.999999981879,76.));
#79 = DIRECTION('',(1.,0.,1.110223024625E-16));
#80 = DIRECTION('',(-1.110223024625E-16,0.,1.));
#81 = PCURVE('',#50,#82);
#82 = DEFINITIONAL_REPRESENTATION('',(#83),#87);
#83 = CIRCLE('',#84,10.);
#84 = AXIS2_PLACEMENT_2D('',#85,#86);
#85 = CARTESIAN_POINT('',(276.,-275.9999999818));
#86 = DIRECTION('',(1.,0.));
#87 = ( GEOMETRIC_REPRESENTATION_CONTEXT(2) 
PARAMETRIC_REPRESENTATION_CONTEXT() REPRESENTATION_CONTEXT('2D SPACE',''
  ) );
#88 = PCURVE('',#89,#94);
#89 = CYLINDRICAL_SURFACE('',#90,10.);
#90 = AXIS2_PLACEMENT_3D('',#91,#92,#93);
#91 = CARTESIAN_POINT('',(-1.4E+03,75.999999981879,76.));
#92 = DIRECTION('',(1.,0.,1.110223024625E-16));
#93 = DIRECTION('',(-1.110223024625E-16,0.,1.));
#94 = DEFINITIONAL_REPRESENTATION('',(#95),#99);
#95 = LINE('',#96,#97);
#96 = CARTESIAN_POINT('',(0.,1.95E+03));
#97 = VECTOR('',#98,1.);
#98 = DIRECTION('',(1.,0.));
#99 = ( GEOMETRIC_REPRESENTATION_CONTEXT(2) 
PARAMETRIC_REPRESENTATION_CONTEXT() REPRESENTATION_CONTEXT('2D SPACE',''
  ) );
#100 = ORIENTED_EDGE('',*,*,#101,.T.);
#101 = EDGE_CURVE('',#73,#102,#104,.T.);
#102 = VERTEX_POINT('',#103);
#103 = CARTESIAN_POINT('',(550.,-75.99999998187,86.));
#104 = SURFACE_CURVE('',#105,(#109,#115),.PCURVE_S1.);
#105 = LINE('',#106,#107);
#106 = CARTESIAN_POINT('',(550.,-99.99999999999,86.));
#107 = VECTOR('',#108,1.);
#108 = DIRECTION('',(0.,-1.,0.));
#109 = PCURVE('',#50,#110);
#110 = DEFINITIONAL_REPRESENTATION('',(#111),#114);
#111 = B_SPLINE_CURVE_WITH_KNOTS('',1,(#112,#113),.UNSPECIFIED.,.F.,.F.,
  (2,2),(-175.9999999909,-24.00000000906),.PIECEWISE_BEZIER_KNOTS.);
#112 = CARTESIAN_POINT('',(286.,-275.9999999909));
#113 = CARTESIAN_POINT('',(286.,-124.000000009));
#114 = ( GEOMETRIC_REPRESENTATION_CONTEXT(2) 
PARAMETRIC_REPRESENTATION_CONTEXT() REPRESENTATION_CONTEXT('2D SPACE',''
  ) );
#115 = PCURVE('',#116,#121);
#116 = PLANE('',#117);
#117 = AXIS2_PLACEMENT_3D('',#118,#119,#120);
#118 = CARTESIAN_POINT('',(760.,2.181366198784E-12,86.));
#119 = DIRECTION('',(0.,0.,1.));
#120 = DIRECTION('',(0.,-1.,0.));
#121 = DEFINITIONAL_REPRESENTATION('',(#122),#125);
#122 = B_SPLINE_CURVE_WITH_KNOTS('',1,(#123,#124),.UNSPECIFIED.,.F.,.F.,
  (2,2),(-175.9999999909,-24.00000000906),.PIECEWISE_BEZIER_KNOTS.);
#123 = CARTESIAN_POINT('',(-75.99999999093,-210.));
#124 = CARTESIAN_POINT('',(75.999999990941,-210.));
#125 = ( GEOMETRIC_REPRESENTATION_CONTEXT(2) 
PARAMETRIC_REPRESENTATION_CONTEXT() REPRESENTATION_CONTEXT('2D SPACE',''
  ) );
#126 = ORIENTED_EDGE('',*,*,#127,.T.);
#127 = EDGE_CURVE('',#102,#128,#130,.T.);
#128 = VERTEX_POINT('',#129);
#129 = CARTESIAN_POINT('',(550.,-85.99999999094,76.));
#130 = SURFACE_CURVE('',#131,(#136,#143),.PCURVE_S1.);
#131 = CIRCLE('',#132,10.);
#132 = AXIS2_PLACEMENT_3D('',#133,#134,#135);
#133 = CARTESIAN_POINT('',(550.,-75.99999998187,76.));
#134 = DIRECTION('',(1.,0.,1.110223024625E-16));
#135 = DIRECTION('',(-1.110223024625E-16,0.,1.));
#136 = PCURVE('',#50,#137);
#137 = DEFINITIONAL_REPRESENTATION('',(#138),#142);
#138 = CIRCLE('',#139,10.);
#139 = AXIS2_PLACEMENT_2D('',#140,#141);
#140 = CARTESIAN_POINT('',(276.,-124.0000000181));
#141 = DIRECTION('',(1.,0.));
#142 = ( GEOMETRIC_REPRESENTATION_CONTEXT(2) 
PARAMETRIC_REPRESENTATION_CONTEXT() REPRESENTATION_CONTEXT('2D SPACE',''
  ) );
#143 = PCURVE('',#144,#149);
#144 = CYLINDRICAL_SURFACE('',#145,10.);
#145 = AXIS2_PLACEMENT_3D('',#146,#147,#148);
#146 = CARTESIAN_POINT('',(-1.4E+03,-75.99999998187,76.));
#147 = DIRECTION('',(1.,0.,1.110223024625E-16));
#148 = DIRECTION('',(-1.110223024625E-16,0.,1.));
#149 = DEFINITIONAL_REPRESENTATION('',(#150),#154);
#150 = LINE('',#151,#152);
#151 = CARTESIAN_POINT('',(-6.28318530718,1.95E+03));
#152 = VECTOR('',#153,1.);
#153 = DIRECTION('',(1.,0.));
#154 = ( GEOMETRIC_REPRESENTATION_CONTEXT(2) 
PARAMETRIC_REPRESENTATION_CONTEXT() REPRESENTATION_CONTEXT('2D SPACE',''
  ) );
#155 = ORIENTED_EDGE('',*,*,#156,.F.);
#156 = EDGE_CURVE('',#157,#128,#159,.T.);
#157 = VERTEX_POINT('',#158);
#158 = CARTESIAN_POINT('',(550.,-85.99999999094,-76.));
#159 = SURFACE_CURVE('',#160,(#164,#170),.PCURVE_S1.);
#160 = LINE('',#161,#162);
#161 = CARTESIAN_POINT('',(550.,-86.,-100.));
#162 = VECTOR('',#163,1.);
#163 = DIRECTION('',(0.,0.,1.));
#164 = PCURVE('',#50,#165);
#165 = DEFINITIONAL_REPRESENTATION('',(#166),#169);
#166 = B_SPLINE_CURVE_WITH_KNOTS('',1,(#167,#168),.UNSPECIFIED.,.F.,.F.,
  (2,2),(24.,176.),.PIECEWISE_BEZIER_KNOTS.);
#167 = CARTESIAN_POINT('',(124.,-113.9999999999));
#168 = CARTESIAN_POINT('',(276.,-113.9999999999));
#169 = ( GEOMETRIC_REPRESENTATION_CONTEXT(2) 
PARAMETRIC_REPRESENTATION_CONTEXT() REPRESENTATION_CONTEXT('2D SPACE',''
  ) );
#170 = PCURVE('',#171,#176);
#171 = PLANE('',#172);
#172 = AXIS2_PLACEMENT_3D('',#173,#174,#175);
#173 = CARTESIAN_POINT('',(760.,-86.,0.));
#174 = DIRECTION('',(0.,-1.,0.));
#175 = DIRECTION('',(1.110223024625E-16,0.,-1.));
#176 = DEFINITIONAL_REPRESENTATION('',(#177),#180);
#177 = B_SPLINE_CURVE_WITH_KNOTS('',1,(#178,#179),.UNSPECIFIED.,.F.,.F.,
  (2,2),(24.,176.),.PIECEWISE_BEZIER_KNOTS.);
#178 = CARTESIAN_POINT('',(76.,-210.));
#179 = CARTESIAN_POINT('',(-76.,-210.));
#180 = ( GEOMETRIC_REPRESENTATION_CONTEXT(2) 
PARAMETRIC_REPRESENTATION_CONTEXT() REPRESENTATION_CONTEXT('2D SPACE',''
  ) );
#181 = ORIENTED_EDGE('',*,*,#182,.T.);
#182 = EDGE_CURVE('',#157,#183,#185,.T.);
#183 = VERTEX_POINT('',#184);
#184 = CARTESIAN_POINT('',(550.,-75.99999998187,-86.));
#185 = SURFACE_CURVE('',#186,(#191,#198),.PCURVE_S1.);
#186 = CIRCLE('',#187,10.);
#187 = AXIS2_PLACEMENT_3D('',#188,#189,#190);
#188 = CARTESIAN_POINT('',(550.,-75.99999998187,-76.));
#189 = DIRECTION('',(1.,0.,1.110223024625E-16));
#190 = DIRECTION('',(-1.110223024625E-16,0.,1.));
#191 = PCURVE('',#50,#192);
#192 = DEFINITIONAL_REPRESENTATION('',(#193),#197);
#193 = CIRCLE('',#194,10.);
#194 = AXIS2_PLACEMENT_2D('',#195,#196);
#195 = CARTESIAN_POINT('',(124.,-124.0000000181));
#196 = DIRECTION('',(1.,0.));
#197 = ( GEOMETRIC_REPRESENTATION_CONTEXT(2) 
PARAMETRIC_REPRESENTATION_CONTEXT() REPRESENTATION_CONTEXT('2D SPACE',''
  ) );
#198 = PCURVE('',#199,#204);
#199 = CYLINDRICAL_SURFACE('',#200,10.);
#200 = AXIS2_PLACEMENT_3D('',#201,#202,#203);
#201 = CARTESIAN_POINT('',(-1.4E+03,-75.99999998187,-76.));
#202 = DIRECTION('',(1.,0.,1.110223024625E-16));
#203 = DIRECTION('',(-1.110223024625E-16,0.,1.));
#204 = DEFINITIONAL_REPRESENTATION('',(#205),#209);
#205 = LINE('',#206,#207);
#206 = CARTESIAN_POINT('',(-6.28318530718,1.95E+03));
#207 = VECTOR('',#208,1.);
#208 = DIRECTION('',(1.,0.));
#209 = ( GEOMETRIC_REPRESENTATION_CONTEXT(2) 
PARAMETRIC_REPRESENTATION_CONTEXT() REPRESENTATION_CONTEXT('2D SPACE',''
  ) );
#210 = ORIENTED_EDGE('',*,*,#211,.T.);
#211 = EDGE_CURVE('',#183,#212,#214,.T.);
#212 = VERTEX_POINT('',#213);
#213 = CARTESIAN_POINT('',(550.,75.999999981879,-86.));
#214 = SURFACE_CURVE('',#215,(#219,#225),.PCURVE_S1.);
#215 = LINE('',#216,#217);
#216 = CARTESIAN_POINT('',(550.,-99.99999999999,-86.));
#217 = VECTOR('',#218,1.);
#218 = DIRECTION('',(0.,1.,0.));
#219 = PCURVE('',#50,#220);
#220 = DEFINITIONAL_REPRESENTATION('',(#221),#224);
#221 = B_SPLINE_CURVE_WITH_KNOTS('',1,(#222,#223),.UNSPECIFIED.,.F.,.F.,
  (2,2),(24.00000001812,175.99999998187),.PIECEWISE_BEZIER_KNOTS.);
#222 = CARTESIAN_POINT('',(114.,-124.0000000181));
#223 = CARTESIAN_POINT('',(114.,-275.9999999818));
#224 = ( GEOMETRIC_REPRESENTATION_CONTEXT(2) 
PARAMETRIC_REPRESENTATION_CONTEXT() REPRESENTATION_CONTEXT('2D SPACE',''
  ) );
#225 = PCURVE('',#226,#231);
#226 = PLANE('',#227);
#227 = AXIS2_PLACEMENT_3D('',#228,#229,#230);
#228 = CARTESIAN_POINT('',(760.,2.181366198784E-12,-86.));
#229 = DIRECTION('',(0.,0.,-1.));
#230 = DIRECTION('',(0.,1.,0.));
#231 = DEFINITIONAL_REPRESENTATION('',(#232),#235);
#232 = B_SPLINE_CURVE_WITH_KNOTS('',1,(#233,#234),.UNSPECIFIED.,.F.,.F.,
  (2,2),(24.00000001812,175.99999998187),.PIECEWISE_BEZIER_KNOTS.);
#233 = CARTESIAN_POINT('',(-75.99999998188,-210.));
#234 = CARTESIAN_POINT('',(75.999999981876,-210.));
#235 = ( GEOMETRIC_REPRESENTATION_CONTEXT(2) 
PARAMETRIC_REPRESENTATION_CONTEXT() REPRESENTATION_CONTEXT('2D SPACE',''
  ) );
#236 = ORIENTED_EDGE('',*,*,#237,.T.);
#237 = EDGE_CURVE('',#212,#40,#238,.T.);
#238 = SURFACE_CURVE('',#239,(#244,#251),.PCURVE_S1.);
#239 = CIRCLE('',#240,10.);
#240 = AXIS2_PLACEMENT_3D('',#241,#242,#243);
#241 = CARTESIAN_POINT('',(550.,75.999999981879,-76.));
#242 = DIRECTION('',(1.,0.,1.110223024625E-16));
#243 = DIRECTION('',(-1.110223024625E-16,0.,1.));
#244 = PCURVE('',#50,#245);
#245 = DEFINITIONAL_REPRESENTATION('',(#246),#250);
#246 = CIRCLE('',#247,10.);
#247 = AXIS2_PLACEMENT_2D('',#248,#249);
#248 = CARTESIAN_POINT('',(124.,-275.9999999818));
#249 = DIRECTION('',(1.,0.));
#250 = ( GEOMETRIC_REPRESENTATION_CONTEXT(2) 
PARAMETRIC_REPRESENTATION_CONTEXT() REPRESENTATION_CONTEXT('2D SPACE',''
  ) );
#251 = PCURVE('',#252,#257);
#252 = CYLINDRICAL_SURFACE('',#253,10.);
#253 = AXIS2_PLACEMENT_3D('',#254,#255,#256);
#254 = CARTESIAN_POINT('',(-1.4E+03,75.999999981879,-76.));
#255 = DIRECTION('',(1.,0.,1.110223024625E-16));
#256 = DIRECTION('',(-1.110223024625E-16,0.,1.));
#257 = DEFINITIONAL_REPRESENTATION('',(#258),#262);
#258 = LINE('',#259,#260);
#259 = CARTESIAN_POINT('',(0.,1.95E+03));
#260 = VECTOR('',#261,1.);
#261 = DIRECTION('',(1.,0.));
#262 = ( GEOMETRIC_REPRESENTATION_CONTEXT(2) 
PARAMETRIC_REPRESENTATION_CONTEXT() REPRESENTATION_CONTEXT('2D SPACE',''
  ) );
#263 = ADVANCED_FACE('',(#264),#61,.T.);
#264 = FACE_BOUND('',#265,.T.);
#265 = EDGE_LOOP('',(#266,#267,#287,#314,#341));
#266 = ORIENTED_EDGE('',*,*,#39,.T.);
#267 = ORIENTED_EDGE('',*,*,#268,.T.);
#268 = EDGE_CURVE('',#42,#269,#271,.T.);
#269 = VERTEX_POINT('',#270);
#270 = CARTESIAN_POINT('',(760.,85.99999999094,76.));
#271 = SURFACE_CURVE('',#272,(#275,#281),.PCURVE_S1.);
#272 = B_SPLINE_CURVE_WITH_KNOTS('',1,(#273,#274),.UNSPECIFIED.,.F.,.F.,
  (2,2),(0.,1.),.PIECEWISE_BEZIER_KNOTS.);
#273 = CARTESIAN_POINT('',(-1.4E+03,85.99999999094,76.));
#274 = CARTESIAN_POINT('',(760.,85.99999999094,76.));
#275 = PCURVE('',#61,#276);
#276 = DEFINITIONAL_REPRESENTATION('',(#277),#280);
#277 = B_SPLINE_CURVE_WITH_KNOTS('',1,(#278,#279),.UNSPECIFIED.,.F.,.F.,
  (2,2),(0.,1.),.PIECEWISE_BEZIER_KNOTS.);
#278 = CARTESIAN_POINT('',(76.,-2.16E+03));
#279 = CARTESIAN_POINT('',(76.,0.));
#280 = ( GEOMETRIC_REPRESENTATION_CONTEXT(2) 
PARAMETRIC_REPRESENTATION_CONTEXT() REPRESENTATION_CONTEXT('2D SPACE',''
  ) );
#281 = PCURVE('',#89,#282);
#282 = DEFINITIONAL_REPRESENTATION('',(#283),#286);
#283 = B_SPLINE_CURVE_WITH_KNOTS('',1,(#284,#285),.UNSPECIFIED.,.F.,.F.,
  (2,2),(0.,1.),.PIECEWISE_BEZIER_KNOTS.);
#284 = CARTESIAN_POINT('',(4.712388980385,0.));
#285 = CARTESIAN_POINT('',(4.712388980385,2.16E+03));
#286 = ( GEOMETRIC_REPRESENTATION_CONTEXT(2) 
PARAMETRIC_REPRESENTATION_CONTEXT() REPRESENTATION_CONTEXT('2D SPACE',''
  ) );
#287 = ORIENTED_EDGE('',*,*,#288,.T.);
#288 = EDGE_CURVE('',#269,#289,#291,.T.);
#289 = VERTEX_POINT('',#290);
#290 = CARTESIAN_POINT('',(760.,86.000000000001,57.831836468522));
#291 = SURFACE_CURVE('',#292,(#296,#302),.PCURVE_S1.);
#292 = LINE('',#293,#294);
#293 = CARTESIAN_POINT('',(760.,86.,76.));
#294 = VECTOR('',#295,1.);
#295 = DIRECTION('',(0.,0.,-1.));
#296 = PCURVE('',#61,#297);
#297 = DEFINITIONAL_REPRESENTATION('',(#298),#301);
#298 = B_SPLINE_CURVE_WITH_KNOTS('',1,(#299,#300),.UNSPECIFIED.,.F.,.F.,
  (2,2),(0.,18.168163533249),.PIECEWISE_BEZIER_KNOTS.);
#299 = CARTESIAN_POINT('',(76.,0.));
#300 = CARTESIAN_POINT('',(57.831836470292,0.));
#301 = ( GEOMETRIC_REPRESENTATION_CONTEXT(2) 
PARAMETRIC_REPRESENTATION_CONTEXT() REPRESENTATION_CONTEXT('2D SPACE',''
  ) );
#302 = PCURVE('',#303,#308);
#303 = PLANE('',#304);
#304 = AXIS2_PLACEMENT_3D('',#305,#306,#307);
#305 = CARTESIAN_POINT('',(760.,86.,76.));
#306 = DIRECTION('',(-4.395746974398E-02,-0.999033403272,0.));
#307 = DIRECTION('',(0.,0.,-1.));
#308 = DEFINITIONAL_REPRESENTATION('',(#309),#313);
#309 = LINE('',#310,#311);
#310 = CARTESIAN_POINT('',(0.,0.));
#311 = VECTOR('',#312,1.);
#312 = DIRECTION('',(1.,0.));
#313 = ( GEOMETRIC_REPRESENTATION_CONTEXT(2) 
PARAMETRIC_REPRESENTATION_CONTEXT() REPRESENTATION_CONTEXT('2D SPACE',''
  ) );
#314 = ORIENTED_EDGE('',*,*,#315,.T.);
#315 = EDGE_CURVE('',#289,#316,#318,.T.);
#316 = VERTEX_POINT('',#317);
#317 = CARTESIAN_POINT('',(760.,85.99999999094,-76.));
#318 = SURFACE_CURVE('',#319,(#323,#330),.PCURVE_S1.);
#319 = LINE('',#320,#321);
#320 = CARTESIAN_POINT('',(760.,86.000000000002,0.));
#321 = VECTOR('',#322,1.);
#322 = DIRECTION('',(1.110223024625E-16,0.,-1.));
#323 = PCURVE('',#61,#324);
#324 = DEFINITIONAL_REPRESENTATION('',(#325),#329);
#325 = LINE('',#326,#327);
#326 = CARTESIAN_POINT('',(0.,0.));
#327 = VECTOR('',#328,1.);
#328 = DIRECTION('',(-1.,0.));
#329 = ( GEOMETRIC_REPRESENTATION_CONTEXT(2) 
PARAMETRIC_REPRESENTATION_CONTEXT() REPRESENTATION_CONTEXT('2D SPACE',''
  ) );
#330 = PCURVE('',#331,#336);
#331 = B_SPLINE_SURFACE_WITH_KNOTS('',1,1,(
    (#332,#333)
    ,(#334,#335
    )),.UNSPECIFIED.,.F.,.F.,.F.,(2,2),(2,2),(-76.,57.831836470292),(0.,
    1.),.PIECEWISE_BEZIER_KNOTS.);
#332 = CARTESIAN_POINT('',(760.,86.000000000002,-76.));
#333 = CARTESIAN_POINT('',(1.01E+03,50.746733121308,-21.28069130914));
#334 = CARTESIAN_POINT('',(760.,86.000000000002,57.831836470292));
#335 = CARTESIAN_POINT('',(1.01E+03,75.,74.));
#336 = DEFINITIONAL_REPRESENTATION('',(#337),#340);
#337 = B_SPLINE_CURVE_WITH_KNOTS('',1,(#338,#339),.UNSPECIFIED.,.F.,.F.,
  (2,2),(-57.83183647029,76.),.PIECEWISE_BEZIER_KNOTS.);
#338 = CARTESIAN_POINT('',(57.831836470292,0.));
#339 = CARTESIAN_POINT('',(-76.,0.));
#340 = ( GEOMETRIC_REPRESENTATION_CONTEXT(2) 
PARAMETRIC_REPRESENTATION_CONTEXT() REPRESENTATION_CONTEXT('2D SPACE',''
  ) );
#341 = ORIENTED_EDGE('',*,*,#342,.F.);
#342 = EDGE_CURVE('',#40,#316,#343,.T.);
#343 = SURFACE_CURVE('',#344,(#347,#353),.PCURVE_S1.);
#344 = B_SPLINE_CURVE_WITH_KNOTS('',1,(#345,#346),.UNSPECIFIED.,.F.,.F.,
  (2,2),(0.,1.),.PIECEWISE_BEZIER_KNOTS.);
#345 = CARTESIAN_POINT('',(-1.4E+03,85.99999999094,-76.));
#346 = CARTESIAN_POINT('',(760.,85.99999999094,-76.));
#347 = PCURVE('',#61,#348);
#348 = DEFINITIONAL_REPRESENTATION('',(#349),#352);
#349 = B_SPLINE_CURVE_WITH_KNOTS('',1,(#350,#351),.UNSPECIFIED.,.F.,.F.,
  (2,2),(0.,1.),.PIECEWISE_BEZIER_KNOTS.);
#350 = CARTESIAN_POINT('',(-76.,-2.16E+03));
#351 = CARTESIAN_POINT('',(-76.,0.));
#352 = ( GEOMETRIC_REPRESENTATION_CONTEXT(2) 
PARAMETRIC_REPRESENTATION_CONTEXT() REPRESENTATION_CONTEXT('2D SPACE',''
  ) );
#353 = PCURVE('',#252,#354);
#354 = DEFINITIONAL_REPRESENTATION('',(#355),#358);
#355 = B_SPLINE_CURVE_WITH_KNOTS('',1,(#356,#357),.UNSPECIFIED.,.F.,.F.,
  (2,2),(0.,1.),.PIECEWISE_BEZIER_KNOTS.);
#356 = CARTESIAN_POINT('',(4.712388980385,0.));
#357 = CARTESIAN_POINT('',(4.712388980385,2.16E+03));
#358 = ( GEOMETRIC_REPRESENTATION_CONTEXT(2) 
PARAMETRIC_REPRESENTATION_CONTEXT() REPRESENTATION_CONTEXT('2D SPACE',''
  ) );
#359 = ADVANCED_FACE('',(#360),#252,.T.);
#360 = FACE_BOUND('',#361,.T.);
#361 = EDGE_LOOP('',(#362,#363,#364,#406));
#362 = ORIENTED_EDGE('',*,*,#237,.T.);
#363 = ORIENTED_EDGE('',*,*,#342,.T.);
#364 = ORIENTED_EDGE('',*,*,#365,.T.);
#365 = EDGE_CURVE('',#316,#366,#368,.T.);
#366 = VERTEX_POINT('',#367);
#367 = CARTESIAN_POINT('',(760.,75.999999981879,-86.));
#368 = SURFACE_CURVE('',#369,(#374,#381),.PCURVE_S1.);
#369 = CIRCLE('',#370,10.);
#370 = AXIS2_PLACEMENT_3D('',#371,#372,#373);
#371 = CARTESIAN_POINT('',(760.,75.999999981879,-76.));
#372 = DIRECTION('',(-1.,0.,-1.110223024625E-16));
#373 = DIRECTION('',(-1.110223024625E-16,0.,1.));
#374 = PCURVE('',#252,#375);
#375 = DEFINITIONAL_REPRESENTATION('',(#376),#380);
#376 = LINE('',#377,#378);
#377 = CARTESIAN_POINT('',(6.28318530718,2.16E+03));
#378 = VECTOR('',#379,1.);
#379 = DIRECTION('',(-1.,0.));
#380 = ( GEOMETRIC_REPRESENTATION_CONTEXT(2) 
PARAMETRIC_REPRESENTATION_CONTEXT() REPRESENTATION_CONTEXT('2D SPACE',''
  ) );
#381 = PCURVE('',#382,#401);
#382 = B_SPLINE_SURFACE_WITH_KNOTS('',8,1,(
    (#383,#384)
    ,(#385,#386)
    ,(#387,#388)
    ,(#389,#390)
    ,(#391,#392)
    ,(#393,#394)
    ,(#395,#396)
    ,(#397,#398)
    ,(#399,#400
    )),.UNSPECIFIED.,.F.,.F.,.F.,(9,9),(2,2),(-113.5077089893,
    -98.3190271038),(0.,1.),.PIECEWISE_BEZIER_KNOTS.);
#383 = CARTESIAN_POINT('',(760.,75.999999981879,-86.));
#384 = CARTESIAN_POINT('',(1.01E+03,47.,-36.));
#385 = CARTESIAN_POINT('',(759.99999999998,77.963495390371,
    -85.99999999999));
#386 = CARTESIAN_POINT('',(1.01E+03,47.468341640163,-34.16008641364));
#387 = CARTESIAN_POINT('',(760.00000000003,79.926991416924,
    -85.55939211039));
#388 = CARTESIAN_POINT('',(1.01E+03,47.936683280327,-32.32017282728));
#389 = CARTESIAN_POINT('',(759.99999999994,81.775132325223,
    -84.67818065871));
#390 = CARTESIAN_POINT('',(1.01E+03,48.40502492049,-30.48025924093));
#391 = CARTESIAN_POINT('',(760.00000000006,83.392587539684,
    -83.3925875578));
#392 = CARTESIAN_POINT('',(1.01E+03,48.873366560654,-28.64034565457));
#393 = CARTESIAN_POINT('',(759.99999999995,84.678180640589,
    -81.77513234335));
#394 = CARTESIAN_POINT('',(1.01E+03,49.341708200817,-26.80043206821));
#395 = CARTESIAN_POINT('',(760.00000000002,85.559392092269,
    -79.92699143504));
#396 = CARTESIAN_POINT('',(1.01E+03,49.810049840981,-24.96051848186));
#397 = CARTESIAN_POINT('',(759.99999999999,85.999999981878,
    -77.96349540849));
#398 = CARTESIAN_POINT('',(1.01E+03,50.278391481144,-23.1206048955));
#399 = CARTESIAN_POINT('',(760.,85.999999981879,-76.));
#400 = CARTESIAN_POINT('',(1.01E+03,50.746733121308,-21.28069130914));
#401 = DEFINITIONAL_REPRESENTATION('',(#402),#405);
#402 = B_SPLINE_CURVE_WITH_KNOTS('',1,(#403,#404),.UNSPECIFIED.,.F.,.F.,
  (2,2),(1.570796326795,3.14159265359),.PIECEWISE_BEZIER_KNOTS.);
#403 = CARTESIAN_POINT('',(-98.3190271038,0.));
#404 = CARTESIAN_POINT('',(-113.5077089893,0.));
#405 = ( GEOMETRIC_REPRESENTATION_CONTEXT(2) 
PARAMETRIC_REPRESENTATION_CONTEXT() REPRESENTATION_CONTEXT('2D SPACE',''
  ) );
#406 = ORIENTED_EDGE('',*,*,#407,.F.);
#407 = EDGE_CURVE('',#212,#366,#408,.T.);
#408 = SURFACE_CURVE('',#409,(#412,#418),.PCURVE_S1.);
#409 = B_SPLINE_CURVE_WITH_KNOTS('',1,(#410,#411),.UNSPECIFIED.,.F.,.F.,
  (2,2),(0.,1.),.PIECEWISE_BEZIER_KNOTS.);
#410 = CARTESIAN_POINT('',(-1.4E+03,75.999999981879,-86.));
#411 = CARTESIAN_POINT('',(760.,75.999999981879,-86.));
#412 = PCURVE('',#252,#413);
#413 = DEFINITIONAL_REPRESENTATION('',(#414),#417);
#414 = B_SPLINE_CURVE_WITH_KNOTS('',1,(#415,#416),.UNSPECIFIED.,.F.,.F.,
  (2,2),(0.,1.),.PIECEWISE_BEZIER_KNOTS.);
#415 = CARTESIAN_POINT('',(3.14159265359,0.));
#416 = CARTESIAN_POINT('',(3.14159265359,2.16E+03));
#417 = ( GEOMETRIC_REPRESENTATION_CONTEXT(2) 
PARAMETRIC_REPRESENTATION_CONTEXT() REPRESENTATION_CONTEXT('2D SPACE',''
  ) );
#418 = PCURVE('',#226,#419);
#419 = DEFINITIONAL_REPRESENTATION('',(#420),#423);
#420 = B_SPLINE_CURVE_WITH_KNOTS('',1,(#421,#422),.UNSPECIFIED.,.F.,.F.,
  (2,2),(0.,1.),.PIECEWISE_BEZIER_KNOTS.);
#421 = CARTESIAN_POINT('',(75.999999981876,-2.16E+03));
#422 = CARTESIAN_POINT('',(75.999999981876,0.));
#423 = ( GEOMETRIC_REPRESENTATION_CONTEXT(2) 
PARAMETRIC_REPRESENTATION_CONTEXT() REPRESENTATION_CONTEXT('2D SPACE',''
  ) );
#424 = ADVANCED_FACE('',(#425),#226,.T.);
#425 = FACE_BOUND('',#426,.T.);
#426 = EDGE_LOOP('',(#427,#454,#482,#500,#501));
#427 = ORIENTED_EDGE('',*,*,#428,.F.);
#428 = EDGE_CURVE('',#429,#366,#431,.T.);
#429 = VERTEX_POINT('',#430);
#430 = CARTESIAN_POINT('',(760.,0.,-86.));
#431 = SURFACE_CURVE('',#432,(#436,#443),.PCURVE_S1.);
#432 = LINE('',#433,#434);
#433 = CARTESIAN_POINT('',(760.,2.181366198784E-12,-86.));
#434 = VECTOR('',#435,1.);
#435 = DIRECTION('',(0.,1.,0.));
#436 = PCURVE('',#226,#437);
#437 = DEFINITIONAL_REPRESENTATION('',(#438),#442);
#438 = LINE('',#439,#440);
#439 = CARTESIAN_POINT('',(0.,0.));
#440 = VECTOR('',#441,1.);
#441 = DIRECTION('',(1.,0.));
#442 = ( GEOMETRIC_REPRESENTATION_CONTEXT(2) 
PARAMETRIC_REPRESENTATION_CONTEXT() REPRESENTATION_CONTEXT('2D SPACE',''
  ) );
#443 = PCURVE('',#444,#449);
#444 = B_SPLINE_SURFACE_WITH_KNOTS('',1,1,(
    (#445,#446)
    ,(#447,#448
    )),.UNSPECIFIED.,.F.,.F.,.F.,(2,2),(2,2),(-2.632432938299E-09,
    75.999999981876),(0.,1.),.PIECEWISE_BEZIER_KNOTS.);
#445 = CARTESIAN_POINT('',(760.,-2.6302515721E-09,-86.));
#446 = CARTESIAN_POINT('',(1.01E+03,0.,-50.));
#447 = CARTESIAN_POINT('',(760.,75.999999981879,-86.));
#448 = CARTESIAN_POINT('',(1.01E+03,47.,-36.));
#449 = DEFINITIONAL_REPRESENTATION('',(#450),#453);
#450 = B_SPLINE_CURVE_WITH_KNOTS('',1,(#451,#452),.UNSPECIFIED.,.F.,.F.,
  (2,2),(-2.632432938299E-09,75.999999981876),.PIECEWISE_BEZIER_KNOTS.);
#451 = CARTESIAN_POINT('',(-2.632432938299E-09,0.));
#452 = CARTESIAN_POINT('',(75.999999981876,0.));
#453 = ( GEOMETRIC_REPRESENTATION_CONTEXT(2) 
PARAMETRIC_REPRESENTATION_CONTEXT() REPRESENTATION_CONTEXT('2D SPACE',''
  ) );
#454 = ORIENTED_EDGE('',*,*,#455,.T.);
#455 = EDGE_CURVE('',#429,#456,#458,.T.);
#456 = VERTEX_POINT('',#457);
#457 = CARTESIAN_POINT('',(760.,-75.99999998187,-86.));
#458 = SURFACE_CURVE('',#459,(#463,#470),.PCURVE_S1.);
#459 = LINE('',#460,#461);
#460 = CARTESIAN_POINT('',(760.,-2.181366198784E-12,-86.));
#461 = VECTOR('',#462,1.);
#462 = DIRECTION('',(0.,-1.,0.));
#463 = PCURVE('',#226,#464);
#464 = DEFINITIONAL_REPRESENTATION('',(#465),#469);
#465 = LINE('',#466,#467);
#466 = CARTESIAN_POINT('',(-4.362732397567E-12,0.));
#467 = VECTOR('',#468,1.);
#468 = DIRECTION('',(-1.,0.));
#469 = ( GEOMETRIC_REPRESENTATION_CONTEXT(2) 
PARAMETRIC_REPRESENTATION_CONTEXT() REPRESENTATION_CONTEXT('2D SPACE',''
  ) );
#470 = PCURVE('',#471,#476);
#471 = B_SPLINE_SURFACE_WITH_KNOTS('',1,1,(
    (#472,#473)
    ,(#474,#475
    )),.UNSPECIFIED.,.F.,.F.,.F.,(2,2),(2,2),(-2.632432938299E-09,
    75.999999981876),(0.,1.),.PIECEWISE_BEZIER_KNOTS.);
#472 = CARTESIAN_POINT('',(760.,2.6302515721E-09,-86.));
#473 = CARTESIAN_POINT('',(1.01E+03,0.,-50.));
#474 = CARTESIAN_POINT('',(760.,-75.99999998187,-86.));
#475 = CARTESIAN_POINT('',(1.01E+03,-47.,-36.));
#476 = DEFINITIONAL_REPRESENTATION('',(#477),#481);
#477 = LINE('',#478,#479);
#478 = CARTESIAN_POINT('',(0.,0.));
#479 = VECTOR('',#480,1.);
#480 = DIRECTION('',(1.,0.));
#481 = ( GEOMETRIC_REPRESENTATION_CONTEXT(2) 
PARAMETRIC_REPRESENTATION_CONTEXT() REPRESENTATION_CONTEXT('2D SPACE',''
  ) );
#482 = ORIENTED_EDGE('',*,*,#483,.F.);
#483 = EDGE_CURVE('',#183,#456,#484,.T.);
#484 = SURFACE_CURVE('',#485,(#488,#494),.PCURVE_S1.);
#485 = B_SPLINE_CURVE_WITH_KNOTS('',1,(#486,#487),.UNSPECIFIED.,.F.,.F.,
  (2,2),(0.,1.),.PIECEWISE_BEZIER_KNOTS.);
#486 = CARTESIAN_POINT('',(-1.4E+03,-75.99999998187,-86.));
#487 = CARTESIAN_POINT('',(760.,-75.99999998187,-86.));
#488 = PCURVE('',#226,#489);
#489 = DEFINITIONAL_REPRESENTATION('',(#490),#493);
#490 = B_SPLINE_CURVE_WITH_KNOTS('',1,(#491,#492),.UNSPECIFIED.,.F.,.F.,
  (2,2),(0.,1.),.PIECEWISE_BEZIER_KNOTS.);
#491 = CARTESIAN_POINT('',(-75.99999998188,-2.16E+03));
#492 = CARTESIAN_POINT('',(-75.99999998188,0.));
#493 = ( GEOMETRIC_REPRESENTATION_CONTEXT(2) 
PARAMETRIC_REPRESENTATION_CONTEXT() REPRESENTATION_CONTEXT('2D SPACE',''
  ) );
#494 = PCURVE('',#199,#495);
#495 = DEFINITIONAL_REPRESENTATION('',(#496),#499);
#496 = B_SPLINE_CURVE_WITH_KNOTS('',1,(#497,#498),.UNSPECIFIED.,.F.,.F.,
  (2,2),(0.,1.),.PIECEWISE_BEZIER_KNOTS.);
#497 = CARTESIAN_POINT('',(-3.14159265359,0.));
#498 = CARTESIAN_POINT('',(-3.14159265359,2.16E+03));
#499 = ( GEOMETRIC_REPRESENTATION_CONTEXT(2) 
PARAMETRIC_REPRESENTATION_CONTEXT() REPRESENTATION_CONTEXT('2D SPACE',''
  ) );
#500 = ORIENTED_EDGE('',*,*,#211,.T.);
#501 = ORIENTED_EDGE('',*,*,#407,.T.);
#502 = ADVANCED_FACE('',(#503),#199,.T.);
#503 = FACE_BOUND('',#504,.F.);
#504 = EDGE_LOOP('',(#505,#506,#526,#566));
#505 = ORIENTED_EDGE('',*,*,#182,.F.);
#506 = ORIENTED_EDGE('',*,*,#507,.T.);
#507 = EDGE_CURVE('',#157,#508,#510,.T.);
#508 = VERTEX_POINT('',#509);
#509 = CARTESIAN_POINT('',(760.,-85.99999999094,-76.));
#510 = SURFACE_CURVE('',#511,(#514,#520),.PCURVE_S1.);
#511 = B_SPLINE_CURVE_WITH_KNOTS('',1,(#512,#513),.UNSPECIFIED.,.F.,.F.,
  (2,2),(0.,1.),.PIECEWISE_BEZIER_KNOTS.);
#512 = CARTESIAN_POINT('',(-1.4E+03,-85.99999999094,-76.));
#513 = CARTESIAN_POINT('',(760.,-85.99999999094,-76.));
#514 = PCURVE('',#199,#515);
#515 = DEFINITIONAL_REPRESENTATION('',(#516),#519);
#516 = B_SPLINE_CURVE_WITH_KNOTS('',1,(#517,#518),.UNSPECIFIED.,.F.,.F.,
  (2,2),(0.,1.),.PIECEWISE_BEZIER_KNOTS.);
#517 = CARTESIAN_POINT('',(-4.712388980385,0.));
#518 = CARTESIAN_POINT('',(-4.712388980385,2.16E+03));
#519 = ( GEOMETRIC_REPRESENTATION_CONTEXT(2) 
PARAMETRIC_REPRESENTATION_CONTEXT() REPRESENTATION_CONTEXT('2D SPACE',''
  ) );
#520 = PCURVE('',#171,#521);
#521 = DEFINITIONAL_REPRESENTATION('',(#522),#525);
#522 = B_SPLINE_CURVE_WITH_KNOTS('',1,(#523,#524),.UNSPECIFIED.,.F.,.F.,
  (2,2),(0.,1.),.PIECEWISE_BEZIER_KNOTS.);
#523 = CARTESIAN_POINT('',(76.,-2.16E+03));
#524 = CARTESIAN_POINT('',(76.,0.));
#525 = ( GEOMETRIC_REPRESENTATION_CONTEXT(2) 
PARAMETRIC_REPRESENTATION_CONTEXT() REPRESENTATION_CONTEXT('2D SPACE',''
  ) );
#526 = ORIENTED_EDGE('',*,*,#527,.T.);
#527 = EDGE_CURVE('',#508,#456,#528,.T.);
#528 = SURFACE_CURVE('',#529,(#534,#541),.PCURVE_S1.);
#529 = CIRCLE('',#530,10.);
#530 = AXIS2_PLACEMENT_3D('',#531,#532,#533);
#531 = CARTESIAN_POINT('',(760.,-75.99999998187,-76.));
#532 = DIRECTION('',(1.,0.,1.110223024625E-16));
#533 = DIRECTION('',(-1.110223024625E-16,0.,1.));
#534 = PCURVE('',#199,#535);
#535 = DEFINITIONAL_REPRESENTATION('',(#536),#540);
#536 = LINE('',#537,#538);
#537 = CARTESIAN_POINT('',(-6.28318530718,2.16E+03));
#538 = VECTOR('',#539,1.);
#539 = DIRECTION('',(1.,0.));
#540 = ( GEOMETRIC_REPRESENTATION_CONTEXT(2) 
PARAMETRIC_REPRESENTATION_CONTEXT() REPRESENTATION_CONTEXT('2D SPACE',''
  ) );
#541 = PCURVE('',#542,#561);
#542 = B_SPLINE_SURFACE_WITH_KNOTS('',8,1,(
    (#543,#544)
    ,(#545,#546)
    ,(#547,#548)
    ,(#549,#550)
    ,(#551,#552)
    ,(#553,#554)
    ,(#555,#556)
    ,(#557,#558)
    ,(#559,#560
    )),.UNSPECIFIED.,.F.,.F.,.F.,(9,9),(2,2),(-113.5077089893,
    -98.3190271038),(0.,1.),.PIECEWISE_BEZIER_KNOTS.);
#543 = CARTESIAN_POINT('',(760.,-75.99999998187,-86.));
#544 = CARTESIAN_POINT('',(1.01E+03,-47.,-36.));
#545 = CARTESIAN_POINT('',(759.99999999998,-77.96349539037,
    -85.99999999999));
#546 = CARTESIAN_POINT('',(1.01E+03,-47.46834164016,-34.16008641364));
#547 = CARTESIAN_POINT('',(760.00000000003,-79.92699141692,
    -85.55939211039));
#548 = CARTESIAN_POINT('',(1.01E+03,-47.93668328032,-32.32017282728));
#549 = CARTESIAN_POINT('',(759.99999999994,-81.77513232522,
    -84.67818065871));
#550 = CARTESIAN_POINT('',(1.01E+03,-48.40502492049,-30.48025924093));
#551 = CARTESIAN_POINT('',(760.00000000006,-83.39258753968,
    -83.3925875578));
#552 = CARTESIAN_POINT('',(1.01E+03,-48.87336656065,-28.64034565457));
#553 = CARTESIAN_POINT('',(759.99999999995,-84.67818064058,
    -81.77513234335));
#554 = CARTESIAN_POINT('',(1.01E+03,-49.34170820081,-26.80043206821));
#555 = CARTESIAN_POINT('',(760.00000000002,-85.55939209226,
    -79.92699143504));
#556 = CARTESIAN_POINT('',(1.01E+03,-49.81004984098,-24.96051848186));
#557 = CARTESIAN_POINT('',(759.99999999999,-85.99999998187,
    -77.96349540849));
#558 = CARTESIAN_POINT('',(1.01E+03,-50.27839148114,-23.1206048955));
#559 = CARTESIAN_POINT('',(760.,-85.99999998187,-76.));
#560 = CARTESIAN_POINT('',(1.01E+03,-50.7467331213,-21.28069130914));
#561 = DEFINITIONAL_REPRESENTATION('',(#562),#565);
#562 = B_SPLINE_CURVE_WITH_KNOTS('',1,(#563,#564),.UNSPECIFIED.,.F.,.F.,
  (2,2),(1.570796326795,3.14159265359),.PIECEWISE_BEZIER_KNOTS.);
#563 = CARTESIAN_POINT('',(-98.3190271038,0.));
#564 = CARTESIAN_POINT('',(-113.5077089893,0.));
#565 = ( GEOMETRIC_REPRESENTATION_CONTEXT(2) 
PARAMETRIC_REPRESENTATION_CONTEXT() REPRESENTATION_CONTEXT('2D SPACE',''
  ) );
#566 = ORIENTED_EDGE('',*,*,#483,.F.);
#567 = ADVANCED_FACE('',(#568),#171,.T.);
#568 = FACE_BOUND('',#569,.F.);
#569 = EDGE_LOOP('',(#570,#571,#591,#619,#645));
#570 = ORIENTED_EDGE('',*,*,#156,.T.);
#571 = ORIENTED_EDGE('',*,*,#572,.T.);
#572 = EDGE_CURVE('',#128,#573,#575,.T.);
#573 = VERTEX_POINT('',#574);
#574 = CARTESIAN_POINT('',(760.,-85.99999999094,76.));
#575 = SURFACE_CURVE('',#576,(#579,#585),.PCURVE_S1.);
#576 = B_SPLINE_CURVE_WITH_KNOTS('',1,(#577,#578),.UNSPECIFIED.,.F.,.F.,
  (2,2),(0.,1.),.PIECEWISE_BEZIER_KNOTS.);
#577 = CARTESIAN_POINT('',(-1.4E+03,-85.99999999094,76.));
#578 = CARTESIAN_POINT('',(760.,-85.99999999094,76.));
#579 = PCURVE('',#171,#580);
#580 = DEFINITIONAL_REPRESENTATION('',(#581),#584);
#581 = B_SPLINE_CURVE_WITH_KNOTS('',1,(#582,#583),.UNSPECIFIED.,.F.,.F.,
  (2,2),(0.,1.),.PIECEWISE_BEZIER_KNOTS.);
#582 = CARTESIAN_POINT('',(-76.,-2.16E+03));
#583 = CARTESIAN_POINT('',(-76.,0.));
#584 = ( GEOMETRIC_REPRESENTATION_CONTEXT(2) 
PARAMETRIC_REPRESENTATION_CONTEXT() REPRESENTATION_CONTEXT('2D SPACE',''
  ) );
#585 = PCURVE('',#144,#586);
#586 = DEFINITIONAL_REPRESENTATION('',(#587),#590);
#587 = B_SPLINE_CURVE_WITH_KNOTS('',1,(#588,#589),.UNSPECIFIED.,.F.,.F.,
  (2,2),(0.,1.),.PIECEWISE_BEZIER_KNOTS.);
#588 = CARTESIAN_POINT('',(-4.712388980385,0.));
#589 = CARTESIAN_POINT('',(-4.712388980385,2.16E+03));
#590 = ( GEOMETRIC_REPRESENTATION_CONTEXT(2) 
PARAMETRIC_REPRESENTATION_CONTEXT() REPRESENTATION_CONTEXT('2D SPACE',''
  ) );
#591 = ORIENTED_EDGE('',*,*,#592,.T.);
#592 = EDGE_CURVE('',#573,#593,#595,.T.);
#593 = VERTEX_POINT('',#594);
#594 = CARTESIAN_POINT('',(760.,-86.,57.831836468522));
#595 = SURFACE_CURVE('',#596,(#600,#607),.PCURVE_S1.);
#596 = LINE('',#597,#598);
#597 = CARTESIAN_POINT('',(760.,-86.,76.));
#598 = VECTOR('',#599,1.);
#599 = DIRECTION('',(0.,0.,-1.));
#600 = PCURVE('',#171,#601);
#601 = DEFINITIONAL_REPRESENTATION('',(#602),#606);
#602 = LINE('',#603,#604);
#603 = CARTESIAN_POINT('',(-76.,8.437694987151E-15));
#604 = VECTOR('',#605,1.);
#605 = DIRECTION('',(1.,-1.110223024625E-16));
#606 = ( GEOMETRIC_REPRESENTATION_CONTEXT(2) 
PARAMETRIC_REPRESENTATION_CONTEXT() REPRESENTATION_CONTEXT('2D SPACE',''
  ) );
#607 = PCURVE('',#608,#613);
#608 = PLANE('',#609);
#609 = AXIS2_PLACEMENT_3D('',#610,#611,#612);
#610 = CARTESIAN_POINT('',(760.,-86.,76.));
#611 = DIRECTION('',(-4.395746974398E-02,0.999033403272,0.));
#612 = DIRECTION('',(0.,0.,1.));
#613 = DEFINITIONAL_REPRESENTATION('',(#614),#618);
#614 = LINE('',#615,#616);
#615 = CARTESIAN_POINT('',(0.,0.));
#616 = VECTOR('',#617,1.);
#617 = DIRECTION('',(-1.,0.));
#618 = ( GEOMETRIC_REPRESENTATION_CONTEXT(2) 
PARAMETRIC_REPRESENTATION_CONTEXT() REPRESENTATION_CONTEXT('2D SPACE',''
  ) );
#619 = ORIENTED_EDGE('',*,*,#620,.T.);
#620 = EDGE_CURVE('',#593,#508,#621,.T.);
#621 = SURFACE_CURVE('',#622,(#626,#633),.PCURVE_S1.);
#622 = LINE('',#623,#624);
#623 = CARTESIAN_POINT('',(760.,-86.,0.));
#624 = VECTOR('',#625,1.);
#625 = DIRECTION('',(1.110223024625E-16,0.,-1.));
#626 = PCURVE('',#171,#627);
#627 = DEFINITIONAL_REPRESENTATION('',(#628),#632);
#628 = LINE('',#629,#630);
#629 = CARTESIAN_POINT('',(0.,0.));
#630 = VECTOR('',#631,1.);
#631 = DIRECTION('',(1.,0.));
#632 = ( GEOMETRIC_REPRESENTATION_CONTEXT(2) 
PARAMETRIC_REPRESENTATION_CONTEXT() REPRESENTATION_CONTEXT('2D SPACE',''
  ) );
#633 = PCURVE('',#634,#639);
#634 = B_SPLINE_SURFACE_WITH_KNOTS('',1,1,(
    (#635,#636)
    ,(#637,#638
    )),.UNSPECIFIED.,.F.,.F.,.F.,(2,2),(2,2),(-76.,57.831836470292),(0.,
    1.),.PIECEWISE_BEZIER_KNOTS.);
#635 = CARTESIAN_POINT('',(760.,-86.,-76.));
#636 = CARTESIAN_POINT('',(1.01E+03,-50.7467331213,-21.28069130914));
#637 = CARTESIAN_POINT('',(760.,-86.,57.831836470292));
#638 = CARTESIAN_POINT('',(1.01E+03,-75.,74.));
#639 = DEFINITIONAL_REPRESENTATION('',(#640),#644);
#640 = LINE('',#641,#642);
#641 = CARTESIAN_POINT('',(0.,0.));
#642 = VECTOR('',#643,1.);
#643 = DIRECTION('',(-1.,0.));
#644 = ( GEOMETRIC_REPRESENTATION_CONTEXT(2) 
PARAMETRIC_REPRESENTATION_CONTEXT() REPRESENTATION_CONTEXT('2D SPACE',''
  ) );
#645 = ORIENTED_EDGE('',*,*,#507,.F.);
#646 = ADVANCED_FACE('',(#647),#144,.T.);
#647 = FACE_BOUND('',#648,.F.);
#648 = EDGE_LOOP('',(#649,#650,#670,#711));
#649 = ORIENTED_EDGE('',*,*,#127,.F.);
#650 = ORIENTED_EDGE('',*,*,#651,.T.);
#651 = EDGE_CURVE('',#102,#652,#654,.T.);
#652 = VERTEX_POINT('',#653);
#653 = CARTESIAN_POINT('',(760.,-75.99999999093,86.));
#654 = SURFACE_CURVE('',#655,(#658,#664),.PCURVE_S1.);
#655 = B_SPLINE_CURVE_WITH_KNOTS('',1,(#656,#657),.UNSPECIFIED.,.F.,.F.,
  (2,2),(0.,1.),.PIECEWISE_BEZIER_KNOTS.);
#656 = CARTESIAN_POINT('',(-1.4E+03,-75.99999998187,86.));
#657 = CARTESIAN_POINT('',(760.,-75.99999998187,86.));
#658 = PCURVE('',#144,#659);
#659 = DEFINITIONAL_REPRESENTATION('',(#660),#663);
#660 = B_SPLINE_CURVE_WITH_KNOTS('',1,(#661,#662),.UNSPECIFIED.,.F.,.F.,
  (2,2),(0.,1.),.PIECEWISE_BEZIER_KNOTS.);
#661 = CARTESIAN_POINT('',(-6.28318530718,0.));
#662 = CARTESIAN_POINT('',(-6.28318530718,2.16E+03));
#663 = ( GEOMETRIC_REPRESENTATION_CONTEXT(2) 
PARAMETRIC_REPRESENTATION_CONTEXT() REPRESENTATION_CONTEXT('2D SPACE',''
  ) );
#664 = PCURVE('',#116,#665);
#665 = DEFINITIONAL_REPRESENTATION('',(#666),#669);
#666 = B_SPLINE_CURVE_WITH_KNOTS('',1,(#667,#668),.UNSPECIFIED.,.F.,.F.,
  (2,2),(0.,1.),.PIECEWISE_BEZIER_KNOTS.);
#667 = CARTESIAN_POINT('',(75.999999981881,-2.16E+03));
#668 = CARTESIAN_POINT('',(75.999999981881,0.));
#669 = ( GEOMETRIC_REPRESENTATION_CONTEXT(2) 
PARAMETRIC_REPRESENTATION_CONTEXT() REPRESENTATION_CONTEXT('2D SPACE',''
  ) );
#670 = ORIENTED_EDGE('',*,*,#671,.T.);
#671 = EDGE_CURVE('',#652,#573,#672,.T.);
#672 = SURFACE_CURVE('',#673,(#678,#685),.PCURVE_S1.);
#673 = CIRCLE('',#674,10.);
#674 = AXIS2_PLACEMENT_3D('',#675,#676,#677);
#675 = CARTESIAN_POINT('',(760.,-75.99999998187,76.));
#676 = DIRECTION('',(1.,0.,1.110223024625E-16));
#677 = DIRECTION('',(-1.110223024625E-16,0.,1.));
#678 = PCURVE('',#144,#679);
#679 = DEFINITIONAL_REPRESENTATION('',(#680),#684);
#680 = LINE('',#681,#682);
#681 = CARTESIAN_POINT('',(-6.28318530718,2.16E+03));
#682 = VECTOR('',#683,1.);
#683 = DIRECTION('',(1.,0.));
#684 = ( GEOMETRIC_REPRESENTATION_CONTEXT(2) 
PARAMETRIC_REPRESENTATION_CONTEXT() REPRESENTATION_CONTEXT('2D SPACE',''
  ) );
#685 = PCURVE('',#686,#705);
#686 = B_SPLINE_SURFACE_WITH_KNOTS('',8,1,(
    (#687,#688)
    ,(#689,#690)
    ,(#691,#692)
    ,(#693,#694)
    ,(#695,#696)
    ,(#697,#698)
    ,(#699,#700)
    ,(#701,#702)
    ,(#703,#704
    )),.UNSPECIFIED.,.F.,.F.,.F.,(9,9),(2,2),(0.,1.570796326795),(0.,1.)
  ,.PIECEWISE_BEZIER_KNOTS.);
#687 = CARTESIAN_POINT('',(760.,-76.,86.));
#688 = CARTESIAN_POINT('',(1.01E+03,-75.,74.));
#689 = CARTESIAN_POINT('',(760.,-77.96349540849,86.));
#690 = CARTESIAN_POINT('',(1.01E+03,-75.,74.));
#691 = CARTESIAN_POINT('',(759.99999999999,-79.92699143504,
    85.559392110387));
#692 = CARTESIAN_POINT('',(1.01E+03,-75.,74.));
#693 = CARTESIAN_POINT('',(760.00000000002,-81.77513234334,
    84.678180658715));
#694 = CARTESIAN_POINT('',(1.01E+03,-75.,74.));
#695 = CARTESIAN_POINT('',(759.99999999997,-83.3925875578,
    83.392587557797));
#696 = CARTESIAN_POINT('',(1.01E+03,-75.,74.));
#697 = CARTESIAN_POINT('',(760.00000000002,-84.67818065871,
    81.775132343352));
#698 = CARTESIAN_POINT('',(1.01E+03,-75.,74.));
#699 = CARTESIAN_POINT('',(759.99999999998,-85.55939211038,
    79.926991435041));
#700 = CARTESIAN_POINT('',(1.01E+03,-75.,74.));
#701 = CARTESIAN_POINT('',(760.,-86.,77.963495408494));
#702 = CARTESIAN_POINT('',(1.01E+03,-75.,74.));
#703 = CARTESIAN_POINT('',(760.,-86.,76.));
#704 = CARTESIAN_POINT('',(1.01E+03,-75.,74.));
#705 = DEFINITIONAL_REPRESENTATION('',(#706),#710);
#706 = LINE('',#707,#708);
#707 = CARTESIAN_POINT('',(0.,0.));
#708 = VECTOR('',#709,1.);
#709 = DIRECTION('',(1.,0.));
#710 = ( GEOMETRIC_REPRESENTATION_CONTEXT(2) 
PARAMETRIC_REPRESENTATION_CONTEXT() REPRESENTATION_CONTEXT('2D SPACE',''
  ) );
#711 = ORIENTED_EDGE('',*,*,#572,.F.);
#712 = ADVANCED_FACE('',(#713),#116,.T.);
#713 = FACE_BOUND('',#714,.T.);
#714 = EDGE_LOOP('',(#715,#716,#717,#745));
#715 = ORIENTED_EDGE('',*,*,#101,.T.);
#716 = ORIENTED_EDGE('',*,*,#651,.T.);
#717 = ORIENTED_EDGE('',*,*,#718,.T.);
#718 = EDGE_CURVE('',#652,#719,#721,.T.);
#719 = VERTEX_POINT('',#720);
#720 = CARTESIAN_POINT('',(760.,75.999999990939,86.));
#721 = SURFACE_CURVE('',#722,(#726,#733),.PCURVE_S1.);
#722 = LINE('',#723,#724);
#723 = CARTESIAN_POINT('',(760.,-75.99999999093,86.));
#724 = VECTOR('',#725,1.);
#725 = DIRECTION('',(0.,1.,0.));
#726 = PCURVE('',#116,#727);
#727 = DEFINITIONAL_REPRESENTATION('',(#728),#732);
#728 = LINE('',#729,#730);
#729 = CARTESIAN_POINT('',(75.999999990941,0.));
#730 = VECTOR('',#731,1.);
#731 = DIRECTION('',(-1.,0.));
#732 = ( GEOMETRIC_REPRESENTATION_CONTEXT(2) 
PARAMETRIC_REPRESENTATION_CONTEXT() REPRESENTATION_CONTEXT('2D SPACE',''
  ) );
#733 = PCURVE('',#734,#739);
#734 = PLANE('',#735);
#735 = AXIS2_PLACEMENT_3D('',#736,#737,#738);
#736 = CARTESIAN_POINT('',(884.68850444234,0.,80.014951786768));
#737 = DIRECTION('',(-4.79447993684E-02,0.,-0.998849986842));
#738 = DIRECTION('',(-0.998849986842,0.,4.79447993684E-02));
#739 = DEFINITIONAL_REPRESENTATION('',(#740),#744);
#740 = LINE('',#741,#742);
#741 = CARTESIAN_POINT('',(124.83206295732,-75.99999999093));
#742 = VECTOR('',#743,1.);
#743 = DIRECTION('',(0.,1.));
#744 = ( GEOMETRIC_REPRESENTATION_CONTEXT(2) 
PARAMETRIC_REPRESENTATION_CONTEXT() REPRESENTATION_CONTEXT('2D SPACE',''
  ) );
#745 = ORIENTED_EDGE('',*,*,#746,.F.);
#746 = EDGE_CURVE('',#73,#719,#747,.T.);
#747 = SURFACE_CURVE('',#748,(#751,#757),.PCURVE_S1.);
#748 = B_SPLINE_CURVE_WITH_KNOTS('',1,(#749,#750),.UNSPECIFIED.,.F.,.F.,
  (2,2),(0.,1.),.PIECEWISE_BEZIER_KNOTS.);
#749 = CARTESIAN_POINT('',(-1.4E+03,75.999999981879,86.));
#750 = CARTESIAN_POINT('',(760.,75.999999981879,86.));
#751 = PCURVE('',#116,#752);
#752 = DEFINITIONAL_REPRESENTATION('',(#753),#756);
#753 = B_SPLINE_CURVE_WITH_KNOTS('',1,(#754,#755),.UNSPECIFIED.,.F.,.F.,
  (2,2),(0.,1.),.PIECEWISE_BEZIER_KNOTS.);
#754 = CARTESIAN_POINT('',(-75.99999998187,-2.16E+03));
#755 = CARTESIAN_POINT('',(-75.99999998187,0.));
#756 = ( GEOMETRIC_REPRESENTATION_CONTEXT(2) 
PARAMETRIC_REPRESENTATION_CONTEXT() REPRESENTATION_CONTEXT('2D SPACE',''
  ) );
#757 = PCURVE('',#89,#758);
#758 = DEFINITIONAL_REPRESENTATION('',(#759),#762);
#759 = B_SPLINE_CURVE_WITH_KNOTS('',1,(#760,#761),.UNSPECIFIED.,.F.,.F.,
  (2,2),(0.,1.),.PIECEWISE_BEZIER_KNOTS.);
#760 = CARTESIAN_POINT('',(6.28318530718,0.));
#761 = CARTESIAN_POINT('',(6.28318530718,2.16E+03));
#762 = ( GEOMETRIC_REPRESENTATION_CONTEXT(2) 
PARAMETRIC_REPRESENTATION_CONTEXT() REPRESENTATION_CONTEXT('2D SPACE',''
  ) );
#763 = ADVANCED_FACE('',(#764),#89,.T.);
#764 = FACE_BOUND('',#765,.T.);
#765 = EDGE_LOOP('',(#766,#767,#768,#809));
#766 = ORIENTED_EDGE('',*,*,#72,.T.);
#767 = ORIENTED_EDGE('',*,*,#746,.T.);
#768 = ORIENTED_EDGE('',*,*,#769,.T.);
#769 = EDGE_CURVE('',#719,#269,#770,.T.);
#770 = SURFACE_CURVE('',#771,(#776,#783),.PCURVE_S1.);
#771 = CIRCLE('',#772,10.);
#772 = AXIS2_PLACEMENT_3D('',#773,#774,#775);
#773 = CARTESIAN_POINT('',(760.,75.999999981879,76.));
#774 = DIRECTION('',(-1.,0.,-1.110223024625E-16));
#775 = DIRECTION('',(-1.110223024625E-16,0.,1.));
#776 = PCURVE('',#89,#777);
#777 = DEFINITIONAL_REPRESENTATION('',(#778),#782);
#778 = LINE('',#779,#780);
#779 = CARTESIAN_POINT('',(6.28318530718,2.16E+03));
#780 = VECTOR('',#781,1.);
#781 = DIRECTION('',(-1.,0.));
#782 = ( GEOMETRIC_REPRESENTATION_CONTEXT(2) 
PARAMETRIC_REPRESENTATION_CONTEXT() REPRESENTATION_CONTEXT('2D SPACE',''
  ) );
#783 = PCURVE('',#784,#803);
#784 = B_SPLINE_SURFACE_WITH_KNOTS('',8,1,(
    (#785,#786)
    ,(#787,#788)
    ,(#789,#790)
    ,(#791,#792)
    ,(#793,#794)
    ,(#795,#796)
    ,(#797,#798)
    ,(#799,#800)
    ,(#801,#802
    )),.UNSPECIFIED.,.F.,.F.,.F.,(9,9),(2,2),(0.,1.570796326795),(0.,1.)
  ,.PIECEWISE_BEZIER_KNOTS.);
#785 = CARTESIAN_POINT('',(760.,76.,86.));
#786 = CARTESIAN_POINT('',(1.01E+03,75.,74.));
#787 = CARTESIAN_POINT('',(760.,77.963495408493,86.));
#788 = CARTESIAN_POINT('',(1.01E+03,75.,74.));
#789 = CARTESIAN_POINT('',(759.99999999999,79.926991435043,
    85.559392110387));
#790 = CARTESIAN_POINT('',(1.01E+03,75.,74.));
#791 = CARTESIAN_POINT('',(760.00000000002,81.775132343349,
    84.678180658715));
#792 = CARTESIAN_POINT('',(1.01E+03,75.,74.));
#793 = CARTESIAN_POINT('',(759.99999999997,83.392587557801,
    83.392587557797));
#794 = CARTESIAN_POINT('',(1.01E+03,75.,74.));
#795 = CARTESIAN_POINT('',(760.00000000002,84.678180658713,
    81.775132343352));
#796 = CARTESIAN_POINT('',(1.01E+03,75.,74.));
#797 = CARTESIAN_POINT('',(759.99999999998,85.559392110389,
    79.926991435041));
#798 = CARTESIAN_POINT('',(1.01E+03,75.,74.));
#799 = CARTESIAN_POINT('',(760.,86.,77.963495408494));
#800 = CARTESIAN_POINT('',(1.01E+03,75.,74.));
#801 = CARTESIAN_POINT('',(760.,86.,76.));
#802 = CARTESIAN_POINT('',(1.01E+03,75.,74.));
#803 = DEFINITIONAL_REPRESENTATION('',(#804),#808);
#804 = LINE('',#805,#806);
#805 = CARTESIAN_POINT('',(0.,0.));
#806 = VECTOR('',#807,1.);
#807 = DIRECTION('',(1.,0.));
#808 = ( GEOMETRIC_REPRESENTATION_CONTEXT(2) 
PARAMETRIC_REPRESENTATION_CONTEXT() REPRESENTATION_CONTEXT('2D SPACE',''
  ) );
#809 = ORIENTED_EDGE('',*,*,#268,.F.);
#810 = ADVANCED_FACE('',(#811),#331,.T.);
#811 = FACE_BOUND('',#812,.T.);
#812 = EDGE_LOOP('',(#813,#814,#835,#862));
#813 = ORIENTED_EDGE('',*,*,#315,.F.);
#814 = ORIENTED_EDGE('',*,*,#815,.T.);
#815 = EDGE_CURVE('',#289,#816,#818,.T.);
#816 = VERTEX_POINT('',#817);
#817 = CARTESIAN_POINT('',(1.01E+03,75.,74.));
#818 = SURFACE_CURVE('',#819,(#822,#829),.PCURVE_S1.);
#819 = B_SPLINE_CURVE_WITH_KNOTS('',1,(#820,#821),.UNSPECIFIED.,.F.,.F.,
  (2,2),(0.,1.),.PIECEWISE_BEZIER_KNOTS.);
#820 = CARTESIAN_POINT('',(760.,86.,57.831836466751));
#821 = CARTESIAN_POINT('',(1.01E+03,75.,74.));
#822 = PCURVE('',#331,#823);
#823 = DEFINITIONAL_REPRESENTATION('',(#824),#828);
#824 = LINE('',#825,#826);
#825 = CARTESIAN_POINT('',(57.831836470292,0.));
#826 = VECTOR('',#827,1.);
#827 = DIRECTION('',(0.,1.));
#828 = ( GEOMETRIC_REPRESENTATION_CONTEXT(2) 
PARAMETRIC_REPRESENTATION_CONTEXT() REPRESENTATION_CONTEXT('2D SPACE',''
  ) );
#829 = PCURVE('',#303,#830);
#830 = DEFINITIONAL_REPRESENTATION('',(#831),#834);
#831 = B_SPLINE_CURVE_WITH_KNOTS('',1,(#832,#833),.UNSPECIFIED.,.F.,.F.,
  (2,2),(0.,1.),.PIECEWISE_BEZIER_KNOTS.);
#832 = CARTESIAN_POINT('',(18.168163533249,0.));
#833 = CARTESIAN_POINT('',(2.,250.24188298524));
#834 = ( GEOMETRIC_REPRESENTATION_CONTEXT(2) 
PARAMETRIC_REPRESENTATION_CONTEXT() REPRESENTATION_CONTEXT('2D SPACE',''
  ) );
#835 = ORIENTED_EDGE('',*,*,#836,.T.);
#836 = EDGE_CURVE('',#816,#837,#839,.T.);
#837 = VERTEX_POINT('',#838);
#838 = CARTESIAN_POINT('',(1.01E+03,50.746733121308,-21.28069130914));
#839 = SURFACE_CURVE('',#840,(#844,#850),.PCURVE_S1.);
#840 = LINE('',#841,#842);
#841 = CARTESIAN_POINT('',(1.01E+03,75.,74.));
#842 = VECTOR('',#843,1.);
#843 = DIRECTION('',(0.,-0.246679280635,-0.969097173923));
#844 = PCURVE('',#331,#845);
#845 = DEFINITIONAL_REPRESENTATION('',(#846),#849);
#846 = B_SPLINE_CURVE_WITH_KNOTS('',1,(#847,#848),.UNSPECIFIED.,.F.,.F.,
  (2,2),(0.,98.319027103802),.PIECEWISE_BEZIER_KNOTS.);
#847 = CARTESIAN_POINT('',(57.831836470292,1.));
#848 = CARTESIAN_POINT('',(-76.,1.));
#849 = ( GEOMETRIC_REPRESENTATION_CONTEXT(2) 
PARAMETRIC_REPRESENTATION_CONTEXT() REPRESENTATION_CONTEXT('2D SPACE',''
  ) );
#850 = PCURVE('',#851,#856);
#851 = PLANE('',#852);
#852 = AXIS2_PLACEMENT_3D('',#853,#854,#855);
#853 = CARTESIAN_POINT('',(1.191973360871E+03,37.261490603801,
    29.026450327948));
#854 = DIRECTION('',(-0.138658356422,-0.959735961679,0.244296426609));
#855 = DIRECTION('',(3.469446951954E-17,-0.246679280635,-0.969097173923)
  );
#856 = DEFINITIONAL_REPRESENTATION('',(#857),#861);
#857 = LINE('',#858,#859);
#858 = CARTESIAN_POINT('',(-52.89304823855,-183.7483191113));
#859 = VECTOR('',#860,1.);
#860 = DIRECTION('',(1.,0.));
#861 = ( GEOMETRIC_REPRESENTATION_CONTEXT(2) 
PARAMETRIC_REPRESENTATION_CONTEXT() REPRESENTATION_CONTEXT('2D SPACE',''
  ) );
#862 = ORIENTED_EDGE('',*,*,#863,.F.);
#863 = EDGE_CURVE('',#316,#837,#864,.T.);
#864 = SURFACE_CURVE('',#865,(#868,#875),.PCURVE_S1.);
#865 = B_SPLINE_CURVE_WITH_KNOTS('',1,(#866,#867),.UNSPECIFIED.,.F.,.F.,
  (2,2),(0.,1.),.PIECEWISE_BEZIER_KNOTS.);
#866 = CARTESIAN_POINT('',(760.,85.999999981879,-76.));
#867 = CARTESIAN_POINT('',(1.01E+03,50.746733121308,-21.28069130914));
#868 = PCURVE('',#331,#869);
#869 = DEFINITIONAL_REPRESENTATION('',(#870),#874);
#870 = LINE('',#871,#872);
#871 = CARTESIAN_POINT('',(-76.,0.));
#872 = VECTOR('',#873,1.);
#873 = DIRECTION('',(0.,1.));
#874 = ( GEOMETRIC_REPRESENTATION_CONTEXT(2) 
PARAMETRIC_REPRESENTATION_CONTEXT() REPRESENTATION_CONTEXT('2D SPACE',''
  ) );
#875 = PCURVE('',#382,#876);
#876 = DEFINITIONAL_REPRESENTATION('',(#877),#881);
#877 = LINE('',#878,#879);
#878 = CARTESIAN_POINT('',(-98.3190271038,0.));
#879 = VECTOR('',#880,1.);
#880 = DIRECTION('',(0.,1.));
#881 = ( GEOMETRIC_REPRESENTATION_CONTEXT(2) 
PARAMETRIC_REPRESENTATION_CONTEXT() REPRESENTATION_CONTEXT('2D SPACE',''
  ) );
#882 = ADVANCED_FACE('',(#883),#303,.F.);
#883 = FACE_BOUND('',#884,.F.);
#884 = EDGE_LOOP('',(#885,#886,#887));
#885 = ORIENTED_EDGE('',*,*,#288,.T.);
#886 = ORIENTED_EDGE('',*,*,#815,.T.);
#887 = ORIENTED_EDGE('',*,*,#888,.F.);
#888 = EDGE_CURVE('',#269,#816,#889,.T.);
#889 = SURFACE_CURVE('',#890,(#893,#899),.PCURVE_S1.);
#890 = B_SPLINE_CURVE_WITH_KNOTS('',1,(#891,#892),.UNSPECIFIED.,.F.,.F.,
  (2,2),(0.,1.),.PIECEWISE_BEZIER_KNOTS.);
#891 = CARTESIAN_POINT('',(760.,86.,76.));
#892 = CARTESIAN_POINT('',(1.01E+03,75.,74.));
#893 = PCURVE('',#303,#894);
#894 = DEFINITIONAL_REPRESENTATION('',(#895),#898);
#895 = B_SPLINE_CURVE_WITH_KNOTS('',1,(#896,#897),.UNSPECIFIED.,.F.,.F.,
  (2,2),(0.,1.),.PIECEWISE_BEZIER_KNOTS.);
#896 = CARTESIAN_POINT('',(2.84217094304E-14,0.));
#897 = CARTESIAN_POINT('',(2.,250.24188298524));
#898 = ( GEOMETRIC_REPRESENTATION_CONTEXT(2) 
PARAMETRIC_REPRESENTATION_CONTEXT() REPRESENTATION_CONTEXT('2D SPACE',''
  ) );
#899 = PCURVE('',#784,#900);
#900 = DEFINITIONAL_REPRESENTATION('',(#901),#905);
#901 = LINE('',#902,#903);
#902 = CARTESIAN_POINT('',(1.570796326795,0.));
#903 = VECTOR('',#904,1.);
#904 = DIRECTION('',(0.,1.));
#905 = ( GEOMETRIC_REPRESENTATION_CONTEXT(2) 
PARAMETRIC_REPRESENTATION_CONTEXT() REPRESENTATION_CONTEXT('2D SPACE',''
  ) );
#906 = ADVANCED_FACE('',(#907),#382,.T.);
#907 = FACE_BOUND('',#908,.T.);
#908 = EDGE_LOOP('',(#909,#910,#911,#934));
#909 = ORIENTED_EDGE('',*,*,#365,.F.);
#910 = ORIENTED_EDGE('',*,*,#863,.T.);
#911 = ORIENTED_EDGE('',*,*,#912,.T.);
#912 = EDGE_CURVE('',#837,#913,#915,.T.);
#913 = VERTEX_POINT('',#914);
#914 = CARTESIAN_POINT('',(1.01E+03,47.,-36.));
#915 = SURFACE_CURVE('',#916,(#920,#927),.PCURVE_S1.);
#916 = LINE('',#917,#918);
#917 = CARTESIAN_POINT('',(1.01E+03,75.,74.));
#918 = VECTOR('',#919,1.);
#919 = DIRECTION('',(0.,-0.246679280635,-0.969097173923));
#920 = PCURVE('',#382,#921);
#921 = DEFINITIONAL_REPRESENTATION('',(#922),#926);
#922 = LINE('',#923,#924);
#923 = CARTESIAN_POINT('',(0.,1.));
#924 = VECTOR('',#925,1.);
#925 = DIRECTION('',(-1.,0.));
#926 = ( GEOMETRIC_REPRESENTATION_CONTEXT(2) 
PARAMETRIC_REPRESENTATION_CONTEXT() REPRESENTATION_CONTEXT('2D SPACE',''
  ) );
#927 = PCURVE('',#851,#928);
#928 = DEFINITIONAL_REPRESENTATION('',(#929),#933);
#929 = LINE('',#930,#931);
#930 = CARTESIAN_POINT('',(-52.89304823855,-183.7483191113));
#931 = VECTOR('',#932,1.);
#932 = DIRECTION('',(1.,0.));
#933 = ( GEOMETRIC_REPRESENTATION_CONTEXT(2) 
PARAMETRIC_REPRESENTATION_CONTEXT() REPRESENTATION_CONTEXT('2D SPACE',''
  ) );
#934 = ORIENTED_EDGE('',*,*,#935,.F.);
#935 = EDGE_CURVE('',#366,#913,#936,.T.);
#936 = SURFACE_CURVE('',#937,(#940,#947),.PCURVE_S1.);
#937 = B_SPLINE_CURVE_WITH_KNOTS('',1,(#938,#939),.UNSPECIFIED.,.F.,.F.,
  (2,2),(0.,1.),.PIECEWISE_BEZIER_KNOTS.);
#938 = CARTESIAN_POINT('',(760.,75.999999981879,-86.));
#939 = CARTESIAN_POINT('',(1.01E+03,47.,-36.));
#940 = PCURVE('',#382,#941);
#941 = DEFINITIONAL_REPRESENTATION('',(#942),#946);
#942 = LINE('',#943,#944);
#943 = CARTESIAN_POINT('',(-113.5077089893,0.));
#944 = VECTOR('',#945,1.);
#945 = DIRECTION('',(0.,1.));
#946 = ( GEOMETRIC_REPRESENTATION_CONTEXT(2) 
PARAMETRIC_REPRESENTATION_CONTEXT() REPRESENTATION_CONTEXT('2D SPACE',''
  ) );
#947 = PCURVE('',#444,#948);
#948 = DEFINITIONAL_REPRESENTATION('',(#949),#953);
#949 = LINE('',#950,#951);
#950 = CARTESIAN_POINT('',(75.999999981876,0.));
#951 = VECTOR('',#952,1.);
#952 = DIRECTION('',(0.,1.));
#953 = ( GEOMETRIC_REPRESENTATION_CONTEXT(2) 
PARAMETRIC_REPRESENTATION_CONTEXT() REPRESENTATION_CONTEXT('2D SPACE',''
  ) );
#954 = ADVANCED_FACE('',(#955),#444,.T.);
#955 = FACE_BOUND('',#956,.T.);
#956 = EDGE_LOOP('',(#957,#958,#959,#986));
#957 = ORIENTED_EDGE('',*,*,#428,.T.);
#958 = ORIENTED_EDGE('',*,*,#935,.T.);
#959 = ORIENTED_EDGE('',*,*,#960,.T.);
#960 = EDGE_CURVE('',#913,#961,#963,.T.);
#961 = VERTEX_POINT('',#962);
#962 = CARTESIAN_POINT('',(1.01E+03,0.,-50.));
#963 = SURFACE_CURVE('',#964,(#968,#974),.PCURVE_S1.);
#964 = LINE('',#965,#966);
#965 = CARTESIAN_POINT('',(1.01E+03,47.,-36.));
#966 = VECTOR('',#967,1.);
#967 = DIRECTION('',(0.,-0.958385683586,-0.2854765866));
#968 = PCURVE('',#444,#969);
#969 = DEFINITIONAL_REPRESENTATION('',(#970),#973);
#970 = B_SPLINE_CURVE_WITH_KNOTS('',1,(#971,#972),.UNSPECIFIED.,.F.,.F.,
  (2,2),(0.,49.040799340957),.PIECEWISE_BEZIER_KNOTS.);
#971 = CARTESIAN_POINT('',(75.999999981876,1.));
#972 = CARTESIAN_POINT('',(-2.632432938299E-09,1.));
#973 = ( GEOMETRIC_REPRESENTATION_CONTEXT(2) 
PARAMETRIC_REPRESENTATION_CONTEXT() REPRESENTATION_CONTEXT('2D SPACE',''
  ) );
#974 = PCURVE('',#975,#980);
#975 = PLANE('',#976);
#976 = AXIS2_PLACEMENT_3D('',#977,#978,#979);
#977 = CARTESIAN_POINT('',(1.205183059005E+03,15.766023573151,
    -2.875088163603));
#978 = DIRECTION('',(-0.203953643411,-0.279476024896,0.938240940722));
#979 = DIRECTION('',(-1.387778780781E-17,0.958385683586,0.2854765866));
#980 = DEFINITIONAL_REPRESENTATION('',(#981),#985);
#981 = LINE('',#982,#983);
#982 = CARTESIAN_POINT('',(20.477809086478,199.37378695577));
#983 = VECTOR('',#984,1.);
#984 = DIRECTION('',(-1.,4.163336342344E-17));
#985 = ( GEOMETRIC_REPRESENTATION_CONTEXT(2) 
PARAMETRIC_REPRESENTATION_CONTEXT() REPRESENTATION_CONTEXT('2D SPACE',''
  ) );
#986 = ORIENTED_EDGE('',*,*,#987,.F.);
#987 = EDGE_CURVE('',#429,#961,#988,.T.);
#988 = SURFACE_CURVE('',#989,(#992,#999),.PCURVE_S1.);
#989 = B_SPLINE_CURVE_WITH_KNOTS('',1,(#990,#991),.UNSPECIFIED.,.F.,.F.,
  (2,2),(0.,1.),.PIECEWISE_BEZIER_KNOTS.);
#990 = CARTESIAN_POINT('',(760.,-2.6302515721E-09,-86.));
#991 = CARTESIAN_POINT('',(1.01E+03,0.,-50.));
#992 = PCURVE('',#444,#993);
#993 = DEFINITIONAL_REPRESENTATION('',(#994),#998);
#994 = LINE('',#995,#996);
#995 = CARTESIAN_POINT('',(-2.632432938299E-09,0.));
#996 = VECTOR('',#997,1.);
#997 = DIRECTION('',(0.,1.));
#998 = ( GEOMETRIC_REPRESENTATION_CONTEXT(2) 
PARAMETRIC_REPRESENTATION_CONTEXT() REPRESENTATION_CONTEXT('2D SPACE',''
  ) );
#999 = PCURVE('',#471,#1000);
#1000 = DEFINITIONAL_REPRESENTATION('',(#1001),#1004);
#1001 = B_SPLINE_CURVE_WITH_KNOTS('',1,(#1002,#1003),.UNSPECIFIED.,.F.,
  .F.,(2,2),(0.,1.),.PIECEWISE_BEZIER_KNOTS.);
#1002 = CARTESIAN_POINT('',(-2.632432938299E-09,0.));
#1003 = CARTESIAN_POINT('',(-2.632432938299E-09,1.));
#1004 = ( GEOMETRIC_REPRESENTATION_CONTEXT(2) 
PARAMETRIC_REPRESENTATION_CONTEXT() REPRESENTATION_CONTEXT('2D SPACE',''
  ) );
#1005 = ADVANCED_FACE('',(#1006),#471,.F.);
#1006 = FACE_BOUND('',#1007,.F.);
#1007 = EDGE_LOOP('',(#1008,#1009,#1031,#1056));
#1008 = ORIENTED_EDGE('',*,*,#455,.T.);
#1009 = ORIENTED_EDGE('',*,*,#1010,.T.);
#1010 = EDGE_CURVE('',#456,#1011,#1013,.T.);
#1011 = VERTEX_POINT('',#1012);
#1012 = CARTESIAN_POINT('',(1.01E+03,-47.,-36.));
#1013 = SURFACE_CURVE('',#1014,(#1017,#1024),.PCURVE_S1.);
#1014 = B_SPLINE_CURVE_WITH_KNOTS('',1,(#1015,#1016),.UNSPECIFIED.,.F.,
  .F.,(2,2),(0.,1.),.PIECEWISE_BEZIER_KNOTS.);
#1015 = CARTESIAN_POINT('',(760.,-75.99999998187,-86.));
#1016 = CARTESIAN_POINT('',(1.01E+03,-47.,-36.));
#1017 = PCURVE('',#471,#1018);
#1018 = DEFINITIONAL_REPRESENTATION('',(#1019),#1023);
#1019 = LINE('',#1020,#1021);
#1020 = CARTESIAN_POINT('',(75.999999981876,0.));
#1021 = VECTOR('',#1022,1.);
#1022 = DIRECTION('',(0.,1.));
#1023 = ( GEOMETRIC_REPRESENTATION_CONTEXT(2) 
PARAMETRIC_REPRESENTATION_CONTEXT() REPRESENTATION_CONTEXT('2D SPACE',''
  ) );
#1024 = PCURVE('',#542,#1025);
#1025 = DEFINITIONAL_REPRESENTATION('',(#1026),#1030);
#1026 = LINE('',#1027,#1028);
#1027 = CARTESIAN_POINT('',(-113.5077089893,0.));
#1028 = VECTOR('',#1029,1.);
#1029 = DIRECTION('',(0.,1.));
#1030 = ( GEOMETRIC_REPRESENTATION_CONTEXT(2) 
PARAMETRIC_REPRESENTATION_CONTEXT() REPRESENTATION_CONTEXT('2D SPACE',''
  ) );
#1031 = ORIENTED_EDGE('',*,*,#1032,.T.);
#1032 = EDGE_CURVE('',#1011,#961,#1033,.T.);
#1033 = SURFACE_CURVE('',#1034,(#1038,#1044),.PCURVE_S1.);
#1034 = LINE('',#1035,#1036);
#1035 = CARTESIAN_POINT('',(1.01E+03,-47.,-36.));
#1036 = VECTOR('',#1037,1.);
#1037 = DIRECTION('',(0.,0.958385683586,-0.2854765866));
#1038 = PCURVE('',#471,#1039);
#1039 = DEFINITIONAL_REPRESENTATION('',(#1040),#1043);
#1040 = B_SPLINE_CURVE_WITH_KNOTS('',1,(#1041,#1042),.UNSPECIFIED.,.F.,
  .F.,(2,2),(0.,49.040799340957),.PIECEWISE_BEZIER_KNOTS.);
#1041 = CARTESIAN_POINT('',(75.999999981876,1.));
#1042 = CARTESIAN_POINT('',(-2.632432938299E-09,1.));
#1043 = ( GEOMETRIC_REPRESENTATION_CONTEXT(2) 
PARAMETRIC_REPRESENTATION_CONTEXT() REPRESENTATION_CONTEXT('2D SPACE',''
  ) );
#1044 = PCURVE('',#1045,#1050);
#1045 = PLANE('',#1046);
#1046 = AXIS2_PLACEMENT_3D('',#1047,#1048,#1049);
#1047 = CARTESIAN_POINT('',(1.205183059005E+03,-15.76602357315,
    -2.875088163603));
#1048 = DIRECTION('',(-0.203953643411,0.279476024896,0.938240940722));
#1049 = DIRECTION('',(1.387778780781E-17,0.958385683586,-0.2854765866));
#1050 = DEFINITIONAL_REPRESENTATION('',(#1051),#1055);
#1051 = LINE('',#1052,#1053);
#1052 = CARTESIAN_POINT('',(-20.47780908647,199.37378695577));
#1053 = VECTOR('',#1054,1.);
#1054 = DIRECTION('',(1.,4.163336342344E-17));
#1055 = ( GEOMETRIC_REPRESENTATION_CONTEXT(2) 
PARAMETRIC_REPRESENTATION_CONTEXT() REPRESENTATION_CONTEXT('2D SPACE',''
  ) );
#1056 = ORIENTED_EDGE('',*,*,#987,.F.);
#1057 = ADVANCED_FACE('',(#1058),#542,.F.);
#1058 = FACE_BOUND('',#1059,.F.);
#1059 = EDGE_LOOP('',(#1060,#1061,#1083,#1109));
#1060 = ORIENTED_EDGE('',*,*,#527,.F.);
#1061 = ORIENTED_EDGE('',*,*,#1062,.T.);
#1062 = EDGE_CURVE('',#508,#1063,#1065,.T.);
#1063 = VERTEX_POINT('',#1064);
#1064 = CARTESIAN_POINT('',(1.01E+03,-50.7467331213,-21.28069130914));
#1065 = SURFACE_CURVE('',#1066,(#1069,#1076),.PCURVE_S1.);
#1066 = B_SPLINE_CURVE_WITH_KNOTS('',1,(#1067,#1068),.UNSPECIFIED.,.F.,
  .F.,(2,2),(0.,1.),.PIECEWISE_BEZIER_KNOTS.);
#1067 = CARTESIAN_POINT('',(760.,-85.99999998187,-76.));
#1068 = CARTESIAN_POINT('',(1.01E+03,-50.7467331213,-21.28069130914));
#1069 = PCURVE('',#542,#1070);
#1070 = DEFINITIONAL_REPRESENTATION('',(#1071),#1075);
#1071 = LINE('',#1072,#1073);
#1072 = CARTESIAN_POINT('',(-98.3190271038,0.));
#1073 = VECTOR('',#1074,1.);
#1074 = DIRECTION('',(0.,1.));
#1075 = ( GEOMETRIC_REPRESENTATION_CONTEXT(2) 
PARAMETRIC_REPRESENTATION_CONTEXT() REPRESENTATION_CONTEXT('2D SPACE',''
  ) );
#1076 = PCURVE('',#634,#1077);
#1077 = DEFINITIONAL_REPRESENTATION('',(#1078),#1082);
#1078 = LINE('',#1079,#1080);
#1079 = CARTESIAN_POINT('',(-76.,0.));
#1080 = VECTOR('',#1081,1.);
#1081 = DIRECTION('',(0.,1.));
#1082 = ( GEOMETRIC_REPRESENTATION_CONTEXT(2) 
PARAMETRIC_REPRESENTATION_CONTEXT() REPRESENTATION_CONTEXT('2D SPACE',''
  ) );
#1083 = ORIENTED_EDGE('',*,*,#1084,.T.);
#1084 = EDGE_CURVE('',#1063,#1011,#1085,.T.);
#1085 = SURFACE_CURVE('',#1086,(#1090,#1097),.PCURVE_S1.);
#1086 = LINE('',#1087,#1088);
#1087 = CARTESIAN_POINT('',(1.01E+03,-75.,74.));
#1088 = VECTOR('',#1089,1.);
#1089 = DIRECTION('',(0.,0.246679280635,-0.969097173923));
#1090 = PCURVE('',#542,#1091);
#1091 = DEFINITIONAL_REPRESENTATION('',(#1092),#1096);
#1092 = LINE('',#1093,#1094);
#1093 = CARTESIAN_POINT('',(0.,1.));
#1094 = VECTOR('',#1095,1.);
#1095 = DIRECTION('',(-1.,0.));
#1096 = ( GEOMETRIC_REPRESENTATION_CONTEXT(2) 
PARAMETRIC_REPRESENTATION_CONTEXT() REPRESENTATION_CONTEXT('2D SPACE',''
  ) );
#1097 = PCURVE('',#1098,#1103);
#1098 = PLANE('',#1099);
#1099 = AXIS2_PLACEMENT_3D('',#1100,#1101,#1102);
#1100 = CARTESIAN_POINT('',(1.191973360871E+03,-37.2614906038,
    29.026450327948));
#1101 = DIRECTION('',(-0.138658356422,0.959735961679,0.244296426609));
#1102 = DIRECTION('',(-3.469446951954E-17,-0.246679280635,0.969097173923
    ));
#1103 = DEFINITIONAL_REPRESENTATION('',(#1104),#1108);
#1104 = LINE('',#1105,#1106);
#1105 = CARTESIAN_POINT('',(52.893048238558,-183.7483191113));
#1106 = VECTOR('',#1107,1.);
#1107 = DIRECTION('',(-1.,-6.938893903907E-18));
#1108 = ( GEOMETRIC_REPRESENTATION_CONTEXT(2) 
PARAMETRIC_REPRESENTATION_CONTEXT() REPRESENTATION_CONTEXT('2D SPACE',''
  ) );
#1109 = ORIENTED_EDGE('',*,*,#1010,.F.);
#1110 = ADVANCED_FACE('',(#1111),#634,.F.);
#1111 = FACE_BOUND('',#1112,.F.);
#1112 = EDGE_LOOP('',(#1113,#1114,#1135,#1155));
#1113 = ORIENTED_EDGE('',*,*,#620,.F.);
#1114 = ORIENTED_EDGE('',*,*,#1115,.T.);
#1115 = EDGE_CURVE('',#593,#1116,#1118,.T.);
#1116 = VERTEX_POINT('',#1117);
#1117 = CARTESIAN_POINT('',(1.01E+03,-75.,74.));
#1118 = SURFACE_CURVE('',#1119,(#1122,#1129),.PCURVE_S1.);
#1119 = B_SPLINE_CURVE_WITH_KNOTS('',1,(#1120,#1121),.UNSPECIFIED.,.F.,
  .F.,(2,2),(0.,1.),.PIECEWISE_BEZIER_KNOTS.);
#1120 = CARTESIAN_POINT('',(760.,-86.,57.831836466751));
#1121 = CARTESIAN_POINT('',(1.01E+03,-75.,74.));
#1122 = PCURVE('',#634,#1123);
#1123 = DEFINITIONAL_REPRESENTATION('',(#1124),#1128);
#1124 = LINE('',#1125,#1126);
#1125 = CARTESIAN_POINT('',(57.831836470292,0.));
#1126 = VECTOR('',#1127,1.);
#1127 = DIRECTION('',(0.,1.));
#1128 = ( GEOMETRIC_REPRESENTATION_CONTEXT(2) 
PARAMETRIC_REPRESENTATION_CONTEXT() REPRESENTATION_CONTEXT('2D SPACE',''
  ) );
#1129 = PCURVE('',#608,#1130);
#1130 = DEFINITIONAL_REPRESENTATION('',(#1131),#1134);
#1131 = B_SPLINE_CURVE_WITH_KNOTS('',1,(#1132,#1133),.UNSPECIFIED.,.F.,
  .F.,(2,2),(0.,1.),.PIECEWISE_BEZIER_KNOTS.);
#1132 = CARTESIAN_POINT('',(-18.16816353324,0.));
#1133 = CARTESIAN_POINT('',(-2.,250.24188298524));
#1134 = ( GEOMETRIC_REPRESENTATION_CONTEXT(2) 
PARAMETRIC_REPRESENTATION_CONTEXT() REPRESENTATION_CONTEXT('2D SPACE',''
  ) );
#1135 = ORIENTED_EDGE('',*,*,#1136,.T.);
#1136 = EDGE_CURVE('',#1116,#1063,#1137,.T.);
#1137 = SURFACE_CURVE('',#1138,(#1142,#1148),.PCURVE_S1.);
#1138 = LINE('',#1139,#1140);
#1139 = CARTESIAN_POINT('',(1.01E+03,-75.,74.));
#1140 = VECTOR('',#1141,1.);
#1141 = DIRECTION('',(0.,0.246679280635,-0.969097173923));
#1142 = PCURVE('',#634,#1143);
#1143 = DEFINITIONAL_REPRESENTATION('',(#1144),#1147);
#1144 = B_SPLINE_CURVE_WITH_KNOTS('',1,(#1145,#1146),.UNSPECIFIED.,.F.,
  .F.,(2,2),(0.,98.319027103802),.PIECEWISE_BEZIER_KNOTS.);
#1145 = CARTESIAN_POINT('',(57.831836470292,1.));
#1146 = CARTESIAN_POINT('',(-76.,1.));
#1147 = ( GEOMETRIC_REPRESENTATION_CONTEXT(2) 
PARAMETRIC_REPRESENTATION_CONTEXT() REPRESENTATION_CONTEXT('2D SPACE',''
  ) );
#1148 = PCURVE('',#1098,#1149);
#1149 = DEFINITIONAL_REPRESENTATION('',(#1150),#1154);
#1150 = LINE('',#1151,#1152);
#1151 = CARTESIAN_POINT('',(52.893048238558,-183.7483191113));
#1152 = VECTOR('',#1153,1.);
#1153 = DIRECTION('',(-1.,-6.938893903907E-18));
#1154 = ( GEOMETRIC_REPRESENTATION_CONTEXT(2) 
PARAMETRIC_REPRESENTATION_CONTEXT() REPRESENTATION_CONTEXT('2D SPACE',''
  ) );
#1155 = ORIENTED_EDGE('',*,*,#1062,.F.);
#1156 = ADVANCED_FACE('',(#1157),#608,.F.);
#1157 = FACE_BOUND('',#1158,.T.);
#1158 = EDGE_LOOP('',(#1159,#1160,#1161));
#1159 = ORIENTED_EDGE('',*,*,#592,.T.);
#1160 = ORIENTED_EDGE('',*,*,#1115,.T.);
#1161 = ORIENTED_EDGE('',*,*,#1162,.F.);
#1162 = EDGE_CURVE('',#573,#1116,#1163,.T.);
#1163 = SURFACE_CURVE('',#1164,(#1167,#1173),.PCURVE_S1.);
#1164 = B_SPLINE_CURVE_WITH_KNOTS('',1,(#1165,#1166),.UNSPECIFIED.,.F.,
  .F.,(2,2),(0.,1.),.PIECEWISE_BEZIER_KNOTS.);
#1165 = CARTESIAN_POINT('',(760.,-86.,76.));
#1166 = CARTESIAN_POINT('',(1.01E+03,-75.,74.));
#1167 = PCURVE('',#608,#1168);
#1168 = DEFINITIONAL_REPRESENTATION('',(#1169),#1172);
#1169 = B_SPLINE_CURVE_WITH_KNOTS('',1,(#1170,#1171),.UNSPECIFIED.,.F.,
  .F.,(2,2),(0.,1.),.PIECEWISE_BEZIER_KNOTS.);
#1170 = CARTESIAN_POINT('',(-2.84217094304E-14,0.));
#1171 = CARTESIAN_POINT('',(-2.,250.24188298524));
#1172 = ( GEOMETRIC_REPRESENTATION_CONTEXT(2) 
PARAMETRIC_REPRESENTATION_CONTEXT() REPRESENTATION_CONTEXT('2D SPACE',''
  ) );
#1173 = PCURVE('',#686,#1174);
#1174 = DEFINITIONAL_REPRESENTATION('',(#1175),#1179);
#1175 = LINE('',#1176,#1177);
#1176 = CARTESIAN_POINT('',(1.570796326795,0.));
#1177 = VECTOR('',#1178,1.);
#1178 = DIRECTION('',(0.,1.));
#1179 = ( GEOMETRIC_REPRESENTATION_CONTEXT(2) 
PARAMETRIC_REPRESENTATION_CONTEXT() REPRESENTATION_CONTEXT('2D SPACE',''
  ) );
#1180 = ADVANCED_FACE('',(#1181),#686,.T.);
#1181 = FACE_BOUND('',#1182,.T.);
#1182 = EDGE_LOOP('',(#1183,#1184,#1185));
#1183 = ORIENTED_EDGE('',*,*,#671,.T.);
#1184 = ORIENTED_EDGE('',*,*,#1162,.T.);
#1185 = ORIENTED_EDGE('',*,*,#1186,.F.);
#1186 = EDGE_CURVE('',#652,#1116,#1187,.T.);
#1187 = SURFACE_CURVE('',#1188,(#1192,#1198),.PCURVE_S1.);
#1188 = LINE('',#1189,#1190);
#1189 = CARTESIAN_POINT('',(760.,-76.,86.));
#1190 = VECTOR('',#1191,1.);
#1191 = DIRECTION('',(0.998842014506,3.995368058023E-03,
    -4.794441669627E-02));
#1192 = PCURVE('',#686,#1193);
#1193 = DEFINITIONAL_REPRESENTATION('',(#1194),#1197);
#1194 = B_SPLINE_CURVE_WITH_KNOTS('',1,(#1195,#1196),.UNSPECIFIED.,.F.,
  .F.,(2,2),(0.,250.28983199483),.PIECEWISE_BEZIER_KNOTS.);
#1195 = CARTESIAN_POINT('',(0.,0.));
#1196 = CARTESIAN_POINT('',(0.,1.));
#1197 = ( GEOMETRIC_REPRESENTATION_CONTEXT(2) 
PARAMETRIC_REPRESENTATION_CONTEXT() REPRESENTATION_CONTEXT('2D SPACE',''
  ) );
#1198 = PCURVE('',#734,#1199);
#1199 = DEFINITIONAL_REPRESENTATION('',(#1200),#1204);
#1200 = LINE('',#1201,#1202);
#1201 = CARTESIAN_POINT('',(124.83206295732,-76.));
#1202 = VECTOR('',#1203,1.);
#1203 = DIRECTION('',(-0.999992018485,3.995368058023E-03));
#1204 = ( GEOMETRIC_REPRESENTATION_CONTEXT(2) 
PARAMETRIC_REPRESENTATION_CONTEXT() REPRESENTATION_CONTEXT('2D SPACE',''
  ) );
#1205 = ADVANCED_FACE('',(#1206),#734,.F.);
#1206 = FACE_BOUND('',#1207,.F.);
#1207 = EDGE_LOOP('',(#1208,#1234,#1235,#1236));
#1208 = ORIENTED_EDGE('',*,*,#1209,.T.);
#1209 = EDGE_CURVE('',#816,#1116,#1210,.T.);
#1210 = SURFACE_CURVE('',#1211,(#1215,#1222),.PCURVE_S1.);
#1211 = LINE('',#1212,#1213);
#1212 = CARTESIAN_POINT('',(1.01E+03,75.,74.));
#1213 = VECTOR('',#1214,1.);
#1214 = DIRECTION('',(0.,-1.,0.));
#1215 = PCURVE('',#734,#1216);
#1216 = DEFINITIONAL_REPRESENTATION('',(#1217),#1221);
#1217 = LINE('',#1218,#1219);
#1218 = CARTESIAN_POINT('',(-125.4557713454,75.));
#1219 = VECTOR('',#1220,1.);
#1220 = DIRECTION('',(0.,-1.));
#1221 = ( GEOMETRIC_REPRESENTATION_CONTEXT(2) 
PARAMETRIC_REPRESENTATION_CONTEXT() REPRESENTATION_CONTEXT('2D SPACE',''
  ) );
#1222 = PCURVE('',#1223,#1228);
#1223 = PLANE('',#1224);
#1224 = AXIS2_PLACEMENT_3D('',#1225,#1226,#1227);
#1225 = CARTESIAN_POINT('',(1.188596365645E+03,-1.81197115404E-15,
    60.125030186573));
#1226 = DIRECTION('',(-7.745558888959E-02,0.,-0.996995803276));
#1227 = DIRECTION('',(-0.996995803276,0.,7.745558888959E-02));
#1228 = DEFINITIONAL_REPRESENTATION('',(#1229),#1233);
#1229 = LINE('',#1230,#1231);
#1230 = CARTESIAN_POINT('',(179.13452098603,75.));
#1231 = VECTOR('',#1232,1.);
#1232 = DIRECTION('',(0.,-1.));
#1233 = ( GEOMETRIC_REPRESENTATION_CONTEXT(2) 
PARAMETRIC_REPRESENTATION_CONTEXT() REPRESENTATION_CONTEXT('2D SPACE',''
  ) );
#1234 = ORIENTED_EDGE('',*,*,#1186,.F.);
#1235 = ORIENTED_EDGE('',*,*,#718,.T.);
#1236 = ORIENTED_EDGE('',*,*,#1237,.T.);
#1237 = EDGE_CURVE('',#719,#816,#1238,.T.);
#1238 = SURFACE_CURVE('',#1239,(#1243,#1250),.PCURVE_S1.);
#1239 = LINE('',#1240,#1241);
#1240 = CARTESIAN_POINT('',(760.,76.,86.));
#1241 = VECTOR('',#1242,1.);
#1242 = DIRECTION('',(0.998842014506,-3.995368058023E-03,
    -4.794441669627E-02));
#1243 = PCURVE('',#734,#1244);
#1244 = DEFINITIONAL_REPRESENTATION('',(#1245),#1249);
#1245 = LINE('',#1246,#1247);
#1246 = CARTESIAN_POINT('',(124.83206295732,76.));
#1247 = VECTOR('',#1248,1.);
#1248 = DIRECTION('',(-0.999992018485,-3.995368058023E-03));
#1249 = ( GEOMETRIC_REPRESENTATION_CONTEXT(2) 
PARAMETRIC_REPRESENTATION_CONTEXT() REPRESENTATION_CONTEXT('2D SPACE',''
  ) );
#1250 = PCURVE('',#784,#1251);
#1251 = DEFINITIONAL_REPRESENTATION('',(#1252),#1255);
#1252 = B_SPLINE_CURVE_WITH_KNOTS('',1,(#1253,#1254),.UNSPECIFIED.,.F.,
  .F.,(2,2),(0.,250.28983199483),.PIECEWISE_BEZIER_KNOTS.);
#1253 = CARTESIAN_POINT('',(0.,0.));
#1254 = CARTESIAN_POINT('',(0.,1.));
#1255 = ( GEOMETRIC_REPRESENTATION_CONTEXT(2) 
PARAMETRIC_REPRESENTATION_CONTEXT() REPRESENTATION_CONTEXT('2D SPACE',''
  ) );
#1256 = ADVANCED_FACE('',(#1257),#784,.F.);
#1257 = FACE_BOUND('',#1258,.F.);
#1258 = EDGE_LOOP('',(#1259,#1260,#1261));
#1259 = ORIENTED_EDGE('',*,*,#769,.T.);
#1260 = ORIENTED_EDGE('',*,*,#888,.T.);
#1261 = ORIENTED_EDGE('',*,*,#1237,.F.);
#1262 = ADVANCED_FACE('',(#1263),#851,.F.);
#1263 = FACE_BOUND('',#1264,.F.);
#1264 = EDGE_LOOP('',(#1265,#1287,#1323,#1354,#1374,#1375));
#1265 = ORIENTED_EDGE('',*,*,#1266,.T.);
#1266 = EDGE_CURVE('',#913,#1267,#1269,.T.);
#1267 = VERTEX_POINT('',#1268);
#1268 = CARTESIAN_POINT('',(1.399030741822E+03,9.475548354244,
    37.389520348794));
#1269 = SURFACE_CURVE('',#1270,(#1274,#1281),.PCURVE_S1.);
#1270 = LINE('',#1271,#1272);
#1271 = CARTESIAN_POINT('',(1.01E+03,47.,-36.));
#1272 = VECTOR('',#1273,1.);
#1273 = DIRECTION('',(0.978282745984,-9.436149808021E-02,0.18455020073)
  );
#1274 = PCURVE('',#851,#1275);
#1275 = DEFINITIONAL_REPRESENTATION('',(#1276),#1280);
#1276 = LINE('',#1277,#1278);
#1277 = CARTESIAN_POINT('',(60.614660750744,-183.7483191113));
#1278 = VECTOR('',#1279,1.);
#1279 = DIRECTION('',(-0.155570051508,0.987824862551));
#1280 = ( GEOMETRIC_REPRESENTATION_CONTEXT(2) 
PARAMETRIC_REPRESENTATION_CONTEXT() REPRESENTATION_CONTEXT('2D SPACE',''
  ) );
#1281 = PCURVE('',#975,#1282);
#1282 = DEFINITIONAL_REPRESENTATION('',(#1283),#1286);
#1283 = B_SPLINE_CURVE_WITH_KNOTS('',1,(#1284,#1285),.UNSPECIFIED.,.F.,
  .F.,(2,2),(0.,422.18061536196),.PIECEWISE_BEZIER_KNOTS.);
#1284 = CARTESIAN_POINT('',(20.477809086478,199.37378695577));
#1285 = CARTESIAN_POINT('',(4.540513029026,-222.505905115));
#1286 = ( GEOMETRIC_REPRESENTATION_CONTEXT(2) 
PARAMETRIC_REPRESENTATION_CONTEXT() REPRESENTATION_CONTEXT('2D SPACE',''
  ) );
#1287 = ORIENTED_EDGE('',*,*,#1288,.F.);
#1288 = EDGE_CURVE('',#1289,#1267,#1291,.T.);
#1289 = VERTEX_POINT('',#1290);
#1290 = CARTESIAN_POINT('',(1.4E+03,9.999999585558,39.999998371834));
#1291 = SURFACE_CURVE('',#1292,(#1297,#1308),.PCURVE_S1.);
#1292 = ELLIPSE('',#1293,4.167812981605,4.);
#1293 = AXIS2_PLACEMENT_3D('',#1294,#1295,#1296);
#1294 = CARTESIAN_POINT('',(1.396E+03,10.577902097902,40.));
#1295 = DIRECTION('',(0.138658356422,0.959735961679,-0.244296426609));
#1296 = DIRECTION('',(0.473740342703,-0.280903691431,-0.834663527318));
#1297 = PCURVE('',#851,#1298);
#1298 = DEFINITIONAL_REPRESENTATION('',(#1299),#1307);
#1299 = ( BOUNDED_CURVE() B_SPLINE_CURVE(2,(#1300,#1301,#1302,#1303,
#1304,#1305,#1306),.UNSPECIFIED.,.T.,.F.) B_SPLINE_CURVE_WITH_KNOTS((1,2
    ,2,2,2,1),(-2.094395102393,0.,2.094395102393,4.188790204786,
6.28318530718,8.377580409573),.UNSPECIFIED.) CURVE() 
GEOMETRIC_REPRESENTATION_ITEM() RATIONAL_B_SPLINE_CURVE((1.,0.5,1.,0.5,
1.,0.5,1.)) REPRESENTATION_ITEM('') );
#1300 = CARTESIAN_POINT('',(-0.392127630988,208.01042377985));
#1301 = CARTESIAN_POINT('',(2.922055842752,201.92633075768));
#1302 = CARTESIAN_POINT('',(-4.225065784179,201.97779736381));
#1303 = CARTESIAN_POINT('',(-11.3721874111,202.02926396994));
#1304 = CARTESIAN_POINT('',(-7.539249257918,208.06189038598));
#1305 = CARTESIAN_POINT('',(-3.706311104728,214.09451680202));
#1306 = CARTESIAN_POINT('',(-0.392127630988,208.01042377985));
#1307 = ( GEOMETRIC_REPRESENTATION_CONTEXT(2) 
PARAMETRIC_REPRESENTATION_CONTEXT() REPRESENTATION_CONTEXT('2D SPACE',''
  ) );
#1308 = PCURVE('',#1309,#1314);
#1309 = CYLINDRICAL_SURFACE('',#1310,4.);
#1310 = AXIS2_PLACEMENT_3D('',#1311,#1312,#1313);
#1311 = CARTESIAN_POINT('',(1.396E+03,7.16240467402,40.));
#1312 = DIRECTION('',(0.,-1.,0.));
#1313 = DIRECTION('',(7.745558888959E-02,0.,0.996995803276));
#1314 = DEFINITIONAL_REPRESENTATION('',(#1315),#1322);
#1315 = B_SPLINE_CURVE_WITH_KNOTS('',5,(#1316,#1317,#1318,#1319,#1320,
    #1321),.UNSPECIFIED.,.F.,.F.,(6,6),(3.735367802151,5.939667976673),
  .PIECEWISE_BEZIER_KNOTS.);
#1316 = CARTESIAN_POINT('',(5.684341886081E-14,-4.385858676268));
#1317 = CARTESIAN_POINT('',(-0.440860034904,-4.097082198743));
#1318 = CARTESIAN_POINT('',(-0.881717121318,-3.572561831488));
#1319 = CARTESIAN_POINT('',(-1.322585816718,-2.927670758294));
#1320 = CARTESIAN_POINT('',(-1.763440139618,-2.486979702246));
#1321 = CARTESIAN_POINT('',(-2.204300174522,-2.313143680224));
#1322 = ( GEOMETRIC_REPRESENTATION_CONTEXT(2) 
PARAMETRIC_REPRESENTATION_CONTEXT() REPRESENTATION_CONTEXT('2D SPACE',''
  ) );
#1323 = ORIENTED_EDGE('',*,*,#1324,.F.);
#1324 = EDGE_CURVE('',#1325,#1289,#1327,.T.);
#1325 = VERTEX_POINT('',#1326);
#1326 = CARTESIAN_POINT('',(1.396309822356E+03,11.548263350288,
    43.987983213104));
#1327 = SURFACE_CURVE('',#1328,(#1333,#1344),.PCURVE_S1.);
#1328 = ELLIPSE('',#1329,4.167812981605,4.);
#1329 = AXIS2_PLACEMENT_3D('',#1330,#1331,#1332);
#1330 = CARTESIAN_POINT('',(1.396E+03,10.577902097902,40.));
#1331 = DIRECTION('',(0.138658356422,0.959735961679,-0.244296426609));
#1332 = DIRECTION('',(0.473740342703,-0.280903691431,-0.834663527318));
#1333 = PCURVE('',#851,#1334);
#1334 = DEFINITIONAL_REPRESENTATION('',(#1335),#1343);
#1335 = ( BOUNDED_CURVE() B_SPLINE_CURVE(2,(#1336,#1337,#1338,#1339,
#1340,#1341,#1342),.UNSPECIFIED.,.T.,.F.) B_SPLINE_CURVE_WITH_KNOTS((1,2
    ,2,2,2,1),(-2.094395102393,0.,2.094395102393,4.188790204786,
6.28318530718,8.377580409573),.UNSPECIFIED.) CURVE() 
GEOMETRIC_REPRESENTATION_ITEM() RATIONAL_B_SPLINE_CURVE((1.,0.5,1.,0.5,
1.,0.5,1.)) REPRESENTATION_ITEM('') );
#1336 = CARTESIAN_POINT('',(-0.392127630988,208.01042377985));
#1337 = CARTESIAN_POINT('',(2.922055842752,201.92633075768));
#1338 = CARTESIAN_POINT('',(-4.225065784179,201.97779736381));
#1339 = CARTESIAN_POINT('',(-11.3721874111,202.02926396994));
#1340 = CARTESIAN_POINT('',(-7.539249257918,208.06189038598));
#1341 = CARTESIAN_POINT('',(-3.706311104728,214.09451680202));
#1342 = CARTESIAN_POINT('',(-0.392127630988,208.01042377985));
#1343 = ( GEOMETRIC_REPRESENTATION_CONTEXT(2) 
PARAMETRIC_REPRESENTATION_CONTEXT() REPRESENTATION_CONTEXT('2D SPACE',''
  ) );
#1344 = PCURVE('',#1309,#1345);
#1345 = DEFINITIONAL_REPRESENTATION('',(#1346),#1353);
#1346 = B_SPLINE_CURVE_WITH_KNOTS('',5,(#1347,#1348,#1349,#1350,#1351,
    #1352),.UNSPECIFIED.,.F.,.F.,(6,6),(3.735367802151,5.939667976673),
  .PIECEWISE_BEZIER_KNOTS.);
#1347 = CARTESIAN_POINT('',(5.684341886081E-14,-4.385858676268));
#1348 = CARTESIAN_POINT('',(-0.440860034904,-4.097082198743));
#1349 = CARTESIAN_POINT('',(-0.881717121318,-3.572561831488));
#1350 = CARTESIAN_POINT('',(-1.322585816718,-2.927670758294));
#1351 = CARTESIAN_POINT('',(-1.763440139618,-2.486979702246));
#1352 = CARTESIAN_POINT('',(-2.204300174522,-2.313143680224));
#1353 = ( GEOMETRIC_REPRESENTATION_CONTEXT(2) 
PARAMETRIC_REPRESENTATION_CONTEXT() REPRESENTATION_CONTEXT('2D SPACE',''
  ) );
#1354 = ORIENTED_EDGE('',*,*,#1355,.F.);
#1355 = EDGE_CURVE('',#816,#1325,#1356,.T.);
#1356 = SURFACE_CURVE('',#1357,(#1361,#1367),.PCURVE_S1.);
#1357 = LINE('',#1358,#1359);
#1358 = CARTESIAN_POINT('',(1.01E+03,75.,74.));
#1359 = VECTOR('',#1360,1.);
#1360 = DIRECTION('',(0.983890822609,-0.161604954768,-7.643747628407E-02
    ));
#1361 = PCURVE('',#851,#1362);
#1362 = DEFINITIONAL_REPRESENTATION('',(#1363),#1366);
#1363 = B_SPLINE_CURVE_WITH_KNOTS('',1,(#1364,#1365),.UNSPECIFIED.,.F.,
  .F.,(2,2),(0.,419.77422922044),.PIECEWISE_BEZIER_KNOTS.);
#1364 = CARTESIAN_POINT('',(-52.89304823855,-183.7483191113));
#1365 = CARTESIAN_POINT('',(-5.063999326854,233.29218923022));
#1366 = ( GEOMETRIC_REPRESENTATION_CONTEXT(2) 
PARAMETRIC_REPRESENTATION_CONTEXT() REPRESENTATION_CONTEXT('2D SPACE',''
  ) );
#1367 = PCURVE('',#1223,#1368);
#1368 = DEFINITIONAL_REPRESENTATION('',(#1369),#1373);
#1369 = LINE('',#1370,#1371);
#1370 = CARTESIAN_POINT('',(179.13452098603,75.));
#1371 = VECTOR('',#1372,1.);
#1372 = DIRECTION('',(-0.986855530761,-0.161604954768));
#1373 = ( GEOMETRIC_REPRESENTATION_CONTEXT(2) 
PARAMETRIC_REPRESENTATION_CONTEXT() REPRESENTATION_CONTEXT('2D SPACE',''
  ) );
#1374 = ORIENTED_EDGE('',*,*,#836,.T.);
#1375 = ORIENTED_EDGE('',*,*,#912,.T.);
#1376 = ADVANCED_FACE('',(#1377),#975,.F.);
#1377 = FACE_BOUND('',#1378,.F.);
#1378 = EDGE_LOOP('',(#1379,#1407,#1436,#1437));
#1379 = ORIENTED_EDGE('',*,*,#1380,.T.);
#1380 = EDGE_CURVE('',#961,#1381,#1383,.T.);
#1381 = VERTEX_POINT('',#1382);
#1382 = CARTESIAN_POINT('',(1.396868920593E+03,6.70903432978,
    36.095518343954));
#1383 = SURFACE_CURVE('',#1384,(#1388,#1395),.PCURVE_S1.);
#1384 = LINE('',#1385,#1386);
#1385 = CARTESIAN_POINT('',(1.01E+03,0.,-50.));
#1386 = VECTOR('',#1387,1.);
#1387 = DIRECTION('',(0.975980590819,1.69253381196E-02,0.217199031474));
#1388 = PCURVE('',#975,#1389);
#1389 = DEFINITIONAL_REPRESENTATION('',(#1390),#1394);
#1390 = LINE('',#1391,#1392);
#1391 = CARTESIAN_POINT('',(-28.56299025447,199.37378695577));
#1392 = VECTOR('',#1393,1.);
#1393 = DIRECTION('',(7.822623986171E-02,-0.996935632525));
#1394 = ( GEOMETRIC_REPRESENTATION_CONTEXT(2) 
PARAMETRIC_REPRESENTATION_CONTEXT() REPRESENTATION_CONTEXT('2D SPACE',''
  ) );
#1395 = PCURVE('',#1396,#1401);
#1396 = PLANE('',#1397);
#1397 = AXIS2_PLACEMENT_3D('',#1398,#1399,#1400);
#1398 = CARTESIAN_POINT('',(1.219943017242E+03,-4.825287804009E-16,
    -3.278353649123));
#1399 = DIRECTION('',(-0.217230148345,-5.805391654898E-16,0.976120414012
    ));
#1400 = DIRECTION('',(0.976120414012,0.,0.217230148345));
#1401 = DEFINITIONAL_REPRESENTATION('',(#1402),#1406);
#1402 = LINE('',#1403,#1404);
#1403 = CARTESIAN_POINT('',(-215.0790150764,4.825287804009E-16));
#1404 = VECTOR('',#1405,1.);
#1405 = DIRECTION('',(0.999856756205,1.69253381196E-02));
#1406 = ( GEOMETRIC_REPRESENTATION_CONTEXT(2) 
PARAMETRIC_REPRESENTATION_CONTEXT() REPRESENTATION_CONTEXT('2D SPACE',''
  ) );
#1407 = ORIENTED_EDGE('',*,*,#1408,.F.);
#1408 = EDGE_CURVE('',#1267,#1381,#1409,.T.);
#1409 = SURFACE_CURVE('',#1410,(#1415,#1426),.PCURVE_S1.);
#1410 = ELLIPSE('',#1411,14.312497830496,4.);
#1411 = AXIS2_PLACEMENT_3D('',#1412,#1413,#1414);
#1412 = CARTESIAN_POINT('',(1.396E+03,20.45105053416,40.));
#1413 = DIRECTION('',(0.203953643411,0.279476024896,-0.938240940722));
#1414 = DIRECTION('',(5.936571885803E-02,-0.960152670937,-0.273098077467
    ));
#1415 = PCURVE('',#975,#1416);
#1416 = DEFINITIONAL_REPRESENTATION('',(#1417),#1425);
#1417 = ( BOUNDED_CURVE() B_SPLINE_CURVE(2,(#1418,#1419,#1420,#1421,
#1422,#1423,#1424),.UNSPECIFIED.,.T.,.F.) B_SPLINE_CURVE_WITH_KNOTS((1,2
    ,2,2,2,1),(-2.094395102393,0.,2.094395102393,4.188790204786,
6.28318530718,8.377580409573),.UNSPECIFIED.) CURVE() 
GEOMETRIC_REPRESENTATION_ITEM() RATIONAL_B_SPLINE_CURVE((1.,0.5,1.,0.5,
1.,0.5,1.)) REPRESENTATION_ITEM('') );
#1418 = CARTESIAN_POINT('',(2.443738319177,-195.7818399062));
#1419 = CARTESIAN_POINT('',(2.023609679815,-188.866386781));
#1420 = CARTESIAN_POINT('',(23.66291139939,-191.022241118));
#1421 = CARTESIAN_POINT('',(45.302213118965,-193.1780954549));
#1422 = CARTESIAN_POINT('',(24.083040038753,-197.9376942431));
#1423 = CARTESIAN_POINT('',(2.86386695854,-202.6972930314));
#1424 = CARTESIAN_POINT('',(2.443738319177,-195.7818399062));
#1425 = ( GEOMETRIC_REPRESENTATION_CONTEXT(2) 
PARAMETRIC_REPRESENTATION_CONTEXT() REPRESENTATION_CONTEXT('2D SPACE',''
  ) );
#1426 = PCURVE('',#1309,#1427);
#1427 = DEFINITIONAL_REPRESENTATION('',(#1428),#1435);
#1428 = B_SPLINE_CURVE_WITH_KNOTS('',5,(#1429,#1430,#1431,#1432,#1433,
    #1434),.UNSPECIFIED.,.F.,.F.,(6,6),(5.637474770515,6.278258045947),
  .PIECEWISE_BEZIER_KNOTS.);
#1429 = CARTESIAN_POINT('',(-2.204300174522,-2.313143680205));
#1430 = CARTESIAN_POINT('',(-2.332456829608,-1.253342025235));
#1431 = CARTESIAN_POINT('',(-2.460613568783,-0.418843213541));
#1432 = CARTESIAN_POINT('',(-2.588770354707,0.153919108745));
#1433 = CARTESIAN_POINT('',(-2.716926794868,0.444692722346));
#1434 = CARTESIAN_POINT('',(-2.845083449954,0.45337034424));
#1435 = ( GEOMETRIC_REPRESENTATION_CONTEXT(2) 
PARAMETRIC_REPRESENTATION_CONTEXT() REPRESENTATION_CONTEXT('2D SPACE',''
  ) );
#1436 = ORIENTED_EDGE('',*,*,#1266,.F.);
#1437 = ORIENTED_EDGE('',*,*,#960,.T.);
#1438 = ADVANCED_FACE('',(#1439),#1045,.F.);
#1439 = FACE_BOUND('',#1440,.T.);
#1440 = EDGE_LOOP('',(#1441,#1464,#1491,#1512));
#1441 = ORIENTED_EDGE('',*,*,#1442,.T.);
#1442 = EDGE_CURVE('',#961,#1443,#1445,.T.);
#1443 = VERTEX_POINT('',#1444);
#1444 = CARTESIAN_POINT('',(1.396868920593E+03,-6.70903432978,
    36.095518343954));
#1445 = SURFACE_CURVE('',#1446,(#1450,#1457),.PCURVE_S1.);
#1446 = LINE('',#1447,#1448);
#1447 = CARTESIAN_POINT('',(1.01E+03,0.,-50.));
#1448 = VECTOR('',#1449,1.);
#1449 = DIRECTION('',(0.975980590819,-1.69253381196E-02,0.217199031474)
  );
#1450 = PCURVE('',#1045,#1451);
#1451 = DEFINITIONAL_REPRESENTATION('',(#1452),#1456);
#1452 = LINE('',#1453,#1454);
#1453 = CARTESIAN_POINT('',(28.562990254479,199.37378695577));
#1454 = VECTOR('',#1455,1.);
#1455 = DIRECTION('',(-7.822623986171E-02,-0.996935632525));
#1456 = ( GEOMETRIC_REPRESENTATION_CONTEXT(2) 
PARAMETRIC_REPRESENTATION_CONTEXT() REPRESENTATION_CONTEXT('2D SPACE',''
  ) );
#1457 = PCURVE('',#1396,#1458);
#1458 = DEFINITIONAL_REPRESENTATION('',(#1459),#1463);
#1459 = LINE('',#1460,#1461);
#1460 = CARTESIAN_POINT('',(-215.0790150764,4.825287804009E-16));
#1461 = VECTOR('',#1462,1.);
#1462 = DIRECTION('',(0.999856756205,-1.69253381196E-02));
#1463 = ( GEOMETRIC_REPRESENTATION_CONTEXT(2) 
PARAMETRIC_REPRESENTATION_CONTEXT() REPRESENTATION_CONTEXT('2D SPACE',''
  ) );
#1464 = ORIENTED_EDGE('',*,*,#1465,.F.);
#1465 = EDGE_CURVE('',#1466,#1443,#1468,.T.);
#1466 = VERTEX_POINT('',#1467);
#1467 = CARTESIAN_POINT('',(1.399030741822E+03,-9.475548354244,
    37.389520348794));
#1468 = SURFACE_CURVE('',#1469,(#1474,#1481),.PCURVE_S1.);
#1469 = ELLIPSE('',#1470,14.312497830496,4.);
#1470 = AXIS2_PLACEMENT_3D('',#1471,#1472,#1473);
#1471 = CARTESIAN_POINT('',(1.396E+03,-20.45105053416,40.));
#1472 = DIRECTION('',(-0.203953643411,0.279476024896,0.938240940722));
#1473 = DIRECTION('',(5.936571885803E-02,0.960152670937,-0.273098077467)
  );
#1474 = PCURVE('',#1045,#1475);
#1475 = DEFINITIONAL_REPRESENTATION('',(#1476),#1480);
#1476 = ELLIPSE('',#1477,14.312497830496,4.);
#1477 = AXIS2_PLACEMENT_2D('',#1478,#1479);
#1478 = CARTESIAN_POINT('',(-16.72989658577,-194.9139250891));
#1479 = DIRECTION('',(0.998159680846,-6.064034575761E-02));
#1480 = ( GEOMETRIC_REPRESENTATION_CONTEXT(2) 
PARAMETRIC_REPRESENTATION_CONTEXT() REPRESENTATION_CONTEXT('2D SPACE',''
  ) );
#1481 = PCURVE('',#1309,#1482);
#1482 = DEFINITIONAL_REPRESENTATION('',(#1483),#1490);
#1483 = B_SPLINE_CURVE_WITH_KNOTS('',5,(#1484,#1485,#1486,#1487,#1488,
    #1489),.UNSPECIFIED.,.F.,.F.,(6,6),(5.637474770515,6.278258045947),
  .PIECEWISE_BEZIER_KNOTS.);
#1484 = CARTESIAN_POINT('',(-2.204300174522,16.637953028245));
#1485 = CARTESIAN_POINT('',(-2.332456829608,15.578151373275));
#1486 = CARTESIAN_POINT('',(-2.460613568783,14.74365256158));
#1487 = CARTESIAN_POINT('',(-2.588770354707,14.170890239295));
#1488 = CARTESIAN_POINT('',(-2.716926794868,13.880116625693));
#1489 = CARTESIAN_POINT('',(-2.845083449954,13.871439003799));
#1490 = ( GEOMETRIC_REPRESENTATION_CONTEXT(2) 
PARAMETRIC_REPRESENTATION_CONTEXT() REPRESENTATION_CONTEXT('2D SPACE',''
  ) );
#1491 = ORIENTED_EDGE('',*,*,#1492,.F.);
#1492 = EDGE_CURVE('',#1011,#1466,#1493,.T.);
#1493 = SURFACE_CURVE('',#1494,(#1498,#1505),.PCURVE_S1.);
#1494 = LINE('',#1495,#1496);
#1495 = CARTESIAN_POINT('',(1.01E+03,-47.,-36.));
#1496 = VECTOR('',#1497,1.);
#1497 = DIRECTION('',(0.978282745984,9.436149808021E-02,0.18455020073));
#1498 = PCURVE('',#1045,#1499);
#1499 = DEFINITIONAL_REPRESENTATION('',(#1500),#1504);
#1500 = LINE('',#1501,#1502);
#1501 = CARTESIAN_POINT('',(-20.47780908647,199.37378695577));
#1502 = VECTOR('',#1503,1.);
#1503 = DIRECTION('',(3.77499474811E-02,-0.999287216703));
#1504 = ( GEOMETRIC_REPRESENTATION_CONTEXT(2) 
PARAMETRIC_REPRESENTATION_CONTEXT() REPRESENTATION_CONTEXT('2D SPACE',''
  ) );
#1505 = PCURVE('',#1098,#1506);
#1506 = DEFINITIONAL_REPRESENTATION('',(#1507),#1511);
#1507 = LINE('',#1508,#1509);
#1508 = CARTESIAN_POINT('',(-60.61466075074,-183.7483191113));
#1509 = VECTOR('',#1510,1.);
#1510 = DIRECTION('',(0.155570051508,0.987824862551));
#1511 = ( GEOMETRIC_REPRESENTATION_CONTEXT(2) 
PARAMETRIC_REPRESENTATION_CONTEXT() REPRESENTATION_CONTEXT('2D SPACE',''
  ) );
#1512 = ORIENTED_EDGE('',*,*,#1032,.T.);
#1513 = ADVANCED_FACE('',(#1514),#1098,.F.);
#1514 = FACE_BOUND('',#1515,.T.);
#1515 = EDGE_LOOP('',(#1516,#1517,#1544,#1571,#1592,#1593));
#1516 = ORIENTED_EDGE('',*,*,#1492,.T.);
#1517 = ORIENTED_EDGE('',*,*,#1518,.F.);
#1518 = EDGE_CURVE('',#1519,#1466,#1521,.T.);
#1519 = VERTEX_POINT('',#1520);
#1520 = CARTESIAN_POINT('',(1.4E+03,-9.999999472632,39.999997928195));
#1521 = SURFACE_CURVE('',#1522,(#1527,#1534),.PCURVE_S1.);
#1522 = ELLIPSE('',#1523,4.167812981605,4.);
#1523 = AXIS2_PLACEMENT_3D('',#1524,#1525,#1526);
#1524 = CARTESIAN_POINT('',(1.396E+03,-10.5779020979,40.));
#1525 = DIRECTION('',(-0.138658356422,0.959735961679,0.244296426609));
#1526 = DIRECTION('',(0.473740342703,0.280903691431,-0.834663527318));
#1527 = PCURVE('',#1098,#1528);
#1528 = DEFINITIONAL_REPRESENTATION('',(#1529),#1533);
#1529 = ELLIPSE('',#1530,4.167812981605,4.);
#1530 = AXIS2_PLACEMENT_2D('',#1531,#1532);
#1531 = CARTESIAN_POINT('',(4.052147557695,206.01670384321));
#1532 = DIRECTION('',(-0.878163186031,0.478361180177));
#1533 = ( GEOMETRIC_REPRESENTATION_CONTEXT(2) 
PARAMETRIC_REPRESENTATION_CONTEXT() REPRESENTATION_CONTEXT('2D SPACE',''
  ) );
#1534 = PCURVE('',#1309,#1535);
#1535 = DEFINITIONAL_REPRESENTATION('',(#1536),#1543);
#1536 = B_SPLINE_CURVE_WITH_KNOTS('',5,(#1537,#1538,#1539,#1540,#1541,
    #1542),.UNSPECIFIED.,.F.,.F.,(6,6),(3.735367802151,5.939667976673),
  .PIECEWISE_BEZIER_KNOTS.);
#1537 = CARTESIAN_POINT('',(5.684341886081E-14,18.710668024307));
#1538 = CARTESIAN_POINT('',(-0.440860034904,18.421891546783));
#1539 = CARTESIAN_POINT('',(-0.881717121318,17.897371179528));
#1540 = CARTESIAN_POINT('',(-1.322585816718,17.252480106333));
#1541 = CARTESIAN_POINT('',(-1.763440139618,16.811789050286));
#1542 = CARTESIAN_POINT('',(-2.204300174522,16.637953028264));
#1543 = ( GEOMETRIC_REPRESENTATION_CONTEXT(2) 
PARAMETRIC_REPRESENTATION_CONTEXT() REPRESENTATION_CONTEXT('2D SPACE',''
  ) );
#1544 = ORIENTED_EDGE('',*,*,#1545,.F.);
#1545 = EDGE_CURVE('',#1546,#1519,#1548,.T.);
#1546 = VERTEX_POINT('',#1547);
#1547 = CARTESIAN_POINT('',(1.396309822356E+03,-11.54826335028,
    43.987983213104));
#1548 = SURFACE_CURVE('',#1549,(#1554,#1561),.PCURVE_S1.);
#1549 = ELLIPSE('',#1550,4.167812981605,4.);
#1550 = AXIS2_PLACEMENT_3D('',#1551,#1552,#1553);
#1551 = CARTESIAN_POINT('',(1.396E+03,-10.5779020979,40.));
#1552 = DIRECTION('',(-0.138658356422,0.959735961679,0.244296426609));
#1553 = DIRECTION('',(0.473740342703,0.280903691431,-0.834663527318));
#1554 = PCURVE('',#1098,#1555);
#1555 = DEFINITIONAL_REPRESENTATION('',(#1556),#1560);
#1556 = ELLIPSE('',#1557,4.167812981605,4.);
#1557 = AXIS2_PLACEMENT_2D('',#1558,#1559);
#1558 = CARTESIAN_POINT('',(4.052147557695,206.01670384321));
#1559 = DIRECTION('',(-0.878163186031,0.478361180177));
#1560 = ( GEOMETRIC_REPRESENTATION_CONTEXT(2) 
PARAMETRIC_REPRESENTATION_CONTEXT() REPRESENTATION_CONTEXT('2D SPACE',''
  ) );
#1561 = PCURVE('',#1309,#1562);
#1562 = DEFINITIONAL_REPRESENTATION('',(#1563),#1570);
#1563 = B_SPLINE_CURVE_WITH_KNOTS('',5,(#1564,#1565,#1566,#1567,#1568,
    #1569),.UNSPECIFIED.,.F.,.F.,(6,6),(3.735367802151,5.939667976673),
  .PIECEWISE_BEZIER_KNOTS.);
#1564 = CARTESIAN_POINT('',(5.684341886081E-14,18.710668024307));
#1565 = CARTESIAN_POINT('',(-0.440860034904,18.421891546783));
#1566 = CARTESIAN_POINT('',(-0.881717121318,17.897371179528));
#1567 = CARTESIAN_POINT('',(-1.322585816718,17.252480106333));
#1568 = CARTESIAN_POINT('',(-1.763440139618,16.811789050286));
#1569 = CARTESIAN_POINT('',(-2.204300174522,16.637953028264));
#1570 = ( GEOMETRIC_REPRESENTATION_CONTEXT(2) 
PARAMETRIC_REPRESENTATION_CONTEXT() REPRESENTATION_CONTEXT('2D SPACE',''
  ) );
#1571 = ORIENTED_EDGE('',*,*,#1572,.F.);
#1572 = EDGE_CURVE('',#1116,#1546,#1573,.T.);
#1573 = SURFACE_CURVE('',#1574,(#1578,#1585),.PCURVE_S1.);
#1574 = LINE('',#1575,#1576);
#1575 = CARTESIAN_POINT('',(1.01E+03,-75.,74.));
#1576 = VECTOR('',#1577,1.);
#1577 = DIRECTION('',(0.983890822609,0.161604954768,-7.643747628407E-02)
  );
#1578 = PCURVE('',#1098,#1579);
#1579 = DEFINITIONAL_REPRESENTATION('',(#1580),#1584);
#1580 = LINE('',#1581,#1582);
#1581 = CARTESIAN_POINT('',(52.893048238558,-183.7483191113));
#1582 = VECTOR('',#1583,1.);
#1583 = DIRECTION('',(-0.113939936238,0.993487640049));
#1584 = ( GEOMETRIC_REPRESENTATION_CONTEXT(2) 
PARAMETRIC_REPRESENTATION_CONTEXT() REPRESENTATION_CONTEXT('2D SPACE',''
  ) );
#1585 = PCURVE('',#1223,#1586);
#1586 = DEFINITIONAL_REPRESENTATION('',(#1587),#1591);
#1587 = LINE('',#1588,#1589);
#1588 = CARTESIAN_POINT('',(179.13452098603,-75.));
#1589 = VECTOR('',#1590,1.);
#1590 = DIRECTION('',(-0.986855530761,0.161604954768));
#1591 = ( GEOMETRIC_REPRESENTATION_CONTEXT(2) 
PARAMETRIC_REPRESENTATION_CONTEXT() REPRESENTATION_CONTEXT('2D SPACE',''
  ) );
#1592 = ORIENTED_EDGE('',*,*,#1136,.T.);
#1593 = ORIENTED_EDGE('',*,*,#1084,.T.);
#1594 = ADVANCED_FACE('',(#1595),#1223,.F.);
#1595 = FACE_BOUND('',#1596,.F.);
#1596 = EDGE_LOOP('',(#1597,#1598,#1599,#1620));
#1597 = ORIENTED_EDGE('',*,*,#1209,.F.);
#1598 = ORIENTED_EDGE('',*,*,#1355,.T.);
#1599 = ORIENTED_EDGE('',*,*,#1600,.T.);
#1600 = EDGE_CURVE('',#1325,#1546,#1601,.T.);
#1601 = SURFACE_CURVE('',#1602,(#1606,#1613),.PCURVE_S1.);
#1602 = LINE('',#1603,#1604);
#1603 = CARTESIAN_POINT('',(1.396309822356E+03,11.548263350288,
    43.987983213104));
#1604 = VECTOR('',#1605,1.);
#1605 = DIRECTION('',(0.,-1.,0.));
#1606 = PCURVE('',#1223,#1607);
#1607 = DEFINITIONAL_REPRESENTATION('',(#1608),#1612);
#1608 = LINE('',#1609,#1610);
#1609 = CARTESIAN_POINT('',(-208.3393491007,11.548263350288));
#1610 = VECTOR('',#1611,1.);
#1611 = DIRECTION('',(0.,-1.));
#1612 = ( GEOMETRIC_REPRESENTATION_CONTEXT(2) 
PARAMETRIC_REPRESENTATION_CONTEXT() REPRESENTATION_CONTEXT('2D SPACE',''
  ) );
#1613 = PCURVE('',#1309,#1614);
#1614 = DEFINITIONAL_REPRESENTATION('',(#1615),#1619);
#1615 = LINE('',#1616,#1617);
#1616 = CARTESIAN_POINT('',(0.,-4.385858676268));
#1617 = VECTOR('',#1618,1.);
#1618 = DIRECTION('',(0.,1.));
#1619 = ( GEOMETRIC_REPRESENTATION_CONTEXT(2) 
PARAMETRIC_REPRESENTATION_CONTEXT() REPRESENTATION_CONTEXT('2D SPACE',''
  ) );
#1620 = ORIENTED_EDGE('',*,*,#1572,.F.);
#1621 = ADVANCED_FACE('',(#1622),#1309,.T.);
#1622 = FACE_BOUND('',#1623,.F.);
#1623 = EDGE_LOOP('',(#1624,#1625,#1626,#1627,#1628,#1649,#1650,#1651));
#1624 = ORIENTED_EDGE('',*,*,#1600,.F.);
#1625 = ORIENTED_EDGE('',*,*,#1324,.T.);
#1626 = ORIENTED_EDGE('',*,*,#1288,.T.);
#1627 = ORIENTED_EDGE('',*,*,#1408,.T.);
#1628 = ORIENTED_EDGE('',*,*,#1629,.T.);
#1629 = EDGE_CURVE('',#1381,#1443,#1630,.T.);
#1630 = SURFACE_CURVE('',#1631,(#1635,#1642),.PCURVE_S1.);
#1631 = LINE('',#1632,#1633);
#1632 = CARTESIAN_POINT('',(1.396868920593E+03,6.70903432978,
    36.095518343954));
#1633 = VECTOR('',#1634,1.);
#1634 = DIRECTION('',(0.,-1.,0.));
#1635 = PCURVE('',#1309,#1636);
#1636 = DEFINITIONAL_REPRESENTATION('',(#1637),#1641);
#1637 = LINE('',#1638,#1639);
#1638 = CARTESIAN_POINT('',(-2.845083449954,0.45337034424));
#1639 = VECTOR('',#1640,1.);
#1640 = DIRECTION('',(0.,1.));
#1641 = ( GEOMETRIC_REPRESENTATION_CONTEXT(2) 
PARAMETRIC_REPRESENTATION_CONTEXT() REPRESENTATION_CONTEXT('2D SPACE',''
  ) );
#1642 = PCURVE('',#1396,#1643);
#1643 = DEFINITIONAL_REPRESENTATION('',(#1644),#1648);
#1644 = LINE('',#1645,#1646);
#1645 = CARTESIAN_POINT('',(181.25417808306,6.70903432978));
#1646 = VECTOR('',#1647,1.);
#1647 = DIRECTION('',(0.,-1.));
#1648 = ( GEOMETRIC_REPRESENTATION_CONTEXT(2) 
PARAMETRIC_REPRESENTATION_CONTEXT() REPRESENTATION_CONTEXT('2D SPACE',''
  ) );
#1649 = ORIENTED_EDGE('',*,*,#1465,.F.);
#1650 = ORIENTED_EDGE('',*,*,#1518,.F.);
#1651 = ORIENTED_EDGE('',*,*,#1545,.F.);
#1652 = ADVANCED_FACE('',(#1653),#1396,.F.);
#1653 = FACE_BOUND('',#1654,.F.);
#1654 = EDGE_LOOP('',(#1655,#1656,#1657));
#1655 = ORIENTED_EDGE('',*,*,#1380,.F.);
#1656 = ORIENTED_EDGE('',*,*,#1442,.T.);
#1657 = ORIENTED_EDGE('',*,*,#1629,.F.);
#1658 = ( GEOMETRIC_REPRESENTATION_CONTEXT(3) 
GLOBAL_UNCERTAINTY_ASSIGNED_CONTEXT((#1662)) 
GLOBAL_UNIT_ASSIGNED_CONTEXT((#1659,#1660,#1661)) REPRESENTATION_CONTEXT
('Context #1','3D Context with UNIT and UNCERTAINTY') );
#1659 = ( LENGTH_UNIT() NAMED_UNIT(*) SI_UNIT(.MILLI.,.METRE.) );
#1660 = ( NAMED_UNIT(*) PLANE_ANGLE_UNIT() SI_UNIT($,.RADIAN.) );
#1661 = ( NAMED_UNIT(*) SI_UNIT($,.STERADIAN.) SOLID_ANGLE_UNIT() );
#1662 = UNCERTAINTY_MEASURE_WITH_UNIT(LENGTH_MEASURE(1.E-05),#1659,
  'distance_accuracy_value','confusion accuracy');
#1663 = CONTEXT_DEPENDENT_SHAPE_REPRESENTATION(#1664,#1666);
#1664 = ( REPRESENTATION_RELATIONSHIP('','',#32,#10) 
REPRESENTATION_RELATIONSHIP_WITH_TRANSFORMATION(#1665) 
SHAPE_REPRESENTATION_RELATIONSHIP() );
#1665 = ITEM_DEFINED_TRANSFORMATION('','',#11,#15);
#1666 = PRODUCT_DEFINITION_SHAPE('Placement','Placement of an item',
  #1667);
#1667 = NEXT_ASSEMBLY_USAGE_OCCURRENCE('1','=>[0:1:1:2]','',#5,#27,$);
#1668 = PRODUCT_RELATED_PRODUCT_CATEGORY('part',$,(#29));
#1669 = MECHANICAL_DESIGN_GEOMETRIC_PRESENTATION_REPRESENTATION('',(
    #1670),#1658);
#1670 = STYLED_ITEM('color',(#1671),#33);
#1671 = PRESENTATION_STYLE_ASSIGNMENT((#1672));
#1672 = SURFACE_STYLE_USAGE(.BOTH.,#1673);
#1673 = SURFACE_SIDE_STYLE('',(#1674));
#1674 = SURFACE_STYLE_FILL_AREA(#1675);
#1675 = FILL_AREA_STYLE('',(#1676));
#1676 = FILL_AREA_STYLE_COLOUR('',#1677);
#1677 = COLOUR_RGB('',0.654901934349,0.705882339664,0.737254912529);
ENDSEC;
END-ISO-10303-21;
