ISO-10303-21;
HEADER;
FILE_DESCRIPTION(('Open CASCADE Model'),'2;1');
FILE_NAME('J_Symmetric_Body_R7','2000-01-01T00:00:00',('Author'),(
    'Open CASCADE'),'Open CASCADE STEP processor 7.9','cadgen','Unknown'
  );
FILE_SCHEMA(('AUTOMOTIVE_DESIGN { 1 0 10303 214 1 1 1 1 }'));
ENDSEC;
DATA;
#1 = APPLICATION_PROTOCOL_DEFINITION('international standard',
  'automotive_design',2000,#2);
#2 = APPLICATION_CONTEXT(
  'core data for automotive mechanical design processes');
#3 = SHAPE_DEFINITION_REPRESENTATION(#4,#10);
#4 = PRODUCT_DEFINITION_SHAPE('','',#5);
#5 = PRODUCT_DEFINITION('design','',#6,#9);
#6 = PRODUCT_DEFINITION_FORMATION('','',#7);
#7 = PRODUCT('=>[0:1:1:2]','=>[0:1:1:2]','',(#8));
#8 = PRODUCT_CONTEXT('',#2,'mechanical');
#9 = PRODUCT_DEFINITION_CONTEXT('part definition',#2,'design');
#10 = SHAPE_REPRESENTATION('',(#11,#15),#19);
#11 = AXIS2_PLACEMENT_3D('',#12,#13,#14);
#12 = CARTESIAN_POINT('',(0.,0.,0.));
#13 = DIRECTION('',(0.,0.,1.));
#14 = DIRECTION('',(1.,0.,0.));
#15 = AXIS2_PLACEMENT_3D('',#16,#17,#18);
#16 = CARTESIAN_POINT('',(0.,0.,0.));
#17 = DIRECTION('',(0.,0.,1.));
#18 = DIRECTION('',(1.,0.,0.));
#19 = ( GEOMETRIC_REPRESENTATION_CONTEXT(3) 
GLOBAL_UNCERTAINTY_ASSIGNED_CONTEXT((#23)) GLOBAL_UNIT_ASSIGNED_CONTEXT(
(#20,#21,#22)) REPRESENTATION_CONTEXT('Context #1',
  '3D Context with UNIT and UNCERTAINTY') );
#20 = ( LENGTH_UNIT() NAMED_UNIT(*) SI_UNIT(.MILLI.,.METRE.) );
#21 = ( NAMED_UNIT(*) PLANE_ANGLE_UNIT() SI_UNIT($,.RADIAN.) );
#22 = ( NAMED_UNIT(*) SI_UNIT($,.STERADIAN.) SOLID_ANGLE_UNIT() );
#23 = UNCERTAINTY_MEASURE_WITH_UNIT(LENGTH_MEASURE(5.E-06),#20,
  'distance_accuracy_value','confusion accuracy');
#24 = PRODUCT_RELATED_PRODUCT_CATEGORY('part',$,(#7));
#25 = SHAPE_DEFINITION_REPRESENTATION(#26,#32);
#26 = PRODUCT_DEFINITION_SHAPE('','',#27);
#27 = PRODUCT_DEFINITION('design','',#28,#31);
#28 = PRODUCT_DEFINITION_FORMATION('','',#29);
#29 = PRODUCT('J_Symmetric_Body_R7','J_Symmetric_Body_R7','',(#30));
#30 = PRODUCT_CONTEXT('',#2,'mechanical');
#31 = PRODUCT_DEFINITION_CONTEXT('part definition',#2,'design');
#32 = ADVANCED_BREP_SHAPE_REPRESENTATION('',(#11,#33),#1614);
#33 = MANIFOLD_SOLID_BREP('',#34);
#34 = CLOSED_SHELL('',(#35,#164,#257,#347,#454,#534,#637,#714,#778,#831,
    #907,#980,#1078,#1179,#1250,#1292,#1317,#1398,#1459,#1467,#1474,
    #1500,#1559,#1585,#1592,#1599,#1606));
#35 = ADVANCED_FACE('',(#36),#50,.T.);
#36 = FACE_BOUND('',#37,.T.);
#37 = EDGE_LOOP('',(#38,#72,#113,#140));
#38 = ORIENTED_EDGE('',*,*,#39,.T.);
#39 = EDGE_CURVE('',#40,#42,#44,.T.);
#40 = VERTEX_POINT('',#41);
#41 = CARTESIAN_POINT('',(760.,0.,-86.));
#42 = VERTEX_POINT('',#43);
#43 = CARTESIAN_POINT('',(760.,75.999999981879,-86.));
#44 = SURFACE_CURVE('',#45,(#49,#60),.PCURVE_S1.);
#45 = LINE('',#46,#47);
#46 = CARTESIAN_POINT('',(760.,2.181366198784E-12,-86.));
#47 = VECTOR('',#48,1.);
#48 = DIRECTION('',(0.,1.,0.));
#49 = PCURVE('',#50,#55);
#50 = B_SPLINE_SURFACE_WITH_KNOTS('',1,1,(
    (#51,#52)
    ,(#53,#54
    )),.UNSPECIFIED.,.F.,.F.,.F.,(2,2),(2,2),(-2.632432938299E-09,
    75.999999981876),(0.,1.),.PIECEWISE_BEZIER_KNOTS.);
#51 = CARTESIAN_POINT('',(760.,-2.6302515721E-09,-86.));
#52 = CARTESIAN_POINT('',(1.01E+03,0.,-50.));
#53 = CARTESIAN_POINT('',(760.,75.999999981879,-86.));
#54 = CARTESIAN_POINT('',(1.01E+03,47.,-36.));
#55 = DEFINITIONAL_REPRESENTATION('',(#56),#59);
#56 = B_SPLINE_CURVE_WITH_KNOTS('',1,(#57,#58),.UNSPECIFIED.,.F.,.F.,(2,
    2),(-2.632432938299E-09,75.999999981876),.PIECEWISE_BEZIER_KNOTS.);
#57 = CARTESIAN_POINT('',(-2.632432938299E-09,0.));
#58 = CARTESIAN_POINT('',(75.999999981876,0.));
#59 = ( GEOMETRIC_REPRESENTATION_CONTEXT(2) 
PARAMETRIC_REPRESENTATION_CONTEXT() REPRESENTATION_CONTEXT('2D SPACE',''
  ) );
#60 = PCURVE('',#61,#66);
#61 = PLANE('',#62);
#62 = AXIS2_PLACEMENT_3D('',#63,#64,#65);
#63 = CARTESIAN_POINT('',(760.,2.181366198784E-12,-86.));
#64 = DIRECTION('',(0.,0.,-1.));
#65 = DIRECTION('',(0.,1.,0.));
#66 = DEFINITIONAL_REPRESENTATION('',(#67),#71);
#67 = LINE('',#68,#69);
#68 = CARTESIAN_POINT('',(0.,0.));
#69 = VECTOR('',#70,1.);
#70 = DIRECTION('',(1.,0.));
#71 = ( GEOMETRIC_REPRESENTATION_CONTEXT(2) 
PARAMETRIC_REPRESENTATION_CONTEXT() REPRESENTATION_CONTEXT('2D SPACE',''
  ) );
#72 = ORIENTED_EDGE('',*,*,#73,.T.);
#73 = EDGE_CURVE('',#42,#74,#76,.T.);
#74 = VERTEX_POINT('',#75);
#75 = CARTESIAN_POINT('',(1.01E+03,47.,-36.));
#76 = SURFACE_CURVE('',#77,(#80,#87),.PCURVE_S1.);
#77 = B_SPLINE_CURVE_WITH_KNOTS('',1,(#78,#79),.UNSPECIFIED.,.F.,.F.,(2,
    2),(0.,1.),.PIECEWISE_BEZIER_KNOTS.);
#78 = CARTESIAN_POINT('',(760.,75.999999981879,-86.));
#79 = CARTESIAN_POINT('',(1.01E+03,47.,-36.));
#80 = PCURVE('',#50,#81);
#81 = DEFINITIONAL_REPRESENTATION('',(#82),#86);
#82 = LINE('',#83,#84);
#83 = CARTESIAN_POINT('',(75.999999981876,0.));
#84 = VECTOR('',#85,1.);
#85 = DIRECTION('',(0.,1.));
#86 = ( GEOMETRIC_REPRESENTATION_CONTEXT(2) 
PARAMETRIC_REPRESENTATION_CONTEXT() REPRESENTATION_CONTEXT('2D SPACE',''
  ) );
#87 = PCURVE('',#88,#107);
#88 = B_SPLINE_SURFACE_WITH_KNOTS('',8,1,(
    (#89,#90)
    ,(#91,#92)
    ,(#93,#94)
    ,(#95,#96)
    ,(#97,#98)
    ,(#99,#100)
    ,(#101,#102)
    ,(#103,#104)
    ,(#105,#106
    )),.UNSPECIFIED.,.F.,.F.,.F.,(9,9),(2,2),(-113.5077089893,
    -98.3190271038),(0.,1.),.PIECEWISE_BEZIER_KNOTS.);
#89 = CARTESIAN_POINT('',(760.,75.999999981879,-86.));
#90 = CARTESIAN_POINT('',(1.01E+03,47.,-36.));
#91 = CARTESIAN_POINT('',(759.99999999998,77.963495390371,
    -85.99999999999));
#92 = CARTESIAN_POINT('',(1.01E+03,47.468341640163,-34.16008641364));
#93 = CARTESIAN_POINT('',(760.00000000003,79.926991416924,
    -85.55939211039));
#94 = CARTESIAN_POINT('',(1.01E+03,47.936683280327,-32.32017282728));
#95 = CARTESIAN_POINT('',(759.99999999994,81.775132325223,
    -84.67818065871));
#96 = CARTESIAN_POINT('',(1.01E+03,48.40502492049,-30.48025924093));
#97 = CARTESIAN_POINT('',(760.00000000006,83.392587539684,-83.3925875578
    ));
#98 = CARTESIAN_POINT('',(1.01E+03,48.873366560654,-28.64034565457));
#99 = CARTESIAN_POINT('',(759.99999999995,84.678180640589,
    -81.77513234335));
#100 = CARTESIAN_POINT('',(1.01E+03,49.341708200817,-26.80043206821));
#101 = CARTESIAN_POINT('',(760.00000000002,85.559392092269,
    -79.92699143504));
#102 = CARTESIAN_POINT('',(1.01E+03,49.810049840981,-24.96051848186));
#103 = CARTESIAN_POINT('',(759.99999999999,85.999999981878,
    -77.96349540849));
#104 = CARTESIAN_POINT('',(1.01E+03,50.278391481144,-23.1206048955));
#105 = CARTESIAN_POINT('',(760.,85.999999981879,-76.));
#106 = CARTESIAN_POINT('',(1.01E+03,50.746733121308,-21.28069130914));
#107 = DEFINITIONAL_REPRESENTATION('',(#108),#112);
#108 = LINE('',#109,#110);
#109 = CARTESIAN_POINT('',(-113.5077089893,0.));
#110 = VECTOR('',#111,1.);
#111 = DIRECTION('',(0.,1.));
#112 = ( GEOMETRIC_REPRESENTATION_CONTEXT(2) 
PARAMETRIC_REPRESENTATION_CONTEXT() REPRESENTATION_CONTEXT('2D SPACE',''
  ) );
#113 = ORIENTED_EDGE('',*,*,#114,.T.);
#114 = EDGE_CURVE('',#74,#115,#117,.T.);
#115 = VERTEX_POINT('',#116);
#116 = CARTESIAN_POINT('',(1.01E+03,0.,-50.));
#117 = SURFACE_CURVE('',#118,(#122,#128),.PCURVE_S1.);
#118 = LINE('',#119,#120);
#119 = CARTESIAN_POINT('',(1.01E+03,47.,-36.));
#120 = VECTOR('',#121,1.);
#121 = DIRECTION('',(0.,-0.958385683586,-0.2854765866));
#122 = PCURVE('',#50,#123);
#123 = DEFINITIONAL_REPRESENTATION('',(#124),#127);
#124 = B_SPLINE_CURVE_WITH_KNOTS('',1,(#125,#126),.UNSPECIFIED.,.F.,.F.,
  (2,2),(0.,49.040799340957),.PIECEWISE_BEZIER_KNOTS.);
#125 = CARTESIAN_POINT('',(75.999999981876,1.));
#126 = CARTESIAN_POINT('',(-2.632432938299E-09,1.));
#127 = ( GEOMETRIC_REPRESENTATION_CONTEXT(2) 
PARAMETRIC_REPRESENTATION_CONTEXT() REPRESENTATION_CONTEXT('2D SPACE',''
  ) );
#128 = PCURVE('',#129,#134);
#129 = PLANE('',#130);
#130 = AXIS2_PLACEMENT_3D('',#131,#132,#133);
#131 = CARTESIAN_POINT('',(1.205183059005E+03,15.766023573151,
    -2.875088163603));
#132 = DIRECTION('',(-0.203953643411,-0.279476024896,0.938240940722));
#133 = DIRECTION('',(-6.938893903907E-18,0.958385683586,0.2854765866));
#134 = DEFINITIONAL_REPRESENTATION('',(#135),#139);
#135 = LINE('',#136,#137);
#136 = CARTESIAN_POINT('',(20.477809086478,199.37378695577));
#137 = VECTOR('',#138,1.);
#138 = DIRECTION('',(-1.,4.163336342344E-17));
#139 = ( GEOMETRIC_REPRESENTATION_CONTEXT(2) 
PARAMETRIC_REPRESENTATION_CONTEXT() REPRESENTATION_CONTEXT('2D SPACE',''
  ) );
#140 = ORIENTED_EDGE('',*,*,#141,.F.);
#141 = EDGE_CURVE('',#40,#115,#142,.T.);
#142 = SURFACE_CURVE('',#143,(#146,#153),.PCURVE_S1.);
#143 = B_SPLINE_CURVE_WITH_KNOTS('',1,(#144,#145),.UNSPECIFIED.,.F.,.F.,
  (2,2),(0.,1.),.PIECEWISE_BEZIER_KNOTS.);
#144 = CARTESIAN_POINT('',(760.,-2.6302515721E-09,-86.));
#145 = CARTESIAN_POINT('',(1.01E+03,0.,-50.));
#146 = PCURVE('',#50,#147);
#147 = DEFINITIONAL_REPRESENTATION('',(#148),#152);
#148 = LINE('',#149,#150);
#149 = CARTESIAN_POINT('',(-2.632432938299E-09,0.));
#150 = VECTOR('',#151,1.);
#151 = DIRECTION('',(0.,1.));
#152 = ( GEOMETRIC_REPRESENTATION_CONTEXT(2) 
PARAMETRIC_REPRESENTATION_CONTEXT() REPRESENTATION_CONTEXT('2D SPACE',''
  ) );
#153 = PCURVE('',#154,#159);
#154 = B_SPLINE_SURFACE_WITH_KNOTS('',1,1,(
    (#155,#156)
    ,(#157,#158
    )),.UNSPECIFIED.,.F.,.F.,.F.,(2,2),(2,2),(-2.632432938299E-09,
    75.999999981876),(0.,1.),.PIECEWISE_BEZIER_KNOTS.);
#155 = CARTESIAN_POINT('',(760.,2.6302515721E-09,-86.));
#156 = CARTESIAN_POINT('',(1.01E+03,0.,-50.));
#157 = CARTESIAN_POINT('',(760.,-75.99999998187,-86.));
#158 = CARTESIAN_POINT('',(1.01E+03,-47.,-36.));
#159 = DEFINITIONAL_REPRESENTATION('',(#160),#163);
#160 = B_SPLINE_CURVE_WITH_KNOTS('',1,(#161,#162),.UNSPECIFIED.,.F.,.F.,
  (2,2),(0.,1.),.PIECEWISE_BEZIER_KNOTS.);
#161 = CARTESIAN_POINT('',(-2.632432938299E-09,0.));
#162 = CARTESIAN_POINT('',(-2.632432938299E-09,1.));
#163 = ( GEOMETRIC_REPRESENTATION_CONTEXT(2) 
PARAMETRIC_REPRESENTATION_CONTEXT() REPRESENTATION_CONTEXT('2D SPACE',''
  ) );
#164 = ADVANCED_FACE('',(#165),#154,.F.);
#165 = FACE_BOUND('',#166,.F.);
#166 = EDGE_LOOP('',(#167,#190,#231,#256));
#167 = ORIENTED_EDGE('',*,*,#168,.T.);
#168 = EDGE_CURVE('',#40,#169,#171,.T.);
#169 = VERTEX_POINT('',#170);
#170 = CARTESIAN_POINT('',(760.,-75.99999998187,-86.));
#171 = SURFACE_CURVE('',#172,(#176,#183),.PCURVE_S1.);
#172 = LINE('',#173,#174);
#173 = CARTESIAN_POINT('',(760.,-2.181366198784E-12,-86.));
#174 = VECTOR('',#175,1.);
#175 = DIRECTION('',(0.,-1.,0.));
#176 = PCURVE('',#154,#177);
#177 = DEFINITIONAL_REPRESENTATION('',(#178),#182);
#178 = LINE('',#179,#180);
#179 = CARTESIAN_POINT('',(0.,0.));
#180 = VECTOR('',#181,1.);
#181 = DIRECTION('',(1.,0.));
#182 = ( GEOMETRIC_REPRESENTATION_CONTEXT(2) 
PARAMETRIC_REPRESENTATION_CONTEXT() REPRESENTATION_CONTEXT('2D SPACE',''
  ) );
#183 = PCURVE('',#61,#184);
#184 = DEFINITIONAL_REPRESENTATION('',(#185),#189);
#185 = LINE('',#186,#187);
#186 = CARTESIAN_POINT('',(-4.362732397567E-12,0.));
#187 = VECTOR('',#188,1.);
#188 = DIRECTION('',(-1.,0.));
#189 = ( GEOMETRIC_REPRESENTATION_CONTEXT(2) 
PARAMETRIC_REPRESENTATION_CONTEXT() REPRESENTATION_CONTEXT('2D SPACE',''
  ) );
#190 = ORIENTED_EDGE('',*,*,#191,.T.);
#191 = EDGE_CURVE('',#169,#192,#194,.T.);
#192 = VERTEX_POINT('',#193);
#193 = CARTESIAN_POINT('',(1.01E+03,-47.,-36.));
#194 = SURFACE_CURVE('',#195,(#198,#205),.PCURVE_S1.);
#195 = B_SPLINE_CURVE_WITH_KNOTS('',1,(#196,#197),.UNSPECIFIED.,.F.,.F.,
  (2,2),(0.,1.),.PIECEWISE_BEZIER_KNOTS.);
#196 = CARTESIAN_POINT('',(760.,-75.99999998187,-86.));
#197 = CARTESIAN_POINT('',(1.01E+03,-47.,-36.));
#198 = PCURVE('',#154,#199);
#199 = DEFINITIONAL_REPRESENTATION('',(#200),#204);
#200 = LINE('',#201,#202);
#201 = CARTESIAN_POINT('',(75.999999981876,0.));
#202 = VECTOR('',#203,1.);
#203 = DIRECTION('',(0.,1.));
#204 = ( GEOMETRIC_REPRESENTATION_CONTEXT(2) 
PARAMETRIC_REPRESENTATION_CONTEXT() REPRESENTATION_CONTEXT('2D SPACE',''
  ) );
#205 = PCURVE('',#206,#225);
#206 = B_SPLINE_SURFACE_WITH_KNOTS('',8,1,(
    (#207,#208)
    ,(#209,#210)
    ,(#211,#212)
    ,(#213,#214)
    ,(#215,#216)
    ,(#217,#218)
    ,(#219,#220)
    ,(#221,#222)
    ,(#223,#224
    )),.UNSPECIFIED.,.F.,.F.,.F.,(9,9),(2,2),(-113.5077089893,
    -98.3190271038),(0.,1.),.PIECEWISE_BEZIER_KNOTS.);
#207 = CARTESIAN_POINT('',(760.,-75.99999998187,-86.));
#208 = CARTESIAN_POINT('',(1.01E+03,-47.,-36.));
#209 = CARTESIAN_POINT('',(759.99999999998,-77.96349539037,
    -85.99999999999));
#210 = CARTESIAN_POINT('',(1.01E+03,-47.46834164016,-34.16008641364));
#211 = CARTESIAN_POINT('',(760.00000000003,-79.92699141692,
    -85.55939211039));
#212 = CARTESIAN_POINT('',(1.01E+03,-47.93668328032,-32.32017282728));
#213 = CARTESIAN_POINT('',(759.99999999994,-81.77513232522,
    -84.67818065871));
#214 = CARTESIAN_POINT('',(1.01E+03,-48.40502492049,-30.48025924093));
#215 = CARTESIAN_POINT('',(760.00000000006,-83.39258753968,
    -83.3925875578));
#216 = CARTESIAN_POINT('',(1.01E+03,-48.87336656065,-28.64034565457));
#217 = CARTESIAN_POINT('',(759.99999999995,-84.67818064058,
    -81.77513234335));
#218 = CARTESIAN_POINT('',(1.01E+03,-49.34170820081,-26.80043206821));
#219 = CARTESIAN_POINT('',(760.00000000002,-85.55939209226,
    -79.92699143504));
#220 = CARTESIAN_POINT('',(1.01E+03,-49.81004984098,-24.96051848186));
#221 = CARTESIAN_POINT('',(759.99999999999,-85.99999998187,
    -77.96349540849));
#222 = CARTESIAN_POINT('',(1.01E+03,-50.27839148114,-23.1206048955));
#223 = CARTESIAN_POINT('',(760.,-85.99999998187,-76.));
#224 = CARTESIAN_POINT('',(1.01E+03,-50.7467331213,-21.28069130914));
#225 = DEFINITIONAL_REPRESENTATION('',(#226),#230);
#226 = LINE('',#227,#228);
#227 = CARTESIAN_POINT('',(-113.5077089893,0.));
#228 = VECTOR('',#229,1.);
#229 = DIRECTION('',(0.,1.));
#230 = ( GEOMETRIC_REPRESENTATION_CONTEXT(2) 
PARAMETRIC_REPRESENTATION_CONTEXT() REPRESENTATION_CONTEXT('2D SPACE',''
  ) );
#231 = ORIENTED_EDGE('',*,*,#232,.T.);
#232 = EDGE_CURVE('',#192,#115,#233,.T.);
#233 = SURFACE_CURVE('',#234,(#238,#244),.PCURVE_S1.);
#234 = LINE('',#235,#236);
#235 = CARTESIAN_POINT('',(1.01E+03,-47.,-36.));
#236 = VECTOR('',#237,1.);
#237 = DIRECTION('',(0.,0.958385683586,-0.2854765866));
#238 = PCURVE('',#154,#239);
#239 = DEFINITIONAL_REPRESENTATION('',(#240),#243);
#240 = B_SPLINE_CURVE_WITH_KNOTS('',1,(#241,#242),.UNSPECIFIED.,.F.,.F.,
  (2,2),(0.,49.040799340957),.PIECEWISE_BEZIER_KNOTS.);
#241 = CARTESIAN_POINT('',(75.999999981876,1.));
#242 = CARTESIAN_POINT('',(-2.632432938299E-09,1.));
#243 = ( GEOMETRIC_REPRESENTATION_CONTEXT(2) 
PARAMETRIC_REPRESENTATION_CONTEXT() REPRESENTATION_CONTEXT('2D SPACE',''
  ) );
#244 = PCURVE('',#245,#250);
#245 = PLANE('',#246);
#246 = AXIS2_PLACEMENT_3D('',#247,#248,#249);
#247 = CARTESIAN_POINT('',(1.205183059005E+03,-15.76602357315,
    -2.875088163603));
#248 = DIRECTION('',(-0.203953643411,0.279476024896,0.938240940722));
#249 = DIRECTION('',(6.938893903907E-18,0.958385683586,-0.2854765866));
#250 = DEFINITIONAL_REPRESENTATION('',(#251),#255);
#251 = LINE('',#252,#253);
#252 = CARTESIAN_POINT('',(-20.47780908647,199.37378695577));
#253 = VECTOR('',#254,1.);
#254 = DIRECTION('',(1.,4.163336342344E-17));
#255 = ( GEOMETRIC_REPRESENTATION_CONTEXT(2) 
PARAMETRIC_REPRESENTATION_CONTEXT() REPRESENTATION_CONTEXT('2D SPACE',''
  ) );
#256 = ORIENTED_EDGE('',*,*,#141,.F.);
#257 = ADVANCED_FACE('',(#258),#245,.F.);
#258 = FACE_BOUND('',#259,.T.);
#259 = EDGE_LOOP('',(#260,#288,#320,#346));
#260 = ORIENTED_EDGE('',*,*,#261,.T.);
#261 = EDGE_CURVE('',#115,#262,#264,.T.);
#262 = VERTEX_POINT('',#263);
#263 = CARTESIAN_POINT('',(1.396868920593E+03,-6.70903432978,
    36.095518343954));
#264 = SURFACE_CURVE('',#265,(#269,#276),.PCURVE_S1.);
#265 = LINE('',#266,#267);
#266 = CARTESIAN_POINT('',(1.01E+03,0.,-50.));
#267 = VECTOR('',#268,1.);
#268 = DIRECTION('',(0.975980590819,-1.69253381196E-02,0.217199031474));
#269 = PCURVE('',#245,#270);
#270 = DEFINITIONAL_REPRESENTATION('',(#271),#275);
#271 = LINE('',#272,#273);
#272 = CARTESIAN_POINT('',(28.562990254479,199.37378695577));
#273 = VECTOR('',#274,1.);
#274 = DIRECTION('',(-7.822623986171E-02,-0.996935632525));
#275 = ( GEOMETRIC_REPRESENTATION_CONTEXT(2) 
PARAMETRIC_REPRESENTATION_CONTEXT() REPRESENTATION_CONTEXT('2D SPACE',''
  ) );
#276 = PCURVE('',#277,#282);
#277 = PLANE('',#278);
#278 = AXIS2_PLACEMENT_3D('',#279,#280,#281);
#279 = CARTESIAN_POINT('',(1.219943017242E+03,-4.825287804009E-16,
    -3.278353649123));
#280 = DIRECTION('',(-0.217230148345,-5.805391654898E-16,0.976120414012)
  );
#281 = DIRECTION('',(0.976120414012,0.,0.217230148345));
#282 = DEFINITIONAL_REPRESENTATION('',(#283),#287);
#283 = LINE('',#284,#285);
#284 = CARTESIAN_POINT('',(-215.0790150764,4.825287804009E-16));
#285 = VECTOR('',#286,1.);
#286 = DIRECTION('',(0.999856756205,-1.69253381196E-02));
#287 = ( GEOMETRIC_REPRESENTATION_CONTEXT(2) 
PARAMETRIC_REPRESENTATION_CONTEXT() REPRESENTATION_CONTEXT('2D SPACE',''
  ) );
#288 = ORIENTED_EDGE('',*,*,#289,.F.);
#289 = EDGE_CURVE('',#290,#262,#292,.T.);
#290 = VERTEX_POINT('',#291);
#291 = CARTESIAN_POINT('',(1.399030741822E+03,-9.475548354244,
    37.389520348794));
#292 = SURFACE_CURVE('',#293,(#298,#305),.PCURVE_S1.);
#293 = ELLIPSE('',#294,14.312497830496,4.);
#294 = AXIS2_PLACEMENT_3D('',#295,#296,#297);
#295 = CARTESIAN_POINT('',(1.396E+03,-20.45105053416,40.));
#296 = DIRECTION('',(-0.203953643411,0.279476024896,0.938240940722));
#297 = DIRECTION('',(5.936571885803E-02,0.960152670937,-0.273098077467)
  );
#298 = PCURVE('',#245,#299);
#299 = DEFINITIONAL_REPRESENTATION('',(#300),#304);
#300 = ELLIPSE('',#301,14.312497830496,4.);
#301 = AXIS2_PLACEMENT_2D('',#302,#303);
#302 = CARTESIAN_POINT('',(-16.72989658577,-194.9139250891));
#303 = DIRECTION('',(0.998159680846,-6.064034575761E-02));
#304 = ( GEOMETRIC_REPRESENTATION_CONTEXT(2) 
PARAMETRIC_REPRESENTATION_CONTEXT() REPRESENTATION_CONTEXT('2D SPACE',''
  ) );
#305 = PCURVE('',#306,#311);
#306 = CYLINDRICAL_SURFACE('',#307,4.);
#307 = AXIS2_PLACEMENT_3D('',#308,#309,#310);
#308 = CARTESIAN_POINT('',(1.396E+03,7.16240467402,40.));
#309 = DIRECTION('',(0.,-1.,0.));
#310 = DIRECTION('',(7.745558888959E-02,0.,0.996995803276));
#311 = DEFINITIONAL_REPRESENTATION('',(#312),#319);
#312 = B_SPLINE_CURVE_WITH_KNOTS('',5,(#313,#314,#315,#316,#317,#318),
  .UNSPECIFIED.,.F.,.F.,(6,6),(5.637474770515,6.278258045947),
  .PIECEWISE_BEZIER_KNOTS.);
#313 = CARTESIAN_POINT('',(-2.204300174522,16.637953028245));
#314 = CARTESIAN_POINT('',(-2.332456829608,15.578151373275));
#315 = CARTESIAN_POINT('',(-2.460613568783,14.74365256158));
#316 = CARTESIAN_POINT('',(-2.588770354707,14.170890239295));
#317 = CARTESIAN_POINT('',(-2.716926794868,13.880116625693));
#318 = CARTESIAN_POINT('',(-2.845083449954,13.871439003799));
#319 = ( GEOMETRIC_REPRESENTATION_CONTEXT(2) 
PARAMETRIC_REPRESENTATION_CONTEXT() REPRESENTATION_CONTEXT('2D SPACE',''
  ) );
#320 = ORIENTED_EDGE('',*,*,#321,.F.);
#321 = EDGE_CURVE('',#192,#290,#322,.T.);
#322 = SURFACE_CURVE('',#323,(#327,#334),.PCURVE_S1.);
#323 = LINE('',#324,#325);
#324 = CARTESIAN_POINT('',(1.01E+03,-47.,-36.));
#325 = VECTOR('',#326,1.);
#326 = DIRECTION('',(0.978282745984,9.436149808021E-02,0.18455020073));
#327 = PCURVE('',#245,#328);
#328 = DEFINITIONAL_REPRESENTATION('',(#329),#333);
#329 = LINE('',#330,#331);
#330 = CARTESIAN_POINT('',(-20.47780908647,199.37378695577));
#331 = VECTOR('',#332,1.);
#332 = DIRECTION('',(3.77499474811E-02,-0.999287216703));
#333 = ( GEOMETRIC_REPRESENTATION_CONTEXT(2) 
PARAMETRIC_REPRESENTATION_CONTEXT() REPRESENTATION_CONTEXT('2D SPACE',''
  ) );
#334 = PCURVE('',#335,#340);
#335 = PLANE('',#336);
#336 = AXIS2_PLACEMENT_3D('',#337,#338,#339);
#337 = CARTESIAN_POINT('',(1.191973360871E+03,-37.2614906038,
    29.026450327948));
#338 = DIRECTION('',(-0.138658356422,0.959735961679,0.244296426609));
#339 = DIRECTION('',(-2.775557561563E-17,-0.246679280635,0.969097173923)
  );
#340 = DEFINITIONAL_REPRESENTATION('',(#341),#345);
#341 = LINE('',#342,#343);
#342 = CARTESIAN_POINT('',(-60.61466075074,-183.7483191113));
#343 = VECTOR('',#344,1.);
#344 = DIRECTION('',(0.155570051508,0.987824862551));
#345 = ( GEOMETRIC_REPRESENTATION_CONTEXT(2) 
PARAMETRIC_REPRESENTATION_CONTEXT() REPRESENTATION_CONTEXT('2D SPACE',''
  ) );
#346 = ORIENTED_EDGE('',*,*,#232,.T.);
#347 = ADVANCED_FACE('',(#348),#335,.F.);
#348 = FACE_BOUND('',#349,.T.);
#349 = EDGE_LOOP('',(#350,#351,#378,#406,#433));
#350 = ORIENTED_EDGE('',*,*,#321,.T.);
#351 = ORIENTED_EDGE('',*,*,#352,.F.);
#352 = EDGE_CURVE('',#353,#290,#355,.T.);
#353 = VERTEX_POINT('',#354);
#354 = CARTESIAN_POINT('',(1.396309822356E+03,-11.54826335028,
    43.987983213104));
#355 = SURFACE_CURVE('',#356,(#361,#368),.PCURVE_S1.);
#356 = ELLIPSE('',#357,4.167812981605,4.);
#357 = AXIS2_PLACEMENT_3D('',#358,#359,#360);
#358 = CARTESIAN_POINT('',(1.396E+03,-10.5779020979,40.));
#359 = DIRECTION('',(-0.138658356422,0.959735961679,0.244296426609));
#360 = DIRECTION('',(0.473740342703,0.280903691431,-0.834663527318));
#361 = PCURVE('',#335,#362);
#362 = DEFINITIONAL_REPRESENTATION('',(#363),#367);
#363 = ELLIPSE('',#364,4.167812981605,4.);
#364 = AXIS2_PLACEMENT_2D('',#365,#366);
#365 = CARTESIAN_POINT('',(4.052147557695,206.01670384321));
#366 = DIRECTION('',(-0.878163186031,0.478361180177));
#367 = ( GEOMETRIC_REPRESENTATION_CONTEXT(2) 
PARAMETRIC_REPRESENTATION_CONTEXT() REPRESENTATION_CONTEXT('2D SPACE',''
  ) );
#368 = PCURVE('',#306,#369);
#369 = DEFINITIONAL_REPRESENTATION('',(#370),#377);
#370 = B_SPLINE_CURVE_WITH_KNOTS('',5,(#371,#372,#373,#374,#375,#376),
  .UNSPECIFIED.,.F.,.F.,(6,6),(3.735367802151,5.939667976673),
  .PIECEWISE_BEZIER_KNOTS.);
#371 = CARTESIAN_POINT('',(5.684341886081E-14,18.710668024307));
#372 = CARTESIAN_POINT('',(-0.440860034904,18.421891546783));
#373 = CARTESIAN_POINT('',(-0.881717121318,17.897371179528));
#374 = CARTESIAN_POINT('',(-1.322585816718,17.252480106333));
#375 = CARTESIAN_POINT('',(-1.763440139618,16.811789050286));
#376 = CARTESIAN_POINT('',(-2.204300174522,16.637953028264));
#377 = ( GEOMETRIC_REPRESENTATION_CONTEXT(2) 
PARAMETRIC_REPRESENTATION_CONTEXT() REPRESENTATION_CONTEXT('2D SPACE',''
  ) );
#378 = ORIENTED_EDGE('',*,*,#379,.F.);
#379 = EDGE_CURVE('',#380,#353,#382,.T.);
#380 = VERTEX_POINT('',#381);
#381 = CARTESIAN_POINT('',(1.01E+03,-75.,74.));
#382 = SURFACE_CURVE('',#383,(#387,#394),.PCURVE_S1.);
#383 = LINE('',#384,#385);
#384 = CARTESIAN_POINT('',(1.01E+03,-75.,74.));
#385 = VECTOR('',#386,1.);
#386 = DIRECTION('',(0.983890822609,0.161604954768,-7.643747628407E-02)
  );
#387 = PCURVE('',#335,#388);
#388 = DEFINITIONAL_REPRESENTATION('',(#389),#393);
#389 = LINE('',#390,#391);
#390 = CARTESIAN_POINT('',(52.893048238558,-183.7483191113));
#391 = VECTOR('',#392,1.);
#392 = DIRECTION('',(-0.113939936238,0.993487640049));
#393 = ( GEOMETRIC_REPRESENTATION_CONTEXT(2) 
PARAMETRIC_REPRESENTATION_CONTEXT() REPRESENTATION_CONTEXT('2D SPACE',''
  ) );
#394 = PCURVE('',#395,#400);
#395 = PLANE('',#396);
#396 = AXIS2_PLACEMENT_3D('',#397,#398,#399);
#397 = CARTESIAN_POINT('',(1.188596365645E+03,-1.81197115404E-15,
    60.125030186573));
#398 = DIRECTION('',(-7.745558888959E-02,0.,-0.996995803276));
#399 = DIRECTION('',(-0.996995803276,0.,7.745558888959E-02));
#400 = DEFINITIONAL_REPRESENTATION('',(#401),#405);
#401 = LINE('',#402,#403);
#402 = CARTESIAN_POINT('',(179.13452098603,-75.));
#403 = VECTOR('',#404,1.);
#404 = DIRECTION('',(-0.986855530761,0.161604954768));
#405 = ( GEOMETRIC_REPRESENTATION_CONTEXT(2) 
PARAMETRIC_REPRESENTATION_CONTEXT() REPRESENTATION_CONTEXT('2D SPACE',''
  ) );
#406 = ORIENTED_EDGE('',*,*,#407,.T.);
#407 = EDGE_CURVE('',#380,#408,#410,.T.);
#408 = VERTEX_POINT('',#409);
#409 = CARTESIAN_POINT('',(1.01E+03,-50.7467331213,-21.28069130914));
#410 = SURFACE_CURVE('',#411,(#415,#422),.PCURVE_S1.);
#411 = LINE('',#412,#413);
#412 = CARTESIAN_POINT('',(1.01E+03,-75.,74.));
#413 = VECTOR('',#414,1.);
#414 = DIRECTION('',(0.,0.246679280635,-0.969097173923));
#415 = PCURVE('',#335,#416);
#416 = DEFINITIONAL_REPRESENTATION('',(#417),#421);
#417 = LINE('',#418,#419);
#418 = CARTESIAN_POINT('',(52.893048238558,-183.7483191113));
#419 = VECTOR('',#420,1.);
#420 = DIRECTION('',(-1.,-6.938893903907E-18));
#421 = ( GEOMETRIC_REPRESENTATION_CONTEXT(2) 
PARAMETRIC_REPRESENTATION_CONTEXT() REPRESENTATION_CONTEXT('2D SPACE',''
  ) );
#422 = PCURVE('',#423,#428);
#423 = B_SPLINE_SURFACE_WITH_KNOTS('',1,1,(
    (#424,#425)
    ,(#426,#427
    )),.UNSPECIFIED.,.F.,.F.,.F.,(2,2),(2,2),(-76.,57.831836470292),(0.,
    1.),.PIECEWISE_BEZIER_KNOTS.);
#424 = CARTESIAN_POINT('',(760.,-86.,-76.));
#425 = CARTESIAN_POINT('',(1.01E+03,-50.7467331213,-21.28069130914));
#426 = CARTESIAN_POINT('',(760.,-86.,57.831836470292));
#427 = CARTESIAN_POINT('',(1.01E+03,-75.,74.));
#428 = DEFINITIONAL_REPRESENTATION('',(#429),#432);
#429 = B_SPLINE_CURVE_WITH_KNOTS('',1,(#430,#431),.UNSPECIFIED.,.F.,.F.,
  (2,2),(0.,98.319027103802),.PIECEWISE_BEZIER_KNOTS.);
#430 = CARTESIAN_POINT('',(57.831836470292,1.));
#431 = CARTESIAN_POINT('',(-76.,1.));
#432 = ( GEOMETRIC_REPRESENTATION_CONTEXT(2) 
PARAMETRIC_REPRESENTATION_CONTEXT() REPRESENTATION_CONTEXT('2D SPACE',''
  ) );
#433 = ORIENTED_EDGE('',*,*,#434,.T.);
#434 = EDGE_CURVE('',#408,#192,#435,.T.);
#435 = SURFACE_CURVE('',#436,(#440,#447),.PCURVE_S1.);
#436 = LINE('',#437,#438);
#437 = CARTESIAN_POINT('',(1.01E+03,-75.,74.));
#438 = VECTOR('',#439,1.);
#439 = DIRECTION('',(0.,0.246679280635,-0.969097173923));
#440 = PCURVE('',#335,#441);
#441 = DEFINITIONAL_REPRESENTATION('',(#442),#446);
#442 = LINE('',#443,#444);
#443 = CARTESIAN_POINT('',(52.893048238558,-183.7483191113));
#444 = VECTOR('',#445,1.);
#445 = DIRECTION('',(-1.,-6.938893903907E-18));
#446 = ( GEOMETRIC_REPRESENTATION_CONTEXT(2) 
PARAMETRIC_REPRESENTATION_CONTEXT() REPRESENTATION_CONTEXT('2D SPACE',''
  ) );
#447 = PCURVE('',#206,#448);
#448 = DEFINITIONAL_REPRESENTATION('',(#449),#453);
#449 = LINE('',#450,#451);
#450 = CARTESIAN_POINT('',(0.,1.));
#451 = VECTOR('',#452,1.);
#452 = DIRECTION('',(-1.,0.));
#453 = ( GEOMETRIC_REPRESENTATION_CONTEXT(2) 
PARAMETRIC_REPRESENTATION_CONTEXT() REPRESENTATION_CONTEXT('2D SPACE',''
  ) );
#454 = ADVANCED_FACE('',(#455),#395,.F.);
#455 = FACE_BOUND('',#456,.F.);
#456 = EDGE_LOOP('',(#457,#485,#512,#533));
#457 = ORIENTED_EDGE('',*,*,#458,.F.);
#458 = EDGE_CURVE('',#459,#380,#461,.T.);
#459 = VERTEX_POINT('',#460);
#460 = CARTESIAN_POINT('',(1.01E+03,75.,74.));
#461 = SURFACE_CURVE('',#462,(#466,#473),.PCURVE_S1.);
#462 = LINE('',#463,#464);
#463 = CARTESIAN_POINT('',(1.01E+03,75.,74.));
#464 = VECTOR('',#465,1.);
#465 = DIRECTION('',(0.,-1.,0.));
#466 = PCURVE('',#395,#467);
#467 = DEFINITIONAL_REPRESENTATION('',(#468),#472);
#468 = LINE('',#469,#470);
#469 = CARTESIAN_POINT('',(179.13452098603,75.));
#470 = VECTOR('',#471,1.);
#471 = DIRECTION('',(0.,-1.));
#472 = ( GEOMETRIC_REPRESENTATION_CONTEXT(2) 
PARAMETRIC_REPRESENTATION_CONTEXT() REPRESENTATION_CONTEXT('2D SPACE',''
  ) );
#473 = PCURVE('',#474,#479);
#474 = PLANE('',#475);
#475 = AXIS2_PLACEMENT_3D('',#476,#477,#478);
#476 = CARTESIAN_POINT('',(884.68850444234,0.,80.014951786768));
#477 = DIRECTION('',(-4.79447993684E-02,0.,-0.998849986842));
#478 = DIRECTION('',(-0.998849986842,0.,4.79447993684E-02));
#479 = DEFINITIONAL_REPRESENTATION('',(#480),#484);
#480 = LINE('',#481,#482);
#481 = CARTESIAN_POINT('',(-125.4557713454,75.));
#482 = VECTOR('',#483,1.);
#483 = DIRECTION('',(0.,-1.));
#484 = ( GEOMETRIC_REPRESENTATION_CONTEXT(2) 
PARAMETRIC_REPRESENTATION_CONTEXT() REPRESENTATION_CONTEXT('2D SPACE',''
  ) );
#485 = ORIENTED_EDGE('',*,*,#486,.T.);
#486 = EDGE_CURVE('',#459,#487,#489,.T.);
#487 = VERTEX_POINT('',#488);
#488 = CARTESIAN_POINT('',(1.396309822356E+03,11.548263350288,
    43.987983213104));
#489 = SURFACE_CURVE('',#490,(#494,#501),.PCURVE_S1.);
#490 = LINE('',#491,#492);
#491 = CARTESIAN_POINT('',(1.01E+03,75.,74.));
#492 = VECTOR('',#493,1.);
#493 = DIRECTION('',(0.983890822609,-0.161604954768,-7.643747628407E-02)
  );
#494 = PCURVE('',#395,#495);
#495 = DEFINITIONAL_REPRESENTATION('',(#496),#500);
#496 = LINE('',#497,#498);
#497 = CARTESIAN_POINT('',(179.13452098603,75.));
#498 = VECTOR('',#499,1.);
#499 = DIRECTION('',(-0.986855530761,-0.161604954768));
#500 = ( GEOMETRIC_REPRESENTATION_CONTEXT(2) 
PARAMETRIC_REPRESENTATION_CONTEXT() REPRESENTATION_CONTEXT('2D SPACE',''
  ) );
#501 = PCURVE('',#502,#507);
#502 = PLANE('',#503);
#503 = AXIS2_PLACEMENT_3D('',#504,#505,#506);
#504 = CARTESIAN_POINT('',(1.191973360871E+03,37.261490603801,
    29.026450327948));
#505 = DIRECTION('',(-0.138658356422,-0.959735961679,0.244296426609));
#506 = DIRECTION('',(2.775557561563E-17,-0.246679280635,-0.969097173923)
  );
#507 = DEFINITIONAL_REPRESENTATION('',(#508),#511);
#508 = B_SPLINE_CURVE_WITH_KNOTS('',1,(#509,#510),.UNSPECIFIED.,.F.,.F.,
  (2,2),(0.,419.77422922044),.PIECEWISE_BEZIER_KNOTS.);
#509 = CARTESIAN_POINT('',(-52.89304823855,-183.7483191113));
#510 = CARTESIAN_POINT('',(-5.063999326854,233.29218923022));
#511 = ( GEOMETRIC_REPRESENTATION_CONTEXT(2) 
PARAMETRIC_REPRESENTATION_CONTEXT() REPRESENTATION_CONTEXT('2D SPACE',''
  ) );
#512 = ORIENTED_EDGE('',*,*,#513,.T.);
#513 = EDGE_CURVE('',#487,#353,#514,.T.);
#514 = SURFACE_CURVE('',#515,(#519,#526),.PCURVE_S1.);
#515 = LINE('',#516,#517);
#516 = CARTESIAN_POINT('',(1.396309822356E+03,11.548263350288,
    43.987983213104));
#517 = VECTOR('',#518,1.);
#518 = DIRECTION('',(0.,-1.,0.));
#519 = PCURVE('',#395,#520);
#520 = DEFINITIONAL_REPRESENTATION('',(#521),#525);
#521 = LINE('',#522,#523);
#522 = CARTESIAN_POINT('',(-208.3393491007,11.548263350288));
#523 = VECTOR('',#524,1.);
#524 = DIRECTION('',(0.,-1.));
#525 = ( GEOMETRIC_REPRESENTATION_CONTEXT(2) 
PARAMETRIC_REPRESENTATION_CONTEXT() REPRESENTATION_CONTEXT('2D SPACE',''
  ) );
#526 = PCURVE('',#306,#527);
#527 = DEFINITIONAL_REPRESENTATION('',(#528),#532);
#528 = LINE('',#529,#530);
#529 = CARTESIAN_POINT('',(0.,-4.385858676268));
#530 = VECTOR('',#531,1.);
#531 = DIRECTION('',(0.,1.));
#532 = ( GEOMETRIC_REPRESENTATION_CONTEXT(2) 
PARAMETRIC_REPRESENTATION_CONTEXT() REPRESENTATION_CONTEXT('2D SPACE',''
  ) );
#533 = ORIENTED_EDGE('',*,*,#379,.F.);
#534 = ADVANCED_FACE('',(#535),#502,.F.);
#535 = FACE_BOUND('',#536,.F.);
#536 = EDGE_LOOP('',(#537,#559,#588,#589,#616));
#537 = ORIENTED_EDGE('',*,*,#538,.T.);
#538 = EDGE_CURVE('',#74,#539,#541,.T.);
#539 = VERTEX_POINT('',#540);
#540 = CARTESIAN_POINT('',(1.399030741822E+03,9.475548354244,
    37.389520348794));
#541 = SURFACE_CURVE('',#542,(#546,#553),.PCURVE_S1.);
#542 = LINE('',#543,#544);
#543 = CARTESIAN_POINT('',(1.01E+03,47.,-36.));
#544 = VECTOR('',#545,1.);
#545 = DIRECTION('',(0.978282745984,-9.436149808021E-02,0.18455020073));
#546 = PCURVE('',#502,#547);
#547 = DEFINITIONAL_REPRESENTATION('',(#548),#552);
#548 = LINE('',#549,#550);
#549 = CARTESIAN_POINT('',(60.614660750744,-183.7483191113));
#550 = VECTOR('',#551,1.);
#551 = DIRECTION('',(-0.155570051508,0.987824862551));
#552 = ( GEOMETRIC_REPRESENTATION_CONTEXT(2) 
PARAMETRIC_REPRESENTATION_CONTEXT() REPRESENTATION_CONTEXT('2D SPACE',''
  ) );
#553 = PCURVE('',#129,#554);
#554 = DEFINITIONAL_REPRESENTATION('',(#555),#558);
#555 = B_SPLINE_CURVE_WITH_KNOTS('',1,(#556,#557),.UNSPECIFIED.,.F.,.F.,
  (2,2),(0.,422.18061536196),.PIECEWISE_BEZIER_KNOTS.);
#556 = CARTESIAN_POINT('',(20.477809086478,199.37378695577));
#557 = CARTESIAN_POINT('',(4.540513029026,-222.505905115));
#558 = ( GEOMETRIC_REPRESENTATION_CONTEXT(2) 
PARAMETRIC_REPRESENTATION_CONTEXT() REPRESENTATION_CONTEXT('2D SPACE',''
  ) );
#559 = ORIENTED_EDGE('',*,*,#560,.F.);
#560 = EDGE_CURVE('',#487,#539,#561,.T.);
#561 = SURFACE_CURVE('',#562,(#567,#578),.PCURVE_S1.);
#562 = ELLIPSE('',#563,4.167812981605,4.);
#563 = AXIS2_PLACEMENT_3D('',#564,#565,#566);
#564 = CARTESIAN_POINT('',(1.396E+03,10.577902097902,40.));
#565 = DIRECTION('',(0.138658356422,0.959735961679,-0.244296426609));
#566 = DIRECTION('',(0.473740342703,-0.280903691431,-0.834663527318));
#567 = PCURVE('',#502,#568);
#568 = DEFINITIONAL_REPRESENTATION('',(#569),#577);
#569 = ( BOUNDED_CURVE() B_SPLINE_CURVE(2,(#570,#571,#572,#573,#574,#575
,#576),.UNSPECIFIED.,.T.,.F.) B_SPLINE_CURVE_WITH_KNOTS((1,2,2,2,2,1),(
    -2.094395102393,0.,2.094395102393,4.188790204786,6.28318530718,
8.377580409573),.UNSPECIFIED.) CURVE() GEOMETRIC_REPRESENTATION_ITEM() 
RATIONAL_B_SPLINE_CURVE((1.,0.5,1.,0.5,1.,0.5,1.)) REPRESENTATION_ITEM(
  '') );
#570 = CARTESIAN_POINT('',(-0.392127630988,208.01042377985));
#571 = CARTESIAN_POINT('',(2.922055842752,201.92633075768));
#572 = CARTESIAN_POINT('',(-4.225065784179,201.97779736381));
#573 = CARTESIAN_POINT('',(-11.3721874111,202.02926396994));
#574 = CARTESIAN_POINT('',(-7.539249257918,208.06189038598));
#575 = CARTESIAN_POINT('',(-3.706311104728,214.09451680202));
#576 = CARTESIAN_POINT('',(-0.392127630988,208.01042377985));
#577 = ( GEOMETRIC_REPRESENTATION_CONTEXT(2) 
PARAMETRIC_REPRESENTATION_CONTEXT() REPRESENTATION_CONTEXT('2D SPACE',''
  ) );
#578 = PCURVE('',#306,#579);
#579 = DEFINITIONAL_REPRESENTATION('',(#580),#587);
#580 = B_SPLINE_CURVE_WITH_KNOTS('',5,(#581,#582,#583,#584,#585,#586),
  .UNSPECIFIED.,.F.,.F.,(6,6),(3.735367802151,5.939667976673),
  .PIECEWISE_BEZIER_KNOTS.);
#581 = CARTESIAN_POINT('',(5.684341886081E-14,-4.385858676268));
#582 = CARTESIAN_POINT('',(-0.440860034904,-4.097082198743));
#583 = CARTESIAN_POINT('',(-0.881717121318,-3.572561831488));
#584 = CARTESIAN_POINT('',(-1.322585816718,-2.927670758294));
#585 = CARTESIAN_POINT('',(-1.763440139618,-2.486979702246));
#586 = CARTESIAN_POINT('',(-2.204300174522,-2.313143680224));
#587 = ( GEOMETRIC_REPRESENTATION_CONTEXT(2) 
PARAMETRIC_REPRESENTATION_CONTEXT() REPRESENTATION_CONTEXT('2D SPACE',''
  ) );
#588 = ORIENTED_EDGE('',*,*,#486,.F.);
#589 = ORIENTED_EDGE('',*,*,#590,.T.);
#590 = EDGE_CURVE('',#459,#591,#593,.T.);
#591 = VERTEX_POINT('',#592);
#592 = CARTESIAN_POINT('',(1.01E+03,50.746733121308,-21.28069130914));
#593 = SURFACE_CURVE('',#594,(#598,#605),.PCURVE_S1.);
#594 = LINE('',#595,#596);
#595 = CARTESIAN_POINT('',(1.01E+03,75.,74.));
#596 = VECTOR('',#597,1.);
#597 = DIRECTION('',(0.,-0.246679280635,-0.969097173923));
#598 = PCURVE('',#502,#599);
#599 = DEFINITIONAL_REPRESENTATION('',(#600),#604);
#600 = LINE('',#601,#602);
#601 = CARTESIAN_POINT('',(-52.89304823855,-183.7483191113));
#602 = VECTOR('',#603,1.);
#603 = DIRECTION('',(1.,0.));
#604 = ( GEOMETRIC_REPRESENTATION_CONTEXT(2) 
PARAMETRIC_REPRESENTATION_CONTEXT() REPRESENTATION_CONTEXT('2D SPACE',''
  ) );
#605 = PCURVE('',#606,#611);
#606 = B_SPLINE_SURFACE_WITH_KNOTS('',1,1,(
    (#607,#608)
    ,(#609,#610
    )),.UNSPECIFIED.,.F.,.F.,.F.,(2,2),(2,2),(-76.,57.831836470292),(0.,
    1.),.PIECEWISE_BEZIER_KNOTS.);
#607 = CARTESIAN_POINT('',(760.,86.000000000002,-76.));
#608 = CARTESIAN_POINT('',(1.01E+03,50.746733121308,-21.28069130914));
#609 = CARTESIAN_POINT('',(760.,86.000000000002,57.831836470292));
#610 = CARTESIAN_POINT('',(1.01E+03,75.,74.));
#611 = DEFINITIONAL_REPRESENTATION('',(#612),#615);
#612 = B_SPLINE_CURVE_WITH_KNOTS('',1,(#613,#614),.UNSPECIFIED.,.F.,.F.,
  (2,2),(0.,98.319027103802),.PIECEWISE_BEZIER_KNOTS.);
#613 = CARTESIAN_POINT('',(57.831836470292,1.));
#614 = CARTESIAN_POINT('',(-76.,1.));
#615 = ( GEOMETRIC_REPRESENTATION_CONTEXT(2) 
PARAMETRIC_REPRESENTATION_CONTEXT() REPRESENTATION_CONTEXT('2D SPACE',''
  ) );
#616 = ORIENTED_EDGE('',*,*,#617,.T.);
#617 = EDGE_CURVE('',#591,#74,#618,.T.);
#618 = SURFACE_CURVE('',#619,(#623,#630),.PCURVE_S1.);
#619 = LINE('',#620,#621);
#620 = CARTESIAN_POINT('',(1.01E+03,75.,74.));
#621 = VECTOR('',#622,1.);
#622 = DIRECTION('',(0.,-0.246679280635,-0.969097173923));
#623 = PCURVE('',#502,#624);
#624 = DEFINITIONAL_REPRESENTATION('',(#625),#629);
#625 = LINE('',#626,#627);
#626 = CARTESIAN_POINT('',(-52.89304823855,-183.7483191113));
#627 = VECTOR('',#628,1.);
#628 = DIRECTION('',(1.,0.));
#629 = ( GEOMETRIC_REPRESENTATION_CONTEXT(2) 
PARAMETRIC_REPRESENTATION_CONTEXT() REPRESENTATION_CONTEXT('2D SPACE',''
  ) );
#630 = PCURVE('',#88,#631);
#631 = DEFINITIONAL_REPRESENTATION('',(#632),#636);
#632 = LINE('',#633,#634);
#633 = CARTESIAN_POINT('',(0.,1.));
#634 = VECTOR('',#635,1.);
#635 = DIRECTION('',(-1.,0.));
#636 = ( GEOMETRIC_REPRESENTATION_CONTEXT(2) 
PARAMETRIC_REPRESENTATION_CONTEXT() REPRESENTATION_CONTEXT('2D SPACE',''
  ) );
#637 = ADVANCED_FACE('',(#638),#606,.T.);
#638 = FACE_BOUND('',#639,.T.);
#639 = EDGE_LOOP('',(#640,#669,#693,#694));
#640 = ORIENTED_EDGE('',*,*,#641,.F.);
#641 = EDGE_CURVE('',#642,#644,#646,.T.);
#642 = VERTEX_POINT('',#643);
#643 = CARTESIAN_POINT('',(760.,86.000000000001,57.831836468522));
#644 = VERTEX_POINT('',#645);
#645 = CARTESIAN_POINT('',(760.,85.99999999094,-76.));
#646 = SURFACE_CURVE('',#647,(#651,#657),.PCURVE_S1.);
#647 = LINE('',#648,#649);
#648 = CARTESIAN_POINT('',(760.,86.000000000002,0.));
#649 = VECTOR('',#650,1.);
#650 = DIRECTION('',(1.110223024625E-16,0.,-1.));
#651 = PCURVE('',#606,#652);
#652 = DEFINITIONAL_REPRESENTATION('',(#653),#656);
#653 = B_SPLINE_CURVE_WITH_KNOTS('',1,(#654,#655),.UNSPECIFIED.,.F.,.F.,
  (2,2),(-57.83183647029,76.),.PIECEWISE_BEZIER_KNOTS.);
#654 = CARTESIAN_POINT('',(57.831836470292,0.));
#655 = CARTESIAN_POINT('',(-76.,0.));
#656 = ( GEOMETRIC_REPRESENTATION_CONTEXT(2) 
PARAMETRIC_REPRESENTATION_CONTEXT() REPRESENTATION_CONTEXT('2D SPACE',''
  ) );
#657 = PCURVE('',#658,#663);
#658 = PLANE('',#659);
#659 = AXIS2_PLACEMENT_3D('',#660,#661,#662);
#660 = CARTESIAN_POINT('',(760.,86.000000000002,0.));
#661 = DIRECTION('',(0.,1.,0.));
#662 = DIRECTION('',(-1.110223024625E-16,0.,1.));
#663 = DEFINITIONAL_REPRESENTATION('',(#664),#668);
#664 = LINE('',#665,#666);
#665 = CARTESIAN_POINT('',(0.,0.));
#666 = VECTOR('',#667,1.);
#667 = DIRECTION('',(-1.,0.));
#668 = ( GEOMETRIC_REPRESENTATION_CONTEXT(2) 
PARAMETRIC_REPRESENTATION_CONTEXT() REPRESENTATION_CONTEXT('2D SPACE',''
  ) );
#669 = ORIENTED_EDGE('',*,*,#670,.T.);
#670 = EDGE_CURVE('',#642,#459,#671,.T.);
#671 = SURFACE_CURVE('',#672,(#675,#682),.PCURVE_S1.);
#672 = B_SPLINE_CURVE_WITH_KNOTS('',1,(#673,#674),.UNSPECIFIED.,.F.,.F.,
  (2,2),(0.,1.),.PIECEWISE_BEZIER_KNOTS.);
#673 = CARTESIAN_POINT('',(760.,86.,57.831836466751));
#674 = CARTESIAN_POINT('',(1.01E+03,75.,74.));
#675 = PCURVE('',#606,#676);
#676 = DEFINITIONAL_REPRESENTATION('',(#677),#681);
#677 = LINE('',#678,#679);
#678 = CARTESIAN_POINT('',(57.831836470292,0.));
#679 = VECTOR('',#680,1.);
#680 = DIRECTION('',(0.,1.));
#681 = ( GEOMETRIC_REPRESENTATION_CONTEXT(2) 
PARAMETRIC_REPRESENTATION_CONTEXT() REPRESENTATION_CONTEXT('2D SPACE',''
  ) );
#682 = PCURVE('',#683,#688);
#683 = PLANE('',#684);
#684 = AXIS2_PLACEMENT_3D('',#685,#686,#687);
#685 = CARTESIAN_POINT('',(760.,86.,76.));
#686 = DIRECTION('',(-4.395746974398E-02,-0.999033403272,0.));
#687 = DIRECTION('',(0.,0.,-1.));
#688 = DEFINITIONAL_REPRESENTATION('',(#689),#692);
#689 = B_SPLINE_CURVE_WITH_KNOTS('',1,(#690,#691),.UNSPECIFIED.,.F.,.F.,
  (2,2),(0.,1.),.PIECEWISE_BEZIER_KNOTS.);
#690 = CARTESIAN_POINT('',(18.168163533249,0.));
#691 = CARTESIAN_POINT('',(2.,250.24188298524));
#692 = ( GEOMETRIC_REPRESENTATION_CONTEXT(2) 
PARAMETRIC_REPRESENTATION_CONTEXT() REPRESENTATION_CONTEXT('2D SPACE',''
  ) );
#693 = ORIENTED_EDGE('',*,*,#590,.T.);
#694 = ORIENTED_EDGE('',*,*,#695,.F.);
#695 = EDGE_CURVE('',#644,#591,#696,.T.);
#696 = SURFACE_CURVE('',#697,(#700,#707),.PCURVE_S1.);
#697 = B_SPLINE_CURVE_WITH_KNOTS('',1,(#698,#699),.UNSPECIFIED.,.F.,.F.,
  (2,2),(0.,1.),.PIECEWISE_BEZIER_KNOTS.);
#698 = CARTESIAN_POINT('',(760.,85.999999981879,-76.));
#699 = CARTESIAN_POINT('',(1.01E+03,50.746733121308,-21.28069130914));
#700 = PCURVE('',#606,#701);
#701 = DEFINITIONAL_REPRESENTATION('',(#702),#706);
#702 = LINE('',#703,#704);
#703 = CARTESIAN_POINT('',(-76.,0.));
#704 = VECTOR('',#705,1.);
#705 = DIRECTION('',(0.,1.));
#706 = ( GEOMETRIC_REPRESENTATION_CONTEXT(2) 
PARAMETRIC_REPRESENTATION_CONTEXT() REPRESENTATION_CONTEXT('2D SPACE',''
  ) );
#707 = PCURVE('',#88,#708);
#708 = DEFINITIONAL_REPRESENTATION('',(#709),#713);
#709 = LINE('',#710,#711);
#710 = CARTESIAN_POINT('',(-98.3190271038,0.));
#711 = VECTOR('',#712,1.);
#712 = DIRECTION('',(0.,1.));
#713 = ( GEOMETRIC_REPRESENTATION_CONTEXT(2) 
PARAMETRIC_REPRESENTATION_CONTEXT() REPRESENTATION_CONTEXT('2D SPACE',''
  ) );
#714 = ADVANCED_FACE('',(#715),#683,.F.);
#715 = FACE_BOUND('',#716,.F.);
#716 = EDGE_LOOP('',(#717,#739,#740));
#717 = ORIENTED_EDGE('',*,*,#718,.T.);
#718 = EDGE_CURVE('',#719,#642,#721,.T.);
#719 = VERTEX_POINT('',#720);
#720 = CARTESIAN_POINT('',(760.,85.99999999094,76.));
#721 = SURFACE_CURVE('',#722,(#726,#733),.PCURVE_S1.);
#722 = LINE('',#723,#724);
#723 = CARTESIAN_POINT('',(760.,86.,76.));
#724 = VECTOR('',#725,1.);
#725 = DIRECTION('',(0.,0.,-1.));
#726 = PCURVE('',#683,#727);
#727 = DEFINITIONAL_REPRESENTATION('',(#728),#732);
#728 = LINE('',#729,#730);
#729 = CARTESIAN_POINT('',(0.,0.));
#730 = VECTOR('',#731,1.);
#731 = DIRECTION('',(1.,0.));
#732 = ( GEOMETRIC_REPRESENTATION_CONTEXT(2) 
PARAMETRIC_REPRESENTATION_CONTEXT() REPRESENTATION_CONTEXT('2D SPACE',''
  ) );
#733 = PCURVE('',#658,#734);
#734 = DEFINITIONAL_REPRESENTATION('',(#735),#738);
#735 = B_SPLINE_CURVE_WITH_KNOTS('',1,(#736,#737),.UNSPECIFIED.,.F.,.F.,
  (2,2),(0.,18.168163533249),.PIECEWISE_BEZIER_KNOTS.);
#736 = CARTESIAN_POINT('',(76.,0.));
#737 = CARTESIAN_POINT('',(57.831836470292,0.));
#738 = ( GEOMETRIC_REPRESENTATION_CONTEXT(2) 
PARAMETRIC_REPRESENTATION_CONTEXT() REPRESENTATION_CONTEXT('2D SPACE',''
  ) );
#739 = ORIENTED_EDGE('',*,*,#670,.T.);
#740 = ORIENTED_EDGE('',*,*,#741,.F.);
#741 = EDGE_CURVE('',#719,#459,#742,.T.);
#742 = SURFACE_CURVE('',#743,(#746,#752),.PCURVE_S1.);
#743 = B_SPLINE_CURVE_WITH_KNOTS('',1,(#744,#745),.UNSPECIFIED.,.F.,.F.,
  (2,2),(0.,1.),.PIECEWISE_BEZIER_KNOTS.);
#744 = CARTESIAN_POINT('',(760.,86.,76.));
#745 = CARTESIAN_POINT('',(1.01E+03,75.,74.));
#746 = PCURVE('',#683,#747);
#747 = DEFINITIONAL_REPRESENTATION('',(#748),#751);
#748 = B_SPLINE_CURVE_WITH_KNOTS('',1,(#749,#750),.UNSPECIFIED.,.F.,.F.,
  (2,2),(0.,1.),.PIECEWISE_BEZIER_KNOTS.);
#749 = CARTESIAN_POINT('',(2.84217094304E-14,0.));
#750 = CARTESIAN_POINT('',(2.,250.24188298524));
#751 = ( GEOMETRIC_REPRESENTATION_CONTEXT(2) 
PARAMETRIC_REPRESENTATION_CONTEXT() REPRESENTATION_CONTEXT('2D SPACE',''
  ) );
#752 = PCURVE('',#753,#772);
#753 = B_SPLINE_SURFACE_WITH_KNOTS('',8,1,(
    (#754,#755)
    ,(#756,#757)
    ,(#758,#759)
    ,(#760,#761)
    ,(#762,#763)
    ,(#764,#765)
    ,(#766,#767)
    ,(#768,#769)
    ,(#770,#771
    )),.UNSPECIFIED.,.F.,.F.,.F.,(9,9),(2,2),(0.,1.570796326795),(0.,1.)
  ,.PIECEWISE_BEZIER_KNOTS.);
#754 = CARTESIAN_POINT('',(760.,76.,86.));
#755 = CARTESIAN_POINT('',(1.01E+03,75.,74.));
#756 = CARTESIAN_POINT('',(760.,77.963495408493,86.));
#757 = CARTESIAN_POINT('',(1.01E+03,75.,74.));
#758 = CARTESIAN_POINT('',(759.99999999999,79.926991435043,
    85.559392110387));
#759 = CARTESIAN_POINT('',(1.01E+03,75.,74.));
#760 = CARTESIAN_POINT('',(760.00000000002,81.775132343349,
    84.678180658715));
#761 = CARTESIAN_POINT('',(1.01E+03,75.,74.));
#762 = CARTESIAN_POINT('',(759.99999999997,83.392587557801,
    83.392587557797));
#763 = CARTESIAN_POINT('',(1.01E+03,75.,74.));
#764 = CARTESIAN_POINT('',(760.00000000002,84.678180658713,
    81.775132343352));
#765 = CARTESIAN_POINT('',(1.01E+03,75.,74.));
#766 = CARTESIAN_POINT('',(759.99999999998,85.559392110389,
    79.926991435041));
#767 = CARTESIAN_POINT('',(1.01E+03,75.,74.));
#768 = CARTESIAN_POINT('',(760.,86.,77.963495408494));
#769 = CARTESIAN_POINT('',(1.01E+03,75.,74.));
#770 = CARTESIAN_POINT('',(760.,86.,76.));
#771 = CARTESIAN_POINT('',(1.01E+03,75.,74.));
#772 = DEFINITIONAL_REPRESENTATION('',(#773),#777);
#773 = LINE('',#774,#775);
#774 = CARTESIAN_POINT('',(1.570796326795,0.));
#775 = VECTOR('',#776,1.);
#776 = DIRECTION('',(0.,1.));
#777 = ( GEOMETRIC_REPRESENTATION_CONTEXT(2) 
PARAMETRIC_REPRESENTATION_CONTEXT() REPRESENTATION_CONTEXT('2D SPACE',''
  ) );
#778 = ADVANCED_FACE('',(#779),#753,.F.);
#779 = FACE_BOUND('',#780,.F.);
#780 = EDGE_LOOP('',(#781,#810,#811));
#781 = ORIENTED_EDGE('',*,*,#782,.T.);
#782 = EDGE_CURVE('',#783,#719,#785,.T.);
#783 = VERTEX_POINT('',#784);
#784 = CARTESIAN_POINT('',(760.,75.999999990939,86.));
#785 = SURFACE_CURVE('',#786,(#791,#798),.PCURVE_S1.);
#786 = CIRCLE('',#787,10.);
#787 = AXIS2_PLACEMENT_3D('',#788,#789,#790);
#788 = CARTESIAN_POINT('',(760.,75.999999981879,76.));
#789 = DIRECTION('',(-1.,0.,-1.110223024625E-16));
#790 = DIRECTION('',(-1.110223024625E-16,0.,1.));
#791 = PCURVE('',#753,#792);
#792 = DEFINITIONAL_REPRESENTATION('',(#793),#797);
#793 = LINE('',#794,#795);
#794 = CARTESIAN_POINT('',(0.,0.));
#795 = VECTOR('',#796,1.);
#796 = DIRECTION('',(1.,0.));
#797 = ( GEOMETRIC_REPRESENTATION_CONTEXT(2) 
PARAMETRIC_REPRESENTATION_CONTEXT() REPRESENTATION_CONTEXT('2D SPACE',''
  ) );
#798 = PCURVE('',#799,#804);
#799 = CYLINDRICAL_SURFACE('',#800,10.);
#800 = AXIS2_PLACEMENT_3D('',#801,#802,#803);
#801 = CARTESIAN_POINT('',(-1.4E+03,75.999999981879,76.));
#802 = DIRECTION('',(1.,0.,1.110223024625E-16));
#803 = DIRECTION('',(-1.110223024625E-16,0.,1.));
#804 = DEFINITIONAL_REPRESENTATION('',(#805),#809);
#805 = LINE('',#806,#807);
#806 = CARTESIAN_POINT('',(6.28318530718,2.16E+03));
#807 = VECTOR('',#808,1.);
#808 = DIRECTION('',(-1.,0.));
#809 = ( GEOMETRIC_REPRESENTATION_CONTEXT(2) 
PARAMETRIC_REPRESENTATION_CONTEXT() REPRESENTATION_CONTEXT('2D SPACE',''
  ) );
#810 = ORIENTED_EDGE('',*,*,#741,.T.);
#811 = ORIENTED_EDGE('',*,*,#812,.F.);
#812 = EDGE_CURVE('',#783,#459,#813,.T.);
#813 = SURFACE_CURVE('',#814,(#818,#824),.PCURVE_S1.);
#814 = LINE('',#815,#816);
#815 = CARTESIAN_POINT('',(760.,76.,86.));
#816 = VECTOR('',#817,1.);
#817 = DIRECTION('',(0.998842014506,-3.995368058023E-03,
    -4.794441669627E-02));
#818 = PCURVE('',#753,#819);
#819 = DEFINITIONAL_REPRESENTATION('',(#820),#823);
#820 = B_SPLINE_CURVE_WITH_KNOTS('',1,(#821,#822),.UNSPECIFIED.,.F.,.F.,
  (2,2),(0.,250.28983199483),.PIECEWISE_BEZIER_KNOTS.);
#821 = CARTESIAN_POINT('',(0.,0.));
#822 = CARTESIAN_POINT('',(0.,1.));
#823 = ( GEOMETRIC_REPRESENTATION_CONTEXT(2) 
PARAMETRIC_REPRESENTATION_CONTEXT() REPRESENTATION_CONTEXT('2D SPACE',''
  ) );
#824 = PCURVE('',#474,#825);
#825 = DEFINITIONAL_REPRESENTATION('',(#826),#830);
#826 = LINE('',#827,#828);
#827 = CARTESIAN_POINT('',(124.83206295732,76.));
#828 = VECTOR('',#829,1.);
#829 = DIRECTION('',(-0.999992018485,-3.995368058023E-03));
#830 = ( GEOMETRIC_REPRESENTATION_CONTEXT(2) 
PARAMETRIC_REPRESENTATION_CONTEXT() REPRESENTATION_CONTEXT('2D SPACE',''
  ) );
#831 = ADVANCED_FACE('',(#832),#799,.T.);
#832 = FACE_BOUND('',#833,.T.);
#833 = EDGE_LOOP('',(#834,#865,#888,#889));
#834 = ORIENTED_EDGE('',*,*,#835,.F.);
#835 = EDGE_CURVE('',#836,#838,#840,.T.);
#836 = VERTEX_POINT('',#837);
#837 = CARTESIAN_POINT('',(-1.4E+03,75.999999981879,86.));
#838 = VERTEX_POINT('',#839);
#839 = CARTESIAN_POINT('',(-1.4E+03,85.99999999094,76.));
#840 = SURFACE_CURVE('',#841,(#846,#853),.PCURVE_S1.);
#841 = CIRCLE('',#842,10.);
#842 = AXIS2_PLACEMENT_3D('',#843,#844,#845);
#843 = CARTESIAN_POINT('',(-1.4E+03,75.999999981879,76.));
#844 = DIRECTION('',(-1.,0.,-1.110223024625E-16));
#845 = DIRECTION('',(-1.110223024625E-16,0.,1.));
#846 = PCURVE('',#799,#847);
#847 = DEFINITIONAL_REPRESENTATION('',(#848),#852);
#848 = LINE('',#849,#850);
#849 = CARTESIAN_POINT('',(6.28318530718,0.));
#850 = VECTOR('',#851,1.);
#851 = DIRECTION('',(-1.,0.));
#852 = ( GEOMETRIC_REPRESENTATION_CONTEXT(2) 
PARAMETRIC_REPRESENTATION_CONTEXT() REPRESENTATION_CONTEXT('2D SPACE',''
  ) );
#853 = PCURVE('',#854,#859);
#854 = PLANE('',#855);
#855 = AXIS2_PLACEMENT_3D('',#856,#857,#858);
#856 = CARTESIAN_POINT('',(-1.4E+03,-76.,76.));
#857 = DIRECTION('',(-1.,0.,-1.110223024625E-16));
#858 = DIRECTION('',(-1.110223024625E-16,0.,1.));
#859 = DEFINITIONAL_REPRESENTATION('',(#860),#864);
#860 = CIRCLE('',#861,10.);
#861 = AXIS2_PLACEMENT_2D('',#862,#863);
#862 = CARTESIAN_POINT('',(0.,151.99999998188));
#863 = DIRECTION('',(1.,0.));
#864 = ( GEOMETRIC_REPRESENTATION_CONTEXT(2) 
PARAMETRIC_REPRESENTATION_CONTEXT() REPRESENTATION_CONTEXT('2D SPACE',''
  ) );
#865 = ORIENTED_EDGE('',*,*,#866,.T.);
#866 = EDGE_CURVE('',#836,#783,#867,.T.);
#867 = SURFACE_CURVE('',#868,(#871,#877),.PCURVE_S1.);
#868 = B_SPLINE_CURVE_WITH_KNOTS('',1,(#869,#870),.UNSPECIFIED.,.F.,.F.,
  (2,2),(0.,1.),.PIECEWISE_BEZIER_KNOTS.);
#869 = CARTESIAN_POINT('',(-1.4E+03,75.999999981879,86.));
#870 = CARTESIAN_POINT('',(760.,75.999999981879,86.));
#871 = PCURVE('',#799,#872);
#872 = DEFINITIONAL_REPRESENTATION('',(#873),#876);
#873 = B_SPLINE_CURVE_WITH_KNOTS('',1,(#874,#875),.UNSPECIFIED.,.F.,.F.,
  (2,2),(0.,1.),.PIECEWISE_BEZIER_KNOTS.);
#874 = CARTESIAN_POINT('',(6.28318530718,0.));
#875 = CARTESIAN_POINT('',(6.28318530718,2.16E+03));
#876 = ( GEOMETRIC_REPRESENTATION_CONTEXT(2) 
PARAMETRIC_REPRESENTATION_CONTEXT() REPRESENTATION_CONTEXT('2D SPACE',''
  ) );
#877 = PCURVE('',#878,#883);
#878 = PLANE('',#879);
#879 = AXIS2_PLACEMENT_3D('',#880,#881,#882);
#880 = CARTESIAN_POINT('',(760.,2.181366198784E-12,86.));
#881 = DIRECTION('',(0.,0.,1.));
#882 = DIRECTION('',(0.,-1.,0.));
#883 = DEFINITIONAL_REPRESENTATION('',(#884),#887);
#884 = B_SPLINE_CURVE_WITH_KNOTS('',1,(#885,#886),.UNSPECIFIED.,.F.,.F.,
  (2,2),(0.,1.),.PIECEWISE_BEZIER_KNOTS.);
#885 = CARTESIAN_POINT('',(-75.99999998187,-2.16E+03));
#886 = CARTESIAN_POINT('',(-75.99999998187,0.));
#887 = ( GEOMETRIC_REPRESENTATION_CONTEXT(2) 
PARAMETRIC_REPRESENTATION_CONTEXT() REPRESENTATION_CONTEXT('2D SPACE',''
  ) );
#888 = ORIENTED_EDGE('',*,*,#782,.T.);
#889 = ORIENTED_EDGE('',*,*,#890,.F.);
#890 = EDGE_CURVE('',#838,#719,#891,.T.);
#891 = SURFACE_CURVE('',#892,(#895,#901),.PCURVE_S1.);
#892 = B_SPLINE_CURVE_WITH_KNOTS('',1,(#893,#894),.UNSPECIFIED.,.F.,.F.,
  (2,2),(0.,1.),.PIECEWISE_BEZIER_KNOTS.);
#893 = CARTESIAN_POINT('',(-1.4E+03,85.99999999094,76.));
#894 = CARTESIAN_POINT('',(760.,85.99999999094,76.));
#895 = PCURVE('',#799,#896);
#896 = DEFINITIONAL_REPRESENTATION('',(#897),#900);
#897 = B_SPLINE_CURVE_WITH_KNOTS('',1,(#898,#899),.UNSPECIFIED.,.F.,.F.,
  (2,2),(0.,1.),.PIECEWISE_BEZIER_KNOTS.);
#898 = CARTESIAN_POINT('',(4.712388980385,0.));
#899 = CARTESIAN_POINT('',(4.712388980385,2.16E+03));
#900 = ( GEOMETRIC_REPRESENTATION_CONTEXT(2) 
PARAMETRIC_REPRESENTATION_CONTEXT() REPRESENTATION_CONTEXT('2D SPACE',''
  ) );
#901 = PCURVE('',#658,#902);
#902 = DEFINITIONAL_REPRESENTATION('',(#903),#906);
#903 = B_SPLINE_CURVE_WITH_KNOTS('',1,(#904,#905),.UNSPECIFIED.,.F.,.F.,
  (2,2),(0.,1.),.PIECEWISE_BEZIER_KNOTS.);
#904 = CARTESIAN_POINT('',(76.,-2.16E+03));
#905 = CARTESIAN_POINT('',(76.,0.));
#906 = ( GEOMETRIC_REPRESENTATION_CONTEXT(2) 
PARAMETRIC_REPRESENTATION_CONTEXT() REPRESENTATION_CONTEXT('2D SPACE',''
  ) );
#907 = ADVANCED_FACE('',(#908),#878,.T.);
#908 = FACE_BOUND('',#909,.T.);
#909 = EDGE_LOOP('',(#910,#933,#958,#979));
#910 = ORIENTED_EDGE('',*,*,#911,.F.);
#911 = EDGE_CURVE('',#912,#836,#914,.T.);
#912 = VERTEX_POINT('',#913);
#913 = CARTESIAN_POINT('',(-1.4E+03,-75.99999998187,86.));
#914 = SURFACE_CURVE('',#915,(#919,#926),.PCURVE_S1.);
#915 = LINE('',#916,#917);
#916 = CARTESIAN_POINT('',(-1.4E+03,-75.99999998187,86.));
#917 = VECTOR('',#918,1.);
#918 = DIRECTION('',(0.,1.,0.));
#919 = PCURVE('',#878,#920);
#920 = DEFINITIONAL_REPRESENTATION('',(#921),#925);
#921 = LINE('',#922,#923);
#922 = CARTESIAN_POINT('',(75.999999981881,-2.16E+03));
#923 = VECTOR('',#924,1.);
#924 = DIRECTION('',(-1.,0.));
#925 = ( GEOMETRIC_REPRESENTATION_CONTEXT(2) 
PARAMETRIC_REPRESENTATION_CONTEXT() REPRESENTATION_CONTEXT('2D SPACE',''
  ) );
#926 = PCURVE('',#854,#927);
#927 = DEFINITIONAL_REPRESENTATION('',(#928),#932);
#928 = LINE('',#929,#930);
#929 = CARTESIAN_POINT('',(10.,1.812361460907E-08));
#930 = VECTOR('',#931,1.);
#931 = DIRECTION('',(0.,1.));
#932 = ( GEOMETRIC_REPRESENTATION_CONTEXT(2) 
PARAMETRIC_REPRESENTATION_CONTEXT() REPRESENTATION_CONTEXT('2D SPACE',''
  ) );
#933 = ORIENTED_EDGE('',*,*,#934,.T.);
#934 = EDGE_CURVE('',#912,#935,#937,.T.);
#935 = VERTEX_POINT('',#936);
#936 = CARTESIAN_POINT('',(760.,-75.99999999093,86.));
#937 = SURFACE_CURVE('',#938,(#941,#947),.PCURVE_S1.);
#938 = B_SPLINE_CURVE_WITH_KNOTS('',1,(#939,#940),.UNSPECIFIED.,.F.,.F.,
  (2,2),(0.,1.),.PIECEWISE_BEZIER_KNOTS.);
#939 = CARTESIAN_POINT('',(-1.4E+03,-75.99999998187,86.));
#940 = CARTESIAN_POINT('',(760.,-75.99999998187,86.));
#941 = PCURVE('',#878,#942);
#942 = DEFINITIONAL_REPRESENTATION('',(#943),#946);
#943 = B_SPLINE_CURVE_WITH_KNOTS('',1,(#944,#945),.UNSPECIFIED.,.F.,.F.,
  (2,2),(0.,1.),.PIECEWISE_BEZIER_KNOTS.);
#944 = CARTESIAN_POINT('',(75.999999981881,-2.16E+03));
#945 = CARTESIAN_POINT('',(75.999999981881,0.));
#946 = ( GEOMETRIC_REPRESENTATION_CONTEXT(2) 
PARAMETRIC_REPRESENTATION_CONTEXT() REPRESENTATION_CONTEXT('2D SPACE',''
  ) );
#947 = PCURVE('',#948,#953);
#948 = CYLINDRICAL_SURFACE('',#949,10.);
#949 = AXIS2_PLACEMENT_3D('',#950,#951,#952);
#950 = CARTESIAN_POINT('',(-1.4E+03,-75.99999998187,76.));
#951 = DIRECTION('',(1.,0.,1.110223024625E-16));
#952 = DIRECTION('',(-1.110223024625E-16,0.,1.));
#953 = DEFINITIONAL_REPRESENTATION('',(#954),#957);
#954 = B_SPLINE_CURVE_WITH_KNOTS('',1,(#955,#956),.UNSPECIFIED.,.F.,.F.,
  (2,2),(0.,1.),.PIECEWISE_BEZIER_KNOTS.);
#955 = CARTESIAN_POINT('',(-6.28318530718,0.));
#956 = CARTESIAN_POINT('',(-6.28318530718,2.16E+03));
#957 = ( GEOMETRIC_REPRESENTATION_CONTEXT(2) 
PARAMETRIC_REPRESENTATION_CONTEXT() REPRESENTATION_CONTEXT('2D SPACE',''
  ) );
#958 = ORIENTED_EDGE('',*,*,#959,.T.);
#959 = EDGE_CURVE('',#935,#783,#960,.T.);
#960 = SURFACE_CURVE('',#961,(#965,#972),.PCURVE_S1.);
#961 = LINE('',#962,#963);
#962 = CARTESIAN_POINT('',(760.,-75.99999999093,86.));
#963 = VECTOR('',#964,1.);
#964 = DIRECTION('',(0.,1.,0.));
#965 = PCURVE('',#878,#966);
#966 = DEFINITIONAL_REPRESENTATION('',(#967),#971);
#967 = LINE('',#968,#969);
#968 = CARTESIAN_POINT('',(75.999999990941,0.));
#969 = VECTOR('',#970,1.);
#970 = DIRECTION('',(-1.,0.));
#971 = ( GEOMETRIC_REPRESENTATION_CONTEXT(2) 
PARAMETRIC_REPRESENTATION_CONTEXT() REPRESENTATION_CONTEXT('2D SPACE',''
  ) );
#972 = PCURVE('',#474,#973);
#973 = DEFINITIONAL_REPRESENTATION('',(#974),#978);
#974 = LINE('',#975,#976);
#975 = CARTESIAN_POINT('',(124.83206295732,-75.99999999093));
#976 = VECTOR('',#977,1.);
#977 = DIRECTION('',(0.,1.));
#978 = ( GEOMETRIC_REPRESENTATION_CONTEXT(2) 
PARAMETRIC_REPRESENTATION_CONTEXT() REPRESENTATION_CONTEXT('2D SPACE',''
  ) );
#979 = ORIENTED_EDGE('',*,*,#866,.F.);
#980 = ADVANCED_FACE('',(#981),#948,.T.);
#981 = FACE_BOUND('',#982,.F.);
#982 = EDGE_LOOP('',(#983,#1011,#1012,#1055));
#983 = ORIENTED_EDGE('',*,*,#984,.F.);
#984 = EDGE_CURVE('',#912,#985,#987,.T.);
#985 = VERTEX_POINT('',#986);
#986 = CARTESIAN_POINT('',(-1.4E+03,-85.99999999094,76.));
#987 = SURFACE_CURVE('',#988,(#993,#1000),.PCURVE_S1.);
#988 = CIRCLE('',#989,10.);
#989 = AXIS2_PLACEMENT_3D('',#990,#991,#992);
#990 = CARTESIAN_POINT('',(-1.4E+03,-75.99999998187,76.));
#991 = DIRECTION('',(1.,0.,1.110223024625E-16));
#992 = DIRECTION('',(-1.110223024625E-16,0.,1.));
#993 = PCURVE('',#948,#994);
#994 = DEFINITIONAL_REPRESENTATION('',(#995),#999);
#995 = LINE('',#996,#997);
#996 = CARTESIAN_POINT('',(-6.28318530718,0.));
#997 = VECTOR('',#998,1.);
#998 = DIRECTION('',(1.,0.));
#999 = ( GEOMETRIC_REPRESENTATION_CONTEXT(2) 
PARAMETRIC_REPRESENTATION_CONTEXT() REPRESENTATION_CONTEXT('2D SPACE',''
  ) );
#1000 = PCURVE('',#854,#1001);
#1001 = DEFINITIONAL_REPRESENTATION('',(#1002),#1010);
#1002 = ( BOUNDED_CURVE() B_SPLINE_CURVE(2,(#1003,#1004,#1005,#1006,
#1007,#1008,#1009),.UNSPECIFIED.,.T.,.F.) B_SPLINE_CURVE_WITH_KNOTS((1,2
    ,2,2,2,1),(-2.094395102393,0.,2.094395102393,4.188790204786,
6.28318530718,8.377580409573),.UNSPECIFIED.) CURVE() 
GEOMETRIC_REPRESENTATION_ITEM() RATIONAL_B_SPLINE_CURVE((1.,0.5,1.,0.5,
1.,0.5,1.)) REPRESENTATION_ITEM('') );
#1003 = CARTESIAN_POINT('',(10.,1.812361460907E-08));
#1004 = CARTESIAN_POINT('',(10.,-17.32050805756));
#1005 = CARTESIAN_POINT('',(-5.,-8.660254019721));
#1006 = CARTESIAN_POINT('',(-20.,1.812361215977E-08));
#1007 = CARTESIAN_POINT('',(-5.,8.660254055968));
#1008 = CARTESIAN_POINT('',(10.,17.320508093812));
#1009 = CARTESIAN_POINT('',(10.,1.812361460907E-08));
#1010 = ( GEOMETRIC_REPRESENTATION_CONTEXT(2) 
PARAMETRIC_REPRESENTATION_CONTEXT() REPRESENTATION_CONTEXT('2D SPACE',''
  ) );
#1011 = ORIENTED_EDGE('',*,*,#934,.T.);
#1012 = ORIENTED_EDGE('',*,*,#1013,.T.);
#1013 = EDGE_CURVE('',#935,#1014,#1016,.T.);
#1014 = VERTEX_POINT('',#1015);
#1015 = CARTESIAN_POINT('',(760.,-85.99999999094,76.));
#1016 = SURFACE_CURVE('',#1017,(#1022,#1029),.PCURVE_S1.);
#1017 = CIRCLE('',#1018,10.);
#1018 = AXIS2_PLACEMENT_3D('',#1019,#1020,#1021);
#1019 = CARTESIAN_POINT('',(760.,-75.99999998187,76.));
#1020 = DIRECTION('',(1.,0.,1.110223024625E-16));
#1021 = DIRECTION('',(-1.110223024625E-16,0.,1.));
#1022 = PCURVE('',#948,#1023);
#1023 = DEFINITIONAL_REPRESENTATION('',(#1024),#1028);
#1024 = LINE('',#1025,#1026);
#1025 = CARTESIAN_POINT('',(-6.28318530718,2.16E+03));
#1026 = VECTOR('',#1027,1.);
#1027 = DIRECTION('',(1.,0.));
#1028 = ( GEOMETRIC_REPRESENTATION_CONTEXT(2) 
PARAMETRIC_REPRESENTATION_CONTEXT() REPRESENTATION_CONTEXT('2D SPACE',''
  ) );
#1029 = PCURVE('',#1030,#1049);
#1030 = B_SPLINE_SURFACE_WITH_KNOTS('',8,1,(
    (#1031,#1032)
    ,(#1033,#1034)
    ,(#1035,#1036)
    ,(#1037,#1038)
    ,(#1039,#1040)
    ,(#1041,#1042)
    ,(#1043,#1044)
    ,(#1045,#1046)
    ,(#1047,#1048
    )),.UNSPECIFIED.,.F.,.F.,.F.,(9,9),(2,2),(0.,1.570796326795),(0.,1.)
  ,.PIECEWISE_BEZIER_KNOTS.);
#1031 = CARTESIAN_POINT('',(760.,-76.,86.));
#1032 = CARTESIAN_POINT('',(1.01E+03,-75.,74.));
#1033 = CARTESIAN_POINT('',(760.,-77.96349540849,86.));
#1034 = CARTESIAN_POINT('',(1.01E+03,-75.,74.));
#1035 = CARTESIAN_POINT('',(759.99999999999,-79.92699143504,
    85.559392110387));
#1036 = CARTESIAN_POINT('',(1.01E+03,-75.,74.));
#1037 = CARTESIAN_POINT('',(760.00000000002,-81.77513234334,
    84.678180658715));
#1038 = CARTESIAN_POINT('',(1.01E+03,-75.,74.));
#1039 = CARTESIAN_POINT('',(759.99999999997,-83.3925875578,
    83.392587557797));
#1040 = CARTESIAN_POINT('',(1.01E+03,-75.,74.));
#1041 = CARTESIAN_POINT('',(760.00000000002,-84.67818065871,
    81.775132343352));
#1042 = CARTESIAN_POINT('',(1.01E+03,-75.,74.));
#1043 = CARTESIAN_POINT('',(759.99999999998,-85.55939211038,
    79.926991435041));
#1044 = CARTESIAN_POINT('',(1.01E+03,-75.,74.));
#1045 = CARTESIAN_POINT('',(760.,-86.,77.963495408494));
#1046 = CARTESIAN_POINT('',(1.01E+03,-75.,74.));
#1047 = CARTESIAN_POINT('',(760.,-86.,76.));
#1048 = CARTESIAN_POINT('',(1.01E+03,-75.,74.));
#1049 = DEFINITIONAL_REPRESENTATION('',(#1050),#1054);
#1050 = LINE('',#1051,#1052);
#1051 = CARTESIAN_POINT('',(0.,0.));
#1052 = VECTOR('',#1053,1.);
#1053 = DIRECTION('',(1.,0.));
#1054 = ( GEOMETRIC_REPRESENTATION_CONTEXT(2) 
PARAMETRIC_REPRESENTATION_CONTEXT() REPRESENTATION_CONTEXT('2D SPACE',''
  ) );
#1055 = ORIENTED_EDGE('',*,*,#1056,.F.);
#1056 = EDGE_CURVE('',#985,#1014,#1057,.T.);
#1057 = SURFACE_CURVE('',#1058,(#1061,#1067),.PCURVE_S1.);
#1058 = B_SPLINE_CURVE_WITH_KNOTS('',1,(#1059,#1060),.UNSPECIFIED.,.F.,
  .F.,(2,2),(0.,1.),.PIECEWISE_BEZIER_KNOTS.);
#1059 = CARTESIAN_POINT('',(-1.4E+03,-85.99999999094,76.));
#1060 = CARTESIAN_POINT('',(760.,-85.99999999094,76.));
#1061 = PCURVE('',#948,#1062);
#1062 = DEFINITIONAL_REPRESENTATION('',(#1063),#1066);
#1063 = B_SPLINE_CURVE_WITH_KNOTS('',1,(#1064,#1065),.UNSPECIFIED.,.F.,
  .F.,(2,2),(0.,1.),.PIECEWISE_BEZIER_KNOTS.);
#1064 = CARTESIAN_POINT('',(-4.712388980385,0.));
#1065 = CARTESIAN_POINT('',(-4.712388980385,2.16E+03));
#1066 = ( GEOMETRIC_REPRESENTATION_CONTEXT(2) 
PARAMETRIC_REPRESENTATION_CONTEXT() REPRESENTATION_CONTEXT('2D SPACE',''
  ) );
#1067 = PCURVE('',#1068,#1073);
#1068 = PLANE('',#1069);
#1069 = AXIS2_PLACEMENT_3D('',#1070,#1071,#1072);
#1070 = CARTESIAN_POINT('',(760.,-86.,0.));
#1071 = DIRECTION('',(0.,-1.,0.));
#1072 = DIRECTION('',(1.110223024625E-16,0.,-1.));
#1073 = DEFINITIONAL_REPRESENTATION('',(#1074),#1077);
#1074 = B_SPLINE_CURVE_WITH_KNOTS('',1,(#1075,#1076),.UNSPECIFIED.,.F.,
  .F.,(2,2),(0.,1.),.PIECEWISE_BEZIER_KNOTS.);
#1075 = CARTESIAN_POINT('',(-76.,-2.16E+03));
#1076 = CARTESIAN_POINT('',(-76.,0.));
#1077 = ( GEOMETRIC_REPRESENTATION_CONTEXT(2) 
PARAMETRIC_REPRESENTATION_CONTEXT() REPRESENTATION_CONTEXT('2D SPACE',''
  ) );
#1078 = ADVANCED_FACE('',(#1079),#1068,.T.);
#1079 = FACE_BOUND('',#1080,.F.);
#1080 = EDGE_LOOP('',(#1081,#1104,#1105,#1133,#1156));
#1081 = ORIENTED_EDGE('',*,*,#1082,.F.);
#1082 = EDGE_CURVE('',#985,#1083,#1085,.T.);
#1083 = VERTEX_POINT('',#1084);
#1084 = CARTESIAN_POINT('',(-1.4E+03,-85.99999999094,-76.));
#1085 = SURFACE_CURVE('',#1086,(#1090,#1097),.PCURVE_S1.);
#1086 = LINE('',#1087,#1088);
#1087 = CARTESIAN_POINT('',(-1.4E+03,-86.,0.));
#1088 = VECTOR('',#1089,1.);
#1089 = DIRECTION('',(1.110223024625E-16,0.,-1.));
#1090 = PCURVE('',#1068,#1091);
#1091 = DEFINITIONAL_REPRESENTATION('',(#1092),#1096);
#1092 = LINE('',#1093,#1094);
#1093 = CARTESIAN_POINT('',(-2.39808173319E-13,-2.16E+03));
#1094 = VECTOR('',#1095,1.);
#1095 = DIRECTION('',(1.,0.));
#1096 = ( GEOMETRIC_REPRESENTATION_CONTEXT(2) 
PARAMETRIC_REPRESENTATION_CONTEXT() REPRESENTATION_CONTEXT('2D SPACE',''
  ) );
#1097 = PCURVE('',#854,#1098);
#1098 = DEFINITIONAL_REPRESENTATION('',(#1099),#1103);
#1099 = LINE('',#1100,#1101);
#1100 = CARTESIAN_POINT('',(-76.,-10.));
#1101 = VECTOR('',#1102,1.);
#1102 = DIRECTION('',(-1.,0.));
#1103 = ( GEOMETRIC_REPRESENTATION_CONTEXT(2) 
PARAMETRIC_REPRESENTATION_CONTEXT() REPRESENTATION_CONTEXT('2D SPACE',''
  ) );
#1104 = ORIENTED_EDGE('',*,*,#1056,.T.);
#1105 = ORIENTED_EDGE('',*,*,#1106,.T.);
#1106 = EDGE_CURVE('',#1014,#1107,#1109,.T.);
#1107 = VERTEX_POINT('',#1108);
#1108 = CARTESIAN_POINT('',(760.,-86.,57.831836468522));
#1109 = SURFACE_CURVE('',#1110,(#1114,#1121),.PCURVE_S1.);
#1110 = LINE('',#1111,#1112);
#1111 = CARTESIAN_POINT('',(760.,-86.,76.));
#1112 = VECTOR('',#1113,1.);
#1113 = DIRECTION('',(0.,0.,-1.));
#1114 = PCURVE('',#1068,#1115);
#1115 = DEFINITIONAL_REPRESENTATION('',(#1116),#1120);
#1116 = LINE('',#1117,#1118);
#1117 = CARTESIAN_POINT('',(-76.,8.437694987151E-15));
#1118 = VECTOR('',#1119,1.);
#1119 = DIRECTION('',(1.,-1.110223024625E-16));
#1120 = ( GEOMETRIC_REPRESENTATION_CONTEXT(2) 
PARAMETRIC_REPRESENTATION_CONTEXT() REPRESENTATION_CONTEXT('2D SPACE',''
  ) );
#1121 = PCURVE('',#1122,#1127);
#1122 = PLANE('',#1123);
#1123 = AXIS2_PLACEMENT_3D('',#1124,#1125,#1126);
#1124 = CARTESIAN_POINT('',(760.,-86.,76.));
#1125 = DIRECTION('',(-4.395746974398E-02,0.999033403272,0.));
#1126 = DIRECTION('',(0.,0.,1.));
#1127 = DEFINITIONAL_REPRESENTATION('',(#1128),#1132);
#1128 = LINE('',#1129,#1130);
#1129 = CARTESIAN_POINT('',(0.,0.));
#1130 = VECTOR('',#1131,1.);
#1131 = DIRECTION('',(-1.,0.));
#1132 = ( GEOMETRIC_REPRESENTATION_CONTEXT(2) 
PARAMETRIC_REPRESENTATION_CONTEXT() REPRESENTATION_CONTEXT('2D SPACE',''
  ) );
#1133 = ORIENTED_EDGE('',*,*,#1134,.T.);
#1134 = EDGE_CURVE('',#1107,#1135,#1137,.T.);
#1135 = VERTEX_POINT('',#1136);
#1136 = CARTESIAN_POINT('',(760.,-85.99999999094,-76.));
#1137 = SURFACE_CURVE('',#1138,(#1142,#1149),.PCURVE_S1.);
#1138 = LINE('',#1139,#1140);
#1139 = CARTESIAN_POINT('',(760.,-86.,0.));
#1140 = VECTOR('',#1141,1.);
#1141 = DIRECTION('',(1.110223024625E-16,0.,-1.));
#1142 = PCURVE('',#1068,#1143);
#1143 = DEFINITIONAL_REPRESENTATION('',(#1144),#1148);
#1144 = LINE('',#1145,#1146);
#1145 = CARTESIAN_POINT('',(0.,0.));
#1146 = VECTOR('',#1147,1.);
#1147 = DIRECTION('',(1.,0.));
#1148 = ( GEOMETRIC_REPRESENTATION_CONTEXT(2) 
PARAMETRIC_REPRESENTATION_CONTEXT() REPRESENTATION_CONTEXT('2D SPACE',''
  ) );
#1149 = PCURVE('',#423,#1150);
#1150 = DEFINITIONAL_REPRESENTATION('',(#1151),#1155);
#1151 = LINE('',#1152,#1153);
#1152 = CARTESIAN_POINT('',(0.,0.));
#1153 = VECTOR('',#1154,1.);
#1154 = DIRECTION('',(-1.,0.));
#1155 = ( GEOMETRIC_REPRESENTATION_CONTEXT(2) 
PARAMETRIC_REPRESENTATION_CONTEXT() REPRESENTATION_CONTEXT('2D SPACE',''
  ) );
#1156 = ORIENTED_EDGE('',*,*,#1157,.F.);
#1157 = EDGE_CURVE('',#1083,#1135,#1158,.T.);
#1158 = SURFACE_CURVE('',#1159,(#1162,#1168),.PCURVE_S1.);
#1159 = B_SPLINE_CURVE_WITH_KNOTS('',1,(#1160,#1161),.UNSPECIFIED.,.F.,
  .F.,(2,2),(0.,1.),.PIECEWISE_BEZIER_KNOTS.);
#1160 = CARTESIAN_POINT('',(-1.4E+03,-85.99999999094,-76.));
#1161 = CARTESIAN_POINT('',(760.,-85.99999999094,-76.));
#1162 = PCURVE('',#1068,#1163);
#1163 = DEFINITIONAL_REPRESENTATION('',(#1164),#1167);
#1164 = B_SPLINE_CURVE_WITH_KNOTS('',1,(#1165,#1166),.UNSPECIFIED.,.F.,
  .F.,(2,2),(0.,1.),.PIECEWISE_BEZIER_KNOTS.);
#1165 = CARTESIAN_POINT('',(76.,-2.16E+03));
#1166 = CARTESIAN_POINT('',(76.,0.));
#1167 = ( GEOMETRIC_REPRESENTATION_CONTEXT(2) 
PARAMETRIC_REPRESENTATION_CONTEXT() REPRESENTATION_CONTEXT('2D SPACE',''
  ) );
#1168 = PCURVE('',#1169,#1174);
#1169 = CYLINDRICAL_SURFACE('',#1170,10.);
#1170 = AXIS2_PLACEMENT_3D('',#1171,#1172,#1173);
#1171 = CARTESIAN_POINT('',(-1.4E+03,-75.99999998187,-76.));
#1172 = DIRECTION('',(1.,0.,1.110223024625E-16));
#1173 = DIRECTION('',(-1.110223024625E-16,0.,1.));
#1174 = DEFINITIONAL_REPRESENTATION('',(#1175),#1178);
#1175 = B_SPLINE_CURVE_WITH_KNOTS('',1,(#1176,#1177),.UNSPECIFIED.,.F.,
  .F.,(2,2),(0.,1.),.PIECEWISE_BEZIER_KNOTS.);
#1176 = CARTESIAN_POINT('',(-4.712388980385,0.));
#1177 = CARTESIAN_POINT('',(-4.712388980385,2.16E+03));
#1178 = ( GEOMETRIC_REPRESENTATION_CONTEXT(2) 
PARAMETRIC_REPRESENTATION_CONTEXT() REPRESENTATION_CONTEXT('2D SPACE',''
  ) );
#1179 = ADVANCED_FACE('',(#1180),#1169,.T.);
#1180 = FACE_BOUND('',#1181,.F.);
#1181 = EDGE_LOOP('',(#1182,#1210,#1211,#1232));
#1182 = ORIENTED_EDGE('',*,*,#1183,.F.);
#1183 = EDGE_CURVE('',#1083,#1184,#1186,.T.);
#1184 = VERTEX_POINT('',#1185);
#1185 = CARTESIAN_POINT('',(-1.4E+03,-75.99999998187,-86.));
#1186 = SURFACE_CURVE('',#1187,(#1192,#1199),.PCURVE_S1.);
#1187 = CIRCLE('',#1188,10.);
#1188 = AXIS2_PLACEMENT_3D('',#1189,#1190,#1191);
#1189 = CARTESIAN_POINT('',(-1.4E+03,-75.99999998187,-76.));
#1190 = DIRECTION('',(1.,0.,1.110223024625E-16));
#1191 = DIRECTION('',(-1.110223024625E-16,0.,1.));
#1192 = PCURVE('',#1169,#1193);
#1193 = DEFINITIONAL_REPRESENTATION('',(#1194),#1198);
#1194 = LINE('',#1195,#1196);
#1195 = CARTESIAN_POINT('',(-6.28318530718,0.));
#1196 = VECTOR('',#1197,1.);
#1197 = DIRECTION('',(1.,0.));
#1198 = ( GEOMETRIC_REPRESENTATION_CONTEXT(2) 
PARAMETRIC_REPRESENTATION_CONTEXT() REPRESENTATION_CONTEXT('2D SPACE',''
  ) );
#1199 = PCURVE('',#854,#1200);
#1200 = DEFINITIONAL_REPRESENTATION('',(#1201),#1209);
#1201 = ( BOUNDED_CURVE() B_SPLINE_CURVE(2,(#1202,#1203,#1204,#1205,
#1206,#1207,#1208),.UNSPECIFIED.,.T.,.F.) B_SPLINE_CURVE_WITH_KNOTS((1,2
    ,2,2,2,1),(-2.094395102393,0.,2.094395102393,4.188790204786,
6.28318530718,8.377580409573),.UNSPECIFIED.) CURVE() 
GEOMETRIC_REPRESENTATION_ITEM() RATIONAL_B_SPLINE_CURVE((1.,0.5,1.,0.5,
1.,0.5,1.)) REPRESENTATION_ITEM('') );
#1202 = CARTESIAN_POINT('',(-142.,1.812355776565E-08));
#1203 = CARTESIAN_POINT('',(-142.,-17.32050805756));
#1204 = CARTESIAN_POINT('',(-157.,-8.660254019721));
#1205 = CARTESIAN_POINT('',(-172.,1.812355531635E-08));
#1206 = CARTESIAN_POINT('',(-157.,8.660254055968));
#1207 = CARTESIAN_POINT('',(-142.,17.320508093812));
#1208 = CARTESIAN_POINT('',(-142.,1.812355776565E-08));
#1209 = ( GEOMETRIC_REPRESENTATION_CONTEXT(2) 
PARAMETRIC_REPRESENTATION_CONTEXT() REPRESENTATION_CONTEXT('2D SPACE',''
  ) );
#1210 = ORIENTED_EDGE('',*,*,#1157,.T.);
#1211 = ORIENTED_EDGE('',*,*,#1212,.T.);
#1212 = EDGE_CURVE('',#1135,#169,#1213,.T.);
#1213 = SURFACE_CURVE('',#1214,(#1219,#1226),.PCURVE_S1.);
#1214 = CIRCLE('',#1215,10.);
#1215 = AXIS2_PLACEMENT_3D('',#1216,#1217,#1218);
#1216 = CARTESIAN_POINT('',(760.,-75.99999998187,-76.));
#1217 = DIRECTION('',(1.,0.,1.110223024625E-16));
#1218 = DIRECTION('',(-1.110223024625E-16,0.,1.));
#1219 = PCURVE('',#1169,#1220);
#1220 = DEFINITIONAL_REPRESENTATION('',(#1221),#1225);
#1221 = LINE('',#1222,#1223);
#1222 = CARTESIAN_POINT('',(-6.28318530718,2.16E+03));
#1223 = VECTOR('',#1224,1.);
#1224 = DIRECTION('',(1.,0.));
#1225 = ( GEOMETRIC_REPRESENTATION_CONTEXT(2) 
PARAMETRIC_REPRESENTATION_CONTEXT() REPRESENTATION_CONTEXT('2D SPACE',''
  ) );
#1226 = PCURVE('',#206,#1227);
#1227 = DEFINITIONAL_REPRESENTATION('',(#1228),#1231);
#1228 = B_SPLINE_CURVE_WITH_KNOTS('',1,(#1229,#1230),.UNSPECIFIED.,.F.,
  .F.,(2,2),(1.570796326795,3.14159265359),.PIECEWISE_BEZIER_KNOTS.);
#1229 = CARTESIAN_POINT('',(-98.3190271038,0.));
#1230 = CARTESIAN_POINT('',(-113.5077089893,0.));
#1231 = ( GEOMETRIC_REPRESENTATION_CONTEXT(2) 
PARAMETRIC_REPRESENTATION_CONTEXT() REPRESENTATION_CONTEXT('2D SPACE',''
  ) );
#1232 = ORIENTED_EDGE('',*,*,#1233,.F.);
#1233 = EDGE_CURVE('',#1184,#169,#1234,.T.);
#1234 = SURFACE_CURVE('',#1235,(#1238,#1244),.PCURVE_S1.);
#1235 = B_SPLINE_CURVE_WITH_KNOTS('',1,(#1236,#1237),.UNSPECIFIED.,.F.,
  .F.,(2,2),(0.,1.),.PIECEWISE_BEZIER_KNOTS.);
#1236 = CARTESIAN_POINT('',(-1.4E+03,-75.99999998187,-86.));
#1237 = CARTESIAN_POINT('',(760.,-75.99999998187,-86.));
#1238 = PCURVE('',#1169,#1239);
#1239 = DEFINITIONAL_REPRESENTATION('',(#1240),#1243);
#1240 = B_SPLINE_CURVE_WITH_KNOTS('',1,(#1241,#1242),.UNSPECIFIED.,.F.,
  .F.,(2,2),(0.,1.),.PIECEWISE_BEZIER_KNOTS.);
#1241 = CARTESIAN_POINT('',(-3.14159265359,0.));
#1242 = CARTESIAN_POINT('',(-3.14159265359,2.16E+03));
#1243 = ( GEOMETRIC_REPRESENTATION_CONTEXT(2) 
PARAMETRIC_REPRESENTATION_CONTEXT() REPRESENTATION_CONTEXT('2D SPACE',''
  ) );
#1244 = PCURVE('',#61,#1245);
#1245 = DEFINITIONAL_REPRESENTATION('',(#1246),#1249);
#1246 = B_SPLINE_CURVE_WITH_KNOTS('',1,(#1247,#1248),.UNSPECIFIED.,.F.,
  .F.,(2,2),(0.,1.),.PIECEWISE_BEZIER_KNOTS.);
#1247 = CARTESIAN_POINT('',(-75.99999998188,-2.16E+03));
#1248 = CARTESIAN_POINT('',(-75.99999998188,0.));
#1249 = ( GEOMETRIC_REPRESENTATION_CONTEXT(2) 
PARAMETRIC_REPRESENTATION_CONTEXT() REPRESENTATION_CONTEXT('2D SPACE',''
  ) );
#1250 = ADVANCED_FACE('',(#1251),#1122,.F.);
#1251 = FACE_BOUND('',#1252,.T.);
#1252 = EDGE_LOOP('',(#1253,#1254,#1273));
#1253 = ORIENTED_EDGE('',*,*,#1106,.T.);
#1254 = ORIENTED_EDGE('',*,*,#1255,.T.);
#1255 = EDGE_CURVE('',#1107,#380,#1256,.T.);
#1256 = SURFACE_CURVE('',#1257,(#1260,#1266),.PCURVE_S1.);
#1257 = B_SPLINE_CURVE_WITH_KNOTS('',1,(#1258,#1259),.UNSPECIFIED.,.F.,
  .F.,(2,2),(0.,1.),.PIECEWISE_BEZIER_KNOTS.);
#1258 = CARTESIAN_POINT('',(760.,-86.,57.831836466751));
#1259 = CARTESIAN_POINT('',(1.01E+03,-75.,74.));
#1260 = PCURVE('',#1122,#1261);
#1261 = DEFINITIONAL_REPRESENTATION('',(#1262),#1265);
#1262 = B_SPLINE_CURVE_WITH_KNOTS('',1,(#1263,#1264),.UNSPECIFIED.,.F.,
  .F.,(2,2),(0.,1.),.PIECEWISE_BEZIER_KNOTS.);
#1263 = CARTESIAN_POINT('',(-18.16816353324,0.));
#1264 = CARTESIAN_POINT('',(-2.,250.24188298524));
#1265 = ( GEOMETRIC_REPRESENTATION_CONTEXT(2) 
PARAMETRIC_REPRESENTATION_CONTEXT() REPRESENTATION_CONTEXT('2D SPACE',''
  ) );
#1266 = PCURVE('',#423,#1267);
#1267 = DEFINITIONAL_REPRESENTATION('',(#1268),#1272);
#1268 = LINE('',#1269,#1270);
#1269 = CARTESIAN_POINT('',(57.831836470292,0.));
#1270 = VECTOR('',#1271,1.);
#1271 = DIRECTION('',(0.,1.));
#1272 = ( GEOMETRIC_REPRESENTATION_CONTEXT(2) 
PARAMETRIC_REPRESENTATION_CONTEXT() REPRESENTATION_CONTEXT('2D SPACE',''
  ) );
#1273 = ORIENTED_EDGE('',*,*,#1274,.F.);
#1274 = EDGE_CURVE('',#1014,#380,#1275,.T.);
#1275 = SURFACE_CURVE('',#1276,(#1279,#1285),.PCURVE_S1.);
#1276 = B_SPLINE_CURVE_WITH_KNOTS('',1,(#1277,#1278),.UNSPECIFIED.,.F.,
  .F.,(2,2),(0.,1.),.PIECEWISE_BEZIER_KNOTS.);
#1277 = CARTESIAN_POINT('',(760.,-86.,76.));
#1278 = CARTESIAN_POINT('',(1.01E+03,-75.,74.));
#1279 = PCURVE('',#1122,#1280);
#1280 = DEFINITIONAL_REPRESENTATION('',(#1281),#1284);
#1281 = B_SPLINE_CURVE_WITH_KNOTS('',1,(#1282,#1283),.UNSPECIFIED.,.F.,
  .F.,(2,2),(0.,1.),.PIECEWISE_BEZIER_KNOTS.);
#1282 = CARTESIAN_POINT('',(-2.84217094304E-14,0.));
#1283 = CARTESIAN_POINT('',(-2.,250.24188298524));
#1284 = ( GEOMETRIC_REPRESENTATION_CONTEXT(2) 
PARAMETRIC_REPRESENTATION_CONTEXT() REPRESENTATION_CONTEXT('2D SPACE',''
  ) );
#1285 = PCURVE('',#1030,#1286);
#1286 = DEFINITIONAL_REPRESENTATION('',(#1287),#1291);
#1287 = LINE('',#1288,#1289);
#1288 = CARTESIAN_POINT('',(1.570796326795,0.));
#1289 = VECTOR('',#1290,1.);
#1290 = DIRECTION('',(0.,1.));
#1291 = ( GEOMETRIC_REPRESENTATION_CONTEXT(2) 
PARAMETRIC_REPRESENTATION_CONTEXT() REPRESENTATION_CONTEXT('2D SPACE',''
  ) );
#1292 = ADVANCED_FACE('',(#1293),#1030,.T.);
#1293 = FACE_BOUND('',#1294,.T.);
#1294 = EDGE_LOOP('',(#1295,#1296,#1297));
#1295 = ORIENTED_EDGE('',*,*,#1013,.T.);
#1296 = ORIENTED_EDGE('',*,*,#1274,.T.);
#1297 = ORIENTED_EDGE('',*,*,#1298,.F.);
#1298 = EDGE_CURVE('',#935,#380,#1299,.T.);
#1299 = SURFACE_CURVE('',#1300,(#1304,#1310),.PCURVE_S1.);
#1300 = LINE('',#1301,#1302);
#1301 = CARTESIAN_POINT('',(760.,-76.,86.));
#1302 = VECTOR('',#1303,1.);
#1303 = DIRECTION('',(0.998842014506,3.995368058023E-03,
    -4.794441669627E-02));
#1304 = PCURVE('',#1030,#1305);
#1305 = DEFINITIONAL_REPRESENTATION('',(#1306),#1309);
#1306 = B_SPLINE_CURVE_WITH_KNOTS('',1,(#1307,#1308),.UNSPECIFIED.,.F.,
  .F.,(2,2),(0.,250.28983199483),.PIECEWISE_BEZIER_KNOTS.);
#1307 = CARTESIAN_POINT('',(0.,0.));
#1308 = CARTESIAN_POINT('',(0.,1.));
#1309 = ( GEOMETRIC_REPRESENTATION_CONTEXT(2) 
PARAMETRIC_REPRESENTATION_CONTEXT() REPRESENTATION_CONTEXT('2D SPACE',''
  ) );
#1310 = PCURVE('',#474,#1311);
#1311 = DEFINITIONAL_REPRESENTATION('',(#1312),#1316);
#1312 = LINE('',#1313,#1314);
#1313 = CARTESIAN_POINT('',(124.83206295732,-76.));
#1314 = VECTOR('',#1315,1.);
#1315 = DIRECTION('',(-0.999992018485,3.995368058023E-03));
#1316 = ( GEOMETRIC_REPRESENTATION_CONTEXT(2) 
PARAMETRIC_REPRESENTATION_CONTEXT() REPRESENTATION_CONTEXT('2D SPACE',''
  ) );
#1317 = ADVANCED_FACE('',(#1318),#854,.T.);
#1318 = FACE_BOUND('',#1319,.T.);
#1319 = EDGE_LOOP('',(#1320,#1343,#1344,#1345,#1346,#1347,#1348,#1371));
#1320 = ORIENTED_EDGE('',*,*,#1321,.F.);
#1321 = EDGE_CURVE('',#1184,#1322,#1324,.T.);
#1322 = VERTEX_POINT('',#1323);
#1323 = CARTESIAN_POINT('',(-1.4E+03,75.999999981879,-86.));
#1324 = SURFACE_CURVE('',#1325,(#1329,#1336),.PCURVE_S1.);
#1325 = LINE('',#1326,#1327);
#1326 = CARTESIAN_POINT('',(-1.4E+03,-75.99999998187,-86.));
#1327 = VECTOR('',#1328,1.);
#1328 = DIRECTION('',(0.,1.,0.));
#1329 = PCURVE('',#854,#1330);
#1330 = DEFINITIONAL_REPRESENTATION('',(#1331),#1335);
#1331 = LINE('',#1332,#1333);
#1332 = CARTESIAN_POINT('',(-162.,1.812355776565E-08));
#1333 = VECTOR('',#1334,1.);
#1334 = DIRECTION('',(0.,1.));
#1335 = ( GEOMETRIC_REPRESENTATION_CONTEXT(2) 
PARAMETRIC_REPRESENTATION_CONTEXT() REPRESENTATION_CONTEXT('2D SPACE',''
  ) );
#1336 = PCURVE('',#61,#1337);
#1337 = DEFINITIONAL_REPRESENTATION('',(#1338),#1342);
#1338 = LINE('',#1339,#1340);
#1339 = CARTESIAN_POINT('',(-75.99999998188,-2.16E+03));
#1340 = VECTOR('',#1341,1.);
#1341 = DIRECTION('',(1.,0.));
#1342 = ( GEOMETRIC_REPRESENTATION_CONTEXT(2) 
PARAMETRIC_REPRESENTATION_CONTEXT() REPRESENTATION_CONTEXT('2D SPACE',''
  ) );
#1343 = ORIENTED_EDGE('',*,*,#1183,.F.);
#1344 = ORIENTED_EDGE('',*,*,#1082,.F.);
#1345 = ORIENTED_EDGE('',*,*,#984,.F.);
#1346 = ORIENTED_EDGE('',*,*,#911,.T.);
#1347 = ORIENTED_EDGE('',*,*,#835,.T.);
#1348 = ORIENTED_EDGE('',*,*,#1349,.T.);
#1349 = EDGE_CURVE('',#838,#1350,#1352,.T.);
#1350 = VERTEX_POINT('',#1351);
#1351 = CARTESIAN_POINT('',(-1.4E+03,85.99999999094,-76.));
#1352 = SURFACE_CURVE('',#1353,(#1357,#1364),.PCURVE_S1.);
#1353 = LINE('',#1354,#1355);
#1354 = CARTESIAN_POINT('',(-1.4E+03,86.000000000002,0.));
#1355 = VECTOR('',#1356,1.);
#1356 = DIRECTION('',(1.110223024625E-16,0.,-1.));
#1357 = PCURVE('',#854,#1358);
#1358 = DEFINITIONAL_REPRESENTATION('',(#1359),#1363);
#1359 = LINE('',#1360,#1361);
#1360 = CARTESIAN_POINT('',(-76.,162.));
#1361 = VECTOR('',#1362,1.);
#1362 = DIRECTION('',(-1.,0.));
#1363 = ( GEOMETRIC_REPRESENTATION_CONTEXT(2) 
PARAMETRIC_REPRESENTATION_CONTEXT() REPRESENTATION_CONTEXT('2D SPACE',''
  ) );
#1364 = PCURVE('',#658,#1365);
#1365 = DEFINITIONAL_REPRESENTATION('',(#1366),#1370);
#1366 = LINE('',#1367,#1368);
#1367 = CARTESIAN_POINT('',(2.39808173319E-13,-2.16E+03));
#1368 = VECTOR('',#1369,1.);
#1369 = DIRECTION('',(-1.,0.));
#1370 = ( GEOMETRIC_REPRESENTATION_CONTEXT(2) 
PARAMETRIC_REPRESENTATION_CONTEXT() REPRESENTATION_CONTEXT('2D SPACE',''
  ) );
#1371 = ORIENTED_EDGE('',*,*,#1372,.T.);
#1372 = EDGE_CURVE('',#1350,#1322,#1373,.T.);
#1373 = SURFACE_CURVE('',#1374,(#1379,#1386),.PCURVE_S1.);
#1374 = CIRCLE('',#1375,10.);
#1375 = AXIS2_PLACEMENT_3D('',#1376,#1377,#1378);
#1376 = CARTESIAN_POINT('',(-1.4E+03,75.999999981879,-76.));
#1377 = DIRECTION('',(-1.,0.,-1.110223024625E-16));
#1378 = DIRECTION('',(-1.110223024625E-16,0.,1.));
#1379 = PCURVE('',#854,#1380);
#1380 = DEFINITIONAL_REPRESENTATION('',(#1381),#1385);
#1381 = CIRCLE('',#1382,10.);
#1382 = AXIS2_PLACEMENT_2D('',#1383,#1384);
#1383 = CARTESIAN_POINT('',(-152.,151.99999998188));
#1384 = DIRECTION('',(1.,0.));
#1385 = ( GEOMETRIC_REPRESENTATION_CONTEXT(2) 
PARAMETRIC_REPRESENTATION_CONTEXT() REPRESENTATION_CONTEXT('2D SPACE',''
  ) );
#1386 = PCURVE('',#1387,#1392);
#1387 = CYLINDRICAL_SURFACE('',#1388,10.);
#1388 = AXIS2_PLACEMENT_3D('',#1389,#1390,#1391);
#1389 = CARTESIAN_POINT('',(-1.4E+03,75.999999981879,-76.));
#1390 = DIRECTION('',(1.,0.,1.110223024625E-16));
#1391 = DIRECTION('',(-1.110223024625E-16,0.,1.));
#1392 = DEFINITIONAL_REPRESENTATION('',(#1393),#1397);
#1393 = LINE('',#1394,#1395);
#1394 = CARTESIAN_POINT('',(6.28318530718,0.));
#1395 = VECTOR('',#1396,1.);
#1396 = DIRECTION('',(-1.,0.));
#1397 = ( GEOMETRIC_REPRESENTATION_CONTEXT(2) 
PARAMETRIC_REPRESENTATION_CONTEXT() REPRESENTATION_CONTEXT('2D SPACE',''
  ) );
#1398 = ADVANCED_FACE('',(#1399),#1387,.T.);
#1399 = FACE_BOUND('',#1400,.T.);
#1400 = EDGE_LOOP('',(#1401,#1402,#1420,#1441));
#1401 = ORIENTED_EDGE('',*,*,#1372,.F.);
#1402 = ORIENTED_EDGE('',*,*,#1403,.T.);
#1403 = EDGE_CURVE('',#1350,#644,#1404,.T.);
#1404 = SURFACE_CURVE('',#1405,(#1408,#1414),.PCURVE_S1.);
#1405 = B_SPLINE_CURVE_WITH_KNOTS('',1,(#1406,#1407),.UNSPECIFIED.,.F.,
  .F.,(2,2),(0.,1.),.PIECEWISE_BEZIER_KNOTS.);
#1406 = CARTESIAN_POINT('',(-1.4E+03,85.99999999094,-76.));
#1407 = CARTESIAN_POINT('',(760.,85.99999999094,-76.));
#1408 = PCURVE('',#1387,#1409);
#1409 = DEFINITIONAL_REPRESENTATION('',(#1410),#1413);
#1410 = B_SPLINE_CURVE_WITH_KNOTS('',1,(#1411,#1412),.UNSPECIFIED.,.F.,
  .F.,(2,2),(0.,1.),.PIECEWISE_BEZIER_KNOTS.);
#1411 = CARTESIAN_POINT('',(4.712388980385,0.));
#1412 = CARTESIAN_POINT('',(4.712388980385,2.16E+03));
#1413 = ( GEOMETRIC_REPRESENTATION_CONTEXT(2) 
PARAMETRIC_REPRESENTATION_CONTEXT() REPRESENTATION_CONTEXT('2D SPACE',''
  ) );
#1414 = PCURVE('',#658,#1415);
#1415 = DEFINITIONAL_REPRESENTATION('',(#1416),#1419);
#1416 = B_SPLINE_CURVE_WITH_KNOTS('',1,(#1417,#1418),.UNSPECIFIED.,.F.,
  .F.,(2,2),(0.,1.),.PIECEWISE_BEZIER_KNOTS.);
#1417 = CARTESIAN_POINT('',(-76.,-2.16E+03));
#1418 = CARTESIAN_POINT('',(-76.,0.));
#1419 = ( GEOMETRIC_REPRESENTATION_CONTEXT(2) 
PARAMETRIC_REPRESENTATION_CONTEXT() REPRESENTATION_CONTEXT('2D SPACE',''
  ) );
#1420 = ORIENTED_EDGE('',*,*,#1421,.T.);
#1421 = EDGE_CURVE('',#644,#42,#1422,.T.);
#1422 = SURFACE_CURVE('',#1423,(#1428,#1435),.PCURVE_S1.);
#1423 = CIRCLE('',#1424,10.);
#1424 = AXIS2_PLACEMENT_3D('',#1425,#1426,#1427);
#1425 = CARTESIAN_POINT('',(760.,75.999999981879,-76.));
#1426 = DIRECTION('',(-1.,0.,-1.110223024625E-16));
#1427 = DIRECTION('',(-1.110223024625E-16,0.,1.));
#1428 = PCURVE('',#1387,#1429);
#1429 = DEFINITIONAL_REPRESENTATION('',(#1430),#1434);
#1430 = LINE('',#1431,#1432);
#1431 = CARTESIAN_POINT('',(6.28318530718,2.16E+03));
#1432 = VECTOR('',#1433,1.);
#1433 = DIRECTION('',(-1.,0.));
#1434 = ( GEOMETRIC_REPRESENTATION_CONTEXT(2) 
PARAMETRIC_REPRESENTATION_CONTEXT() REPRESENTATION_CONTEXT('2D SPACE',''
  ) );
#1435 = PCURVE('',#88,#1436);
#1436 = DEFINITIONAL_REPRESENTATION('',(#1437),#1440);
#1437 = B_SPLINE_CURVE_WITH_KNOTS('',1,(#1438,#1439),.UNSPECIFIED.,.F.,
  .F.,(2,2),(1.570796326795,3.14159265359),.PIECEWISE_BEZIER_KNOTS.);
#1438 = CARTESIAN_POINT('',(-98.3190271038,0.));
#1439 = CARTESIAN_POINT('',(-113.5077089893,0.));
#1440 = ( GEOMETRIC_REPRESENTATION_CONTEXT(2) 
PARAMETRIC_REPRESENTATION_CONTEXT() REPRESENTATION_CONTEXT('2D SPACE',''
  ) );
#1441 = ORIENTED_EDGE('',*,*,#1442,.F.);
#1442 = EDGE_CURVE('',#1322,#42,#1443,.T.);
#1443 = SURFACE_CURVE('',#1444,(#1447,#1453),.PCURVE_S1.);
#1444 = B_SPLINE_CURVE_WITH_KNOTS('',1,(#1445,#1446),.UNSPECIFIED.,.F.,
  .F.,(2,2),(0.,1.),.PIECEWISE_BEZIER_KNOTS.);
#1445 = CARTESIAN_POINT('',(-1.4E+03,75.999999981879,-86.));
#1446 = CARTESIAN_POINT('',(760.,75.999999981879,-86.));
#1447 = PCURVE('',#1387,#1448);
#1448 = DEFINITIONAL_REPRESENTATION('',(#1449),#1452);
#1449 = B_SPLINE_CURVE_WITH_KNOTS('',1,(#1450,#1451),.UNSPECIFIED.,.F.,
  .F.,(2,2),(0.,1.),.PIECEWISE_BEZIER_KNOTS.);
#1450 = CARTESIAN_POINT('',(3.14159265359,0.));
#1451 = CARTESIAN_POINT('',(3.14159265359,2.16E+03));
#1452 = ( GEOMETRIC_REPRESENTATION_CONTEXT(2) 
PARAMETRIC_REPRESENTATION_CONTEXT() REPRESENTATION_CONTEXT('2D SPACE',''
  ) );
#1453 = PCURVE('',#61,#1454);
#1454 = DEFINITIONAL_REPRESENTATION('',(#1455),#1458);
#1455 = B_SPLINE_CURVE_WITH_KNOTS('',1,(#1456,#1457),.UNSPECIFIED.,.F.,
  .F.,(2,2),(0.,1.),.PIECEWISE_BEZIER_KNOTS.);
#1456 = CARTESIAN_POINT('',(75.999999981876,-2.16E+03));
#1457 = CARTESIAN_POINT('',(75.999999981876,0.));
#1458 = ( GEOMETRIC_REPRESENTATION_CONTEXT(2) 
PARAMETRIC_REPRESENTATION_CONTEXT() REPRESENTATION_CONTEXT('2D SPACE',''
  ) );
#1459 = ADVANCED_FACE('',(#1460),#658,.T.);
#1460 = FACE_BOUND('',#1461,.T.);
#1461 = EDGE_LOOP('',(#1462,#1463,#1464,#1465,#1466));
#1462 = ORIENTED_EDGE('',*,*,#1349,.F.);
#1463 = ORIENTED_EDGE('',*,*,#890,.T.);
#1464 = ORIENTED_EDGE('',*,*,#718,.T.);
#1465 = ORIENTED_EDGE('',*,*,#641,.T.);
#1466 = ORIENTED_EDGE('',*,*,#1403,.F.);
#1467 = ADVANCED_FACE('',(#1468),#474,.F.);
#1468 = FACE_BOUND('',#1469,.F.);
#1469 = EDGE_LOOP('',(#1470,#1471,#1472,#1473));
#1470 = ORIENTED_EDGE('',*,*,#458,.T.);
#1471 = ORIENTED_EDGE('',*,*,#1298,.F.);
#1472 = ORIENTED_EDGE('',*,*,#959,.T.);
#1473 = ORIENTED_EDGE('',*,*,#812,.T.);
#1474 = ADVANCED_FACE('',(#1475),#423,.F.);
#1475 = FACE_BOUND('',#1476,.F.);
#1476 = EDGE_LOOP('',(#1477,#1478,#1479,#1480));
#1477 = ORIENTED_EDGE('',*,*,#1134,.F.);
#1478 = ORIENTED_EDGE('',*,*,#1255,.T.);
#1479 = ORIENTED_EDGE('',*,*,#407,.T.);
#1480 = ORIENTED_EDGE('',*,*,#1481,.F.);
#1481 = EDGE_CURVE('',#1135,#408,#1482,.T.);
#1482 = SURFACE_CURVE('',#1483,(#1486,#1493),.PCURVE_S1.);
#1483 = B_SPLINE_CURVE_WITH_KNOTS('',1,(#1484,#1485),.UNSPECIFIED.,.F.,
  .F.,(2,2),(0.,1.),.PIECEWISE_BEZIER_KNOTS.);
#1484 = CARTESIAN_POINT('',(760.,-85.99999998187,-76.));
#1485 = CARTESIAN_POINT('',(1.01E+03,-50.7467331213,-21.28069130914));
#1486 = PCURVE('',#423,#1487);
#1487 = DEFINITIONAL_REPRESENTATION('',(#1488),#1492);
#1488 = LINE('',#1489,#1490);
#1489 = CARTESIAN_POINT('',(-76.,0.));
#1490 = VECTOR('',#1491,1.);
#1491 = DIRECTION('',(0.,1.));
#1492 = ( GEOMETRIC_REPRESENTATION_CONTEXT(2) 
PARAMETRIC_REPRESENTATION_CONTEXT() REPRESENTATION_CONTEXT('2D SPACE',''
  ) );
#1493 = PCURVE('',#206,#1494);
#1494 = DEFINITIONAL_REPRESENTATION('',(#1495),#1499);
#1495 = LINE('',#1496,#1497);
#1496 = CARTESIAN_POINT('',(-98.3190271038,0.));
#1497 = VECTOR('',#1498,1.);
#1498 = DIRECTION('',(0.,1.));
#1499 = ( GEOMETRIC_REPRESENTATION_CONTEXT(2) 
PARAMETRIC_REPRESENTATION_CONTEXT() REPRESENTATION_CONTEXT('2D SPACE',''
  ) );
#1500 = ADVANCED_FACE('',(#1501),#306,.T.);
#1501 = FACE_BOUND('',#1502,.F.);
#1502 = EDGE_LOOP('',(#1503,#1504,#1505,#1536,#1557,#1558));
#1503 = ORIENTED_EDGE('',*,*,#513,.F.);
#1504 = ORIENTED_EDGE('',*,*,#560,.T.);
#1505 = ORIENTED_EDGE('',*,*,#1506,.T.);
#1506 = EDGE_CURVE('',#539,#1507,#1509,.T.);
#1507 = VERTEX_POINT('',#1508);
#1508 = CARTESIAN_POINT('',(1.396868920593E+03,6.70903432978,
    36.095518343954));
#1509 = SURFACE_CURVE('',#1510,(#1515,#1525),.PCURVE_S1.);
#1510 = ELLIPSE('',#1511,14.312497830496,4.);
#1511 = AXIS2_PLACEMENT_3D('',#1512,#1513,#1514);
#1512 = CARTESIAN_POINT('',(1.396E+03,20.45105053416,40.));
#1513 = DIRECTION('',(0.203953643411,0.279476024896,-0.938240940722));
#1514 = DIRECTION('',(5.936571885803E-02,-0.960152670937,-0.273098077467
    ));
#1515 = PCURVE('',#306,#1516);
#1516 = DEFINITIONAL_REPRESENTATION('',(#1517),#1524);
#1517 = B_SPLINE_CURVE_WITH_KNOTS('',5,(#1518,#1519,#1520,#1521,#1522,
    #1523),.UNSPECIFIED.,.F.,.F.,(6,6),(5.637474770515,6.278258045947),
  .PIECEWISE_BEZIER_KNOTS.);
#1518 = CARTESIAN_POINT('',(-2.204300174522,-2.313143680205));
#1519 = CARTESIAN_POINT('',(-2.332456829608,-1.253342025235));
#1520 = CARTESIAN_POINT('',(-2.460613568783,-0.418843213541));
#1521 = CARTESIAN_POINT('',(-2.588770354707,0.153919108745));
#1522 = CARTESIAN_POINT('',(-2.716926794868,0.444692722346));
#1523 = CARTESIAN_POINT('',(-2.845083449954,0.45337034424));
#1524 = ( GEOMETRIC_REPRESENTATION_CONTEXT(2) 
PARAMETRIC_REPRESENTATION_CONTEXT() REPRESENTATION_CONTEXT('2D SPACE',''
  ) );
#1525 = PCURVE('',#129,#1526);
#1526 = DEFINITIONAL_REPRESENTATION('',(#1527),#1535);
#1527 = ( BOUNDED_CURVE() B_SPLINE_CURVE(2,(#1528,#1529,#1530,#1531,
#1532,#1533,#1534),.UNSPECIFIED.,.T.,.F.) B_SPLINE_CURVE_WITH_KNOTS((1,2
    ,2,2,2,1),(-2.094395102393,0.,2.094395102393,4.188790204786,
6.28318530718,8.377580409573),.UNSPECIFIED.) CURVE() 
GEOMETRIC_REPRESENTATION_ITEM() RATIONAL_B_SPLINE_CURVE((1.,0.5,1.,0.5,
1.,0.5,1.)) REPRESENTATION_ITEM('') );
#1528 = CARTESIAN_POINT('',(2.443738319177,-195.7818399062));
#1529 = CARTESIAN_POINT('',(2.023609679815,-188.866386781));
#1530 = CARTESIAN_POINT('',(23.66291139939,-191.022241118));
#1531 = CARTESIAN_POINT('',(45.302213118965,-193.1780954549));
#1532 = CARTESIAN_POINT('',(24.083040038753,-197.9376942431));
#1533 = CARTESIAN_POINT('',(2.86386695854,-202.6972930314));
#1534 = CARTESIAN_POINT('',(2.443738319177,-195.7818399062));
#1535 = ( GEOMETRIC_REPRESENTATION_CONTEXT(2) 
PARAMETRIC_REPRESENTATION_CONTEXT() REPRESENTATION_CONTEXT('2D SPACE',''
  ) );
#1536 = ORIENTED_EDGE('',*,*,#1537,.T.);
#1537 = EDGE_CURVE('',#1507,#262,#1538,.T.);
#1538 = SURFACE_CURVE('',#1539,(#1543,#1550),.PCURVE_S1.);
#1539 = LINE('',#1540,#1541);
#1540 = CARTESIAN_POINT('',(1.396868920593E+03,6.70903432978,
    36.095518343954));
#1541 = VECTOR('',#1542,1.);
#1542 = DIRECTION('',(0.,-1.,0.));
#1543 = PCURVE('',#306,#1544);
#1544 = DEFINITIONAL_REPRESENTATION('',(#1545),#1549);
#1545 = LINE('',#1546,#1547);
#1546 = CARTESIAN_POINT('',(-2.845083449954,0.45337034424));
#1547 = VECTOR('',#1548,1.);
#1548 = DIRECTION('',(0.,1.));
#1549 = ( GEOMETRIC_REPRESENTATION_CONTEXT(2) 
PARAMETRIC_REPRESENTATION_CONTEXT() REPRESENTATION_CONTEXT('2D SPACE',''
  ) );
#1550 = PCURVE('',#277,#1551);
#1551 = DEFINITIONAL_REPRESENTATION('',(#1552),#1556);
#1552 = LINE('',#1553,#1554);
#1553 = CARTESIAN_POINT('',(181.25417808306,6.70903432978));
#1554 = VECTOR('',#1555,1.);
#1555 = DIRECTION('',(0.,-1.));
#1556 = ( GEOMETRIC_REPRESENTATION_CONTEXT(2) 
PARAMETRIC_REPRESENTATION_CONTEXT() REPRESENTATION_CONTEXT('2D SPACE',''
  ) );
#1557 = ORIENTED_EDGE('',*,*,#289,.F.);
#1558 = ORIENTED_EDGE('',*,*,#352,.F.);
#1559 = ADVANCED_FACE('',(#1560),#277,.F.);
#1560 = FACE_BOUND('',#1561,.F.);
#1561 = EDGE_LOOP('',(#1562,#1583,#1584));
#1562 = ORIENTED_EDGE('',*,*,#1563,.F.);
#1563 = EDGE_CURVE('',#115,#1507,#1564,.T.);
#1564 = SURFACE_CURVE('',#1565,(#1569,#1576),.PCURVE_S1.);
#1565 = LINE('',#1566,#1567);
#1566 = CARTESIAN_POINT('',(1.01E+03,0.,-50.));
#1567 = VECTOR('',#1568,1.);
#1568 = DIRECTION('',(0.975980590819,1.69253381196E-02,0.217199031474));
#1569 = PCURVE('',#277,#1570);
#1570 = DEFINITIONAL_REPRESENTATION('',(#1571),#1575);
#1571 = LINE('',#1572,#1573);
#1572 = CARTESIAN_POINT('',(-215.0790150764,4.825287804009E-16));
#1573 = VECTOR('',#1574,1.);
#1574 = DIRECTION('',(0.999856756205,1.69253381196E-02));
#1575 = ( GEOMETRIC_REPRESENTATION_CONTEXT(2) 
PARAMETRIC_REPRESENTATION_CONTEXT() REPRESENTATION_CONTEXT('2D SPACE',''
  ) );
#1576 = PCURVE('',#129,#1577);
#1577 = DEFINITIONAL_REPRESENTATION('',(#1578),#1582);
#1578 = LINE('',#1579,#1580);
#1579 = CARTESIAN_POINT('',(-28.56299025447,199.37378695577));
#1580 = VECTOR('',#1581,1.);
#1581 = DIRECTION('',(7.822623986171E-02,-0.996935632525));
#1582 = ( GEOMETRIC_REPRESENTATION_CONTEXT(2) 
PARAMETRIC_REPRESENTATION_CONTEXT() REPRESENTATION_CONTEXT('2D SPACE',''
  ) );
#1583 = ORIENTED_EDGE('',*,*,#261,.T.);
#1584 = ORIENTED_EDGE('',*,*,#1537,.F.);
#1585 = ADVANCED_FACE('',(#1586),#206,.F.);
#1586 = FACE_BOUND('',#1587,.F.);
#1587 = EDGE_LOOP('',(#1588,#1589,#1590,#1591));
#1588 = ORIENTED_EDGE('',*,*,#1212,.F.);
#1589 = ORIENTED_EDGE('',*,*,#1481,.T.);
#1590 = ORIENTED_EDGE('',*,*,#434,.T.);
#1591 = ORIENTED_EDGE('',*,*,#191,.F.);
#1592 = ADVANCED_FACE('',(#1593),#129,.F.);
#1593 = FACE_BOUND('',#1594,.F.);
#1594 = EDGE_LOOP('',(#1595,#1596,#1597,#1598));
#1595 = ORIENTED_EDGE('',*,*,#1563,.T.);
#1596 = ORIENTED_EDGE('',*,*,#1506,.F.);
#1597 = ORIENTED_EDGE('',*,*,#538,.F.);
#1598 = ORIENTED_EDGE('',*,*,#114,.T.);
#1599 = ADVANCED_FACE('',(#1600),#88,.T.);
#1600 = FACE_BOUND('',#1601,.T.);
#1601 = EDGE_LOOP('',(#1602,#1603,#1604,#1605));
#1602 = ORIENTED_EDGE('',*,*,#1421,.F.);
#1603 = ORIENTED_EDGE('',*,*,#695,.T.);
#1604 = ORIENTED_EDGE('',*,*,#617,.T.);
#1605 = ORIENTED_EDGE('',*,*,#73,.F.);
#1606 = ADVANCED_FACE('',(#1607),#61,.T.);
#1607 = FACE_BOUND('',#1608,.T.);
#1608 = EDGE_LOOP('',(#1609,#1610,#1611,#1612,#1613));
#1609 = ORIENTED_EDGE('',*,*,#39,.F.);
#1610 = ORIENTED_EDGE('',*,*,#168,.T.);
#1611 = ORIENTED_EDGE('',*,*,#1233,.F.);
#1612 = ORIENTED_EDGE('',*,*,#1321,.T.);
#1613 = ORIENTED_EDGE('',*,*,#1442,.T.);
#1614 = ( GEOMETRIC_REPRESENTATION_CONTEXT(3) 
GLOBAL_UNCERTAINTY_ASSIGNED_CONTEXT((#1618)) 
GLOBAL_UNIT_ASSIGNED_CONTEXT((#1615,#1616,#1617)) REPRESENTATION_CONTEXT
('Context #1','3D Context with UNIT and UNCERTAINTY') );
#1615 = ( LENGTH_UNIT() NAMED_UNIT(*) SI_UNIT(.MILLI.,.METRE.) );
#1616 = ( NAMED_UNIT(*) PLANE_ANGLE_UNIT() SI_UNIT($,.RADIAN.) );
#1617 = ( NAMED_UNIT(*) SI_UNIT($,.STERADIAN.) SOLID_ANGLE_UNIT() );
#1618 = UNCERTAINTY_MEASURE_WITH_UNIT(LENGTH_MEASURE(5.E-06),#1615,
  'distance_accuracy_value','confusion accuracy');
#1619 = CONTEXT_DEPENDENT_SHAPE_REPRESENTATION(#1620,#1622);
#1620 = ( REPRESENTATION_RELATIONSHIP('','',#32,#10) 
REPRESENTATION_RELATIONSHIP_WITH_TRANSFORMATION(#1621) 
SHAPE_REPRESENTATION_RELATIONSHIP() );
#1621 = ITEM_DEFINED_TRANSFORMATION('','',#11,#15);
#1622 = PRODUCT_DEFINITION_SHAPE('Placement','Placement of an item',
  #1623);
#1623 = NEXT_ASSEMBLY_USAGE_OCCURRENCE('1','=>[0:1:1:2]','',#5,#27,$);
#1624 = PRODUCT_RELATED_PRODUCT_CATEGORY('part',$,(#29));
#1625 = MECHANICAL_DESIGN_GEOMETRIC_PRESENTATION_REPRESENTATION('',(
    #1626),#1614);
#1626 = STYLED_ITEM('color',(#1627),#33);
#1627 = PRESENTATION_STYLE_ASSIGNMENT((#1628));
#1628 = SURFACE_STYLE_USAGE(.BOTH.,#1629);
#1629 = SURFACE_SIDE_STYLE('',(#1630));
#1630 = SURFACE_STYLE_FILL_AREA(#1631);
#1631 = FILL_AREA_STYLE('',(#1632));
#1632 = FILL_AREA_STYLE_COLOUR('',#1633);
#1633 = COLOUR_RGB('',0.654901934349,0.705882339664,0.737254912529);
ENDSEC;
END-ISO-10303-21;
