# https://github.com/mikedh/trimesh
v 0.07306331 0.07105064 0.03000000
v 0.09806331 0.02774936 0.03000000
v 0.09916749 0.02838686 0.13000000
v 0.07416749 0.07168814 0.13000000
v 0.07159107 0.07020064 0.13000000
v 0.09659107 0.02689936 0.13000000
v 0.10358422 0.03093686 0.47000000
v 0.07858422 0.07423814 0.47000000
v 0.08300095 0.07678814 0.59000000
v 0.08888992 0.08018814 0.69000000
v 0.08300095 0.07678814 0.79000000
v 0.07909297 0.07453186 0.78044402
v 0.08042453 0.07530064 0.69000000
v 0.07379943 0.07147564 0.43000000
v 0.07350406 0.07130510 0.43334383
v 0.10800095 0.03348686 0.59000000
v 0.11388992 0.03688686 0.69000000
v 0.10800095 0.03348686 0.79000000
v 0.10409297 0.03123059 0.78044402
v 0.10542453 0.03199936 0.69000000
v 0.09879943 0.02817436 0.43000000
v 0.09850406 0.02800383 0.43334383
v 0.06809107 0.07626281 0.45500000
v 0.07029943 0.07753781 0.43000000
v 0.10009107 0.02083719 0.45500000
v 0.10229943 0.02211219 0.43000000
v 0.07692453 0.08136281 0.69000000
v 0.07545228 0.08051281 0.79000000
v 0.10892453 0.02593719 0.69000000
v 0.10745228 0.02508719 0.79000000
v 0.07177167 0.07838781 0.76600000
v 0.10377167 0.02296219 0.76600000
v 0.07652308 0.07304814 0.77416000
v 0.10152308 0.02974686 0.77416000
v 0.07561606 0.07252447 0.76824561
v 0.10061606 0.02922320 0.76824561
v 0.07563974 0.07253814 0.77200000
v 0.10063974 0.02923686 0.77200000
v 0.07676483 0.08588941 0.77500000
v 0.08244544 0.08455031 0.73500000
v 0.08121832 0.07817574 0.77500000
v 0.08678014 0.07704238 0.73500000
v 0.11536254 0.09893621 0.79000000
v 0.11097357 0.09293814 0.73500000
v 0.10965791 0.08441540 0.73500000
v 0.12793483 0.05275884 0.73500000
v 0.11011073 0.03663262 0.73500000
v 0.11444544 0.02912469 0.73500000
v 0.13597357 0.04963686 0.73500000
v 0.11259219 0.08889217 0.78721356
v 0.14336254 0.05043879 0.79000000
v 0.11276483 0.02353559 0.77500000
v 0.10831134 0.03124926 0.77500000
v 0.13327897 0.05306161 0.78721356
v 0.12663660 0.03818398 0.75875000
v 0.07806331 0.06239038 0.04500000
v 0.07803555 0.06583846 0.18000000
v 0.08042307 0.05830316 0.04500000
v 0.08056187 0.06146275 0.18000000
v 0.09060513 0.06616730 0.04500000
v 0.09402186 0.07044936 0.18000000
v 0.07898004 0.07100256 0.36000000
v 0.08168004 0.06632602 0.36000000
v 0.08906992 0.06076042 0.04500000
v 0.09234126 0.06486025 0.18000000
v 0.09715502 0.04675660 0.04500000
v 0.09070355 0.04049684 0.04500000
v 0.09306331 0.03640962 0.04500000
v 0.10260513 0.04538270 0.04500000
v 0.09841084 0.07644743 0.36000000
v 0.11541084 0.04700257 0.36000000
v 0.10802186 0.04620064 0.18000000
v 0.08200095 0.07852019 0.59000000
v 0.08503616 0.07326305 0.59000000
v 0.09673023 0.07085833 0.36000000
v 0.10234126 0.04753975 0.18000000
v 0.09603555 0.03466154 0.18000000
v 0.09350924 0.03903725 0.18000000
v 0.10745266 0.08628653 0.59000000
v 0.12845266 0.04991347 0.59000000
v 0.10098004 0.03289744 0.36000000
v 0.08572318 0.07887309 0.73500000
v 0.10590399 0.07961891 0.59000000
v 0.10973023 0.04834167 0.36000000
v 0.09828004 0.03757398 0.36000000
v 0.10900095 0.03175481 0.59000000
v 0.10968856 0.08629874 0.73500000
v 0.12958118 0.05184371 0.73500000
v 0.11116769 0.03480191 0.73500000
v 0.12190399 0.05190609 0.59000000
v 0.10596574 0.03701195 0.59000000
v 0.07881331 0.06109134 0.04500000
v 0.07556331 0.06672051 0.04500000
v 0.07553555 0.07016858 0.18000000
v 0.07878555 0.06453942 0.18000000
v 0.08637308 0.06949743 0.04500000
v 0.08978981 0.07377948 0.18000000
v 0.08910513 0.06876538 0.04500000
v 0.09252186 0.07304743 0.18000000
v 0.09135513 0.06486827 0.04500000
v 0.09477186 0.06915032 0.18000000
v 0.09916084 0.07514839 0.36000000
v 0.09691084 0.07904551 0.36000000
v 0.07648004 0.07533269 0.36000000
v 0.07973004 0.06970352 0.36000000
v 0.09417879 0.07977756 0.36000000
v 0.07950095 0.08285031 0.59000000
v 0.08275095 0.07722115 0.59000000
v 0.10322061 0.08961666 0.59000000
v 0.10595266 0.08888461 0.59000000
v 0.10820266 0.08498750 0.59000000
v 0.07994544 0.08888044 0.73500000
v 0.08319544 0.08325127 0.73500000
v 0.10674152 0.09626826 0.73500000
v 0.10947357 0.09553621 0.73500000
v 0.11172357 0.09163910 0.73500000
v 0.09231331 0.03770866 0.04500000
v 0.09556331 0.03207949 0.04500000
v 0.09853555 0.03033142 0.18000000
v 0.09528555 0.03596058 0.18000000
v 0.10337308 0.04005257 0.04500000
v 0.10878981 0.04087052 0.18000000
v 0.10410513 0.04278462 0.04500000
v 0.10952186 0.04360257 0.18000000
v 0.10185513 0.04668173 0.04500000
v 0.10727186 0.04749968 0.18000000
v 0.11466084 0.04830161 0.36000000
v 0.11691084 0.04440449 0.36000000
v 0.10348004 0.02856731 0.36000000
v 0.10023004 0.03419648 0.36000000
v 0.11617879 0.04167244 0.36000000
v 0.11150095 0.02742469 0.59000000
v 0.10825095 0.03305385 0.59000000
v 0.12922061 0.04458334 0.59000000
v 0.12995266 0.04731539 0.59000000
v 0.12770266 0.05121250 0.59000000
v 0.11694544 0.02479456 0.73500000
v 0.11369544 0.03042373 0.73500000
v 0.13674152 0.04430674 0.73500000
v 0.13747357 0.04703879 0.73500000
v 0.13522357 0.05093590 0.73500000
v 0.02500000 -0.09880000 0.03000000
v -0.02500000 -0.09880000 0.03000000
v -0.02500000 -0.10007500 0.13000000
v 0.02500000 -0.10007500 0.13000000
v 0.02500000 -0.09710000 0.13000000
v -0.02500000 -0.09710000 0.13000000
v -0.02500000 -0.10517500 0.47000000
v 0.02500000 -0.10517500 0.47000000
v 0.02500000 -0.11027500 0.59000000
v 0.02500000 -0.11707500 0.69000000
v 0.02500000 -0.11027500 0.79000000
v 0.02500000 -0.10576245 0.78044402
v 0.02500000 -0.10730000 0.69000000
v 0.02500000 -0.09965000 0.43000000
v 0.02500000 -0.09930893 0.43334383
v -0.02500000 -0.11027500 0.59000000
v -0.02500000 -0.11707500 0.69000000
v -0.02500000 -0.11027500 0.79000000
v -0.02500000 -0.10576245 0.78044402
v -0.02500000 -0.10730000 0.69000000
v -0.02500000 -0.09965000 0.43000000
v -0.02500000 -0.09930893 0.43334383
v 0.03200000 -0.09710000 0.45500000
v 0.03200000 -0.09965000 0.43000000
v -0.03200000 -0.09710000 0.45500000
v -0.03200000 -0.09965000 0.43000000
v 0.03200000 -0.10730000 0.69000000
v 0.03200000 -0.10560000 0.79000000
v -0.03200000 -0.10730000 0.69000000
v -0.03200000 -0.10560000 0.79000000
v 0.03200000 -0.10135000 0.76600000
v -0.03200000 -0.10135000 0.76600000
v 0.02500000 -0.10279500 0.77416000
v -0.02500000 -0.10279500 0.77416000
v 0.02500000 -0.10174766 0.76824561
v -0.02500000 -0.10174766 0.76824561
v 0.02500000 -0.10177500 0.77200000
v -0.02500000 -0.10177500 0.77200000
v 0.03600000 -0.10942500 0.77500000
v 0.03200000 -0.11367500 0.73500000
v 0.02709302 -0.10942500 0.77500000
v 0.02333059 -0.11367500 0.73500000
v 0.02800000 -0.14937500 0.79000000
v 0.02500000 -0.14257500 0.73500000
v 0.01827692 -0.13717423 0.73500000
v -0.01827692 -0.13717423 0.73500000
v -0.02333059 -0.11367500 0.73500000
v -0.03200000 -0.11367500 0.73500000
v -0.02500000 -0.14257500 0.73500000
v 0.02068678 -0.14195378 0.78721356
v -0.02800000 -0.14937500 0.79000000
v -0.03600000 -0.10942500 0.77500000
v -0.02709302 -0.10942500 0.77500000
v -0.02068678 -0.14195378 0.78721356
v -0.03025000 -0.12876250 0.75875000
v 0.01500000 -0.09880000 0.04500000
v 0.01800000 -0.10050000 0.18000000
v 0.01028048 -0.09880000 0.04500000
v 0.01294737 -0.10050000 0.18000000
v 0.01200000 -0.11155000 0.04500000
v 0.01400000 -0.11665000 0.18000000
v 0.02200000 -0.10390000 0.36000000
v 0.01660000 -0.10390000 0.36000000
v 0.00808511 -0.10751702 0.04500000
v 0.01000000 -0.11240000 0.18000000
v -0.00808511 -0.10751702 0.04500000
v -0.01028048 -0.09880000 0.04500000
v -0.01500000 -0.09880000 0.04500000
v -0.01200000 -0.11155000 0.04500000
v 0.01700000 -0.12345000 0.36000000
v -0.01700000 -0.12345000 0.36000000
v -0.01400000 -0.11665000 0.18000000
v 0.02700000 -0.11027500 0.59000000
v 0.02092958 -0.11027500 0.59000000
v 0.01300000 -0.11920000 0.36000000
v -0.01000000 -0.11240000 0.18000000
v -0.01800000 -0.10050000 0.18000000
v -0.01294737 -0.10050000 0.18000000
v 0.02100000 -0.13620000 0.59000000
v -0.02100000 -0.13620000 0.59000000
v -0.02200000 -0.10390000 0.36000000
v 0.02544451 -0.11367500 0.73500000
v 0.01600000 -0.13152500 0.59000000
v -0.01300000 -0.11920000 0.36000000
v -0.01660000 -0.10390000 0.36000000
v -0.02700000 -0.11027500 0.59000000
v 0.01989262 -0.13814245 0.73500000
v -0.01989262 -0.13814245 0.73500000
v -0.02544451 -0.11367500 0.73500000
v -0.01600000 -0.13152500 0.59000000
v -0.02092958 -0.11027500 0.59000000
v 0.01350000 -0.09880000 0.04500000
v 0.02000000 -0.09880000 0.04500000
v 0.02300000 -0.10050000 0.18000000
v 0.01650000 -0.10050000 0.18000000
v 0.01700000 -0.10955000 0.04500000
v 0.01900000 -0.11465000 0.18000000
v 0.01500000 -0.11155000 0.04500000
v 0.01700000 -0.11665000 0.18000000
v 0.01050000 -0.11155000 0.04500000
v 0.01250000 -0.11665000 0.18000000
v 0.01550000 -0.12345000 0.36000000
v 0.02000000 -0.12345000 0.36000000
v 0.02700000 -0.10390000 0.36000000
v 0.02050000 -0.10390000 0.36000000
v 0.02200000 -0.12145000 0.36000000
v 0.03200000 -0.11027500 0.59000000
v 0.02550000 -0.11027500 0.59000000
v 0.02600000 -0.13420000 0.59000000
v 0.02400000 -0.13620000 0.59000000
v 0.01950000 -0.13620000 0.59000000
v 0.03700000 -0.11367500 0.73500000
v 0.03050000 -0.11367500 0.73500000
v 0.03000000 -0.14057500 0.73500000
v 0.02800000 -0.14257500 0.73500000
v 0.02350000 -0.14257500 0.73500000
v -0.01350000 -0.09880000 0.04500000
v -0.02000000 -0.09880000 0.04500000
v -0.02300000 -0.10050000 0.18000000
v -0.01650000 -0.10050000 0.18000000
v -0.01700000 -0.10955000 0.04500000
v -0.01900000 -0.11465000 0.18000000
v -0.01500000 -0.11155000 0.04500000
v -0.01700000 -0.11665000 0.18000000
v -0.01050000 -0.11155000 0.04500000
v -0.01250000 -0.11665000 0.18000000
v -0.01550000 -0.12345000 0.36000000
v -0.02000000 -0.12345000 0.36000000
v -0.02700000 -0.10390000 0.36000000
v -0.02050000 -0.10390000 0.36000000
v -0.02200000 -0.12145000 0.36000000
v -0.03200000 -0.11027500 0.59000000
v -0.02550000 -0.11027500 0.59000000
v -0.02600000 -0.13420000 0.59000000
v -0.02400000 -0.13620000 0.59000000
v -0.01950000 -0.13620000 0.59000000
v -0.03700000 -0.11367500 0.73500000
v -0.03050000 -0.11367500 0.73500000
v -0.03000000 -0.14057500 0.73500000
v -0.02800000 -0.14257500 0.73500000
v -0.02350000 -0.14257500 0.73500000
v -0.09806331 0.02774936 0.03000000
v -0.07306331 0.07105064 0.03000000
v -0.07416749 0.07168814 0.13000000
v -0.09916749 0.02838686 0.13000000
v -0.09659107 0.02689936 0.13000000
v -0.07159107 0.07020064 0.13000000
v -0.07858422 0.07423814 0.47000000
v -0.10358422 0.03093686 0.47000000
v -0.10800095 0.03348686 0.59000000
v -0.11388992 0.03688686 0.69000000
v -0.10800095 0.03348686 0.79000000
v -0.10409297 0.03123059 0.78044402
v -0.10542453 0.03199936 0.69000000
v -0.09879943 0.02817436 0.43000000
v -0.09850406 0.02800383 0.43334383
v -0.08300095 0.07678814 0.59000000
v -0.08888992 0.08018814 0.69000000
v -0.08300095 0.07678814 0.79000000
v -0.07909297 0.07453186 0.78044402
v -0.08042453 0.07530064 0.69000000
v -0.07379943 0.07147564 0.43000000
v -0.07350406 0.07130510 0.43334383
v -0.10009107 0.02083719 0.45500000
v -0.10229943 0.02211219 0.43000000
v -0.06809107 0.07626281 0.45500000
v -0.07029943 0.07753781 0.43000000
v -0.10892453 0.02593719 0.69000000
v -0.10745228 0.02508719 0.79000000
v -0.07692453 0.08136281 0.69000000
v -0.07545228 0.08051281 0.79000000
v -0.10377167 0.02296219 0.76600000
v -0.07177167 0.07838781 0.76600000
v -0.10152308 0.02974686 0.77416000
v -0.07652308 0.07304814 0.77416000
v -0.10061606 0.02922320 0.76824561
v -0.07561606 0.07252447 0.76824561
v -0.10063974 0.02923686 0.77200000
v -0.07563974 0.07253814 0.77200000
v -0.11276483 0.02353559 0.77500000
v -0.11444544 0.02912469 0.73500000
v -0.10831134 0.03124926 0.77500000
v -0.11011073 0.03663262 0.73500000
v -0.14336254 0.05043879 0.79000000
v -0.13597357 0.04963686 0.73500000
v -0.12793483 0.05275884 0.73500000
v -0.10965791 0.08441540 0.73500000
v -0.08678014 0.07704238 0.73500000
v -0.08244544 0.08455031 0.73500000
v -0.11097357 0.09293814 0.73500000
v -0.13327897 0.05306161 0.78721356
v -0.11536254 0.09893621 0.79000000
v -0.07676483 0.08588941 0.77500000
v -0.08121832 0.07817574 0.77500000
v -0.11259219 0.08889217 0.78721356
v -0.09638660 0.09057852 0.75875000
v -0.09306331 0.03640962 0.04500000
v -0.09603555 0.03466154 0.18000000
v -0.09070355 0.04049684 0.04500000
v -0.09350924 0.03903725 0.18000000
v -0.10260513 0.04538270 0.04500000
v -0.10802186 0.04620064 0.18000000
v -0.10098004 0.03289744 0.36000000
v -0.09828004 0.03757398 0.36000000
v -0.09715502 0.04675660 0.04500000
v -0.10234126 0.04753975 0.18000000
v -0.08906992 0.06076042 0.04500000
v -0.08042307 0.05830316 0.04500000
v -0.07806331 0.06239038 0.04500000
v -0.09060513 0.06616730 0.04500000
v -0.11541084 0.04700257 0.36000000
v -0.09841084 0.07644743 0.36000000
v -0.09402186 0.07044936 0.18000000
v -0.10900095 0.03175481 0.59000000
v -0.10596574 0.03701195 0.59000000
v -0.10973023 0.04834167 0.36000000
v -0.09234126 0.06486025 0.18000000
v -0.07803555 0.06583846 0.18000000
v -0.08056187 0.06146275 0.18000000
v -0.12845266 0.04991347 0.59000000
v -0.10745266 0.08628653 0.59000000
v -0.07898004 0.07100256 0.36000000
v -0.11116769 0.03480191 0.73500000
v -0.12190399 0.05190609 0.59000000
v -0.09673023 0.07085833 0.36000000
v -0.08168004 0.06632602 0.36000000
v -0.08200095 0.07852019 0.59000000
v -0.12958118 0.05184371 0.73500000
v -0.10968856 0.08629874 0.73500000
v -0.08572318 0.07887309 0.73500000
v -0.10590399 0.07961891 0.59000000
v -0.08503616 0.07326305 0.59000000
v -0.09231331 0.03770866 0.04500000
v -0.09556331 0.03207949 0.04500000
v -0.09853555 0.03033142 0.18000000
v -0.09528555 0.03596058 0.18000000
v -0.10337308 0.04005257 0.04500000
v -0.10878981 0.04087052 0.18000000
v -0.10410513 0.04278462 0.04500000
v -0.10952186 0.04360257 0.18000000
v -0.10185513 0.04668173 0.04500000
v -0.10727186 0.04749968 0.18000000
v -0.11466084 0.04830161 0.36000000
v -0.11691084 0.04440449 0.36000000
v -0.10348004 0.02856731 0.36000000
v -0.10023004 0.03419648 0.36000000
v -0.11617879 0.04167244 0.36000000
v -0.11150095 0.02742469 0.59000000
v -0.10825095 0.03305385 0.59000000
v -0.12922061 0.04458334 0.59000000
v -0.12995266 0.04731539 0.59000000
v -0.12770266 0.05121250 0.59000000
v -0.11694544 0.02479456 0.73500000
v -0.11369544 0.03042373 0.73500000
v -0.13674152 0.04430674 0.73500000
v -0.13747357 0.04703879 0.73500000
v -0.13522357 0.05093590 0.73500000
v -0.07881331 0.06109134 0.04500000
v -0.07556331 0.06672051 0.04500000
v -0.07553555 0.07016858 0.18000000
v -0.07878555 0.06453942 0.18000000
v -0.08637308 0.06949743 0.04500000
v -0.08978981 0.07377948 0.18000000
v -0.08910513 0.06876538 0.04500000
v -0.09252186 0.07304743 0.18000000
v -0.09135513 0.06486827 0.04500000
v -0.09477186 0.06915032 0.18000000
v -0.09916084 0.07514839 0.36000000
v -0.09691084 0.07904551 0.36000000
v -0.07648004 0.07533269 0.36000000
v -0.07973004 0.06970352 0.36000000
v -0.09417879 0.07977756 0.36000000
v -0.07950095 0.08285031 0.59000000
v -0.08275095 0.07722115 0.59000000
v -0.10322061 0.08961666 0.59000000
v -0.10595266 0.08888461 0.59000000
v -0.10820266 0.08498750 0.59000000
v -0.07994544 0.08888044 0.73500000
v -0.08319544 0.08325127 0.73500000
v -0.10674152 0.09626826 0.73500000
v -0.10947357 0.09553621 0.73500000
v -0.11172357 0.09163910 0.73500000
f 3 2 1
f 4 3 1
f 1 6 5
f 1 2 6
f 8 3 4
f 8 7 3
f 4 1 5
f 14 4 5
f 10 9 13
f 12 10 13
f 11 10 12
f 4 14 8
f 13 8 14
f 13 9 8
f 15 14 5
f 3 6 2
f 21 6 3
f 17 20 16
f 19 20 17
f 18 19 17
f 3 7 21
f 20 21 7
f 20 7 16
f 22 6 21
f 6 22 15
f 5 6 15
f 9 7 8
f 9 16 7
f 22 26 25
f 21 26 22
f 15 25 23
f 15 22 25
f 24 14 15
f 24 15 23
f 27 14 24
f 27 13 14
f 19 29 20
f 30 29 19
f 12 13 27
f 28 19 12
f 28 30 19
f 28 12 27
f 12 18 11
f 12 19 18
f 18 17 10
f 11 18 10
f 17 16 9
f 10 17 9
f 29 26 21
f 20 29 21
f 28 27 31
f 24 23 27
f 31 27 23
f 30 32 29
f 26 29 25
f 32 25 29
f 25 32 31
f 23 25 31
f 32 30 34
f 36 32 34
f 33 30 28
f 33 34 30
f 31 35 33
f 31 33 28
f 32 35 31
f 32 36 35
f 37 34 33
f 37 38 34
f 36 34 38
f 35 38 37
f 35 36 38
f 35 37 33
f 40 41 39
f 42 41 40
f 40 39 43
f 40 43 44
f 45 40 44
f 45 42 40
f 46 48 47
f 49 46 45
f 49 45 44
f 49 48 46
f 42 45 50
f 42 50 41
f 50 43 39
f 41 50 39
f 51 50 54
f 51 43 50
f 52 54 53
f 52 51 54
f 44 43 51
f 44 51 49
f 55 51 52
f 55 49 51
f 55 48 49
f 55 52 48
f 48 53 47
f 48 52 53
f 47 53 54
f 46 47 54
f 46 54 50
f 45 46 50
f 59 57 56
f 59 56 58
f 57 60 56
f 57 61 60
f 63 62 57
f 63 57 59
f 65 58 64
f 59 58 65
f 64 58 56
f 60 64 56
f 66 68 67
f 69 66 64
f 69 64 60
f 69 68 66
f 62 61 57
f 62 70 61
f 61 69 60
f 61 72 69
f 70 71 72
f 70 72 61
f 74 73 62
f 74 62 63
f 63 65 75
f 63 59 65
f 76 64 66
f 65 64 76
f 72 68 69
f 72 77 68
f 78 67 68
f 77 78 68
f 76 66 67
f 76 67 78
f 73 70 62
f 73 79 70
f 79 71 70
f 79 80 71
f 71 77 72
f 71 81 77
f 82 73 74
f 82 40 73
f 74 75 83
f 74 63 75
f 75 65 76
f 75 76 84
f 85 78 77
f 81 85 77
f 85 76 78
f 84 76 85
f 40 79 73
f 40 44 79
f 44 80 79
f 44 49 80
f 80 81 71
f 80 86 81
f 87 44 40
f 87 40 82
f 88 89 48
f 88 44 87
f 49 88 48
f 49 44 88
f 82 83 87
f 82 74 83
f 83 75 84
f 83 84 90
f 91 85 81
f 86 91 81
f 91 84 85
f 90 84 91
f 49 86 80
f 49 48 86
f 89 91 86
f 48 89 86
f 89 90 91
f 88 90 89
f 87 90 88
f 87 83 90
f 95 93 92
f 94 93 95
f 94 96 93
f 97 96 94
f 97 98 96
f 99 98 97
f 101 100 98
f 101 98 99
f 102 99 103
f 102 101 99
f 95 92 100
f 95 100 101
f 105 94 95
f 104 94 105
f 106 97 94
f 106 94 104
f 106 99 97
f 103 99 106
f 105 95 101
f 105 101 102
f 108 104 105
f 107 104 108
f 109 106 104
f 109 104 107
f 110 103 106
f 110 106 109
f 111 102 103
f 111 103 110
f 108 105 102
f 108 102 111
f 112 107 108
f 112 108 113
f 114 109 107
f 114 107 112
f 115 110 109
f 115 109 114
f 116 111 110
f 116 110 115
f 113 108 111
f 113 111 116
f 96 100 92
f 96 92 93
f 98 100 96
f 114 113 116
f 114 112 113
f 115 114 116
f 120 117 118
f 119 120 118
f 119 118 121
f 122 119 121
f 122 121 123
f 124 122 123
f 126 123 125
f 126 124 123
f 127 128 124
f 127 124 126
f 120 125 117
f 120 126 125
f 130 120 119
f 129 130 119
f 131 119 122
f 131 129 119
f 131 122 124
f 128 131 124
f 130 126 120
f 130 127 126
f 133 130 129
f 132 133 129
f 134 129 131
f 134 132 129
f 135 131 128
f 135 134 131
f 135 128 127
f 136 135 127
f 133 127 130
f 133 136 127
f 137 133 132
f 137 138 133
f 139 132 134
f 139 137 132
f 140 134 135
f 140 139 134
f 140 135 136
f 141 140 136
f 138 136 133
f 138 141 136
f 121 117 125
f 121 118 117
f 123 121 125
f 139 141 138
f 139 138 137
f 140 141 139
f 144 143 142
f 145 144 142
f 142 147 146
f 142 143 147
f 149 144 145
f 149 148 144
f 145 142 146
f 155 145 146
f 151 150 154
f 153 151 154
f 152 151 153
f 145 155 149
f 154 149 155
f 154 150 149
f 156 155 146
f 144 147 143
f 162 147 144
f 158 161 157
f 160 161 158
f 159 160 158
f 144 148 162
f 161 162 148
f 161 148 157
f 163 147 162
f 147 163 156
f 146 147 156
f 150 148 149
f 150 157 148
f 163 167 166
f 162 167 163
f 156 166 164
f 156 163 166
f 165 155 156
f 165 156 164
f 168 155 165
f 168 154 155
f 160 170 161
f 171 170 160
f 153 154 168
f 169 160 153
f 169 171 160
f 169 153 168
f 153 159 152
f 153 160 159
f 159 158 151
f 152 159 151
f 158 157 150
f 151 158 150
f 170 167 162
f 161 170 162
f 169 168 172
f 165 164 168
f 172 168 164
f 171 173 170
f 167 170 166
f 173 166 170
f 166 173 172
f 164 166 172
f 173 171 175
f 177 173 175
f 174 171 169
f 174 175 171
f 172 176 174
f 172 174 169
f 173 176 172
f 173 177 176
f 178 175 174
f 178 179 175
f 177 175 179
f 176 179 178
f 176 177 179
f 176 178 174
f 181 182 180
f 183 182 181
f 181 180 184
f 181 184 185
f 186 181 185
f 186 183 181
f 187 189 188
f 190 187 186
f 190 186 185
f 190 189 187
f 183 186 191
f 183 191 182
f 191 184 180
f 182 191 180
f 192 191 195
f 192 184 191
f 193 195 194
f 193 192 195
f 185 184 192
f 185 192 190
f 196 192 193
f 196 190 192
f 196 189 190
f 196 193 189
f 189 194 188
f 189 193 194
f 188 194 195
f 187 188 195
f 187 195 191
f 186 187 191
f 200 198 197
f 200 197 199
f 198 201 197
f 198 202 201
f 204 203 198
f 204 198 200
f 206 199 205
f 200 199 206
f 205 199 197
f 201 205 197
f 207 209 208
f 210 207 205
f 210 205 201
f 210 209 207
f 203 202 198
f 203 211 202
f 202 210 201
f 202 213 210
f 211 212 213
f 211 213 202
f 215 214 203
f 215 203 204
f 204 206 216
f 204 200 206
f 217 205 207
f 206 205 217
f 213 209 210
f 213 218 209
f 219 208 209
f 218 219 209
f 217 207 208
f 217 208 219
f 214 211 203
f 214 220 211
f 220 212 211
f 220 221 212
f 212 218 213
f 212 222 218
f 223 214 215
f 223 181 214
f 215 216 224
f 215 204 216
f 216 206 217
f 216 217 225
f 226 219 218
f 222 226 218
f 226 217 219
f 225 217 226
f 181 220 214
f 181 185 220
f 185 221 220
f 185 190 221
f 221 222 212
f 221 227 222
f 228 185 181
f 228 181 223
f 229 230 189
f 229 185 228
f 190 229 189
f 190 185 229
f 223 224 228
f 223 215 224
f 224 216 225
f 224 225 231
f 232 226 222
f 227 232 222
f 232 225 226
f 231 225 232
f 190 227 221
f 190 189 227
f 230 232 227
f 189 230 227
f 230 231 232
f 229 231 230
f 228 231 229
f 228 224 231
f 236 234 233
f 235 234 236
f 235 237 234
f 238 237 235
f 238 239 237
f 240 239 238
f 242 241 239
f 242 239 240
f 243 240 244
f 243 242 240
f 236 233 241
f 236 241 242
f 246 235 236
f 245 235 246
f 247 238 235
f 247 235 245
f 244 240 238
f 244 238 247
f 246 236 242
f 246 242 243
f 249 245 246
f 248 245 249
f 250 247 245
f 250 245 248
f 251 244 247
f 251 247 250
f 252 243 244
f 252 244 251
f 249 246 243
f 249 243 252
f 253 248 249
f 253 249 254
f 255 250 248
f 255 248 253
f 256 251 250
f 256 250 255
f 257 252 251
f 257 251 256
f 254 249 252
f 254 252 257
f 237 241 233
f 237 233 234
f 239 241 237
f 255 254 257
f 255 253 254
f 256 255 257
f 261 258 259
f 260 261 259
f 260 259 262
f 263 260 262
f 263 262 264
f 265 263 264
f 267 264 266
f 267 265 264
f 268 269 265
f 268 265 267
f 261 266 258
f 261 267 266
f 271 261 260
f 270 271 260
f 272 260 263
f 272 270 260
f 269 263 265
f 269 272 263
f 271 267 261
f 271 268 267
f 274 271 270
f 273 274 270
f 275 270 272
f 275 273 270
f 276 272 269
f 276 275 272
f 276 269 268
f 277 276 268
f 274 268 271
f 274 277 268
f 278 274 273
f 278 279 274
f 280 273 275
f 280 278 273
f 281 275 276
f 281 280 275
f 281 276 277
f 282 281 277
f 279 277 274
f 279 282 277
f 262 258 266
f 262 259 258
f 264 262 266
f 280 282 279
f 280 279 278
f 281 282 280
f 285 284 283
f 286 285 283
f 283 288 287
f 283 284 288
f 290 285 286
f 290 289 285
f 286 283 287
f 296 286 287
f 292 291 295
f 294 292 295
f 293 292 294
f 286 296 290
f 295 290 296
f 295 291 290
f 297 296 287
f 285 288 284
f 303 288 285
f 299 302 298
f 301 302 299
f 300 301 299
f 285 289 303
f 302 303 289
f 302 289 298
f 304 288 303
f 288 304 297
f 287 288 297
f 291 289 290
f 291 298 289
f 304 308 307
f 303 308 304
f 297 307 305
f 297 304 307
f 306 296 297
f 306 297 305
f 309 296 306
f 309 295 296
f 301 311 302
f 312 311 301
f 294 295 309
f 310 301 294
f 310 312 301
f 310 294 309
f 294 300 293
f 294 301 300
f 300 299 292
f 293 300 292
f 299 298 291
f 292 299 291
f 311 308 303
f 302 311 303
f 310 309 313
f 306 305 309
f 313 309 305
f 312 314 311
f 308 311 307
f 314 307 311
f 307 314 313
f 305 307 313
f 314 312 316
f 318 314 316
f 315 312 310
f 315 316 312
f 313 317 315
f 313 315 310
f 314 317 313
f 314 318 317
f 319 316 315
f 319 320 316
f 318 316 320
f 317 320 319
f 317 318 320
f 317 319 315
f 322 323 321
f 324 323 322
f 322 321 325
f 322 325 326
f 327 322 326
f 327 324 322
f 328 330 329
f 331 328 327
f 331 327 326
f 331 330 328
f 324 327 332
f 324 332 323
f 332 325 321
f 323 332 321
f 333 332 336
f 333 325 332
f 334 336 335
f 334 333 336
f 326 325 333
f 326 333 331
f 337 333 334
f 337 331 333
f 337 330 331
f 337 334 330
f 330 335 329
f 330 334 335
f 329 335 336
f 328 329 336
f 328 336 332
f 327 328 332
f 341 339 338
f 341 338 340
f 339 342 338
f 339 343 342
f 345 344 339
f 345 339 341
f 347 340 346
f 341 340 347
f 346 340 338
f 342 346 338
f 348 350 349
f 351 348 346
f 351 346 342
f 351 350 348
f 344 343 339
f 344 352 343
f 343 351 342
f 343 354 351
f 352 353 354
f 352 354 343
f 356 355 344
f 356 344 345
f 345 347 357
f 345 341 347
f 358 346 348
f 347 346 358
f 354 350 351
f 354 359 350
f 360 349 350
f 359 360 350
f 358 348 349
f 358 349 360
f 355 352 344
f 355 361 352
f 361 353 352
f 361 362 353
f 353 359 354
f 353 363 359
f 364 355 356
f 364 322 355
f 356 357 365
f 356 345 357
f 357 347 358
f 357 358 366
f 367 360 359
f 363 367 359
f 367 358 360
f 366 358 367
f 322 361 355
f 322 326 361
f 326 362 361
f 326 331 362
f 362 363 353
f 362 368 363
f 369 326 322
f 369 322 364
f 370 371 330
f 331 369 370
f 331 326 369
f 331 370 330
f 364 365 369
f 364 356 365
f 365 357 366
f 365 366 372
f 373 367 363
f 368 373 363
f 373 366 367
f 372 366 373
f 331 368 362
f 331 330 368
f 371 373 368
f 330 371 368
f 371 372 373
f 370 372 371
f 369 372 370
f 369 365 372
f 377 375 374
f 376 375 377
f 376 378 375
f 379 378 376
f 379 380 378
f 381 380 379
f 383 382 380
f 383 380 381
f 384 381 385
f 384 383 381
f 377 374 382
f 377 382 383
f 387 376 377
f 386 376 387
f 388 379 376
f 388 376 386
f 385 381 379
f 385 379 388
f 387 377 383
f 387 383 384
f 390 386 387
f 389 386 390
f 391 388 386
f 391 386 389
f 392 385 388
f 392 388 391
f 393 384 385
f 393 385 392
f 390 387 384
f 390 384 393
f 394 389 390
f 394 390 395
f 396 391 389
f 396 389 394
f 397 392 391
f 397 391 396
f 398 393 392
f 398 392 397
f 395 390 393
f 395 393 398
f 378 382 374
f 378 374 375
f 380 382 378
f 396 395 398
f 396 394 395
f 397 396 398
f 402 399 400
f 401 402 400
f 401 400 403
f 404 401 403
f 404 403 405
f 406 404 405
f 408 405 407
f 408 406 405
f 409 410 406
f 409 406 408
f 402 407 399
f 402 408 407
f 412 402 401
f 411 412 401
f 413 401 404
f 413 411 401
f 410 404 406
f 410 413 404
f 412 408 402
f 412 409 408
f 415 412 411
f 414 415 411
f 416 411 413
f 416 414 411
f 417 413 410
f 417 416 413
f 417 410 409
f 418 417 409
f 415 409 412
f 415 418 409
f 419 415 414
f 419 420 415
f 421 414 416
f 421 419 414
f 422 416 417
f 422 421 416
f 422 417 418
f 423 422 418
f 420 418 415
f 420 423 418
f 403 399 407
f 403 400 399
f 405 403 407
f 421 423 420
f 421 420 419
f 422 423 421

