# https://github.com/mikedh/trimesh
v 0.08530350 0.04925000 -0.61000000
v 0.08716500 0.04602580 -0.66027778
v 0.11011467 0.05927580 -1.05074384
v 0.10825318 0.06250000 -1.02500000
v 0.09770909 0.05426290 -0.83650540
v 0.08773771 0.04503382 -0.71055556
v 0.11068739 0.05828382 -1.07648768
v 0.08805862 0.04447800 -0.76083333
v 0.11100829 0.05772800 -1.10223152
v 0.08823249 0.04417684 -0.81111111
v 0.11118217 0.05742684 -1.12797536
v 0.08830350 0.04405385 -0.86138889
v 0.11125318 0.05730385 -1.15371920
v 0.08829665 0.04406571 -0.91166667
v 0.11124633 0.05731571 -1.17946304
v 0.08822836 0.04418400 -0.96194444
v 0.11117803 0.05743400 -1.20520688
v 0.08811030 0.04438848 -1.01222222
v 0.11105998 0.05763848 -1.23095072
v 0.08795115 0.04466413 -1.06250000
v 0.11090083 0.05791413 -1.25669456
v 0.08775746 0.04499963 -1.11277778
v 0.11070713 0.05824963 -1.28243840
v 0.08753410 0.04538648 -1.16305556
v 0.11048378 0.05863648 -1.30818224
v 0.08728465 0.04581856 -1.21333333
v 0.11023432 0.05906856 -1.33392608
v 0.08701146 0.04629173 -1.26361111
v 0.10996113 0.05954173 -1.35966992
v 0.08671588 0.04680370 -1.31388889
v 0.10966555 0.06005370 -1.38541376
v 0.08639826 0.04735383 -1.36416667
v 0.10934793 0.06060383 -1.41115760
v 0.08605806 0.04794306 -1.41444444
v 0.10900774 0.06119306 -1.43690144
v 0.08569389 0.04857382 -1.46472222
v 0.10864357 0.06182382 -1.46264528
v 0.08530350 0.04925000 -1.51500000
v 0.10825318 0.06250000 -1.48838912
v 0.08491311 0.04992618 -1.46472222
v 0.10786279 0.06317618 -1.46264528
v 0.08454894 0.05055694 -1.41444444
v 0.10749861 0.06380694 -1.43690144
v 0.08420875 0.05114617 -1.36416667
v 0.10715842 0.06439617 -1.41115760
v 0.08389113 0.05169630 -1.31388889
v 0.10684080 0.06494630 -1.38541376
v 0.08359554 0.05220827 -1.26361111
v 0.10654522 0.06545827 -1.35966992
v 0.08332236 0.05268144 -1.21333333
v 0.10627203 0.06593144 -1.33392608
v 0.08307290 0.05311352 -1.16305556
v 0.10602257 0.06636352 -1.30818224
v 0.08284955 0.05350037 -1.11277778
v 0.10579922 0.06675037 -1.28243840
v 0.08265585 0.05383587 -1.06250000
v 0.10560552 0.06708587 -1.25669456
v 0.08249670 0.05411152 -1.01222222
v 0.10544637 0.06736152 -1.23095072
v 0.08237864 0.05431600 -0.96194444
v 0.10532832 0.06756600 -1.20520688
v 0.08231035 0.05443429 -0.91166667
v 0.10526002 0.06768429 -1.17946304
v 0.08230350 0.05444615 -0.86138889
v 0.10525318 0.06769615 -1.15371920
v 0.08237451 0.05432316 -0.81111111
v 0.10532418 0.06757316 -1.12797536
v 0.08254838 0.05402200 -0.76083333
v 0.10549806 0.06727200 -1.10223152
v 0.08286929 0.05346618 -0.71055556
v 0.10581896 0.06671618 -1.07648768
v 0.08344201 0.05247420 -0.66027778
v 0.10639168 0.06572420 -1.05074384
v 0.09463049 0.05959519 -0.87451621
v 0.09584759 0.05748710 -0.83650540
v 0.19003453 0.10685053 -1.15888889
v 0.18879354 0.10900000 -1.14500000
v 0.19041635 0.10618921 -1.17277778
v 0.19063028 0.10581866 -1.18666667
v 0.19074620 0.10561789 -1.20055556
v 0.19079354 0.10553590 -1.21444444
v 0.19078897 0.10554381 -1.22833333
v 0.19074344 0.10562266 -1.24222222
v 0.19066474 0.10575899 -1.25611111
v 0.19055864 0.10594275 -1.27000000
v 0.19042951 0.10616642 -1.28388889
v 0.19028061 0.10642432 -1.29777778
v 0.19011430 0.10671237 -1.31166667
v 0.18993218 0.10702782 -1.32555556
v 0.18973512 0.10736913 -1.33944444
v 0.18952337 0.10773589 -1.35333333
v 0.18929658 0.10812871 -1.36722222
v 0.18905380 0.10854922 -1.38111111
v 0.18879354 0.10900000 -1.39500000
v 0.18853328 0.10945078 -1.38111111
v 0.18829050 0.10987129 -1.36722222
v 0.18806370 0.11026411 -1.35333333
v 0.18785196 0.11063087 -1.33944444
v 0.18765490 0.11097218 -1.32555556
v 0.18747277 0.11128763 -1.31166667
v 0.18730647 0.11157568 -1.29777778
v 0.18715757 0.11183358 -1.28388889
v 0.18702844 0.11205725 -1.27000000
v 0.18692234 0.11224101 -1.25611111
v 0.18684363 0.11237734 -1.24222222
v 0.18679810 0.11245619 -1.22833333
v 0.18679354 0.11246410 -1.21444444
v 0.18684088 0.11238211 -1.20055556
v 0.18695679 0.11218134 -1.18666667
v 0.18717073 0.11181079 -1.17277778
v 0.18755254 0.11114947 -1.15888889
v 0.08057145 0.05344615 -1.51500000
v 0.08657145 0.04305385 -1.51500000
v 0.08907145 0.03872372 -1.47000000
v 0.07807145 0.05777628 -1.47000000
v 0.09003555 0.04505385 -1.51500000
v 0.09253555 0.04072372 -1.47000000
v 0.08910837 0.04825977 -1.51500000
v 0.09259664 0.04761791 -1.47000000
v 0.09106903 0.04541381 -1.49250000
v 0.08634837 0.05304023 -1.51500000
v 0.08753664 0.05638209 -1.47000000
v 0.08403555 0.05544615 -1.51500000
v 0.08153555 0.05977628 -1.47000000
v 0.08486403 0.05616119 -1.49250000
v 0.09007145 0.03699167 -1.35000000
v 0.07707145 0.05950833 -1.35000000
v 0.09353555 0.03899167 -1.35000000
v 0.09652074 0.04882117 -1.35000000
v 0.09379712 0.04403862 -1.41000000
v 0.09054074 0.05917883 -1.35000000
v 0.08053555 0.06150833 -1.35000000
v 0.08503712 0.05921138 -1.41000000
v 0.08957145 0.03785770 -0.85000000
v 0.07757145 0.05864230 -0.85000000
v 0.09303555 0.03985770 -0.85000000
v 0.09629074 0.04921954 -0.85000000
v 0.09077074 0.05878046 -0.85000000
v 0.08103555 0.06064230 -0.85000000
v 0.08807145 0.04045577 -0.70000000
v 0.07907145 0.05604423 -0.70000000
v 0.09153555 0.04245577 -0.70000000
v 0.09127062 0.04791465 -0.70000000
v 0.09303312 0.04486192 -0.77500000
v 0.09206433 0.04341491 -0.73750000
v 0.09237187 0.04663222 -0.73750000
v 0.08713062 0.05508535 -0.70000000
v 0.08253555 0.05804423 -0.70000000
v 0.08536812 0.05813808 -0.77500000
v 0.08657062 0.05668028 -0.73750000
v 0.08363058 0.05802259 -0.73750000
v 0.08557145 0.04478590 -0.61000000
v 0.08157145 0.05171410 -0.61000000
v 0.08903555 0.04678590 -0.61000000
v 0.08864837 0.04905651 -0.61000000
v 0.08680837 0.05224349 -0.61000000
v 0.08503555 0.05371410 -0.61000000
v 0.00000000 -0.09850000 -0.61000000
v -0.00372299 -0.09850000 -0.66027778
v -0.00372299 -0.12500000 -1.05074384
v 0.00000000 -0.12500000 -1.02500000
v -0.00186150 -0.11175000 -0.83650540
v -0.00486842 -0.09850000 -0.71055556
v -0.00486842 -0.12500000 -1.07648768
v -0.00551024 -0.09850000 -0.76083333
v -0.00551024 -0.12500000 -1.10223152
v -0.00585798 -0.09850000 -0.81111111
v -0.00585798 -0.12500000 -1.12797536
v -0.00600000 -0.09850000 -0.86138889
v -0.00600000 -0.12500000 -1.15371920
v -0.00598630 -0.09850000 -0.91166667
v -0.00598630 -0.12500000 -1.17946304
v -0.00584972 -0.09850000 -0.96194444
v -0.00584972 -0.12500000 -1.20520688
v -0.00561360 -0.09850000 -1.01222222
v -0.00561360 -0.12500000 -1.23095072
v -0.00529530 -0.09850000 -1.06250000
v -0.00529530 -0.12500000 -1.25669456
v -0.00490791 -0.09850000 -1.11277778
v -0.00490791 -0.12500000 -1.28243840
v -0.00446120 -0.09850000 -1.16305556
v -0.00446120 -0.12500000 -1.30818224
v -0.00396229 -0.09850000 -1.21333333
v -0.00396229 -0.12500000 -1.33392608
v -0.00341592 -0.09850000 -1.26361111
v -0.00341592 -0.12500000 -1.35966992
v -0.00282475 -0.09850000 -1.31388889
v -0.00282475 -0.12500000 -1.38541376
v -0.00218951 -0.09850000 -1.36416667
v -0.00218951 -0.12500000 -1.41115760
v -0.00150912 -0.09850000 -1.41444444
v -0.00150912 -0.12500000 -1.43690144
v -0.00078078 -0.09850000 -1.46472222
v -0.00078078 -0.12500000 -1.46264528
v 0.00000000 -0.09850000 -1.51500000
v 0.00000000 -0.12500000 -1.48838912
v 0.00078078 -0.09850000 -1.46472222
v 0.00078078 -0.12500000 -1.46264528
v 0.00150912 -0.09850000 -1.41444444
v 0.00150912 -0.12500000 -1.43690144
v 0.00218951 -0.09850000 -1.36416667
v 0.00218951 -0.12500000 -1.41115760
v 0.00282475 -0.09850000 -1.31388889
v 0.00282475 -0.12500000 -1.38541376
v 0.00341592 -0.09850000 -1.26361111
v 0.00341592 -0.12500000 -1.35966992
v 0.00396229 -0.09850000 -1.21333333
v 0.00396229 -0.12500000 -1.33392608
v 0.00446120 -0.09850000 -1.16305556
v 0.00446120 -0.12500000 -1.30818224
v 0.00490791 -0.09850000 -1.11277778
v 0.00490791 -0.12500000 -1.28243840
v 0.00529530 -0.09850000 -1.06250000
v 0.00529530 -0.12500000 -1.25669456
v 0.00561360 -0.09850000 -1.01222222
v 0.00561360 -0.12500000 -1.23095072
v 0.00584972 -0.09850000 -0.96194444
v 0.00584972 -0.12500000 -1.20520688
v 0.00598630 -0.09850000 -0.91166667
v 0.00598630 -0.12500000 -1.17946304
v 0.00600000 -0.09850000 -0.86138889
v 0.00600000 -0.12500000 -1.15371920
v 0.00585798 -0.09850000 -0.81111111
v 0.00585798 -0.12500000 -1.12797536
v 0.00551024 -0.09850000 -0.76083333
v 0.00551024 -0.12500000 -1.10223152
v 0.00486842 -0.09850000 -0.71055556
v 0.00486842 -0.12500000 -1.07648768
v 0.00372299 -0.09850000 -0.66027778
v 0.00372299 -0.12500000 -1.05074384
v 0.00429571 -0.11175000 -0.87451621
v 0.00186150 -0.11175000 -0.83650540
v -0.00248199 -0.21800000 -1.15888889
v 0.00000000 -0.21800000 -1.14500000
v -0.00324562 -0.21800000 -1.17277778
v -0.00367349 -0.21800000 -1.18666667
v -0.00390532 -0.21800000 -1.20055556
v -0.00400000 -0.21800000 -1.21444444
v -0.00399087 -0.21800000 -1.22833333
v -0.00389981 -0.21800000 -1.24222222
v -0.00374240 -0.21800000 -1.25611111
v -0.00353020 -0.21800000 -1.27000000
v -0.00327194 -0.21800000 -1.28388889
v -0.00297414 -0.21800000 -1.29777778
v -0.00264153 -0.21800000 -1.31166667
v -0.00227728 -0.21800000 -1.32555556
v -0.00188316 -0.21800000 -1.33944444
v -0.00145967 -0.21800000 -1.35333333
v -0.00100608 -0.21800000 -1.36722222
v -0.00052052 -0.21800000 -1.38111111
v 0.00000000 -0.21800000 -1.39500000
v 0.00052052 -0.21800000 -1.38111111
v 0.00100608 -0.21800000 -1.36722222
v 0.00145967 -0.21800000 -1.35333333
v 0.00188316 -0.21800000 -1.33944444
v 0.00227728 -0.21800000 -1.32555556
v 0.00264153 -0.21800000 -1.31166667
v 0.00297414 -0.21800000 -1.29777778
v 0.00327194 -0.21800000 -1.28388889
v 0.00353020 -0.21800000 -1.27000000
v 0.00374240 -0.21800000 -1.25611111
v 0.00389981 -0.21800000 -1.24222222
v 0.00399087 -0.21800000 -1.22833333
v 0.00400000 -0.21800000 -1.21444444
v 0.00390532 -0.21800000 -1.20055556
v 0.00367349 -0.21800000 -1.18666667
v 0.00324562 -0.21800000 -1.17277778
v 0.00248199 -0.21800000 -1.15888889
v 0.00600000 -0.09650000 -1.51500000
v -0.00600000 -0.09650000 -1.51500000
v -0.01100000 -0.09650000 -1.47000000
v 0.01100000 -0.09650000 -1.47000000
v -0.00600000 -0.10050000 -1.51500000
v -0.01100000 -0.10050000 -1.47000000
v -0.00276000 -0.10130000 -1.51500000
v -0.00506000 -0.10400000 -1.47000000
v -0.00620500 -0.10157500 -1.49250000
v 0.00276000 -0.10130000 -1.51500000
v 0.00506000 -0.10400000 -1.47000000
v 0.00600000 -0.10050000 -1.51500000
v 0.01100000 -0.10050000 -1.47000000
v 0.00620500 -0.10157500 -1.49250000
v -0.01300000 -0.09650000 -1.35000000
v 0.01300000 -0.09650000 -1.35000000
v -0.01300000 -0.10050000 -1.35000000
v -0.00598000 -0.10800000 -1.35000000
v -0.00876000 -0.10325000 -1.41000000
v 0.00598000 -0.10800000 -1.35000000
v 0.01300000 -0.10050000 -1.35000000
v 0.00876000 -0.10325000 -1.41000000
v -0.01200000 -0.09650000 -0.85000000
v 0.01200000 -0.09650000 -0.85000000
v -0.01200000 -0.10050000 -0.85000000
v -0.00552000 -0.10800000 -0.85000000
v 0.00552000 -0.10800000 -0.85000000
v 0.01200000 -0.10050000 -0.85000000
v -0.00900000 -0.09650000 -0.70000000
v 0.00900000 -0.09650000 -0.70000000
v -0.00900000 -0.10050000 -0.70000000
v -0.00414000 -0.10300000 -0.70000000
v -0.00766500 -0.10300000 -0.77500000
v -0.00843375 -0.10143750 -0.73750000
v -0.00580125 -0.10331250 -0.73750000
v 0.00414000 -0.10300000 -0.70000000
v 0.00900000 -0.10050000 -0.70000000
v 0.00766500 -0.10300000 -0.77500000
v 0.00580125 -0.10331250 -0.73750000
v 0.00843375 -0.10143750 -0.73750000
v -0.00400000 -0.09650000 -0.61000000
v 0.00400000 -0.09650000 -0.61000000
v -0.00400000 -0.10050000 -0.61000000
v -0.00184000 -0.10130000 -0.61000000
v 0.00184000 -0.10130000 -0.61000000
v 0.00400000 -0.10050000 -0.61000000
v -0.08530350 0.04925000 -0.61000000
v -0.08344201 0.05247420 -0.66027778
v -0.10639168 0.06572420 -1.05074384
v -0.10825318 0.06250000 -1.02500000
v -0.09584759 0.05748710 -0.83650540
v -0.08286929 0.05346618 -0.71055556
v -0.10581896 0.06671618 -1.07648768
v -0.08254838 0.05402200 -0.76083333
v -0.10549806 0.06727200 -1.10223152
v -0.08237451 0.05432316 -0.81111111
v -0.10532418 0.06757316 -1.12797536
v -0.08230350 0.05444615 -0.86138889
v -0.10525318 0.06769615 -1.15371920
v -0.08231035 0.05443429 -0.91166667
v -0.10526002 0.06768429 -1.17946304
v -0.08237864 0.05431600 -0.96194444
v -0.10532832 0.06756600 -1.20520688
v -0.08249670 0.05411152 -1.01222222
v -0.10544637 0.06736152 -1.23095072
v -0.08265585 0.05383587 -1.06250000
v -0.10560552 0.06708587 -1.25669456
v -0.08284955 0.05350037 -1.11277778
v -0.10579922 0.06675037 -1.28243840
v -0.08307290 0.05311352 -1.16305556
v -0.10602257 0.06636352 -1.30818224
v -0.08332236 0.05268144 -1.21333333
v -0.10627203 0.06593144 -1.33392608
v -0.08359554 0.05220827 -1.26361111
v -0.10654522 0.06545827 -1.35966992
v -0.08389113 0.05169630 -1.31388889
v -0.10684080 0.06494630 -1.38541376
v -0.08420875 0.05114617 -1.36416667
v -0.10715842 0.06439617 -1.41115760
v -0.08454894 0.05055694 -1.41444444
v -0.10749861 0.06380694 -1.43690144
v -0.08491311 0.04992618 -1.46472222
v -0.10786279 0.06317618 -1.46264528
v -0.08530350 0.04925000 -1.51500000
v -0.10825318 0.06250000 -1.48838912
v -0.08569389 0.04857382 -1.46472222
v -0.10864357 0.06182382 -1.46264528
v -0.08605806 0.04794306 -1.41444444
v -0.10900774 0.06119306 -1.43690144
v -0.08639826 0.04735383 -1.36416667
v -0.10934793 0.06060383 -1.41115760
v -0.08671588 0.04680370 -1.31388889
v -0.10966555 0.06005370 -1.38541376
v -0.08701146 0.04629173 -1.26361111
v -0.10996113 0.05954173 -1.35966992
v -0.08728465 0.04581856 -1.21333333
v -0.11023432 0.05906856 -1.33392608
v -0.08753410 0.04538648 -1.16305556
v -0.11048378 0.05863648 -1.30818224
v -0.08775746 0.04499963 -1.11277778
v -0.11070713 0.05824963 -1.28243840
v -0.08795115 0.04466413 -1.06250000
v -0.11090083 0.05791413 -1.25669456
v -0.08811030 0.04438848 -1.01222222
v -0.11105998 0.05763848 -1.23095072
v -0.08822836 0.04418400 -0.96194444
v -0.11117803 0.05743400 -1.20520688
v -0.08829665 0.04406571 -0.91166667
v -0.11124633 0.05731571 -1.17946304
v -0.08830350 0.04405385 -0.86138889
v -0.11125318 0.05730385 -1.15371920
v -0.08823249 0.04417684 -0.81111111
v -0.11118217 0.05742684 -1.12797536
v -0.08805862 0.04447800 -0.76083333
v -0.11100829 0.05772800 -1.10223152
v -0.08773771 0.04503382 -0.71055556
v -0.11068739 0.05828382 -1.07648768
v -0.08716500 0.04602580 -0.66027778
v -0.11011467 0.05927580 -1.05074384
v -0.09892619 0.05215481 -0.87451621
v -0.09770909 0.05426290 -0.83650540
v -0.18755254 0.11114947 -1.15888889
v -0.18879354 0.10900000 -1.14500000
v -0.18717073 0.11181079 -1.17277778
v -0.18695679 0.11218134 -1.18666667
v -0.18684088 0.11238211 -1.20055556
v -0.18679354 0.11246410 -1.21444444
v -0.18679810 0.11245619 -1.22833333
v -0.18684363 0.11237734 -1.24222222
v -0.18692234 0.11224101 -1.25611111
v -0.18702844 0.11205725 -1.27000000
v -0.18715757 0.11183358 -1.28388889
v -0.18730647 0.11157568 -1.29777778
v -0.18747277 0.11128763 -1.31166667
v -0.18765490 0.11097218 -1.32555556
v -0.18785196 0.11063087 -1.33944444
v -0.18806370 0.11026411 -1.35333333
v -0.18829050 0.10987129 -1.36722222
v -0.18853328 0.10945078 -1.38111111
v -0.18879354 0.10900000 -1.39500000
v -0.18905380 0.10854922 -1.38111111
v -0.18929658 0.10812871 -1.36722222
v -0.18952337 0.10773589 -1.35333333
v -0.18973512 0.10736913 -1.33944444
v -0.18993218 0.10702782 -1.32555556
v -0.19011430 0.10671237 -1.31166667
v -0.19028061 0.10642432 -1.29777778
v -0.19042951 0.10616642 -1.28388889
v -0.19055864 0.10594275 -1.27000000
v -0.19066474 0.10575899 -1.25611111
v -0.19074344 0.10562266 -1.24222222
v -0.19078897 0.10554381 -1.22833333
v -0.19079354 0.10553590 -1.21444444
v -0.19074620 0.10561789 -1.20055556
v -0.19063028 0.10581866 -1.18666667
v -0.19041635 0.10618921 -1.17277778
v -0.19003453 0.10685053 -1.15888889
v -0.08657145 0.04305385 -1.51500000
v -0.08057145 0.05344615 -1.51500000
v -0.07807145 0.05777628 -1.47000000
v -0.08907145 0.03872372 -1.47000000
v -0.08403555 0.05544615 -1.51500000
v -0.08153555 0.05977628 -1.47000000
v -0.08634837 0.05304023 -1.51500000
v -0.08753664 0.05638209 -1.47000000
v -0.08486403 0.05616119 -1.49250000
v -0.08910837 0.04825977 -1.51500000
v -0.09259664 0.04761791 -1.47000000
v -0.09003555 0.04505385 -1.51500000
v -0.09253555 0.04072372 -1.47000000
v -0.09106903 0.04541381 -1.49250000
v -0.07707145 0.05950833 -1.35000000
v -0.09007145 0.03699167 -1.35000000
v -0.08053555 0.06150833 -1.35000000
v -0.09054074 0.05917883 -1.35000000
v -0.08503712 0.05921138 -1.41000000
v -0.09652074 0.04882117 -1.35000000
v -0.09353555 0.03899167 -1.35000000
v -0.09379712 0.04403862 -1.41000000
v -0.07757145 0.05864230 -0.85000000
v -0.08957145 0.03785770 -0.85000000
v -0.08103555 0.06064230 -0.85000000
v -0.09077074 0.05878046 -0.85000000
v -0.09629074 0.04921954 -0.85000000
v -0.09303555 0.03985770 -0.85000000
v -0.07907145 0.05604423 -0.70000000
v -0.08807145 0.04045577 -0.70000000
v -0.08253555 0.05804423 -0.70000000
v -0.08713062 0.05508535 -0.70000000
v -0.08536812 0.05813808 -0.77500000
v -0.08363058 0.05802259 -0.73750000
v -0.08657062 0.05668028 -0.73750000
v -0.09127062 0.04791465 -0.70000000
v -0.09153555 0.04245577 -0.70000000
v -0.09303312 0.04486192 -0.77500000
v -0.09237187 0.04663222 -0.73750000
v -0.09206433 0.04341491 -0.73750000
v -0.08157145 0.05171410 -0.61000000
v -0.08557145 0.04478590 -0.61000000
v -0.08503555 0.05371410 -0.61000000
v -0.08680837 0.05224349 -0.61000000
v -0.08864837 0.04905651 -0.61000000
v -0.08903555 0.04678590 -0.61000000
f 5 1 2
f 5 2 3
f 5 3 4
f 5 4 1
f 7 2 6
f 7 3 2
f 9 6 8
f 9 7 6
f 11 8 10
f 11 9 8
f 13 10 12
f 13 11 10
f 15 12 14
f 15 13 12
f 15 14 16
f 17 15 16
f 19 16 18
f 19 17 16
f 21 18 20
f 21 19 18
f 23 20 22
f 23 21 20
f 25 22 24
f 25 23 22
f 27 24 26
f 27 25 24
f 29 26 28
f 29 27 26
f 31 28 30
f 31 29 28
f 33 30 32
f 33 31 30
f 35 32 34
f 35 33 32
f 37 34 36
f 37 35 34
f 38 37 36
f 39 37 38
f 40 39 38
f 41 39 40
f 43 40 42
f 43 41 40
f 45 42 44
f 45 43 42
f 47 44 46
f 47 45 44
f 49 46 48
f 49 47 46
f 51 48 50
f 51 49 48
f 51 50 52
f 53 51 52
f 55 52 54
f 55 53 52
f 57 54 56
f 57 55 54
f 59 56 58
f 59 57 56
f 61 58 60
f 61 59 58
f 61 60 62
f 63 61 62
f 65 62 64
f 65 63 62
f 67 64 66
f 67 65 64
f 69 66 68
f 69 67 66
f 71 68 70
f 71 69 68
f 74 70 72
f 74 72 73
f 74 73 71
f 74 71 70
f 75 72 1
f 75 1 4
f 75 4 73
f 75 73 72
f 76 4 3
f 76 77 4
f 76 3 7
f 78 76 7
f 79 7 9
f 79 78 7
f 80 9 11
f 80 79 9
f 81 11 13
f 81 80 11
f 82 13 15
f 82 81 13
f 83 15 17
f 83 82 15
f 84 17 19
f 84 83 17
f 85 19 21
f 85 84 19
f 86 21 23
f 86 85 21
f 86 23 25
f 87 86 25
f 88 25 27
f 88 87 25
f 89 27 29
f 89 88 27
f 90 29 31
f 90 89 29
f 91 31 33
f 91 90 31
f 91 33 35
f 92 91 35
f 92 35 37
f 93 92 37
f 94 37 39
f 94 93 37
f 95 39 41
f 95 94 39
f 96 41 43
f 96 95 41
f 97 43 45
f 97 96 43
f 98 45 47
f 98 97 45
f 99 47 49
f 99 98 47
f 100 49 51
f 100 99 49
f 101 51 53
f 101 100 51
f 102 53 55
f 102 101 53
f 103 55 57
f 103 102 55
f 104 57 59
f 104 103 57
f 105 59 61
f 105 104 59
f 106 61 63
f 106 105 61
f 107 63 65
f 107 106 63
f 108 65 67
f 108 107 65
f 109 67 69
f 109 108 67
f 110 69 71
f 110 109 69
f 110 71 73
f 111 110 73
f 111 73 4
f 77 111 4
f 2 1 72
f 6 72 70
f 6 2 72
f 8 70 68
f 8 6 70
f 66 8 68
f 10 8 66
f 12 66 64
f 12 10 66
f 14 64 62
f 14 12 64
f 60 14 62
f 16 14 60
f 58 16 60
f 18 16 58
f 20 58 56
f 20 18 58
f 22 56 54
f 22 20 56
f 24 54 52
f 24 22 54
f 26 52 50
f 26 24 52
f 28 50 48
f 28 26 50
f 30 48 46
f 30 28 48
f 32 46 44
f 32 30 46
f 34 44 42
f 34 32 44
f 36 34 42
f 36 42 40
f 38 36 40
f 76 111 77
f 78 110 111
f 78 111 76
f 79 109 110
f 79 110 78
f 80 108 109
f 80 109 79
f 81 107 108
f 81 108 80
f 82 106 107
f 82 107 81
f 105 106 82
f 83 105 82
f 104 105 83
f 84 104 83
f 85 103 104
f 85 104 84
f 102 103 85
f 86 102 85
f 87 101 102
f 87 102 86
f 100 101 87
f 88 100 87
f 89 99 100
f 89 100 88
f 90 98 99
f 90 99 89
f 91 97 98
f 91 98 90
f 96 97 91
f 92 96 91
f 95 96 92
f 93 95 92
f 94 95 93
f 114 112 113
f 114 115 112
f 117 113 116
f 117 114 113
f 120 116 118
f 120 118 119
f 120 119 117
f 120 117 116
f 122 118 121
f 122 119 118
f 125 121 123
f 125 123 124
f 125 124 122
f 125 122 121
f 115 123 112
f 115 124 123
f 126 115 114
f 126 127 115
f 128 114 117
f 128 126 114
f 130 117 119
f 130 119 129
f 130 129 128
f 130 128 117
f 131 119 122
f 131 129 119
f 133 122 124
f 133 124 132
f 133 132 131
f 133 131 122
f 127 124 115
f 127 132 124
f 134 127 126
f 134 135 127
f 136 126 128
f 136 134 126
f 136 128 129
f 137 136 129
f 138 129 131
f 138 137 129
f 138 131 132
f 139 138 132
f 135 132 127
f 135 139 132
f 140 135 134
f 140 141 135
f 142 134 136
f 142 140 134
f 144 136 137
f 145 142 136
f 145 136 144
f 146 137 143
f 146 143 142
f 146 144 137
f 146 142 145
f 146 145 144
f 147 137 138
f 147 143 137
f 149 138 139
f 150 147 138
f 150 138 149
f 151 139 148
f 151 148 147
f 151 149 139
f 151 147 150
f 151 150 149
f 141 139 135
f 141 148 139
f 152 141 140
f 152 153 141
f 154 140 142
f 154 152 140
f 154 142 143
f 155 154 143
f 155 143 147
f 156 155 147
f 157 147 148
f 157 156 147
f 153 148 141
f 153 157 148
f 121 112 123
f 118 112 121
f 113 118 116
f 113 112 118
f 156 157 153
f 155 156 153
f 152 154 155
f 152 155 153
f 162 158 159
f 162 159 160
f 162 160 161
f 162 161 158
f 164 159 163
f 164 160 159
f 166 163 165
f 166 164 163
f 168 165 167
f 168 166 165
f 170 167 169
f 170 168 167
f 172 169 171
f 172 170 169
f 172 171 173
f 174 172 173
f 176 173 175
f 176 174 173
f 178 175 177
f 178 176 175
f 180 177 179
f 180 178 177
f 182 179 181
f 182 180 179
f 184 181 183
f 184 182 181
f 186 183 185
f 186 184 183
f 188 185 187
f 188 186 185
f 190 187 189
f 190 188 187
f 192 189 191
f 192 190 189
f 194 191 193
f 194 192 191
f 195 194 193
f 196 194 195
f 197 196 195
f 198 196 197
f 200 197 199
f 200 198 197
f 202 199 201
f 202 200 199
f 204 201 203
f 204 202 201
f 206 203 205
f 206 204 203
f 208 205 207
f 208 206 205
f 208 207 209
f 210 208 209
f 212 209 211
f 212 210 209
f 214 211 213
f 214 212 211
f 216 213 215
f 216 214 213
f 218 215 217
f 218 216 215
f 218 217 219
f 220 218 219
f 222 219 221
f 222 220 219
f 224 221 223
f 224 222 221
f 226 223 225
f 226 224 223
f 228 225 227
f 228 226 225
f 231 227 229
f 231 229 230
f 231 230 228
f 231 228 227
f 232 229 158
f 232 158 161
f 232 161 230
f 232 230 229
f 233 161 160
f 233 234 161
f 233 160 164
f 235 233 164
f 236 164 166
f 236 235 164
f 237 166 168
f 237 236 166
f 238 168 170
f 238 237 168
f 239 170 172
f 239 238 170
f 240 172 174
f 240 239 172
f 241 174 176
f 241 240 174
f 242 176 178
f 242 241 176
f 243 178 180
f 243 242 178
f 243 180 182
f 244 243 182
f 245 182 184
f 245 244 182
f 246 184 186
f 246 245 184
f 247 186 188
f 247 246 186
f 248 188 190
f 248 247 188
f 248 190 192
f 249 248 192
f 249 192 194
f 250 249 194
f 251 194 196
f 251 250 194
f 252 196 198
f 252 251 196
f 253 198 200
f 253 252 198
f 254 200 202
f 254 253 200
f 255 202 204
f 255 254 202
f 256 204 206
f 256 255 204
f 257 206 208
f 257 256 206
f 258 208 210
f 258 257 208
f 259 210 212
f 259 258 210
f 260 212 214
f 260 259 212
f 261 214 216
f 261 260 214
f 262 216 218
f 262 261 216
f 263 218 220
f 263 262 218
f 264 220 222
f 264 263 220
f 265 222 224
f 265 264 222
f 266 224 226
f 266 265 224
f 267 226 228
f 267 266 226
f 267 228 230
f 268 267 230
f 268 230 161
f 234 268 161
f 159 158 229
f 163 229 227
f 163 159 229
f 165 227 225
f 165 163 227
f 223 165 225
f 167 165 223
f 169 223 221
f 169 167 223
f 171 221 219
f 171 169 221
f 217 171 219
f 173 171 217
f 215 173 217
f 175 173 215
f 177 215 213
f 177 175 215
f 179 213 211
f 179 177 213
f 181 211 209
f 181 179 211
f 183 209 207
f 183 181 209
f 185 207 205
f 185 183 207
f 187 205 203
f 187 185 205
f 189 203 201
f 189 187 203
f 191 201 199
f 191 189 201
f 193 191 199
f 193 199 197
f 195 193 197
f 233 268 234
f 235 267 268
f 235 268 233
f 236 266 267
f 236 267 235
f 237 265 266
f 237 266 236
f 238 264 265
f 238 265 237
f 239 263 264
f 239 264 238
f 262 263 239
f 240 262 239
f 261 262 240
f 241 261 240
f 242 260 261
f 242 261 241
f 259 260 242
f 243 259 242
f 244 258 259
f 244 259 243
f 257 258 244
f 245 257 244
f 246 256 257
f 246 257 245
f 247 255 256
f 247 256 246
f 248 254 255
f 248 255 247
f 253 254 248
f 249 253 248
f 252 253 249
f 250 252 249
f 251 252 250
f 271 269 270
f 271 272 269
f 274 270 273
f 274 271 270
f 277 273 275
f 277 275 276
f 277 276 274
f 277 274 273
f 279 275 278
f 279 276 275
f 282 278 280
f 282 280 281
f 282 281 279
f 282 279 278
f 272 280 269
f 272 281 280
f 283 272 271
f 283 284 272
f 285 271 274
f 285 283 271
f 287 274 276
f 287 276 286
f 287 286 285
f 287 285 274
f 288 276 279
f 288 286 276
f 290 279 281
f 290 281 289
f 290 289 288
f 290 288 279
f 284 281 272
f 284 289 281
f 291 284 283
f 291 292 284
f 293 283 285
f 293 291 283
f 293 285 286
f 294 293 286
f 295 286 288
f 295 294 286
f 295 288 289
f 296 295 289
f 292 289 284
f 292 296 289
f 297 292 291
f 297 298 292
f 299 291 293
f 299 297 291
f 301 293 294
f 302 299 293
f 302 293 301
f 303 294 300
f 303 300 299
f 303 301 294
f 303 299 302
f 303 302 301
f 304 294 295
f 304 300 294
f 306 295 296
f 307 304 295
f 307 295 306
f 308 296 305
f 308 305 304
f 308 306 296
f 308 304 307
f 308 307 306
f 298 296 292
f 298 305 296
f 309 298 297
f 309 310 298
f 311 297 299
f 311 309 297
f 311 299 300
f 312 311 300
f 312 300 304
f 313 312 304
f 314 304 305
f 314 313 304
f 310 305 298
f 310 314 305
f 278 269 280
f 275 269 278
f 270 275 273
f 270 269 275
f 313 314 310
f 312 313 310
f 309 311 312
f 309 312 310
f 319 315 316
f 319 316 317
f 319 317 318
f 319 318 315
f 321 316 320
f 321 317 316
f 323 320 322
f 323 321 320
f 325 322 324
f 325 323 322
f 327 324 326
f 327 325 324
f 329 326 328
f 329 327 326
f 329 328 330
f 331 329 330
f 333 330 332
f 333 331 330
f 335 332 334
f 335 333 332
f 337 334 336
f 337 335 334
f 339 336 338
f 339 337 336
f 341 338 340
f 341 339 338
f 343 340 342
f 343 341 340
f 345 342 344
f 345 343 342
f 347 344 346
f 347 345 344
f 349 346 348
f 349 347 346
f 351 348 350
f 351 349 348
f 352 351 350
f 353 351 352
f 354 353 352
f 355 353 354
f 357 354 356
f 357 355 354
f 359 356 358
f 359 357 356
f 361 358 360
f 361 359 358
f 363 360 362
f 363 361 360
f 365 362 364
f 365 363 362
f 365 364 366
f 367 365 366
f 369 366 368
f 369 367 366
f 371 368 370
f 371 369 368
f 373 370 372
f 373 371 370
f 375 372 374
f 375 373 372
f 375 374 376
f 377 375 376
f 379 376 378
f 379 377 376
f 381 378 380
f 381 379 378
f 383 380 382
f 383 381 380
f 385 382 384
f 385 383 382
f 388 384 386
f 388 386 387
f 388 387 385
f 388 385 384
f 389 386 315
f 389 315 318
f 389 318 387
f 389 387 386
f 390 318 317
f 390 391 318
f 390 317 321
f 392 390 321
f 393 321 323
f 393 392 321
f 394 323 325
f 394 393 323
f 395 325 327
f 395 394 325
f 396 327 329
f 396 395 327
f 397 329 331
f 397 396 329
f 398 331 333
f 398 397 331
f 399 333 335
f 399 398 333
f 400 335 337
f 400 399 335
f 400 337 339
f 401 400 339
f 402 339 341
f 402 401 339
f 403 341 343
f 403 402 341
f 404 343 345
f 404 403 343
f 405 345 347
f 405 404 345
f 405 347 349
f 406 405 349
f 406 349 351
f 407 406 351
f 408 351 353
f 408 407 351
f 409 353 355
f 409 408 353
f 410 355 357
f 410 409 355
f 411 357 359
f 411 410 357
f 412 359 361
f 412 411 359
f 413 361 363
f 413 412 361
f 414 363 365
f 414 413 363
f 415 365 367
f 415 414 365
f 416 367 369
f 416 415 367
f 417 369 371
f 417 416 369
f 418 371 373
f 418 417 371
f 419 373 375
f 419 418 373
f 420 375 377
f 420 419 375
f 421 377 379
f 421 420 377
f 422 379 381
f 422 421 379
f 423 381 383
f 423 422 381
f 424 383 385
f 424 423 383
f 424 385 387
f 425 424 387
f 425 387 318
f 391 425 318
f 316 315 386
f 320 386 384
f 320 316 386
f 322 384 382
f 322 320 384
f 380 322 382
f 324 322 380
f 326 380 378
f 326 324 380
f 328 378 376
f 328 326 378
f 374 328 376
f 330 328 374
f 372 330 374
f 332 330 372
f 334 372 370
f 334 332 372
f 336 370 368
f 336 334 370
f 338 368 366
f 338 336 368
f 340 366 364
f 340 338 366
f 342 364 362
f 342 340 364
f 344 362 360
f 344 342 362
f 346 360 358
f 346 344 360
f 348 358 356
f 348 346 358
f 350 348 356
f 350 356 354
f 352 350 354
f 390 425 391
f 392 424 425
f 392 425 390
f 393 423 424
f 393 424 392
f 394 422 423
f 394 423 393
f 395 421 422
f 395 422 394
f 396 420 421
f 396 421 395
f 419 420 396
f 397 419 396
f 418 419 397
f 398 418 397
f 399 417 418
f 399 418 398
f 416 417 399
f 400 416 399
f 401 415 416
f 401 416 400
f 414 415 401
f 402 414 401
f 403 413 414
f 403 414 402
f 404 412 413
f 404 413 403
f 405 411 412
f 405 412 404
f 410 411 405
f 406 410 405
f 409 410 406
f 407 409 406
f 408 409 407
f 428 426 427
f 428 429 426
f 431 427 430
f 431 428 427
f 434 430 432
f 434 432 433
f 434 433 431
f 434 431 430
f 436 432 435
f 436 433 432
f 439 435 437
f 439 437 438
f 439 438 436
f 439 436 435
f 429 437 426
f 429 438 437
f 440 429 428
f 440 441 429
f 442 428 431
f 442 440 428
f 444 431 433
f 444 433 443
f 444 443 442
f 444 442 431
f 445 433 436
f 445 443 433
f 447 436 438
f 447 438 446
f 447 446 445
f 447 445 436
f 441 438 429
f 441 446 438
f 448 441 440
f 448 449 441
f 450 440 442
f 450 448 440
f 450 442 443
f 451 450 443
f 452 443 445
f 452 451 443
f 452 445 446
f 453 452 446
f 449 446 441
f 449 453 446
f 454 449 448
f 454 455 449
f 456 448 450
f 456 454 448
f 458 450 451
f 459 456 450
f 459 450 458
f 460 451 457
f 460 457 456
f 460 458 451
f 460 456 459
f 460 459 458
f 461 451 452
f 461 457 451
f 463 452 453
f 464 461 452
f 464 452 463
f 465 453 462
f 465 462 461
f 465 463 453
f 465 461 464
f 465 464 463
f 455 453 449
f 455 462 453
f 466 455 454
f 466 467 455
f 468 454 456
f 468 466 454
f 469 456 457
f 469 468 456
f 469 457 461
f 470 469 461
f 471 461 462
f 471 470 461
f 467 462 455
f 467 471 462
f 435 426 437
f 427 435 432
f 427 432 430
f 427 426 435
f 470 471 467
f 466 469 470
f 466 468 469
f 466 470 467

