# https://github.com/mikedh/trimesh
v 0.09705480 0.05603462 0.11430769
v 0.14895637 0.08600000 0.04500000
v 0.10033228 0.05521687 0.09001265
v 0.14988712 0.08438790 0.03055556
v 0.09798535 0.05928187 0.09001265
v 0.14802562 0.08761210 0.03055556
v 0.14773926 0.08810809 0.01611111
v 0.14757881 0.08838600 0.00166667
v 0.14749187 0.08853658 -0.01277778
v 0.14745637 0.08859808 -0.02722222
v 0.14745979 0.08859215 -0.04166667
v 0.14749394 0.08853300 -0.05611111
v 0.14755297 0.08843076 -0.07055556
v 0.14763254 0.08829293 -0.08500000
v 0.14772939 0.08812519 -0.09944444
v 0.14784107 0.08793176 -0.11388889
v 0.14796580 0.08771572 -0.12833333
v 0.14810239 0.08747914 -0.14277778
v 0.14825018 0.08722315 -0.15722222
v 0.14840899 0.08694809 -0.17166667
v 0.14857909 0.08665347 -0.18611111
v 0.14876117 0.08633809 -0.20055556
v 0.14895637 0.08600000 -0.21500000
v 0.14915156 0.08566191 -0.20055556
v 0.14933365 0.08534653 -0.18611111
v 0.14950375 0.08505191 -0.17166667
v 0.14966256 0.08477685 -0.15722222
v 0.14981035 0.08452086 -0.14277778
v 0.14994694 0.08428428 -0.12833333
v 0.15007167 0.08406824 -0.11388889
v 0.15018335 0.08387481 -0.09944444
v 0.15028020 0.08370707 -0.08500000
v 0.15035977 0.08356924 -0.07055556
v 0.15041880 0.08346700 -0.05611111
v 0.15045295 0.08340785 -0.04166667
v 0.15045637 0.08340192 -0.02722222
v 0.15042087 0.08346342 -0.01277778
v 0.15033393 0.08361400 0.00166667
v 0.15017348 0.08389191 0.01611111
v 0.10033356 0.05521718 0.09000000
v 0.10049002 0.05447116 0.06874259
v 0.10191991 0.05246954 0.09000000
v 0.09822581 0.05086791 0.13000000
v 0.09798626 0.05928282 0.09000000
v 0.09639991 0.06203046 0.09000000
v 0.09316581 0.05963209 0.13000000
v 0.09741841 0.05979133 0.06874259
v 0.10048762 0.05399875 0.04741627
v 0.10039208 0.05368637 0.02603204
v 0.10023110 0.05348602 0.00458964
v 0.10002036 0.05337059 -0.01691115
v 0.09977010 0.05332226 -0.03847058
v 0.09948765 0.05332840 -0.06008888
v 0.09917842 0.05337959 -0.08176630
v 0.09884649 0.05346877 -0.10350309
v 0.09849492 0.05359063 -0.12529948
v 0.09812592 0.05374136 -0.14715571
v 0.09774094 0.05391840 -0.16907205
v 0.09734080 0.05412036 -0.19104873
v 0.09692569 0.05434690 -0.21308601
v 0.09649522 0.05459868 -0.23518413
v 0.09604846 0.05487733 -0.25734336
v 0.09582564 0.05502513 -0.26800000
v 0.09162386 0.05289906 -0.28435434
v 0.09556598 0.05547487 -0.26800000
v 0.09554939 0.05574174 -0.25734336
v 0.09553146 0.05626797 -0.23518413
v 0.09552864 0.05676666 -0.21308601
v 0.09554001 0.05723943 -0.19104873
v 0.09556518 0.05768694 -0.16907205
v 0.09560434 0.05810886 -0.14715571
v 0.09565831 0.05850379 -0.12529948
v 0.09572856 0.05886919 -0.10350309
v 0.09581729 0.05920123 -0.08176630
v 0.09592757 0.05949463 -0.06008888
v 0.09606349 0.05974231 -0.03847058
v 0.09623046 0.05993488 -0.01691115
v 0.09643581 0.06005967 0.00458964
v 0.09668980 0.06009891 0.02603204
v 0.09700810 0.06002545 0.04741627
v 0.09845581 0.05046954 -0.26800000
v 0.09303555 0.03985770 0.09000000
v 0.09253555 0.04072372 0.13000000
v 0.07807145 0.05777628 0.13000000
v 0.08907145 0.03872372 0.13000000
v 0.08153555 0.05977628 0.13000000
v 0.08103555 0.06064230 0.09000000
v 0.09293581 0.06003046 -0.26800000
v 0.08910837 0.04825977 -0.30000000
v 0.08634837 0.05304023 -0.30000000
v 0.09303555 0.03985770 -0.26800000
v 0.08957145 0.03785770 0.09000000
v 0.07757145 0.05864230 0.09000000
v 0.07757145 0.05864230 -0.26800000
v 0.08057145 0.05344615 -0.30000000
v 0.08657145 0.04305385 -0.30000000
v 0.08957145 0.03785770 -0.26800000
v 0.08103555 0.06064230 -0.26800000
v 0.09003555 0.04505385 -0.30000000
v 0.09036040 0.04595370 -0.29600000
v 0.09128031 0.04754786 -0.29200000
v 0.09095047 0.04501916 -0.29200000
v 0.09457052 0.04866155 -0.28000000
v 0.09229055 0.04278558 -0.28000000
v 0.09265882 0.04591021 -0.28400000
v 0.09012359 0.04541699 -0.29800000
v 0.09018990 0.04495839 -0.29800000
v 0.09039383 0.04492079 -0.29600000
v 0.08985836 0.04725138 -0.29800000
v 0.09029352 0.04801953 -0.29600000
v 0.08972574 0.04816858 -0.29800000
v 0.09134219 0.04385318 -0.28800000
v 0.09103908 0.04377507 -0.29000000
v 0.09243202 0.04834054 -0.28800000
v 0.09196342 0.04860531 -0.29000000
v 0.09061449 0.04436673 -0.29400000
v 0.09050632 0.04437830 -0.29500000
v 0.09084458 0.04838694 -0.29400000
v 0.09056689 0.04846870 -0.29500000
v 0.09514143 0.04945787 -0.27900000
v 0.09210550 0.04189594 -0.27900000
v 0.09026319 0.04470703 -0.29750000
v 0.08984538 0.04837328 -0.29750000
v 0.09103798 0.04343692 -0.28950000
v 0.09130591 0.04313712 -0.28700000
v 0.09215744 0.04889679 -0.28950000
v 0.09285416 0.04896328 -0.28700000
v 0.09052863 0.04423589 -0.29475000
v 0.09065059 0.04407198 -0.29350000
v 0.09064104 0.04858777 -0.29475000
v 0.09100141 0.04863503 -0.29350000
v 0.09528997 0.04966373 -0.27875000
v 0.09205343 0.04166675 -0.27875000
v 0.09028006 0.04464250 -0.29737500
v 0.08987674 0.04842614 -0.29737500
v 0.09103626 0.04335069 -0.28937500
v 0.09129103 0.04295132 -0.28675000
v 0.09220740 0.04897135 -0.28937500
v 0.09296551 0.04912575 -0.28675000
v 0.09053385 0.04419987 -0.29468750
v 0.09065816 0.04399659 -0.29337500
v 0.09065995 0.04861796 -0.29468750
v 0.09104207 0.04869875 -0.29337500
v 0.09532746 0.04971562 -0.27868750
v 0.09204005 0.04160902 -0.27868750
v 0.09028419 0.04462626 -0.29734375
v 0.08988467 0.04843947 -0.29734375
v 0.09103574 0.04332903 -0.28934375
v 0.09128695 0.04290445 -0.28668750
v 0.09221998 0.04899010 -0.28934375
v 0.09299371 0.04916679 -0.28668750
v 0.09053513 0.04419084 -0.29467188
v 0.09065996 0.04397764 -0.29334375
v 0.09066469 0.04862554 -0.29467188
v 0.09105233 0.04871478 -0.29334375
v 0.09203668 0.04159457 -0.27867188
v 0.09533686 0.04972861 -0.27867188
v 0.08403555 0.05544615 -0.30000000
v 0.08585508 0.05473213 -0.29600000
v 0.08446297 0.05625584 -0.29200000
v 0.08681781 0.05527714 -0.29200000
v 0.08319867 0.05853317 -0.28000000
v 0.08942740 0.05756970 -0.28000000
v 0.08608882 0.05728979 -0.28400000
v 0.08621408 0.05390721 -0.29800000
v 0.08657809 0.05362048 -0.29800000
v 0.08673290 0.05418672 -0.29600000
v 0.08475806 0.05505410 -0.29800000
v 0.08409946 0.05582296 -0.29600000
v 0.08403006 0.05562755 -0.29800000
v 0.08808015 0.05587821 -0.28800000
v 0.08807514 0.05534001 -0.29000000
v 0.08364907 0.05717807 -0.28800000
v 0.08342986 0.05695462 -0.29000000
v 0.08732661 0.05448024 -0.29400000
v 0.08725857 0.05419888 -0.29500000
v 0.08372996 0.05629109 -0.29400000
v 0.08368589 0.05619163 -0.29500000
v 0.08233570 0.05881773 -0.27900000
v 0.09040248 0.05766596 -0.27900000
v 0.08681518 0.05362174 -0.29750000
v 0.08384902 0.05581670 -0.29750000
v 0.08842458 0.05536229 -0.28950000
v 0.08883053 0.05593242 -0.28700000
v 0.08313647 0.05712275 -0.28950000
v 0.08301079 0.05750468 -0.28700000
v 0.08739877 0.05420356 -0.29475000
v 0.08761988 0.05449202 -0.29350000
v 0.08357372 0.05628215 -0.29475000
v 0.08349274 0.05646972 -0.29350000
v 0.08211117 0.05888723 -0.27875000
v 0.09065503 0.05769167 -0.27875000
v 0.08687664 0.05362247 -0.29737500
v 0.08380157 0.05586358 -0.29737500
v 0.08851414 0.05536828 -0.28937500
v 0.08902690 0.05594761 -0.28675000
v 0.08306093 0.05716437 -0.28937500
v 0.08284245 0.05758469 -0.28675000
v 0.08743436 0.05420483 -0.29468750
v 0.08769539 0.05449537 -0.29337500
v 0.08354513 0.05630468 -0.29468750
v 0.08343125 0.05651397 -0.29337500
v 0.08205449 0.05890451 -0.27868750
v 0.09071872 0.05769820 -0.27868750
v 0.08689215 0.05362268 -0.29734375
v 0.08378957 0.05587527 -0.29734375
v 0.08853666 0.05536980 -0.28934375
v 0.08907654 0.05595152 -0.28668750
v 0.08304191 0.05717475 -0.28934375
v 0.08279981 0.05760459 -0.28668750
v 0.08744330 0.05420516 -0.29467188
v 0.08771440 0.05449624 -0.29334375
v 0.08353795 0.05631030 -0.29467188
v 0.08341574 0.05652501 -0.29334375
v 0.09073467 0.05769984 -0.27867188
v 0.08204029 0.05890882 -0.27867188
v 0.00000000 -0.11206923 0.11430769
v 0.00000000 -0.17200000 0.04500000
v -0.00234693 -0.11449874 0.09001265
v -0.00186150 -0.17200000 0.03055556
v 0.00234693 -0.11449874 0.09001265
v 0.00186150 -0.17200000 0.03055556
v 0.00243421 -0.17200000 0.01611111
v 0.00275512 -0.17200000 0.00166667
v 0.00292899 -0.17200000 -0.01277778
v 0.00300000 -0.17200000 -0.02722222
v 0.00299315 -0.17200000 -0.04166667
v 0.00292486 -0.17200000 -0.05611111
v 0.00280680 -0.17200000 -0.07055556
v 0.00264765 -0.17200000 -0.08500000
v 0.00245395 -0.17200000 -0.09944444
v 0.00223060 -0.17200000 -0.11388889
v 0.00198114 -0.17200000 -0.12833333
v 0.00170796 -0.17200000 -0.14277778
v 0.00141237 -0.17200000 -0.15722222
v 0.00109476 -0.17200000 -0.17166667
v 0.00075456 -0.17200000 -0.18611111
v 0.00039039 -0.17200000 -0.20055556
v 0.00000000 -0.17200000 -0.21500000
v -0.00039039 -0.17200000 -0.20055556
v -0.00075456 -0.17200000 -0.18611111
v -0.00109476 -0.17200000 -0.17166667
v -0.00141237 -0.17200000 -0.15722222
v -0.00170796 -0.17200000 -0.14277778
v -0.00198114 -0.17200000 -0.12833333
v -0.00223060 -0.17200000 -0.11388889
v -0.00245395 -0.17200000 -0.09944444
v -0.00264765 -0.17200000 -0.08500000
v -0.00280680 -0.17200000 -0.07055556
v -0.00292486 -0.17200000 -0.05611111
v -0.00299315 -0.17200000 -0.04166667
v -0.00300000 -0.17200000 -0.02722222
v -0.00292899 -0.17200000 -0.01277778
v -0.00275512 -0.17200000 0.00166667
v -0.00243421 -0.17200000 0.01611111
v -0.00234730 -0.11450000 0.09000000
v -0.00307161 -0.11426249 0.06874259
v -0.00552000 -0.11450000 0.09000000
v -0.00506000 -0.11050000 0.13000000
v 0.00234730 -0.11450000 0.09000000
v 0.00552000 -0.11450000 0.09000000
v 0.00506000 -0.11050000 0.13000000
v 0.00307161 -0.11426249 0.06874259
v -0.00347952 -0.11402420 0.04741627
v -0.00370228 -0.11378527 0.02603204
v -0.00379530 -0.11354569 0.00458964
v -0.00378989 -0.11330546 -0.01691115
v -0.00370662 -0.11306457 -0.03847058
v -0.00356008 -0.11282303 -0.06008888
v -0.00336113 -0.11258082 -0.08176630
v -0.00311793 -0.11233795 -0.10350309
v -0.00283661 -0.11209442 -0.12529948
v -0.00252158 -0.11185022 -0.14715571
v -0.00217577 -0.11160534 -0.16907205
v -0.00180079 -0.11135979 -0.19104873
v -0.00139705 -0.11111356 -0.21308601
v -0.00096376 -0.11086666 -0.23518413
v -0.00049906 -0.11061907 -0.25734336
v -0.00025966 -0.11050000 -0.26800000
v 0.00000000 -0.10579813 -0.28435434
v 0.00025966 -0.11050000 -0.26800000
v 0.00049906 -0.11061907 -0.25734336
v 0.00096376 -0.11086666 -0.23518413
v 0.00139705 -0.11111356 -0.21308601
v 0.00180079 -0.11135979 -0.19104873
v 0.00217577 -0.11160534 -0.16907205
v 0.00252158 -0.11185022 -0.14715571
v 0.00283661 -0.11209442 -0.12529948
v 0.00311793 -0.11233795 -0.10350309
v 0.00336113 -0.11258082 -0.08176630
v 0.00356008 -0.11282303 -0.06008888
v 0.00370662 -0.11306457 -0.03847058
v 0.00378989 -0.11330546 -0.01691115
v 0.00379530 -0.11354569 0.00458964
v 0.00370228 -0.11378527 0.02603204
v 0.00347952 -0.11402420 0.04741627
v -0.00552000 -0.11050000 -0.26800000
v -0.01200000 -0.10050000 0.09000000
v -0.01100000 -0.10050000 0.13000000
v 0.01100000 -0.09650000 0.13000000
v -0.01100000 -0.09650000 0.13000000
v 0.01100000 -0.10050000 0.13000000
v 0.01200000 -0.10050000 0.09000000
v 0.00552000 -0.11050000 -0.26800000
v -0.00276000 -0.10130000 -0.30000000
v 0.00276000 -0.10130000 -0.30000000
v -0.01200000 -0.10050000 -0.26800000
v -0.01200000 -0.09650000 0.09000000
v 0.01200000 -0.09650000 0.09000000
v 0.01200000 -0.09650000 -0.26800000
v 0.00600000 -0.09650000 -0.30000000
v -0.00600000 -0.09650000 -0.30000000
v -0.01200000 -0.09650000 -0.26800000
v 0.01200000 -0.10050000 -0.26800000
v -0.00600000 -0.10050000 -0.30000000
v -0.00538312 -0.10123125 -0.29600000
v -0.00446250 -0.10282500 -0.29200000
v -0.00648750 -0.10127500 -0.29200000
v -0.00514312 -0.10623125 -0.28000000
v -0.00909187 -0.10131875 -0.28000000
v -0.00657000 -0.10320000 -0.28400000
v -0.00572953 -0.10075781 -0.29800000
v -0.00615984 -0.10058594 -0.29800000
v -0.00629437 -0.10074375 -0.29600000
v -0.00400828 -0.10144531 -0.29800000
v -0.00356062 -0.10220625 -0.29600000
v -0.00314766 -0.10178906 -0.29800000
v -0.00769312 -0.10103125 -0.28800000
v -0.00760922 -0.10072969 -0.29000000
v -0.00435187 -0.10421875 -0.28800000
v -0.00388828 -0.10394531 -0.29000000
v -0.00688453 -0.10065781 -0.29400000
v -0.00682043 -0.10056992 -0.29500000
v -0.00351797 -0.10286719 -0.29400000
v -0.00330832 -0.10266758 -0.29500000
v -0.00473895 -0.10712383 -0.27900000
v -0.00976980 -0.10071367 -0.27900000
v -0.00641417 -0.10052373 -0.29750000
v -0.00303021 -0.10199502 -0.29750000
v -0.00790151 -0.10055967 -0.28950000
v -0.00829512 -0.10064180 -0.28700000
v -0.00373286 -0.10425908 -0.28950000
v -0.00402363 -0.10489570 -0.28700000
v -0.00695491 -0.10051804 -0.29475000
v -0.00715784 -0.10054170 -0.29350000
v -0.00324228 -0.10279133 -0.29475000
v -0.00338153 -0.10312705 -0.29350000
v -0.00463493 -0.10735540 -0.27875000
v -0.00994225 -0.10055398 -0.27875000
v -0.00647849 -0.10050607 -0.29737500
v -0.00300010 -0.10204861 -0.29737500
v -0.00797533 -0.10051506 -0.28937500
v -0.00844858 -0.10053601 -0.28675000
v -0.00369326 -0.10433963 -0.28937500
v -0.00393861 -0.10507336 -0.28675000
v -0.00698872 -0.10050455 -0.29468750
v -0.00722691 -0.10051057 -0.29337500
v -0.00322558 -0.10282280 -0.29468750
v -0.00334668 -0.10319412 -0.29337500
v -0.00460875 -0.10741381 -0.27868750
v -0.00998555 -0.10051353 -0.27868750
v -0.00649462 -0.10050153 -0.29734375
v -0.00299253 -0.10206214 -0.29734375
v -0.00799383 -0.10050377 -0.28934375
v -0.00848713 -0.10050904 -0.28668750
v -0.00368332 -0.10435990 -0.28934375
v -0.00391716 -0.10511831 -0.28668750
v -0.00699718 -0.10050114 -0.29467188
v -0.00724422 -0.10050265 -0.29334375
v -0.00322140 -0.10283070 -0.29467188
v -0.00333792 -0.10321102 -0.29334375
v -0.00999639 -0.10050338 -0.27867188
v -0.00460219 -0.10742845 -0.27867188
v 0.00600000 -0.10050000 -0.30000000
v 0.00447188 -0.10171875 -0.29600000
v 0.00648750 -0.10127500 -0.29200000
v 0.00446250 -0.10282500 -0.29200000
v 0.00909188 -0.10131875 -0.28000000
v 0.00514313 -0.10623125 -0.28000000
v 0.00657000 -0.10320000 -0.28400000
v 0.00357797 -0.10161719 -0.29800000
v 0.00314766 -0.10178906 -0.29800000
v 0.00356063 -0.10220625 -0.29600000
v 0.00529922 -0.10092969 -0.29800000
v 0.00629438 -0.10074375 -0.29600000
v 0.00615984 -0.10058594 -0.29800000
v 0.00435188 -0.10421875 -0.28800000
v 0.00388828 -0.10394531 -0.29000000
v 0.00769313 -0.10103125 -0.28800000
v 0.00760922 -0.10072969 -0.29000000
v 0.00351797 -0.10286719 -0.29400000
v 0.00330832 -0.10266758 -0.29500000
v 0.00688453 -0.10065781 -0.29400000
v 0.00682043 -0.10056992 -0.29500000
v 0.00976980 -0.10071367 -0.27900000
v 0.00473895 -0.10712383 -0.27900000
v 0.00303021 -0.10199502 -0.29750000
v 0.00641417 -0.10052373 -0.29750000
v 0.00373286 -0.10425908 -0.28950000
v 0.00402363 -0.10489570 -0.28700000
v 0.00790151 -0.10055967 -0.28950000
v 0.00829512 -0.10064180 -0.28700000
v 0.00324228 -0.10279133 -0.29475000
v 0.00338153 -0.10312705 -0.29350000
v 0.00695491 -0.10051804 -0.29475000
v 0.00715784 -0.10054170 -0.29350000
v 0.00463493 -0.10735540 -0.27875000
v 0.00994225 -0.10055398 -0.27875000
v 0.00300010 -0.10204861 -0.29737500
v 0.00647849 -0.10050607 -0.29737500
v 0.00369326 -0.10433963 -0.28937500
v 0.00393861 -0.10507336 -0.28675000
v 0.00797533 -0.10051506 -0.28937500
v 0.00844858 -0.10053601 -0.28675000
v 0.00322558 -0.10282280 -0.29468750
v 0.00334668 -0.10319412 -0.29337500
v 0.00698872 -0.10050455 -0.29468750
v 0.00722691 -0.10051057 -0.29337500
v 0.00998555 -0.10051353 -0.27868750
v 0.00460875 -0.10741381 -0.27868750
v 0.00299253 -0.10206214 -0.29734375
v 0.00649462 -0.10050153 -0.29734375
v 0.00368332 -0.10435990 -0.28934375
v 0.00391716 -0.10511831 -0.28668750
v 0.00799383 -0.10050377 -0.28934375
v 0.00848713 -0.10050904 -0.28668750
v 0.00322140 -0.10283070 -0.29467188
v 0.00333792 -0.10321102 -0.29334375
v 0.00699718 -0.10050114 -0.29467188
v 0.00724422 -0.10050265 -0.29334375
v 0.00460219 -0.10742845 -0.27867188
v 0.00999639 -0.10050338 -0.27867188
v -0.09705480 0.05603462 0.11430769
v -0.14895637 0.08600000 0.04500000
v -0.09798535 0.05928187 0.09001265
v -0.14802562 0.08761210 0.03055556
v -0.10033228 0.05521687 0.09001265
v -0.14988712 0.08438790 0.03055556
v -0.15017348 0.08389191 0.01611111
v -0.15033393 0.08361400 0.00166667
v -0.15042087 0.08346342 -0.01277778
v -0.15045637 0.08340192 -0.02722222
v -0.15045295 0.08340785 -0.04166667
v -0.15041880 0.08346700 -0.05611111
v -0.15035977 0.08356924 -0.07055556
v -0.15028020 0.08370707 -0.08500000
v -0.15018335 0.08387481 -0.09944444
v -0.15007167 0.08406824 -0.11388889
v -0.14994694 0.08428428 -0.12833333
v -0.14981035 0.08452086 -0.14277778
v -0.14966256 0.08477685 -0.15722222
v -0.14950375 0.08505191 -0.17166667
v -0.14933365 0.08534653 -0.18611111
v -0.14915156 0.08566191 -0.20055556
v -0.14895637 0.08600000 -0.21500000
v -0.14876117 0.08633809 -0.20055556
v -0.14857909 0.08665347 -0.18611111
v -0.14840899 0.08694809 -0.17166667
v -0.14825018 0.08722315 -0.15722222
v -0.14810239 0.08747914 -0.14277778
v -0.14796580 0.08771572 -0.12833333
v -0.14784107 0.08793176 -0.11388889
v -0.14772939 0.08812519 -0.09944444
v -0.14763254 0.08829293 -0.08500000
v -0.14755297 0.08843076 -0.07055556
v -0.14749394 0.08853300 -0.05611111
v -0.14745979 0.08859215 -0.04166667
v -0.14745637 0.08859808 -0.02722222
v -0.14749187 0.08853658 -0.01277778
v -0.14757881 0.08838600 0.00166667
v -0.14773926 0.08810809 0.01611111
v -0.09798626 0.05928282 0.09000000
v -0.09741841 0.05979133 0.06874259
v -0.09639991 0.06203046 0.09000000
v -0.09316581 0.05963209 0.13000000
v -0.10033356 0.05521718 0.09000000
v -0.10191991 0.05246954 0.09000000
v -0.09822581 0.05086791 0.13000000
v -0.10049002 0.05447116 0.06874259
v -0.09700810 0.06002545 0.04741627
v -0.09668980 0.06009891 0.02603204
v -0.09643581 0.06005967 0.00458964
v -0.09623046 0.05993488 -0.01691115
v -0.09606349 0.05974231 -0.03847058
v -0.09592757 0.05949463 -0.06008888
v -0.09581729 0.05920123 -0.08176630
v -0.09572856 0.05886919 -0.10350309
v -0.09565831 0.05850379 -0.12529948
v -0.09560434 0.05810886 -0.14715571
v -0.09556518 0.05768694 -0.16907205
v -0.09554001 0.05723943 -0.19104873
v -0.09552864 0.05676666 -0.21308601
v -0.09553146 0.05626797 -0.23518413
v -0.09554939 0.05574174 -0.25734336
v -0.09556598 0.05547487 -0.26800000
v -0.09162386 0.05289906 -0.28435434
v -0.09582564 0.05502513 -0.26800000
v -0.09604846 0.05487733 -0.25734336
v -0.09649522 0.05459868 -0.23518413
v -0.09692569 0.05434690 -0.21308601
v -0.09734080 0.05412036 -0.19104873
v -0.09774094 0.05391840 -0.16907205
v -0.09812592 0.05374136 -0.14715571
v -0.09849492 0.05359063 -0.12529948
v -0.09884649 0.05346877 -0.10350309
v -0.09917842 0.05337959 -0.08176630
v -0.09948765 0.05332840 -0.06008888
v -0.09977010 0.05332226 -0.03847058
v -0.10002036 0.05337059 -0.01691115
v -0.10023110 0.05348602 0.00458964
v -0.10039208 0.05368637 0.02603204
v -0.10048762 0.05399875 0.04741627
v -0.09293581 0.06003046 -0.26800000
v -0.08103555 0.06064230 0.09000000
v -0.08153555 0.05977628 0.13000000
v -0.08907145 0.03872372 0.13000000
v -0.07807145 0.05777628 0.13000000
v -0.09253555 0.04072372 0.13000000
v -0.09303555 0.03985770 0.09000000
v -0.09845581 0.05046954 -0.26800000
v -0.08634837 0.05304023 -0.30000000
v -0.08910837 0.04825977 -0.30000000
v -0.08103555 0.06064230 -0.26800000
v -0.07757145 0.05864230 0.09000000
v -0.08957145 0.03785770 0.09000000
v -0.08957145 0.03785770 -0.26800000
v -0.08657145 0.04305385 -0.30000000
v -0.08057145 0.05344615 -0.30000000
v -0.07757145 0.05864230 -0.26800000
v -0.09303555 0.03985770 -0.26800000
v -0.08403555 0.05544615 -0.30000000
v -0.08497727 0.05527755 -0.29600000
v -0.08681781 0.05527714 -0.29200000
v -0.08446297 0.05625584 -0.29200000
v -0.08942740 0.05756970 -0.28000000
v -0.08319867 0.05853317 -0.28000000
v -0.08608882 0.05728979 -0.28400000
v -0.08439406 0.05534083 -0.29800000
v -0.08403006 0.05562755 -0.29800000
v -0.08409946 0.05582296 -0.29600000
v -0.08585008 0.05419393 -0.29800000
v -0.08673290 0.05418672 -0.29600000
v -0.08657809 0.05362048 -0.29800000
v -0.08364907 0.05717807 -0.28800000
v -0.08342986 0.05695462 -0.29000000
v -0.08808015 0.05587821 -0.28800000
v -0.08807514 0.05534001 -0.29000000
v -0.08372996 0.05629109 -0.29400000
v -0.08368589 0.05619163 -0.29500000
v -0.08732661 0.05448024 -0.29400000
v -0.08725857 0.05419888 -0.29500000
v -0.09040248 0.05766596 -0.27900000
v -0.08233570 0.05881773 -0.27900000
v -0.08384902 0.05581670 -0.29750000
v -0.08681518 0.05362174 -0.29750000
v -0.08313647 0.05712275 -0.28950000
v -0.08301079 0.05750468 -0.28700000
v -0.08842458 0.05536229 -0.28950000
v -0.08883053 0.05593242 -0.28700000
v -0.08357372 0.05628215 -0.29475000
v -0.08349274 0.05646972 -0.29350000
v -0.08739877 0.05420356 -0.29475000
v -0.08761988 0.05449202 -0.29350000
v -0.09065503 0.05769167 -0.27875000
v -0.08211117 0.05888723 -0.27875000
v -0.08380157 0.05586358 -0.29737500
v -0.08687664 0.05362247 -0.29737500
v -0.08306093 0.05716437 -0.28937500
v -0.08284245 0.05758469 -0.28675000
v -0.08851414 0.05536828 -0.28937500
v -0.08902690 0.05594761 -0.28675000
v -0.08354513 0.05630468 -0.29468750
v -0.08343125 0.05651397 -0.29337500
v -0.08743436 0.05420483 -0.29468750
v -0.08769539 0.05449537 -0.29337500
v -0.09071872 0.05769820 -0.27868750
v -0.08205449 0.05890451 -0.27868750
v -0.08378957 0.05587527 -0.29734375
v -0.08689215 0.05362268 -0.29734375
v -0.08304191 0.05717475 -0.28934375
v -0.08279981 0.05760459 -0.28668750
v -0.08853666 0.05536980 -0.28934375
v -0.08907654 0.05595152 -0.28668750
v -0.08353795 0.05631030 -0.29467188
v -0.08341574 0.05652501 -0.29334375
v -0.08744330 0.05420516 -0.29467188
v -0.08771440 0.05449624 -0.29334375
v -0.08204029 0.05890882 -0.27867188
v -0.09073467 0.05769984 -0.27867188
v -0.09003555 0.04505385 -0.30000000
v -0.09032696 0.04698662 -0.29600000
v -0.09095047 0.04501916 -0.29200000
v -0.09128031 0.04754786 -0.29200000
v -0.09229055 0.04278558 -0.28000000
v -0.09457052 0.04866155 -0.28000000
v -0.09265882 0.04591021 -0.28400000
v -0.08979205 0.04770998 -0.29800000
v -0.08972574 0.04816858 -0.29800000
v -0.09029352 0.04801953 -0.29600000
v -0.09005728 0.04587559 -0.29800000
v -0.09039383 0.04492079 -0.29600000
v -0.09018990 0.04495839 -0.29800000
v -0.09243202 0.04834054 -0.28800000
v -0.09196342 0.04860531 -0.29000000
v -0.09134219 0.04385318 -0.28800000
v -0.09103908 0.04377507 -0.29000000
v -0.09084458 0.04838694 -0.29400000
v -0.09056689 0.04846870 -0.29500000
v -0.09061449 0.04436673 -0.29400000
v -0.09050632 0.04437830 -0.29500000
v -0.09210550 0.04189594 -0.27900000
v -0.09514143 0.04945787 -0.27900000
v -0.08984538 0.04837328 -0.29750000
v -0.09026319 0.04470703 -0.29750000
v -0.09215744 0.04889679 -0.28950000
v -0.09285416 0.04896328 -0.28700000
v -0.09103798 0.04343692 -0.28950000
v -0.09130591 0.04313712 -0.28700000
v -0.09064104 0.04858777 -0.29475000
v -0.09100141 0.04863503 -0.29350000
v -0.09052863 0.04423589 -0.29475000
v -0.09065059 0.04407198 -0.29350000
v -0.09528997 0.04966373 -0.27875000
v -0.09205343 0.04166675 -0.27875000
v -0.08987674 0.04842614 -0.29737500
v -0.09028006 0.04464250 -0.29737500
v -0.09220740 0.04897135 -0.28937500
v -0.09296551 0.04912575 -0.28675000
v -0.09103626 0.04335069 -0.28937500
v -0.09129103 0.04295132 -0.28675000
v -0.09065995 0.04861796 -0.29468750
v -0.09104207 0.04869875 -0.29337500
v -0.09053385 0.04419987 -0.29468750
v -0.09065816 0.04399659 -0.29337500
v -0.09204005 0.04160902 -0.27868750
v -0.09532746 0.04971562 -0.27868750
v -0.08988467 0.04843947 -0.29734375
v -0.09028419 0.04462626 -0.29734375
v -0.09221998 0.04899010 -0.28934375
v -0.09299371 0.04916679 -0.28668750
v -0.09103574 0.04332903 -0.28934375
v -0.09128695 0.04290445 -0.28668750
v -0.09066469 0.04862554 -0.29467188
v -0.09105233 0.04871478 -0.29334375
v -0.09053513 0.04419084 -0.29467188
v -0.09065996 0.04397764 -0.29334375
v -0.09533686 0.04972861 -0.27867188
v -0.09203668 0.04159457 -0.27867188
f 2 1 3
f 4 2 3
f 2 6 5
f 2 5 1
f 4 6 2
f 39 7 6
f 39 6 4
f 8 7 39
f 38 8 39
f 37 9 8
f 37 8 38
f 10 9 37
f 36 10 37
f 35 11 10
f 35 10 36
f 34 12 11
f 34 11 35
f 33 13 12
f 33 12 34
f 32 14 13
f 32 13 33
f 31 15 14
f 31 14 32
f 30 16 15
f 30 15 31
f 17 16 30
f 29 17 30
f 18 17 29
f 28 18 29
f 27 19 18
f 27 18 28
f 20 19 27
f 26 20 27
f 25 20 26
f 25 21 20
f 22 21 25
f 24 22 25
f 23 22 24
f 4 3 40
f 39 40 41
f 39 4 40
f 3 42 40
f 45 5 44
f 1 42 3
f 1 5 45
f 46 43 1
f 43 42 1
f 45 46 1
f 7 47 44
f 6 44 5
f 6 7 44
f 38 39 41
f 38 41 48
f 37 38 48
f 37 48 49
f 36 37 49
f 36 49 50
f 35 36 50
f 35 50 51
f 34 35 51
f 34 51 52
f 33 34 52
f 33 52 53
f 32 33 53
f 32 53 54
f 31 32 54
f 31 54 55
f 30 31 55
f 30 55 56
f 29 30 56
f 29 56 57
f 28 29 57
f 28 57 58
f 27 28 58
f 27 58 59
f 26 27 59
f 26 59 60
f 25 26 60
f 25 60 61
f 24 25 61
f 24 61 62
f 24 62 63
f 23 63 64
f 23 24 63
f 23 64 65
f 22 65 66
f 22 23 65
f 22 66 67
f 21 22 67
f 21 67 68
f 20 21 68
f 20 68 69
f 19 20 69
f 19 69 70
f 18 19 70
f 18 70 71
f 17 18 71
f 17 71 72
f 16 17 72
f 16 72 73
f 15 16 73
f 15 73 74
f 14 15 74
f 14 74 75
f 13 14 75
f 13 75 76
f 12 13 76
f 12 76 77
f 11 12 77
f 11 77 78
f 10 11 78
f 10 78 79
f 9 10 79
f 9 79 80
f 8 9 80
f 8 80 47
f 7 8 47
f 62 81 63
f 61 81 62
f 60 81 61
f 42 48 41
f 40 42 41
f 42 81 50
f 50 81 51
f 51 81 52
f 52 81 53
f 53 81 54
f 54 81 55
f 55 81 56
f 56 81 57
f 57 81 58
f 58 81 59
f 59 81 60
f 42 50 49
f 42 49 48
f 83 82 42
f 43 83 42
f 83 84 85
f 83 86 84
f 43 46 86
f 43 86 83
f 86 45 87
f 86 46 45
f 66 65 88
f 67 66 88
f 68 67 88
f 45 44 47
f 45 47 80
f 88 45 78
f 78 45 79
f 79 45 80
f 88 78 77
f 88 77 76
f 88 76 75
f 88 75 74
f 88 74 73
f 88 73 72
f 88 72 71
f 88 71 70
f 88 70 69
f 88 69 68
f 64 89 90
f 63 81 64
f 88 65 64
f 81 89 64
f 90 88 64
f 42 91 81
f 42 82 91
f 83 92 82
f 83 85 92
f 94 95 96
f 97 94 96
f 92 93 94
f 92 94 97
f 85 84 93
f 85 93 92
f 84 87 93
f 84 86 87
f 87 88 98
f 87 45 88
f 100 101 102
f 103 104 105
f 106 107 99
f 106 100 108
f 109 99 89
f 109 110 100
f 109 106 99
f 109 100 106
f 111 109 89
f 111 110 109
f 112 113 102
f 114 102 101
f 114 101 115
f 114 112 102
f 114 105 112
f 116 100 102
f 116 108 100
f 116 117 108
f 118 101 100
f 118 100 110
f 118 110 119
f 120 121 104
f 120 104 103
f 122 99 107
f 122 107 106
f 122 106 108
f 123 111 89
f 123 110 111
f 124 113 112
f 125 112 105
f 126 114 115
f 127 105 114
f 128 117 116
f 129 116 102
f 130 118 119
f 131 101 118
f 132 121 120
f 132 133 121
f 134 99 122
f 134 122 108
f 135 123 89
f 135 110 123
f 136 124 112
f 137 125 105
f 138 114 126
f 139 105 127
f 140 128 116
f 141 129 102
f 142 118 130
f 143 101 131
f 144 145 133
f 144 133 132
f 146 134 108
f 146 128 140
f 146 108 117
f 146 99 134
f 146 117 128
f 147 135 89
f 147 110 135
f 147 142 130
f 147 119 110
f 147 130 119
f 148 136 112
f 148 125 137
f 148 112 125
f 149 133 145
f 149 121 133
f 149 104 121
f 149 137 105
f 149 105 104
f 149 148 137
f 150 114 138
f 150 139 127
f 150 127 114
f 151 103 105
f 151 144 132
f 151 139 150
f 151 120 103
f 151 132 120
f 151 105 139
f 152 99 146
f 152 140 116
f 152 129 141
f 152 146 140
f 152 116 129
f 153 136 148
f 153 141 102
f 153 102 113
f 153 113 124
f 153 152 141
f 153 148 152
f 153 124 136
f 154 147 89
f 154 142 147
f 154 118 142
f 154 143 131
f 154 131 118
f 155 126 115
f 155 115 101
f 155 138 126
f 155 101 143
f 155 143 154
f 155 154 150
f 155 150 138
f 156 149 145
f 156 91 99
f 156 99 152
f 156 148 149
f 156 152 148
f 157 89 81
f 157 81 91
f 157 145 144
f 157 144 151
f 157 156 145
f 157 91 156
f 157 151 150
f 157 150 154
f 157 154 89
f 159 160 161
f 162 163 164
f 165 166 90
f 165 159 167
f 168 90 158
f 168 169 159
f 168 165 90
f 168 159 165
f 170 168 158
f 170 169 168
f 171 172 161
f 173 161 160
f 173 160 174
f 173 171 161
f 173 164 171
f 175 159 161
f 175 167 159
f 175 176 167
f 177 160 159
f 177 159 169
f 177 169 178
f 179 180 163
f 179 163 162
f 181 90 166
f 181 166 165
f 181 165 167
f 182 170 158
f 182 169 170
f 183 172 171
f 184 171 164
f 185 173 174
f 186 164 173
f 187 176 175
f 188 175 161
f 189 177 178
f 190 160 177
f 191 180 179
f 191 192 180
f 193 90 181
f 193 181 167
f 194 182 158
f 194 169 182
f 195 183 171
f 196 184 164
f 197 173 185
f 198 164 186
f 199 187 175
f 200 188 161
f 201 177 189
f 202 160 190
f 203 204 192
f 203 192 191
f 205 193 167
f 205 187 199
f 205 167 176
f 205 90 193
f 205 176 187
f 206 194 158
f 206 169 194
f 206 201 189
f 206 178 169
f 206 189 178
f 207 195 171
f 207 184 196
f 207 171 184
f 208 192 204
f 208 180 192
f 208 163 180
f 208 196 164
f 208 164 163
f 208 207 196
f 209 173 197
f 209 198 186
f 209 186 173
f 210 162 164
f 210 191 179
f 210 203 191
f 210 198 209
f 210 179 162
f 210 164 198
f 211 205 199
f 211 199 175
f 211 188 200
f 211 90 205
f 211 175 188
f 212 200 161
f 212 161 172
f 212 172 183
f 212 211 200
f 212 207 211
f 212 183 195
f 212 195 207
f 213 206 158
f 213 201 206
f 213 177 201
f 213 202 190
f 213 190 177
f 214 185 174
f 214 174 160
f 214 197 185
f 214 160 202
f 214 202 213
f 214 213 209
f 214 209 197
f 215 208 204
f 215 88 90
f 215 207 208
f 215 211 207
f 215 90 211
f 216 158 98
f 216 98 88
f 216 204 203
f 216 215 204
f 216 88 215
f 216 203 210
f 216 210 209
f 216 209 213
f 216 213 158
f 90 95 158
f 89 95 90
f 96 89 99
f 96 95 89
f 82 97 91
f 82 92 97
f 93 98 94
f 93 87 98
f 91 96 99
f 91 97 96
f 94 158 95
f 94 98 158
f 218 217 219
f 220 218 219
f 218 222 221
f 218 221 217
f 220 222 218
f 255 223 222
f 255 222 220
f 224 223 255
f 254 224 255
f 253 225 224
f 253 224 254
f 226 225 253
f 252 226 253
f 251 227 226
f 251 226 252
f 250 228 227
f 250 227 251
f 249 229 228
f 249 228 250
f 248 230 229
f 248 229 249
f 247 231 230
f 247 230 248
f 246 232 231
f 246 231 247
f 233 232 246
f 245 233 246
f 234 233 245
f 244 234 245
f 243 235 234
f 243 234 244
f 236 235 243
f 242 236 243
f 241 236 242
f 241 237 236
f 238 237 241
f 240 238 241
f 239 238 240
f 220 219 256
f 255 256 257
f 255 220 256
f 219 258 256
f 261 221 260
f 217 258 219
f 217 221 261
f 262 259 217
f 259 258 217
f 261 262 217
f 223 263 260
f 222 260 221
f 222 223 260
f 254 255 257
f 254 257 264
f 253 254 264
f 253 264 265
f 252 253 265
f 252 265 266
f 251 252 266
f 251 266 267
f 250 251 267
f 250 267 268
f 249 250 268
f 249 268 269
f 248 249 269
f 248 269 270
f 247 248 270
f 247 270 271
f 246 247 271
f 246 271 272
f 245 246 272
f 245 272 273
f 244 245 273
f 244 273 274
f 243 244 274
f 243 274 275
f 242 243 275
f 242 275 276
f 241 242 276
f 241 276 277
f 240 241 277
f 240 277 278
f 240 278 279
f 239 279 280
f 239 240 279
f 239 280 281
f 238 281 282
f 238 239 281
f 238 282 283
f 237 238 283
f 237 283 284
f 236 237 284
f 236 284 285
f 235 236 285
f 235 285 286
f 234 235 286
f 234 286 287
f 233 234 287
f 233 287 288
f 232 233 288
f 232 288 289
f 231 232 289
f 231 289 290
f 230 231 290
f 230 290 291
f 229 230 291
f 229 291 292
f 228 229 292
f 228 292 293
f 227 228 293
f 227 293 294
f 226 227 294
f 226 294 295
f 225 226 295
f 225 295 296
f 224 225 296
f 224 296 263
f 223 224 263
f 278 297 279
f 277 297 278
f 276 297 277
f 258 264 257
f 256 258 257
f 258 297 266
f 266 297 267
f 267 297 268
f 268 297 269
f 269 297 270
f 270 297 271
f 271 297 272
f 272 297 273
f 273 297 274
f 274 297 275
f 275 297 276
f 258 266 265
f 258 265 264
f 299 298 258
f 259 299 258
f 299 300 301
f 299 302 300
f 259 262 302
f 259 302 299
f 302 261 303
f 302 262 261
f 282 281 304
f 283 282 304
f 284 283 304
f 261 260 263
f 261 263 296
f 304 261 294
f 294 261 295
f 295 261 296
f 304 294 293
f 304 293 292
f 304 292 291
f 304 291 290
f 304 290 289
f 304 289 288
f 304 288 287
f 304 287 286
f 304 286 285
f 304 285 284
f 280 305 306
f 279 297 280
f 304 281 280
f 297 305 280
f 306 304 280
f 258 307 297
f 258 298 307
f 299 308 298
f 299 301 308
f 310 311 312
f 313 310 312
f 308 309 310
f 308 310 313
f 301 300 309
f 301 309 308
f 300 303 309
f 300 302 303
f 303 304 314
f 303 261 304
f 316 317 318
f 319 320 321
f 322 323 315
f 322 316 324
f 325 315 305
f 325 326 316
f 325 322 315
f 325 316 322
f 327 325 305
f 327 326 325
f 328 329 318
f 330 318 317
f 330 317 331
f 330 328 318
f 330 321 328
f 332 316 318
f 332 324 316
f 332 333 324
f 334 317 316
f 334 316 326
f 334 326 335
f 336 337 320
f 336 320 319
f 338 315 323
f 338 323 322
f 338 322 324
f 339 327 305
f 339 326 327
f 340 329 328
f 341 328 321
f 342 330 331
f 343 321 330
f 344 333 332
f 345 332 318
f 346 334 335
f 347 317 334
f 348 337 336
f 348 349 337
f 350 315 338
f 350 338 324
f 351 339 305
f 351 326 339
f 352 340 328
f 353 341 321
f 354 330 342
f 355 321 343
f 356 344 332
f 357 345 318
f 358 334 346
f 359 317 347
f 360 361 349
f 360 349 348
f 362 350 324
f 362 344 356
f 362 324 333
f 362 315 350
f 362 333 344
f 363 351 305
f 363 326 351
f 363 358 346
f 363 335 326
f 363 346 335
f 364 352 328
f 364 341 353
f 364 328 341
f 365 349 361
f 365 337 349
f 365 320 337
f 365 353 321
f 365 321 320
f 365 364 353
f 366 330 354
f 366 355 343
f 366 343 330
f 367 319 321
f 367 360 348
f 367 355 366
f 367 336 319
f 367 348 336
f 367 321 355
f 368 315 362
f 368 356 332
f 368 345 357
f 368 362 356
f 368 332 345
f 369 352 364
f 369 357 318
f 369 318 329
f 369 329 340
f 369 368 357
f 369 364 368
f 369 340 352
f 370 363 305
f 370 358 363
f 370 334 358
f 370 359 347
f 370 347 334
f 371 342 331
f 371 331 317
f 371 354 342
f 371 317 359
f 371 359 370
f 371 370 366
f 371 366 354
f 372 365 361
f 372 307 315
f 372 315 368
f 372 364 365
f 372 368 364
f 373 305 297
f 373 297 307
f 373 361 360
f 373 360 367
f 373 372 361
f 373 307 372
f 373 367 366
f 373 366 370
f 373 370 305
f 375 376 377
f 378 379 380
f 381 382 306
f 381 375 383
f 384 306 374
f 384 385 375
f 384 381 306
f 384 375 381
f 386 384 374
f 386 385 384
f 387 388 377
f 389 377 376
f 389 376 390
f 389 387 377
f 389 380 387
f 391 375 377
f 391 383 375
f 391 392 383
f 393 376 375
f 393 375 385
f 393 385 394
f 395 379 378
f 395 396 379
f 397 306 382
f 397 382 381
f 397 381 383
f 398 386 374
f 398 385 386
f 399 388 387
f 400 387 380
f 401 389 390
f 402 380 389
f 403 392 391
f 404 391 377
f 405 393 394
f 406 376 393
f 407 396 395
f 408 407 395
f 409 306 397
f 409 397 383
f 410 398 374
f 410 385 398
f 411 399 387
f 412 400 380
f 413 389 401
f 414 380 402
f 415 403 391
f 416 404 377
f 417 393 405
f 418 376 406
f 419 420 407
f 419 407 408
f 421 409 383
f 421 403 415
f 421 383 392
f 421 306 409
f 421 392 403
f 422 410 374
f 422 385 410
f 422 417 405
f 422 394 385
f 422 405 394
f 423 411 387
f 423 400 412
f 423 387 400
f 424 396 407
f 424 379 396
f 424 412 380
f 424 380 379
f 424 407 420
f 424 423 412
f 425 389 413
f 425 414 402
f 425 402 389
f 426 378 380
f 426 419 408
f 426 408 395
f 426 414 425
f 426 395 378
f 426 380 414
f 427 421 415
f 427 415 391
f 427 306 421
f 427 391 404
f 427 404 416
f 428 411 423
f 428 377 388
f 428 388 399
f 428 423 427
f 428 427 416
f 428 399 411
f 428 416 377
f 429 422 374
f 429 393 417
f 429 418 406
f 429 417 422
f 429 406 393
f 430 413 401
f 430 425 413
f 430 390 376
f 430 376 418
f 430 401 390
f 430 418 429
f 430 429 425
f 431 304 306
f 431 424 420
f 431 423 424
f 431 427 423
f 431 306 427
f 432 374 314
f 432 314 304
f 432 426 425
f 432 420 419
f 432 429 374
f 432 425 429
f 432 419 426
f 432 431 420
f 432 304 431
f 306 311 374
f 305 311 306
f 312 305 315
f 312 311 305
f 298 313 307
f 298 308 313
f 309 314 310
f 309 303 314
f 307 312 315
f 307 313 312
f 310 374 311
f 310 314 374
f 434 433 435
f 436 434 435
f 434 438 437
f 434 437 433
f 436 438 434
f 471 439 438
f 471 438 436
f 440 439 471
f 470 440 471
f 469 441 440
f 469 440 470
f 442 441 469
f 468 442 469
f 467 443 442
f 467 442 468
f 466 444 443
f 466 443 467
f 465 445 444
f 465 444 466
f 464 446 445
f 464 445 465
f 463 447 446
f 463 446 464
f 462 448 447
f 462 447 463
f 449 448 462
f 461 449 462
f 450 449 461
f 460 450 461
f 459 451 450
f 459 450 460
f 452 451 459
f 458 452 459
f 457 452 458
f 457 453 452
f 454 453 457
f 456 454 457
f 455 454 456
f 436 435 472
f 471 472 473
f 471 436 472
f 435 474 472
f 477 437 476
f 433 474 435
f 433 437 477
f 478 475 433
f 475 474 433
f 477 478 433
f 439 479 476
f 438 476 437
f 438 439 476
f 470 471 473
f 470 473 480
f 469 470 480
f 469 480 481
f 468 469 481
f 468 481 482
f 467 468 482
f 467 482 483
f 466 467 483
f 466 483 484
f 465 466 484
f 465 484 485
f 464 465 485
f 464 485 486
f 463 464 486
f 463 486 487
f 462 463 487
f 462 487 488
f 461 462 488
f 461 488 489
f 460 461 489
f 460 489 490
f 459 460 490
f 459 490 491
f 458 459 491
f 458 491 492
f 457 458 492
f 457 492 493
f 456 457 493
f 456 493 494
f 456 494 495
f 455 495 496
f 455 456 495
f 455 496 497
f 454 497 498
f 454 455 497
f 454 498 499
f 453 454 499
f 453 499 500
f 452 453 500
f 452 500 501
f 451 452 501
f 451 501 502
f 450 451 502
f 450 502 503
f 449 450 503
f 449 503 504
f 448 449 504
f 448 504 505
f 447 448 505
f 447 505 506
f 446 447 506
f 446 506 507
f 445 446 507
f 445 507 508
f 444 445 508
f 444 508 509
f 443 444 509
f 443 509 510
f 442 443 510
f 442 510 511
f 441 442 511
f 441 511 512
f 440 441 512
f 440 512 479
f 439 440 479
f 494 513 495
f 493 513 494
f 492 513 493
f 474 480 473
f 472 474 473
f 474 513 482
f 482 513 483
f 483 513 484
f 484 513 485
f 485 513 486
f 486 513 487
f 487 513 488
f 488 513 489
f 489 513 490
f 490 513 491
f 491 513 492
f 474 482 481
f 474 481 480
f 515 514 474
f 475 515 474
f 515 516 517
f 515 518 516
f 475 478 518
f 475 518 515
f 518 477 519
f 518 478 477
f 498 497 520
f 499 498 520
f 500 499 520
f 477 476 479
f 477 479 512
f 520 477 510
f 510 477 511
f 511 477 512
f 520 510 509
f 520 509 508
f 520 508 507
f 520 507 506
f 520 506 505
f 520 505 504
f 520 504 503
f 520 503 502
f 520 502 501
f 520 501 500
f 496 521 522
f 495 513 496
f 520 497 496
f 513 521 496
f 522 520 496
f 474 523 513
f 474 514 523
f 515 524 514
f 515 517 524
f 526 527 528
f 529 526 528
f 524 525 526
f 524 526 529
f 517 516 525
f 517 525 524
f 516 519 525
f 516 518 519
f 519 520 530
f 519 477 520
f 532 533 534
f 535 536 537
f 538 539 531
f 538 532 540
f 541 531 521
f 541 542 532
f 541 538 531
f 541 532 538
f 543 541 521
f 543 542 541
f 544 545 534
f 546 534 533
f 546 533 547
f 546 544 534
f 546 537 544
f 548 532 534
f 548 540 532
f 548 549 540
f 550 533 532
f 550 532 542
f 550 542 551
f 552 536 535
f 552 553 536
f 554 531 539
f 554 539 538
f 554 538 540
f 555 543 521
f 555 542 543
f 556 545 544
f 557 544 537
f 558 546 547
f 559 537 546
f 560 549 548
f 561 548 534
f 562 550 551
f 563 533 550
f 564 565 553
f 564 553 552
f 566 531 554
f 566 554 540
f 567 555 521
f 567 542 555
f 568 556 544
f 569 557 537
f 570 546 558
f 571 537 559
f 572 560 548
f 573 561 534
f 574 550 562
f 575 533 563
f 576 577 565
f 576 565 564
f 578 566 540
f 578 560 572
f 578 540 549
f 578 531 566
f 578 549 560
f 579 542 567
f 579 574 562
f 579 551 542
f 579 567 521
f 579 562 551
f 580 568 544
f 580 557 569
f 580 544 557
f 581 553 565
f 581 536 553
f 581 569 537
f 581 537 536
f 581 565 577
f 581 580 569
f 582 546 570
f 582 571 559
f 582 559 546
f 583 564 552
f 583 537 571
f 583 535 537
f 583 571 582
f 583 552 535
f 583 576 564
f 584 578 572
f 584 572 548
f 584 531 578
f 584 548 561
f 584 561 573
f 585 534 545
f 585 584 573
f 585 545 556
f 585 580 584
f 585 556 568
f 585 573 534
f 585 568 580
f 586 575 563
f 586 550 574
f 586 574 579
f 586 579 521
f 586 563 550
f 587 586 582
f 587 547 533
f 587 570 558
f 587 533 575
f 587 558 547
f 587 582 570
f 587 575 586
f 588 523 531
f 588 531 584
f 588 581 577
f 588 580 581
f 588 584 580
f 589 521 513
f 589 513 523
f 589 582 586
f 589 577 576
f 589 523 588
f 589 586 521
f 589 583 582
f 589 576 583
f 589 588 577
f 591 592 593
f 594 595 596
f 597 598 522
f 597 591 599
f 600 522 590
f 600 601 591
f 600 597 522
f 600 591 597
f 602 600 590
f 602 601 600
f 603 604 593
f 605 593 592
f 605 592 606
f 605 603 593
f 605 596 603
f 607 591 593
f 607 599 591
f 607 608 599
f 609 592 591
f 609 591 601
f 609 601 610
f 611 595 594
f 611 612 595
f 613 522 598
f 613 598 597
f 613 597 599
f 614 602 590
f 614 601 602
f 615 604 603
f 616 603 596
f 617 605 606
f 618 596 605
f 619 608 607
f 620 607 593
f 621 609 610
f 622 592 609
f 623 612 611
f 624 623 611
f 625 522 613
f 625 613 599
f 626 614 590
f 626 601 614
f 627 615 603
f 628 616 596
f 629 605 617
f 630 596 618
f 631 619 607
f 632 620 593
f 633 609 621
f 634 592 622
f 635 636 623
f 635 623 624
f 637 625 599
f 637 619 631
f 637 599 608
f 637 522 625
f 637 608 619
f 638 626 590
f 638 601 626
f 638 633 621
f 638 610 601
f 638 621 610
f 639 627 603
f 639 616 628
f 639 603 616
f 640 612 623
f 640 595 612
f 640 628 596
f 640 596 595
f 640 623 636
f 640 639 628
f 641 605 629
f 641 630 618
f 641 618 605
f 642 594 596
f 642 635 624
f 642 624 611
f 642 630 641
f 642 611 594
f 642 596 630
f 643 637 631
f 643 631 607
f 643 522 637
f 643 607 620
f 643 620 632
f 644 627 639
f 644 593 604
f 644 604 615
f 644 639 643
f 644 643 632
f 644 615 627
f 644 632 593
f 645 638 590
f 645 609 633
f 645 634 622
f 645 633 638
f 645 622 609
f 646 629 617
f 646 641 629
f 646 606 592
f 646 592 634
f 646 617 606
f 646 634 645
f 646 645 641
f 647 520 522
f 647 640 636
f 647 639 640
f 647 643 639
f 647 522 643
f 648 590 530
f 648 530 520
f 648 642 641
f 648 636 635
f 648 645 590
f 648 641 645
f 648 635 642
f 648 647 636
f 648 520 647
f 522 527 590
f 528 522 521
f 528 521 531
f 528 527 522
f 514 529 523
f 514 524 529
f 525 530 526
f 525 519 530
f 523 528 531
f 523 529 528
f 526 590 527
f 526 530 590

